<svg xmlns="http://www.w3.org/2000/svg" width="1920.429" height="1005.714" viewBox="0 0 1920.429 1005.714">
  <g id="Circle-2" transform="translate(0 0)">
    <rect id="Rectangle_193" data-name="Rectangle 193" width="91.429" height="91.429" fill="#fee"/>
    <rect id="Rectangle_194" data-name="Rectangle 194" width="91.429" height="91.429" transform="translate(182.857 91.429)" fill="#fee"/>
    <rect id="Rectangle_195" data-name="Rectangle 195" width="91.429" height="91.429" transform="translate(182.857 0)" fill="#fee"/>
    <rect id="Rectangle_196" data-name="Rectangle 196" width="91.429" height="91.429" transform="translate(91.429 91.429)" fill="#fee"/>
    <rect id="Rectangle_197" data-name="Rectangle 197" width="91.429" height="91.429" transform="translate(0 91.429)" fill="#fee"/>
    <rect id="Rectangle_198" data-name="Rectangle 198" width="91.429" height="91.429" transform="translate(91.429)" fill="#fee"/>
    <rect id="Rectangle_199" data-name="Rectangle 199" width="91.429" height="91.429" transform="translate(274.286 182.857)" fill="#fee"/>
    <rect id="Rectangle_200" data-name="Rectangle 200" width="91.429" height="91.429" transform="translate(182.857 182.857)" fill="#fee"/>
    <rect id="Rectangle_201" data-name="Rectangle 201" width="91.429" height="91.429" transform="translate(91.429 182.857)" fill="#fee"/>
    <rect id="Rectangle_202" data-name="Rectangle 202" width="91.429" height="91.429" transform="translate(0 182.857)" fill="#fee"/>
    <rect id="Rectangle_203" data-name="Rectangle 203" width="91.429" height="91.429" transform="translate(457.143 91.429)" fill="#fee"/>
    <rect id="Rectangle_204" data-name="Rectangle 204" width="91.429" height="91.429" transform="translate(457.143)" fill="#fee"/>
    <rect id="Rectangle_205" data-name="Rectangle 205" width="91.429" height="91.429" transform="translate(365.714 91.429)" fill="#fee"/>
    <rect id="Rectangle_206" data-name="Rectangle 206" width="91.429" height="91.429" transform="translate(365.714)" fill="#fee"/>
    <rect id="Rectangle_207" data-name="Rectangle 207" width="91.429" height="91.429" transform="translate(274.286 91.429)" fill="#fee"/>
    <rect id="Rectangle_208" data-name="Rectangle 208" width="91.429" height="91.429" transform="translate(274.286)" fill="#fee"/>
    <rect id="Rectangle_209" data-name="Rectangle 209" width="91.429" height="91.429" transform="translate(640 182.857)" fill="#fee"/>
    <rect id="Rectangle_210" data-name="Rectangle 210" width="91.429" height="91.429" transform="translate(640 91.429)" fill="#fee"/>
    <rect id="Rectangle_211" data-name="Rectangle 211" width="91.429" height="91.429" transform="translate(640)" fill="#fee"/>
    <rect id="Rectangle_212" data-name="Rectangle 212" width="91.429" height="91.429" transform="translate(548.571)" fill="#fee"/>
    <rect id="Rectangle_213" data-name="Rectangle 213" width="91.429" height="91.429" transform="translate(548.571 91.429)" fill="#fee"/>
    <rect id="Rectangle_214" data-name="Rectangle 214" width="91.429" height="91.429" transform="translate(548.571 182.857)" fill="#fee"/>
    <rect id="Rectangle_215" data-name="Rectangle 215" width="91.429" height="91.429" transform="translate(457.143 182.857)" fill="#fee"/>
    <rect id="Rectangle_216" data-name="Rectangle 216" width="91.429" height="91.429" transform="translate(365.714 182.857)" fill="#fee"/>
    <rect id="Rectangle_219" data-name="Rectangle 219" width="91.429" height="91.429" transform="translate(731.429 91.429)" fill="#fee"/>
    <rect id="Rectangle_220" data-name="Rectangle 220" width="91.429" height="91.429" transform="translate(914.286 91.429)" fill="#fee"/>
    <rect id="Rectangle_221" data-name="Rectangle 221" width="91.429" height="91.429" transform="translate(914.286)" fill="#fee"/>
    <rect id="Rectangle_222" data-name="Rectangle 222" width="91.429" height="91.429" transform="translate(822.857)" fill="#fee"/>
    <rect id="Rectangle_223" data-name="Rectangle 223" width="91.429" height="91.429" transform="translate(822.857 91.429)" fill="#fee"/>
    <rect id="Rectangle_224" data-name="Rectangle 224" width="91.429" height="91.429" transform="translate(822.857 182.857)" fill="#fee"/>
    <rect id="Rectangle_225" data-name="Rectangle 225" width="91.429" height="91.429" transform="translate(731.429 182.857)" fill="#fee"/>
    <rect id="Rectangle_226" data-name="Rectangle 226" width="91.429" height="91.429" transform="translate(731.429)" fill="#fee"/>
    <rect id="Rectangle_227" data-name="Rectangle 227" width="91.429" height="91.429" transform="translate(914.286 182.857)" fill="#fee"/>
    <rect id="Rectangle_228" data-name="Rectangle 228" width="91.429" height="91.429" transform="translate(1005.714 91.429)" fill="#fee"/>
    <rect id="Rectangle_229" data-name="Rectangle 229" width="91.429" height="91.429" transform="translate(1188.571 91.429)" fill="#fee"/>
    <rect id="Rectangle_230" data-name="Rectangle 230" width="91.429" height="91.429" transform="translate(1188.571 0)" fill="#fee"/>
    <rect id="Rectangle_231" data-name="Rectangle 231" width="91.429" height="91.429" transform="translate(1097.143 0)" fill="#fee"/>
    <rect id="Rectangle_232" data-name="Rectangle 232" width="91.429" height="91.429" transform="translate(1097.143 91.429)" fill="#fee"/>
    <rect id="Rectangle_233" data-name="Rectangle 233" width="91.429" height="91.429" transform="translate(1097.143 182.857)" fill="#fee"/>
    <rect id="Rectangle_234" data-name="Rectangle 234" width="91.429" height="91.429" transform="translate(1005.714 182.857)" fill="#fee"/>
    <rect id="Rectangle_235" data-name="Rectangle 235" width="91.429" height="91.429" transform="translate(1005.714 0)" fill="#fee"/>
    <rect id="Rectangle_236" data-name="Rectangle 236" width="91.429" height="91.429" transform="translate(1188.571 182.857)" fill="#fee"/>
    <rect id="Rectangle_237" data-name="Rectangle 237" width="91.429" height="91.429" transform="translate(1280 91.429)" fill="#fee"/>
    <rect id="Rectangle_238" data-name="Rectangle 238" width="91.429" height="91.429" transform="translate(1462.857 91.429)" fill="#fee"/>
    <rect id="Rectangle_239" data-name="Rectangle 239" width="91.429" height="91.429" transform="translate(1462.857)" fill="#fee"/>
    <rect id="Rectangle_240" data-name="Rectangle 240" width="91.429" height="91.429" transform="translate(1371.429)" fill="#fee"/>
    <rect id="Rectangle_241" data-name="Rectangle 241" width="91.429" height="91.429" transform="translate(1371.429 91.429)" fill="#fee"/>
    <rect id="Rectangle_242" data-name="Rectangle 242" width="91.429" height="91.429" transform="translate(1371.429 182.857)" fill="#fee"/>
    <rect id="Rectangle_243" data-name="Rectangle 243" width="91.429" height="91.429" transform="translate(1280 182.857)" fill="#fee"/>
    <rect id="Rectangle_244" data-name="Rectangle 244" width="91.429" height="91.429" transform="translate(1280)" fill="#fee"/>
    <rect id="Rectangle_245" data-name="Rectangle 245" width="91.429" height="91.429" transform="translate(1462.857 182.857)" fill="#fee"/>
    <rect id="Rectangle_246" data-name="Rectangle 246" width="91.429" height="91.429" transform="translate(1280 365.714)" fill="#fee"/>
    <rect id="Rectangle_247" data-name="Rectangle 247" width="91.429" height="91.429" transform="translate(1462.857 365.714)" fill="#fee"/>
    <rect id="Rectangle_248" data-name="Rectangle 248" width="91.429" height="91.429" transform="translate(1462.857 274.286)" fill="#fee"/>
    <rect id="Rectangle_249" data-name="Rectangle 249" width="91.429" height="91.429" transform="translate(1371.429 274.286)" fill="#fee"/>
    <rect id="Rectangle_250" data-name="Rectangle 250" width="91.429" height="91.429" transform="translate(1371.429 365.714)" fill="#fee"/>
    <rect id="Rectangle_251" data-name="Rectangle 251" width="91.429" height="91.429" transform="translate(1371.429 457.143)" fill="#fee"/>
    <rect id="Rectangle_252" data-name="Rectangle 252" width="91.429" height="91.429" transform="translate(1280 457.143)" fill="#fee"/>
    <rect id="Rectangle_253" data-name="Rectangle 253" width="91.429" height="91.429" transform="translate(1280 274.286)" fill="#fee"/>
    <rect id="Rectangle_254" data-name="Rectangle 254" width="91.429" height="91.429" transform="translate(1462.857 457.143)" fill="#fee"/>
    <rect id="Rectangle_255" data-name="Rectangle 255" width="91.429" height="91.429" transform="translate(1554.286 91.429)" fill="#fee"/>
    <rect id="Rectangle_256" data-name="Rectangle 256" width="91.429" height="91.429" transform="translate(1737.143 91.429)" fill="#fee"/>
    <rect id="Rectangle_257" data-name="Rectangle 257" width="91.429" height="91.429" transform="translate(1737.143 0)" fill="#fee"/>
    <rect id="Rectangle_258" data-name="Rectangle 258" width="91.429" height="91.429" transform="translate(1645.714 0)" fill="#fee"/>
    <rect id="Rectangle_259" data-name="Rectangle 259" width="91.429" height="91.429" transform="translate(1645.714 91.429)" fill="#fee"/>
    <rect id="Rectangle_260" data-name="Rectangle 260" width="91.429" height="91.429" transform="translate(1645.714 182.857)" fill="#fee"/>
    <rect id="Rectangle_261" data-name="Rectangle 261" width="91.429" height="91.429" transform="translate(1554.286 182.857)" fill="#fee"/>
    <rect id="Rectangle_262" data-name="Rectangle 262" width="91.429" height="91.429" transform="translate(1554.286 0)" fill="#fee"/>
    <rect id="Rectangle_263" data-name="Rectangle 263" width="91.429" height="91.429" transform="translate(1737.143 182.857)" fill="#fee"/>
    <rect id="Rectangle_264" data-name="Rectangle 264" width="91.429" height="91.429" transform="translate(1554.286 365.714)" fill="#fee"/>
    <rect id="Rectangle_266" data-name="Rectangle 266" width="91.429" height="91.429" transform="translate(1737.143 274.286)" fill="#fee"/>
    <rect id="Rectangle_267" data-name="Rectangle 267" width="91.429" height="91.429" transform="translate(1645.714 274.286)" fill="#fee"/>
    <rect id="Rectangle_268" data-name="Rectangle 268" width="91.429" height="91.429" transform="translate(1645.714 365.714)" fill="#fee"/>
    <rect id="Rectangle_269" data-name="Rectangle 269" width="91.429" height="91.429" transform="translate(1645.714 457.143)" fill="#fee"/>
    <g id="Rectangle_270" data-name="Rectangle 270" transform="translate(1554.286 457.143)" fill="#fee" stroke="#fee" stroke-width="1">
      <rect width="91.429" height="91.429" stroke="none"/>
      <rect x="0.5" y="0.5" width="90.429" height="90.429" fill="none"/>
    </g>
    <rect id="Rectangle_271" data-name="Rectangle 271" width="91.429" height="91.429" transform="translate(1554.286 274.286)" fill="#fee"/>
    <rect id="Rectangle_272" data-name="Rectangle 272" width="91.429" height="91.429" transform="translate(1737.143 457.143)" fill="#fee"/>
    <rect id="Rectangle_273" data-name="Rectangle 273" width="91.429" height="91.429" transform="translate(1005.714 365.714)" fill="#fee"/>
    <rect id="Rectangle_274" data-name="Rectangle 274" width="91.429" height="91.429" transform="translate(1188.571 365.714)" fill="#fee"/>
    <rect id="Rectangle_275" data-name="Rectangle 275" width="91.429" height="91.429" transform="translate(1188.571 274.286)" fill="#fee"/>
    <rect id="Rectangle_276" data-name="Rectangle 276" width="91.429" height="91.429" transform="translate(1097.143 274.286)" fill="#fee"/>
    <rect id="Rectangle_277" data-name="Rectangle 277" width="91.429" height="91.429" transform="translate(1097.143 365.714)" fill="#fee"/>
    <rect id="Rectangle_278" data-name="Rectangle 278" width="91.429" height="91.429" transform="translate(1097.143 457.143)" fill="#fee"/>
    <rect id="Rectangle_279" data-name="Rectangle 279" width="91.429" height="91.429" transform="translate(1005.714 457.143)" fill="#fee"/>
    <rect id="Rectangle_280" data-name="Rectangle 280" width="91.429" height="91.429" transform="translate(1005.714 274.286)" fill="#fee"/>
    <rect id="Rectangle_281" data-name="Rectangle 281" width="91.429" height="91.429" transform="translate(1188.571 457.143)" fill="#fee"/>
    <rect id="Rectangle_282" data-name="Rectangle 282" width="91.429" height="91.429" transform="translate(731.429 365.714)" fill="#fee"/>
    <rect id="Rectangle_283" data-name="Rectangle 283" width="91.429" height="91.429" transform="translate(914.286 365.714)" fill="#fee"/>
    <rect id="Rectangle_284" data-name="Rectangle 284" width="91.429" height="91.429" transform="translate(914.286 274.286)" fill="#fee"/>
    <rect id="Rectangle_285" data-name="Rectangle 285" width="91.429" height="91.429" transform="translate(822.857 274.286)" fill="#fee"/>
    <rect id="Rectangle_286" data-name="Rectangle 286" width="91.429" height="91.429" transform="translate(822.857 365.714)" fill="#fee"/>
    <rect id="Rectangle_287" data-name="Rectangle 287" width="91.429" height="91.429" transform="translate(822.857 457.143)" fill="#fee"/>
    <rect id="Rectangle_288" data-name="Rectangle 288" width="91.429" height="91.429" transform="translate(731.429 457.143)" fill="#fee"/>
    <rect id="Rectangle_289" data-name="Rectangle 289" width="91.429" height="91.429" transform="translate(731.429 274.286)" fill="#fee"/>
    <rect id="Rectangle_290" data-name="Rectangle 290" width="91.429" height="91.429" transform="translate(914.286 457.143)" fill="#fee"/>
    <rect id="Rectangle_291" data-name="Rectangle 291" width="91.429" height="91.429" transform="translate(457.143 365.714)" fill="#fee"/>
    <rect id="Rectangle_292" data-name="Rectangle 292" width="91.429" height="91.429" transform="translate(640 365.714)" fill="#fee"/>
    <rect id="Rectangle_293" data-name="Rectangle 293" width="91.429" height="91.429" transform="translate(640 274.286)" fill="#fee"/>
    <rect id="Rectangle_294" data-name="Rectangle 294" width="91.429" height="91.429" transform="translate(548.571 274.286)" fill="#fee"/>
    <rect id="Rectangle_295" data-name="Rectangle 295" width="91.429" height="91.429" transform="translate(548.571 365.714)" fill="#fee"/>
    <rect id="Rectangle_296" data-name="Rectangle 296" width="91.429" height="91.429" transform="translate(548.571 457.143)" fill="#fee"/>
    <rect id="Rectangle_297" data-name="Rectangle 297" width="91.429" height="91.429" transform="translate(457.143 457.143)" fill="#fee"/>
    <rect id="Rectangle_298" data-name="Rectangle 298" width="91.429" height="91.429" transform="translate(457.143 274.286)" fill="#fee"/>
    <rect id="Rectangle_299" data-name="Rectangle 299" width="91.429" height="91.429" transform="translate(640 457.143)" fill="#fee"/>
    <rect id="Rectangle_300" data-name="Rectangle 300" width="91.429" height="91.429" transform="translate(182.857 365.714)" fill="#fee"/>
    <rect id="Rectangle_301" data-name="Rectangle 301" width="91.429" height="91.429" transform="translate(365.714 365.714)" fill="#fee"/>
    <rect id="Rectangle_302" data-name="Rectangle 302" width="91.429" height="91.429" transform="translate(365.714 274.286)" fill="#fee"/>
    <rect id="Rectangle_303" data-name="Rectangle 303" width="91.429" height="91.429" transform="translate(274.286 274.286)" fill="#fee"/>
    <rect id="Rectangle_304" data-name="Rectangle 304" width="91.429" height="91.429" transform="translate(274.286 365.714)" fill="#fee"/>
    <rect id="Rectangle_305" data-name="Rectangle 305" width="91.429" height="91.429" transform="translate(274.286 457.143)" fill="#fee"/>
    <rect id="Rectangle_306" data-name="Rectangle 306" width="91.429" height="91.429" transform="translate(182.857 457.143)" fill="#fee"/>
    <rect id="Rectangle_307" data-name="Rectangle 307" width="91.429" height="91.429" transform="translate(182.857 274.286)" fill="#fee"/>
    <rect id="Rectangle_311" data-name="Rectangle 311" width="91.429" height="91.429" transform="translate(365.714 548.571)" fill="#fee"/>
    <rect id="Rectangle_316" data-name="Rectangle 316" width="91.429" height="91.429" transform="translate(182.857 548.571)" fill="#fee"/>
    <rect id="Rectangle_318" data-name="Rectangle 318" width="91.429" height="91.429" transform="translate(457.143 640)" fill="#fee"/>
    <rect id="Rectangle_319" data-name="Rectangle 319" width="91.429" height="91.429" transform="translate(640 640)" fill="#fee"/>
    <rect id="Rectangle_320" data-name="Rectangle 320" width="91.429" height="91.429" transform="translate(640 548.571)" fill="#fee"/>
    <rect id="Rectangle_321" data-name="Rectangle 321" width="91.429" height="91.429" transform="translate(548.571 548.571)" fill="#fee"/>
    <rect id="Rectangle_325" data-name="Rectangle 325" width="91.429" height="91.429" transform="translate(457.143 548.571)" fill="#fee"/>
    <rect id="Rectangle_327" data-name="Rectangle 327" width="91.429" height="91.429" transform="translate(91.429 457.143)" fill="#fee"/>
    <rect id="Rectangle_328" data-name="Rectangle 328" width="91.429" height="91.429" transform="translate(0 365.714)" fill="#fee"/>
    <rect id="Rectangle_329" data-name="Rectangle 329" width="91.429" height="91.429" transform="translate(91.429 274.286)" fill="#fee"/>
    <rect id="Rectangle_330" data-name="Rectangle 330" width="91.429" height="91.429" transform="translate(182.857 822.857)" fill="#fee"/>
    <rect id="Rectangle_331" data-name="Rectangle 331" width="91.429" height="91.429" transform="translate(731.429 548.571)" fill="#fee"/>
    <rect id="Rectangle_332" data-name="Rectangle 332" width="91.429" height="91.429" transform="translate(822.857 548.571)" fill="#fee"/>
    <rect id="Rectangle_333" data-name="Rectangle 333" width="91.429" height="91.429" transform="translate(731.429 640)" fill="#fee"/>
    <rect id="Rectangle_334" data-name="Rectangle 334" width="91.429" height="91.429" transform="translate(822.857 640)" fill="#fee"/>
    <rect id="Rectangle_335" data-name="Rectangle 335" width="91.429" height="91.429" transform="translate(731.429 731.429)" fill="#fee"/>
    <rect id="Rectangle_336" data-name="Rectangle 336" width="91.429" height="91.429" transform="translate(822.857 731.429)" fill="#fee"/>
    <rect id="Rectangle_337" data-name="Rectangle 337" width="91.429" height="91.429" transform="translate(914.286 548.571)" fill="#fee"/>
    <rect id="Rectangle_338" data-name="Rectangle 338" width="91.429" height="91.429" transform="translate(1005.714 548.571)" fill="#fee"/>
    <rect id="Rectangle_340" data-name="Rectangle 340" width="91.429" height="91.429" transform="translate(1005.714 640)" fill="#fee"/>
    <rect id="Rectangle_341" data-name="Rectangle 341" width="91.429" height="91.429" transform="translate(914.286 731.429)" fill="#fee"/>
    <rect id="Rectangle_342" data-name="Rectangle 342" width="91.429" height="91.429" transform="translate(1005.714 731.429)" fill="#fee"/>
    <rect id="Rectangle_343" data-name="Rectangle 343" width="91.429" height="91.429" transform="translate(1097.143 548.571)" fill="#fee"/>
    <rect id="Rectangle_344" data-name="Rectangle 344" width="91.429" height="91.429" transform="translate(1188.571 548.571)" fill="#fee"/>
    <rect id="Rectangle_345" data-name="Rectangle 345" width="91.429" height="91.429" transform="translate(1097.143 640)" fill="#fee"/>
    <rect id="Rectangle_346" data-name="Rectangle 346" width="91.429" height="91.429" transform="translate(1188.571 640)" fill="#fee"/>
    <rect id="Rectangle_347" data-name="Rectangle 347" width="91.429" height="91.429" transform="translate(1280 548.571)" fill="#fee"/>
    <rect id="Rectangle_348" data-name="Rectangle 348" width="91.429" height="91.429" transform="translate(1371.429 548.571)" fill="#fee"/>
    <rect id="Rectangle_349" data-name="Rectangle 349" width="91.429" height="91.429" transform="translate(1462.857 548.571)" fill="#fee"/>
    <rect id="Rectangle_350" data-name="Rectangle 350" width="91.429" height="91.429" transform="translate(1645.714 548.571)" fill="#fee"/>
    <rect id="Rectangle_351" data-name="Rectangle 351" width="91.429" height="91.429" transform="translate(1737.571 731.429)" fill="#fee"/>
    <rect id="Rectangle_352" data-name="Rectangle 352" width="91.429" height="91.429" transform="translate(1462.857 640)" fill="#fee"/>
    <rect id="Rectangle_353" data-name="Rectangle 353" width="91.429" height="91.429" transform="translate(1280 640)" fill="#fee"/>
    <rect id="Rectangle_354" data-name="Rectangle 354" width="91.429" height="91.429" transform="translate(1188.571 731.429)" fill="#fee"/>
    <rect id="Rectangle_355" data-name="Rectangle 355" width="91.429" height="91.429" transform="translate(1371.429 914.286)" fill="#fee"/>
    <rect id="Rectangle_356" data-name="Rectangle 356" width="91.429" height="91.429" transform="translate(1097.143 822.857)" fill="#fee"/>
    <rect id="Rectangle_357" data-name="Rectangle 357" width="91.429" height="91.429" transform="translate(1005.714 822.857)" fill="#fee"/>
    <rect id="Rectangle_359" data-name="Rectangle 359" width="91.429" height="91.429" transform="translate(1828.571)" fill="#fee"/>
    <rect id="Rectangle_360" data-name="Rectangle 360" width="91.429" height="91.429" transform="translate(1828.571 91.429)" fill="#fee"/>
    <rect id="Rectangle_361" data-name="Rectangle 361" width="91.429" height="91.429" transform="translate(1828.571 182.857)" fill="#fee"/>
    <rect id="Rectangle_362" data-name="Rectangle 362" width="91.429" height="91.429" transform="translate(1828.571 274.286)" fill="#fee"/>
    <rect id="Rectangle_363" data-name="Rectangle 363" width="91.429" height="91.429" transform="translate(1829 365.714)" fill="#fee"/>
    <rect id="Rectangle_364" data-name="Rectangle 364" width="91.429" height="91.429" transform="translate(914.286 640)" fill="#fee"/>
    <g id="Group_1" data-name="Group 1" transform="translate(60.994 779.415)">
      <line id="Line_1" data-name="Line 1" y2="43.713" transform="translate(167.67 61.48)" fill="none" stroke="#181917" stroke-linecap="round" stroke-miterlimit="10" stroke-width="5"/>
      <g id="Point" transform="translate(151.95 106.179)">
        <line id="Line_2" data-name="Line 2" x2="15.72" y2="11.997" transform="translate(0)" fill="none" stroke="#181917" stroke-linecap="round" stroke-miterlimit="10" stroke-width="5"/>
        <line id="Line_3" data-name="Line 3" x1="15.72" y2="11.997" transform="translate(15.72)" fill="none" stroke="#181917" stroke-linecap="round" stroke-miterlimit="10" stroke-width="5"/>
      </g>
    </g>
  </g>
</svg>
