<?xml version="1.0" encoding="utf-8"?>
<!-- Generator: Adobe Illustrator 25.1.0, SVG Export Plug-In . SVG Version: 6.00 Build 0)  -->
<svg version="1.1" id="Layer_1" xmlns="http://www.w3.org/2000/svg" xmlns:xlink="http://www.w3.org/1999/xlink" x="0px" y="0px"
	 viewBox="0 0 700 700" style="enable-background:new 0 0 700 700;" xml:space="preserve">
<style type="text/css">
	.st0{fill:url(#SVGID_1_);}
	.st1{fill:url(#SVGID_2_);}
	.st2{fill:url(#SVGID_3_);}
	.st3{fill:url(#SVGID_4_);}
	.st4{fill:#FFFDF9;}
	.st5{fill:#0D0700;}
	.st6{fill:url(#SVGID_5_);}
</style>
<radialGradient id="SVGID_1_" cx="350" cy="350.1304" r="282.8313" gradientUnits="userSpaceOnUse">
	<stop  offset="0.6324" style="stop-color:#FF9A22;stop-opacity:0.7"/>
	<stop  offset="1" style="stop-color:#FF9124;stop-opacity:0"/>
</radialGradient>
<path class="st0" d="M632.8,350.1C632.8,506.3,506.2,633,350,633C193.8,633,67.2,506.3,67.2,350.1S193.8,67.3,350,67.3
	C506.2,67.3,632.8,193.9,632.8,350.1"/>
<radialGradient id="SVGID_2_" cx="350" cy="350.1304" r="349.8697" gradientUnits="userSpaceOnUse">
	<stop  offset="0.4832" style="stop-color:#FF8F22"/>
	<stop  offset="1" style="stop-color:#FF9124;stop-opacity:0"/>
</radialGradient>
<path class="st1" d="M699.9,350.1C699.9,543.4,543.2,700,350,700C156.8,700,0.1,543.4,0.1,350.1C0.1,156.9,156.8,0.3,350,0.3
	C543.2,0.3,699.9,156.9,699.9,350.1"/>
<radialGradient id="SVGID_3_" cx="350" cy="350.1304" r="295.0652" gradientUnits="userSpaceOnUse">
	<stop  offset="0" style="stop-color:#FF7522"/>
	<stop  offset="1" style="stop-color:#FF9124;stop-opacity:0"/>
</radialGradient>
<path class="st2" d="M645.1,350.1c0,163-132.1,295.1-295.1,295.1c-163,0-295.1-132.1-295.1-295.1S187,55.1,350,55.1
	C513,55.1,645.1,187.2,645.1,350.1"/>
<radialGradient id="SVGID_4_" cx="394.4452" cy="310.1427" r="274.1366" gradientUnits="userSpaceOnUse">
	<stop  offset="0.4595" style="stop-color:#FFDC20;stop-opacity:0.7"/>
	<stop  offset="0.5806" style="stop-color:#FFD820;stop-opacity:0.5431"/>
	<stop  offset="0.7079" style="stop-color:#FFCB21;stop-opacity:0.3782"/>
	<stop  offset="0.838" style="stop-color:#FFB622;stop-opacity:0.2098"/>
	<stop  offset="0.9692" style="stop-color:#FF9924;stop-opacity:3.985536e-02"/>
	<stop  offset="1" style="stop-color:#FF9124;stop-opacity:0"/>
</radialGradient>
<path class="st3" d="M668.6,310.1c0,151.4-122.7,274.1-274.1,274.1c-151.4,0-274.1-122.7-274.1-274.1S243,36,394.4,36
	C545.8,36,668.6,158.7,668.6,310.1"/>
<path class="st4" d="M610,350.1c0,143.2-116.4,259.2-260,259.2S90,493.3,90,350.1C90,207,206.4,90.9,350,90.9S610,207,610,350.1"/>
<path class="st5" d="M586.4,357.5c0,135.2-109.6,244.8-244.8,244.8c-135.2,0-244.9-109.6-244.9-244.8
	c0-135.2,109.6-244.9,244.9-244.9C476.8,112.6,586.4,222.3,586.4,357.5"/>
<radialGradient id="SVGID_5_" cx="538.2529" cy="179.8138" r="143.8076" gradientUnits="userSpaceOnUse">
	<stop  offset="0" style="stop-color:#FFC822;stop-opacity:0.7"/>
	<stop  offset="1" style="stop-color:#FF9124;stop-opacity:0"/>
</radialGradient>
<path class="st6" d="M682.1,179.8c0,79.4-64.4,143.8-143.8,143.8c-79.4,0-143.8-64.4-143.8-143.8S458.8,36,538.3,36
	C617.7,36,682.1,100.4,682.1,179.8"/>
</svg>
