<svg xmlns="http://www.w3.org/2000/svg" width="169.786" height="53.327" viewBox="0 0 169.786 53.327">
  <g id="Lavean" transform="translate(-129.308 -45.466)">
    <path id="Path_5" data-name="Path 5" d="M452.222,289.547c-.032-1.82-1.245-2.778-3.417-2.778-1.852,0-3.066.926-3.066,2.3,0,1.054.607,1.565,2.267,2.044l3.449.926a3.516,3.516,0,0,1,2.906,3.449,4.1,4.1,0,0,1-1.5,3.129A6.461,6.461,0,0,1,449,299.67a5.39,5.39,0,0,1-4.6-1.948,4.488,4.488,0,0,1-.8-2.842h1.66a2.871,2.871,0,0,0,.7,2.108,3.8,3.8,0,0,0,3.161,1.15,4.464,4.464,0,0,0,2.523-.575,2.482,2.482,0,0,0,.99-1.916c0-1.086-.766-1.756-2.523-2.235l-3.417-.894c-1.82-.479-2.682-1.533-2.682-3.193,0-2.491,1.852-4.023,4.886-4.023,2.3,0,3.928.83,4.662,2.395a3.493,3.493,0,0,1,.351,1.852Z" transform="translate(-313.207 -200.876)" fill="#fff1e0"/>
    <path id="Path_6" data-name="Path 6" d="M486.256,298.166h8.079v1.565H484.5V286h9.484v1.533h-7.728v4.407h7.44v1.533h-7.44Z" transform="translate(-341.046 -201.353)" fill="#fff1e0"/>
    <path id="Path_7" data-name="Path 7" d="M522.956,299.731H521.2V286h6.323c2.714,0,4.183,1.309,4.183,3.672a3.316,3.316,0,0,1-2.171,3.289c1.5.639,1.852,1.309,1.852,3.576.032,1.82.16,2.3.83,2.778v.447h-2.14a5.841,5.841,0,0,1-.383-2.235l.032-1.213c0-1.692-.7-2.459-2.267-2.459h-4.5Zm4.247-7.472c1.852,0,2.682-.734,2.682-2.363a2.33,2.33,0,0,0-.7-1.82,2.781,2.781,0,0,0-1.98-.511h-4.247v4.726H527.2Z" transform="translate(-366.027 -201.353)" fill="#fff1e0"/>
    <path id="Path_8" data-name="Path 8" d="M561.85,299.731,556.9,286h1.884l4.023,11.623,3.8-11.623h1.884l-4.758,13.731Z" transform="translate(-390.327 -201.353)" fill="#fff1e0"/>
    <rect id="Rectangle_4" data-name="Rectangle 4" width="1.756" height="13.699" transform="translate(179.793 84.647)" fill="#fff1e0"/>
    <path id="Path_9" data-name="Path 9" d="M621.723,289.771a3.632,3.632,0,0,0-1.022-2.076,4.279,4.279,0,0,0-2.81-.862c-2.778,0-4.471,2.171-4.471,5.684,0,3.417,1.788,5.62,4.63,5.62a3.534,3.534,0,0,0,3.321-1.756,6.838,6.838,0,0,0,.639-2.139h1.884c-.415,3.64-2.395,5.429-5.875,5.429a5.91,5.91,0,0,1-4.375-1.6,7.654,7.654,0,0,1-2.044-5.524,7.894,7.894,0,0,1,1.98-5.524,5.964,5.964,0,0,1,4.5-1.724c3.129,0,4.918,1.469,5.492,4.471Z" transform="translate(-427.56 -200.876)" fill="#fff1e0"/>
    <path id="Path_10" data-name="Path 10" d="M658.456,298.166h8.079v1.565H656.7V286h9.484v1.533h-7.728v4.407h7.472v1.533h-7.472Z" transform="translate(-458.258 -201.353)" fill="#fff1e0"/>
    <path id="Path_11" data-name="Path 11" d="M699.413,289.547c-.032-1.82-1.277-2.778-3.481-2.778-1.884,0-3.129.926-3.129,2.3,0,1.054.607,1.565,2.3,2.044l3.513.926a3.545,3.545,0,0,1,2.97,3.449,4.129,4.129,0,0,1-1.533,3.129,6.6,6.6,0,0,1-3.928,1.054,5.543,5.543,0,0,1-4.694-1.948,4.7,4.7,0,0,1-.83-2.842h1.692a2.893,2.893,0,0,0,.734,2.108,3.9,3.9,0,0,0,3.225,1.15,4.583,4.583,0,0,0,2.555-.575,2.39,2.39,0,0,0,.99-1.916c0-1.086-.8-1.756-2.555-2.235l-3.481-.894c-1.852-.479-2.746-1.533-2.746-3.193,0-2.491,1.884-4.023,4.95-4.023,2.363,0,3.992.83,4.758,2.395a3.213,3.213,0,0,1,.351,1.852Z" transform="translate(-481.333 -200.876)" fill="#fff1e0"/>
    <path id="Path_12" data-name="Path 12" d="M440.2,163.3h2.235v32.252h19.671v1.82H440.2Z" transform="translate(-310.892 -117.834)" fill="#fff1e0"/>
    <path id="Path_13" data-name="Path 13" d="M517.535,163.3h2.427l13.412,34.072h-2.427l-4.119-10.985H510.51l-4.247,10.985H503.9Zm8.558,21.267-7.313-19.191-7.6,19.191Z" transform="translate(-354.251 -117.834)" fill="#fff1e0"/>
    <path id="Path_14" data-name="Path 14" d="M585.1,163.3h2.267l11.623,32.124L610.742,163.3h2.139l-12.549,34.072h-2.778Z" transform="translate(-409.522 -117.834)" fill="#fff1e0"/>
    <path id="Path_15" data-name="Path 15" d="M682.8,163.3h25.546v6.291H690.4v7.153h16.477v5.939H690.4v8.366h18.3v6.323H682.8Z" transform="translate(-476.024 -117.834)" fill="#fff1e0"/>
    <path id="Path_16" data-name="Path 16" d="M776.3,197.372h-7.5L781.637,163.3h7.76l12.677,34.072h-7.5l-2.842-7.568H778.986Zm13.507-13.284-4.375-12.422-4.5,12.422Z" transform="translate(-534.562 -117.834)" fill="#fff1e0"/>
    <path id="Path_17" data-name="Path 17" d="M889.4,163.3l14.4,22.96V163.3h6.834v34.072h-7.376l-14.242-22.864v22.864H881.9V163.3Z" transform="translate(-611.546 -117.834)" fill="#fff1e0"/>
  </g>
</svg>
