<?xml version="1.0" encoding="utf-8"?>
<!-- Generator: Adobe Illustrator 25.1.0, SVG Export Plug-In . SVG Version: 6.00 Build 0)  -->
<svg version="1.1" id="Layer_1" xmlns="http://www.w3.org/2000/svg" xmlns:xlink="http://www.w3.org/1999/xlink" x="0px" y="0px"
	 viewBox="0 0 123.8 145.8" style="enable-background:new 0 0 123.8 145.8;" xml:space="preserve">
<style type="text/css">
	.st0{fill:none;}
	.st1{opacity:0.2;}
	.st2{fill:#CD7A29;}
</style>
<g id="Path_306" transform="translate(-89.71 -59.018)">
	<path class="st0" d="M210,62.4c-0.1-0.8-0.9-1.4-1.7-1.3c-0.8,0.1-1.4,0.8-1.3,1.6c0.7,8.5-20.3,16-42.5,24
		c-19.4,7-41.4,14.8-56.4,25.6c-9.1,6.5-14.5,14.8-15.9,24.6c-3,20,11,39.1,11.8,40.2c-9.2,12.4-12,23.2-12.2,23.9
		c-0.2,0.8,0.3,1.7,1.1,1.9c0,0,0,0,0,0c0.1,0,0.2,0,0.4,0c0.7,0,1.3-0.5,1.5-1.2c0-0.2,2.8-10.8,12-23.1
		c16.2,7.1,30.6,10.6,43.3,10.6c12,0,22.3-3.2,31-9.5C220.6,150.5,210.5,66,210,62.4z M179.2,177.2c-16.7,12.3-40.4,11.9-70.5-1.1
		c6-7.4,13.3-13.8,21.4-18.9c29.2-18.2,50.3-41.6,53.9-49.6c0.3-0.8,0-1.7-0.8-2c-0.7-0.3-1.6,0-2,0.7c-3.5,7.7-24.1,30.3-52.8,48.2
		c-8.6,5.3-16.2,12.1-22.6,20c-2.5-3.6-13.3-20.4-10.7-37.2c1.2-7.9,5.2-14.8,12-20.4c-0.2,5,0.3,13.9,6,19.1
		c0.6,0.5,1.6,0.5,2.2-0.2c0.5-0.6,0.5-1.5-0.1-2.1c-6-5.5-5.1-16.6-4.8-19.3c10.8-7.7,25.5-13.9,40-19.4
		c-2.3,4.4-5.3,12.1-3.3,18.9c0.2,0.8,1.1,1.3,1.9,1.1c0.8-0.2,1.3-1.1,1.1-1.9c0,0,0,0,0,0c-2.3-7.9,3.6-17.7,4.9-19.7
		c3.6-1.3,7.1-2.6,10.6-3.8c19.6-7,36-12.9,42-20.2c1.1,14.5,0.9,29-0.4,43.4c-2.4,1.6-11.1,7.1-17.8,7.9c-0.8,0.1-1.4,0.9-1.3,1.7
		c0.1,0.8,0.7,1.4,1.5,1.4c0.1,0,0.1,0,0.2,0c6-0.7,13.1-4.7,17-7c-1.5,12.4-4.3,25.1-9.2,36.3c-3.1,1.1-17.2,6-27.6,6.6
		c-0.8,0-1.5,0.7-1.5,1.5c0,0.8,0.7,1.5,1.5,1.5c0,0,0.1,0,0.1,0h0.1c8.9-0.5,20-3.9,25.6-5.8C191.8,164.8,186.2,171.8,179.2,177.2
		L179.2,177.2z"/>
	<g class="st1">
		<path class="st2" d="M208.5,61c-0.1,0-0.1,0-0.2,0c-0.8,0.1-1.5,0.8-1.4,1.7c0.7,8.5-20.3,16-42.5,24c-19.4,7-41.4,14.8-56.4,25.6
			c-9.1,6.5-14.5,14.8-16,24.6c-3,20,11,39.1,11.8,40.2c-9.2,12.4-12,23.2-12.2,23.9c-0.2,0.8,0.3,1.7,1.1,1.9c0.1,0,0.2,0,0.4,0
			c0.7,0,1.3-0.5,1.5-1.2c0-0.2,2.8-10.8,12-23.1c16.2,7.1,30.7,10.6,43.3,10.6c12,0,22.3-3.2,31-9.5c39.5-29.2,29.4-113.7,29-117.3
			C209.9,61.6,209.3,61,208.5,61L208.5,61z M148.6,115.1c0.1,0,0.3,0,0.4-0.1c0.8-0.2,1.3-1.1,1.1-1.9c-2.3-7.9,3.6-17.7,4.9-19.7
			c3.6-1.3,7.1-2.6,10.6-3.8c19.6-7,36-12.9,42-20.2c0.7,8.8,1.4,25.4-0.4,43.4c-2.4,1.6-11.1,7.1-17.8,7.9
			c-0.8,0.1-1.4,0.8-1.3,1.6c0,0.8,0.7,1.4,1.5,1.4c0,0,0,0,0,0c0,0,0.1,0,0.1,0c0,0,0.1,0,0.1,0c6-0.7,13.1-4.7,17-7
			c-1.5,12.4-4.3,25.1-9.2,36.3c-3.1,1.1-17.2,6-27.6,6.6c-0.8,0-1.5,0.7-1.5,1.6c0,0.8,0.7,1.5,1.5,1.5c0,0,0,0,0,0h0.1
			c8.9-0.5,20-3.9,25.6-5.8c-4.1,8.1-9.5,15.2-16.5,20.3c-8.1,6-17.8,8.9-29.2,8.9c-12,0-25.8-3.4-41.3-10.1
			c6-7.4,13.3-13.8,21.4-18.9c29.2-18.2,50.3-41.6,53.9-49.6c0.4-0.8,0-1.7-0.8-2c-0.2-0.1-0.4-0.1-0.6-0.1c-0.6,0-1.1,0.3-1.4,0.9
			c-3.5,7.7-24.1,30.3-52.8,48.2c-8.6,5.3-16.2,12.1-22.6,20c-2.5-3.6-13.3-20.4-10.7-37.2c1.2-7.9,5.2-14.8,12-20.4
			c-0.2,5,0.3,13.9,6,19.1c0.3,0.3,0.7,0.4,1,0.4c0.4,0,0.8-0.2,1.1-0.5c0.6-0.6,0.5-1.6-0.1-2.2c-6-5.5-5.1-16.6-4.8-19.3
			c10.8-7.7,25.5-13.9,40-19.4c-2.3,4.4-5.3,12.1-3.3,18.9C147.3,114.6,147.9,115.1,148.6,115.1L148.6,115.1z"/>
	</g>
</g>
</svg>
