<svg id="old-vic" xmlns="http://www.w3.org/2000/svg" xmlns:xlink="http://www.w3.org/1999/xlink" width="123.168" height="50.056" viewBox="0 0 123.168 50.056">
  <defs>
    <linearGradient id="linear-gradient" x1="0.5" y1="-0.041" x2="0.5" y2="0.886" gradientUnits="objectBoundingBox">
      <stop offset="0" stop-color="#fff" stop-opacity="0"/>
      <stop offset="0.32" stop-color="#121211"/>
      <stop offset="0.696" stop-color="#121211"/>
      <stop offset="1" stop-color="#121211"/>
    </linearGradient>
  </defs>
  <path id="Path_321" data-name="Path 321" d="M21.276,64.489V55.871c0-5.48-4.469-8.957-10.618-8.957C4.469,46.914,0,50.391,0,55.871v8.619c0,5.443,4.469,9,10.658,9,6.149,0,10.618-3.553,10.618-9Zm-8.135.491a2.293,2.293,0,0,1-2.483,2.457A2.3,2.3,0,0,1,8.136,64.98V55.455a2.315,2.315,0,0,1,2.521-2.495,2.3,2.3,0,0,1,2.483,2.495V64.98Zm28.448,7.789V66.455h-9.97V47.594H23.636V72.769Zm22.726-9V57.043c0-5.594-2.9-9.449-10.16-9.449H43.345V72.769h10.81C61.412,72.769,64.315,69.366,64.315,63.772Zm-8.021.189c0,2.154-.917,2.835-2.789,2.835H51.329V53.527h2.177c1.872,0,2.788.681,2.788,2.836v7.6ZM91.282,47.593H83.795l-3.781,14.78-3.667-14.78H67.982L75.7,72.769h7.64l7.944-25.175Zm1.261,25.174h7.983V47.593H92.542V72.768ZM123.168,57V55.039c0-4.875-3.514-8.125-9.817-8.125-6.112,0-10.467,3.628-10.467,8.995v8.542c0,5.368,4.2,9.035,10.543,9.035,5.615,0,9.7-3.025,9.7-7.863V63.356h-7.1v1.852c0,1.4-.879,2.229-2.483,2.229a2.274,2.274,0,0,1-2.521-2.343v-9.64a2.521,2.521,0,0,1,5.041,0V57Z" transform="translate(0 -23.431)" fill-rule="evenodd" fill="url(#linear-gradient)"/>
  <path id="Path_322" data-name="Path 322" d="M18.034,17.7V15.632c0-1.869-1.014-3.5-3.649-4.067a4,4,0,0,0,3.547-4.1V5.7c0-3.2-2.7-5.1-6.385-5.1H.5V22.8H11.649c3.682,0,6.385-1.867,6.385-5.1Zm-6.791-9c0,.867-.506,1.234-1.52,1.234H7.561V5.565H9.723c1.014,0,1.52.334,1.52,1.235V8.7Zm0,7.967c0,.866-.506,1.232-1.52,1.232H7.561V13.532H9.723c1.014,0,1.52.365,1.52,1.232v1.9ZM38.659,22.8v-.1a7.574,7.574,0,0,1-.879-3.6V15.731a3.671,3.671,0,0,0-3.243-3.667c1.993-.632,3.108-1.9,3.108-3.866V6.166c0-3.3-2.3-5.565-6.689-5.565H20.111V22.8h7.061V14.366h2.3c1.114,0,1.554.7,1.554,1.666v3.333c0,1.7.574,3.433,1.622,3.433h6.013ZM30.82,9.132c0,.967-.506,1.334-1.655,1.334H27.172v-4.9h1.993c1.149,0,1.655.368,1.655,1.334ZM40.2,22.8h7.061V.6H40.2V22.8Zm26.287-6.535c0-6.8-10.574-6.565-10.574-9.431,0-1.134.676-1.733,1.96-1.733a2.043,2.043,0,0,1,2.3,2.234v.8h6.116v-1.2C66.287,2.767,63.212,0,57.84,0s-8.546,3.1-8.546,7c0,6.833,10.507,6.7,10.507,9.632,0,1.1-.541,1.7-2.3,1.7-1.588,0-2.5-.767-2.5-2.267V15.23H48.887v1c0,4.5,3.074,7.2,8.987,7.2C63.651,23.429,66.489,20.131,66.489,16.263Zm18.749-10.2V.6H67.333V6.065h5.406V22.8H79.8V6.065h5.439ZM105.1,15.5V7.9c0-4.833-3.952-7.9-9.391-7.9-5.474,0-9.425,3.066-9.425,7.9v7.6c0,4.8,3.952,7.931,9.425,7.931,5.439,0,9.391-3.132,9.391-7.931Zm-7.2.432a2.213,2.213,0,0,1-4.425,0v-8.4a2.213,2.213,0,0,1,4.425,0v8.4ZM123.068,22.8V17.23h-8.817V.6H107.19V22.8h15.879Z" transform="translate(-0.25)" fill="#121211" fill-rule="evenodd"/>
</svg>
