<?xml version="1.0" encoding="utf-8"?>
<!-- Generator: Adobe Illustrator 25.1.0, SVG Export Plug-In . SVG Version: 6.00 Build 0)  -->
<svg version="1.1" id="Layer_1" xmlns="http://www.w3.org/2000/svg" xmlns:xlink="http://www.w3.org/1999/xlink" x="0px" y="0px"
	 viewBox="0 0 90.2 141.8" style="enable-background:new 0 0 90.2 141.8;" xml:space="preserve">
<style type="text/css">
	.st0{opacity:0.2;}
	.st1{fill:#CD7A29;stroke:#CD7A29;stroke-width:2;stroke-miterlimit:10;}
</style>
<g id="noun_spanner_2246851" transform="translate(-6.446 29.97) rotate(-17)" class="st0">
	<g id="Group_26" transform="translate(4.003 8.955)">
		<g id="Path_307" transform="translate(-4.003 -961.317)">
			<path class="st1" d="M73.4,957.6c-5.7-0.4-11.4,1.5-15.7,5.2c-5.7,4.9-8.5,12.4-7.4,19.8l-38.4,32.6c-7.2-2.3-15-0.7-20.8,4.2
				c-9.1,7.8-10.4,21.3-2.8,30.3c1.2,1.4,2.6,2.7,4.1,3.7c0.5,0.4,1.3,0.2,1.6-0.3c0.1-0.2,0.2-0.4,0.2-0.7l-0.1-14.5l10-8.7l10.2,8
				l0.2,15.3c0,0.6,0.5,1.2,1.2,1.2c0.2,0,0.5-0.1,0.6-0.2c0.8-0.5,1.5-1.1,2.3-1.7c5.7-4.9,8.5-12.4,7.4-19.8l38.4-32.6
				c7.2,2.3,15,0.7,20.8-4.2c0.7-0.6,1.4-1.3,2-1.9c0.4-0.5,0.4-1.2-0.1-1.7c-0.2-0.1-0.4-0.2-0.6-0.3l-16.8-2.9L63.4,977l10.2-8.5
				l16,2.8c0.6,0.1,1.2-0.3,1.4-0.9c0-0.2,0-0.5-0.1-0.7C87.8,962.7,81,958.1,73.4,957.6L73.4,957.6z M73.2,959.9
				c5,0.3,9.7,2.7,13,6.5c0.5,0.7,1,1.4,1.4,2.2l-14-2.5c-0.3-0.1-0.7,0-1,0.3l-11.4,9.5c-0.4,0.4-0.6,1-0.3,1.5l7,12.7
				c0.2,0.3,0.5,0.5,0.8,0.6l15.1,2.6c-0.1,0.1-0.1,0.1-0.2,0.2c-5.3,4.5-12.6,5.9-19.1,3.6c-0.4-0.1-0.8,0-1.1,0.2l-39.2,33.4
				c-0.3,0.3-0.5,0.7-0.4,1.1c1.2,6.9-1.3,13.8-6.6,18.3c-0.1,0.1-0.2,0.1-0.3,0.2l-0.1-13.6c0-0.4-0.2-0.7-0.4-0.9l-11.4-8.9
				c-0.4-0.4-1.1-0.3-1.5,0l-11.2,9.7c-0.3,0.2-0.4,0.5-0.4,0.9l0.1,12.4c-0.6-0.5-1.3-1.1-1.8-1.6c-6.8-7.9-5.6-20,2.6-27
				c5.3-4.5,12.6-5.9,19.1-3.6c0.4,0.1,0.8,0,1.1-0.2l39.2-33.4c0.3-0.3,0.5-0.7,0.4-1.1c-1.8-10.7,5.4-20.9,16.1-22.8
				C70.2,959.9,71.7,959.8,73.2,959.9L73.2,959.9z"/>
			<path class="st1" d="M71.9,957.5c0.5,0,1,0,1.5,0.1l0,0c5.5,0.4,10.8,2.9,14.6,7.3c1.3,1.5,2.3,3.1,3,4.8
				c0.2,0.4,0.1,0.9-0.1,1.2c-0.2,0.3-0.6,0.5-0.9,0.5c-0.1,0-0.1,0-0.2,0l-16-2.8L63.4,977l6.3,11.4l16.8,2.9
				c0.4,0.1,0.8,0.4,0.9,0.8c0.1,0.4,0,0.8-0.2,1.2c-0.6,0.7-1.3,1.3-2,1.9c-4.1,3.5-9.1,5.2-14.1,5.2c-2.2,0-4.5-0.3-6.6-1
				L26.1,1032c1.1,7.1-1.4,14.7-7.4,19.8c-0.7,0.6-1.5,1.2-2.3,1.7c-0.2,0.1-0.4,0.2-0.7,0.2c-0.2,0-0.4,0-0.5-0.1
				c-0.4-0.2-0.6-0.6-0.6-1l-0.2-15.3l-10.2-8l-10,8.7l0.1,14.5c0,0.4-0.2,0.8-0.6,1.1c-0.2,0.1-0.4,0.1-0.6,0.1
				c-0.2,0-0.5-0.1-0.7-0.2c-1.5-1-2.9-2.3-4.1-3.7c-7.6-8.9-6.3-22.5,2.8-30.3c4.1-3.5,9.1-5.2,14.1-5.2c2.3,0,4.5,0.3,6.6,1
				l38.4-32.6c-1.1-7.1,1.4-14.7,7.4-19.8C61.8,959.3,66.9,957.5,71.9,957.5z M73.2,959.9c-0.4,0-0.9,0-1.3,0c-4.5,0-9,1.6-12.7,4.7
				c-5.5,4.7-7.8,11.8-6.6,18.3c0.1,0.4-0.1,0.8-0.4,1.1l-39.2,33.4c-0.2,0.2-0.5,0.3-0.8,0.3c-0.1,0-0.3,0-0.4-0.1
				c-2.1-0.7-4.2-1.1-6.4-1.1c-4.5,0-9,1.5-12.7,4.7c-8.2,7-9.3,19-2.6,27c0.5,0.6,1.2,1.1,1.8,1.6l-0.1-12.4c0-0.3,0.1-0.7,0.4-0.9
				l11.2-9.7c0.2-0.2,0.5-0.3,0.8-0.3c0.3,0,0.5,0.1,0.7,0.3l11.4,8.9c0.3,0.2,0.4,0.6,0.4,0.9l0.1,13.6c0.1-0.1,0.2-0.1,0.3-0.2
				c5.5-4.7,7.8-11.8,6.6-18.3c-0.1-0.4,0.1-0.9,0.4-1.1l39.2-33.4c0.2-0.2,0.5-0.3,0.8-0.3c0.1,0,0.3,0,0.4,0.1
				c2.1,0.7,4.2,1.1,6.4,1.1c4.5,0,9-1.5,12.7-4.7c0.1-0.1,0.1-0.1,0.2-0.2l-15.1-2.6c-0.3-0.1-0.6-0.3-0.8-0.6l-7-12.7
				c-0.3-0.5-0.1-1.1,0.3-1.5l11.4-9.5c0.2-0.2,0.5-0.3,0.8-0.3c0.1,0,0.1,0,0.2,0l14,2.5c-0.5-0.7-0.8-1.5-1.4-2.2
				C82.8,962.4,78.1,960.3,73.2,959.9L73.2,959.9z"/>
		</g>
	</g>
</g>
</svg>
