<svg xmlns="http://www.w3.org/2000/svg" viewBox="0 0 90.15 141.849">
  <g id="noun_spanner_2246851" transform="translate(-6.446 29.97) rotate(-17)" opacity="0.2">
    <g id="Group_26" data-name="Group 26" transform="translate(4.003 8.955)">
      <g id="Path_307" data-name="Path 307" transform="translate(-4.003 -961.317)" fill="none">
        <path d="M110.785,961.377a26.068,26.068,0,0,0-18.668,6.208A25.8,25.8,0,0,0,83.3,991.07l-45.5,38.723a25.782,25.782,0,0,0-24.615,4.949c-10.814,9.2-12.308,25.305-3.3,35.9a24.569,24.569,0,0,0,4.906,4.428,1.389,1.389,0,0,0,2.171-1.172l-.174-17.191,11.895-10.375,12.068,9.464.217,18.19a1.389,1.389,0,0,0,2.171,1.129,26.649,26.649,0,0,0,2.692-2,25.8,25.8,0,0,0,8.813-23.485l45.5-38.723a25.858,25.858,0,0,0,24.615-4.949,27.587,27.587,0,0,0,2.344-2.3,1.389,1.389,0,0,0-.781-2.3L106.4,997.93l-7.424-13.5,12.155-10.071,19.015,3.3a1.389,1.389,0,0,0,1.519-1.953,24.755,24.755,0,0,0-20.882-14.326Zm-.217,2.778a21.981,21.981,0,0,1,15.367,7.684,20.652,20.652,0,0,1,1.606,2.562l-16.584-2.909a1.39,1.39,0,0,0-1.129.3l-13.5,11.244a1.389,1.389,0,0,0-.347,1.736l8.292,15.064a1.39,1.39,0,0,0,.955.694l17.929,3.082c-.077.067-.139.151-.217.217a23.063,23.063,0,0,1-22.7,4.254,1.389,1.389,0,0,0-1.346.26L52.351,1047.94a1.389,1.389,0,0,0-.478,1.346,23.113,23.113,0,0,1-7.857,21.749c-.1.084-.206.136-.3.217l-.174-16.149a1.389,1.389,0,0,0-.521-1.085l-13.5-10.549a1.39,1.39,0,0,0-1.78.043L14.5,1055.059a1.389,1.389,0,0,0-.478,1.042l.13,14.717a20.6,20.6,0,0,1-2.171-1.953c-8.011-9.423-6.659-23.74,3.039-31.994a23.059,23.059,0,0,1,22.7-4.255,1.389,1.389,0,0,0,1.346-.26L85.6,992.764a1.39,1.39,0,0,0,.478-1.3,23.381,23.381,0,0,1,24.485-27.306Z" stroke="none"/>
        <path d="M 109.0415496826172 961.3172607421875 C 109.6238098144531 961.3172607421875 110.2055816650391 961.3370361328125 110.7850799560547 961.376708984375 L 110.7840270996094 961.377197265625 C 117.2923202514648 961.822265625 123.5583648681641 964.7615966796875 128.0626373291016 970.0596923828125 C 129.5569763183594 971.8170166015625 130.7490997314453 973.715576171875 131.6659088134766 975.7032470703125 C 131.8871765136719 976.176025390625 131.8246765136719 976.7330322265625 131.504150390625 977.14501953125 C 131.2380828857422 977.487060546875 130.8315124511719 977.6812744140625 130.4077758789063 977.6812744140625 C 130.3210296630859 977.6812744140625 130.2335510253906 977.6732177734375 130.1464233398438 977.656494140625 L 111.13134765625 974.357421875 L 98.97604370117188 984.4288330078125 L 106.399543762207 997.929931640625 L 126.3258819580078 1001.359619140625 C 126.8227005004883 1001.449462890625 127.2316436767578 1001.801879882813 127.3940200805664 1002.279907226563 C 127.5563812255859 1002.757934570313 127.4466247558594 1003.28662109375 127.1072998046875 1003.660400390625 C 126.3848037719727 1004.44189453125 125.6113815307617 1005.239013671875 124.7630615234375 1005.961181640625 C 119.8789215087891 1010.118408203125 113.912712097168 1012.126831054688 108.0076599121094 1012.126831054688 C 105.3402862548828 1012.126831054688 102.6849365234375 1011.716918945313 100.1482238769531 1010.910034179688 L 54.65264129638672 1049.633422851563 C 55.91124725341797 1058.104614257813 52.93506622314453 1067.079467773438 45.8399658203125 1073.118896484375 C 44.97978210449219 1073.851196289063 44.07274627685547 1074.511108398438 43.14846038818359 1075.115844726563 C 42.91368103027344 1075.275634765625 42.6407470703125 1075.356567382813 42.36671447753906 1075.356567382813 C 42.14748382568359 1075.356567382813 41.92753601074219 1075.3046875 41.72598266601563 1075.199951171875 C 41.27250671386719 1074.963989257813 40.98514556884766 1074.498291015625 40.97784423828125 1073.987182617188 L 40.76078033447266 1055.797241210938 L 28.69230651855469 1046.333618164063 L 16.79746246337891 1056.708984375 L 16.97109985351563 1073.900024414063 C 16.97978210449219 1074.418823242188 16.69864654541016 1074.899169921875 16.2420654296875 1075.145874023438 C 16.03540802001953 1075.257446289063 15.80840301513672 1075.312744140625 15.58201599121094 1075.312744140625 C 15.30825042724609 1075.312744140625 15.03538513183594 1075.23193359375 14.80052185058594 1075.072265625 C 13.01166534423828 1073.855834960938 11.36966705322266 1072.37890625 9.894905090332031 1070.644287109375 C 0.88623046875 1060.047607421875 2.380279541015625 1043.947265625 13.19420623779297 1034.742309570313 C 18.08350372314453 1030.580810546875 24.03616333007813 1028.56591796875 29.93456268310547 1028.56591796875 C 32.60501098632813 1028.56591796875 35.26533508300781 1028.979248046875 37.80906677246094 1029.79345703125 L 83.30466461181641 991.070068359375 C 82.04842376708984 982.600341796875 85.02291870117188 973.6234130859375 92.11732482910156 967.5845947265625 C 97.04342651367188 963.3919677734375 103.085205078125 961.317138671875 109.0415496826172 961.3172607421875 Z M 110.5666427612305 964.1558837890625 C 110.0525817871094 964.1209716796875 109.5379867553711 964.1033935546875 109.0218200683594 964.1033935546875 C 103.7216720581055 964.1036376953125 98.35844421386719 965.9512939453125 93.93958282470703 969.7125244140625 C 87.362548828125 975.31103515625 84.65499877929688 983.7125244140625 86.08210754394531 991.461669921875 C 86.16654205322266 991.94970703125 85.98458862304688 992.446044921875 85.60458374023438 992.7640380859375 L 39.06710052490234 1032.355346679688 C 38.81185150146484 1032.573486328125 38.49076080322266 1032.6884765625 38.16457366943359 1032.6884765625 C 38.01597595214844 1032.6884765625 37.86631011962891 1032.664672851563 37.72134399414063 1032.615844726563 C 35.27095031738281 1031.7392578125 32.6806640625 1031.295043945313 30.07151794433594 1031.295166015625 C 24.7833251953125 1031.29541015625 19.42146301269531 1033.120849609375 15.0166015625 1036.870361328125 C 5.318344116210938 1045.124877929688 3.966384887695313 1059.441528320313 11.977783203125 1068.864624023438 C 12.62528228759766 1069.6259765625 13.41954040527344 1070.169311523438 14.14838409423828 1070.817993164063 L 14.01814270019531 1056.100830078125 C 14.02000427246094 1055.700927734375 14.19400024414063 1055.321533203125 14.49566650390625 1055.059204101563 L 27.73618316650391 1043.511596679688 C 27.99765014648438 1043.282592773438 28.3245849609375 1043.167236328125 28.65209197998047 1043.167236328125 C 28.95706176757813 1043.167236328125 29.26251983642578 1043.267333984375 29.51602172851563 1043.468627929688 L 43.01714324951172 1054.017700195313 C 43.34662628173828 1054.281494140625 43.53832244873047 1054.680786132813 43.53810119628906 1055.10302734375 L 43.71176147460938 1071.252197265625 C 43.80953979492188 1071.17138671875 43.91852569580078 1071.118530273438 44.01564025878906 1071.034912109375 C 50.59380340576172 1065.436645507813 53.30272674560547 1057.036865234375 51.87312316894531 1049.285888671875 C 51.77192687988281 1048.78369140625 51.9554443359375 1048.266357421875 52.35064697265625 1047.940185546875 L 98.88808441162109 1008.3486328125 C 99.14332580566406 1008.130493164063 99.46434020996094 1008.015502929688 99.79050445556641 1008.015502929688 C 99.93913269042969 1008.015502929688 100.0888824462891 1008.039428710938 100.23388671875 1008.088256835938 C 102.6838226318359 1008.96435546875 105.2743682861328 1009.408203125 107.8831481933594 1009.408203125 C 113.1720581054688 1009.408203125 118.5340957641602 1007.5830078125 122.938606262207 1003.833862304688 C 123.0164642333984 1003.767578125 123.0789794921875 1003.683959960938 123.1556625366211 1003.61669921875 L 105.2269439697266 1000.534423828125 C 104.8211441040039 1000.456420898438 104.4710998535156 1000.201904296875 104.2718658447266 999.8399658203125 L 95.98014831542969 984.775634765625 C 95.66422271728516 984.1884765625 95.80998229980469 983.4595947265625 96.32743835449219 983.0391845703125 L 109.8285827636719 971.7952880859375 C 110.0805282592773 971.5843505859375 110.3968811035156 971.4713134765625 110.7205505371094 971.4713134765625 C 110.7992935180664 971.4713134765625 110.8785018920898 971.4779052734375 110.9572830200195 971.4915771484375 L 127.5412826538086 974.4002685546875 C 127.0069046020508 973.5489501953125 126.6017608642578 972.6229248046875 125.9351043701172 971.8387451171875 C 121.9300994873047 967.12744140625 116.3603439331055 964.548828125 110.5680236816406 964.1549072265625 L 110.5666427612305 964.1558837890625 Z" stroke="none" fill="#cd7a29"/>
      </g>
    </g>
  </g>
</svg>
