<svg id="standard-hotel" xmlns="http://www.w3.org/2000/svg" width="198.554" height="50.056" viewBox="0 0 198.554 50.056">
  <g id="Layer_1" data-name="Layer 1">
    <rect id="Rectangle_39" data-name="Rectangle 39" width="198.554" height="50.056" fill="#121211"/>
    <path id="Path_310" data-name="Path 310" d="M176.37,34.085h4.325v3.894h-13.1V34.085H171.9V11.97h4.465Z" transform="translate(8.129 1.102)" fill="#fff"/>
    <path id="Path_311" data-name="Path 311" d="M165.183,12V38.029h-4V29.55c-1.472,1.291-2.333,2.162-4.675,2.162-2.132,0-3.394-1.552-3.394-4.075V12h4V27.017a1.291,1.291,0,0,0,1.442,1.412,4.665,4.665,0,0,0,2.593-1.231V12Z" transform="translate(8.113 1.105)" fill="#fff"/>
    <path id="Path_312" data-name="Path 312" d="M136.89,20.9h8.5V18.1c0-2.242-.791-3.174-2.232-3.174s-2.232.931-2.232,3.174v.43h-4c.07-4.1,1.772-6.918,6.267-6.918s6.267,3,6.267,7.208V24.5c0,4.255-1.652,7.208-6.267,7.208s-6.267-3-6.267-7.208V20.9m4,3.314v1c0,2.232.791,3.174,2.232,3.174s2.232-.941,2.232-3.174v-1Z" transform="translate(6.265 0.846)" fill="#fff"/>
    <path id="Path_313" data-name="Path 313" d="M117.7,31.562c.18,2.232,1.372,2.883,2.383,2.883,1.442,0,2.232-.941,2.232-2.553,0-4.435-9.08-6.557-9.08-13.615,0-4.295,2.883-6.667,7.058-6.667s6.527,3.314,6.7,7.208l-4.245.611c-.18-2.633-1.221-3.924-2.663-3.924a2.293,2.293,0,0,0-2.593,2.373c0,5.146,9.07,6.517,9.07,14.016,0,4.145-2.513,6.487-6.918,6.487-3.634,0-5.8-2.633-6.187-6.307Z" transform="translate(5.217 1.106)" fill="#fff"/>
    <path id="Path_314" data-name="Path 314" d="M111.67,29.336v3.58h-2.232V38.55h-4V32.937h-2.7v-3.6h2.7V17.288c0-1.081-.43-1.709-1.372-1.709H102.7V11.838a6.622,6.622,0,0,1,2-.227c3,0,4.725,1.514,4.725,4.7V29.336Z" transform="translate(4.61 0.013)" fill="#fff"/>
    <path id="Path_315" data-name="Path 315" d="M100.514,25.656c-.21,3.924-2.693,6.057-6.477,6.057S88.16,30.02,88.16,26.446V14a13.655,13.655,0,0,0-.25-2h3.854c0,.541.18,1,.22,1.512A6.868,6.868,0,0,1,96.7,11.64c2.733,0,4.1,1.872,4.1,4.355,0,4.255-2.8,6.6-8.61,8.79v1.151c0,1.622.651,2.493,2,2.493,1.842,0,2.232-1.081,2.3-2.743h4m-8.319-3.854c3.674-2.092,4.575-3.424,4.575-5.116,0-1.261-.651-1.762-1.872-1.762a3.564,3.564,0,0,0-2.7,1.8Z" transform="translate(4.031 0.847)" fill="#fff"/>
    <path id="Path_316" data-name="Path 316" d="M84.113,12V31.352H80.289V29.4c-1.692,1.442-2.553,2.313-4.9,2.313-2.122,0-3.384-1.552-3.384-4.075V12h4V27.017a1.281,1.281,0,0,0,1.442,1.412A4.725,4.725,0,0,0,80.049,27.2V12Z" transform="translate(3.288 0.862)" fill="#fff"/>
    <path id="Path_317" data-name="Path 317" d="M59.854,12v2h.07c1.331-1.692,2.3-2.373,4.325-2.373,2.523,0,4.1,1.872,4.1,5.406v9.29c0,3.524-1.582,5.406-4.1,5.406-1.772,0-2.593-.721-4.185-2v8.3H56V12h3.824m.21,15.417a4.115,4.115,0,0,0,2.313,1c1.081,0,1.942-.581,1.942-3.143V18.057c0-2.553-.861-3.133-1.942-3.133a4,4,0,0,0-2.313,1Z" transform="translate(2.56 1.09)" fill="#fff"/>
    <path id="Path_318" data-name="Path 318" d="M52.594,25.656c-.22,3.924-2.7,6.057-6.487,6.057S40.24,30.02,40.24,26.446V14A15.086,15.086,0,0,0,40,12h3.854c0,.541.18,1,.21,1.512A6.878,6.878,0,0,1,48.79,11.64c2.733,0,4.1,1.872,4.1,4.355,0,4.255-2.813,6.6-8.61,8.79v1.151c0,1.622.651,2.493,2,2.493,1.832,0,2.232-1.081,2.3-2.743h4m-8.319-3.854c3.674-2.092,4.575-3.424,4.575-5.116,0-1.261-.651-1.762-1.872-1.762a3.534,3.534,0,0,0-2.7,1.8Z" transform="translate(1.834 0.847)" fill="#fff"/>
    <path id="Path_319" data-name="Path 319" d="M36.18,12V31.352H32.326V29.079h-.07a5.226,5.226,0,0,1-4.575,2.633H26.85V27.5a9.2,9.2,0,0,0,2.593.39,2.533,2.533,0,0,0,2.7-2.593V12Z" transform="translate(0.03 0.862)" fill="#fff"/>
    <path id="Path_320" data-name="Path 320" d="M16,12v2h0c1.331-1.692,2.3-2.373,4.325-2.373,2.523,0,4.1,1.872,4.1,5.406v9.29c0,3.524-1.582,5.406-4.1,5.406-1.772,0-2.593-.721-4.185-2v8.3h-4V12H16m.21,15.417a4.115,4.115,0,0,0,2.313,1c1.081,0,1.942-.581,1.942-3.143V18.057c0-2.553-.861-3.133-1.942-3.133a4,4,0,0,0-2.313,1Z" transform="translate(0.014 1.09)" fill="#fff"/>
  </g>
</svg>
