<?xml version="1.0" encoding="utf-8"?>
<!-- Generator: Adobe Illustrator 25.1.0, SVG Export Plug-In . SVG Version: 6.00 Build 0)  -->
<svg version="1.1" id="layer" xmlns="http://www.w3.org/2000/svg" xmlns:xlink="http://www.w3.org/1999/xlink" x="0px" y="0px"
	 viewBox="0 0 599.9 218.8" style="enable-background:new 0 0 599.9 218.8;" xml:space="preserve">
<style type="text/css">
	.st0{fill:#FFF5E9;}
	.st1{clip-path:url(#SVGID_2_);fill:#FFF5E9;}
	.st2{clip-path:url(#SVGID_4_);fill:#FFF5E9;}
	.st3{clip-path:url(#SVGID_6_);fill:#FFF5E9;}
	.st4{clip-path:url(#SVGID_8_);fill:#121211;}
	.st5{clip-path:url(#SVGID_10_);fill:#121211;}
	.st6{clip-path:url(#SVGID_12_);fill:#121211;}
	.st7{fill:#121211;}
</style>
<g>
	<path class="st0" d="M8.3,218.3v-21.1H0.8v-3h18.5v3h-7.5v21.1H8.3z"/>
	<path class="st0" d="M22.9,218.3v-24.2h3.5v10.1H38v-10.1h3.5v24.2H38v-11H26.4v11H22.9z"/>
	<path class="st0" d="M47.9,218.3v-24.2h13.5v3h-10v7.1h9.2v3h-9.2v8h10.1v3.1H47.9z"/>
</g>
<g>
	<path class="st0" d="M80.9,218.3l-7.3-24.2h3.8l5.8,20.7h0.1l5.2-20.7h4.9l5.2,20.7h0.1l5.8-20.7h3.7l-7.5,24.2h-4.5l-5.3-21.1
		h-0.1l-5.3,21.1H80.9z"/>
	<path class="st0" d="M108,218.3l10.3-24.2h3.6l10.2,24.2h-3.8l-2.5-6.1h-11.9l-2.5,6.1H108z M124.8,209.3l-4.8-12l-4.8,12H124.8z"
		/>
</g>
<g>
	<path class="st0" d="M137.9,218.3v-21.1h-7.5v-3h18.5v3h-7.5v21.1H137.9z"/>
	<path class="st0" d="M152.6,218.3v-24.2h13.5v3H156v7.1h9.2v3H156v8h10.1v3.1H152.6z"/>
	<path class="st0" d="M171.5,218.3v-24.2h5.9c2.9,0,5.1,0.4,6.5,1.1c1.9,1,2.9,2.8,2.9,5.4c0,1.4-0.5,2.6-1.4,3.6s-2.1,1.6-3.6,1.9
		v0.1c1,0.4,1.8,1.2,2.4,2.4l4.6,9.6h-3.9l-3.7-8.4c-0.5-1.1-1.1-1.8-1.7-2.1c-0.4-0.2-1.2-0.3-2.3-0.3h-2.1v10.7h-3.6V218.3z
		 M174.9,197.1v7.3h2.9c1.6,0,2.9-0.3,3.8-1c0.9-0.7,1.4-1.6,1.4-2.8c0-2.4-1.6-3.6-4.8-3.6h-3.3V197.1z"/>
	<path class="st0" d="M202.5,218.3v-24.2h5.7l7.6,20.1l7.5-20.1h5.7v24.2h-3.5v-20.9l-8.1,20.9H214l-8.1-20.9v20.9H202.5z"/>
	<path class="st0" d="M232.5,218.3l10.3-24.2h3.6l10.2,24.2h-3.8l-2.5-6.1h-11.9l-2.5,6.1H232.5z M249.3,209.3l-4.8-12l-4.8,12
		H249.3z"/>
	<path class="st0" d="M260.2,218.3v-24.2h4.7l10.7,19.5v-19.5h3.5v24.2h-4.5l-11-19.9v19.9H260.2z"/>
	<path class="st0" d="M282.5,218.3l10.3-24.2h3.6l10.2,24.2h-3.8l-2.5-6.1h-11.9l-2.5,6.1H282.5z M299.4,209.3l-4.8-12l-4.8,12
		H299.4z"/>
	<path class="st0" d="M328.9,194.9l-0.3,3.5c-1.7-1.1-3.9-1.7-6.7-1.7s-5,0.9-6.7,2.7c-1.7,1.8-2.6,4-2.6,6.8s0.9,5.1,2.6,6.8
		c1.8,1.8,3.9,2.6,6.5,2.6c1.2,0,2.5-0.1,3.9-0.4v-7.3h-5.1v-2.8h8.6v12.6c-2.1,0.7-4.6,1.1-7.4,1.1c-3.8,0-6.9-1.1-9.3-3.4
		c-2.3-2.3-3.5-5.3-3.5-9.2c0-3.7,1.2-6.7,3.6-9s5.5-3.4,9.2-3.4C324.2,193.7,326.6,194.1,328.9,194.9z"/>
	<path class="st0" d="M335.4,218.3v-24.2h13.5v3h-10.1v7.1h9.2v3h-9.2v8h10.1v3.1H335.4z"/>
	<path class="st0" d="M354.5,218.3v-24.2h5.7l7.6,20.1l7.5-20.1h5.7v24.2h-3.5v-20.9l-8.1,20.9H366l-8.1-20.9v20.9H354.5z"/>
	<path class="st0" d="M387.4,218.3v-24.2h13.5v3h-10.1v7.1h9.2v3h-9.2v8h10.1v3.1H387.4z"/>
	<path class="st0" d="M406.5,218.3v-24.2h4.7l10.7,19.5v-19.5h3.5v24.2h-4.5l-11-19.9v19.9H406.5z"/>
	<path class="st0" d="M436.3,218.3v-21.1h-7.5v-3h18.5v3h-7.5v21.1H436.3z"/>
	<path class="st0" d="M471.9,194.6l-0.5,3.2c-1.7-0.7-3.2-1-4.5-1c-2.8,0-4.2,1.1-4.2,3.2c0,1.2,0.9,2.3,2.7,3.3
		c3.1,1.7,4.8,2.6,5,2.7c1.8,1.4,2.7,3.2,2.7,5.5c0,2.5-0.9,4.3-2.6,5.5c-1.5,1.1-3.6,1.7-6.2,1.7c-1.2,0-2.9-0.3-5-1l0.3-3.2
		c1.9,0.8,3.6,1.2,5,1.2c1.2,0,2.2-0.3,3.1-0.9c1.1-0.7,1.6-1.8,1.6-3.1c0-1.5-0.9-2.7-2.7-3.7c-1.7-0.9-3.3-1.8-5-2.6
		c-1.8-1.3-2.7-3-2.7-5.1s0.8-3.7,2.3-4.9c1.4-1.1,3.2-1.7,5.5-1.7C468.5,193.7,470.2,194,471.9,194.6z"/>
	<path class="st0" d="M476.5,206.2c0-3.7,1-6.7,3.1-8.9c2.1-2.4,5-3.6,8.6-3.6c3.6,0,6.5,1.2,8.6,3.6c2,2.3,3.1,5.3,3.1,8.9
		c0,3.7-1,6.7-3.1,9s-5,3.5-8.6,3.5s-6.5-1.2-8.6-3.5C477.5,212.9,476.5,209.9,476.5,206.2z M480.2,206.2c0,2.6,0.6,4.8,1.9,6.6
		c1.4,1.9,3.5,2.9,6.1,2.9s4.6-1,6.1-2.9c1.3-1.7,1.9-3.9,1.9-6.6c0-2.6-0.7-4.8-2-6.6c-1.5-1.9-3.5-2.9-6-2.9s-4.5,1-6,2.9
		C480.8,201.4,480.2,203.6,480.2,206.2z"/>
	<path class="st0" d="M521.7,194.7l-0.3,3.4c-1.5-0.9-3.2-1.3-5-1.3c-2.8,0-5,0.9-6.7,2.7c-1.7,1.8-2.6,4-2.6,6.8s0.9,5.1,2.6,6.8
		c1.8,1.8,3.9,2.6,6.5,2.6c2.2,0,3.9-0.4,5.3-1.2l0.2,3.4c-1.4,0.6-3.2,0.9-5.5,0.9c-3.8,0-6.9-1.1-9.3-3.4
		c-2.3-2.3-3.5-5.3-3.5-9.2c0-3.7,1.2-6.7,3.6-9c2.4-2.3,5.5-3.4,9.2-3.4C518.3,193.7,520.1,194,521.7,194.7z"/>
	<path class="st0" d="M525.9,218.3v-24.2h3.5v24.2H525.9z"/>
	<path class="st0" d="M535.7,218.3v-24.2h13.5v3h-10.1v7.1h9.2v3h-9.2v8h10.1v3.1H535.7z"/>
	<path class="st0" d="M559.6,218.3v-21.1h-7.5v-3h18.5v3h-7.5v21.1H559.6z"/>
	<path class="st0" d="M580.8,218.3v-10.1l-9.5-14.1h4.1l7.2,10.8l7-10.8h4.1l-9.4,14.1v10.1H580.8z"/>
</g>
<path class="st0" d="M243.8,13.9v53.9l15.8,8.8l15-6.1l14.6-9.4l15.5,5.6l15.5,9.4l15.1-7.1l-15.9-55.2h-75.6V13.9z M369.1,13.9
	l-14.2,49.2l4.4-0.6l18.8,12.7l12.2-0.9l4.1-2.7l1.7-5.7h0.5v4.3l10.6-7.1l15,0.5l14.6,10.3l7.8,0.5V14L369.1,13.9L369.1,13.9z"/>
<path class="st0" d="M235.8,5.9v8v49.5l23.8,13.2l15-6.1l14.6-9.4l15.5,5.6l15.5,9.4l22.4-10.6L325.3,5.8L235.8,5.9L235.8,5.9z
	 M363.1,5.9l-16.9,58.4l13.1-1.7l18.8,12.7l12.2-0.9l16.9-11.3l15,0.5l14.6,10.3l14.6,0.9l1.3-0.8V5.9H363.1z"/>
<path class="st0" d="M33.4,13.9l10.5,49.4l6.5,0.2l21.2,11.8l10.8-1.9l6.7-4.9L76,13.9H33.4z M119.1,13.9L108,60.8l0.7-0.2
	l14.1,11.3l16.5,2.8l2.2-1.1l0.7-3.1h0.5l0.5,2.3l17.8-9.3l12.7-0.9L179,66l-11.9-52.1L119.1,13.9L119.1,13.9z M210.1,13.9
	l-14.7,60.7l8.7,1.5l16.5-12.2l13.6-1.4l7.1,3.9L253,13.8h-42.9V13.9z"/>
<path class="st0" d="M23.5,5.9l12.2,57.5l0.6-0.4l14.1,0.5l21.2,11.8l10.8-1.9l12.2-8.9l1.6-0.4L82.3,6H23.5V5.9z M203.8,5.9
	l-15.7,64.8L173.3,5.9h-60.5L99.2,63.2l9.4-2.5L122.7,72l16.5,2.8l21.6-11.3l12.7-0.9l17.4,11.3l13.2,2.3L220.6,64l13.6-1.4l14.3,8
	L262.9,6L203.8,5.9L203.8,5.9z"/>
<g>
	<g>
		<defs>
			<polygon id="SVGID_1_" points="19.8,0.2 19.8,74.8 36.3,63 50.4,63.5 71.5,75.2 82.3,73.4 94.6,64.4 108.7,60.7 122.8,72 
				139.2,74.8 160.9,63.5 173.6,62.5 191,73.8 204.1,76.2 220.6,64 234.2,62.5 259.6,76.7 274.7,70.5 289.2,61.1 304.8,66.8 
				320.3,76.2 345.2,64.4 359.3,62.5 378.1,75.2 390.3,74.3 407.3,63 422.3,63.5 436.9,73.8 451.5,74.8 465.1,66.8 476.9,61.1 
				493.8,70.1 509.3,75.2 526.2,65.8 544.1,62.5 570.3,77.2 581,72.4 581,0 			"/>
		</defs>
		<clipPath id="SVGID_2_">
			<use xlink:href="#SVGID_1_"  style="overflow:visible;"/>
		</clipPath>
		<path class="st1" d="M484.8,108.7c0,3.7,0.6,6.9,1.7,9.5c3.4,8.7,13.6,14.8,22.3,14.8c7.7,0,19.4-6.7,19.4-17.5
			c0-7.5-6.6-9.5-32.7-16.6c-24-6.5-51.4-12.8-51.4-42c0-33.5,30-47.9,61.2-47.9c33,0,63.4,2.1,63.4,32.4h-39.5
			c-5.2-10.9-14.1-12-23-12c-12.1,0-23.1,11.1-17.9,21.5c4.7,9.3,22.5,12.6,44,18.3C553.8,74.9,575,84.4,575,111
			c0,37.8-36.4,49.9-70.2,49.9c-17.2,0-66.3-5.9-66.8-52.2L484.8,108.7L484.8,108.7z"/>
	</g>
	<g>
		<defs>
			<polygon id="SVGID_3_" points="19.8,0.2 19.8,74.8 36.3,63 50.4,63.5 71.5,75.2 82.3,73.4 94.6,64.4 108.7,60.7 122.8,72 
				139.2,74.8 160.9,63.5 173.6,62.5 191,73.8 204.1,76.2 220.6,64 234.2,62.5 259.6,76.7 274.7,70.5 289.2,61.1 304.8,66.8 
				320.3,76.2 345.2,64.4 359.3,62.5 378.1,75.2 390.3,74.3 407.3,63 422.3,63.5 436.9,73.8 451.5,74.8 465.1,66.8 476.9,61.1 
				493.8,70.1 509.3,75.2 526.2,65.8 544.1,62.5 570.3,77.2 581,72.4 581,0 			"/>
		</defs>
		<clipPath id="SVGID_4_">
			<use xlink:href="#SVGID_3_"  style="overflow:visible;"/>
		</clipPath>
		<path class="st2" d="M461.6,159.3c-16.3-7.8-31.5-24.3-31.5-50.5l-0.1-8.1h42.8c-5.6-1.9-11.1-4.3-16.3-7.4
			C445,86.6,435.7,74.2,436,56.9c-0.1-19.2,9.1-34.2,22.4-43.1c13.2-9,30-12.8,46.9-12.8c12.5,0,24.9,0.3,36,2.4
			c11.1,2.1,21.5,6.3,28.4,15.3c4.6,6,6.9,13.8,6.9,22.6v8h-52.5l-2.2-4.5c-2-3.9-3.7-5.1-6-6.2c-2.3-1-5.7-1.3-9.8-1.3
			c-2.9,0-6.1,1.2-8.2,3c-2.2,1.8-3,3.8-3,5c0,0.6,0.1,1.1,0.5,1.8c0.3,1.2,4,4.1,11.2,6.5c7.1,2.5,16.8,4.7,27.7,7.6
			c11.2,3,22.8,7,32.4,14.6c9.6,7.5,16.5,19.5,16.3,35c0.2,21.6-11.1,37.4-26.4,46c-15.2,8.8-33.9,11.9-51.8,11.9
			C495.3,168.8,477.9,167.4,461.6,159.3 M492.8,108.7c0,2.7,0.5,5,1.2,6.6c1.6,5,9.7,10,14.9,9.7c1.6,0.1,5.2-1,7.6-3
			c2.5-2,3.7-4.1,3.7-6.5v-0.1c0,0-0.1-0.1-0.2-0.1c-0.3-0.2-0.9-0.6-1.8-1c-3.7-1.8-11.8-4.2-24.8-7.7c-0.2-0.1-0.4-0.1-0.6-0.1
			L492.8,108.7L492.8,108.7z M484.8,108.7v-4.3V108.7z"/>
	</g>
</g>
<g>
	<g>
		<defs>
			<polygon id="SVGID_5_" points="76.2,101.1 51.8,88.4 37.7,88.4 39.5,179.8 588.7,179.8 586.9,94.5 567.1,100.6 540.3,87.5 
				507.9,100.2 475,87.5 442.5,101.1 412,87 378.1,99.7 353.2,87 321.7,103 289.7,86.1 259.1,100.6 229,86.1 197.1,101.1 166.5,87 
				136.4,100.6 105.9,85.1 			"/>
		</defs>
		<clipPath id="SVGID_6_">
			<use xlink:href="#SVGID_5_"  style="overflow:visible;"/>
		</clipPath>
		<path class="st3" d="M566.7,75.9c-9.5-7.6-21.2-11.6-32.4-14.6c-10.9-2.9-20.6-5.1-27.7-7.6c-7.2-2.4-10.8-5.3-11.2-6.5
			c-0.4-0.7-0.5-1.3-0.5-1.8c0-1.2,0.8-3.2,3-5c2.1-1.8,5.3-3,8.2-3c4.1,0,7.5,0.3,9.8,1.3s4,2.2,6,6.2l2.2,4.5h52.5v-8
			c0-8.9-2.3-16.7-6.9-22.6c-6.9-9-17.4-13.2-28.4-15.3c-11.2-2.1-23.6-2.4-36-2.4c-16.8,0-33.6,3.8-46.8,12.8
			c-2,1.3-3.9,2.8-5.7,4.4V6h-89.6l-18.9,65.3L325.4,6H263h-27.2h-31.9l-15.7,64.8L173.4,6h-60.5L97.7,70L82.3,6H23.5l34.2,160.8
			h72.4l12.4-58.9l12.7,58.9h72.1l1.4-6.3l7.2-32.5v38.7H300v-47.9l14.3,47.9h60l14.4-47.9v47.9h64V154c2.9,2,5.8,3.8,8.8,5.3
			c16.3,8.1,33.8,9.5,43.3,9.6c17.8,0,36.6-3.1,51.8-11.9c15.2-8.6,26.6-24.5,26.4-46C583.1,95.5,576.3,83.4,566.7,75.9 M452.7,90.8
			c1.2,0.9,2.5,1.8,3.8,2.5c0.4,0.2,0.8,0.4,1.2,0.5l-5,1.2V90.8z M464.5,92.1c2.7-1.4,5.5-3,8.3-2.1L464.5,92.1z M516.5,122
			c-2.4,2-6.1,3.1-7.6,3c-5.2,0.3-13.3-4.8-14.9-9.7c-0.7-1.7-1.2-3.9-1.2-6.6v-2.2c0.2,0,0.4,0.1,0.5,0.1c13,3.5,21.2,5.9,24.8,7.7
			c0.9,0.4,1.5,0.8,1.9,1c0.1,0,0.1,0.1,0.1,0.1v0.1C520.2,117.9,519,120,516.5,122"/>
	</g>
	<g>
		<defs>
			<polygon id="SVGID_7_" points="76.2,101.1 51.8,88.4 37.7,88.4 39.5,179.8 588.7,179.8 586.9,94.5 567.1,100.6 540.3,87.5 
				507.9,100.2 475,87.5 442.5,101.1 412,87 378.1,99.7 353.2,87 321.7,103 289.7,86.1 259.1,100.6 229,86.1 197.1,101.1 166.5,87 
				136.4,100.6 105.9,85.1 			"/>
		</defs>
		<clipPath id="SVGID_8_">
			<use xlink:href="#SVGID_7_"  style="overflow:visible;"/>
		</clipPath>
		<polygon class="st4" points="243.8,13.9 319.4,13.9 344,99.1 344.5,99.1 369.1,13.9 444.7,13.9 444.7,158.8 396.6,158.8 
			396.6,65.8 396.1,65.8 368.3,158.8 320.2,158.8 292.4,65.8 291.9,65.8 291.9,158.8 243.8,158.8 		"/>
	</g>
	<g>
		<defs>
			<polygon id="SVGID_9_" points="76.2,101.1 51.8,88.4 37.7,88.4 39.5,179.8 588.7,179.8 586.9,94.5 567.1,100.6 540.3,87.5 
				507.9,100.2 475,87.5 442.5,101.1 412,87 378.1,99.7 353.2,87 321.7,103 289.7,86.1 259.1,100.6 229,86.1 197.1,101.1 166.5,87 
				136.4,100.6 105.9,85.1 			"/>
		</defs>
		<clipPath id="SVGID_10_">
			<use xlink:href="#SVGID_9_"  style="overflow:visible;"/>
		</clipPath>
		<polygon class="st5" points="220.7,158.8 161.6,158.8 142.6,70.5 142.1,70.5 123.6,158.8 64.1,158.8 33.4,13.9 76,13.9 
			97.4,103.4 97.9,103.4 119.1,13.9 167,13.9 187.7,104.6 188.2,104.6 210.1,13.9 253,13.9 		"/>
	</g>
	<g>
		<defs>
			<polygon id="SVGID_11_" points="76.2,101.1 51.8,88.4 37.7,88.4 39.5,179.8 588.7,179.8 586.9,94.5 567.1,100.6 540.3,87.5 
				507.9,100.2 475,87.5 442.5,101.1 412,87 378.1,99.7 353.2,87 321.7,103 289.7,86.1 259.1,100.6 229,86.1 197.1,101.1 166.5,87 
				136.4,100.6 105.9,85.1 			"/>
		</defs>
		<clipPath id="SVGID_12_">
			<use xlink:href="#SVGID_11_"  style="overflow:visible;"/>
		</clipPath>
		<path class="st6" d="M484.8,87.4c0,3.7,0.6,28.2,1.7,30.9c3.4,8.7,13.6,14.8,22.3,14.8c7.7,0,19.4-6.7,19.4-17.5
			c0-7.5-7-8.3-32.7-16.6c-21.8-7-51.4-12.8-51.4-42c0-33.5,30-47.9,61.2-47.9c33,0,63.4,2.1,63.4,32.4h-39.5
			c-5.2-10.9-14.1-12-23-12c-12.1,0-23.1,11.1-17.9,21.5c4.7,9.3,22.5,12.6,44,18.3C553.8,75,575,84.5,575,111.1
			c0,37.8-36.4,49.9-70.2,49.9c-17.2,0-66.3-5.9-66.8-52.2L484.8,87.4z"/>
	</g>
</g>
<g>
	<path class="st7" d="M587.3,69.5c-4.8,3.9-6.8,7.9-8.8,9.7c-2,1.8-3.3,0.9-9.2,1.1c0,0-1.2,1.9-3.1,0.6c-2.8-1.8-6.6-5.4-11.1-8.8
		c-4.4-3.3-9.8-6.7-16.7-6.8c-8.8,0.4-14.1,6.2-19.3,10.2c-5,4.4-9.6,5-11.6,4.8c-1,0.4-5.6-0.3-10.7-4.8
		c-5.2-4.1-11.2-9.9-20.2-10.2c-8.9,0.4-14.4,6.1-19.6,10.2c-5.1,4.4-9.6,5.1-11.3,4.8c-1.2,0.3-5.8-0.3-10.9-4.8
		c-5-3.9-10.4-9.3-18.6-10.1c-0.6-0.2-1.3-0.2-2.2-0.1c-8.4,0.6-13.9,6.2-19,10.1c-5.1,4.5-9.6,5.1-11.1,4.8
		c-1.3,0.3-5.9-0.3-11-4.8c-5.2-4.1-10.9-9.8-19.9-10.2c-8.9,0.3-14.7,6.1-19.9,10.2c-5.1,4.5-9.7,5.1-11,4.8
		c-1.5,0.3-6-0.3-11.1-4.8c-5.2-4.1-10.8-9.8-19.7-10.2c-9,0.3-14.8,6.1-20,10.2c-5.1,4.5-9.7,5.1-10.9,4.8
		c-1.6,0.3-6.2-0.3-11.3-4.8c-5.2-4-10.7-9.8-19.6-10.2c-9,0.3-15,6-20.2,10.2c-5.1,4.5-9.7,5.1-10.7,4.8c-2,0.3-6.5-0.4-11.6-4.8
		c-5.2-4-10.5-9.8-19.2-10.2c-9.2,0.2-15.6,5.9-20.9,10.2c-2.6,2.2-5,2-6.8,3.3c-1.9,1.3-3.1,1.5-3.1,1.5c-7.7-0.4-7.9,0.2-11.3-3.6
		c-1.6-1.9-3.5-4.7-6.7-7.3c-3.2-2.5-7.7-4.2-12.7-4.1C95.9,65,89.2,72,85.7,76.1c-4.1,4.4-5.2,3.8-10.2,4c-5-0.2-6.1,0.4-10.2-4
		c-3.6-4.2-10.2-11.2-20.6-10.9C34.3,65,27.6,72,24.1,76.1c-4.1,4.4-5.2,3.8-10.2,4c-5-0.2-6.1,0.4-10.2-4c-1-1.1-2.2-2.5-3.7-3.9
		v20c3.6,2.6,8.1,7.1,13.9,7c10.4,0.2,17.1-6.8,20.6-10.9c4.1-4.4,5.2-5.9,10.2-6.1c5,0.2,6.1,1.8,10.2,6.1
		c3.6,4.2,10.2,11.2,20.6,10.9c10.4,0.2,17.1-6.8,20.6-10.9c4.1-4.4,5.2-5.9,10.2-6.1c2.7,0.1,3.5,0.6,4.4,1.2
		c1.5,0.9,3.3,4.1,7.2,8.3c3.9,4.2,10.5,7.7,19.2,7.6c8.7-0.5,13.5-6.2,18.7-10.2c5-4.3,9.6-7.1,12.1-6.9c0.7-0.4,5.3,2.4,10.4,6.9
		c5.3,4.2,11.3,9.9,20.4,10.2c8.8-0.4,14.3-6.1,19.5-10.2c5.1-4.4,9.6-7.2,11.4-6.9c1.1-0.4,5.7,2.4,10.8,6.9
		c5.2,4.1,11.1,9.9,20.1,10.2c8.9-0.3,14.5-6.1,19.7-10.2c5.1-4.4,9.6-7.2,11.2-6.9c1.3-0.3,5.8,2.4,10.9,6.9
		c5.2,4.1,11,9.9,19.9,10.2c8.9-0.3,14.6-6.1,19.8-10.2c5.1-4.5,9.6-7.2,11-6.9c1.4-0.3,6,2.5,11.1,6.9c5.2,4.1,10.9,9.8,19.8,10.2
		c8.9-0.3,14.7-6.1,19.9-10.2c4.5-3.9,8.6-6.6,10.4-6.9h0.6c0,0,0,0,0.1,0s0.2,0,0.3,0c1.8,0.1,6.1,2.8,10.8,6.9
		c5.2,4,10.8,9.8,19.7,10.2c9-0.3,14.8-6.1,20.1-10.2c5.1-4.5,9.7-7.3,10.8-6.9c1.7-0.3,6.3,2.5,11.4,6.9c5.2,4,10.6,9.8,19.5,10.2
		c9-0.3,15.2-6,20.4-10.2c5.1-4.6,9.8-7.3,10.4-6.9c2.5-0.2,7.1,2.6,12.1,6.9c5.2,3.9,10,9.7,18.7,10.2c0.3,0,0.7,0,1,0
		c11.1,0,18.3-6.8,21.5-11.4c1.8-2.3,3-3.8,3.9-4.5c1-0.7,1.8-1.2,4.4-1.2V65.4C595,65.4,590.5,67,587.3,69.5 M417,82L417,82
		c0.6-0.2,1.1-0.4,1.6-0.8C418.1,81.6,417.5,81.9,417,82 M420.7,79.2c0.4-0.5,0.7-1,0.9-1.6l0,0C421.4,78.1,421.1,78.7,420.7,79.2"
		/>
	<path class="st0" d="M582.9,67.2c-3.4,3.5-5.1,5.9-13.7,6.1c-1.9,0.3-6.7-2.8-11.8-6.7c-5.2-3.7-11.3-8.2-19-8.4
		c-7.1,0.2-12.2,4.7-17.4,8.4c-5.1,3.8-10,6.8-13.5,6.7c-2.6,0.2-7.4-2.8-12.5-6.7c-5.2-3.7-10.9-8.2-18.3-8.4
		c-7.2,0.2-12.5,4.7-17.7,8.4c-5.1,3.8-9.9,6.8-13.1,6.7c-2.8,0.2-7.6-2.8-12.8-6.7c-5.2-3.7-10.7-8.2-18.1-8.4c-0.2,0-0.4,0-0.7,0
		c-6.9,0.4-12.2,4.8-17.2,8.3c-5.1,3.9-9.9,6.9-13,6.7c-3,0.2-7.8-2.8-12.9-6.7c-5.2-3.7-10.7-8.2-18-8.4c-7.3,0.2-12.8,4.7-18,8.4
		c-5.1,3.9-9.9,6.9-12.9,6.7c-3.1,0.2-7.9-2.8-13-6.7c-5.2-3.7-10.6-8.2-17.8-8.4c-7.4,0.2-12.9,4.7-18.1,8.4
		c-5.1,3.9-9.9,6.9-12.7,6.7c-3.2,0.2-8-2.9-13.2-6.7c-5.2-3.7-10.5-8.2-17.7-8.4c-7.4,0.2-13.1,4.7-18.3,8.4
		c-5.1,3.9-9.9,6.9-12.5,6.7c-3.5,0.1-8.4-2.9-13.5-6.7c-5.2-3.6-10.3-8.1-17.4-8.4c-7.8,0.1-13.8,4.6-19,8.4
		c-5.1,3.9-9.9,7-11.8,6.7c-8.6-0.2-10.3-2.6-13.7-6.1c-3-3.5-7.8-9.1-17.1-9c-9.3-0.1-14.7,5-18.4,8.7c-4,3.8-6.3,6.2-12.4,6.3
		c-6.2-0.1-8.4-2.5-12.4-6.3c-3.7-3.7-9.1-8.8-18.4-8.7c-9.3-0.1-14.7,5-18.4,8.7c-4,3.8-6.3,6.2-12.4,6.3C7.9,73,5.7,70.6,1.7,66.8
		c-0.5-0.5-0.9-0.9-1.5-1.4V77c3.4,2.6,7.8,4.8,13.9,4.7c9.3,0.1,14.7-5,18.4-8.7c4-3.8,6.3-6.2,12.4-6.3c6.2,0.1,8.4,2.5,12.4,6.3
		c3.7,3.7,9.1,8.8,18.4,8.7c9.3,0.1,14.7-5,18.4-8.7c4-3.8,6.3-6.2,12.4-6.3c6.1,0.2,7,2.1,10.7,6.1c3.3,4,9.3,9.2,20.1,8.9
		c6.8-0.3,11.7-4.8,16.8-8.3c5.1-3.8,10.1-6.8,14-6.7c2.4-0.2,7.2,2.8,12.3,6.7c5.2,3.7,11,8.2,18.5,8.3c7.1-0.2,12.4-4.7,17.6-8.3
		c5.1-3.8,10-6.8,13.3-6.7c2.8-0.2,7.6,2.8,12.7,6.7c5.2,3.7,10.8,8.2,18.2,8.3c7.2-0.2,12.6-4.7,17.8-8.3c5.1-3.8,9.9-6.9,13.1-6.7
		c2.9-0.2,7.7,2.8,12.8,6.7c5.2,3.7,10.7,8.2,18,8.3c7.3-0.2,12.7-4.7,17.9-8.3c5.1-3.9,9.9-6.9,12.9-6.7c3-0.2,7.8,2.8,12.9,6.7
		c5.2,3.7,10.6,8.2,17.9,8.3c7.3-0.2,12.8-4.7,18-8.3c4.8-3.7,9.4-6.5,12.3-6.7h0.5c0.1,0,0.1,0,0.2,0c3.1,0,7.9,2.9,12.9,6.7
		c5.2,3.7,10.6,8.2,17.8,8.3c7.4-0.1,13-4.7,18.2-8.3c5.1-3.9,9.9-6.9,12.7-6.7c3.3-0.1,8.2,2.9,13.3,6.7c5.2,3.6,10.4,8.2,17.6,8.3
		c7.5-0.1,13.3-4.6,18.5-8.3c5.1-3.9,9.9-6.9,12.3-6.7c3.9-0.1,8.9,2.9,14,6.7c5.2,3.6,10,8.1,16.8,8.3c0.2,0,0.4,0,0.7,0
		c10.4,0,16.2-5,19.4-9c3.7-4,4.6-5.9,10.7-6.1v-8.5C590.7,58.1,585.9,63.7,582.9,67.2 M416.1,66.6C416.1,66.7,416,66.7,416.1,66.6
		c0.3-0.1,0.7-0.3,1.1-0.5C416.8,66.4,416.5,66.5,416.1,66.6 M418.7,64.4c-0.1,0.2-0.2,0.5-0.4,0.7
		C418.5,64.9,418.6,64.7,418.7,64.4L418.7,64.4"/>
	<path class="st0" d="M587.3,83.1c-4.8,3.4-6.8,7-8.8,8.6s-3.3,2.7-9.2,2.9c0,0-1.2-0.2-3.1-1.3c-2.8-1.6-6.6-4.8-11.1-7.7
		c-4.4-2.9-9.8-5.9-16.7-6c-8.8,0.4-14.1,5.4-19.3,9c-5,3.9-9.6,6.3-11.6,6.1c-1,0.3-5.6-2.1-10.7-6.1c-5.2-3.6-11.2-8.7-20.2-9
		c-8.9,0.3-14.4,5.4-19.6,9c-5.1,3.9-9.6,6.4-11.3,6.1c-1.2,0.3-5.8-2.1-10.9-6.1c-5-3.4-10.4-8.2-18.6-8.9
		c-0.6-0.2-1.3-0.2-2.2-0.1c-8.4,0.6-13.9,5.5-19,8.9c-5.1,3.9-9.6,6.4-11.1,6.1c-1.3,0.3-5.9-2.2-11-6.1c-5.2-3.6-10.9-8.7-19.9-9
		c-8.9,0.3-14.7,5.4-19.9,9c-5.1,3.9-9.7,6.4-11,6.1c-1.5,0.3-6-2.2-11.1-6.1c-5.2-3.6-10.8-8.7-19.7-9c-9,0.3-14.8,5.3-20,9
		c-5.1,4-9.7,6.4-10.9,6.1c-1.6,0.3-6.2-2.2-11.3-6.1c-5.2-3.6-10.7-8.6-19.6-9c-9,0.2-15,5.3-20.2,9c-5.1,4-9.7,6.4-10.7,6.1
		c-2,0.2-6.5-2.2-11.6-6.1c-5.2-3.5-10.5-8.6-19.2-9c-9.2,0.2-15.6,5.2-20.9,9c-2.6,1.9-5,3.7-6.8,4.8c-1.9,1.1-3.1,1.3-3.1,1.3
		c-7.7-0.4-7.9-1.7-11.3-5c-1.6-1.7-3.5-4.2-6.7-6.4c-3.2-2.2-7.7-3.7-12.7-3.6c-10.4-0.2-17.1,6-20.6,9.6
		c-4.1,3.8-5.2,5.2-10.2,5.4c-5-0.2-6.1-1.6-10.2-5.4c-3.6-3.7-10.2-9.8-20.6-9.6c-10.4-0.2-17.1,6-20.6,9.6
		c-4.1,3.9-5.2,5.2-10.2,5.4c-5-0.2-6.1-1.6-10.2-5.4c-1-1-2.2-2.2-3.7-3.4v17.6c3.6,2.3,8.1,6.3,13.9,6.2c10.4,0.2,17.1-6,20.6-9.6
		c4.1-3.9,5.2-5.2,10.2-5.4c5,0.2,6.1,1.5,10.2,5.4c3.6,3.7,10.2,9.8,20.6,9.6c10.4,0.2,17.1-6,20.6-9.6c4.1-3.9,5.2-5.2,10.2-5.4
		c2.7,0.1,3.5,0.5,4.4,1.1c1.5,0.8,3.3,3.6,7.2,7.3c3.9,3.7,10.5,6.8,19.2,6.7c8.7-0.4,13.5-5.5,18.7-9c5-3.8,9.6-6.3,12.1-6.1
		c0.7-0.4,5.3,2.1,10.4,6.1c5.3,3.7,11.3,8.7,20.4,9c8.8-0.3,14.3-5.4,19.5-9c5.1-3.9,9.6-6.3,11.4-6.1c1.1-0.3,5.7,2.1,10.8,6.1
		c5.2,3.6,11.1,8.7,20.1,9c8.9-0.3,14.5-5.4,19.7-9c5.1-3.9,9.6-6.4,11.2-6.1c1.3-0.3,5.8,2.1,10.9,6.1c5.2,3.6,11,8.7,19.9,9
		c8.9-0.3,14.6-5.4,19.8-9c5.1-3.9,9.6-6.4,11-6.1c1.4-0.3,6,2.2,11.1,6.1c5.2,3.6,10.9,8.7,19.8,9c8.9-0.3,14.7-5.4,19.9-9
		c4.5-3.5,8.6-5.8,10.4-6.1h0.6c0,0,0,0,0.1,0s0.2,0,0.3,0c1.8,0.1,6.1,2.5,10.8,6.1c5.2,3.6,10.8,8.7,19.7,9c9-0.3,14.8-5.3,20.1-9
		c5.1-4,9.7-6.4,10.8-6.1c1.7-0.2,6.3,2.2,11.4,6.1c5.2,3.5,10.6,8.6,19.5,9c9-0.2,15.2-5.3,20.4-9c5.1-4,9.8-6.5,10.4-6.1
		c2.5-0.2,7.1,2.3,12.1,6.1c5.2,3.5,10,8.5,18.7,9c0.3,0,0.7,0,1,0c11.1,0,18.3-6,21.5-10c1.8-2,3-3.3,3.9-4c1-0.6,1.8-1,4.4-1.1
		V79.7C595,79.5,590.5,80.9,587.3,83.1 M417,94.2C417,94.2,416.9,94.2,417,94.2c0.6-0.2,1.1-0.4,1.6-0.7
		C418.1,93.8,417.5,94,417,94.2 M420.7,91.7c0.4-0.4,0.7-0.9,0.9-1.4l0,0C421.4,90.8,421.1,91.2,420.7,91.7"/>
</g>
</svg>
