<?xml version="1.0" encoding="UTF-8"?>
<svg xmlns="http://www.w3.org/2000/svg" xmlns:xlink="http://www.w3.org/1999/xlink" width="376.63pt" height="304.3pt" viewBox="0 0 376.63 304.3" version="1.1">
<defs>
<clipPath id="clip1">
  <path d="M 34 264 L 72 264 L 72 304.300781 L 34 304.300781 Z M 34 264 "/>
</clipPath>
<clipPath id="clip2">
  <path d="M 166 263 L 203 263 L 203 304.300781 L 166 304.300781 Z M 166 263 "/>
</clipPath>
<clipPath id="clip3">
  <path d="M 224 263 L 260 263 L 260 304.300781 L 224 304.300781 Z M 224 263 "/>
</clipPath>
<clipPath id="clip4">
  <path d="M 302 263 L 338 263 L 338 304.300781 L 302 304.300781 Z M 302 263 "/>
</clipPath>
<clipPath id="clip5">
  <path d="M 341 263 L 376.628906 263 L 376.628906 304.300781 L 341 304.300781 Z M 341 263 "/>
</clipPath>
</defs>
<g id="surface1">
<path style=" stroke:none;fill-rule:nonzero;fill:rgb(30.999756%,13.299561%,26.298523%);fill-opacity:1;" d="M 0 0 L 6.300781 0 L 6.300781 303.300781 L 0 303.300781 L 0 0 "/>
<path style=" stroke:none;fill-rule:nonzero;fill:rgb(0%,0%,0%);fill-opacity:1;" d="M 37.601563 172 L 47.300781 172 L 64.101563 216.601563 L 80.898438 172 L 90.601563 172 L 90.601563 225.101563 L 83.898438 225.101563 L 83.898438 180.898438 L 83.699219 180.898438 L 67.101563 225.101563 L 61.101563 225.101563 L 44.5 180.898438 L 44.300781 180.898438 L 44.300781 225.101563 L 37.601563 225.101563 L 37.601563 172 "/>
<path style=" stroke:none;fill-rule:nonzero;fill:rgb(0%,0%,0%);fill-opacity:1;" d="M 105.898438 179.699219 L 99.601563 179.699219 L 99.601563 172 L 105.898438 172 Z M 99.601563 186.601563 L 105.898438 186.601563 L 105.898438 225.101563 L 99.601563 225.101563 L 99.601563 186.601563 "/>
<path style=" stroke:none;fill-rule:nonzero;fill:rgb(0%,0%,0%);fill-opacity:1;" d="M 113.601563 186.601563 L 119.601563 186.601563 L 119.601563 192.699219 L 119.699219 192.699219 C 122.398438 187.898438 126.699219 185.699219 132.199219 185.699219 C 142.300781 185.699219 145.5 191.5 145.5 199.800781 L 145.5 225.101563 L 139.199219 225.101563 L 139.199219 199 C 139.199219 194.300781 136.199219 191.300781 131.398438 191.300781 C 123.699219 191.300781 120 196.398438 120 203.398438 L 120 225.101563 L 113.699219 225.101563 L 113.699219 186.601563 L 113.601563 186.601563 "/>
<path style=" stroke:none;fill-rule:nonzero;fill:rgb(0%,0%,0%);fill-opacity:1;" d="M 159.699219 179.699219 L 153.398438 179.699219 L 153.398438 172 L 159.699219 172 Z M 153.300781 186.601563 L 159.601563 186.601563 L 159.601563 225.101563 L 153.300781 225.101563 L 153.300781 186.601563 "/>
<path style=" stroke:none;fill-rule:nonzero;fill:rgb(0%,0%,0%);fill-opacity:1;" d="M 171.5 213 C 171.699219 218.699219 176.601563 220.398438 181.800781 220.398438 C 185.699219 220.398438 191.101563 219.5 191.101563 214.699219 C 191.101563 209.800781 184.800781 209 178.5 207.601563 C 172.199219 206.199219 165.898438 204.101563 165.898438 196.699219 C 165.898438 189 173.601563 185.800781 180.300781 185.800781 C 188.800781 185.800781 195.601563 188.5 196.101563 197.898438 L 189.800781 197.898438 C 189.398438 193 185 191.398438 180.898438 191.398438 C 177.101563 191.398438 172.699219 192.398438 172.699219 196.300781 C 172.699219 200.800781 179.398438 201.601563 185.300781 203 C 191.601563 204.398438 197.898438 206.5 197.898438 213.898438 C 197.898438 223.101563 189.300781 226 181.5 226 C 172.898438 226 165.601563 222.5 165.199219 213 L 171.5 213 "/>
<path style=" stroke:none;fill-rule:nonzero;fill:rgb(0%,0%,0%);fill-opacity:1;" d="M 212 186.601563 L 219.699219 186.601563 L 219.699219 192.199219 L 212 192.199219 L 212 216.101563 C 212 219 212.800781 219.5 216.800781 219.5 L 219.699219 219.5 L 219.699219 225.101563 L 214.898438 225.101563 C 208.300781 225.101563 205.699219 223.800781 205.699219 216.699219 L 205.699219 192.199219 L 199.199219 192.199219 L 199.199219 186.601563 L 205.699219 186.601563 L 205.699219 175.101563 L 212 175.101563 L 212 186.601563 "/>
<path style=" stroke:none;fill-rule:nonzero;fill:rgb(0%,0%,0%);fill-opacity:1;" d="M 224.300781 186.601563 L 230.300781 186.601563 L 230.300781 194.699219 L 230.398438 194.699219 C 233.5 188.5 237.699219 185.5 244.601563 185.699219 L 244.601563 192.398438 C 234.398438 192.398438 230.699219 198.199219 230.699219 208 L 230.699219 225.101563 L 224.398438 225.101563 L 224.398438 186.601563 L 224.300781 186.601563 "/>
<path style=" stroke:none;fill-rule:nonzero;fill:rgb(0%,0%,0%);fill-opacity:1;" d="M 265.398438 230.300781 C 262.5 237.800781 259.898438 240.601563 254.199219 240.601563 C 252.699219 240.601563 251.199219 240.5 249.800781 239.898438 L 249.800781 234.101563 C 251 234.5 252.300781 235 253.5 235 C 256.101563 235 257.5 233.699219 258.699219 231.5 L 261.300781 224.898438 L 246 186.601563 L 253.199219 186.601563 L 264.398438 218.101563 L 264.5 218.101563 L 275.300781 186.601563 L 282 186.601563 L 265.398438 230.300781 "/>
<g clip-path="url(#clip1)" clip-rule="nonzero">
<path style=" stroke:none;fill-rule:nonzero;fill:rgb(0%,0%,0%);fill-opacity:1;" d="M 53 264 C 65.199219 264 71.699219 272.898438 71.699219 284.199219 C 71.699219 295.398438 65.199219 304.300781 53 304.300781 C 40.800781 304.300781 34.300781 295.398438 34.300781 284.199219 C 34.398438 272.800781 40.800781 264 53 264 M 53 298.699219 C 59.601563 298.699219 65 293.5 65 284.199219 C 65 274.800781 59.601563 269.601563 53 269.601563 C 46.398438 269.601563 41 274.800781 41 284.199219 C 41.101563 293.398438 46.398438 298.699219 53 298.699219 "/>
</g>
<path style=" stroke:none;fill-rule:nonzero;fill:rgb(0%,0%,0%);fill-opacity:1;" d="M 79.398438 270.398438 L 72.898438 270.398438 L 72.898438 264.800781 L 79.398438 264.800781 L 79.398438 259.101563 C 79.398438 252.800781 83.101563 249.601563 90 249.601563 C 91.199219 249.601563 92.898438 249.800781 94.101563 250.199219 L 94.101563 255.699219 C 93 255.300781 91.601563 255.199219 90.5 255.199219 C 87.5 255.199219 85.699219 256.199219 85.699219 259.5 L 85.699219 264.898438 L 93.101563 264.898438 L 93.101563 270.5 L 85.699219 270.5 L 85.699219 303.398438 L 79.398438 303.398438 L 79.398438 270.398438 "/>
<path style=" stroke:none;fill-rule:nonzero;fill:rgb(0%,0%,0%);fill-opacity:1;" d="M 119 250.199219 L 137.199219 250.199219 C 153.601563 250.199219 162.699219 258.398438 162.699219 275.5 C 162.699219 293.300781 154.898438 303.300781 137.199219 303.300781 L 119 303.300781 Z M 126.101563 297.398438 L 137.898438 297.398438 C 142.699219 297.398438 155.800781 296.101563 155.800781 276.5 C 155.800781 263.800781 151.101563 256.199219 138.101563 256.199219 L 126.199219 256.199219 L 126.199219 297.398438 L 126.101563 297.398438 "/>
<g clip-path="url(#clip2)" clip-rule="nonzero">
<path style=" stroke:none;fill-rule:nonzero;fill:rgb(0%,0%,0%);fill-opacity:1;" d="M 201.800781 291.101563 C 200.101563 299.601563 194 304.199219 185.300781 304.199219 C 173 304.199219 167.199219 295.699219 166.800781 283.898438 C 166.800781 272.398438 174.398438 263.898438 184.898438 263.898438 C 198.5 263.898438 202.699219 276.601563 202.300781 285.898438 L 173.5 285.898438 C 173.300781 292.601563 177.101563 298.601563 185.5 298.601563 C 190.699219 298.601563 194.398438 296.101563 195.5 291.101563 Z M 195.699219 280.398438 C 195.398438 274.398438 190.898438 269.5 184.601563 269.5 C 178 269.5 174 274.5 173.601563 280.398438 L 195.699219 280.398438 "/>
</g>
<path style=" stroke:none;fill-rule:nonzero;fill:rgb(0%,0%,0%);fill-opacity:1;" d="M 209.601563 270.398438 L 203.101563 270.398438 L 203.101563 264.800781 L 209.601563 264.800781 L 209.601563 259.101563 C 209.601563 252.800781 213.300781 249.601563 220.199219 249.601563 C 221.398438 249.601563 223.101563 249.800781 224.300781 250.199219 L 224.300781 255.699219 C 223.199219 255.300781 221.898438 255.199219 220.699219 255.199219 C 217.601563 255.199219 215.898438 256.199219 215.898438 259.5 L 215.898438 264.898438 L 223.300781 264.898438 L 223.300781 270.5 L 216 270.5 L 216 303.398438 L 209.699219 303.398438 L 209.699219 270.398438 L 209.601563 270.398438 "/>
<g clip-path="url(#clip3)" clip-rule="nonzero">
<path style=" stroke:none;fill-rule:nonzero;fill:rgb(0%,0%,0%);fill-opacity:1;" d="M 259.300781 291.101563 C 257.601563 299.601563 251.5 304.199219 242.800781 304.199219 C 230.5 304.199219 224.699219 295.699219 224.300781 283.898438 C 224.300781 272.398438 231.898438 263.898438 242.398438 263.898438 C 256 263.898438 260.199219 276.601563 259.800781 285.898438 L 231 285.898438 C 230.800781 292.601563 234.601563 298.601563 243 298.601563 C 248.199219 298.601563 251.898438 296.101563 253 291.101563 Z M 253.199219 280.398438 C 252.898438 274.398438 248.398438 269.5 242.101563 269.5 C 235.5 269.5 231.5 274.5 231.101563 280.398438 L 253.199219 280.398438 "/>
</g>
<path style=" stroke:none;fill-rule:nonzero;fill:rgb(0%,0%,0%);fill-opacity:1;" d="M 265.101563 264.800781 L 271.101563 264.800781 L 271.101563 270.898438 L 271.199219 270.898438 C 273.898438 266.101563 278.199219 263.898438 283.699219 263.898438 C 293.800781 263.898438 297 269.699219 297 278 L 297 303.300781 L 290.699219 303.300781 L 290.699219 277.199219 C 290.699219 272.5 287.699219 269.5 282.898438 269.5 C 275.199219 269.5 271.5 274.601563 271.5 281.601563 L 271.5 303.300781 L 265.199219 303.300781 L 265.199219 264.800781 L 265.101563 264.800781 "/>
<g clip-path="url(#clip4)" clip-rule="nonzero">
<path style=" stroke:none;fill-rule:nonzero;fill:rgb(0%,0%,0%);fill-opacity:1;" d="M 330.898438 277.199219 C 329.898438 272.398438 326.601563 269.5 321.398438 269.5 C 312.199219 269.5 309.398438 276.699219 309.398438 284.5 C 309.398438 291.601563 312.601563 298.601563 320.601563 298.601563 C 326.699219 298.601563 330.398438 295 331.199219 289.199219 L 337.699219 289.199219 C 336.300781 298.601563 330.398438 304.199219 320.699219 304.199219 C 308.898438 304.199219 302.699219 296 302.699219 284.5 C 302.699219 273 308.699219 263.898438 320.898438 263.898438 C 329.601563 263.898438 336.601563 268 337.5 277.101563 L 330.898438 277.101563 L 330.898438 277.199219 "/>
</g>
<g clip-path="url(#clip5)" clip-rule="nonzero">
<path style=" stroke:none;fill-rule:nonzero;fill:rgb(0%,0%,0%);fill-opacity:1;" d="M 376.101563 291.101563 C 374.398438 299.601563 368.300781 304.199219 359.601563 304.199219 C 347.300781 304.199219 341.5 295.699219 341.101563 283.898438 C 341.101563 272.398438 348.699219 263.898438 359.199219 263.898438 C 372.800781 263.898438 377 276.601563 376.601563 285.898438 L 347.800781 285.898438 C 347.601563 292.601563 351.398438 298.601563 359.800781 298.601563 C 365 298.601563 368.699219 296.101563 369.800781 291.101563 Z M 370 280.398438 C 369.699219 274.398438 365.199219 269.5 358.898438 269.5 C 352.300781 269.5 348.300781 274.5 347.898438 280.398438 L 370 280.398438 "/>
</g>
<path style=" stroke:none;fill-rule:nonzero;fill:rgb(0%,0%,0%);fill-opacity:1;" d="M 99.898438 45.199219 L 101.898438 35.300781 C 101.5 35.199219 101.101563 35 100.800781 34.699219 C 99.898438 35.699219 98 37.398438 96.300781 37.398438 C 96.199219 37.398438 96.199219 37.398438 96.101563 37.398438 C 95.601563 37.398438 95.101563 37.199219 94.800781 36.898438 C 95.199219 36.398438 95.199219 35.699219 94.800781 35.300781 L 94.699219 35.199219 C 94.699219 35.199219 94.699219 35.199219 94.699219 35.300781 C 94.699219 35.5 94.601563 35.800781 94.398438 35.898438 C 94.300781 35.898438 94.300781 35.898438 94.199219 35.898438 C 94 35.898438 93.800781 35.800781 93.699219 35.601563 C 93.601563 35.398438 93.5 35.199219 93.5 35 C 93.5 34.800781 93.5 34.699219 93.5 34.601563 L 93.898438 34.699219 L 94 34.699219 C 94.199219 34.699219 94.300781 34.5 94.398438 34.300781 C 94.398438 34 94.300781 33.800781 94.101563 33.699219 L 93.699219 33.601563 C 93.699219 33.5 93.800781 33.300781 93.898438 33.101563 C 94.101563 32.800781 94.300781 32.5 94.699219 32.5 C 94.699219 32.5 94.699219 32.5 94.800781 32.5 C 95 32.5 95.199219 32.601563 95.300781 32.800781 C 95.398438 33 95.5 33.199219 95.5 33.5 C 95.5 33.601563 95.5 33.699219 95.398438 33.800781 C 95.398438 33.898438 95.5 33.898438 95.601563 33.898438 C 95.800781 33.898438 96 33.800781 96.199219 33.699219 C 96.5 33.5 96.699219 33.199219 96.800781 32.898438 C 96.800781 32.800781 96.898438 32.699219 96.898438 32.601563 C 97.101563 31.800781 96.800781 30.898438 96.300781 30.398438 C 96 30.101563 95.699219 30 95.300781 30 C 94.898438 30 94.601563 30.199219 94.300781 30.398438 C 93.800781 30.800781 93.601563 31.398438 93.300781 32 L 93.300781 32.101563 C 93.199219 32.398438 93.101563 32.699219 93 33 C 93 33.199219 92.898438 33.300781 92.898438 33.5 L 92.699219 33.5 C 92.699219 33.300781 92.800781 33.199219 92.800781 33 C 92.898438 32.699219 93 32.398438 93.101563 32.101563 C 93.398438 31.398438 93.699219 30.800781 94 30.101563 C 94.199219 29.699219 94.398438 29.199219 94.398438 28.699219 C 94.398438 28.300781 94.398438 27.800781 94.199219 27.398438 C 94 26.800781 93.199219 24.398438 93.199219 24.398438 C 93.199219 24.398438 91.800781 26.300781 91.5 26.699219 C 91.300781 27 91.101563 27.398438 91.101563 27.800781 C 91 28.300781 91.101563 28.800781 91.199219 29.300781 C 91.300781 30.101563 91.5 30.800781 91.601563 31.601563 C 91.601563 31.898438 91.601563 32.199219 91.601563 32.601563 C 91.601563 32.800781 91.601563 32.898438 91.601563 33.101563 L 91.398438 33.101563 C 91.398438 33 91.398438 32.800781 91.398438 32.601563 C 91.398438 32.300781 91.398438 31.898438 91.398438 31.601563 L 91.398438 31.5 C 91.300781 30.800781 91.199219 30.101563 90.800781 29.601563 C 90.601563 29.199219 90.300781 28.898438 89.898438 28.699219 C 89.699219 28.601563 89.5 28.601563 89.300781 28.601563 C 89.101563 28.601563 89 28.601563 88.800781 28.699219 C 88.199219 28.898438 87.699219 29.601563 87.699219 30.5 C 87.699219 30.601563 87.699219 30.699219 87.699219 30.800781 C 87.699219 31.199219 87.898438 31.601563 88.101563 31.800781 C 88.300781 32.101563 88.699219 32.300781 88.898438 32.300781 C 88.898438 32.300781 88.898438 32.300781 89 32.300781 C 89 32.199219 89 32.101563 89 32 C 89 31.800781 89.101563 31.601563 89.300781 31.398438 C 89.398438 31.300781 89.5 31.300781 89.601563 31.300781 C 89.699219 31.300781 89.800781 31.300781 89.898438 31.398438 C 90.300781 31.601563 90.5 32 90.601563 32.398438 C 90.699219 32.601563 90.699219 32.800781 90.699219 32.898438 L 90.300781 32.800781 C 90.300781 32.800781 90.300781 32.800781 90.199219 32.800781 C 90 32.800781 89.898438 33 89.800781 33.199219 C 89.800781 33.5 89.898438 33.699219 90.101563 33.800781 L 90.5 33.898438 C 90.5 34 90.398438 34.101563 90.398438 34.300781 C 90.300781 34.5 90.199219 34.699219 90.101563 34.800781 C 90 34.898438 89.898438 34.898438 89.800781 34.898438 C 89.601563 34.898438 89.5 34.800781 89.398438 34.699219 C 89.199219 34.5 89.199219 34.300781 89.300781 34 C 89.300781 34 89.300781 34 89.300781 33.898438 L 89.199219 33.898438 C 88.699219 34.101563 88.5 34.699219 88.898438 35.398438 C 88.5 35.5 88.101563 35.5 87.699219 35.5 C 87.5 35.5 87.199219 35.5 87 35.5 C 84.5 35.199219 83 32.898438 82.5 31.601563 C 82.398438 31.699219 82.199219 31.699219 82.101563 31.699219 C 82 31.699219 81.800781 31.699219 81.699219 31.699219 C 81.398438 31.699219 81.101563 31.601563 80.898438 31.5 C 80.398438 32.699219 79 35.101563 76.398438 35.398438 C 76.199219 35.398438 75.898438 35.398438 75.699219 35.398438 C 75.199219 35.398438 74.800781 35.300781 74.5 35.300781 C 74.898438 34.601563 74.699219 34 74.199219 33.800781 L 74.101563 33.800781 C 74.101563 33.800781 74.101563 33.800781 74.101563 33.898438 C 74.101563 34.101563 74.101563 34.398438 74 34.601563 C 73.898438 34.699219 73.699219 34.800781 73.601563 34.800781 C 73.5 34.800781 73.398438 34.800781 73.300781 34.699219 C 73.199219 34.601563 73.101563 34.398438 73 34.199219 C 72.898438 34 72.898438 33.898438 72.898438 33.800781 L 73.199219 33.699219 C 73.398438 33.601563 73.601563 33.398438 73.5 33.101563 C 73.5 32.898438 73.300781 32.699219 73.101563 32.699219 C 73.101563 32.699219 73.101563 32.699219 73 32.699219 L 72.601563 32.800781 C 72.601563 32.699219 72.601563 32.5 72.699219 32.300781 C 72.800781 31.898438 73 31.5 73.398438 31.300781 C 73.5 31.300781 73.601563 31.199219 73.601563 31.199219 C 73.699219 31.199219 73.800781 31.199219 73.898438 31.300781 C 74.101563 31.398438 74.199219 31.601563 74.199219 31.898438 C 74.199219 32 74.199219 32.101563 74.199219 32.199219 C 74.398438 32.199219 74.898438 31.800781 75 31.699219 C 75.101563 31.5 75.300781 31 75.398438 30.699219 C 75.398438 30.601563 75.398438 30.5 75.398438 30.398438 C 75.398438 29.601563 75 28.800781 74.300781 28.601563 C 74.101563 28.5 74 28.5 73.800781 28.5 C 73.601563 28.5 73.398438 28.5 73.199219 28.601563 C 72.800781 28.800781 72.601563 29.101563 72.300781 29.5 C 72 30.101563 71.800781 30.800781 71.699219 31.398438 L 71.699219 31.5 C 71.699219 31.800781 71.601563 32.199219 71.601563 32.5 C 71.601563 32.699219 71.601563 32.898438 71.601563 33 L 71.398438 33 C 71.398438 32.800781 71.398438 32.699219 71.300781 32.5 C 71.300781 32.199219 71.300781 31.898438 71.300781 31.5 C 71.398438 30.699219 71.601563 30 71.699219 29.199219 C 71.800781 28.699219 71.800781 28.199219 71.800781 27.699219 C 71.699219 27.300781 71.601563 26.898438 71.398438 26.601563 C 71.101563 26.101563 69.699219 24.300781 69.699219 24.300781 C 69.699219 24.300781 68.800781 26.699219 68.699219 27.300781 C 68.601563 27.699219 68.5 28.199219 68.5 28.601563 C 68.601563 29.101563 68.699219 29.5 68.898438 30 C 69.199219 30.601563 69.601563 31.300781 69.800781 32 C 69.898438 32.300781 70 32.601563 70.101563 32.898438 C 70.101563 33.101563 70.199219 33.199219 70.199219 33.398438 L 70 33.398438 C 70 33.300781 69.898438 33.101563 69.898438 32.898438 C 69.800781 32.601563 69.699219 32.300781 69.601563 32 C 69.601563 32 69.601563 32 69.601563 31.898438 C 69.300781 31.300781 69.101563 30.699219 68.601563 30.300781 C 68.300781 30 68 29.898438 67.601563 29.898438 C 67.199219 29.898438 66.898438 30.101563 66.601563 30.300781 C 66.101563 30.800781 65.800781 31.699219 66 32.5 C 66 32.601563 66.101563 32.699219 66.101563 32.800781 C 66.199219 33.101563 66.5 33.398438 66.699219 33.601563 C 66.898438 33.699219 67.101563 33.800781 67.300781 33.800781 C 67.398438 33.800781 67.5 33.800781 67.5 33.699219 C 67.5 33.601563 67.398438 33.5 67.398438 33.398438 C 67.398438 33.101563 67.398438 32.898438 67.601563 32.699219 C 67.699219 32.5 67.898438 32.398438 68.101563 32.398438 C 68.101563 32.398438 68.101563 32.398438 68.199219 32.398438 C 68.601563 32.398438 68.898438 32.699219 69 33 C 69.101563 33.199219 69.199219 33.398438 69.199219 33.5 L 68.800781 33.601563 C 68.601563 33.699219 68.398438 33.898438 68.5 34.199219 C 68.5 34.398438 68.699219 34.601563 68.898438 34.601563 L 69 34.601563 L 69.398438 34.5 C 69.398438 34.601563 69.398438 34.699219 69.398438 34.898438 C 69.398438 35.101563 69.300781 35.398438 69.199219 35.5 C 69.101563 35.699219 68.898438 35.800781 68.699219 35.800781 C 68.601563 35.800781 68.601563 35.800781 68.5 35.800781 C 68.300781 35.699219 68.300781 35.5 68.199219 35.199219 C 68.199219 35.199219 68.199219 35.199219 68.199219 35.101563 C 68.101563 35.101563 68.101563 35.101563 68.101563 35.199219 C 67.699219 35.601563 67.699219 36.300781 68.101563 36.800781 C 67.699219 37 67.300781 37.199219 66.800781 37.199219 C 66.699219 37.199219 66.699219 37.199219 66.601563 37.199219 C 65 37.199219 63 35.5 62.101563 34.5 C 61.800781 34.800781 61.398438 35.101563 61 35.101563 L 63 45 C 68.898438 42.699219 75 41.5 81.398438 41.5 C 87.898438 41.699219 94.101563 42.898438 99.898438 45.199219 "/>
<path style=" stroke:none;fill-rule:nonzero;fill:rgb(0%,0%,0%);fill-opacity:1;" d="M 81.5 43 C 75.199219 43 69.199219 44.199219 63.398438 46.5 C 63.300781 46.5 63.199219 46.601563 63.101563 46.601563 C 63 46.601563 62.898438 46.699219 62.800781 46.699219 C 62 47.199219 61.601563 48.199219 62 49.199219 C 62.300781 50 63.101563 50.398438 63.800781 50.398438 C 64.101563 50.398438 64.300781 50.398438 64.601563 50.300781 C 70 48.101563 75.699219 47 81.5 47 C 87.398438 47 93.101563 48.101563 98.398438 50.300781 C 98.601563 50.398438 98.898438 50.398438 99.199219 50.398438 C 100 50.398438 100.699219 49.898438 101.101563 49.199219 C 101.5 48.300781 101.101563 47.199219 100.300781 46.699219 C 100.199219 46.601563 100.101563 46.601563 100 46.601563 C 99.898438 46.601563 99.800781 46.5 99.699219 46.5 C 93.898438 44.101563 87.800781 43 81.5 43 "/>
<path style=" stroke:none;fill-rule:nonzero;fill:rgb(0%,0%,0%);fill-opacity:1;" d="M 41.601563 74.800781 C 39.300781 80.101563 38.199219 85.800781 38.199219 91.699219 C 38.199219 97.5 39.300781 103.199219 41.601563 108.601563 C 43.800781 113.800781 46.898438 118.398438 50.898438 122.398438 C 54.898438 126.398438 59.5 129.5 64.699219 131.699219 C 70 134 75.699219 135.101563 81.601563 135.101563 C 87.5 135.101563 93.101563 134 98.5 131.699219 C 103.699219 129.5 108.300781 126.398438 112.300781 122.398438 C 116.300781 118.398438 119.398438 113.800781 121.601563 108.601563 C 123.898438 103.300781 125 97.601563 125 91.699219 C 125 85.898438 123.898438 80.199219 121.601563 74.800781 C 119.398438 69.601563 116.300781 65 112.300781 61 C 108.300781 57 103.699219 53.898438 98.5 51.699219 C 93.199219 49.398438 87.5 48.300781 81.601563 48.300781 C 75.699219 48.300781 70 49.398438 64.601563 51.699219 C 59.398438 53.898438 54.800781 57 50.800781 61 C 46.898438 65 43.699219 69.601563 41.601563 74.800781 M 81.5 49.5 C 104.699219 49.5 123.601563 68.300781 123.601563 91.601563 C 123.601563 114.800781 104.800781 133.699219 81.5 133.699219 C 58.300781 133.699219 39.398438 114.898438 39.398438 91.601563 C 39.398438 88.5 39.699219 85.398438 40.398438 82.5 C 40.398438 82.398438 40.5 82.300781 40.5 82.199219 L 40.5 82.101563 C 40.5 82 40.601563 81.800781 40.601563 81.699219 C 45 63.199219 61.699219 49.5 81.5 49.5 "/>
<path style=" stroke:none;fill-rule:nonzero;fill:rgb(0%,0%,0%);fill-opacity:1;" d="M 79.398438 141.601563 C 79.398438 144.398438 81.601563 146.800781 81.601563 146.800781 C 81.601563 146.800781 83.800781 144.5 83.800781 141.601563 C 83.800781 138.800781 81.601563 136.398438 81.601563 136.398438 C 81.601563 136.398438 79.398438 138.699219 79.398438 141.601563 "/>
<path style=" stroke:none;fill-rule:nonzero;fill:rgb(0%,0%,0%);fill-opacity:1;" d="M 74.300781 137 C 71.800781 138.398438 70.800781 141.398438 70.800781 141.398438 C 70.800781 141.398438 73.898438 142.199219 76.398438 140.800781 C 78.898438 139.398438 79.898438 136.398438 79.898438 136.398438 C 79.898438 136.398438 76.800781 135.601563 74.300781 137 "/>
<path style=" stroke:none;fill-rule:nonzero;fill:rgb(0%,0%,0%);fill-opacity:1;" d="M 73.398438 135.699219 C 73.398438 135.699219 70.5 134.5 67.800781 135.5 C 65.101563 136.5 63.699219 139.300781 63.699219 139.300781 C 63.699219 139.300781 66.601563 140.5 69.300781 139.5 C 71.898438 138.5 73.398438 135.699219 73.398438 135.699219 "/>
<path style=" stroke:none;fill-rule:nonzero;fill:rgb(0%,0%,0%);fill-opacity:1;" d="M 67.101563 134 C 67.101563 134 64.398438 132.398438 61.601563 133 C 58.800781 133.601563 57 136.199219 57 136.199219 C 57 136.199219 59.699219 137.800781 62.5 137.199219 C 65.199219 136.601563 67.101563 134 67.101563 134 "/>
<path style=" stroke:none;fill-rule:nonzero;fill:rgb(0%,0%,0%);fill-opacity:1;" d="M 61.101563 131.5 C 61.101563 131.5 58.699219 129.5 55.800781 129.699219 C 53 129.898438 50.800781 132.199219 50.800781 132.199219 C 50.800781 132.199219 53.199219 134.199219 56.101563 134 C 58.898438 133.800781 61.101563 131.5 61.101563 131.5 "/>
<path style=" stroke:none;fill-rule:nonzero;fill:rgb(0%,0%,0%);fill-opacity:1;" d="M 50.5 125.5 C 47.699219 125.300781 45.199219 127.199219 45.199219 127.199219 C 45.199219 127.199219 47.300781 129.5 50.199219 129.800781 C 53 130 55.5 128.101563 55.5 128.101563 C 55.5 128.101563 53.398438 125.800781 50.5 125.5 "/>
<path style=" stroke:none;fill-rule:nonzero;fill:rgb(0%,0%,0%);fill-opacity:1;" d="M 50.5 123.898438 C 50.5 123.898438 48.699219 121.300781 46 120.601563 C 43.199219 120 40.5 121.5 40.5 121.5 C 40.5 121.5 42.300781 124.101563 45 124.800781 C 47.699219 125.5 50.5 123.898438 50.5 123.898438 "/>
<path style=" stroke:none;fill-rule:nonzero;fill:rgb(0%,0%,0%);fill-opacity:1;" d="M 46.101563 119.101563 C 46.101563 119.101563 44.699219 116.300781 42.101563 115.199219 C 39.5 114.199219 36.5 115.300781 36.5 115.300781 C 36.5 115.300781 37.898438 118.101563 40.5 119.199219 C 43.199219 120.300781 46.101563 119.101563 46.101563 119.101563 "/>
<path style=" stroke:none;fill-rule:nonzero;fill:rgb(0%,0%,0%);fill-opacity:1;" d="M 42.5 113.699219 C 42.5 113.699219 41.601563 110.699219 39.101563 109.300781 C 36.601563 107.898438 33.601563 108.601563 33.601563 108.601563 C 33.601563 108.601563 34.5 111.601563 37 113 C 39.398438 114.398438 42.5 113.699219 42.5 113.699219 "/>
<path style=" stroke:none;fill-rule:nonzero;fill:rgb(0%,0%,0%);fill-opacity:1;" d="M 34.300781 106.300781 C 36.5 108.101563 39.699219 107.800781 39.699219 107.800781 C 39.699219 107.800781 39.199219 104.699219 37 102.898438 C 34.800781 101.101563 31.601563 101.398438 31.601563 101.398438 C 31.601563 101.398438 32.101563 104.601563 34.300781 106.300781 "/>
<path style=" stroke:none;fill-rule:nonzero;fill:rgb(0%,0%,0%);fill-opacity:1;" d="M 37.800781 101.601563 C 37.800781 101.601563 37.800781 98.398438 35.800781 96.398438 C 33.800781 94.300781 30.699219 94.101563 30.699219 94.101563 C 30.699219 94.101563 30.699219 97.300781 32.699219 99.300781 C 34.699219 101.398438 37.800781 101.601563 37.800781 101.601563 "/>
<path style=" stroke:none;fill-rule:nonzero;fill:rgb(0%,0%,0%);fill-opacity:1;" d="M 36.800781 95.101563 C 36.800781 95.101563 37.199219 92 35.601563 89.601563 C 34 87.300781 30.898438 86.601563 30.898438 86.601563 C 30.898438 86.601563 30.5 89.699219 32.101563 92.101563 C 33.699219 94.5 36.800781 95.101563 36.800781 95.101563 "/>
<path style=" stroke:none;fill-rule:nonzero;fill:rgb(0%,0%,0%);fill-opacity:1;" d="M 36.800781 88.601563 C 36.800781 88.601563 37.699219 85.601563 36.398438 83 C 35.101563 80.5 32.101563 79.398438 32.101563 79.398438 C 32.101563 79.398438 31.199219 82.398438 32.5 85 C 33.800781 87.5 36.800781 88.601563 36.800781 88.601563 "/>
<path style=" stroke:none;fill-rule:nonzero;fill:rgb(0%,0%,0%);fill-opacity:1;" d="M 37.699219 82.199219 C 37.699219 82.199219 39 79.300781 38.101563 76.601563 C 37.199219 73.898438 34.398438 72.398438 34.398438 72.398438 C 34.398438 72.398438 33.101563 75.300781 34 78 C 34.898438 80.699219 37.699219 82.199219 37.699219 82.199219 "/>
<path style=" stroke:none;fill-rule:nonzero;fill:rgb(0%,0%,0%);fill-opacity:1;" d="M 39.5 75.898438 C 39.5 75.898438 41.199219 73.199219 40.699219 70.398438 C 40.199219 67.601563 37.699219 65.699219 37.699219 65.699219 C 37.699219 65.699219 36 68.300781 36.5 71.199219 C 37 74 39.5 75.898438 39.5 75.898438 "/>
<path style=" stroke:none;fill-rule:nonzero;fill:rgb(0%,0%,0%);fill-opacity:1;" d="M 42.300781 70 C 42.300781 70 44.398438 67.601563 44.300781 64.800781 C 44.199219 62 42 59.699219 42 59.699219 C 42 59.699219 39.898438 62.101563 40 64.898438 C 40 67.800781 42.300781 70 42.300781 70 "/>
<path style=" stroke:none;fill-rule:nonzero;fill:rgb(0%,0%,0%);fill-opacity:1;" d="M 48.5 59.699219 C 48.800781 56.898438 46.898438 54.300781 46.898438 54.300781 C 46.898438 54.300781 44.5 56.398438 44.199219 59.199219 C 43.898438 62 45.699219 64.601563 45.699219 64.601563 C 45.699219 64.601563 48.199219 62.5 48.5 59.699219 "/>
<path style=" stroke:none;fill-rule:nonzero;fill:rgb(0%,0%,0%);fill-opacity:1;" d="M 53.5 55.199219 C 54.199219 52.398438 52.699219 49.699219 52.699219 49.699219 C 52.699219 49.699219 50 51.398438 49.300781 54.101563 C 48.601563 56.898438 50.101563 59.601563 50.101563 59.601563 C 50.101563 59.601563 52.800781 58 53.5 55.199219 "/>
<path style=" stroke:none;fill-rule:nonzero;fill:rgb(0%,0%,0%);fill-opacity:1;" d="M 59.101563 51.601563 C 60.199219 49 59.101563 46 59.101563 46 C 59.101563 46 56.199219 47.300781 55.101563 49.898438 C 54 52.5 55 55.5 55 55.5 C 55 55.5 58 54.199219 59.101563 51.601563 "/>
<path style=" stroke:none;fill-rule:nonzero;fill:rgb(0%,0%,0%);fill-opacity:1;" d="M 88.699219 137 C 86.199219 135.601563 83.101563 136.398438 83.101563 136.398438 C 83.101563 136.398438 84.101563 139.398438 86.601563 140.800781 C 89.101563 142.199219 92.199219 141.398438 92.199219 141.398438 C 92.199219 141.398438 91.199219 138.300781 88.699219 137 "/>
<path style=" stroke:none;fill-rule:nonzero;fill:rgb(0%,0%,0%);fill-opacity:1;" d="M 95.199219 135.398438 C 92.5 134.398438 89.601563 135.601563 89.601563 135.601563 C 89.601563 135.601563 91 138.398438 93.699219 139.398438 C 96.398438 140.398438 99.300781 139.199219 99.300781 139.199219 C 99.300781 139.199219 97.800781 136.398438 95.199219 135.398438 "/>
<path style=" stroke:none;fill-rule:nonzero;fill:rgb(0%,0%,0%);fill-opacity:1;" d="M 101.398438 133 C 98.601563 132.398438 95.898438 134 95.898438 134 C 95.898438 134 97.699219 136.601563 100.5 137.199219 C 103.300781 137.800781 106 136.199219 106 136.199219 C 106 136.199219 104.199219 133.601563 101.398438 133 "/>
<path style=" stroke:none;fill-rule:nonzero;fill:rgb(0%,0%,0%);fill-opacity:1;" d="M 107.199219 129.699219 C 104.398438 129.5 101.898438 131.5 101.898438 131.5 C 101.898438 131.5 104.101563 133.800781 106.898438 134 C 109.699219 134.199219 112.199219 132.199219 112.199219 132.199219 C 112.199219 132.199219 110 129.800781 107.199219 129.699219 "/>
<path style=" stroke:none;fill-rule:nonzero;fill:rgb(0%,0%,0%);fill-opacity:1;" d="M 112.398438 125.5 C 109.601563 125.699219 107.398438 128.101563 107.398438 128.101563 C 107.398438 128.101563 109.898438 130 112.699219 129.800781 C 115.5 129.601563 117.699219 127.199219 117.699219 127.199219 C 117.699219 127.199219 115.300781 125.300781 112.398438 125.5 "/>
<path style=" stroke:none;fill-rule:nonzero;fill:rgb(0%,0%,0%);fill-opacity:1;" d="M 117 120.699219 C 114.199219 121.300781 112.5 124 112.5 124 C 112.5 124 115.199219 125.601563 118 124.898438 C 120.800781 124.300781 122.5 121.601563 122.5 121.601563 C 122.5 121.601563 119.800781 120 117 120.699219 "/>
<path style=" stroke:none;fill-rule:nonzero;fill:rgb(0%,0%,0%);fill-opacity:1;" d="M 120.800781 115.199219 C 118.101563 116.199219 116.800781 119.101563 116.800781 119.101563 C 116.800781 119.101563 119.699219 120.300781 122.398438 119.199219 C 125.101563 118.199219 126.398438 115.300781 126.398438 115.300781 C 126.398438 115.300781 123.5 114.199219 120.800781 115.199219 "/>
<path style=" stroke:none;fill-rule:nonzero;fill:rgb(0%,0%,0%);fill-opacity:1;" d="M 123.898438 109.300781 C 121.398438 110.699219 120.5 113.699219 120.5 113.699219 C 120.5 113.699219 123.601563 114.398438 126 113 C 128.5 111.601563 129.398438 108.601563 129.398438 108.601563 C 129.398438 108.601563 126.300781 107.800781 123.898438 109.300781 "/>
<path style=" stroke:none;fill-rule:nonzero;fill:rgb(0%,0%,0%);fill-opacity:1;" d="M 126 102.898438 C 123.800781 104.699219 123.300781 107.800781 123.300781 107.800781 C 123.300781 107.800781 126.398438 108.101563 128.699219 106.300781 C 130.898438 104.5 131.398438 101.398438 131.398438 101.398438 C 131.398438 101.398438 128.199219 101.199219 126 102.898438 "/>
<path style=" stroke:none;fill-rule:nonzero;fill:rgb(0%,0%,0%);fill-opacity:1;" d="M 127.101563 96.398438 C 125.101563 98.5 125.101563 101.601563 125.101563 101.601563 C 125.101563 101.601563 128.199219 101.398438 130.199219 99.300781 C 132.199219 97.199219 132.199219 94.101563 132.199219 94.101563 C 132.199219 94.101563 129.101563 94.300781 127.101563 96.398438 "/>
<path style=" stroke:none;fill-rule:nonzero;fill:rgb(0%,0%,0%);fill-opacity:1;" d="M 127.300781 89.699219 C 125.699219 92 126.101563 95.199219 126.101563 95.199219 C 126.101563 95.199219 129.199219 94.601563 130.800781 92.199219 C 132.398438 89.898438 132 86.699219 132 86.699219 C 132 86.699219 129 87.398438 127.300781 89.699219 "/>
<path style=" stroke:none;fill-rule:nonzero;fill:rgb(0%,0%,0%);fill-opacity:1;" d="M 126.601563 83 C 125.300781 85.5 126.199219 88.601563 126.199219 88.601563 C 126.199219 88.601563 129.199219 87.5 130.5 85 C 131.800781 82.5 130.898438 79.398438 130.898438 79.398438 C 130.898438 79.398438 127.898438 80.5 126.601563 83 "/>
<path style=" stroke:none;fill-rule:nonzero;fill:rgb(0%,0%,0%);fill-opacity:1;" d="M 125.199219 82.199219 C 125.199219 82.199219 128 80.699219 128.898438 78 C 129.800781 75.300781 128.5 72.398438 128.5 72.398438 C 128.5 72.398438 125.699219 73.898438 124.800781 76.601563 C 123.898438 79.300781 125.199219 82.199219 125.199219 82.199219 "/>
<path style=" stroke:none;fill-rule:nonzero;fill:rgb(0%,0%,0%);fill-opacity:1;" d="M 123.398438 75.898438 C 123.398438 75.898438 125.898438 74 126.398438 71.199219 C 126.898438 68.398438 125.199219 65.699219 125.199219 65.699219 C 125.199219 65.699219 122.699219 67.601563 122.199219 70.398438 C 121.699219 73.300781 123.398438 75.898438 123.398438 75.898438 "/>
<path style=" stroke:none;fill-rule:nonzero;fill:rgb(0%,0%,0%);fill-opacity:1;" d="M 120.699219 70 C 120.699219 70 122.898438 67.800781 123 64.898438 C 123.101563 62.101563 121 59.699219 121 59.699219 C 121 59.699219 118.800781 61.898438 118.699219 64.800781 C 118.601563 67.601563 120.699219 70 120.699219 70 "/>
<path style=" stroke:none;fill-rule:nonzero;fill:rgb(0%,0%,0%);fill-opacity:1;" d="M 117.101563 64.5 C 117.101563 64.5 119 62 118.601563 59.101563 C 118.300781 56.300781 115.898438 54.199219 115.898438 54.199219 C 115.898438 54.199219 114 56.699219 114.300781 59.601563 C 114.699219 62.5 117.101563 64.5 117.101563 64.5 "/>
<path style=" stroke:none;fill-rule:nonzero;fill:rgb(0%,0%,0%);fill-opacity:1;" d="M 112.800781 59.699219 C 112.800781 59.699219 114.300781 56.898438 113.601563 54.199219 C 112.898438 51.398438 110.199219 49.800781 110.199219 49.800781 C 110.199219 49.800781 108.699219 52.601563 109.398438 55.300781 C 110.199219 58 112.800781 59.699219 112.800781 59.699219 "/>
<path style=" stroke:none;fill-rule:nonzero;fill:rgb(0%,0%,0%);fill-opacity:1;" d="M 103.800781 46 C 103.800781 46 102.699219 49 103.898438 51.601563 C 105 54.199219 107.898438 55.5 107.898438 55.5 C 107.898438 55.5 109 52.5 107.800781 49.898438 C 106.699219 47.199219 103.800781 46 103.800781 46 "/>
<path style=" stroke:none;fill-rule:nonzero;fill:rgb(0%,0%,0%);fill-opacity:1;" d="M 101.101563 106.5 C 100.601563 105.199219 100.101563 103.898438 100.101563 103.898438 C 100.101563 103.898438 98.101563 105.199219 97.101563 105.800781 C 96.101563 106.398438 94.5 107.398438 93.300781 108.800781 C 92.101563 110.199219 91.199219 112.300781 91.199219 112.300781 C 91.199219 112.300781 91.601563 112.300781 92.199219 112.300781 C 92.800781 112.300781 93.601563 112.300781 94.601563 112.5 L 94.699219 112.5 C 94.800781 112.5 95 112.601563 95.101563 112.601563 L 95.300781 112.601563 C 95.300781 112.601563 95 115.898438 92.101563 119 C 91.5 119.699219 90.199219 120.699219 89.398438 121.199219 C 88.898438 121.601563 88.398438 121.800781 87.800781 122.101563 C 87.601563 122.101563 87.398438 122.101563 87.199219 122.101563 C 84.898438 122.101563 83 120.398438 83 118.300781 L 83 104.300781 C 82.398438 104.300781 81.800781 104.398438 81.199219 104.398438 C 80.601563 104.398438 80 104.398438 79.398438 104.300781 L 79.398438 118.300781 C 79.398438 120.398438 77.5 122.101563 75.199219 122.101563 C 75 122.101563 74.800781 122.101563 74.601563 122.101563 C 74.101563 121.800781 73.5 121.601563 73 121.199219 C 72.398438 120.800781 71.5 120.101563 70.898438 119.5 C 70.699219 119.300781 70.5 119.101563 70.300781 118.898438 C 67.5 115.699219 67.101563 112.5 67.101563 112.5 C 67.199219 112.5 67.199219 112.5 67.199219 112.5 L 67.300781 112.5 C 67.398438 112.5 67.601563 112.398438 67.699219 112.398438 L 67.800781 112.398438 C 68.800781 112.199219 69.601563 112.199219 70.199219 112.199219 C 70.898438 112.199219 71.199219 112.199219 71.199219 112.199219 C 71.199219 112.199219 70.300781 110.101563 69.101563 108.699219 C 67.898438 107.300781 66.300781 106.300781 65.300781 105.699219 C 64.300781 105.101563 62.300781 103.800781 62.300781 103.800781 C 62.300781 103.800781 61.800781 105.101563 61.300781 106.398438 C 60.800781 107.699219 60 108.898438 59.699219 111.300781 C 59.398438 113.699219 59.898438 115.601563 59.898438 115.601563 C 59.898438 115.601563 61.199219 114.699219 63.199219 113.800781 C 63.199219 113.800781 63.300781 113.800781 63.300781 113.699219 C 63.300781 113.699219 63.398438 113.699219 63.398438 113.601563 L 63.800781 113.601563 C 63.800781 113.601563 63.800781 113.601563 63.898438 113.601563 C 64 114.101563 64.898438 118.898438 67.199219 121.699219 L 67.300781 121.800781 C 67.5 122 67.699219 122.300781 68 122.5 C 68.800781 123.199219 70.101563 124.300781 71.699219 125.398438 C 73.5 126.699219 75.699219 128 77.300781 129.199219 C 79.601563 130.898438 80.800781 132.199219 80.800781 132.199219 C 80.800781 132.199219 82 130.898438 84.300781 129.199219 C 85.898438 128 88.101563 126.601563 90 125.398438 C 91.601563 124.300781 92.898438 123.199219 93.699219 122.5 C 93.800781 122.398438 93.898438 122.300781 94 122.300781 C 94.199219 122.101563 94.300781 122 94.5 121.800781 C 94.601563 121.699219 94.601563 121.601563 94.699219 121.5 C 94.898438 121.300781 95 121 95.199219 120.699219 C 95.300781 120.5 95.398438 120.398438 95.5 120.199219 C 95.800781 119.699219 96.101563 119.101563 96.300781 118.5 C 96.300781 118.5 96.300781 118.5 96.300781 118.398438 C 96.601563 117.699219 96.800781 117 97 116.398438 C 97.199219 115.800781 97.300781 115.300781 97.398438 114.800781 C 97.5 114.199219 97.601563 113.800781 97.601563 113.699219 L 98 113.699219 C 98 113.699219 98.101563 113.699219 98.101563 113.800781 L 98.199219 113.800781 C 100.199219 114.699219 101.5 115.601563 101.5 115.601563 C 101.5 115.601563 102.101563 113.699219 101.699219 111.300781 C 102.398438 109 101.601563 107.800781 101.101563 106.5 M 64.601563 113.5 C 64.699219 113.5 64.699219 113.5 64.601563 113.5 C 64.699219 113.5 64.601563 113.5 64.601563 113.5 M 64.800781 113.398438 L 64.800781 113.398438 M 67.101563 112.699219 L 67.101563 112.699219 M 95.800781 112.699219 C 95.898438 112.699219 95.898438 112.699219 95.800781 112.699219 M 98.101563 113.398438 C 98.199219 113.398438 98.199219 113.398438 98.101563 113.398438 C 98.199219 113.398438 98.199219 113.398438 98.199219 113.398438 L 98.101563 113.398438 M 98.300781 113.5 C 98.300781 113.5 98.398438 113.5 98.300781 113.5 "/>
<path style=" stroke:none;fill-rule:nonzero;fill:rgb(0%,0%,0%);fill-opacity:1;" d="M 79.699219 69.800781 L 79.699219 77.699219 C 80.300781 78 80.898438 78.300781 81.5 78.601563 C 82.101563 78.300781 82.699219 78 83.300781 77.699219 L 83.300781 69.800781 L 88.300781 69.800781 L 101.601563 67.699219 L 101.601563 64.601563 L 83.300781 64.601563 L 83.300781 63.601563 C 85.800781 62.800781 87.601563 60.5 87.601563 57.699219 C 87.601563 54.300781 84.800781 51.601563 81.5 51.601563 C 78.101563 51.601563 75.398438 54.300781 75.398438 57.699219 C 75.398438 60.5 77.199219 62.800781 79.699219 63.601563 L 79.699219 64.601563 L 61.398438 64.601563 L 61.398438 67.699219 L 74.699219 69.800781 Z M 78.800781 60.398438 C 78.101563 59.699219 77.699219 58.800781 77.699219 57.800781 C 77.699219 56.800781 78.101563 55.898438 78.800781 55.199219 C 79.5 54.5 80.398438 54.101563 81.398438 54.101563 C 82.398438 54.101563 83.300781 54.5 84 55.199219 C 84.699219 55.898438 85.101563 56.800781 85.101563 57.800781 C 85.101563 58.800781 84.699219 59.699219 84 60.398438 C 83.800781 60.601563 83.5 60.898438 83.199219 61 C 83.199219 60 82.398438 59.199219 81.398438 59.199219 C 80.398438 59.199219 79.601563 60 79.601563 61 L 79.601563 61.101563 C 79.398438 60.898438 79.101563 60.699219 78.800781 60.398438 "/>
<path style=" stroke:none;fill-rule:nonzero;fill:rgb(0%,0%,0%);fill-opacity:1;" d="M 82.898438 79.300781 C 83 79.398438 83.199219 79.398438 83.300781 79.5 C 84.800781 80.300781 86.300781 81 87.699219 81.800781 C 88.898438 81.199219 90.300781 80.5 91.898438 80 C 98.601563 76.300781 103.898438 73.398438 104.300781 73.199219 C 105.601563 72.5 107.398438 71.300781 108.601563 70.300781 C 109.199219 69.800781 109.898438 69.101563 110.5 68.5 C 111.101563 67.898438 111.601563 67.300781 111.601563 67.300781 L 112.300781 66.5 L 111.300781 66.601563 C 111.300781 66.601563 110.5 66.699219 109.699219 66.800781 C 108.898438 66.898438 107.800781 67.199219 107.199219 67.398438 C 105.800781 67.898438 103.699219 68.699219 102.398438 69.398438 C 101.800781 69.699219 93.199219 74.101563 83.398438 79.101563 C 83.199219 79.199219 83 79.300781 82.898438 79.300781 "/>
<path style=" stroke:none;fill-rule:nonzero;fill:rgb(0%,0%,0%);fill-opacity:1;" d="M 61.898438 102.101563 C 62.199219 102.101563 62.601563 102 62.898438 101.898438 C 63.398438 101.601563 63.699219 101.199219 63.898438 100.699219 C 64.101563 100.199219 64 99.601563 63.800781 99.101563 C 63.398438 98.398438 62.800781 98 62 98 C 61.800781 98 61.601563 98 61.5 98.101563 L 61.101563 97.300781 L 61 97.101563 C 62.101563 96.5 65.300781 94.699219 69.398438 92.5 C 68 92.300781 66.699219 92.101563 65.398438 91.601563 C 64.101563 91.199219 63 90.699219 62 90.101563 L 58.699219 91.800781 C 58.5 91.898438 58.398438 92 58.300781 92 L 57.800781 91.101563 C 58.101563 90.898438 58.300781 90.5 58.398438 90.199219 C 58.601563 89.699219 58.5 89.101563 58.199219 88.601563 C 57.800781 87.898438 57.101563 87.5 56.398438 87.5 C 56.101563 87.5 55.699219 87.601563 55.398438 87.699219 C 54.898438 88 54.601563 88.398438 54.398438 88.898438 C 54.199219 89.398438 54.300781 90 54.5 90.5 L 56.101563 93.398438 C 56 93.398438 56 93.398438 55.898438 93.398438 C 55.699219 93.398438 55.5 93.5 55.300781 93.601563 C 55.101563 93.699219 55 93.800781 54.800781 94 C 54.800781 94 54.699219 94.101563 54.699219 94.199219 C 54.601563 94.199219 54.5 94.199219 54.5 94.199219 C 54.300781 94.199219 54.101563 94.300781 54 94.398438 C 53.800781 94.5 53.699219 94.601563 53.5 94.800781 C 53.5 94.898438 53.398438 94.898438 53.398438 95 C 53.300781 95 53.199219 95 53.199219 95 C 53 95 52.800781 95.101563 52.601563 95.199219 C 52.398438 95.300781 52.300781 95.398438 52.101563 95.601563 C 52.101563 95.699219 52 95.699219 52 95.800781 C 51.898438 95.800781 51.800781 95.800781 51.800781 95.800781 C 51.601563 95.800781 51.398438 95.898438 51.300781 96 C 51.101563 96.101563 50.898438 96.199219 50.800781 96.398438 L 50.699219 96.5 C 50.601563 96.5 50.5 96.5 50.398438 96.5 C 50.199219 96.5 50 96.601563 49.898438 96.699219 C 49.699219 96.800781 49.601563 96.898438 49.398438 97.101563 C 49.398438 97.199219 49.300781 97.199219 49.300781 97.199219 C 49.199219 97.199219 49.101563 97.199219 49 97.199219 C 48.800781 97.199219 48.601563 97.300781 48.5 97.398438 C 48.300781 97.5 48.199219 97.601563 48 97.800781 C 48 97.898438 47.898438 97.898438 47.898438 97.898438 C 47.800781 97.898438 47.699219 97.898438 47.601563 97.898438 C 47.398438 97.898438 47.199219 98 47.101563 98.101563 C 46.898438 98.199219 46.800781 98.300781 46.601563 98.5 L 46.5 98.601563 C 46.398438 98.601563 46.300781 98.601563 46.199219 98.601563 C 46 98.699219 45.800781 98.699219 45.699219 98.800781 C 45.601563 98.898438 45.398438 99 45.300781 99.101563 C 45.300781 99.101563 45.199219 99.101563 45.101563 99.101563 L 45 99.101563 C 44.300781 99.101563 43.601563 99.5 43.101563 100 C 42.601563 100.5 42.398438 101.199219 42.398438 102 C 42.5 103.5 43.699219 104.601563 45.101563 104.601563 C 45.199219 104.601563 45.199219 104.601563 45.300781 104.601563 C 46.199219 104.601563 47 104.101563 47.5 103.300781 C 47.699219 103.199219 47.800781 103.101563 47.898438 102.898438 L 48 102.898438 C 48.101563 102.898438 48.101563 102.898438 48.199219 102.898438 C 48.300781 102.898438 48.5 102.800781 48.601563 102.800781 C 48.699219 102.800781 48.800781 102.699219 48.898438 102.699219 C 49.101563 102.601563 49.199219 102.5 49.300781 102.300781 L 49.398438 102.300781 C 49.5 102.300781 49.5 102.300781 49.601563 102.300781 C 49.699219 102.300781 49.898438 102.199219 50 102.199219 C 50.101563 102.199219 50.199219 102.101563 50.300781 102 C 50.5 101.898438 50.601563 101.800781 50.699219 101.601563 L 50.800781 101.601563 C 50.898438 101.601563 50.898438 101.601563 51 101.601563 C 51.101563 101.601563 51.300781 101.5 51.398438 101.5 C 51.5 101.5 51.601563 101.398438 51.699219 101.300781 C 51.898438 101.199219 52 101.101563 52.101563 100.898438 L 52.199219 100.898438 C 52.300781 100.898438 52.300781 100.898438 52.398438 100.898438 C 52.5 100.898438 52.699219 100.800781 52.800781 100.800781 C 52.898438 100.800781 53 100.699219 53.101563 100.699219 C 53.300781 100.601563 53.398438 100.5 53.5 100.300781 L 53.601563 100.300781 C 53.699219 100.300781 53.699219 100.300781 53.800781 100.300781 C 53.898438 100.300781 54.101563 100.199219 54.199219 100.199219 C 54.300781 100.199219 54.398438 100.101563 54.5 100 C 54.699219 99.898438 54.800781 99.800781 54.898438 99.601563 C 54.898438 99.601563 54.898438 99.601563 55 99.601563 C 55.101563 99.601563 55.101563 99.601563 55.199219 99.601563 C 55.300781 99.601563 55.5 99.5 55.601563 99.5 C 55.699219 99.5 55.800781 99.398438 55.898438 99.398438 C 56.101563 99.300781 56.199219 99.101563 56.300781 99 L 56.398438 99 C 56.5 99 56.5 99 56.601563 99 C 56.699219 99 56.898438 98.898438 57 98.898438 C 57.101563 98.898438 57.199219 98.800781 57.300781 98.800781 C 57.5 98.699219 57.601563 98.601563 57.699219 98.398438 L 57.800781 98.398438 C 57.898438 98.398438 57.898438 98.398438 58 98.398438 C 58.101563 98.398438 58.300781 98.300781 58.398438 98.300781 C 58.5 98.300781 58.5 98.300781 58.5 98.199219 L 59.199219 99.5 L 60 101 C 60.398438 101.699219 61.101563 102.101563 61.898438 102.101563 "/>
<path style=" stroke:none;fill-rule:nonzero;fill:rgb(0%,0%,0%);fill-opacity:1;" d="M 52.398438 68.5 C 53 69.101563 53.800781 69.800781 54.300781 70.300781 C 55.5 71.199219 57.300781 72.5 58.601563 73.199219 C 59 73.398438 63.300781 75.800781 69.101563 79 C 71.898438 79.5 74.398438 80.300781 76.398438 81.300781 C 76.601563 81.398438 76.898438 81.5 77.101563 81.699219 C 77.300781 81.800781 77.5 81.898438 77.800781 82.101563 C 78.5 82.5 79.101563 82.898438 79.601563 83.300781 C 80.101563 83.699219 80.5 84.101563 80.800781 84.5 C 81.101563 84.398438 81.5 84.398438 81.800781 84.398438 C 82.300781 84.398438 82.800781 84.5 83.101563 84.601563 C 83.699219 84.199219 84.800781 83.5 86.199219 82.800781 C 85.199219 82.300781 84.199219 81.699219 83.101563 81.199219 C 82.5 80.898438 81.898438 80.601563 81.300781 80.300781 C 81.101563 80.199219 80.800781 80.101563 80.601563 79.898438 C 80.398438 79.800781 80.101563 79.699219 79.898438 79.5 C 79.800781 79.398438 79.601563 79.300781 79.5 79.300781 C 69.800781 74.300781 61.101563 69.898438 60.5 69.5 C 59.199219 68.800781 57.199219 68 55.699219 67.5 C 55 67.300781 54 67 53.199219 66.898438 C 52.300781 66.800781 51.601563 66.699219 51.601563 66.699219 L 50.601563 66.601563 L 51.199219 67.398438 C 51.398438 67.300781 51.800781 67.898438 52.398438 68.5 "/>
<path style=" stroke:none;fill-rule:nonzero;fill:rgb(0%,0%,0%);fill-opacity:1;" d="M 118 99.601563 L 117.898438 99.601563 C 117.800781 99.601563 117.800781 99.601563 117.699219 99.601563 C 117.601563 99.5 117.398438 99.398438 117.300781 99.300781 C 117.199219 99.199219 117 99.101563 116.800781 99.101563 C 116.699219 99.101563 116.601563 99.101563 116.5 99.101563 C 116.5 99 116.398438 99 116.398438 99 C 116.300781 98.800781 116.101563 98.699219 115.898438 98.601563 C 115.699219 98.5 115.5 98.398438 115.398438 98.398438 C 115.300781 98.398438 115.199219 98.398438 115.101563 98.398438 L 115 98.300781 C 114.898438 98.101563 114.699219 98 114.5 97.898438 C 114.300781 97.800781 114.101563 97.699219 114 97.699219 C 113.898438 97.699219 113.800781 97.699219 113.699219 97.699219 C 113.699219 97.601563 113.601563 97.601563 113.601563 97.601563 C 113.5 97.398438 113.300781 97.300781 113.101563 97.199219 C 112.898438 97.101563 112.699219 97 112.5 97 C 112.398438 97 112.300781 97 112.300781 97 C 112.300781 96.898438 112.199219 96.898438 112.199219 96.898438 C 112.101563 96.699219 111.898438 96.601563 111.699219 96.5 C 111.5 96.398438 111.300781 96.300781 111.101563 96.300781 C 111 96.300781 110.898438 96.300781 110.898438 96.300781 L 110.800781 96.199219 C 110.699219 96 110.5 95.898438 110.300781 95.800781 C 110.101563 95.699219 109.898438 95.601563 109.699219 95.601563 C 109.601563 95.601563 109.5 95.601563 109.5 95.601563 C 109.5 95.5 109.398438 95.5 109.398438 95.398438 C 109.300781 95.199219 109.101563 95.101563 108.898438 95 C 108.699219 94.898438 108.5 94.800781 108.398438 94.800781 C 108.300781 94.800781 108.199219 94.800781 108.199219 94.800781 C 108.199219 94.699219 108.101563 94.699219 108.101563 94.601563 C 108 94.398438 107.800781 94.300781 107.601563 94.199219 C 107.398438 94.101563 107.199219 94 107 94 C 106.898438 94 106.898438 94 106.800781 94 L 108.398438 91.101563 C 108.699219 90.601563 108.699219 90.101563 108.5 89.5 C 108.300781 89 108 88.601563 107.5 88.300781 C 107.199219 88.101563 106.898438 88.101563 106.5 88.101563 C 105.699219 88.101563 105 88.5 104.699219 89.199219 C 104.398438 89.699219 104.398438 90.199219 104.601563 90.800781 C 104.699219 91.199219 104.898438 91.5 105.199219 91.699219 L 104.699219 92.601563 C 104.601563 92.5 104.398438 92.5 104.300781 92.398438 L 99.898438 90.101563 C 98.898438 90.800781 97.800781 91.398438 96 91.898438 C 96 92 96.101563 92.199219 96.101563 92.300781 C 96.101563 92.800781 96 93.398438 95.5 94 C 98.699219 95.800781 101.199219 97.101563 102.101563 97.601563 L 101.898438 97.898438 L 101.5 98.5 C 101.300781 98.5 101.199219 98.398438 101 98.398438 C 100.199219 98.398438 99.5 98.800781 99.199219 99.5 C 98.898438 100 98.898438 100.5 99 101.101563 C 99.199219 101.601563 99.5 102 100 102.300781 C 100.300781 102.5 100.601563 102.5 101 102.5 C 101.800781 102.5 102.5 102.101563 102.800781 101.398438 L 103.5 100 L 104.199219 98.699219 L 104.300781 98.800781 C 104.5 98.898438 104.601563 98.898438 104.699219 98.898438 C 104.800781 98.898438 104.800781 98.898438 104.898438 98.898438 L 105 98.898438 C 105.101563 99.101563 105.300781 99.199219 105.398438 99.300781 C 105.5 99.398438 105.601563 99.398438 105.699219 99.398438 C 105.898438 99.5 106 99.5 106.101563 99.5 C 106.199219 99.5 106.199219 99.5 106.300781 99.5 L 106.398438 99.5 C 106.5 99.699219 106.699219 99.800781 106.800781 99.898438 C 106.898438 99.898438 107 100 107.101563 100 C 107.199219 100.101563 107.398438 100.101563 107.5 100.101563 C 107.601563 100.101563 107.601563 100.101563 107.699219 100.101563 C 107.699219 100.101563 107.699219 100.101563 107.800781 100.101563 C 107.898438 100.300781 108.101563 100.398438 108.199219 100.5 C 108.300781 100.601563 108.398438 100.601563 108.5 100.601563 C 108.601563 100.699219 108.800781 100.699219 108.898438 100.699219 C 109 100.699219 109 100.699219 109.101563 100.699219 L 109.199219 100.699219 C 109.300781 100.898438 109.5 101 109.601563 101.101563 C 109.699219 101.199219 109.800781 101.199219 109.898438 101.199219 C 110 101.300781 110.199219 101.300781 110.300781 101.300781 C 110.398438 101.300781 110.398438 101.300781 110.5 101.300781 L 110.601563 101.300781 C 110.699219 101.5 110.800781 101.601563 111 101.699219 C 111.101563 101.800781 111.199219 101.800781 111.300781 101.898438 C 111.398438 102 111.601563 102 111.699219 102 C 111.800781 102 111.800781 102 111.898438 102 L 112 102 C 112.101563 102.199219 112.199219 102.300781 112.398438 102.398438 C 112.5 102.5 112.601563 102.5 112.699219 102.601563 C 112.800781 102.699219 113 102.699219 113.101563 102.699219 C 113.199219 102.699219 113.199219 102.699219 113.300781 102.699219 L 113.398438 102.699219 C 113.5 102.898438 113.601563 103 113.800781 103.101563 C 113.898438 103.199219 114 103.199219 114.101563 103.199219 C 114.199219 103.300781 114.398438 103.300781 114.5 103.300781 C 114.601563 103.300781 114.699219 103.300781 114.699219 103.300781 L 114.800781 103.300781 C 114.898438 103.5 115.101563 103.601563 115.199219 103.699219 C 115.699219 104.398438 116.5 104.898438 117.398438 105 L 117.5 105 C 118.898438 105 120.101563 103.898438 120.199219 102.398438 C 120.199219 101.699219 120 101 119.5 100.398438 C 119.398438 99.898438 118.699219 99.601563 118 99.601563 "/>
<path style=" stroke:none;fill-rule:nonzero;fill:rgb(0%,0%,0%);fill-opacity:1;" d="M 61.898438 88.699219 C 62.101563 88.800781 62.300781 88.898438 62.601563 89.101563 C 62.800781 89.199219 63.101563 89.300781 63.300781 89.5 C 64 89.898438 64.800781 90.199219 65.699219 90.5 C 67.699219 91.199219 69.699219 91.398438 71.300781 91.398438 C 71.5 91.398438 71.699219 91.398438 71.800781 91.398438 C 72.101563 91.398438 72.300781 91.398438 72.601563 91.398438 C 73.199219 91.398438 73.699219 91.300781 74.101563 91.300781 C 74.601563 91.199219 74.898438 91.199219 74.898438 91.199219 L 75.5 94 L 71.300781 99.699219 C 71.300781 99.699219 73 102.699219 79.699219 103.199219 C 80.300781 103.199219 80.898438 103.300781 81.5 103.300781 C 82.101563 103.300781 82.800781 103.300781 83.300781 103.199219 C 90 102.699219 91.398438 99.699219 91.398438 99.699219 L 86.101563 95 L 87.101563 92.5 C 86.898438 92.5 86.699219 92.398438 86.5 92.398438 C 85.898438 92.398438 85.398438 92.5 85.101563 92.601563 C 85 92.601563 84.898438 92.601563 84.800781 92.601563 L 84.601563 92.601563 L 84.199219 92.5 C 84.300781 92.5 84.398438 92.398438 84.601563 92.300781 C 84.800781 92.199219 85 92.101563 85.300781 91.898438 C 85.898438 91.601563 86.699219 91.300781 87.199219 91.398438 C 87.300781 91.398438 87.398438 91.5 87.601563 91.5 C 87.898438 91.601563 88.199219 91.699219 88.5 91.800781 C 88.898438 91.898438 89.199219 92.101563 89.800781 92.199219 C 89.898438 92.199219 89.898438 92.199219 90 92.199219 C 90.398438 92.300781 90.699219 92.300781 90.800781 92.300781 C 91.101563 92.300781 91.199219 92.199219 92 92.199219 C 92.101563 92.199219 92.199219 92.199219 92.398438 92.199219 C 94.101563 92.300781 94 93.101563 94 93.101563 C 94.101563 93 94.300781 92.898438 94.398438 92.800781 C 94.898438 92.300781 95 91.898438 94.898438 91.5 C 94.800781 91.300781 94.699219 91.101563 94.5 90.898438 C 94.300781 90.699219 94.101563 90.5 93.898438 90.398438 C 93.699219 90.199219 93.5 90.199219 93.5 90.199219 C 93.898438 89.101563 90.601563 88.601563 89.199219 88.199219 C 88.300781 88 86.300781 87.101563 84.800781 86.398438 C 84.300781 86.199219 83.898438 86 83.601563 85.800781 L 83.5 85.800781 C 83.300781 85.699219 83.199219 85.699219 83.199219 85.601563 C 83.101563 85.601563 83 85.5 82.898438 85.5 C 82.601563 85.398438 82.300781 85.300781 81.898438 85.300781 C 81.601563 85.300781 81.398438 85.300781 81.101563 85.398438 C 80.699219 85.5 80.300781 85.601563 80.300781 85.601563 C 80.300781 85.601563 80.101563 85.199219 79.601563 84.699219 C 79.5 84.601563 79.398438 84.5 79.300781 84.398438 C 78.699219 83.800781 77.800781 83.199219 76.398438 82.5 C 76.199219 82.398438 75.898438 82.300781 75.699219 82.199219 C 75.5 82.101563 75.199219 82 75 81.898438 C 74.601563 81.699219 74.101563 81.5 73.601563 81.398438 C 72.800781 81.101563 71.800781 80.800781 70.800781 80.601563 C 70.101563 80.398438 69.398438 80.300781 68.601563 80.101563 C 67 79.800781 65.101563 79.5 63 79.398438 C 61.101563 79.300781 59.300781 79.199219 57.601563 79.199219 C 46.601563 79.199219 41.101563 82 41.101563 82 C 41.101563 82 46.5 82.800781 52.300781 84.300781 C 57 85.398438 59.300781 87.199219 61.898438 88.699219 "/>
<path style=" stroke:none;fill-rule:nonzero;fill:rgb(0%,0%,0%);fill-opacity:1;" d="M 100.898438 79.199219 C 97.898438 79.398438 95 80.199219 92.398438 81.199219 C 91.199219 81.601563 90.101563 82.101563 89.101563 82.601563 C 88.898438 82.699219 88.601563 82.800781 88.398438 82.898438 C 88.199219 83 87.898438 83.101563 87.699219 83.300781 C 85.898438 84.300781 84.5 85.101563 83.898438 85.5 L 84.199219 85.601563 C 84.199219 85.601563 84.199219 85.601563 84.300781 85.601563 C 84.800781 85.800781 88.300781 86.898438 89.601563 87.199219 C 89.800781 87.199219 90 87.300781 90.199219 87.300781 C 92.300781 87.699219 94 88.199219 94.601563 89.199219 C 94.699219 89.300781 94.699219 89.398438 94.699219 89.601563 C 94.898438 89.800781 95.199219 90 95.398438 90.199219 C 96.800781 89.898438 97.898438 89.398438 98.699219 88.898438 C 98.898438 88.800781 99.101563 88.601563 99.300781 88.5 C 99.5 88.398438 99.699219 88.199219 99.898438 88.101563 C 101.101563 87.199219 102.199219 86.101563 104.398438 85.300781 C 110.898438 82.699219 121.699219 81.398438 121.699219 81.398438 C 121.699219 81.398438 112 79.199219 103.5 79.199219 C 102.601563 79.101563 101.800781 79.101563 100.898438 79.199219 "/>
<path style=" stroke:none;fill-rule:nonzero;fill:rgb(0%,0%,0%);fill-opacity:1;" d="M 83.601563 4 C 83.601563 4.398438 83.5 4.699219 83.300781 5 C 84.101563 5.398438 84.898438 5.898438 85.5 6.398438 L 85.5 1.5 C 84.898438 2 84.101563 2.601563 83.300781 2.898438 C 83.5 3.300781 83.601563 3.601563 83.601563 4 "/>
<path style=" stroke:none;fill-rule:nonzero;fill:rgb(0%,0%,0%);fill-opacity:1;" d="M 81.5 2 C 81.898438 2 82.199219 2.101563 82.5 2.300781 C 82.898438 1.398438 83.5 0.601563 84 0 L 79.101563 0 C 79.601563 0.601563 80.199219 1.398438 80.5 2.199219 C 80.800781 2.101563 81.199219 2 81.5 2 "/>
<path style=" stroke:none;fill-rule:nonzero;fill:rgb(0%,0%,0%);fill-opacity:1;" d="M 79.5 4 C 79.5 3.601563 79.601563 3.300781 79.800781 3 C 79 2.699219 78.199219 2.101563 77.601563 1.601563 L 77.601563 6.5 C 78.199219 5.898438 79 5.398438 79.800781 5 C 79.601563 4.699219 79.5 4.398438 79.5 4 "/>
<path style=" stroke:none;fill-rule:nonzero;fill:rgb(0%,0%,0%);fill-opacity:1;" d="M 84 8 C 83.5 7.398438 82.898438 6.601563 82.601563 5.800781 C 82.300781 6 81.898438 6.101563 81.601563 6.101563 C 81.199219 6.101563 80.898438 6 80.601563 5.800781 C 80.199219 6.601563 79.699219 7.398438 79.199219 8 L 84 8 "/>
<path style=" stroke:none;fill-rule:nonzero;fill:rgb(0%,0%,0%);fill-opacity:1;" d="M 80.699219 5.300781 C 80.898438 5.5 81.199219 5.601563 81.601563 5.601563 C 81.898438 5.601563 82.199219 5.5 82.5 5.300781 C 82.699219 5.199219 82.800781 5 82.898438 4.898438 C 83 4.601563 83.101563 4.300781 83.101563 4 C 83.101563 3.699219 83 3.398438 82.800781 3.101563 C 82.699219 2.898438 82.5 2.800781 82.398438 2.699219 C 82.199219 2.5 81.898438 2.398438 81.5 2.398438 C 81.199219 2.398438 80.898438 2.5 80.601563 2.699219 C 80.398438 2.800781 80.300781 3 80.199219 3.101563 C 80.101563 3.398438 80 3.699219 80 4 C 80 4.300781 80.101563 4.601563 80.300781 4.898438 C 80.398438 5 80.5 5.199219 80.699219 5.300781 "/>
<path style=" stroke:none;fill-rule:nonzero;fill:rgb(0%,0%,0%);fill-opacity:1;" d="M 80.699219 17.601563 C 80.898438 17.800781 81.199219 17.898438 81.601563 17.898438 C 81.898438 17.898438 82.199219 17.800781 82.5 17.601563 C 82.699219 17.5 82.800781 17.300781 82.898438 17.199219 C 83.101563 17 83.199219 16.699219 83.199219 16.300781 C 83.199219 16 83.101563 15.699219 82.898438 15.398438 C 82.800781 15.199219 82.601563 15.101563 82.5 15 C 82.300781 14.800781 82 14.699219 81.601563 14.699219 C 81.300781 14.699219 81 14.800781 80.699219 15 C 80.5 15.101563 80.398438 15.300781 80.300781 15.398438 C 80.101563 15.699219 80 16 80 16.398438 C 80 16.699219 80.101563 17 80.300781 17.300781 C 80.398438 17.398438 80.5 17.5 80.699219 17.601563 "/>
<path style=" stroke:none;fill-rule:nonzero;fill:rgb(0%,0%,0%);fill-opacity:1;" d="M 80.699219 20.898438 C 80.898438 21.101563 81.199219 21.199219 81.601563 21.199219 C 81.898438 21.199219 82.199219 21.101563 82.5 20.898438 C 82.699219 20.800781 82.800781 20.601563 82.898438 20.5 C 83.101563 20.300781 83.199219 20 83.199219 19.601563 C 83.199219 19.300781 83.101563 19 82.898438 18.699219 C 82.800781 18.5 82.601563 18.398438 82.5 18.300781 C 82.300781 18.101563 82 18 81.601563 18 C 81.300781 18 81 18.101563 80.699219 18.300781 C 80.5 18.398438 80.398438 18.601563 80.300781 18.699219 C 80.101563 19 80 19.300781 80 19.601563 C 80 19.898438 80.101563 20.199219 80.300781 20.5 C 80.398438 20.601563 80.5 20.800781 80.699219 20.898438 "/>
<path style=" stroke:none;fill-rule:nonzero;fill:rgb(0%,0%,0%);fill-opacity:1;" d="M 80.699219 24.101563 C 80.898438 24.300781 81.199219 24.398438 81.601563 24.398438 C 81.898438 24.398438 82.199219 24.300781 82.5 24.101563 C 82.699219 24 82.800781 23.898438 82.898438 23.699219 C 83.101563 23.5 83.199219 23.199219 83.199219 22.800781 C 83.199219 22.5 83.101563 22.199219 82.898438 22 C 82.800781 21.800781 82.601563 21.699219 82.5 21.601563 C 82.300781 21.398438 82 21.300781 81.601563 21.300781 C 81.300781 21.300781 81 21.398438 80.699219 21.601563 C 80.5 21.699219 80.398438 21.800781 80.300781 22 C 80.101563 22.199219 80 22.5 80 22.800781 C 80 23.101563 80.101563 23.398438 80.300781 23.699219 C 80.398438 23.898438 80.5 24 80.699219 24.101563 "/>
<path style=" stroke:none;fill-rule:nonzero;fill:rgb(0%,0%,0%);fill-opacity:1;" d="M 59.898438 34.398438 C 60.101563 34.601563 60.398438 34.699219 60.800781 34.699219 C 61.101563 34.699219 61.398438 34.601563 61.699219 34.398438 C 61.898438 34.300781 62 34.101563 62.101563 34 C 62.300781 33.800781 62.398438 33.5 62.398438 33.101563 C 62.398438 32.800781 62.300781 32.5 62.101563 32.199219 C 62 32 61.800781 31.898438 61.699219 31.800781 C 61.5 31.601563 61.199219 31.5 60.800781 31.5 C 60.5 31.5 60.199219 31.601563 59.898438 31.800781 C 59.699219 31.898438 59.601563 32.101563 59.5 32.199219 C 59.300781 32.398438 59.199219 32.699219 59.199219 33.101563 C 59.199219 33.398438 59.300781 33.699219 59.5 34 C 59.601563 34.199219 59.699219 34.300781 59.898438 34.398438 "/>
<path style=" stroke:none;fill-rule:nonzero;fill:rgb(0%,0%,0%);fill-opacity:1;" d="M 80.699219 30.898438 C 80.898438 31.101563 81.199219 31.199219 81.601563 31.199219 C 81.898438 31.199219 82.199219 31.101563 82.5 30.898438 C 82.699219 30.800781 82.800781 30.601563 82.898438 30.5 C 83.101563 30.300781 83.199219 30 83.199219 29.601563 C 83.199219 29.300781 83.101563 29 82.898438 28.699219 C 82.800781 28.5 82.601563 28.398438 82.5 28.300781 C 82.199219 28.101563 82 28 81.601563 28 C 81.300781 28 81 28.101563 80.699219 28.300781 C 80.5 28.398438 80.398438 28.601563 80.300781 28.699219 C 80.101563 29 80 29.300781 80 29.601563 C 80 29.898438 80.101563 30.199219 80.300781 30.5 C 80.398438 30.601563 80.5 30.699219 80.699219 30.898438 "/>
<path style=" stroke:none;fill-rule:nonzero;fill:rgb(0%,0%,0%);fill-opacity:1;" d="M 81.5 14.699219 C 83.300781 14.699219 84.800781 13.199219 84.800781 11.398438 C 84.800781 9.601563 83.300781 8.101563 81.5 8.101563 C 79.699219 8.101563 78.199219 9.601563 78.199219 11.398438 C 78.199219 13.199219 79.699219 14.699219 81.5 14.699219 "/>
<path style=" stroke:none;fill-rule:nonzero;fill:rgb(0%,0%,0%);fill-opacity:1;" d="M 59.898438 27.5 C 59.101563 25 56 19.300781 60.5 15.300781 C 62 14 64.199219 13.199219 66 13.199219 C 67.300781 13.199219 69.101563 13.601563 70.800781 14.199219 C 73.800781 15.199219 75.699219 15.800781 79.199219 15.800781 L 79.199219 17.398438 C 75.398438 17.398438 73.398438 16.800781 70.300781 15.699219 C 68.898438 15.199219 67.300781 14.800781 66.199219 14.800781 C 64.398438 14.800781 62.800781 15.398438 61.601563 16.5 C 58.699219 19 59.699219 22.398438 61 25.800781 C 61.199219 26.199219 61.300781 26.601563 61.398438 27 L 59.898438 27.5 "/>
<path style=" stroke:none;fill-rule:nonzero;fill:rgb(0%,0%,0%);fill-opacity:1;" d="M 76.5 32.699219 C 77.300781 32 78.800781 31.101563 79.699219 30.699219 C 79.601563 30.5 79.5 30.300781 79.398438 30.101563 C 79.300781 29.5 79.398438 29 79.699219 28.601563 C 78.800781 28.199219 77.300781 27.199219 76.5 26.5 L 76.5 32.699219 "/>
<path style=" stroke:none;fill-rule:nonzero;fill:rgb(0%,0%,0%);fill-opacity:1;" d="M 86.601563 32.699219 L 86.601563 26.5 C 85.800781 27.199219 84.300781 28.199219 83.398438 28.601563 C 83.5 28.800781 83.601563 29 83.699219 29.300781 C 83.800781 29.800781 83.699219 30.398438 83.398438 30.800781 C 84.300781 31.101563 85.800781 32 86.601563 32.699219 "/>
<path style=" stroke:none;fill-rule:nonzero;fill:rgb(0%,0%,0%);fill-opacity:1;" d="M 80.398438 27.800781 C 80.601563 27.699219 80.800781 27.601563 81.101563 27.5 C 81.199219 27.5 81.398438 27.5 81.5 27.5 C 81.898438 27.5 82.300781 27.601563 82.601563 27.800781 C 83 26.898438 83.898438 25.398438 84.601563 24.601563 L 78.398438 24.601563 C 79.101563 25.300781 80.101563 26.898438 80.398438 27.800781 "/>
<path style=" stroke:none;fill-rule:nonzero;fill:rgb(0%,0%,0%);fill-opacity:1;" d="M 60.300781 31.101563 C 60.398438 31.101563 60.601563 31.101563 60.699219 31.101563 C 61 31.101563 61.199219 31.199219 61.5 31.199219 C 61.800781 30.101563 62.699219 28 63.199219 27 L 59.199219 28.398438 L 60.300781 31.101563 "/>
<path style=" stroke:none;fill-rule:nonzero;fill:rgb(0%,0%,0%);fill-opacity:1;" d="M 65.800781 35.199219 L 64.5 29.101563 C 64.199219 29.898438 63 31.199219 62.199219 31.800781 C 62.398438 32.101563 62.601563 32.398438 62.699219 32.800781 C 62.800781 33.199219 62.800781 33.601563 62.601563 33.898438 C 63.601563 34 65.199219 34.699219 65.800781 35.199219 "/>
<path style=" stroke:none;fill-rule:nonzero;fill:rgb(0%,0%,0%);fill-opacity:1;" d="M 75.601563 12.199219 C 75.398438 12.398438 75.199219 12.601563 75 12.898438 C 74.898438 13.199219 74.898438 13.5 74.898438 13.800781 C 74.898438 14 75 14.199219 75.101563 14.300781 C 75.300781 14.5 75.5 14.699219 75.800781 14.898438 C 76.101563 15 76.398438 15 76.699219 15 C 76.898438 15 77.101563 14.898438 77.300781 14.800781 C 77.5 14.601563 77.699219 14.398438 77.898438 14.101563 C 78 13.800781 78 13.5 78 13.199219 C 78 13 77.898438 12.800781 77.800781 12.699219 C 77.601563 12.5 77.398438 12.300781 77.101563 12.101563 C 76.800781 12 76.5 12 76.199219 12 C 76 12 75.800781 12 75.601563 12.199219 "/>
<path style=" stroke:none;fill-rule:nonzero;fill:rgb(0%,0%,0%);fill-opacity:1;" d="M 72.601563 11.101563 C 72.300781 11.199219 72 11.300781 71.800781 11.5 C 71.601563 11.699219 71.5 12 71.398438 12.300781 C 71.398438 12.5 71.398438 12.699219 71.398438 12.898438 C 71.5 13.199219 71.601563 13.5 71.800781 13.699219 C 72 13.898438 72.300781 14.101563 72.601563 14.101563 C 72.800781 14.101563 73 14.101563 73.199219 14.101563 C 73.5 14 73.800781 13.898438 74 13.699219 C 74.199219 13.5 74.398438 13.199219 74.398438 12.898438 C 74.398438 12.699219 74.398438 12.5 74.398438 12.300781 C 74.300781 12 74.199219 11.699219 74 11.5 C 73.800781 11.300781 73.5 11.101563 73.199219 11.101563 C 73 11.101563 72.800781 11.101563 72.601563 11.101563 "/>
<path style=" stroke:none;fill-rule:nonzero;fill:rgb(0%,0%,0%);fill-opacity:1;" d="M 69 9.800781 C 68.699219 9.898438 68.5 10.101563 68.300781 10.398438 C 68.101563 10.699219 68 11 68 11.300781 C 68 11.5 68 11.699219 68.101563 11.898438 C 68.199219 12.199219 68.398438 12.398438 68.699219 12.601563 C 69 12.800781 69.300781 12.800781 69.601563 12.800781 C 69.800781 12.800781 70 12.800781 70.199219 12.699219 C 70.5 12.601563 70.699219 12.398438 70.898438 12.101563 C 71.101563 11.800781 71.199219 11.5 71.101563 11.199219 C 71.101563 11 71 10.800781 71 10.601563 C 70.898438 10.300781 70.699219 10.101563 70.398438 9.898438 C 70.101563 9.699219 69.800781 9.699219 69.5 9.699219 C 69.300781 9.699219 69.101563 9.699219 69 9.800781 "/>
<path style=" stroke:none;fill-rule:nonzero;fill:rgb(0%,0%,0%);fill-opacity:1;" d="M 64.800781 9.699219 C 64.601563 9.898438 64.398438 10.199219 64.300781 10.5 C 64.199219 10.800781 64.199219 11.101563 64.300781 11.398438 C 64.398438 11.601563 64.5 11.800781 64.601563 11.898438 C 64.800781 12.101563 65.101563 12.300781 65.398438 12.398438 C 65.699219 12.5 66 12.5 66.300781 12.398438 C 66.5 12.300781 66.699219 12.199219 66.800781 12.101563 C 67 11.898438 67.199219 11.699219 67.300781 11.300781 C 67.398438 11 67.398438 10.699219 67.300781 10.398438 C 67.199219 10.199219 67.101563 10 67 9.898438 C 66.800781 9.699219 66.601563 9.5 66.199219 9.398438 C 65.898438 9.300781 65.601563 9.300781 65.300781 9.398438 C 65.199219 9.5 65 9.601563 64.800781 9.699219 "/>
<path style=" stroke:none;fill-rule:nonzero;fill:rgb(0%,0%,0%);fill-opacity:1;" d="M 61 10.898438 C 60.800781 11.101563 60.699219 11.398438 60.800781 11.800781 C 60.800781 12.101563 60.898438 12.398438 61.101563 12.699219 C 61.199219 12.898438 61.398438 13 61.5 13.101563 C 61.699219 13.300781 62 13.300781 62.398438 13.300781 C 62.699219 13.300781 63 13.199219 63.300781 13 C 63.5 12.898438 63.601563 12.699219 63.699219 12.601563 C 63.898438 12.398438 63.898438 12.101563 63.898438 11.699219 C 63.898438 11.398438 63.800781 11.101563 63.601563 10.898438 C 63.5 10.699219 63.300781 10.601563 63.199219 10.5 C 63 10.300781 62.699219 10.199219 62.300781 10.199219 C 62 10.199219 61.699219 10.300781 61.5 10.5 C 61.300781 10.5 61.101563 10.699219 61 10.898438 "/>
<path style=" stroke:none;fill-rule:nonzero;fill:rgb(0%,0%,0%);fill-opacity:1;" d="M 57.398438 13.398438 C 57.300781 13.699219 57.398438 14 57.5 14.300781 C 57.601563 14.601563 57.800781 14.800781 58.101563 15 C 58.300781 15.101563 58.5 15.199219 58.699219 15.199219 C 59 15.300781 59.300781 15.199219 59.601563 15.101563 C 59.898438 15 60.101563 14.800781 60.300781 14.5 C 60.398438 14.300781 60.5 14.101563 60.5 13.898438 C 60.601563 13.601563 60.5 13.300781 60.398438 13 C 60.300781 12.699219 60.101563 12.5 59.800781 12.300781 C 59.601563 12.199219 59.398438 12.101563 59.199219 12.101563 C 58.898438 12 58.601563 12.101563 58.300781 12.199219 C 58 12.300781 57.800781 12.5 57.601563 12.800781 C 57.5 13 57.398438 13.199219 57.398438 13.398438 "/>
<path style=" stroke:none;fill-rule:nonzero;fill:rgb(0%,0%,0%);fill-opacity:1;" d="M 55.101563 16.898438 C 55.101563 17.199219 55.300781 17.5 55.5 17.699219 C 55.699219 17.898438 56 18.101563 56.300781 18.101563 C 56.5 18.101563 56.699219 18.101563 56.898438 18.101563 C 57.199219 18 57.5 17.898438 57.699219 17.699219 C 57.898438 17.5 58.101563 17.199219 58.101563 16.898438 C 58.101563 16.699219 58.101563 16.5 58.101563 16.300781 C 58 16 57.898438 15.699219 57.699219 15.5 C 57.5 15.300781 57.199219 15.101563 56.898438 15.101563 C 56.699219 15.101563 56.5 15.101563 56.300781 15.101563 C 56 15.101563 55.699219 15.300781 55.5 15.5 C 55.300781 15.699219 55.101563 16 55.101563 16.300781 C 55.101563 16.5 55.101563 16.699219 55.101563 16.898438 "/>
<path style=" stroke:none;fill-rule:nonzero;fill:rgb(0%,0%,0%);fill-opacity:1;" d="M 54.300781 20.898438 C 54.5 21.101563 54.699219 21.398438 55 21.5 C 55.300781 21.601563 55.601563 21.699219 55.898438 21.601563 C 56.101563 21.601563 56.300781 21.5 56.5 21.398438 C 56.699219 21.199219 57 21 57.101563 20.699219 C 57.199219 20.398438 57.300781 20.101563 57.199219 19.800781 C 57.199219 19.601563 57.101563 19.398438 57 19.199219 C 56.800781 18.898438 56.601563 18.699219 56.300781 18.601563 C 56 18.5 55.699219 18.398438 55.398438 18.5 C 55.199219 18.5 55 18.601563 54.800781 18.699219 C 54.5 18.898438 54.300781 19.101563 54.199219 19.398438 C 54.101563 19.699219 54 20 54.101563 20.300781 C 54.199219 20.601563 54.199219 20.800781 54.300781 20.898438 "/>
<path style=" stroke:none;fill-rule:nonzero;fill:rgb(0%,0%,0%);fill-opacity:1;" d="M 55.199219 25 C 55.398438 25.199219 55.699219 25.300781 56 25.300781 C 56.300781 25.300781 56.601563 25.199219 56.898438 25.101563 C 57.101563 25 57.199219 24.898438 57.300781 24.699219 C 57.5 24.5 57.601563 24.199219 57.601563 23.898438 C 57.601563 23.601563 57.5 23.300781 57.398438 23 C 57.300781 22.800781 57.199219 22.699219 57 22.601563 C 56.800781 22.398438 56.5 22.300781 56.199219 22.300781 C 55.898438 22.300781 55.601563 22.398438 55.300781 22.5 C 55.101563 22.601563 55 22.699219 54.898438 22.898438 C 54.699219 23.101563 54.601563 23.398438 54.601563 23.699219 C 54.601563 24 54.699219 24.300781 54.800781 24.601563 C 54.898438 24.800781 55 24.898438 55.199219 25 "/>
<path style=" stroke:none;fill-rule:nonzero;fill:rgb(0%,0%,0%);fill-opacity:1;" d="M 56.398438 28.5 C 56.601563 28.699219 56.898438 28.800781 57.300781 28.800781 C 57.601563 28.800781 57.898438 28.699219 58.199219 28.5 C 58.398438 28.398438 58.5 28.199219 58.601563 28.101563 C 58.800781 27.898438 58.898438 27.601563 58.898438 27.199219 C 58.898438 26.898438 58.800781 26.601563 58.601563 26.300781 C 58.5 26.101563 58.300781 26 58.199219 25.898438 C 58 25.699219 57.699219 25.601563 57.300781 25.601563 C 57 25.601563 56.699219 25.699219 56.398438 25.898438 C 56.199219 26 56.101563 26.199219 56 26.300781 C 55.800781 26.5 55.699219 26.800781 55.699219 27.199219 C 55.699219 27.5 55.800781 27.800781 56 28.101563 C 56.101563 28.199219 56.199219 28.398438 56.398438 28.5 "/>
<path style=" stroke:none;fill-rule:nonzero;fill:rgb(0%,0%,0%);fill-opacity:1;" d="M 103.199219 34.398438 C 103 34.601563 102.699219 34.699219 102.300781 34.699219 C 102 34.699219 101.699219 34.601563 101.398438 34.398438 C 101.199219 34.300781 101.101563 34.101563 101 34 C 100.800781 33.800781 100.699219 33.5 100.699219 33.101563 C 100.699219 32.800781 100.800781 32.5 101 32.199219 C 101.101563 32 101.300781 31.898438 101.398438 31.800781 C 101.601563 31.601563 101.898438 31.5 102.300781 31.5 C 102.601563 31.5 102.898438 31.601563 103.199219 31.800781 C 103.398438 31.898438 103.5 32.101563 103.601563 32.199219 C 103.800781 32.398438 103.898438 32.699219 103.898438 33.101563 C 103.898438 33.398438 103.800781 33.699219 103.601563 34 C 103.5 34.199219 103.398438 34.300781 103.199219 34.398438 "/>
<path style=" stroke:none;fill-rule:nonzero;fill:rgb(0%,0%,0%);fill-opacity:1;" d="M 103.101563 27.5 C 103.898438 25 107 19.300781 102.398438 15.300781 C 100.898438 14 98.699219 13.199219 96.898438 13.199219 C 95.601563 13.199219 93.800781 13.601563 92.101563 14.199219 C 89.101563 15.199219 87.199219 15.800781 83.699219 15.800781 L 83.699219 17.398438 C 87.5 17.398438 89.5 16.800781 92.601563 15.699219 C 94 15.199219 95.699219 14.800781 96.898438 14.800781 C 98.300781 14.800781 100.199219 15.398438 101.398438 16.5 C 104.300781 19 103.300781 22.398438 102 25.800781 C 101.800781 26.199219 101.699219 26.601563 101.601563 27 L 103.101563 27.5 "/>
<path style=" stroke:none;fill-rule:nonzero;fill:rgb(0%,0%,0%);fill-opacity:1;" d="M 102.800781 31.101563 C 102.699219 31.101563 102.5 31.101563 102.398438 31.101563 C 102.101563 31.101563 101.898438 31.199219 101.601563 31.199219 C 101.300781 30.101563 100.398438 28 99.898438 27 L 103.898438 28.398438 L 102.800781 31.101563 "/>
<path style=" stroke:none;fill-rule:nonzero;fill:rgb(0%,0%,0%);fill-opacity:1;" d="M 97.199219 35.199219 L 98.5 29.101563 C 98.800781 29.898438 100 31.199219 100.800781 31.800781 C 100.601563 32.101563 100.398438 32.398438 100.300781 32.800781 C 100.199219 33.199219 100.199219 33.601563 100.398438 33.898438 C 99.398438 34 97.898438 34.699219 97.199219 35.199219 "/>
<path style=" stroke:none;fill-rule:nonzero;fill:rgb(0%,0%,0%);fill-opacity:1;" d="M 87.5 12.199219 C 87.699219 12.398438 87.898438 12.601563 88.101563 12.898438 C 88.199219 13.199219 88.199219 13.5 88.199219 13.800781 C 88.199219 14 88.101563 14.199219 88 14.300781 C 87.800781 14.5 87.601563 14.699219 87.300781 14.898438 C 87 15 86.699219 15 86.398438 15 C 86.199219 15 86 14.898438 85.898438 14.800781 C 85.699219 14.601563 85.5 14.398438 85.300781 14.101563 C 85.199219 13.800781 85.199219 13.5 85.199219 13.199219 C 85.199219 13 85.300781 12.800781 85.398438 12.699219 C 85.601563 12.5 85.800781 12.300781 86.101563 12.101563 C 86.398438 12 86.699219 12 87 12 C 87.101563 12 87.300781 12 87.5 12.199219 "/>
<path style=" stroke:none;fill-rule:nonzero;fill:rgb(0%,0%,0%);fill-opacity:1;" d="M 90.398438 11.101563 C 90.699219 11.199219 91 11.300781 91.199219 11.5 C 91.398438 11.699219 91.601563 12 91.601563 12.300781 C 91.601563 12.5 91.601563 12.699219 91.601563 12.898438 C 91.5 13.199219 91.398438 13.5 91.199219 13.699219 C 91 13.898438 90.699219 14.101563 90.398438 14.101563 C 90.199219 14.101563 90 14.101563 89.800781 14.101563 C 89.5 14 89.199219 13.898438 89 13.699219 C 88.800781 13.5 88.601563 13.199219 88.601563 12.898438 C 88.601563 12.699219 88.601563 12.5 88.601563 12.300781 C 88.699219 12 88.800781 11.699219 89 11.5 C 89.199219 11.300781 89.5 11.101563 89.800781 11.101563 C 90 11.101563 90.199219 11.101563 90.398438 11.101563 "/>
<path style=" stroke:none;fill-rule:nonzero;fill:rgb(0%,0%,0%);fill-opacity:1;" d="M 94.101563 9.800781 C 94.398438 9.898438 94.601563 10.101563 94.800781 10.398438 C 95 10.699219 95 11 95 11.300781 C 95 11.5 95 11.699219 94.898438 11.898438 C 94.800781 12.199219 94.601563 12.398438 94.300781 12.601563 C 94 12.800781 93.699219 12.800781 93.398438 12.800781 C 93.199219 12.800781 93 12.800781 92.800781 12.699219 C 92.5 12.601563 92.300781 12.398438 92.101563 12.101563 C 92 11.800781 92 11.5 92 11.199219 C 92 11 92 10.800781 92.101563 10.601563 C 92.199219 10.300781 92.398438 10.101563 92.699219 9.898438 C 93 9.699219 93.300781 9.699219 93.601563 9.699219 C 93.699219 9.699219 93.898438 9.699219 94.101563 9.800781 "/>
<path style=" stroke:none;fill-rule:nonzero;fill:rgb(0%,0%,0%);fill-opacity:1;" d="M 98.199219 9.699219 C 98.398438 9.898438 98.601563 10.199219 98.699219 10.5 C 98.800781 10.800781 98.800781 11.101563 98.699219 11.398438 C 98.601563 11.601563 98.5 11.800781 98.398438 11.898438 C 98.199219 12.101563 98 12.300781 97.601563 12.398438 C 97.300781 12.5 97 12.5 96.699219 12.398438 C 96.5 12.300781 96.300781 12.199219 96.199219 12.101563 C 96 11.898438 95.800781 11.699219 95.699219 11.300781 C 95.601563 11 95.601563 10.699219 95.699219 10.398438 C 95.800781 10.199219 95.898438 10 96 9.898438 C 96.199219 9.699219 96.5 9.5 96.800781 9.398438 C 97.101563 9.300781 97.398438 9.300781 97.699219 9.398438 C 97.898438 9.5 98.101563 9.601563 98.199219 9.699219 "/>
<path style=" stroke:none;fill-rule:nonzero;fill:rgb(0%,0%,0%);fill-opacity:1;" d="M 102.101563 10.898438 C 102.300781 11.101563 102.300781 11.398438 102.300781 11.800781 C 102.300781 12.101563 102.199219 12.398438 102 12.699219 C 101.898438 12.898438 101.699219 13 101.601563 13.101563 C 101.398438 13.300781 101.101563 13.300781 100.699219 13.300781 C 100.398438 13.300781 100.101563 13.199219 99.898438 13 C 99.699219 12.898438 99.601563 12.699219 99.5 12.601563 C 99.300781 12.398438 99.199219 12.101563 99.300781 11.699219 C 99.300781 11.398438 99.398438 11.101563 99.601563 10.898438 C 99.699219 10.699219 99.898438 10.601563 100 10.5 C 100.199219 10.300781 100.5 10.199219 100.898438 10.199219 C 101.199219 10.199219 101.5 10.300781 101.800781 10.5 C 101.800781 10.5 102 10.699219 102.101563 10.898438 "/>
<path style=" stroke:none;fill-rule:nonzero;fill:rgb(0%,0%,0%);fill-opacity:1;" d="M 105.699219 13.398438 C 105.800781 13.699219 105.699219 14 105.601563 14.300781 C 105.5 14.601563 105.300781 14.800781 105 15 C 104.800781 15.101563 104.699219 15.199219 104.5 15.199219 C 104.199219 15.300781 103.898438 15.199219 103.601563 15.101563 C 103.300781 15 103.101563 14.800781 102.898438 14.5 C 102.800781 14.300781 102.699219 14.101563 102.699219 13.898438 C 102.601563 13.601563 102.699219 13.300781 102.800781 13 C 102.898438 12.699219 103.101563 12.5 103.398438 12.300781 C 103.601563 12.199219 103.800781 12.101563 103.898438 12.101563 C 104.199219 12 104.5 12.101563 104.800781 12.199219 C 105.101563 12.300781 105.300781 12.5 105.5 12.800781 C 105.601563 13 105.601563 13.199219 105.699219 13.398438 "/>
<path style=" stroke:none;fill-rule:nonzero;fill:rgb(0%,0%,0%);fill-opacity:1;" d="M 108 16.898438 C 107.898438 17.199219 107.800781 17.5 107.601563 17.699219 C 107.398438 17.898438 107.101563 18.101563 106.800781 18.101563 C 106.601563 18.101563 106.398438 18.101563 106.199219 18.101563 C 105.898438 18 105.601563 17.898438 105.398438 17.699219 C 105.199219 17.5 105 17.199219 105 16.898438 C 105 16.699219 104.898438 16.5 105 16.300781 C 105.101563 16 105.199219 15.699219 105.398438 15.5 C 105.601563 15.300781 105.898438 15.101563 106.199219 15.101563 C 106.398438 15.101563 106.601563 15.101563 106.800781 15.101563 C 107.101563 15.101563 107.398438 15.300781 107.601563 15.5 C 107.800781 15.699219 108 16 108 16.300781 C 108 16.5 108 16.699219 108 16.898438 "/>
<path style=" stroke:none;fill-rule:nonzero;fill:rgb(0%,0%,0%);fill-opacity:1;" d="M 108.699219 20.898438 C 108.5 21.101563 108.300781 21.398438 108 21.5 C 107.699219 21.601563 107.398438 21.699219 107.101563 21.601563 C 106.898438 21.601563 106.699219 21.5 106.5 21.398438 C 106.300781 21.199219 106 21 105.898438 20.699219 C 105.800781 20.398438 105.699219 20.101563 105.800781 19.800781 C 105.800781 19.601563 105.898438 19.398438 106 19.199219 C 106.199219 18.898438 106.398438 18.699219 106.699219 18.601563 C 107 18.5 107.300781 18.398438 107.601563 18.5 C 107.800781 18.5 108 18.601563 108.199219 18.699219 C 108.398438 18.898438 108.699219 19.101563 108.800781 19.398438 C 108.898438 19.699219 109 20 108.898438 20.300781 C 108.898438 20.601563 108.800781 20.800781 108.699219 20.898438 "/>
<path style=" stroke:none;fill-rule:nonzero;fill:rgb(0%,0%,0%);fill-opacity:1;" d="M 107.898438 25 C 107.699219 25.199219 107.398438 25.300781 107.101563 25.300781 C 106.800781 25.300781 106.5 25.199219 106.199219 25.101563 C 106 25 105.898438 24.898438 105.800781 24.699219 C 105.601563 24.5 105.5 24.199219 105.5 23.898438 C 105.5 23.601563 105.601563 23.300781 105.699219 23 C 105.800781 22.800781 105.898438 22.699219 106.101563 22.601563 C 106.300781 22.398438 106.601563 22.300781 106.898438 22.300781 C 107.199219 22.300781 107.5 22.398438 107.800781 22.5 C 108 22.601563 108.101563 22.699219 108.199219 22.898438 C 108.398438 23.101563 108.5 23.398438 108.5 23.699219 C 108.5 24 108.398438 24.300781 108.300781 24.601563 C 108.199219 24.800781 108.101563 24.898438 107.898438 25 "/>
<path style=" stroke:none;fill-rule:nonzero;fill:rgb(0%,0%,0%);fill-opacity:1;" d="M 106.699219 28.5 C 106.5 28.699219 106.199219 28.800781 105.800781 28.800781 C 105.5 28.800781 105.199219 28.699219 104.898438 28.5 C 104.699219 28.398438 104.601563 28.199219 104.5 28.101563 C 104.300781 27.898438 104.199219 27.601563 104.199219 27.199219 C 104.199219 26.898438 104.300781 26.601563 104.5 26.300781 C 104.601563 26.101563 104.800781 26 104.898438 25.898438 C 105.101563 25.699219 105.398438 25.601563 105.800781 25.601563 C 106.101563 25.601563 106.398438 25.699219 106.699219 25.898438 C 106.898438 26 107 26.199219 107.101563 26.300781 C 107.300781 26.5 107.398438 26.800781 107.398438 27.199219 C 107.398438 27.5 107.300781 27.800781 107.101563 28.101563 C 107 28.199219 106.800781 28.398438 106.699219 28.5 "/>
</g>
</svg>
