<?xml version="1.0" encoding="utf-8"?>
<!-- Generator: Adobe Illustrator 25.1.0, SVG Export Plug-In . SVG Version: 6.00 Build 0)  -->
<svg version="1.1" id="Layer_1" xmlns="http://www.w3.org/2000/svg" xmlns:xlink="http://www.w3.org/1999/xlink" x="0px" y="0px"
	 viewBox="0 0 1002.5 457.7" style="enable-background:new 0 0 1002.5 457.7;" xml:space="preserve">
<style type="text/css">
	.st0{fill:url(#SVGID_1_);}
	.st1{fill:url(#SVGID_2_);}
	.st2{fill:url(#SVGID_3_);}
	.st3{fill:url(#SVGID_4_);}
	.st4{fill:url(#SVGID_5_);}
	.st5{fill:#FFFDF9;}
	.st6{fill:#0D0700;}
	.st7{fill:url(#SVGID_6_);}
	.st8{fill:#FFF1E0;}
</style>
<g>
	
		<linearGradient id="SVGID_1_" gradientUnits="userSpaceOnUse" x1="1.9149" y1="735.6846" x2="4.0191" y2="735.6846" gradientTransform="matrix(476.4255 0 0 -476.4255 -912.3266 350727.8125)">
		<stop  offset="0" style="stop-color:#000000"/>
		<stop  offset="0.2413" style="stop-color:#000000"/>
		<stop  offset="0.3471" style="stop-color:#151618"/>
		<stop  offset="0.5402" style="stop-color:#353A3D"/>
		<stop  offset="0.7195" style="stop-color:#4D5358"/>
		<stop  offset="0.8783" style="stop-color:#5B6368"/>
		<stop  offset="1" style="stop-color:#60686E"/>
	</linearGradient>
	<rect class="st0" width="1002.5" height="457.7"/>
	<radialGradient id="SVGID_2_" cx="236.2029" cy="226.3518" r="158.6581" gradientUnits="userSpaceOnUse">
		<stop  offset="0.6324" style="stop-color:#FF9A22;stop-opacity:0.7"/>
		<stop  offset="1" style="stop-color:#FF9124;stop-opacity:0"/>
	</radialGradient>
	<path class="st1" d="M394.9,226.4c0,87.6-71,158.7-158.7,158.7c-87.6,0-158.7-71-158.7-158.7s71-158.7,158.7-158.7
		C323.8,67.7,394.9,138.7,394.9,226.4"/>
	<radialGradient id="SVGID_3_" cx="236.2029" cy="226.3518" r="196.2641" gradientUnits="userSpaceOnUse">
		<stop  offset="0.4832" style="stop-color:#FF8F22"/>
		<stop  offset="1" style="stop-color:#FF9124;stop-opacity:0"/>
	</radialGradient>
	<path class="st2" d="M432.5,226.4c0,108.4-87.9,196.3-196.3,196.3c-108.4,0-196.3-87.9-196.3-196.3S127.8,30.1,236.2,30.1
		C344.6,30.1,432.5,118,432.5,226.4"/>
	<radialGradient id="SVGID_4_" cx="236.2029" cy="226.3518" r="165.5208" gradientUnits="userSpaceOnUse">
		<stop  offset="0" style="stop-color:#FF7522"/>
		<stop  offset="1" style="stop-color:#FF9124;stop-opacity:0"/>
	</radialGradient>
	<path class="st3" d="M401.7,226.4c0,91.4-74.1,165.5-165.5,165.5c-91.4,0-165.5-74.1-165.5-165.5c0-91.4,74.1-165.5,165.5-165.5
		C327.6,60.8,401.7,134.9,401.7,226.4"/>
	<radialGradient id="SVGID_5_" cx="261.135" cy="203.9202" r="153.7806" gradientUnits="userSpaceOnUse">
		<stop  offset="0.4595" style="stop-color:#FFDC20;stop-opacity:0.7"/>
		<stop  offset="0.5806" style="stop-color:#FFD820;stop-opacity:0.5431"/>
		<stop  offset="0.7079" style="stop-color:#FFCB21;stop-opacity:0.3782"/>
		<stop  offset="0.838" style="stop-color:#FFB622;stop-opacity:0.2098"/>
		<stop  offset="0.9692" style="stop-color:#FF9924;stop-opacity:3.985536e-02"/>
		<stop  offset="1" style="stop-color:#FF9124;stop-opacity:0"/>
	</radialGradient>
	<path class="st4" d="M414.9,203.9c0,84.9-68.8,153.8-153.8,153.8c-84.9,0-153.8-68.8-153.8-153.8S176.2,50.1,261.1,50.1
		C346.1,50.1,414.9,119,414.9,203.9"/>
	<path class="st5" d="M382.1,226.4c0,80.3-65.3,145.4-145.9,145.4S90.3,306.7,90.3,226.4c0-80.3,65.3-145.4,145.9-145.4
		S382.1,146,382.1,226.4"/>
	<path class="st6" d="M368.8,230.5c0,75.9-61.5,137.4-137.4,137.4c-75.9,0-137.4-61.5-137.4-137.4S155.6,93.1,231.5,93.1
		C307.3,93.1,368.8,154.6,368.8,230.5"/>
	<radialGradient id="SVGID_6_" cx="341.8058" cy="130.8104" r="80.6708" gradientUnits="userSpaceOnUse">
		<stop  offset="0" style="stop-color:#FFC822;stop-opacity:0.7"/>
		<stop  offset="1" style="stop-color:#FF9124;stop-opacity:0"/>
	</radialGradient>
	<path class="st7" d="M422.5,130.8c0,44.6-36.1,80.7-80.7,80.7c-44.6,0-80.7-36.1-80.7-80.7s36.1-80.7,80.7-80.7
		C386.4,50.1,422.5,86.3,422.5,130.8"/>
	<path class="st8" d="M470.6,298.6c-0.1-5.7-3.9-8.7-10.7-8.7c-5.8,0-9.6,2.9-9.6,7.2c0,3.3,1.9,4.9,7.1,6.4l10.8,2.9
		c5.8,1.6,9.1,5.5,9.1,10.8c0,3.7-1.8,7.5-4.7,9.8c-2.8,2.1-7,3.3-12.1,3.3c-6.5,0-11.5-2.1-14.4-6.1c-1.7-2.4-2.5-4.9-2.5-8.9h5.2
		c-0.1,2.7,0.6,4.7,2.2,6.6c2.1,2.5,5.2,3.6,9.9,3.6c3.5,0,6.2-0.6,7.9-1.8c1.8-1.3,3.1-3.7,3.1-6c0-3.4-2.4-5.5-7.9-7l-10.7-2.8
		c-5.7-1.5-8.4-4.8-8.4-10c0-7.8,5.8-12.6,15.3-12.6c7.2,0,12.3,2.6,14.6,7.5c0.9,2,1.1,2.8,1.1,5.8H470.6z"/>
	<polygon class="st8" points="490,324.1 515.3,324.1 515.3,329 484.5,329 484.5,286 514.2,286 514.2,290.8 490,290.8 490,304.6 
		513.3,304.6 513.3,309.4 490,309.4 	"/>
	<path class="st8" d="M526.7,329h-5.5V286H541c8.5,0,13.1,4.1,13.1,11.5c0,4.9-1.9,7.8-6.8,10.3c4.7,2,5.8,4.1,5.8,11.2
		c0.1,5.7,0.5,7.2,2.6,8.7v1.4h-6.7c-0.8-1.8-1.2-4.4-1.2-7l0.1-3.8c0-5.3-2.2-7.7-7.1-7.7h-14.1V329z M540,305.6
		c5.8,0,8.4-2.3,8.4-7.4c0-2.5-0.8-4.5-2.2-5.7c-1.4-1.2-3.1-1.6-6.2-1.6h-13.3v14.8H540z"/>
	<polygon class="st8" points="572.4,329 556.9,286 562.8,286 575.4,322.4 587.3,286 593.2,286 578.3,329 	"/>
	<rect x="598.3" y="286" class="st8" width="5.5" height="42.9"/>
	<path class="st8" d="M643.3,299.3c-0.7-3.2-1.6-5-3.2-6.5c-1.8-1.7-5.2-2.7-8.8-2.7c-8.7,0-14,6.8-14,17.8
		c0,10.7,5.6,17.6,14.5,17.6c4.8,0,8.6-2,10.4-5.5c0.9-1.7,1.5-3.7,2-6.7h5.9c-1.3,11.4-7.5,17-18.4,17c-5.8,0-10.2-1.6-13.7-5
		c-4.2-4.2-6.4-10.3-6.4-17.3c0-7,2.2-13.1,6.2-17.3c3.3-3.5,8.1-5.4,14.1-5.4c9.8,0,15.4,4.6,17.2,14H643.3z"/>
	<polygon class="st8" points="662.2,324.1 687.5,324.1 687.5,329 656.7,329 656.7,286 686.4,286 686.4,290.8 662.2,290.8 
		662.2,304.6 685.6,304.6 685.6,309.4 662.2,309.4 	"/>
	<path class="st8" d="M718.2,298.6c-0.1-5.7-4-8.7-10.9-8.7c-5.9,0-9.8,2.9-9.8,7.2c0,3.3,1.9,4.9,7.2,6.4l11,2.9
		c5.9,1.6,9.3,5.5,9.3,10.8c0,3.7-1.9,7.5-4.8,9.8c-2.8,2.1-7.1,3.3-12.3,3.3c-6.7,0-11.7-2.1-14.7-6.1c-1.7-2.4-2.5-4.9-2.6-8.9
		h5.3c-0.1,2.7,0.7,4.7,2.3,6.6c2.1,2.5,5.3,3.6,10.1,3.6c3.5,0,6.3-0.6,8-1.8c1.9-1.3,3.1-3.7,3.1-6c0-3.4-2.5-5.5-8-7l-10.9-2.8
		c-5.8-1.5-8.6-4.8-8.6-10c0-7.8,5.9-12.6,15.5-12.6c7.4,0,12.5,2.6,14.9,7.5c1,2,1.1,2.8,1.1,5.8H718.2z"/>
	<polygon class="st8" points="440.2,163.3 447.2,163.3 447.2,264.3 508.8,264.3 508.8,270 440.2,270 	"/>
	<path class="st8" d="M546.6,163.3h7.6l42,106.7h-7.6l-12.9-34.4h-51.1L511.3,270h-7.4L546.6,163.3z M573.4,229.9l-22.9-60.1
		l-23.8,60.1H573.4z"/>
	<polygon class="st8" points="585.1,163.3 592.2,163.3 628.6,263.9 665.4,163.3 672.1,163.3 632.8,270 624.1,270 	"/>
	<polygon class="st8" points="682.8,163.3 762.8,163.3 762.8,183 706.6,183 706.6,205.4 758.2,205.4 758.2,224 706.6,224 
		706.6,250.2 763.9,250.2 763.9,270 682.8,270 	"/>
	<path class="st8" d="M792.3,270h-23.5l40.2-106.7h24.3L873,270h-23.5l-8.9-23.7h-39.9L792.3,270z M834.6,228.4l-13.7-38.9
		l-14.1,38.9H834.6z"/>
	<polygon class="st8" points="905.4,163.3 950.5,235.2 950.5,163.3 971.9,163.3 971.9,270 948.8,270 904.2,198.4 904.2,270 
		881.9,270 881.9,163.3 	"/>
</g>
</svg>
