<?xml version="1.0" encoding="utf-8"?>
<!-- Generator: Adobe Illustrator 25.1.0, SVG Export Plug-In . SVG Version: 6.00 Build 0)  -->
<svg version="1.1" id="Layer_1" xmlns="http://www.w3.org/2000/svg" xmlns:xlink="http://www.w3.org/1999/xlink" x="0px" y="0px"
	 viewBox="0 0 90.2 141.8" style="enable-background:new 0 0 90.2 141.8;" xml:space="preserve">
<style type="text/css">
	.st0{fill:none;}
	.st1{opacity:0.2;}
	.st2{fill:#CD7A29;stroke:#CD7A29;stroke-width:2;stroke-miterlimit:10;}
</style>
<g id="Path_306" transform="translate(-89.71 -59.018)">
	<path class="st0" d="M178.7,95.3c-0.1-0.6-0.7-1.1-1.3-1c-0.6,0.1-1.1,0.6-1,1.2c0.5,6.4-15.3,12-31.9,18
		c-14.6,5.3-31.1,11.1-42.4,19.2c-6.8,4.9-10.9,11.1-11.9,18.5c-2.3,15,8.3,29.4,8.9,30.2c-6.9,9.3-9,17.4-9.2,18
		c-0.2,0.6,0.2,1.3,0.8,1.4l0,0c0.1,0,0.2,0,0.3,0c0.5,0,1-0.4,1.1-0.9c0-0.2,2.1-8.1,9-17.4c12.2,5.3,23,8,32.5,8
		c9,0,16.8-2.4,23.3-7.1C186.7,161.5,179.1,98,178.7,95.3z M155.6,181.6c-12.6,9.2-30.4,8.9-53-0.8c4.5-5.6,10-10.4,16.1-14.2
		c21.9-13.7,37.8-31.3,40.5-37.3c0.2-0.6,0-1.3-0.6-1.5c-0.5-0.2-1.2,0-1.5,0.5c-2.6,5.8-18.1,22.8-39.7,36.2c-6.5,4-12.2,9.1-17,15
		c-1.9-2.7-10-15.3-8-28c0.9-5.9,3.9-11.1,9-15.3c-0.2,3.8,0.2,10.4,4.5,14.4c0.5,0.4,1.2,0.4,1.7-0.2c0.4-0.5,0.4-1.1-0.1-1.6
		c-4.5-4.1-3.8-12.5-3.6-14.5c8.1-5.8,19.2-10.4,30.1-14.6c-1.7,3.3-4,9.1-2.5,14.2c0.2,0.6,0.8,1,1.4,0.8c0.6-0.2,1-0.8,0.8-1.4
		l0,0c-1.7-5.9,2.7-13.3,3.7-14.8c2.7-1,5.3-2,8-2.9c14.7-5.3,27.1-9.7,31.6-15.2c0.8,10.9,0.7,21.8-0.3,32.6
		c-1.8,1.2-8.3,5.3-13.4,5.9c-0.6,0.1-1.1,0.7-1,1.3c0.1,0.6,0.5,1.1,1.1,1.1c0.1,0,0.1,0,0.2,0c4.5-0.5,9.8-3.5,12.8-5.3
		c-1.1,9.3-3.2,18.9-6.9,27.3c-2.3,0.8-12.9,4.5-20.7,5c-0.6,0-1.1,0.5-1.1,1.1s0.5,1.1,1.1,1.1h0.1h0.1c6.7-0.4,15-2.9,19.2-4.4
		C165,172.2,160.8,177.5,155.6,181.6L155.6,181.6z"/>
	<g class="st1">
		<path class="st2" d="M176.7,77.8c-0.1,0-0.1,0-0.1,0c-0.6,0.1-1.1,0.6-1,1.3c0.5,6.3-14.9,11.8-31.3,17.7
			c-14.3,5.1-30.5,10.9-41.5,18.8c-6.7,4.8-10.7,10.9-11.8,18.1c-2.2,14.7,8.1,28.8,8.7,29.6c-6.8,9.1-8.8,17.1-9,17.6
			c-0.1,0.6,0.2,1.3,0.8,1.4c0.1,0,0.1,0,0.3,0c0.5,0,1-0.4,1.1-0.9c0-0.1,2.1-7.9,8.8-17c11.9,5.2,22.6,7.8,31.9,7.8
			c8.8,0,16.4-2.4,22.8-7c29.1-21.5,21.6-83.6,21.3-86.3C177.8,78.2,177.3,77.8,176.7,77.8L176.7,77.8z M132.7,117.5
			c0.1,0,0.2,0,0.3-0.1c0.6-0.1,1-0.8,0.8-1.4c-1.7-5.8,2.6-13,3.6-14.5c2.6-1,5.2-1.9,7.8-2.8c14.4-5.1,26.5-9.5,30.9-14.9
			c0.5,6.5,1,18.7-0.3,31.9c-1.8,1.2-8.2,5.2-13.1,5.8c-0.6,0.1-1,0.6-1,1.2c0,0.6,0.5,1,1.1,1l0,0h0.1h0.1
			c4.4-0.5,9.6-3.5,12.5-5.1c-1.1,9.1-3.2,18.5-6.8,26.7c-2.3,0.8-12.7,4.4-20.3,4.9c-0.6,0-1.1,0.5-1.1,1.2c0,0.6,0.5,1.1,1.1,1.1
			l0,0h0.1c6.5-0.4,14.7-2.9,18.8-4.3c-3,6-7,11.2-12.1,14.9c-6,4.4-13.1,6.5-21.5,6.5c-8.8,0-19-2.5-30.4-7.4
			c4.4-5.4,9.8-10.2,15.7-13.9c21.5-13.4,37-30.6,39.6-36.5c0.3-0.6,0-1.3-0.6-1.5c-0.1-0.1-0.3-0.1-0.4-0.1c-0.4,0-0.8,0.2-1,0.7
			c-2.6,5.7-17.7,22.3-38.8,35.5c-6.3,3.9-11.9,8.9-16.6,14.7c-1.8-2.6-9.8-15-7.9-27.4c0.9-5.8,3.8-10.9,8.8-15
			c-0.1,3.7,0.2,10.2,4.4,14c0.2,0.2,0.5,0.3,0.7,0.3c0.3,0,0.6-0.1,0.8-0.4c0.4-0.4,0.4-1.2-0.1-1.6c-4.4-4-3.8-12.2-3.5-14.2
			c7.9-5.7,18.8-10.2,29.4-14.3c-1.7,3.2-3.9,8.9-2.4,13.9C131.7,117.2,132.2,117.5,132.7,117.5L132.7,117.5z"/>
	</g>
</g>
</svg>
