<?xml version="1.0" encoding="utf-8"?>
<!-- Generator: Adobe Illustrator 25.1.0, SVG Export Plug-In . SVG Version: 6.00 Build 0)  -->
<svg version="1.1" id="layer" xmlns="http://www.w3.org/2000/svg" xmlns:xlink="http://www.w3.org/1999/xlink" x="0px" y="0px"
	 viewBox="0 0 500 500" style="enable-background:new 0 0 500 500;" xml:space="preserve">
<style type="text/css">
	.st0{fill:rgb(255, 245, 233);}
	.st1{fill:#121211;}
	.st2{clip-path:url(#SVGID_2_);fill:#121211;}
	.st3{clip-path:url(#SVGID_4_);fill:rgb(255, 245, 233);}
</style>
<path class="st0" d="M250,484.9C120.3,484.9,15.1,379.8,15.1,250C15.1,120.3,120.2,15.1,250,15.1c129.7,0,234.9,105.2,234.9,234.9
	S379.7,484.9,250,484.9"/>
<path class="st1" d="M250,36.6c-117.9,0-213.5,95.6-213.5,213.5c0,19.2,2.6,37.8,7.3,55.6H456c4.8-17.7,7.3-36.4,7.3-55.6
	C463.5,132.1,367.9,36.6,250,36.6"/>
<path class="st0" d="M109.9,417.3c-50.1-41.8-78.8-103.1-78.8-168.2c0-58.5,22.8-113.4,64.1-154.8C136.6,53,191.5,30.2,250,30.2
	S363.5,53,404.8,94.3c41.4,41.4,64.1,96.3,64.1,154.8c0,65.1-28.7,126.5-78.8,168.2l-4.1-4.9c48.6-40.5,76.5-100.1,76.5-163.3
	c0-56.8-22.1-110.1-62.2-150.3C360.2,58.7,306.8,36.6,250,36.6S139.9,58.7,99.7,98.8c-40.1,40.1-62.2,93.5-62.2,150.3
	c0,63.2,27.9,122.8,76.5,163.3L109.9,417.3"/>
<g>
	<g>
		<defs>
			<path id="SVGID_1_" d="M484.9,250c0,129.7-105.1,234.9-234.9,234.9C120.3,484.9,15.1,379.7,15.1,250S120.3,15.1,250,15.1
				C379.7,15.2,484.9,120.3,484.9,250"/>
		</defs>
		<clipPath id="SVGID_2_">
			<use xlink:href="#SVGID_1_"  style="overflow:visible;"/>
		</clipPath>
		<rect x="15.1" y="263.1" class="st2" width="469.7" height="102.6"/>
	</g>
	<g>
		<defs>
			<path id="SVGID_3_" d="M484.9,250c0,129.7-105.1,234.9-234.9,234.9C120.3,484.9,15.1,379.7,15.1,250S120.3,15.1,250,15.1
				C379.7,15.2,484.9,120.3,484.9,250"/>
		</defs>
		<clipPath id="SVGID_4_">
			<use xlink:href="#SVGID_3_"  style="overflow:visible;"/>
		</clipPath>
		<rect x="15.1" y="268.8" class="st3" width="469.7" height="91.2"/>
	</g>
</g>
<path class="st1" d="M86.6,299.9c-2.5-1.1-5.2-1.7-8-1.7c-2.7,0-6.2,1.2-6.2,5.5c0,6.8,17.2,3.9,17.2,17.1c0,8.6-6.8,11.9-14.8,11.9
	c-4.3,0-6.2-0.6-10.1-1.5l0.7-7.1c2.7,1.5,5.8,2.4,8.9,2.4c3,0,7-1.5,7-5.1c0-7.5-17.2-4.4-17.2-17.4c0-8.8,6.8-12,13.7-12
	c3.4,0,6.5,0.5,9.4,1.4L86.6,299.9"/>
<path class="st1" d="M95.9,304.5c2.9-1.4,6.9-2.2,10.1-2.2c8.8,0,12.5,3.7,12.5,12.2v3.7c0,2.9,0.1,5.1,0.1,7.3
	c0.1,2.2,0.2,4.2,0.3,6.5h-6.6c-0.3-1.5-0.3-3.4-0.3-4.3h-0.1c-1.7,3.2-5.5,5-8.9,5c-5.1,0-10.1-3.1-10.1-8.6c0-4.3,2.1-6.9,5-8.3
	s6.6-1.7,9.7-1.7h4.2c0-4.7-2.1-6.3-6.5-6.3c-3.2,0-6.4,1.2-9,3.2L95.9,304.5 M104.8,327.2c2.3,0,4.1-1,5.3-2.6s1.6-3.7,1.6-6h-3.3
	c-3.4,0-8.4,0.6-8.4,5C100,326.1,102.1,327.2,104.8,327.2z"/>
<path class="st1" d="M127.3,308.5h-5.6V303h5.6v-4.1c0-5.8,3.3-9.9,9.2-9.9c1.9,0,4.1,0.3,5.5,0.6l-0.6,6.3c-0.7-0.4-1.6-1-3.3-1
	c-2.5,0-3.3,2.2-3.3,4.4v3.6h6.6v5.5h-6.6v23.5h-7.5L127.3,308.5"/>
<path class="st1" d="M168.3,330.4c-2.8,1.5-5.9,2.3-10,2.3c-9.6,0-15.1-5.5-15.1-15c0-8.4,4.4-15.3,13.5-15.3
	c10.8,0,13.8,7.4,13.8,17.5h-20c0.3,4.7,3.6,7.3,8.3,7.3c3.7,0,6.8-1.4,9.6-2.9v6.1 M163.2,314.7c-0.2-3.7-1.9-6.8-6.1-6.8
	s-6.4,2.9-6.7,6.8H163.2z"/>
<path class="st1" d="M204.2,331.5c-2.9,0.7-6,1.2-9,1.2c-12.7,0-21.6-6.4-21.6-19.7c0-13.5,8.2-21,21.6-21c2.6,0,6,0.5,8.9,1.6
	l-0.6,6.7c-3-1.7-5.7-2.1-8.5-2.1c-8.1,0-13.2,6.2-13.2,14.2s5,14,13.3,14c3.1,0,6.8-0.7,8.6-1.6L204.2,331.5"/>
<path class="st1" d="M221.2,302.3c8.6,0,15.2,5.8,15.2,15.4c0,8.3-5.6,15-15.2,15s-15.1-6.7-15.1-15
	C206.1,308.1,212.7,302.3,221.2,302.3 M221.2,326.8c5.8,0,7.3-5.2,7.3-10c0-4.4-2.4-8.6-7.3-8.6s-7.3,4.3-7.3,8.6
	C214,321.6,215.5,326.8,221.2,326.8z"/>
<path class="st1" d="M240.9,303h7.2v3.9h0.1c2.4-3.3,5.6-4.6,9.5-4.6c6.9,0,9.9,4.8,9.9,11.4V332h-7.5v-15.5c0-3.5-0.1-8.3-4.9-8.3
	c-5.5,0-6.6,5.9-6.6,9.6V332h-7.5v-29"/>
<path class="st1" d="M276.4,308.5h-5.6V303h5.6v-5.8l7.5-2.4v8.2h6.7v5.5h-6.7V322c0,2.5,0.7,4.8,3.5,4.8c1.4,0,2.7-0.3,3.4-0.8
	l0.2,6c-1.6,0.5-3.3,0.7-5.6,0.7c-5.9,0-9.2-3.7-9.2-9.4v-14.8"/>
<path class="st1" d="M294.6,303h6.7v6.6h0.1c0.3-2.7,3.4-7.3,7.9-7.3c0.7,0,1.5,0,2.3,0.2v7.6c-0.7-0.4-2-0.6-3.4-0.6
	c-6.1,0-6.1,7.7-6.1,11.8v10.6h-7.5V303"/>
<path class="st1" d="M316.2,304.5c2.9-1.4,6.9-2.2,10.1-2.2c8.8,0,12.5,3.7,12.5,12.2v3.7c0,2.9,0.1,5.1,0.1,7.3
	c0.1,2.2,0.2,4.2,0.3,6.5h-6.6c-0.3-1.5-0.3-3.4-0.3-4.3h-0.1c-1.7,3.2-5.5,5-8.9,5c-5.1,0-10.1-3.1-10.1-8.6c0-4.3,2.1-6.9,5-8.3
	s6.6-1.7,9.7-1.7h4.2c0-4.7-2.1-6.3-6.5-6.3c-3.2,0-6.4,1.2-9,3.2L316.2,304.5 M325.1,327.2c2.3,0,4.1-1,5.3-2.6
	c1.2-1.6,1.6-3.7,1.6-6h-3.3c-3.4,0-8.4,0.6-8.4,5C320.3,326.1,322.4,327.2,325.1,327.2z"/>
<path class="st1" d="M363.6,309.3c-1.4-0.6-2.8-1.1-5.1-1.1c-4.7,0-7.7,3.7-7.7,9.2c0,5.4,2.5,9.5,7.8,9.5c2.1,0,4.5-0.8,5.8-1.3
	l0.3,6.2c-2.2,0.7-4.4,1-7.5,1c-9.5,0-14.3-6.5-14.3-15.3c0-8.4,5-15,14-15c3,0,5.2,0.3,7.3,1L363.6,309.3"/>
<path class="st1" d="M370.9,308.5h-5.6V303h5.6v-5.8l7.5-2.4v8.2h6.7v5.5h-6.7V322c0,2.5,0.7,4.8,3.5,4.8c1.4,0,2.7-0.3,3.4-0.8
	l0.2,6c-1.6,0.5-3.3,0.7-5.6,0.7c-5.9,0-9.2-3.7-9.2-9.4v-14.8"/>
<path class="st1" d="M402.2,302.3c8.6,0,15.2,5.8,15.2,15.4c0,8.3-5.6,15-15.2,15s-15.1-6.7-15.1-15
	C387.1,308.1,393.6,302.3,402.2,302.3 M402.2,326.8c5.8,0,7.3-5.2,7.3-10c0-4.4-2.4-8.6-7.3-8.6s-7.3,4.3-7.3,8.6
	C394.9,321.6,396.5,326.8,402.2,326.8z"/>
<path class="st1" d="M422.1,303h6.7v6.6h0.1c0.3-2.7,3.4-7.3,7.9-7.3c0.7,0,1.5,0,2.3,0.2v7.6c-0.7-0.4-2-0.6-3.4-0.6
	c-6.1,0-6.1,7.7-6.1,11.8v10.6h-7.5V303"/>
<polyline class="st1" points="128.9,417.8 132.1,420 129.3,427.5 129.4,427.5 135.2,422 139,424.4 136.3,432 136.3,432.1 142,426.4 
	145.1,428.4 136.3,435.7 132.7,433.3 135.4,425.7 135.4,425.7 129.3,431.2 125.7,428.8 128.9,417.8 "/>
<polyline class="st1" points="145.1,428.4 148.5,430.2 146.4,438 146.5,438 151.8,432 155.8,434.1 153.8,441.9 153.8,441.9 
	159,435.8 162.2,437.5 154.2,445.5 150.3,443.5 152.3,435.7 152.3,435.7 146.8,441.7 142.9,439.6 145.1,428.4 "/>
<polyline class="st1" points="162.2,437.4 165.8,438.9 164.5,446.9 164.5,446.9 169.2,440.4 173.4,442.1 172.1,450 172.2,450.1 
	176.7,443.5 180.1,444.8 172.9,453.7 168.8,452 170.1,444 170.1,444 165.2,450.5 161.1,448.8 162.2,437.4 "/>
<polyline class="st1" points="177.8,451.8 181.2,453 180.1,456.2 176.7,455 177.8,451.8 "/>
<path class="st1" d="M189.5,459.1c0.2-0.6,0.2-1.1,0.4-1.7l0,0c-1.2,1.1-2.4,1.3-3.9,0.9c-2.1-0.6-3.6-2.2-2.9-4.5
	c1-3.2,4.5-2.5,6.5-2c0.6,0.2,1.2,0.4,1.6,0.6c0.4-1.4-0.5-2.1-1.9-2.5c-1.2-0.3-2.4-0.5-3.6-0.2l0.7-2.5c1.4-0.1,2.9,0,4.4,0.5
	c2.7,0.8,4.6,2.6,3.7,5.8l-1.2,3.9c-0.2,0.8-0.5,1.7-0.5,2.5L189.5,459.1 M187.7,456.2c1.4,0.4,2.6-0.6,3-1.8
	c-0.5-0.2-1-0.4-1.5-0.5c-1.2-0.4-2.3-0.3-2.6,0.7C186.3,455.4,186.9,456,187.7,456.2z"/>
<polyline class="st1" points="199.4,445.6 203.1,446.5 199.3,461.7 195.6,460.8 199.4,445.6 "/>
<path class="st1" d="M212.1,456.5c-0.6-0.5-1.2-0.9-2.1-1.1c-1.6-0.3-3.1,0.5-3.4,2.4c-0.3,1.7,0.9,3.1,2.5,3.4
	c0.8,0.2,1.7,0.2,2.4,0L211,464c-1,0.1-2.1,0.1-3.1-0.2c-3.5-0.7-5.8-3.3-5.1-6.8c0.7-3.6,3.8-5,7.4-4.3c1.1,0.2,2.1,0.6,2.8,1.2
	L212.1,456.5"/>
<path class="st1" d="M224.2,466.2l-3.4-0.5l0.3-2l0,0c-1,1.4-2.6,1.9-4.3,1.7c-2.9-0.4-3.8-2.7-3.5-4.9l1-6.7l3.7,0.5l-0.8,5.2
	c-0.3,2,0.3,2.8,1.3,3c1.5,0.2,2.5-0.7,2.8-3l0.7-4.6l3.7,0.5L224.2,466.2"/>
<path class="st1" d="M227.7,455.7l3.4,0.2l-0.1,2l0,0c0.8-1.5,2.4-2.1,4.1-2c1.5,0.1,2.8,0.8,3.3,2.3c1-1.4,2.4-1.9,4-1.8
	c3.1,0.2,3.7,2,3.6,5l-0.4,6.4l-3.8-0.2l0.4-5.9c0.1-1.2-0.3-2.2-1.4-2.2c-1.3-0.1-2.2,0.9-2.3,3.3l-0.3,4.6l-3.8-0.2l0.4-5.9
	c0.1-1.2-0.3-2.2-1.4-2.2c-1.3-0.1-2.2,0.9-2.3,3.3l-0.3,4.6l-3.8-0.2L227.7,455.7"/>
<path class="st1" d="M260,467.5l-3.4,0.1v-2l0,0c-0.7,1.6-2.2,2.3-3.9,2.3c-3,0.1-4.2-2-4.2-4.3l-0.1-6.8l3.8-0.1l0.1,5.3
	c0,2.1,0.8,2.7,1.8,2.7c1.5,0,2.3-1.1,2.3-3.5l-0.1-4.6l3.8-0.1L260,467.5"/>
<path class="st1" d="M262.2,464.3c0.9,0.3,2.2,0.6,3.6,0.5c0.8-0.1,1.5-0.2,1.5-1c-0.1-1.8-5.4-0.1-5.7-4.1
	c-0.2-2.5,2.2-3.7,4.4-3.9c1.3-0.1,2.6-0.1,3.9,0.3l-0.1,2.6c-0.8-0.4-2-0.6-3-0.5c-0.8,0.1-1.7,0.3-1.7,0.9
	c0.1,1.7,5.6-0.1,5.9,4.1c0.2,2.9-2.3,3.8-4.8,4c-1.7,0.1-2.9,0-4-0.2L262.2,464.3"/>
<path class="st1" d="M284.6,463.7c0.6,4.4-1.4,6.2-5.7,6.7c-1.8,0.2-3.3,0.1-4.2-0.1l-0.2-3c1.2,0.4,2.2,0.6,3.8,0.4
	c2.2-0.3,3.2-1.5,2.9-3.6l-0.1-0.6l0,0c-0.7,1.4-1.9,2.1-3.4,2.3c-3,0.4-5.1-1.6-5.5-4.8s0.8-5.8,4.1-6.3c1.6-0.2,3,0.5,4,1.7l0,0
	l-0.3-2l3.4-0.5L284.6,463.7 M278.4,462.9c1.3-0.2,2.2-1.4,2-3.1c-0.2-1.2-1-2.5-2.7-2.2c-1.4,0.2-2,1.5-1.8,3
	C276.1,462.2,277.3,463,278.4,462.9z"/>
<path class="st1" d="M293.6,455.2c-0.4,0-0.8,0-1.3,0.1c-1.7,0.3-2.5,1.8-2.1,3.9l0.9,4.5l-3.7,0.7l-2-10.7l3.4-0.6l0.4,2l0,0
	c0.4-1.5,1.1-2.5,2.7-2.8c0.4-0.1,0.9-0.1,1.3-0.1L293.6,455.2"/>
<path class="st1" d="M294.6,457.6c-0.9-3.5,1.3-6.2,4.8-7.1c3.5-0.9,6.7,0.5,7.5,4c0.9,3.5-1.3,6.2-4.8,7
	C298.7,462.5,295.5,461.1,294.6,457.6 M303.2,455.5c-0.4-1.6-1.4-2.8-3.1-2.4c-1.7,0.4-2,2-1.6,3.6s1.4,2.8,3.1,2.4
	C303.2,458.6,303.6,457.1,303.2,455.5z"/>
<path class="st1" d="M321.4,455.7l-3.3,1l-0.6-1.9l0,0c-0.2,1.7-1.5,2.8-3.1,3.4c-2.8,0.9-4.6-0.7-5.3-2.9l-2.1-6.5l3.6-1.1l1.6,5
	c0.6,2,1.5,2.4,2.5,2.1c1.5-0.5,1.9-1.7,1.2-4l-1.4-4.4l3.6-1.1L321.4,455.7"/>
<path class="st1" d="M320,444.7l3.2-1.3l0.7,1.8l0,0c0.1-1.7,1.4-2.9,3-3.5c2.8-1.1,5.4,1,6.3,3.4c1.2,3,0.5,6.1-2.5,7.3
	c-1.2,0.5-2.7,0.5-3.9-0.4l0,0l2.2,5.5l-3.5,1.4L320,444.7 M326.6,444.9c-1.3,0.5-1.7,2-1.1,3.5s2,2.2,3.2,1.8
	c1.3-0.5,1.7-1.9,1.1-3.6C329.2,445.3,327.9,444.4,326.6,444.9z"/>
<polyline class="st1" points="336,446.3 339.2,444.8 340.6,447.9 337.4,449.4 336,446.3 "/>
<path class="st1" d="M347.3,436c-0.8-0.1-1.5,0.1-2.3,0.5c-1.5,0.7-2.1,2.3-1.2,4c0.8,1.6,2.6,1.9,4.1,1.2c0.8-0.4,1.5-0.9,1.9-1.5
	l1.3,2.5c-0.7,0.7-1.6,1.4-2.5,1.8c-3.2,1.6-6.6,1-8.2-2.3c-1.6-3.2-0.1-6.3,3.1-7.9c1-0.5,2-0.8,3-0.8L347.3,436"/>
<path class="st1" d="M349.6,437.5c-1.8-3.1-0.5-6.3,2.7-8.1c3.1-1.8,6.6-1.3,8.3,1.8c1.8,3.1,0.4,6.3-2.7,8.1
	C354.8,441.1,351.4,440.6,349.6,437.5 M357.2,433.1c-0.8-1.4-2.1-2.3-3.7-1.5c-1.5,0.9-1.4,2.5-0.6,3.9s2.1,2.3,3.6,1.4
	C358.1,436.1,358,434.5,357.2,433.1z"/>
<path class="st1" d="M359.2,425.8l2.8-1.9l1.1,1.7l0,0c-0.3-1.7,0.6-3.1,2-4.1c1.3-0.9,2.7-1.1,4-0.2c-0.1-1.7,0.7-3,2-3.9
	c2.6-1.8,4.2-0.7,5.9,1.7l3.6,5.3l-3,2l-3.3-4.8c-0.7-1-1.6-1.5-2.5-0.9c-1.1,0.8-1.2,2.1,0.2,4l2.6,3.8l-3.1,2.1l-3.3-4.8
	c-0.7-1-1.6-1.5-2.5-0.9c-1.1,0.8-1.1,2.1,0.2,4l2.6,3.8l-3.1,2.1L359.2,425.8"/>
<path class="st0" d="M250,500c-66.8,0-129.6-26-176.8-73.2S0,316.8,0,250S26,120.4,73.2,73.2S183.2,0,250,0s129.6,26,176.8,73.2
	S500,183.2,500,250s-26,129.6-73.2,176.8S316.8,500,250,500 M250,8.9C185.6,8.9,125,34,79.5,79.5S8.9,185.6,8.9,250
	S34,375,79.5,420.5c45.6,45.6,106.1,70.6,170.5,70.6s125-25.1,170.5-70.6s70.6-106.1,70.6-170.5S466,125,420.5,79.5
	C375,33.9,314.4,8.9,250,8.9z"/>
<path class="st1" d="M158,383.4h8.7l10.3,26.7h-7.8l-2-5.7h-10l-2.1,5.7h-7.2L158,383.4 M162.4,388.9L162.4,388.9l-3.5,10.5h6.7
	L162.4,388.9z"/>
<path class="st1" d="M178.5,383.4h8.5c8.2,0,12,2.8,12,8.8c0,5.4-4,8.6-10.6,8.6h-2.8v9.4h-7.1V383.4 M185.6,395.7h1.8
	c2.4,0,4.4-0.9,4.4-3.7c0-2.7-2-3.6-4.4-3.6h-1.8V395.7z"/>
<path class="st1" d="M201,383.4h8.5c8.2,0,12,2.8,12,8.8c0,5.4-3.9,8.6-10.6,8.6h-2.8v9.4H201V383.4 M208.1,395.7h1.8
	c2.4,0,4.4-0.9,4.4-3.7c0-2.7-2-3.6-4.4-3.6h-1.8V395.7z"/>
<path class="st1" d="M223.6,383.4h12.7c4.7,0,8.6,2.1,8.6,6.7c0,3.6-1.7,5.9-5.1,6.7v0.1c2.3,0.6,2.4,2.6,3.8,5.9l2.6,7.3h-7.4
	l-1.5-4.8c-1.5-4.6-2.4-5.7-5-5.7h-1.5v10.6h-7.2V383.4 M230.8,394.5h1.9c2.3,0,5.2-0.1,5.2-3.1c0-2.5-2.5-3-5.2-3h-1.9V394.5z"/>
<path class="st1" d="M260.8,382.9c8.8,0,13.4,5.2,13.4,13.8c0,8.5-4.7,13.8-13.4,13.8c-8.7,0-13.4-5.3-13.4-13.8
	C247.4,388.2,252,382.9,260.8,382.9 M260.8,405.3c4.3,0,6.1-4.1,6.1-8.5c0-4.6-1.7-8.6-6.1-8.6c-4.3,0-6.1,3.9-6.1,8.6
	C254.8,401.2,256.5,405.3,260.8,405.3z"/>
<polyline class="st1" points="274.2,383.4 281.8,383.4 287.8,404.4 287.8,404.4 293.8,383.4 301.1,383.4 292,410.1 283.2,410.1 
	274.2,383.4 "/>
<polyline class="st1" points="303.4,383.4 322.3,383.4 322.3,388.5 310.6,388.5 310.6,394 321.6,394 321.6,399 310.6,399 
	310.6,405.1 322.7,405.1 322.7,410.1 303.4,410.1 303.4,383.4 "/>
<path class="st1" d="M326.1,383.4h9.7c9.3,0,15.8,2.9,15.8,13.3c0,10-6.7,13.5-15.8,13.5h-9.7V383.4 M333.2,404.8h2.8
	c5.3,0,8.3-2.8,8.3-8.1c0-5.3-3.1-8.1-8.3-8.1h-2.8V404.8z"/>
<path class="st0" d="M329.6,67.6c3.6,0,6.5,2.9,6.5,6.5s-2.9,6.5-6.5,6.5s-6.5-2.9-6.5-6.5C323.1,70.5,326,67.6,329.6,67.6
	 M329.6,79.6c3,0,5.3-2.4,5.3-5.6s-2.3-5.5-5.3-5.5s-5.3,2.4-5.3,5.5S326.6,79.6,329.6,79.6z M327.1,70.2h2.9c1.8,0,2.6,0.7,2.6,2.1
	c0,1.2-0.8,2.1-2,2.1l2.2,3.4h-1.3l-2.1-3.4h-1v3.4h-1.2v-7.6H327.1z M328.3,73.5h1.5c1,0,1.6-0.2,1.6-1.2c0-0.9-0.8-1.1-1.6-1.1
	h-1.5V73.5z"/>
<path class="st0" d="M286.3,65.2c-23.9,2.6-29.5-11.8-29.5-11.8s-7.7,13.4-30.9,7.3c0,0-15.2,46.1,1.2,59.9
	c16.3,13.9,23.2,20.5,23.2,20.5s7.8-5.5,26-16.8C294.5,113,286.3,65.2,286.3,65.2 M231.5,116.1c-1-0.9-1.9-2-2.7-3.6
	c-1.2-2.3-2-5.4-2.4-8.9C226,100,226,96,226.3,92c0.5-7.3,2-14.7,3.4-20.3c0.4-1.5,0.7-2.8,1-3.9c1.3,0.2,2.6,0.4,3.9,0.5
	c4.7,0.3,8.7-0.1,12.2-1c-4.4,14-9.3,38.7,0.6,62.6C243.6,126.5,238.4,121.9,231.5,116.1z"/>
<path class="st0" d="M225.8,121.1c-5.1-20.8-53.1-27.8-53.1-27.8c-4.9,23.5-20.3,24.4-20.3,24.4s10.3,11.4-2.6,31.7
	c0,0,39.1,28.7,57.3,17.4c18.2-11.2,26.7-15.8,26.7-15.8S230.9,141.9,225.8,121.1 M204.1,161.2c-1.2,0.7-2.5,1.2-4.2,1.5
	c-2.5,0.4-5.7,0.2-9.2-0.5s-7.3-2-11-3.5c-6.8-2.8-13.4-6.5-18.2-9.5c-1.3-0.8-2.4-1.5-3.4-2.2c0.6-1.2,1.1-2.4,1.6-3.6
	c1.8-4.3,2.6-8.3,2.9-11.9c11.9,8.6,33.9,20.8,59.7,18.7C217.8,152.9,211.9,156.5,204.1,161.2z"/>
<path class="st0" d="M244.9,200.1c-5.1-20.8-6.8-30.2-6.8-30.2s-9.6-0.1-30.9-1.7c-21.4-1.5-42.8,41.9-42.8,41.9
	c20.8,11.9,16.9,26.9,16.9,26.9s14.1-6.3,29.3,12.3C210.6,249.2,250,220.9,244.9,200.1 M238.8,205.6c-0.4,2.5-1.5,5.5-3.3,8.6
	s-4.1,6.3-6.7,9.4c-4.7,5.6-10.3,10.7-14.6,14.4c-1.1,1-2.2,1.8-3.1,2.6c-1-1-1.9-1.8-2.9-2.7c-3.6-3-7.1-5.1-10.4-6.4
	c11.8-8.7,30.3-25.8,36.3-51c1.1,4.9,2.6,11.7,4.8,20.5C239,202.5,239,204,238.8,205.6z"/>
<path class="st0" d="M324.4,222.2c0,0-14.8-46.2-36.2-47.8c-21.4-1.6-30.8-2.9-30.8-2.9s-3.1,9.1-11.2,28.9s26.7,53.7,26.7,53.7
	c17.8-16.1,30.8-7.8,30.8-7.8S302,230.9,324.4,222.2 M303.6,229.1c-4.6-13.9-15.2-36.8-37.3-50.2c5,0.5,11.9,1.1,21,1.8
	c1.4,0.1,2.8,0.5,4.3,1.3c2.3,1.1,4.8,3.2,7.2,5.8c2.4,2.6,4.8,5.9,6.9,9.3c3.9,6.2,7,13.1,9.2,18.4c0.6,1.4,1.1,2.7,1.5,3.8
	c-1.2,0.6-2.3,1.3-3.4,1.9C309,223.6,305.9,226.4,303.6,229.1z"/>
<path class="st0" d="M350.2,132.8c0,0-15.1-3.2-16.5-27.1c0,0-48.5-0.2-56.6,19.6s-12.3,28.4-12.3,28.4s7.7,5.7,24,19.5
	c16.4,13.8,59.3-8.8,59.3-8.8C338.3,142.6,350.2,132.8,350.2,132.8 M274.6,147.5c2-4.6,4.8-11,8.2-19.4c0.5-1.3,1.3-2.5,2.5-3.7
	c1.8-1.8,4.5-3.6,7.7-5c3.2-1.5,7-2.7,11-3.7c7.1-1.7,14.6-2.6,20.3-3.1c1.5-0.1,2.9-0.2,4.1-0.3c0.2,1.3,0.5,2.6,0.8,3.8
	c1.1,4.5,2.8,8.3,4.7,11.3C319.3,127.6,294.3,130.7,274.6,147.5z"/>
</svg>
