<?xml version="1.0" standalone="no"?>
<!DOCTYPE svg PUBLIC "-//W3C//DTD SVG 1.1//EN" "http://www.w3.org/Graphics/SVG/1.1/DTD/svg11.dtd" >
<svg xmlns="http://www.w3.org/2000/svg" xmlns:xlink="http://www.w3.org/1999/xlink" version="1.1">
<metadata>
Created by FontForge 20170731 at Sat Jul 31 16:37:41 2021
 By Aleksey,,,
Copyright (c) 2019 Monotype Imaging Inc. All rights reserved.
</metadata>
<defs>
<font id="HelveticaNowDisplay-Black" horiz-adv-x="0" >
  <font-face 
    font-family="HelveticaNowDisplay Black"
    font-weight="900"
    font-stretch="normal"
    units-per-em="2048"
    panose-1="2 11 10 4 3 2 2 2 2 4"
    ascent="1792"
    descent="-256"
    x-height="1057"
    cap-height="1458"
    bbox="-778 -717 2662 2150"
    underline-thickness="102"
    underline-position="-614"
    unicode-range="U+000D-FEFF"
  />
<missing-glyph horiz-adv-x="1378" 
d="M1276 0h-1174v1458h1174v-1458zM451 1151v-844h477v844h-477z" />
    <glyph glyph-name="fi" unicode="fi" horiz-adv-x="1333" 
d="M170 1057v43q0 165 103 267q102 101 311 101q77 0 168 -10v-274h-82q-123 0 -123 -99v-28h205v-266h-205v-791h-377v791h-150v266h150zM887 1458h354v-295h-354v295zM874 0v1057h377v-1057h-377z" />
    <glyph glyph-name="fl" unicode="fl" horiz-adv-x="1323" 
d="M170 1057v43q0 165 103 267q102 101 311 101q77 0 168 -10v-274h-82q-123 0 -123 -99v-28h205v-266h-205v-791h-377v791h-150v266h150zM864 0v1458h377v-1458h-377z" />
    <glyph glyph-name=".notdef" horiz-adv-x="1378" 
d="M1276 0h-1174v1458h1174v-1458zM451 1151v-844h477v844h-477z" />
    <glyph glyph-name=".null" 
 />
    <glyph glyph-name="nonmarkingreturn" horiz-adv-x="681" 
 />
    <glyph glyph-name="NULL" 
 />
    <glyph glyph-name="NULL" 
 />
    <glyph glyph-name="CR" unicode="&#xd;" horiz-adv-x="509" 
 />
    <glyph glyph-name="space" unicode=" " horiz-adv-x="509" 
 />
    <glyph glyph-name="exclam" unicode="!" horiz-adv-x="540" 
d="M369 526h-195l-108 592v340h409v-340zM479 0h-418v406h418v-406z" />
    <glyph glyph-name="quotedbl" unicode="&#x22;" horiz-adv-x="1122" 
d="M446 711h-276l-68 747h410zM954 711h-276l-68 747h410z" />
    <glyph glyph-name="numbersign" unicode="#" horiz-adv-x="1511" 
d="M1470 1151l-61 -303h-174l-47 -236h174l-62 -303h-174l-63 -309h-332l64 309h-248l-64 -309h-331l63 309h-174l61 303h174l48 236h-172l61 303h172l64 307h331l-63 -307h248l63 307h332l-64 -307h174zM608 612h248l47 236h-248z" />
    <glyph glyph-name="dollar" unicode="$" horiz-adv-x="1355" 
d="M1325 440q0 -217 -150 -337q-149 -119 -421 -134v-207h-152v207q-276 18 -424 154q-147 135 -147 356h393q1 -94 45 -139q43 -45 133 -55v278l-43 6q-506 83 -506 471q0 195 143 317t406 134v205h152v-209q497 -40 520 -477h-385q-6 134 -135 161v-268l51 -8
q271 -45 396 -153q124 -108 124 -302zM471 1059q0 -48 31 -79q30 -30 100 -48v244q-131 -15 -131 -117zM754 537v-256q149 18 149 129q0 52 -32 79q-31 27 -117 48z" />
    <glyph glyph-name="percent" unicode="%" horiz-adv-x="1875" 
d="M786 1034q0 -440 -372 -440q-373 0 -373 440q0 443 373 443q372 0 372 -443zM659 0h-221l779 1458h221zM414 801q59 0 86 51q26 49 26 182q0 136 -26 185q-27 51 -86 51q-61 0 -88 -51t-27 -185q0 -131 27 -182t88 -51zM1835 422q0 -440 -373 -440q-372 0 -372 440
q0 442 372 442q373 0 373 -442zM1462 188q58 0 86 52q27 51 27 182q0 133 -27 184t-86 51q-61 0 -88 -51q-26 -49 -26 -184q0 -133 26 -182q28 -52 88 -52z" />
    <glyph glyph-name="ampersand" unicode="&#x26;" horiz-adv-x="1511" 
d="M1253 285l258 -285h-454l-62 68q-176 -101 -374 -101q-272 0 -426 122t-154 329q0 281 293 395l-15 16q-122 135 -122 275q0 167 127 278q129 109 346 109q216 0 344 -101q129 -102 129 -268q0 -256 -307 -379l198 -217q45 92 56 207h329q-12 -249 -166 -448zM784 1178
q-33 30 -91 30t-91 -30q-35 -30 -35 -74q0 -63 86 -158l15 -16q107 50 138 127t-22 121zM657 270q69 0 138 25l-283 317q-78 -60 -78 -155q0 -80 61 -133q62 -54 162 -54z" />
    <glyph glyph-name="quotesingle" unicode="'" horiz-adv-x="614" 
d="M446 711h-276l-68 747h410z" />
    <glyph glyph-name="parenleft" unicode="(" horiz-adv-x="632" 
d="M633 -401h-344q-120 268 -166 485q-51 219 -51 516q0 304 51 528q50 230 166 486h344q-180 -424 -180 -1014q0 -552 180 -1001z" />
    <glyph glyph-name="parenright" unicode=")" horiz-adv-x="632" 
d="M344 -401h-344q180 449 180 1001q0 590 -180 1014h344q116 -259 168 -486q49 -226 49 -528q0 -295 -49 -516q-51 -226 -168 -485z" />
    <glyph glyph-name="asterisk" unicode="*" horiz-adv-x="905" 
d="M453 821l-152 -200l-182 145l155 207l-254 82l76 217l240 -78v264h233v-264l240 78l76 -217l-254 -82l155 -207l-182 -145z" />
    <glyph glyph-name="plus" unicode="+" horiz-adv-x="1079" 
d="M711 887h317v-314h-317v-321h-342v321h-318v314h318v321h342v-321z" />
    <glyph glyph-name="comma" unicode="," horiz-adv-x="540" 
d="M61 0v406h418v-435q0 -342 -362 -342h-56v199h60q119 0 119 135v37h-179z" />
    <glyph glyph-name="hyphen" unicode="-" horiz-adv-x="731" 
d="M680 416h-629v313h629v-313z" />
    <glyph glyph-name="period" unicode="." horiz-adv-x="540" 
d="M479 0h-418v406h418v-406z" />
    <glyph glyph-name="slash" unicode="/" horiz-adv-x="864" 
d="M352 0h-362l522 1458h362z" />
    <glyph glyph-name="zero" unicode="0" horiz-adv-x="1433" 
d="M1206 166q-169 -199 -489 -199q-321 0 -488 199q-168 195 -168 563q0 367 168 565q167 197 488 197q319 0 489 -197q166 -200 166 -565q0 -367 -166 -563zM717 301q119 0 174 98t55 330q0 231 -55 329q-55 99 -174 99q-112 0 -172 -96q-58 -98 -58 -332t58 -330
q56 -98 172 -98z" />
    <glyph glyph-name="one" unicode="1" horiz-adv-x="897" 
d="M473 1458h322v-1458h-410v848h-344v272l33 2q166 10 262 87q97 77 137 249z" />
    <glyph glyph-name="two" unicode="2" horiz-adv-x="1316" 
d="M518 334h725v-334h-1186l9 147q11 161 51 269q27 76 76 137q113 138 344 221l88 31q111 38 158 84q46 45 46 117q0 151 -174 151q-96 0 -141 -50q-45 -49 -45 -155h-389q-2 255 145 397q146 142 441 142q268 0 419 -123q150 -124 150 -319q0 -201 -109 -316
q-113 -116 -344 -211l-108 -45q-82 -33 -115 -63t-41 -80z" />
    <glyph glyph-name="three" unicode="3" horiz-adv-x="1363" 
d="M1059 778q118 -34 186 -127q68 -92 68 -221q0 -206 -158 -334q-159 -129 -446 -129q-318 0 -483 148q-163 147 -165 422h392q0 -128 57 -182t182 -54q96 0 149 41q52 40 52 111q0 87 -52 124t-161 37h-109v281h119q101 0 148 35t47 112q0 64 -48 100t-137 36
q-100 0 -148 -39t-54 -131h-392q11 243 157 363q147 120 442 120q263 0 415 -110t152 -296q0 -97 -58 -181q-57 -83 -155 -126z" />
    <glyph glyph-name="four" unicode="4" horiz-adv-x="1411" 
d="M1161 633h189v-334h-189v-299h-409v299h-680v385l637 774h452v-825zM766 633v444l-367 -444h367z" />
    <glyph glyph-name="five" unicode="5" horiz-adv-x="1300" 
d="M741 967q250 0 379 -140q129 -141 129 -335q0 -243 -170 -383q-171 -142 -426 -142q-239 0 -405 123t-187 340h381q18 -72 74 -113t137 -41q101 0 159 60q58 59 58 156q0 96 -58 155q-58 60 -159 60q-141 0 -198 -111h-377l151 862h959v-334h-649l-50 -231q112 74 252 74
z" />
    <glyph glyph-name="six" unicode="6" horiz-adv-x="1329" 
d="M784 967q237 0 367 -142q127 -143 127 -333q0 -246 -168 -383q-169 -142 -424 -142q-224 0 -375 107q-250 175 -250 614q0 392 161 598q160 205 468 205q238 0 388 -111q152 -113 182 -311h-369q-30 135 -197 135q-127 0 -188 -85q-62 -86 -74 -294q122 142 352 142z
M530 336q60 -60 156 -60t156 60q57 57 57 145q0 91 -57 148t-156 57t-156 -57t-57 -148q0 -88 57 -145z" />
    <glyph glyph-name="seven" unicode="7" horiz-adv-x="1118" 
d="M20 1124v334h1078v-332q-222 -210 -322 -456q-100 -245 -100 -670h-424q0 325 127 631q124 295 323 493h-682z" />
    <glyph glyph-name="eight" unicode="8" horiz-adv-x="1316" 
d="M1053 764q233 -88 233 -350q0 -198 -166 -322q-164 -125 -458 -125q-295 0 -459 125q-166 124 -166 322q0 262 233 350q-172 108 -172 317q0 187 152 298q153 112 412 112q258 0 411 -112q152 -111 152 -298q0 -209 -172 -317zM813 1169q-50 43 -151 43q-102 0 -152 -43
q-53 -47 -53 -122t53 -119q52 -43 152 -43q99 0 151 43q53 44 53 119t-53 122zM492 322q56 -50 170 -50q111 0 172 50q55 46 55 131q0 86 -59 133t-168 47q-110 0 -169 -47t-59 -133q0 -85 58 -131z" />
    <glyph glyph-name="nine" unicode="9" horiz-adv-x="1329" 
d="M1018 1384q250 -175 250 -614q0 -390 -157 -597q-156 -206 -462 -206q-241 0 -394 111q-152 110 -185 311h368q30 -135 207 -135q125 0 183 87q59 87 69 292q-117 -141 -352 -141q-237 0 -365 141q-129 141 -129 334q0 244 168 385q169 139 424 139q224 0 375 -107z
M487 831q59 -59 156 -59t156 59q57 57 57 146q0 90 -57 147q-58 58 -156 58t-156 -58q-57 -57 -57 -147q0 -89 57 -146z" />
    <glyph glyph-name="colon" unicode=":" horiz-adv-x="540" 
d="M479 598h-418v406h418v-406zM479 0h-418v406h418v-406z" />
    <glyph glyph-name="semicolon" unicode=";" horiz-adv-x="540" 
d="M61 598v406h418v-406h-418zM240 0h-179v406h418v-435q0 -342 -362 -342h-56v199h60q119 0 119 135v37z" />
    <glyph glyph-name="less" unicode="&#x3c;" horiz-adv-x="1079" 
d="M1028 1274v-363l-45 -14q-280 -87 -565 -168q285 -81 565 -168l45 -14v-363l-977 363v364z" />
    <glyph glyph-name="equal" unicode="=" horiz-adv-x="1079" 
d="M1028 795h-977v292h977v-292zM1028 371h-977v293h977v-293z" />
    <glyph glyph-name="greater" unicode="&#x3e;" horiz-adv-x="1079" 
d="M51 911v363l977 -363v-364l-977 -363v363l45 14q269 84 566 168q-297 84 -566 168z" />
    <glyph glyph-name="question" unicode="?" horiz-adv-x="1150" 
d="M735 524h-360q0 109 10 162q7 46 43 98q39 59 147 119q71 40 101 70q31 31 37 86q0 125 -142 125q-94 0 -129 -41q-34 -39 -32 -139h-379q-2 244 137 365q140 122 420 122q246 0 389 -103t143 -282q0 -214 -211 -350q-111 -71 -141 -105q-33 -33 -33 -127zM764 0h-418
v406h418v-406z" />
    <glyph glyph-name="at" unicode="@" horiz-adv-x="1884" 
d="M944 1491q398 0 649 -219q250 -220 250 -567q0 -244 -119 -396q-118 -153 -321 -153q-114 0 -194 47q-78 46 -107 133q-76 -166 -281 -166q-161 0 -260 118q-98 117 -98 341q0 214 106 332q105 118 254 118q158 0 234 -118v96h325v-537q0 -94 72 -94q65 0 98 74
q33 73 33 196q0 263 -169 411t-480 148q-295 0 -465 -170q-170 -175 -170 -456q0 -313 178 -482q178 -172 477 -172q256 0 443 80v-227q-187 -74 -443 -74q-413 0 -665 238q-250 237 -250 637q0 370 248 616q246 246 655 246zM930 426q71 0 101 46t30 157q0 99 -31 147
q-30 47 -102 47q-73 0 -104 -46t-31 -148q0 -108 31 -155q32 -48 106 -48z" />
    <glyph glyph-name="A" unicode="A" horiz-adv-x="1525" 
d="M1536 0h-434l-62 190h-571l-61 -190h-418l518 1458h491zM682 864l-107 -336h355l-109 336q-56 174 -69 232q-14 -45 -30 -97.5t-25.5 -84.5t-14.5 -50z" />
    <glyph glyph-name="B" unicode="B" horiz-adv-x="1421" 
d="M1141 782q112 -40 181 -139t69 -213q0 -204 -139 -317t-410 -113h-740v1458h725q267 0 385 -106q119 -107 119 -265q0 -217 -190 -305zM799 1139h-287v-250h287q78 -6 109 59q31 66 0 131q-31 66 -109 60zM512 322h307q148 0 148 133t-148 133h-307v-266z" />
    <glyph glyph-name="C" unicode="C" horiz-adv-x="1546" 
d="M788 -33q-340 0 -542 207q-205 205 -205 555t201 557q198 205 546 205q281 0 480 -152q194 -152 235 -424h-413q-28 108 -109 167q-80 59 -193 59q-156 0 -239 -107q-82 -106 -82 -305t82 -305q83 -107 239 -107q122 0 204 67t104 187h409q-35 -287 -229 -444
q-198 -160 -488 -160z" />
    <glyph glyph-name="D" unicode="D" horiz-adv-x="1536" 
d="M102 1458h637q379 0 568 -196q188 -197 188 -533q0 -335 -188 -532q-189 -197 -568 -197h-637v1458zM512 344h219q338 0 338 385t-338 385h-219v-770z" />
    <glyph glyph-name="E" unicode="E" horiz-adv-x="1304" 
d="M1253 1458v-364h-741v-193h676v-340h-676v-196h741v-365h-1151v1458h1151z" />
    <glyph glyph-name="F" unicode="F" horiz-adv-x="1232" 
d="M1212 1458v-364h-700v-191h655v-344h-655v-559h-410v1458h1110z" />
    <glyph glyph-name="G" unicode="G" horiz-adv-x="1615" 
d="M844 524v312h690v-836h-279l-41 190q-68 -108 -192 -165q-127 -58 -279 -58q-319 0 -510 207q-192 206 -192 555q0 350 201 557q198 205 555 205q297 0 489 -141q197 -145 230 -389h-418q-63 180 -297 180q-157 0 -246 -109q-88 -107 -88 -303q0 -195 93 -303
q94 -109 263 -109q109 0 188 57q79 56 101 150h-268z" />
    <glyph glyph-name="H" unicode="H" horiz-adv-x="1525" 
d="M1014 926v532h409v-1458h-409v561h-502v-561h-410v1458h410v-532h502z" />
    <glyph glyph-name="I" unicode="I" horiz-adv-x="614" 
d="M512 0h-410v1458h410v-1458z" />
    <glyph glyph-name="J" unicode="J" horiz-adv-x="1202" 
d="M575 -33q-245 0 -390 128q-144 127 -144 345v92h391v-92q0 -61 37 -97t102 -36t103 36q37 36 37 97v1018h409v-1018q0 -203 -141 -338q-144 -135 -404 -135z" />
    <glyph glyph-name="K" unicode="K" horiz-adv-x="1529" 
d="M1044 1458h496l-573 -596l573 -862h-483l-379 586l-166 -168v-418h-410v1458h410v-577z" />
    <glyph glyph-name="L" unicode="L" horiz-adv-x="1177" 
d="M512 1458v-1093h645v-365h-1055v1458h410z" />
    <glyph glyph-name="M" unicode="M" horiz-adv-x="1884" 
d="M1016 905l139 553h627v-1458h-389v414q0 402 12 682q-41 -164 -86 -324l-211 -772h-332l-211 772q-45 160 -86 324q13 -304 13 -682v-414h-390v1458h627l139 -553q56 -229 74 -313q18 84 74 313z" />
    <glyph glyph-name="N" unicode="N" horiz-adv-x="1525" 
d="M1034 1221v237h389v-1458h-432l-309 518q-126 215 -201 361q11 -316 11 -641v-238h-390v1458h433l309 -518q107 -182 200 -362q-10 287 -10 643z" />
    <glyph glyph-name="O" unicode="O" horiz-adv-x="1613" 
d="M807 -33q-343 0 -555 209q-211 205 -211 553q0 347 211 555q213 207 555 207t555 -207q211 -208 211 -555q0 -348 -211 -553q-212 -209 -555 -209zM559 430q91 -108 248 -108t248 108q92 107 92 299q0 188 -92 298t-248 110t-248 -110t-92 -298q0 -192 92 -299z" />
    <glyph glyph-name="P" unicode="P" horiz-adv-x="1386" 
d="M102 1458h684q263 0 411 -136q149 -137 149 -372q0 -234 -149 -371t-411 -137h-274v-442h-410v1458zM512 786h244q86 0 134 42t48 122t-48 122t-134 42h-244v-328z" />
    <glyph glyph-name="Q" unicode="Q" horiz-adv-x="1613" 
d="M1573 729q0 -329 -195 -536l150 -166l-195 -181l-172 193q-162 -72 -354 -72q-343 0 -555 209q-211 205 -211 553q0 347 211 555q213 207 555 207t555 -207q211 -208 211 -555zM807 322q43 0 92 10l-141 157l194 179l150 -166q45 92 45 227q0 188 -92 298t-248 110
t-248 -110t-92 -298q0 -190 92 -299q91 -108 248 -108z" />
    <glyph glyph-name="R" unicode="R" horiz-adv-x="1411" 
d="M1335 342l8 -195q5 -91 37 -147h-422q-23 45 -28 147l-6 166q-4 110 -51 151q-46 40 -148 40h-213v-504h-410v1458h717q279 0 412 -121q131 -123 131 -311q0 -114 -58 -203q-58 -90 -169 -139q109 -40 152 -119q42 -78 48 -223zM512 1139v-336h246q182 0 182 168
t-182 168h-246z" />
    <glyph glyph-name="S" unicode="S" horiz-adv-x="1355" 
d="M682 -33q-312 0 -482 137q-169 136 -169 375h393q1 -113 68 -157q65 -43 206 -43q205 0 205 131q0 61 -47 90q-46 28 -182 51l-115 18q-506 83 -506 471q0 207 155 329t443 122q291 0 451 -122t172 -359h-385q-5 88 -60 129q-56 41 -172 41q-186 0 -186 -121
q0 -62 47 -92q48 -31 166 -52l121 -20q271 -45 396 -153q124 -108 124 -302q0 -230 -170 -352q-169 -121 -473 -121z" />
    <glyph glyph-name="T" unicode="T" horiz-adv-x="1310" 
d="M20 1458h1270v-364h-430v-1094h-409v1094h-431v364z" />
    <glyph glyph-name="U" unicode="U" horiz-adv-x="1474" 
d="M737 -33q-290 0 -471 154q-184 153 -184 438v899h410v-903q0 -115 64 -176q65 -62 181 -62q117 0 182 62q64 61 64 176v903h410v-899q0 -288 -179 -440q-181 -152 -477 -152z" />
    <glyph glyph-name="V" unicode="V" horiz-adv-x="1484" 
d="M907 920l166 538h422l-498 -1458h-491l-516 1458h438l168 -538q81 -258 158 -562q70 301 153 562z" />
    <glyph glyph-name="W" unicode="W" horiz-adv-x="2062" 
d="M1550 1038l95 420h428l-394 -1458h-458l-91 432q-65 318 -98 533q-41 -254 -100 -533l-90 -432h-459l-393 1458h428l94 -420q90 -401 123 -583q46 284 108 583l86 420h404l86 -420q62 -299 108 -583q34 181 123 583z" />
    <glyph glyph-name="X" unicode="X" horiz-adv-x="1449" 
d="M1430 1458l-467 -713l497 -745h-475l-86 133q-71 109 -180 285q-5 -7 -65 -103q-87 -141 -113 -182l-86 -133h-465l497 741l-467 717h472l79 -127q102 -162 160 -262q86 153 158 262l80 127h461z" />
    <glyph glyph-name="Y" unicode="Y" horiz-adv-x="1466" 
d="M938 1296l90 162h449l-535 -897v-561h-410v561l-542 897h461l94 -164q166 -292 200 -356q96 188 193 358z" />
    <glyph glyph-name="Z" unicode="Z" horiz-adv-x="1353" 
d="M1010 365h293v-365h-1252v315l430 482q37 40 133 145.5t142 155.5q-335 -4 -424 -4h-260v364h1220v-311l-432 -485q-29 -32 -120 -132.5t-154 -169.5q418 5 424 5z" />
    <glyph glyph-name="bracketleft" unicode="[" horiz-adv-x="786" 
d="M766 -401h-664v2015h664v-311h-309v-1393h309v-311z" />
    <glyph glyph-name="backslash" unicode="\" horiz-adv-x="864" 
d="M874 0h-362l-522 1458h362z" />
    <glyph glyph-name="bracketright" unicode="]" horiz-adv-x="786" 
d="M684 -401h-664v311h310v1393h-310v311h664v-2015z" />
    <glyph glyph-name="asciicircum" unicode="^" horiz-adv-x="870" 
d="M264 1458h342l264 -577h-317l-82 209q0 4 -15 42l-20 50q-4 -13 -35 -92l-84 -209h-317z" />
    <glyph glyph-name="underscore" unicode="_" horiz-adv-x="1060" 
d="M1063 -348h-1065v266h1065v-266z" />
    <glyph glyph-name="grave" unicode="`" horiz-adv-x="819" 
d="M698 1163h-295l-282 295h395z" />
    <glyph glyph-name="a" unicode="a" horiz-adv-x="1181" 
d="M1161 0h-379q-21 47 -26 109q-108 -134 -336 -134q-175 0 -282 88t-107 242q0 150 100 231t322 99l170 14q67 6 97 27t30 61q0 84 -134 84q-82 0 -115 -23q-35 -24 -42 -89h-373q15 190 144 280q131 92 391 92q497 0 497 -331v-560q0 -134 43 -190zM549 217
q201 0 201 199v61q-23 -30 -95 -41l-120 -12q-121 -12 -121 -105q0 -47 36 -74q37 -28 99 -28z" />
    <glyph glyph-name="b" unicode="b" horiz-adv-x="1243" 
d="M752 1081q208 0 329 -149t121 -404q0 -254 -121 -403q-121 -150 -329 -150q-202 0 -303 156v-131h-367v1458h377v-516q102 139 293 139zM455 528q0 -258 184 -258t184 267q0 249 -184 249t-184 -258z" />
    <glyph glyph-name="c" unicode="c" horiz-adv-x="1169" 
d="M604 -25q-257 0 -409 152q-154 152 -154 401q0 253 154 404q149 149 409 149q229 0 373 -117q145 -118 166 -319h-371q-22 135 -168 135q-184 0 -184 -252q0 -249 184 -249q161 0 176 155h369q-12 -210 -160 -334q-151 -125 -385 -125z" />
    <glyph glyph-name="d" unicode="d" horiz-adv-x="1241" 
d="M782 944v514h377v-1458h-366v127q-105 -152 -301 -152q-208 0 -330 150q-121 149 -121 403q0 255 121 404t330 149q185 0 290 -137zM420 520q0 -250 184 -250t184 258t-184 258t-184 -266z" />
    <glyph glyph-name="e" unicode="e" horiz-adv-x="1224" 
d="M1174 487v-67h-775q37 -178 211 -178q131 0 187 92h352q-43 -169 -191 -264q-151 -95 -348 -95q-253 0 -411 152t-158 401q0 252 156 402q155 151 409 151q255 0 412 -157q156 -158 156 -437zM602 815q-169 0 -203 -172h412q-37 172 -209 172z" />
    <glyph glyph-name="f" unicode="f" horiz-adv-x="792" 
d="M752 1184h-82q-123 0 -123 -99v-28h205v-266h-205v-791h-377v791h-150v266h150v43q0 165 103 267q102 101 311 101q77 0 168 -10v-274z" />
    <glyph glyph-name="g" unicode="g" horiz-adv-x="1241" 
d="M791 928v129h368v-1028q0 -216 -146 -335q-147 -120 -413 -120q-252 0 -389 108t-143 298h370q6 -130 172 -130q84 0 128 44t44 120v164q-95 -137 -282 -137q-204 0 -332 147q-127 145 -127 375q0 231 123 375q122 143 328 143q204 0 299 -153zM420 555q0 -219 184 -219
t184 227q0 223 -184 223t-184 -231z" />
    <glyph glyph-name="h" unicode="h" horiz-adv-x="1226" 
d="M780 1081q164 0 264 -103q101 -104 101 -294v-684h-377v604q0 158 -143 158q-73 0 -119 -46q-47 -47 -47 -130v-586h-377v1458h377v-530q127 153 321 153z" />
    <glyph glyph-name="i" unicode="i" horiz-adv-x="540" 
d="M449 1163h-355v295h355v-295zM459 0h-377v1057h377v-1057z" />
    <glyph glyph-name="j" unicode="j" horiz-adv-x="540" 
d="M449 1163h-355v295h355v-295zM63 -406q-20 0 -112 5v280h31q35 0 51 4q19 5 34 27t15 63v1084h377v-1129q0 -176 -93 -255q-92 -79 -303 -79z" />
    <glyph glyph-name="k" unicode="k" horiz-adv-x="1245" 
d="M1245 0h-428l-242 387l-126 -135v-252h-367v1458h367v-799l354 398h422l-396 -418z" />
    <glyph glyph-name="l" unicode="l" horiz-adv-x="540" 
d="M459 0h-377v1458h377v-1458z" />
    <glyph glyph-name="m" unicode="m" horiz-adv-x="1863" 
d="M1409 1081q174 0 273 -105q100 -106 100 -302v-674h-377v604q0 79 -31 119q-30 39 -102 39q-70 0 -111 -44t-41 -132v-586h-377v604q0 80 -30 119t-103 39q-69 0 -110 -44t-41 -132v-586h-377v1057h369v-139q123 163 297 163q234 0 325 -182q145 182 336 182z" />
    <glyph glyph-name="n" unicode="n" horiz-adv-x="1226" 
d="M780 1081q164 0 264 -103q101 -104 101 -294v-684h-377v604q0 158 -143 158q-73 0 -119 -46q-47 -47 -47 -130v-586h-377v1057h369v-139q127 163 329 163z" />
    <glyph glyph-name="o" unicode="o" horiz-adv-x="1220" 
d="M1026 127q-157 -152 -416 -152q-258 0 -415 152q-154 152 -154 401q0 253 154 404q150 149 415 149q266 0 416 -149q154 -152 154 -404q0 -249 -154 -401zM420 528q0 -258 190 -258q191 0 191 258t-191 258q-190 0 -190 -258z" />
    <glyph glyph-name="p" unicode="p" horiz-adv-x="1243" 
d="M752 1081q208 0 329 -149t121 -404q0 -254 -121 -403q-121 -150 -329 -150q-191 0 -293 140v-516h-377v1458h367v-131q100 155 303 155zM455 528q0 -258 184 -258t184 267q0 249 -184 249t-184 -258z" />
    <glyph glyph-name="q" unicode="q" horiz-adv-x="1241" 
d="M793 930v127h366v-1458h-377v514q-106 -138 -290 -138q-208 0 -330 150q-121 149 -121 403q0 255 121 404t330 149q196 0 301 -151zM420 520q0 -250 184 -250t184 258t-184 258t-184 -266z" />
    <glyph glyph-name="r" unicode="r" horiz-adv-x="851" 
d="M735 1073q43 0 76 -6v-338h-98q-254 0 -254 -278v-451h-377v1057h369v-209q55 225 284 225z" />
    <glyph glyph-name="s" unicode="s" horiz-adv-x="1105" 
d="M553 -33q-265 0 -392 86q-126 85 -141 283h365q7 -71 48 -100t128 -29q150 0 150 80q0 39 -35 60q-34 21 -125 36l-152 23q-366 52 -366 329q0 169 130 257q131 89 378 89q491 0 514 -366h-346q-4 127 -168 127q-140 0 -140 -80q0 -37 30 -55q31 -19 101 -29l181 -25
q191 -27 281 -108q91 -82 91 -228q0 -168 -139 -259t-393 -91z" />
    <glyph glyph-name="t" unicode="t" horiz-adv-x="786" 
d="M745 1057v-266h-198v-422q0 -59 25 -77t96 -18h77v-274q-91 -10 -159 -10q-224 0 -320 78t-96 256v467h-150v266h150v319h377v-319h198z" />
    <glyph glyph-name="u" unicode="u" horiz-adv-x="1226" 
d="M768 471v586h377v-1057h-369v139q-128 -164 -330 -164q-163 0 -264 104q-100 103 -100 294v684h377v-604q0 -158 143 -158q73 0 119 46q47 47 47 130z" />
    <glyph glyph-name="v" unicode="v" horiz-adv-x="1183" 
d="M786 1012l13 45h385l-363 -1057h-459l-362 1057h403l13 -45q94 -339 184 -699q169 638 186 699z" />
    <glyph glyph-name="w" unicode="w" horiz-adv-x="1816" 
d="M1333 768l80 289h404l-342 -1057h-398l-102 365q-40 138 -68 258q-33 -145 -65 -258l-103 -365h-397l-342 1057h403l80 -289q30 -108 92 -348q31 140 87 350l75 287h342l76 -287q49 -192 86 -350q62 240 92 348z" />
    <glyph glyph-name="x" unicode="x" horiz-adv-x="1173" 
d="M1153 1057l-358 -512l379 -545h-426l-15 23q0 1 -18 29t-53.5 85t-77.5 123q-3 -4 -15.5 -23t-22.5 -35q-37 -58 -44 -69q-28 -44 -44 -68q-25 -38 -26 -40l-16 -25h-416l381 541l-361 516h426l23 -35q47 -72 123 -195q76 123 123 195l22 35h416z" />
    <glyph glyph-name="y" unicode="y" horiz-adv-x="1183" 
d="M786 1012l13 45h385l-363 -1057q-78 -228 -200 -317q-125 -89 -392 -89q-41 0 -133 5v286h105q147 0 147 125q0 62 -49 197l-299 850h403l13 -43q117 -411 188 -729q50 234 182 727z" />
    <glyph glyph-name="z" unicode="z" horiz-adv-x="1054" 
d="M731 272h273v-272h-953v229l336 406q46 59 129 151q-62 -2 -209 -2h-256v273h936v-230l-336 -405q-53 -67 -129 -152q62 2 209 2z" />
    <glyph glyph-name="braceleft" unicode="{" horiz-adv-x="792" 
d="M772 -401h-129q-424 0 -424 401v322q0 64 -39 95q-40 33 -129 34v311q89 1 129 34q39 32 39 95v321q0 402 424 402h129v-305h-76q-77 0 -106 -29t-29 -106v-371q0 -187 -242 -195v-4q242 -8 242 -194v-373q0 -78 29 -107q28 -28 106 -28h76v-303z" />
    <glyph glyph-name="bar" unicode="|" horiz-adv-x="512" 
d="M410 -418h-308v2050h308v-2050z" />
    <glyph glyph-name="braceright" unicode="}" horiz-adv-x="792" 
d="M150 -401h-130v303h76q79 0 107 28t28 107v373q0 186 242 194v4q-242 8 -242 195v371q0 78 -28 106q-29 29 -107 29h-76v305h130q423 0 423 -402v-321q0 -63 39 -95q40 -33 129 -34v-311q-89 -1 -129 -34q-39 -31 -39 -95v-322q0 -401 -423 -401z" />
    <glyph glyph-name="asciitilde" unicode="~" horiz-adv-x="1079" 
d="M725 530q-91 0 -217 64q-80 39 -117 39q-43 0 -65 -22t-29 -81h-246q0 187 79 291q80 105 226 105q89 0 215 -62q87 -41 117 -41q44 0 65 24q22 25 29 79h246q0 -186 -79 -290q-80 -106 -224 -106z" />
    <glyph glyph-name="uni00A0" unicode="&#xa0;" horiz-adv-x="509" 
 />
    <glyph glyph-name="exclamdown" unicode="&#xa1;" horiz-adv-x="540" 
d="M479 795h-418v405h418v-405zM475 -258h-409v340l108 592h195l106 -592v-340z" />
    <glyph glyph-name="cent" unicode="&#xa2;" horiz-adv-x="1169" 
d="M780 434h369q-10 -194 -136 -315q-125 -121 -335 -139v-218h-143v218q-231 21 -362 167q-132 147 -132 381t132 381t362 168v209h143v-209q195 -18 321 -133t144 -299h-371q-18 96 -94 123v-479q90 35 102 145zM420 528q0 -198 115 -239v481q-115 -41 -115 -242z" />
    <glyph glyph-name="sterling" unicode="&#xa3;" horiz-adv-x="1196" 
d="M590 365h575v-365h-1104v315q106 28 153 74q46 45 46 119q0 46 -24 119h-216v159h152q-74 181 -74 273q0 202 148 317t397 115q496 0 520 -481h-377q0 164 -145 164q-127 0 -127 -115q0 -53 61 -209l25 -64h377v-159h-326q11 -60 11 -90q0 -94 -72 -172z" />
    <glyph glyph-name="currency" unicode="&#xa4;" horiz-adv-x="1196" 
d="M1155 1184l-145 -146q108 -134 108 -309t-108 -309l145 -146l-113 -112l-149 149q-131 -84 -289 -84q-164 0 -295 90l-155 -155l-113 112l152 152q-103 138 -103 303t103 303l-152 152l113 112l155 -155q131 90 295 90q158 0 289 -84l149 149zM453 578q62 -62 151 -62
q90 0 154 62q61 57 61 151q0 93 -61 154q-62 59 -154 59q-91 0 -151 -59q-64 -62 -64 -154q0 -93 64 -151z" />
    <glyph glyph-name="yen" unicode="&#xa5;" horiz-adv-x="1466" 
d="M1028 1458h449l-478 -801h236v-159h-293v-152h293v-160h-293v-186h-410v186h-301v160h301v152h-301v159h244l-485 801h461l94 -164q166 -292 200 -356q96 188 193 358z" />
    <glyph glyph-name="brokenbar" unicode="&#xa6;" horiz-adv-x="512" 
d="M410 815h-308v817h308v-817zM410 -418h-308v817h308v-817z" />
    <glyph glyph-name="section" unicode="&#xa7;" horiz-adv-x="1273" 
d="M1243 479q0 -205 -233 -301q114 -99 114 -229q0 -181 -126 -274t-365 -93q-467 0 -490 367h346q4 -127 148 -127q57 0 87 26q32 27 32 72q0 38 -25 65q-24 25 -96 66l-258 150q-177 101 -260 186q-86 84 -86 207q0 205 233 301q-114 99 -114 229q0 182 125 274
q126 93 366 93q466 0 489 -367h-346q-4 127 -147 127q-57 0 -87 -26q-32 -27 -32 -72q0 -37 25 -64q26 -28 96 -67l258 -150q171 -100 262 -186q84 -84 84 -207zM530 471l234 -135q110 56 110 135q0 34 -27 61q-25 25 -104 70l-233 135q-111 -57 -111 -135q0 -33 28 -61
q27 -27 103 -70z" />
    <glyph glyph-name="dieresis" unicode="&#xa8;" horiz-adv-x="819" 
d="M358 1163h-354v295h354v-295zM815 1163h-354v295h354v-295z" />
    <glyph glyph-name="copyright" unicode="&#xa9;" horiz-adv-x="1648" 
d="M1382 188q-224 -221 -559 -221q-331 0 -557 221q-225 220 -225 541q0 323 225 543q225 219 557 219q334 0 559 -219q226 -221 226 -543q0 -320 -226 -541zM455 362q144 -147 370 -147t373 147q145 145 145 367q0 220 -145 369q-149 145 -373 145q-225 0 -370 -145
q-148 -148 -148 -369t148 -367zM829 334q-180 0 -287 107q-108 108 -108 288t108 288q107 107 287 107q167 0 268 -88q102 -88 109 -235h-270q-6 100 -107 100q-118 0 -118 -172t118 -172q110 0 115 115h266q-5 -155 -107 -246q-104 -92 -274 -92z" />
    <glyph glyph-name="ordfeminine" unicode="&#xaa;" horiz-adv-x="1036" 
d="M977 537h-318q-13 36 -20 94q-86 -115 -281 -115q-152 0 -246 75q-96 76 -96 204q0 142 87 211q88 70 282 86l137 12q62 5 84 19q23 15 23 55q0 71 -113 71q-70 0 -97 -21q-28 -22 -34 -83h-322q10 167 119 250q107 82 336 82q432 0 432 -289v-475q0 -109 27 -176z
M465 735q164 0 164 168v43q-20 -20 -76 -26l-98 -11q-105 -7 -105 -88q0 -86 115 -86z" />
    <glyph glyph-name="guillemotleft" unicode="&#xab;" horiz-adv-x="972" 
d="M451 78l-349 284v363l349 285v-336l-160 -129l160 -131v-336zM522 725l348 285v-336l-159 -129l159 -131v-336l-348 284v363z" />
    <glyph glyph-name="logicalnot" unicode="&#xac;" horiz-adv-x="1079" 
d="M51 635v313h977v-635h-342v322h-635z" />
    <glyph glyph-name="uni00AD" unicode="&#xad;" horiz-adv-x="731" 
d="M680 416h-629v313h629v-313z" />
    <glyph glyph-name="registered" unicode="&#xae;" horiz-adv-x="1142" 
d="M180 1337q160 154 391 154q232 0 392 -154q159 -157 159 -381q0 -223 -159 -376q-157 -156 -392 -156q-233 0 -391 156q-160 154 -160 376q0 223 160 381zM276 666q122 -117 295 -117q179 0 297 117q119 117 119 290q0 176 -119 293q-122 117 -297 117q-179 0 -297 -117
t-118 -293q0 -174 120 -290zM803 825l4 -69q1 -45 20 -60h-165q-14 26 -15 60l-4 57q-2 35 -15 47q-14 12 -46 12h-68v-176h-160v529h260q94 0 147 -42q52 -42 52 -118q0 -79 -70 -119q55 -30 60 -121zM514 1096v-103h78q55 0 55 51q0 52 -55 52h-78z" />
    <glyph glyph-name="overscore" unicode="&#xaf;" horiz-adv-x="819" 
d="M772 1163h-725v236h725v-236z" />
    <glyph glyph-name="degree" unicode="&#xb0;" horiz-adv-x="737" 
d="M616 913q-99 -98 -247 -98q-149 0 -248 98q-101 95 -101 234q0 142 101 237t248 95q146 0 247 -95t101 -237q0 -139 -101 -234zM369 1018q55 0 92 37t37 92t-37 91q-38 36 -92 36q-55 0 -93 -36q-36 -35 -36 -91q0 -54 38 -92q37 -37 91 -37z" />
    <glyph glyph-name="plusminus" unicode="&#xb1;" horiz-adv-x="1079" 
d="M711 1208v-235h317v-314h-317v-235h-342v235h-318v314h318v235h342zM1028 0h-977v313h977v-313z" />
    <glyph glyph-name="two.sups" unicode="&#xb2;" horiz-adv-x="749" 
d="M463 1384l-39 -18q-79 -40 -94 -78h385v-207h-684l6 95q17 242 252 354l67 33q64 30 88 53q25 23 25 51q0 72 -78 72q-96 0 -98 -113h-242q35 320 340 320q150 0 239 -71t89 -187q0 -106 -57 -171q-58 -65 -199 -133z" />
    <glyph glyph-name="three.sups" unicode="&#xb3;" horiz-adv-x="765" 
d="M616 1534q129 -62 129 -199q0 -122 -93 -197t-253 -75q-368 0 -368 338h239q0 -75 27 -103t94 -28q98 0 98 76q0 84 -104 84h-70v178h72q51 0 74 15q22 15 22 58q0 68 -88 68q-53 0 -76 -20t-28 -74h-240q12 291 346 291q154 0 240 -65t86 -177q0 -107 -107 -170z" />
    <glyph glyph-name="acute" unicode="&#xb4;" horiz-adv-x="819" 
d="M426 1163h-295l182 295h396z" />
    <glyph glyph-name="uni00B5" unicode="&#xb5;" horiz-adv-x="1228" 
d="M770 471v586h377v-1057h-369v139q-122 -164 -317 -164h-10v-376h-369v1458h379v-604q0 -158 143 -158q73 0 119 46q47 47 47 130z" />
    <glyph glyph-name="paragraph" unicode="&#xb6;" horiz-adv-x="1269" 
d="M764 0h-275v743q-203 0 -326 94q-122 93 -122 259q0 362 483 362h643v-1458h-274v1206h-129v-1206z" />
    <glyph glyph-name="middot" unicode="&#xb7;" horiz-adv-x="540" 
d="M479 526h-418v406h418v-406z" />
    <glyph glyph-name="cedilla" unicode="&#xb8;" horiz-adv-x="819" 
d="M422 -88q104 0 166 -45q61 -45 61 -115q0 -93 -83 -146q-82 -52 -247 -52q-75 0 -149 14v123q46 -8 115 -8q123 0 123 77q0 70 -117 70q-27 0 -47 -2v78l82 104h145l-86 -100q10 2 37 2z" />
    <glyph glyph-name="one.sups" unicode="&#xb9;" horiz-adv-x="509" 
d="M264 1927h195v-846h-248v516h-180v172q183 0 233 158z" />
    <glyph glyph-name="ordmasculine" unicode="&#xba;" horiz-adv-x="1034" 
d="M879 647q-134 -131 -363 -131t-360 131q-136 130 -136 348q0 217 136 351q131 131 360 131q231 0 365 -131q133 -133 133 -351q0 -219 -135 -348zM516 774q168 0 168 221q0 224 -168 224q-166 0 -166 -224q0 -221 166 -221z" />
    <glyph glyph-name="guillemotright" unicode="&#xbb;" horiz-adv-x="972" 
d="M262 545l-160 129v336l349 -285v-363l-349 -284v336zM522 674v336l348 -285v-363l-348 -284v336l160 131z" />
    <glyph glyph-name="onequarter" unicode="&#xbc;" horiz-adv-x="1470" 
d="M459 612h-248v516h-180v172q183 0 233 158h195v-846zM195 0l778 1458h221l-778 -1458h-221zM1341 360h99v-198h-99v-162h-247v162h-369v235l365 449h251v-486zM1098 360v234l-189 -234h189z" />
    <glyph glyph-name="onehalf" unicode="&#xbd;" horiz-adv-x="1583" 
d="M459 1458v-846h-248v516h-180v172q183 0 233 158h195zM223 0l778 1458h222l-779 -1458h-221zM1296 303l-39 -18q-79 -40 -94 -78h385v-207h-684l6 94q17 243 252 355l68 32q62 29 88 54q25 23 25 51q0 71 -78 71q-98 0 -99 -112h-241q33 319 340 319q150 0 238 -70
q89 -71 89 -188q0 -106 -57 -171q-56 -64 -199 -132z" />
    <glyph glyph-name="threequarters" unicode="&#xbe;" horiz-adv-x="1726" 
d="M745 866q0 -122 -93 -197t-253 -75q-368 0 -368 338h239q0 -74 27 -103q27 -28 94 -28q98 0 98 76q0 84 -104 84h-70v178h72q51 0 74 15q22 15 22 58q0 68 -88 68q-53 0 -76 -20t-28 -74h-240q12 291 346 291q154 0 240 -65t86 -177q0 -107 -107 -170q129 -61 129 -199z
M436 0l778 1458h222l-779 -1458h-221zM1597 360h99v-198h-99v-162h-247v162h-369v235l365 449h251v-486zM1354 360v234l-189 -234h189z" />
    <glyph glyph-name="questiondown" unicode="&#xbf;" horiz-adv-x="1150" 
d="M805 795h-418v405h418v-405zM563 -291q-244 0 -389 104q-143 103 -143 281q0 214 211 350q111 71 141 105q33 33 33 127h360q0 -109 -10 -162q-7 -46 -43 -98q-38 -58 -148 -119q-69 -39 -100 -70t-37 -86q0 -125 142 -125q94 0 129 41q34 39 32 140h379
q2 -245 -137 -366q-140 -122 -420 -122z" />
    <glyph glyph-name="Agrave" unicode="&#xc0;" horiz-adv-x="1525" 
d="M719 1841l182 -295h-295l-282 295h395zM1536 0h-434l-62 190h-571l-61 -190h-418l518 1458h491zM682 864l-107 -336h355l-109 336q-56 174 -69 232q-14 -45 -30 -97.5t-25.5 -84.5t-14.5 -50z" />
    <glyph glyph-name="Aacute" unicode="&#xc1;" horiz-adv-x="1525" 
d="M793 1841h395l-283 -295h-295zM1536 0h-434l-62 190h-571l-61 -190h-418l518 1458h491zM682 864l-107 -336h355l-109 336q-56 174 -69 232q-14 -45 -30 -97.5t-25.5 -84.5t-14.5 -50z" />
    <glyph glyph-name="Acircumflex" unicode="&#xc2;" horiz-adv-x="1525" 
d="M866 1546l-112 119l-115 -119h-330l244 295h393l248 -295h-328zM1536 0h-434l-62 190h-571l-61 -190h-418l518 1458h491zM682 864l-107 -336h355l-109 336q-56 174 -69 232q-14 -45 -30 -97.5t-25.5 -84.5t-14.5 -50z" />
    <glyph glyph-name="Atilde" unicode="&#xc3;" horiz-adv-x="1525" 
d="M627 1612q-54 0 -58 -66h-217q0 142 66 219q66 76 168 76q75 0 176 -37q78 -28 119 -28q53 0 57 65h217q0 -144 -65 -219q-66 -76 -168 -76q-75 0 -174 37q-87 29 -121 29zM1536 0h-434l-62 190h-571l-61 -190h-418l518 1458h491zM682 864l-107 -336h355l-109 336
q-56 174 -69 232q-14 -45 -30 -97.5t-25.5 -84.5t-14.5 -50z" />
    <glyph glyph-name="Adieresis" unicode="&#xc4;" horiz-adv-x="1525" 
d="M348 1841h354v-295h-354v295zM805 1841h354v-295h-354v295zM1536 0h-434l-62 190h-571l-61 -190h-418l518 1458h491zM682 864l-107 -336h355l-109 336q-56 174 -69 232q-14 -45 -30 -97.5t-25.5 -84.5t-14.5 -50z" />
    <glyph glyph-name="Aring" unicode="&#xc5;" horiz-adv-x="1525" 
d="M1536 0h-434l-62 190h-571l-61 -190h-418l491 1382q-63 78 -63 191q0 139 98 227q94 88 238 88t239 -88q97 -91 97 -227q0 -110 -64 -189zM838 1655q-33 33 -83 33t-83 -33t-33 -82t33 -82t82 -33q50 0 84 33t34 82t-34 82zM682 864l-107 -336h355l-109 336
q-56 174 -69 232q-14 -45 -30 -97.5t-25.5 -84.5t-14.5 -50z" />
    <glyph glyph-name="AE" unicode="&#xc6;" horiz-adv-x="2191" 
d="M2140 1458v-364h-659v-193h594v-340h-594v-196h659v-365h-1057v272h-546l-127 -272h-420l686 1458h1464zM928 1120l-236 -510h391v510h-155z" />
    <glyph glyph-name="Ccedilla" unicode="&#xc7;" horiz-adv-x="1546" 
d="M1096 571h409q-30 -261 -198 -417q-171 -159 -424 -183l-82 -94q10 2 37 2q104 0 166 -45q61 -45 61 -115q0 -93 -83 -146q-82 -52 -247 -52q-75 0 -149 14v123q46 -8 114 -8q123 0 123 78q0 69 -116 69q-28 0 -48 -2v78l76 96q-321 17 -506 221q-188 206 -188 539
q0 350 201 557q198 205 546 205q281 0 480 -152q194 -152 235 -424h-413q-28 108 -109 167q-80 59 -193 59q-156 0 -239 -107q-82 -106 -82 -305t82 -305q83 -107 239 -107q122 0 204 67t104 187z" />
    <glyph glyph-name="Egrave" unicode="&#xc8;" horiz-adv-x="1304" 
d="M643 1841l182 -295h-295l-282 295h395zM1253 1458v-364h-741v-193h676v-340h-676v-196h741v-365h-1151v1458h1151z" />
    <glyph glyph-name="Eacute" unicode="&#xc9;" horiz-adv-x="1304" 
d="M717 1841h395l-283 -295h-294zM1253 1458v-364h-741v-193h676v-340h-676v-196h741v-365h-1151v1458h1151z" />
    <glyph glyph-name="Ecircumflex" unicode="&#xca;" horiz-adv-x="1304" 
d="M791 1546l-113 119l-115 -119h-330l244 295h393l248 -295h-327zM1253 1458v-364h-741v-193h676v-340h-676v-196h741v-365h-1151v1458h1151z" />
    <glyph glyph-name="Edieresis" unicode="&#xcb;" horiz-adv-x="1304" 
d="M272 1841h355v-295h-355v295zM729 1841h354v-295h-354v295zM1253 1458v-364h-741v-193h676v-340h-676v-196h741v-365h-1151v1458h1151z" />
    <glyph glyph-name="Igrave" unicode="&#xcc;" horiz-adv-x="614" 
d="M440 1546h-262l-201 295h363zM512 0h-410v1458h410v-1458z" />
    <glyph glyph-name="Iacute" unicode="&#xcd;" horiz-adv-x="614" 
d="M641 1841l-201 -295h-262l101 295h362zM512 0h-410v1458h410v-1458z" />
    <glyph glyph-name="Icircumflex" unicode="&#xce;" horiz-adv-x="614" 
d="M385 1546l-80 115l-84 -115h-305l201 295h372l205 -295h-309zM512 0h-410v1458h410v-1458z" />
    <glyph glyph-name="Idieresis" unicode="&#xcf;" horiz-adv-x="614" 
d="M256 1546h-313v295h313v-295zM670 1546h-314v295h314v-295zM512 0h-410v1458h410v-1458z" />
    <glyph glyph-name="Eth" unicode="&#xd0;" horiz-adv-x="1583" 
d="M150 1458h636q382 0 568 -196q188 -197 188 -533q0 -335 -188 -532q-186 -197 -568 -197h-636v645h-150v195h150v618zM559 344h219q338 0 338 385t-338 385h-219v-274h281v-195h-281v-301z" />
    <glyph glyph-name="Ntilde" unicode="&#xd1;" horiz-adv-x="1525" 
d="M637 1612q-53 0 -57 -66h-218q0 142 66 219q66 76 168 76q77 0 176 -37q78 -28 119 -28q53 0 57 65h217q0 -144 -65 -219q-66 -76 -168 -76q-73 0 -174 37q-87 29 -121 29zM1034 1221v237h389v-1458h-432l-309 518q-126 215 -201 361q11 -316 11 -641v-238h-390v1458h433
l309 -518q107 -182 200 -362q-10 287 -10 643z" />
    <glyph glyph-name="Ograve" unicode="&#xd2;" horiz-adv-x="1613" 
d="M954 1579h-295l-282 295h395zM807 -33q-343 0 -555 209q-211 205 -211 553q0 347 211 555q213 207 555 207t555 -207q211 -208 211 -555q0 -348 -211 -553q-212 -209 -555 -209zM559 430q91 -108 248 -108t248 108q92 107 92 299q0 188 -92 298t-248 110t-248 -110
t-92 -298q0 -192 92 -299z" />
    <glyph glyph-name="Oacute" unicode="&#xd3;" horiz-adv-x="1613" 
d="M958 1579h-294l182 295h395zM807 -33q-343 0 -555 209q-211 205 -211 553q0 347 211 555q213 207 555 207t555 -207q211 -208 211 -555q0 -348 -211 -553q-212 -209 -555 -209zM559 430q91 -108 248 -108t248 108q92 107 92 299q0 188 -92 298t-248 110t-248 -110
t-92 -298q0 -192 92 -299z" />
    <glyph glyph-name="Ocircumflex" unicode="&#xd4;" horiz-adv-x="1613" 
d="M920 1579l-113 119l-115 -119h-330l244 295h393l248 -295h-327zM807 1491q342 0 555 -207q211 -208 211 -555q0 -348 -211 -553q-212 -209 -555 -209t-555 209q-211 205 -211 553q0 347 211 555q213 207 555 207zM559 430q91 -108 248 -108t248 108q92 107 92 299
q0 188 -92 298t-248 110t-248 -110t-92 -298q0 -192 92 -299z" />
    <glyph glyph-name="Otilde" unicode="&#xd5;" horiz-adv-x="1613" 
d="M623 1579h-217q0 144 65 219q66 76 168 76q75 0 176 -37q81 -29 119 -29q52 0 57 66h217q0 -144 -65 -219q-66 -76 -168 -76q-75 0 -174 37q-87 29 -121 29q-52 0 -57 -66zM807 -33q-343 0 -555 209q-211 205 -211 553q0 347 211 555q213 207 555 207t555 -207
q211 -208 211 -555q0 -348 -211 -553q-212 -209 -555 -209zM559 430q91 -108 248 -108t248 108q92 107 92 299q0 188 -92 298t-248 110t-248 -110t-92 -298q0 -192 92 -299z" />
    <glyph glyph-name="Odieresis" unicode="&#xd6;" horiz-adv-x="1613" 
d="M756 1579h-355v295h355v-295zM1212 1579h-354v295h354v-295zM807 -33q-343 0 -555 209q-211 205 -211 553q0 347 211 555q213 207 555 207t555 -207q211 -208 211 -555q0 -348 -211 -553q-212 -209 -555 -209zM559 430q91 -108 248 -108t248 108q92 107 92 299
q0 188 -92 298t-248 110t-248 -110t-92 -298q0 -192 92 -299z" />
    <glyph glyph-name="multiply" unicode="&#xd7;" horiz-adv-x="1079" 
d="M797 1208l221 -221l-256 -254l256 -256l-221 -221l-256 256l-258 -256l-222 221l256 256l-256 254l222 221l258 -256z" />
    <glyph glyph-name="Oslash" unicode="&#xd8;" horiz-adv-x="1613" 
d="M1565 1434l-168 -189q176 -208 176 -516q0 -348 -211 -553q-212 -209 -555 -209q-247 0 -438 115l-170 -193l-152 136l168 190q-174 201 -174 514q0 347 211 555q213 207 555 207q245 0 436 -115l170 193zM467 729q0 -107 31 -194l489 552q-79 50 -180 50
q-156 0 -248 -110t-92 -298zM807 322q157 0 248 108q92 109 92 299q0 107 -33 197l-489 -555q77 -49 182 -49z" />
    <glyph glyph-name="Ugrave" unicode="&#xd9;" horiz-adv-x="1474" 
d="M885 1546h-295l-283 295h395zM737 -33q-290 0 -471 154q-184 153 -184 438v899h410v-903q0 -115 64 -176q65 -62 181 -62q117 0 182 62q64 61 64 176v903h410v-899q0 -288 -179 -440q-181 -152 -477 -152z" />
    <glyph glyph-name="Uacute" unicode="&#xda;" horiz-adv-x="1474" 
d="M889 1546h-295l182 295h395zM737 -33q-290 0 -471 154q-184 153 -184 438v899h410v-903q0 -115 64 -176q65 -62 181 -62q117 0 182 62q64 61 64 176v903h410v-899q0 -288 -179 -440q-181 -152 -477 -152z" />
    <glyph glyph-name="Ucircumflex" unicode="&#xdb;" horiz-adv-x="1474" 
d="M850 1546l-113 119l-114 -119h-330l244 295h393l248 -295h-328zM983 555v903h410v-899q0 -288 -179 -440q-181 -152 -477 -152q-290 0 -471 154q-184 153 -184 438v899h410v-903q0 -115 64 -176q65 -62 181 -62q117 0 182 62q64 61 64 176z" />
    <glyph glyph-name="Udieresis" unicode="&#xdc;" horiz-adv-x="1474" 
d="M686 1546h-354v295h354v-295zM1143 1546h-355v295h355v-295zM737 -33q-290 0 -471 154q-184 153 -184 438v899h410v-903q0 -115 64 -176q65 -62 181 -62q117 0 182 62q64 61 64 176v903h410v-899q0 -288 -179 -440q-181 -152 -477 -152z" />
    <glyph glyph-name="Yacute" unicode="&#xdd;" horiz-adv-x="1466" 
d="M772 1841h395l-282 -295h-295zM938 1296l90 162h449l-535 -897v-561h-410v561l-542 897h461l94 -164q166 -292 200 -356q96 188 193 358z" />
    <glyph glyph-name="Thorn" unicode="&#xde;" horiz-adv-x="1386" 
d="M512 1237h274q263 0 411 -136q149 -137 149 -372t-149 -372q-148 -136 -411 -136h-274v-221h-410v1458h410v-221zM512 565h244q86 0 134 42t48 122t-48 122t-134 42h-244v-328z" />
    <glyph glyph-name="germandbls" unicode="&#xdf;" horiz-adv-x="1247" 
d="M989 821q103 -53 160 -146t57 -206q0 -215 -147 -344q-150 -129 -395 -129q-44 0 -105 4v295q29 -4 66 -4q93 0 145 48q53 48 53 124q0 178 -209 178h-55v236h53q72 0 117 42t45 105q0 68 -42 109q-43 41 -116 41t-115 -44t-42 -114v-1016h-377v1001q0 235 135 363
q134 127 389 127q214 0 361 -115q141 -117 141 -286q0 -174 -119 -269z" />
    <glyph glyph-name="agrave" unicode="&#xe0;" horiz-adv-x="1181" 
d="M588 1458l182 -295h-295l-282 295h395zM1161 0h-379q-21 47 -26 109q-108 -134 -336 -134q-175 0 -282 88t-107 242q0 150 100 231t322 99l170 14q67 6 97 27t30 61q0 84 -134 84q-82 0 -115 -23q-35 -24 -42 -89h-373q15 190 144 280q131 92 391 92q497 0 497 -331v-560
q0 -134 43 -190zM549 217q201 0 201 199v61q-23 -30 -95 -41l-120 -12q-121 -12 -121 -105q0 -47 36 -74q37 -28 99 -28z" />
    <glyph glyph-name="aacute" unicode="&#xe1;" horiz-adv-x="1181" 
d="M664 1458h395l-283 -295h-295zM1161 0h-379q-21 47 -26 109q-108 -134 -336 -134q-175 0 -282 88t-107 242q0 150 100 231t322 99l170 14q67 6 97 27t30 61q0 84 -134 84q-82 0 -115 -23q-35 -24 -42 -89h-373q15 190 144 280q131 92 391 92q497 0 497 -331v-560
q0 -134 43 -190zM549 217q201 0 201 199v61q-23 -30 -95 -41l-120 -12q-121 -12 -121 -105q0 -47 36 -74q37 -28 99 -28z" />
    <glyph glyph-name="acircumflex" unicode="&#xe2;" horiz-adv-x="1181" 
d="M729 1163l-113 119l-114 -119h-330l244 295h393l248 -295h-328zM1161 0h-379q-21 47 -26 109q-108 -134 -336 -134q-175 0 -282 88t-107 242q0 150 100 231t322 99l170 14q67 6 97 27t30 61q0 84 -134 84q-82 0 -115 -23q-35 -24 -42 -89h-373q15 190 144 280
q131 92 391 92q497 0 497 -331v-560q0 -134 43 -190zM549 217q201 0 201 199v61q-23 -30 -95 -41l-120 -12q-121 -12 -121 -105q0 -47 36 -74q37 -28 99 -28z" />
    <glyph glyph-name="atilde" unicode="&#xe3;" horiz-adv-x="1181" 
d="M489 1229q-53 0 -57 -66h-217q0 143 66 219t168 76q77 0 176 -37q78 -28 118 -28q54 0 58 65h217q0 -142 -66 -219q-66 -76 -168 -76q-73 0 -174 37q-87 29 -121 29zM1161 0h-379q-21 47 -26 109q-108 -134 -336 -134q-175 0 -282 88t-107 242q0 150 100 231t322 99
l170 14q67 6 97 27t30 61q0 84 -134 84q-82 0 -115 -23q-35 -24 -42 -89h-373q15 190 144 280q131 92 391 92q497 0 497 -331v-560q0 -134 43 -190zM549 217q201 0 201 199v61q-23 -30 -95 -41l-120 -12q-121 -12 -121 -105q0 -47 36 -74q37 -28 99 -28z" />
    <glyph glyph-name="adieresis" unicode="&#xe4;" horiz-adv-x="1181" 
d="M211 1458h354v-295h-354v295zM668 1458h354v-295h-354v295zM1161 0h-379q-21 47 -26 109q-108 -134 -336 -134q-175 0 -282 88t-107 242q0 150 100 231t322 99l170 14q67 6 97 27t30 61q0 84 -134 84q-82 0 -115 -23q-35 -24 -42 -89h-373q15 190 144 280q131 92 391 92
q497 0 497 -331v-560q0 -134 43 -190zM549 217q201 0 201 199v61q-23 -30 -95 -41l-120 -12q-121 -12 -121 -105q0 -47 36 -74q37 -28 99 -28z" />
    <glyph glyph-name="aring" unicode="&#xe5;" horiz-adv-x="1181" 
d="M856 1247q-100 -90 -240 -90q-141 0 -237 90q-98 88 -98 226t98 227q94 88 237 88q145 0 240 -88q96 -90 96 -227q0 -136 -96 -226zM700 1554q-33 33 -82 33q-48 0 -83 -33t-35 -81q0 -49 35 -82q34 -33 83 -33t82 33t33 82q0 48 -33 81zM1161 0h-379q-21 47 -26 109
q-108 -134 -336 -134q-175 0 -282 88t-107 242q0 150 100 231t322 99l170 14q67 6 97 27t30 61q0 84 -134 84q-82 0 -115 -23q-35 -24 -42 -89h-373q15 190 144 280q131 92 391 92q497 0 497 -331v-560q0 -134 43 -190zM549 217q201 0 201 199v61q-23 -30 -95 -41l-120 -12
q-121 -12 -121 -105q0 -47 36 -74q37 -28 99 -28z" />
    <glyph glyph-name="ae" unicode="&#xe6;" horiz-adv-x="1875" 
d="M1825 487v-67h-735q34 -178 200 -178q123 0 176 92h336q-41 -169 -180 -263q-142 -96 -332 -96q-235 0 -387 146q-175 -146 -442 -146q-201 0 -316 86q-114 85 -114 244q0 150 100 231t322 99l170 14q67 6 97 27t30 61q0 84 -134 84q-82 0 -115 -23q-35 -24 -42 -89h-373
q15 190 144 280q131 92 391 92q240 0 348 -90q137 90 317 90q244 0 391 -157q148 -160 148 -437zM1282 815q-159 0 -192 -172h391q-37 172 -199 172zM549 217q201 0 201 199v61q-23 -30 -95 -41l-120 -12q-121 -12 -121 -105q0 -47 36 -74q37 -28 99 -28z" />
    <glyph glyph-name="ccedilla" unicode="&#xe7;" horiz-adv-x="1169" 
d="M780 434h369q-10 -189 -131 -308q-121 -120 -320 -144l-82 -97q10 2 37 2q105 0 166 -45q62 -45 62 -114q0 -94 -83 -147q-82 -52 -247 -52q-76 0 -150 14v123q46 -8 115 -8q123 0 123 78q0 69 -117 69q-27 0 -47 -2v78l76 96q-238 15 -373 164q-137 151 -137 387
q0 253 154 404q149 149 409 149q229 0 373 -117q145 -118 166 -319h-371q-22 135 -168 135q-184 0 -184 -252q0 -249 184 -249q161 0 176 155z" />
    <glyph glyph-name="egrave" unicode="&#xe8;" horiz-adv-x="1224" 
d="M578 1458l182 -295h-295l-283 295h396zM1174 487v-67h-775q37 -178 211 -178q131 0 187 92h352q-43 -169 -191 -264q-151 -95 -348 -95q-253 0 -411 152t-158 401q0 252 156 402q155 151 409 151q255 0 412 -157q156 -158 156 -437zM602 815q-169 0 -203 -172h412
q-37 172 -209 172z" />
    <glyph glyph-name="eacute" unicode="&#xe9;" horiz-adv-x="1224" 
d="M653 1458h396l-283 -295h-295zM1174 487v-67h-775q37 -178 211 -178q131 0 187 92h352q-43 -169 -191 -264q-151 -95 -348 -95q-253 0 -411 152t-158 401q0 252 156 402q155 151 409 151q255 0 412 -157q156 -158 156 -437zM602 815q-169 0 -203 -172h412
q-37 172 -209 172z" />
    <glyph glyph-name="ecircumflex" unicode="&#xea;" horiz-adv-x="1224" 
d="M719 1163l-113 119l-114 -119h-330l244 295h393l248 -295h-328zM1174 487v-67h-775q37 -178 211 -178q131 0 187 92h352q-43 -169 -191 -264q-151 -95 -348 -95q-253 0 -411 152t-158 401q0 252 156 402q155 151 409 151q255 0 412 -157q156 -158 156 -437zM602 815
q-169 0 -203 -172h412q-37 172 -209 172z" />
    <glyph glyph-name="edieresis" unicode="&#xeb;" horiz-adv-x="1224" 
d="M201 1458h354v-295h-354v295zM657 1458h355v-295h-355v295zM1174 487v-67h-775q37 -178 211 -178q131 0 187 92h352q-43 -169 -191 -264q-151 -95 -348 -95q-253 0 -411 152t-158 401q0 252 156 402q155 151 409 151q255 0 412 -157q156 -158 156 -437zM602 815
q-169 0 -203 -172h412q-37 172 -209 172z" />
    <glyph glyph-name="igrave" unicode="&#xec;" horiz-adv-x="540" 
d="M401 1163h-262l-200 295h362zM459 0h-377v1057h377v-1057z" />
    <glyph glyph-name="iacute" unicode="&#xed;" horiz-adv-x="540" 
d="M399 1163h-262l101 295h362zM459 0h-377v1057h377v-1057z" />
    <glyph glyph-name="icircumflex" unicode="&#xee;" horiz-adv-x="540" 
d="M348 1163l-80 115l-84 -115h-305l201 295h373l204 -295h-309zM459 0h-377v1057h377v-1057z" />
    <glyph glyph-name="idieresis" unicode="&#xef;" horiz-adv-x="540" 
d="M219 1163h-313v295h313v-295zM633 1163h-314v295h314v-295zM459 0h-377v1057h377v-1057z" />
    <glyph glyph-name="eth" unicode="&#xf0;" horiz-adv-x="1220" 
d="M1059 1276l-154 -43q275 -335 275 -676q0 -280 -156 -430q-158 -152 -412 -152t-411 148q-160 146 -160 395q0 234 147 375t408 141q55 0 125 -22q-33 46 -113 137l-354 -98v194l203 58l-164 155h393l68 -63l8 -9l297 84v-194zM420 508q0 -238 190 -238q191 0 191 238
q0 240 -191 240q-190 0 -190 -240z" />
    <glyph glyph-name="ntilde" unicode="&#xf1;" horiz-adv-x="1226" 
d="M483 1229q-53 0 -57 -66h-217q0 144 65 219q66 76 168 76q77 0 176 -37q78 -28 119 -28q54 0 58 65h217q0 -142 -66 -219q-66 -76 -168 -76q-75 0 -174 37q-87 29 -121 29zM780 1081q164 0 264 -103q101 -104 101 -294v-684h-377v604q0 158 -143 158q-73 0 -119 -46
q-47 -47 -47 -130v-586h-377v1057h369v-139q127 163 329 163z" />
    <glyph glyph-name="ograve" unicode="&#xf2;" horiz-adv-x="1220" 
d="M764 1163h-295l-283 295h396zM1026 127q-157 -152 -416 -152q-258 0 -415 152q-154 152 -154 401q0 253 154 404q150 149 415 149q266 0 416 -149q154 -152 154 -404q0 -249 -154 -401zM420 528q0 -258 190 -258q191 0 191 258t-191 258q-190 0 -190 -258z" />
    <glyph glyph-name="oacute" unicode="&#xf3;" horiz-adv-x="1220" 
d="M770 1163h-295l182 295h396zM1026 127q-157 -152 -416 -152q-258 0 -415 152q-154 152 -154 401q0 253 154 404q150 149 415 149q266 0 416 -149q154 -152 154 -404q0 -249 -154 -401zM420 528q0 -258 190 -258q191 0 191 258t-191 258q-190 0 -190 -258z" />
    <glyph glyph-name="ocircumflex" unicode="&#xf4;" horiz-adv-x="1220" 
d="M723 1163l-113 119l-114 -119h-330l244 295h393l248 -295h-328zM195 932q150 149 415 149q266 0 416 -149q154 -152 154 -404q0 -249 -154 -401q-157 -152 -416 -152q-258 0 -415 152q-154 152 -154 401q0 253 154 404zM420 528q0 -258 190 -258q191 0 191 258t-191 258
q-190 0 -190 -258z" />
    <glyph glyph-name="otilde" unicode="&#xf5;" horiz-adv-x="1220" 
d="M426 1163h-217q0 144 65 219q66 76 168 76q77 0 176 -37q78 -28 119 -28q54 0 58 65h217q0 -142 -66 -219q-66 -76 -168 -76q-75 0 -174 37q-87 29 -121 29q-53 0 -57 -66zM1026 127q-157 -152 -416 -152q-258 0 -415 152q-154 152 -154 401q0 253 154 404
q150 149 415 149q266 0 416 -149q154 -152 154 -404q0 -249 -154 -401zM420 528q0 -258 190 -258q191 0 191 258t-191 258q-190 0 -190 -258z" />
    <glyph glyph-name="odieresis" unicode="&#xf6;" horiz-adv-x="1220" 
d="M559 1163h-354v295h354v-295zM1016 1163h-354v295h354v-295zM1026 127q-157 -152 -416 -152q-258 0 -415 152q-154 152 -154 401q0 253 154 404q150 149 415 149q266 0 416 -149q154 -152 154 -404q0 -249 -154 -401zM420 528q0 -258 190 -258q191 0 191 258t-191 258
q-190 0 -190 -258z" />
    <glyph glyph-name="divide" unicode="&#xf7;" horiz-adv-x="1079" 
d="M711 989h-338v283h338v-283zM1028 573h-977v314h977v-314zM711 188h-338v283h338v-283z" />
    <glyph glyph-name="oslash" unicode="&#xf8;" horiz-adv-x="1220" 
d="M1171 1032l-116 -131q125 -146 125 -373q0 -249 -154 -401q-157 -152 -416 -152q-184 0 -317 76l-123 -137l-123 109l119 133q-125 146 -125 372q0 253 154 404q150 149 415 149q187 0 318 -75l121 135zM401 528q0 -59 9 -100l317 352q-45 33 -117 33q-209 0 -209 -285z
M610 244q209 0 209 284q0 64 -8 101l-317 -353q44 -32 116 -32z" />
    <glyph glyph-name="ugrave" unicode="&#xf9;" horiz-adv-x="1226" 
d="M575 1458l183 -295h-295l-283 295h395zM768 471v586h377v-1057h-369v139q-128 -164 -330 -164q-163 0 -264 104q-100 103 -100 294v684h377v-604q0 -158 143 -158q73 0 119 46q47 47 47 130z" />
    <glyph glyph-name="uacute" unicode="&#xfa;" horiz-adv-x="1226" 
d="M651 1458h396l-283 -295h-295zM768 471v586h377v-1057h-369v139q-128 -164 -330 -164q-163 0 -264 104q-100 103 -100 294v684h377v-604q0 -158 143 -158q73 0 119 46q47 47 47 130z" />
    <glyph glyph-name="ucircumflex" unicode="&#xfb;" horiz-adv-x="1226" 
d="M717 1163l-113 119l-115 -119h-329l243 295h394l247 -295h-327zM768 471v586h377v-1057h-369v139q-128 -164 -330 -164q-163 0 -264 104q-100 103 -100 294v684h377v-604q0 -158 143 -158q73 0 119 46q47 47 47 130z" />
    <glyph glyph-name="udieresis" unicode="&#xfc;" horiz-adv-x="1226" 
d="M199 1458h354v-295h-354v295zM655 1458h355v-295h-355v295zM768 471v586h377v-1057h-369v139q-128 -164 -330 -164q-163 0 -264 104q-100 103 -100 294v684h377v-604q0 -158 143 -158q73 0 119 46q47 47 47 130z" />
    <glyph glyph-name="yacute" unicode="&#xfd;" horiz-adv-x="1183" 
d="M639 1458h395l-282 -295h-295zM786 1012l13 45h385l-363 -1057q-78 -228 -200 -317q-125 -89 -392 -89q-41 0 -133 5v286h105q147 0 147 125q0 62 -49 197l-299 850h403l13 -43q117 -411 188 -729q50 234 182 727z" />
    <glyph glyph-name="thorn" unicode="&#xfe;" horiz-adv-x="1245" 
d="M754 1081q208 0 329 -149t121 -404q0 -254 -121 -403q-121 -150 -329 -150q-191 0 -293 140v-516h-379v1859h379v-516q102 139 293 139zM457 528q0 -258 184 -258t184 267q0 249 -184 249t-184 -258z" />
    <glyph glyph-name="ydieresis" unicode="&#xff;" horiz-adv-x="1183" 
d="M186 1458h355v-295h-355v295zM643 1458h354v-295h-354v295zM786 1012l13 45h385l-363 -1057q-78 -228 -200 -317q-125 -89 -392 -89q-41 0 -133 5v286h105q147 0 147 125q0 62 -49 197l-299 850h403l13 -43q117 -411 188 -729q50 234 182 727z" />
    <glyph glyph-name="Amacron" unicode="&#x100;" horiz-adv-x="1525" 
d="M391 1782h725v-236h-725v236zM1536 0h-434l-62 190h-571l-61 -190h-418l518 1458h491zM682 864l-107 -336h355l-109 336q-56 174 -69 232q-14 -45 -30 -97.5t-25.5 -84.5t-14.5 -50z" />
    <glyph glyph-name="amacron" unicode="&#x101;" horiz-adv-x="1181" 
d="M254 1399h725v-236h-725v236zM1161 0h-379q-21 47 -26 109q-108 -134 -336 -134q-175 0 -282 88t-107 242q0 150 100 231t322 99l170 14q67 6 97 27t30 61q0 84 -134 84q-82 0 -115 -23q-35 -24 -42 -89h-373q15 190 144 280q131 92 391 92q497 0 497 -331v-560
q0 -134 43 -190zM549 217q201 0 201 199v61q-23 -30 -95 -41l-120 -12q-121 -12 -121 -105q0 -47 36 -74q37 -28 99 -28z" />
    <glyph glyph-name="Abreve" unicode="&#x102;" horiz-adv-x="1525" 
d="M1004 1616q-103 -80 -250 -80t-250 80q-98 78 -133 225h264q23 -96 119 -96t118 96h265q-35 -147 -133 -225zM1536 0h-434l-62 190h-571l-61 -190h-418l518 1458h491zM682 864l-107 -336h355l-109 336q-56 174 -69 232q-14 -45 -30 -97.5t-25.5 -84.5t-14.5 -50z" />
    <glyph glyph-name="abreve" unicode="&#x103;" horiz-adv-x="1181" 
d="M866 1233q-101 -80 -250 -80q-148 0 -249 80q-100 78 -134 225h265q22 -96 118 -96t119 96h264q-35 -147 -133 -225zM1161 0h-379q-21 47 -26 109q-108 -134 -336 -134q-175 0 -282 88t-107 242q0 150 100 231t322 99l170 14q67 6 97 27t30 61q0 84 -134 84
q-82 0 -115 -23q-35 -24 -42 -89h-373q15 190 144 280q131 92 391 92q497 0 497 -331v-560q0 -134 43 -190zM549 217q201 0 201 199v61q-23 -30 -95 -41l-120 -12q-121 -12 -121 -105q0 -47 36 -74q37 -28 99 -28z" />
    <glyph glyph-name="Aogonek" unicode="&#x104;" horiz-adv-x="1525" 
d="M1343 -170q0 -70 103 -70q36 0 90 13v-183q-64 -16 -150 -16q-147 0 -228 54t-81 149q0 66 51 126q50 59 156 97h-182l-62 190h-571l-61 -190h-418l518 1458h491l537 -1458q-193 -83 -193 -170zM682 864l-107 -336h355l-109 336q-56 174 -69 232q-14 -45 -30 -97.5
t-25.5 -84.5t-14.5 -50z" />
    <glyph glyph-name="aogonek" unicode="&#x105;" horiz-adv-x="1181" 
d="M969 -170q0 -70 102 -70q36 0 90 13v-183q-64 -16 -149 -16q-148 0 -229 54t-81 149q0 107 113 190q-57 57 -59 142q-108 -134 -336 -134q-175 0 -282 88t-107 242q0 150 100 231t322 99l170 14q67 6 97 27t30 61q0 84 -134 84q-82 0 -115 -23q-35 -24 -42 -89h-373
q15 190 144 280q131 92 391 92q497 0 497 -331v-560q0 -134 43 -190q-192 -82 -192 -170zM549 217q201 0 201 199v61q-23 -30 -95 -41l-120 -12q-121 -12 -121 -105q0 -47 36 -74q37 -28 99 -28z" />
    <glyph glyph-name="Cacute" unicode="&#x106;" horiz-adv-x="1546" 
d="M940 1579h-295l182 295h396zM788 -33q-340 0 -542 207q-205 205 -205 555t201 557q198 205 546 205q281 0 480 -152q194 -152 235 -424h-413q-28 108 -109 167q-80 59 -193 59q-156 0 -239 -107q-82 -106 -82 -305t82 -305q83 -107 239 -107q122 0 204 67t104 187h409
q-35 -287 -229 -444q-198 -160 -488 -160z" />
    <glyph glyph-name="cacute" unicode="&#x107;" horiz-adv-x="1169" 
d="M764 1163h-295l182 295h396zM604 -25q-257 0 -409 152q-154 152 -154 401q0 253 154 404q149 149 409 149q229 0 373 -117q145 -118 166 -319h-371q-22 135 -168 135q-184 0 -184 -252q0 -249 184 -249q161 0 176 155h369q-12 -210 -160 -334q-151 -125 -385 -125z" />
    <glyph glyph-name="Ccircumflex" unicode="&#x108;" horiz-adv-x="1546" 
d="M901 1579l-113 119l-114 -119h-330l244 295h393l248 -295h-328zM1096 571h409q-35 -287 -229 -444q-198 -160 -488 -160q-340 0 -542 207q-205 205 -205 555t201 557q198 205 546 205q281 0 480 -152q194 -152 235 -424h-413q-28 108 -109 167q-80 59 -193 59
q-156 0 -239 -107q-82 -106 -82 -305t82 -305q83 -107 239 -107q122 0 204 67t104 187z" />
    <glyph glyph-name="ccircumflex" unicode="&#x109;" horiz-adv-x="1169" 
d="M717 1163l-113 119l-115 -119h-329l243 295h394l247 -295h-327zM780 434h369q-12 -210 -160 -334q-151 -125 -385 -125q-257 0 -409 152q-154 152 -154 401q0 253 154 404q149 149 409 149q229 0 373 -117q145 -118 166 -319h-371q-22 135 -168 135q-184 0 -184 -252
q0 -249 184 -249q161 0 176 155z" />
    <glyph glyph-name="Cdotaccent" unicode="&#x10a;" horiz-adv-x="1546" 
d="M965 1579h-357v295h357v-295zM788 -33q-340 0 -542 207q-205 205 -205 555t201 557q198 205 546 205q281 0 480 -152q194 -152 235 -424h-413q-28 108 -109 167q-80 59 -193 59q-156 0 -239 -107q-82 -106 -82 -305t82 -305q83 -107 239 -107q122 0 204 67t104 187h409
q-35 -287 -229 -444q-198 -160 -488 -160z" />
    <glyph glyph-name="cdotaccent" unicode="&#x10b;" horiz-adv-x="1169" 
d="M784 1163h-356v295h356v-295zM604 -25q-257 0 -409 152q-154 152 -154 401q0 253 154 404q149 149 409 149q229 0 373 -117q145 -118 166 -319h-371q-22 135 -168 135q-184 0 -184 -252q0 -249 184 -249q161 0 176 155h369q-12 -210 -160 -334q-151 -125 -385 -125z" />
    <glyph glyph-name="Ccaron" unicode="&#x10c;" horiz-adv-x="1546" 
d="M1229 1874l-244 -295h-393l-248 295h328l114 -119l113 119h330zM1096 571h409q-35 -287 -229 -444q-198 -160 -488 -160q-340 0 -542 207q-205 205 -205 555t201 557q198 205 546 205q281 0 480 -152q194 -152 235 -424h-413q-28 108 -109 167q-80 59 -193 59
q-156 0 -239 -107q-82 -106 -82 -305t82 -305q83 -107 239 -107q122 0 204 67t104 187z" />
    <glyph glyph-name="ccaron" unicode="&#x10d;" horiz-adv-x="1169" 
d="M1044 1458l-243 -295h-393l-248 295h327l115 -119l113 119h329zM780 434h369q-12 -210 -160 -334q-151 -125 -385 -125q-257 0 -409 152q-154 152 -154 401q0 253 154 404q149 149 409 149q229 0 373 -117q145 -118 166 -319h-371q-22 135 -168 135q-184 0 -184 -252
q0 -249 184 -249q161 0 176 155z" />
    <glyph glyph-name="Dcaron" unicode="&#x10e;" horiz-adv-x="1536" 
d="M1180 1841l-244 -295h-393l-248 295h328l114 -119l113 119h330zM102 1458h637q379 0 568 -196q188 -197 188 -533q0 -335 -188 -532q-189 -197 -568 -197h-637v1458zM512 344h219q338 0 338 385t-338 385h-219v-770z" />
    <glyph glyph-name="dcaron" unicode="&#x10f;" horiz-adv-x="1613" 
d="M782 944v514h377v-1458h-366v127q-105 -152 -301 -152q-208 0 -330 150q-121 149 -121 403q0 255 121 404t330 149q185 0 290 -137zM1231 1118l45 340h358l-161 -340h-242zM420 520q0 -250 184 -250t184 258t-184 258t-184 -266z" />
    <glyph glyph-name="Dcroat" unicode="&#x110;" horiz-adv-x="1583" 
d="M150 1458h636q382 0 568 -196q188 -197 188 -533q0 -335 -188 -532q-186 -197 -568 -197h-636v645h-150v195h150v618zM559 344h219q338 0 338 385t-338 385h-219v-274h281v-195h-281v-301z" />
    <glyph glyph-name="dslash" unicode="&#x111;" horiz-adv-x="1310" 
d="M1159 1366h152v-195h-152v-1171h-366v127q-105 -152 -301 -152q-208 0 -330 150q-121 149 -121 403q0 255 121 404t330 149q185 0 290 -137v227h-217v195h217v92h377v-92zM420 520q0 -250 184 -250t184 258t-184 258t-184 -266z" />
    <glyph glyph-name="Emacron" unicode="&#x112;" horiz-adv-x="1304" 
d="M315 1782h725v-236h-725v236zM1253 1458v-364h-741v-193h676v-340h-676v-196h741v-365h-1151v1458h1151z" />
    <glyph glyph-name="emacron" unicode="&#x113;" horiz-adv-x="1224" 
d="M244 1399h725v-236h-725v236zM1174 487v-67h-775q37 -178 211 -178q131 0 187 92h352q-43 -169 -191 -264q-151 -95 -348 -95q-253 0 -411 152t-158 401q0 252 156 402q155 151 409 151q255 0 412 -157q156 -158 156 -437zM602 815q-169 0 -203 -172h412
q-37 172 -209 172z" />
    <glyph glyph-name="Ebreve" unicode="&#x114;" horiz-adv-x="1304" 
d="M928 1616q-101 -80 -250 -80t-250 80q-98 78 -133 225h264q23 -96 119 -96t119 96h264q-35 -147 -133 -225zM1253 1458v-364h-741v-193h676v-340h-676v-196h741v-365h-1151v1458h1151z" />
    <glyph glyph-name="ebreve" unicode="&#x115;" horiz-adv-x="1224" 
d="M856 1233q-103 -80 -250 -80t-250 80q-98 78 -133 225h264q23 -96 119 -96t119 96h264q-35 -147 -133 -225zM1174 487v-67h-775q37 -178 211 -178q131 0 187 92h352q-43 -169 -191 -264q-151 -95 -348 -95q-253 0 -411 152t-158 401q0 252 156 402q155 151 409 151
q255 0 412 -157q156 -158 156 -437zM602 815q-169 0 -203 -172h412q-37 172 -209 172z" />
    <glyph glyph-name="Edotaccent" unicode="&#x116;" horiz-adv-x="1304" 
d="M498 1841h356v-295h-356v295zM1253 1458v-364h-741v-193h676v-340h-676v-196h741v-365h-1151v1458h1151z" />
    <glyph glyph-name="edotaccent" unicode="&#x117;" horiz-adv-x="1224" 
d="M430 1458h356v-295h-356v295zM1174 487v-67h-775q37 -178 211 -178q131 0 187 92h352q-43 -169 -191 -264q-151 -95 -348 -95q-253 0 -411 152t-158 401q0 252 156 402q155 151 409 151q255 0 412 -157q156 -158 156 -437zM602 815q-169 0 -203 -172h412
q-37 172 -209 172z" />
    <glyph glyph-name="Eogonek" unicode="&#x118;" horiz-adv-x="1304" 
d="M1253 1458v-364h-741v-193h676v-340h-676v-196h741v-365q-192 -82 -192 -170q0 -70 102 -70q36 0 90 13v-183q-64 -16 -149 -16q-147 0 -228 54t-81 149q0 66 51 126t155 97h-899v1458h1151z" />
    <glyph glyph-name="eogonek" unicode="&#x119;" horiz-adv-x="1224" 
d="M1174 487l-1 -67h-774q37 -178 211 -178q131 0 187 92h352q-30 -126 -128 -214q-97 -86 -237 -124q-184 -82 -184 -166q0 -70 102 -70q37 0 91 13v-183q-64 -16 -150 -16q-147 0 -228 54t-81 149q0 59 42 114q42 56 124 93q-211 33 -335 178t-124 366q0 252 156 402
q155 151 409 151q255 0 412 -157q156 -158 156 -437zM602 815q-169 0 -203 -172h412q-37 172 -209 172z" />
    <glyph glyph-name="Ecaron" unicode="&#x11a;" horiz-adv-x="1304" 
d="M1118 1841l-244 -295h-393l-248 295h328l115 -119l112 119h330zM1253 1458v-364h-741v-193h676v-340h-676v-196h741v-365h-1151v1458h1151z" />
    <glyph glyph-name="ecaron" unicode="&#x11b;" horiz-adv-x="1224" 
d="M1047 1458l-244 -295h-393l-248 295h327l115 -119l113 119h330zM1174 487v-67h-775q37 -178 211 -178q131 0 187 92h352q-43 -169 -191 -264q-151 -95 -348 -95q-253 0 -411 152t-158 401q0 252 156 402q155 151 409 151q255 0 412 -157q156 -158 156 -437zM602 815
q-169 0 -203 -172h412q-37 172 -209 172z" />
    <glyph glyph-name="Gcircumflex" unicode="&#x11c;" horiz-adv-x="1615" 
d="M909 1579l-112 119l-115 -119h-330l244 295h393l248 -295h-328zM844 524v312h690v-836h-279l-41 190q-68 -108 -192 -165q-127 -58 -279 -58q-319 0 -510 207q-192 206 -192 555q0 350 201 557q198 205 555 205q297 0 489 -141q197 -145 230 -389h-418q-63 180 -297 180
q-157 0 -246 -109q-88 -107 -88 -303q0 -195 93 -303q94 -109 263 -109q109 0 188 57q79 56 101 150h-268z" />
    <glyph glyph-name="gcircumflex" unicode="&#x11d;" horiz-adv-x="1241" 
d="M748 1163l-113 119l-115 -119h-330l244 295h393l248 -295h-327zM791 928v129h368v-1028q0 -216 -146 -335q-147 -120 -413 -120q-252 0 -389 108t-143 298h370q6 -130 172 -130q84 0 128 44t44 120v164q-95 -137 -282 -137q-204 0 -332 147q-127 145 -127 375
q0 231 123 375q122 143 328 143q204 0 299 -153zM420 555q0 -219 184 -219t184 227q0 223 -184 223t-184 -231z" />
    <glyph glyph-name="Gbreve" unicode="&#x11e;" horiz-adv-x="1615" 
d="M1047 1649q-103 -80 -250 -80q-149 0 -250 80q-98 78 -133 225h264q22 -96 119 -96q95 0 118 96h265q-35 -147 -133 -225zM844 524v312h690v-836h-279l-41 190q-68 -108 -192 -165q-127 -58 -279 -58q-319 0 -510 207q-192 206 -192 555q0 350 201 557q198 205 555 205
q297 0 489 -141q197 -145 230 -389h-418q-63 180 -297 180q-157 0 -246 -109q-88 -107 -88 -303q0 -195 93 -303q94 -109 263 -109q109 0 188 57q79 56 101 150h-268z" />
    <glyph glyph-name="gbreve" unicode="&#x11f;" horiz-adv-x="1241" 
d="M885 1233q-101 -80 -250 -80q-147 0 -250 80q-98 78 -133 225h264q22 -96 119 -96t119 96h264q-35 -147 -133 -225zM791 928v129h368v-1028q0 -216 -146 -335q-147 -120 -413 -120q-252 0 -389 108t-143 298h370q6 -130 172 -130q84 0 128 44t44 120v164
q-95 -137 -282 -137q-204 0 -332 147q-127 145 -127 375q0 231 123 375q122 143 328 143q204 0 299 -153zM420 555q0 -219 184 -219t184 227q0 223 -184 223t-184 -231z" />
    <glyph glyph-name="Gdotaccent" unicode="&#x120;" horiz-adv-x="1615" 
d="M616 1874h357v-295h-357v295zM844 524v312h690v-836h-279l-41 190q-68 -108 -192 -165q-127 -58 -279 -58q-319 0 -510 207q-192 206 -192 555q0 350 201 557q198 205 555 205q297 0 489 -141q197 -145 230 -389h-418q-63 180 -297 180q-157 0 -246 -109
q-88 -107 -88 -303q0 -195 93 -303q94 -109 263 -109q109 0 188 57q79 56 101 150h-268z" />
    <glyph glyph-name="gdotaccent" unicode="&#x121;" horiz-adv-x="1241" 
d="M459 1458h356v-295h-356v295zM791 928v129h368v-1028q0 -216 -146 -335q-147 -120 -413 -120q-252 0 -389 108t-143 298h370q6 -130 172 -130q84 0 128 44t44 120v164q-95 -137 -282 -137q-204 0 -332 147q-127 145 -127 375q0 231 123 375q122 143 328 143
q204 0 299 -153zM420 555q0 -219 184 -219t184 227q0 223 -184 223t-184 -231z" />
    <glyph glyph-name="uni0122" unicode="&#x122;" horiz-adv-x="1615" 
d="M844 524v312h690v-836h-279l-41 190q-68 -108 -192 -165q-127 -58 -279 -58q-319 0 -510 207q-192 206 -192 555q0 350 201 557q198 205 555 205q297 0 489 -141q197 -145 230 -389h-418q-63 180 -297 180q-157 0 -246 -109q-88 -107 -88 -303q0 -195 93 -303
q94 -109 263 -109q109 0 188 57q79 56 101 150h-268zM760 -365h-129v244h311v-250q0 -103 -62 -150q-63 -48 -194 -48h-55v116h55q74 0 74 78v10z" />
    <glyph glyph-name="uni0123" unicode="&#x123;" horiz-adv-x="1241" 
d="M659 1407h129v-244h-311v250q0 103 63 151t193 48h55v-117h-55q-74 0 -74 -78v-10zM791 928v129h368v-1028q0 -216 -146 -335q-147 -120 -413 -120q-252 0 -389 108t-143 298h370q6 -130 172 -130q84 0 128 44t44 120v164q-95 -137 -282 -137q-204 0 -332 147
q-127 145 -127 375q0 231 123 375q122 143 328 143q204 0 299 -153zM420 555q0 -219 184 -219t184 227q0 223 -184 223t-184 -231z" />
    <glyph glyph-name="Hcircumflex" unicode="&#x124;" horiz-adv-x="1525" 
d="M877 1546l-113 119l-115 -119h-330l244 295h393l248 -295h-327zM1014 926v532h409v-1458h-409v561h-502v-561h-410v1458h410v-532h502z" />
    <glyph glyph-name="hcircumflex" unicode="&#x125;" horiz-adv-x="1226" 
d="M348 1546l-80 115l-84 -115h-305l201 295h373l204 -295h-309zM780 1081q164 0 264 -103q101 -104 101 -294v-684h-377v604q0 158 -143 158q-73 0 -119 -46q-47 -47 -47 -130v-586h-377v1458h377v-530q127 153 321 153z" />
    <glyph glyph-name="Hbar" unicode="&#x126;" horiz-adv-x="1626" 
d="M1473 1274h153v-195h-153v-1079h-410v561h-502v-561h-409v1079h-152v195h152v184h409v-184h502v184h410v-184zM561 926h502v153h-502v-153z" />
    <glyph glyph-name="hbar" unicode="&#x127;" horiz-adv-x="1294" 
d="M848 1081q164 0 264 -103t100 -294v-684h-376v604q0 158 -144 158q-73 0 -119 -46q-47 -47 -47 -130v-586h-376v1171h-150v195h150v92h376v-92h219v-195h-219v-243q124 153 322 153z" />
    <glyph glyph-name="Itilde" unicode="&#x128;" horiz-adv-x="614" 
d="M164 1546h-168q0 143 49 219t131 76q62 0 137 -37q62 -28 93 -28q41 0 45 65h167q0 -143 -49 -219t-131 -76q-60 0 -139 39q-60 27 -90 27q-41 0 -45 -66zM512 0h-410v1458h410v-1458z" />
    <glyph glyph-name="itilde" unicode="&#x129;" horiz-adv-x="540" 
d="M127 1163h-168q0 143 49 219t131 76q62 0 137 -37q62 -28 93 -28q41 0 45 65h168q0 -142 -50 -219q-49 -76 -131 -76q-59 0 -139 39q-60 27 -90 27q-40 0 -45 -66zM459 0h-377v1057h377v-1057z" />
    <glyph glyph-name="Imacron" unicode="&#x12a;" horiz-adv-x="614" 
d="M618 1546h-622v236h622v-236zM512 0h-410v1458h410v-1458z" />
    <glyph glyph-name="imacron" unicode="&#x12b;" horiz-adv-x="540" 
d="M582 1163h-623v236h623v-236zM459 0h-377v1057h377v-1057z" />
    <glyph glyph-name="Ibreve" unicode="&#x12c;" horiz-adv-x="614" 
d="M532 1618q-94 -82 -225 -82q-134 0 -223 82q-95 83 -113 223h244q6 -96 92 -96t92 96h244q-18 -137 -111 -223zM512 0h-410v1458h410v-1458z" />
    <glyph glyph-name="ibreve" unicode="&#x12d;" horiz-adv-x="540" 
d="M496 1235q-94 -82 -226 -82q-134 0 -223 82q-95 83 -113 223h244q6 -96 92 -96t92 96h244q-18 -138 -110 -223zM459 0h-377v1057h377v-1057z" />
    <glyph glyph-name="Iogonek" unicode="&#x12e;" horiz-adv-x="614" 
d="M512 1458v-1458q-172 -82 -172 -170q0 -70 90 -70q35 0 82 13v-183q-58 -16 -133 -16q-132 0 -204 54q-73 55 -73 149q0 67 46 126q45 59 139 97h-185v1458h410z" />
    <glyph glyph-name="iogonek" unicode="&#x12f;" horiz-adv-x="540" 
d="M94 1458h355v-295h-355v295zM459 1057v-1057q-172 -82 -172 -170q0 -70 90 -70q35 0 82 13v-183q-58 -16 -133 -16q-132 0 -204 54q-73 55 -73 149q0 67 46 126t138 97h-151v1057h377z" />
    <glyph glyph-name="Idot" unicode="&#x130;" horiz-adv-x="614" 
d="M483 1546h-354v295h354v-295zM512 0h-410v1458h410v-1458z" />
    <glyph glyph-name="dotlessi" unicode="&#x131;" horiz-adv-x="540" 
d="M459 0h-377v1057h377v-1057z" />
    <glyph glyph-name="IJ" unicode="&#x132;" horiz-adv-x="1816" 
d="M512 0h-410v1458h410v-1458zM1190 -33q-245 0 -390 128t-145 345v92h392v-92q0 -62 36 -97q37 -36 103 -36q64 0 102 36q37 36 37 97v1018h410v-1018q0 -202 -142 -338q-144 -135 -403 -135z" />
    <glyph glyph-name="ij" unicode="&#x133;" horiz-adv-x="1081" 
d="M449 1163h-355v295h355v-295zM989 1163h-354v295h354v-295zM459 0h-377v1057h377v-1057zM604 -406q-20 0 -112 5v280h30q35 0 51 4q19 5 34 27q16 24 16 63v1084h376v-1129q0 -176 -93 -255q-92 -79 -302 -79z" />
    <glyph glyph-name="Jcircumflex" unicode="&#x134;" horiz-adv-x="1202" 
d="M993 1546l-80 115l-84 -115h-305l201 295h373l205 -295h-310zM711 440v1018h409v-1018q0 -203 -141 -338q-144 -135 -404 -135q-245 0 -390 128q-144 127 -144 345v92h391v-92q0 -61 37 -97t102 -36t103 36q37 36 37 97z" />
    <glyph glyph-name="jcircumflex" unicode="&#x135;" horiz-adv-x="540" 
d="M348 1163l-80 115l-84 -115h-305l201 295h373l204 -295h-309zM82 -27v1084h377v-1129q0 -176 -93 -255q-92 -79 -303 -79q-20 0 -112 5v280h31q35 0 51 4q19 5 34 27t15 63z" />
    <glyph glyph-name="uni0136" unicode="&#x136;" horiz-adv-x="1529" 
d="M1044 1458h496l-573 -596l573 -862h-483l-379 586l-166 -168v-418h-410v1458h410v-577zM760 -332h-129v244h311v-250q0 -103 -62 -150q-64 -49 -194 -49h-55v117h55q74 0 74 78v10z" />
    <glyph glyph-name="uni0137" unicode="&#x137;" horiz-adv-x="1245" 
d="M1225 1057l-396 -418l416 -639h-428l-242 387l-126 -135v-252h-367v1458h367v-799l354 398h422zM610 -350h-129v244h312v-250q0 -103 -63 -151t-193 -48h-56v117h56q73 0 73 78v10z" />
    <glyph glyph-name="kgreenlandic" unicode="&#x138;" horiz-adv-x="1245" 
d="M1245 0h-428l-242 387l-126 -135v-252h-367v1057h367v-398l354 398h422l-396 -418z" />
    <glyph glyph-name="Lacute" unicode="&#x139;" horiz-adv-x="1177" 
d="M346 1841h395l-282 -295h-295zM512 1458v-1093h645v-365h-1055v1458h410z" />
    <glyph glyph-name="lacute" unicode="&#x13a;" horiz-adv-x="540" 
d="M604 1841l-201 -295h-262l101 295h362zM459 0h-377v1458h377v-1458z" />
    <glyph glyph-name="uni013B" unicode="&#x13b;" horiz-adv-x="1177" 
d="M512 1458v-1093h645v-365h-1055v1458h410zM606 -332h-129v244h311v-250q0 -103 -62 -150q-64 -49 -194 -49h-55v117h55q74 0 74 78v10z" />
    <glyph glyph-name="uni013C" unicode="&#x13c;" horiz-adv-x="540" 
d="M82 0v1458h377v-1458h-377zM246 -350h-129v244h311v-250q0 -104 -62 -151q-63 -48 -194 -48h-55v117h55q74 0 74 78v10z" />
    <glyph glyph-name="Lcaron" unicode="&#x13d;" horiz-adv-x="1177" 
d="M512 1458v-1093h645v-365h-1055v1458h410zM670 1458h358l-162 -340h-241z" />
    <glyph glyph-name="lcaron" unicode="&#x13e;" horiz-adv-x="913" 
d="M459 0h-377v1458h377v-1458zM772 1118h-242l45 340h359z" />
    <glyph glyph-name="Ldot" unicode="&#x13f;" horiz-adv-x="1177" 
d="M512 1458v-1093h645v-365h-1055v1458h410zM688 979h418v-406h-418v406z" />
    <glyph glyph-name="ldot" unicode="&#x140;" horiz-adv-x="1085" 
d="M459 0h-377v1458h377v-1458zM1024 522h-418v406h418v-406z" />
    <glyph glyph-name="Lslash" unicode="&#x141;" horiz-adv-x="1224" 
d="M559 768v-403h645v-365h-1054v604l-150 -61v213l150 61v641h409v-477l352 143v-213z" />
    <glyph glyph-name="lslash" unicode="&#x142;" horiz-adv-x="675" 
d="M526 920l150 63v-219l-150 -64v-700h-376v541l-150 -64v219l150 64v698h376v-538z" />
    <glyph glyph-name="Nacute" unicode="&#x143;" horiz-adv-x="1525" 
d="M803 1841h395l-283 -295h-294zM1034 1221v237h389v-1458h-432l-309 518q-126 215 -201 361q11 -316 11 -641v-238h-390v1458h433l309 -518q107 -182 200 -362q-10 287 -10 643z" />
    <glyph glyph-name="nacute" unicode="&#x144;" horiz-adv-x="1226" 
d="M657 1458h396l-283 -295h-295zM780 1081q164 0 264 -103q101 -104 101 -294v-684h-377v604q0 158 -143 158q-73 0 -119 -46q-47 -47 -47 -130v-586h-377v1057h369v-139q127 163 329 163z" />
    <glyph glyph-name="uni0145" unicode="&#x145;" horiz-adv-x="1525" 
d="M1034 1221v237h389v-1458h-432l-309 518q-126 215 -201 361q11 -316 11 -641v-238h-390v1458h433l309 -518q107 -182 200 -362q-10 287 -10 643zM739 -332h-129v244h312v-250q0 -102 -63 -150q-64 -49 -193 -49h-56v117h56q73 0 73 78v10z" />
    <glyph glyph-name="uni0146" unicode="&#x146;" horiz-adv-x="1226" 
d="M780 1081q164 0 264 -103q101 -104 101 -294v-684h-377v604q0 158 -143 158q-73 0 -119 -46q-47 -47 -47 -130v-586h-377v1057h369v-139q127 163 329 163zM586 -350h-129v244h311v-250q0 -104 -62 -151q-63 -48 -194 -48h-55v117h55q74 0 74 78v10z" />
    <glyph glyph-name="Ncaron" unicode="&#x147;" horiz-adv-x="1525" 
d="M1204 1841l-243 -295h-394l-248 295h328l115 -119l112 119h330zM1034 1221v237h389v-1458h-432l-309 518q-126 215 -201 361q11 -316 11 -641v-238h-390v1458h433l309 -518q107 -182 200 -362q-10 287 -10 643z" />
    <glyph glyph-name="ncaron" unicode="&#x148;" horiz-adv-x="1226" 
d="M1051 1458l-244 -295h-393l-248 295h328l114 -119l113 119h330zM780 1081q164 0 264 -103q101 -104 101 -294v-684h-377v604q0 158 -143 158q-73 0 -119 -46q-47 -47 -47 -130v-586h-377v1057h369v-139q127 163 329 163z" />
    <glyph glyph-name="napostrophe" unicode="&#x149;" horiz-adv-x="1669" 
d="M223 1087h-162v369h381v-395q0 -311 -329 -311h-52v182h56q106 0 106 123v32zM1223 1081q164 0 264 -103t100 -294v-684h-377v604q0 158 -143 158q-73 0 -119 -46q-47 -47 -47 -130v-586h-377v1057h369v-139q127 163 330 163z" />
    <glyph glyph-name="Eng" unicode="&#x14a;" horiz-adv-x="1525" 
d="M1034 1221v237h389v-1501q0 -165 -103 -267q-104 -102 -310 -102q-67 0 -168 11v278q55 -4 82 -4q123 0 123 98v35l-365 567q-134 207 -203 349q13 -297 13 -684v-238h-390v1458h433l309 -491q126 -202 198 -340q-8 251 -8 594z" />
    <glyph glyph-name="eng" unicode="&#x14b;" horiz-adv-x="1226" 
d="M780 1081q164 0 264 -103q101 -104 101 -294v-762q0 -176 -93 -255q-92 -79 -302 -79q-40 0 -113 4v281h31q35 0 51 4q19 5 34 27t15 63v637q0 158 -143 158q-73 0 -119 -46q-47 -47 -47 -130v-586h-377v1057h369v-139q127 163 329 163z" />
    <glyph glyph-name="Omacron" unicode="&#x14c;" horiz-adv-x="1613" 
d="M1169 1579h-725v236h725v-236zM807 -33q-343 0 -555 209q-211 205 -211 553q0 347 211 555q213 207 555 207t555 -207q211 -208 211 -555q0 -348 -211 -553q-212 -209 -555 -209zM559 430q91 -108 248 -108t248 108q92 107 92 299q0 188 -92 298t-248 110t-248 -110
t-92 -298q0 -192 92 -299z" />
    <glyph glyph-name="omacron" unicode="&#x14d;" horiz-adv-x="1220" 
d="M973 1163h-725v236h725v-236zM1026 127q-157 -152 -416 -152q-258 0 -415 152q-154 152 -154 401q0 253 154 404q150 149 415 149q266 0 416 -149q154 -152 154 -404q0 -249 -154 -401zM420 528q0 -258 190 -258q191 0 191 258t-191 258q-190 0 -190 -258z" />
    <glyph glyph-name="Obreve" unicode="&#x14e;" horiz-adv-x="1613" 
d="M1057 1649q-103 -80 -250 -80t-250 80q-98 78 -133 225h264q23 -96 119 -96q97 0 119 96h264q-35 -147 -133 -225zM807 -33q-343 0 -555 209q-211 205 -211 553q0 347 211 555q213 207 555 207t555 -207q211 -208 211 -555q0 -348 -211 -553q-212 -209 -555 -209z
M559 430q91 -108 248 -108t248 108q92 107 92 299q0 188 -92 298t-248 110t-248 -110t-92 -298q0 -192 92 -299z" />
    <glyph glyph-name="obreve" unicode="&#x14f;" horiz-adv-x="1220" 
d="M860 1233q-103 -80 -250 -80t-250 80q-98 78 -133 225h265q22 -96 118 -96t119 96h264q-35 -147 -133 -225zM1026 127q-157 -152 -416 -152q-258 0 -415 152q-154 152 -154 401q0 253 154 404q150 149 415 149q266 0 416 -149q154 -152 154 -404q0 -249 -154 -401z
M420 528q0 -258 190 -258q191 0 191 258t-191 258q-190 0 -190 -258z" />
    <glyph glyph-name="Ohungarumlaut" unicode="&#x150;" horiz-adv-x="1613" 
d="M692 1579h-282l182 295h401zM1196 1579h-285l185 295h399zM807 -33q-343 0 -555 209q-211 205 -211 553q0 347 211 555q213 207 555 207t555 -207q211 -208 211 -555q0 -348 -211 -553q-212 -209 -555 -209zM559 430q91 -108 248 -108t248 108q92 107 92 299
q0 188 -92 298t-248 110t-248 -110t-92 -298q0 -192 92 -299z" />
    <glyph glyph-name="ohungarumlaut" unicode="&#x151;" horiz-adv-x="1220" 
d="M510 1163h-283l183 295h401zM1014 1163h-285l184 295h400zM1026 127q-157 -152 -416 -152q-258 0 -415 152q-154 152 -154 401q0 253 154 404q150 149 415 149q266 0 416 -149q154 -152 154 -404q0 -249 -154 -401zM420 528q0 -258 190 -258q191 0 191 258t-191 258
q-190 0 -190 -258z" />
    <glyph glyph-name="OE" unicode="&#x152;" horiz-adv-x="2349" 
d="M2298 1456v-364h-742v-193h676v-340h-676v-197h742v-364h-1151v100q-157 -131 -399 -131q-308 0 -506 209q-201 212 -201 553t201 553q198 209 506 209q242 0 399 -131v96h1151zM559 430q91 -108 248 -108t248 108q92 107 92 299q0 188 -92 298t-248 110t-248 -110
t-92 -298q0 -192 92 -299z" />
    <glyph glyph-name="oe" unicode="&#x153;" horiz-adv-x="1984" 
d="M1933 487v-67h-772q34 -178 205 -178q129 0 182 92h353q-43 -169 -191 -264q-146 -95 -344 -95q-231 0 -375 150q-150 -150 -381 -150q-258 0 -415 152q-154 152 -154 401q0 253 154 404q150 149 415 149q232 0 381 -149q143 149 375 149q255 0 412 -157
q155 -156 155 -437zM1362 815q-168 0 -201 -174h410q-37 174 -209 174zM420 528q0 -258 190 -258q191 0 191 258t-191 258q-190 0 -190 -258z" />
    <glyph glyph-name="Racute" unicode="&#x154;" horiz-adv-x="1411" 
d="M748 1841h395l-283 -295h-295zM1335 342l8 -195q5 -91 37 -147h-422q-23 45 -28 147l-6 166q-4 110 -51 151q-46 40 -148 40h-213v-504h-410v1458h717q279 0 412 -121q131 -123 131 -311q0 -114 -58 -203q-58 -90 -169 -139q109 -40 152 -119q42 -78 48 -223zM512 1139
v-336h246q182 0 182 168t-182 168h-246z" />
    <glyph glyph-name="racute" unicode="&#x155;" horiz-adv-x="851" 
d="M408 1458h362l-201 -295h-262zM735 1073q43 0 76 -6v-338h-98q-254 0 -254 -278v-451h-377v1057h369v-209q55 225 284 225z" />
    <glyph glyph-name="uni0156" unicode="&#x156;" horiz-adv-x="1411" 
d="M1335 342l8 -195q5 -91 37 -147h-422q-23 45 -28 147l-6 166q-4 110 -51 151q-46 40 -148 40h-213v-504h-410v1458h717q279 0 412 -121q131 -123 131 -311q0 -114 -58 -203q-58 -90 -169 -139q109 -40 152 -119q42 -78 48 -223zM512 1139v-336h246q182 0 182 168
t-182 168h-246zM723 -332h-129v244h311v-250q0 -103 -62 -150q-64 -49 -194 -49h-55v117h55q74 0 74 78v10z" />
    <glyph glyph-name="uni0157" unicode="&#x157;" horiz-adv-x="851" 
d="M735 1073q43 0 76 -6v-338h-98q-254 0 -254 -278v-451h-377v1057h369v-209q55 225 284 225zM246 -350h-129v244h311v-250q0 -104 -62 -151q-63 -48 -194 -48h-55v117h55q74 0 74 78v10z" />
    <glyph glyph-name="Rcaron" unicode="&#x158;" horiz-adv-x="1411" 
d="M1149 1841l-244 -295h-393l-248 295h328l115 -119l112 119h330zM1335 342l8 -195q5 -91 37 -147h-422q-23 45 -28 147l-6 166q-4 110 -51 151q-46 40 -148 40h-213v-504h-410v1458h717q279 0 412 -121q131 -123 131 -311q0 -114 -58 -203q-58 -90 -169 -139
q109 -40 152 -119q42 -78 48 -223zM512 1139v-336h246q182 0 182 168t-182 168h-246z" />
    <glyph glyph-name="rcaron" unicode="&#x159;" horiz-adv-x="851" 
d="M827 1458l-204 -295h-373l-201 295h305l84 -115l80 115h309zM451 1057v-209q55 225 284 225q43 0 76 -6v-338h-98q-254 0 -254 -278v-451h-377v1057h369z" />
    <glyph glyph-name="Sacute" unicode="&#x15a;" horiz-adv-x="1355" 
d="M797 1579h-295l182 295h395zM682 -33q-312 0 -482 137q-169 136 -169 375h393q1 -113 68 -157q65 -43 206 -43q205 0 205 131q0 61 -47 90q-46 28 -182 51l-115 18q-506 83 -506 471q0 207 155 329t443 122q291 0 451 -122t172 -359h-385q-5 88 -60 129q-56 41 -172 41
q-186 0 -186 -121q0 -62 47 -92q48 -31 166 -52l121 -20q271 -45 396 -153q124 -108 124 -302q0 -230 -170 -352q-169 -121 -473 -121z" />
    <glyph glyph-name="sacute" unicode="&#x15b;" horiz-adv-x="1105" 
d="M709 1163h-295l182 295h395zM553 -33q-265 0 -392 86q-126 85 -141 283h365q7 -71 48 -100t128 -29q150 0 150 80q0 39 -35 60q-34 21 -125 36l-152 23q-366 52 -366 329q0 169 130 257q131 89 378 89q491 0 514 -366h-346q-4 127 -168 127q-140 0 -140 -80q0 -37 30 -55
q31 -19 101 -29l181 -25q191 -27 281 -108q91 -82 91 -228q0 -168 -139 -259t-393 -91z" />
    <glyph glyph-name="Scircumflex" unicode="&#x15c;" horiz-adv-x="1355" 
d="M758 1579l-113 119l-115 -119h-329l243 295h394l247 -295h-327zM684 915l121 -20q271 -45 396 -153q124 -108 124 -302q0 -230 -170 -352q-169 -121 -473 -121q-312 0 -482 137q-169 136 -169 375h393q1 -113 68 -157q65 -43 206 -43q205 0 205 131q0 61 -47 90
q-46 28 -182 51l-115 18q-506 83 -506 471q0 207 155 329t443 122q291 0 451 -122t172 -359h-385q-5 88 -60 129q-56 41 -172 41q-186 0 -186 -121q0 -62 47 -92q48 -31 166 -52z" />
    <glyph glyph-name="scircumflex" unicode="&#x15d;" horiz-adv-x="1105" 
d="M662 1163l-113 119l-115 -119h-330l244 295h393l248 -295h-327zM532 678l181 -25q191 -27 281 -108q91 -82 91 -228q0 -168 -139 -259t-393 -91q-265 0 -392 86q-126 85 -141 283h365q7 -71 48 -100t128 -29q150 0 150 80q0 39 -35 60q-34 21 -125 36l-152 23
q-366 52 -366 329q0 169 130 257q131 89 378 89q491 0 514 -366h-346q-4 127 -168 127q-140 0 -140 -80q0 -37 30 -55q31 -19 101 -29z" />
    <glyph glyph-name="Scedilla" unicode="&#x15e;" horiz-adv-x="1355" 
d="M1325 440q0 -208 -138 -327q-139 -120 -390 -142l-82 -94q10 2 37 2q105 0 166 -45t61 -115q0 -93 -83 -146q-82 -52 -247 -52q-75 0 -149 14v123q46 -8 114 -8q123 0 123 78q0 69 -116 69q-28 0 -48 -2v78l74 94q-296 7 -457 146q-159 137 -159 366h393q1 -113 68 -157
q65 -43 206 -43q205 0 205 131q0 61 -47 90q-46 28 -182 51l-115 18q-506 83 -506 471q0 207 155 329t443 122q291 0 451 -122t172 -359h-385q-5 88 -60 129q-56 41 -172 41q-186 0 -186 -121q0 -62 47 -92q48 -31 166 -52l121 -20q271 -45 396 -153q124 -108 124 -302z" />
    <glyph glyph-name="scedilla" unicode="&#x15f;" horiz-adv-x="1105" 
d="M1085 317q0 -151 -114 -240q-115 -90 -326 -106l-80 -94q10 2 37 2q105 0 166 -45t61 -115q0 -93 -83 -146q-82 -52 -246 -52q-76 0 -150 14v123q46 -8 115 -8q123 0 123 78q0 69 -117 69q-27 0 -47 -2v78l74 94q-239 11 -351 96t-127 273h365q7 -71 48 -100t128 -29
q150 0 150 80q0 39 -35 60q-34 21 -125 36l-152 23q-366 52 -366 329q0 169 130 257q131 89 378 89q491 0 514 -366h-346q-4 127 -168 127q-140 0 -140 -80q0 -37 30 -55q31 -19 101 -29l181 -25q191 -27 281 -108q91 -82 91 -228z" />
    <glyph glyph-name="Scaron" unicode="&#x160;" horiz-adv-x="1355" 
d="M1085 1874l-243 -295h-393l-248 295h327l115 -119l113 119h329zM684 915l121 -20q271 -45 396 -153q124 -108 124 -302q0 -230 -170 -352q-169 -121 -473 -121q-312 0 -482 137q-169 136 -169 375h393q1 -113 68 -157q65 -43 206 -43q205 0 205 131q0 61 -47 90
q-46 28 -182 51l-115 18q-506 83 -506 471q0 207 155 329t443 122q291 0 451 -122t172 -359h-385q-5 88 -60 129q-56 41 -172 41q-186 0 -186 -121q0 -62 47 -92q48 -31 166 -52z" />
    <glyph glyph-name="scaron" unicode="&#x161;" horiz-adv-x="1105" 
d="M989 1458l-244 -295h-393l-248 295h328l115 -119l112 119h330zM532 678l181 -25q191 -27 281 -108q91 -82 91 -228q0 -168 -139 -259t-393 -91q-265 0 -392 86q-126 85 -141 283h365q7 -71 48 -100t128 -29q150 0 150 80q0 39 -35 60q-34 21 -125 36l-152 23
q-366 52 -366 329q0 169 130 257q131 89 378 89q491 0 514 -366h-346q-4 127 -168 127q-140 0 -140 -80q0 -37 30 -55q31 -19 101 -29z" />
    <glyph glyph-name="uni0162" unicode="&#x162;" horiz-adv-x="1310" 
d="M860 1094v-1094h-115l-77 -90q10 2 37 2q104 0 165 -45q62 -45 62 -115q0 -93 -83 -146q-82 -52 -247 -52q-75 0 -149 14v123q46 -8 114 -8q123 0 123 77q0 70 -117 70q-27 0 -47 -2v78l74 94h-149v1094h-431v364h1270v-364h-430z" />
    <glyph glyph-name="uni0163" unicode="&#x163;" horiz-adv-x="786" 
d="M745 1057v-266h-198v-422q0 -59 25 -77t96 -18h77v-274q-91 -10 -159 -10h-49l-70 -80q10 2 37 2q104 0 166 -45q61 -45 61 -115q0 -93 -83 -146q-82 -52 -247 -52q-75 0 -149 14v123q46 -8 115 -8q122 0 122 77q0 70 -116 70q-27 0 -47 -2v78l80 100q-123 27 -180 104
q-56 75 -56 214v467h-150v266h150v319h377v-319h198z" />
    <glyph glyph-name="Tcaron" unicode="&#x164;" horiz-adv-x="1310" 
d="M1096 1841l-244 -295h-393l-248 295h328l114 -119l113 119h330zM20 1458h1270v-364h-430v-1094h-409v1094h-431v364z" />
    <glyph glyph-name="tcaron" unicode="&#x165;" horiz-adv-x="786" 
d="M612 1118l45 340h359l-162 -340h-242zM170 1376h377v-319h198v-266h-198v-422q0 -59 25 -77t96 -18h77v-274q-91 -10 -159 -10q-224 0 -320 78t-96 256v467h-150v266h150v319z" />
    <glyph glyph-name="Tbar" unicode="&#x166;" horiz-adv-x="1310" 
d="M1290 1458v-364h-430v-310h242v-194h-242v-590h-409v590h-242v194h242v310h-431v364h1270z" />
    <glyph glyph-name="tbar" unicode="&#x167;" horiz-adv-x="786" 
d="M745 1057v-266h-198v-142h198v-194h-198v-86q0 -59 25 -77t96 -18h77v-274q-91 -10 -159 -10q-224 0 -320 78t-96 256v131h-150v194h150v142h-150v266h150v319h377v-319h198z" />
    <glyph glyph-name="Utilde" unicode="&#x168;" horiz-adv-x="1474" 
d="M553 1546h-217q0 144 65 219q66 76 168 76q75 0 176 -37q78 -28 119 -28q54 0 58 65h217q0 -143 -66 -219t-168 -76q-75 0 -174 37q-87 29 -121 29q-52 0 -57 -66zM737 -33q-290 0 -471 154q-184 153 -184 438v899h410v-903q0 -115 64 -176q65 -62 181 -62q117 0 182 62
q64 61 64 176v903h410v-899q0 -288 -179 -440q-181 -152 -477 -152z" />
    <glyph glyph-name="utilde" unicode="&#x169;" horiz-adv-x="1226" 
d="M477 1229q-53 0 -57 -66h-217q0 144 65 219q66 76 168 76q77 0 176 -37q78 -28 119 -28q53 0 57 65h218q0 -142 -66 -219q-66 -76 -168 -76q-73 0 -174 37q-87 29 -121 29zM768 471v586h377v-1057h-369v139q-128 -164 -330 -164q-163 0 -264 104q-100 103 -100 294v684
h377v-604q0 -158 143 -158q73 0 119 46q47 47 47 130z" />
    <glyph glyph-name="Umacron" unicode="&#x16a;" horiz-adv-x="1474" 
d="M1100 1546h-725v236h725v-236zM737 -33q-290 0 -471 154q-184 153 -184 438v899h410v-903q0 -115 64 -176q65 -62 181 -62q117 0 182 62q64 61 64 176v903h410v-899q0 -288 -179 -440q-181 -152 -477 -152z" />
    <glyph glyph-name="umacron" unicode="&#x16b;" horiz-adv-x="1226" 
d="M242 1399h725v-236h-725v236zM768 471v586h377v-1057h-369v139q-128 -164 -330 -164q-163 0 -264 104q-100 103 -100 294v684h377v-604q0 -158 143 -158q73 0 119 46q47 47 47 130z" />
    <glyph glyph-name="Ubreve" unicode="&#x16c;" horiz-adv-x="1474" 
d="M987 1616q-103 -80 -250 -80t-250 80q-98 78 -133 225h264q22 -96 119 -96t119 96h264q-35 -147 -133 -225zM737 -33q-290 0 -471 154q-184 153 -184 438v899h410v-903q0 -115 64 -176q65 -62 181 -62q117 0 182 62q64 61 64 176v903h410v-899q0 -288 -179 -440
q-181 -152 -477 -152z" />
    <glyph glyph-name="ubreve" unicode="&#x16d;" horiz-adv-x="1226" 
d="M854 1233q-103 -80 -250 -80q-149 0 -250 80q-98 78 -133 225h264q23 -96 119 -96t119 96h264q-35 -147 -133 -225zM768 471v586h377v-1057h-369v139q-128 -164 -330 -164q-163 0 -264 104q-100 103 -100 294v684h377v-604q0 -158 143 -158q73 0 119 46q47 47 47 130z
" />
    <glyph glyph-name="Uring" unicode="&#x16e;" horiz-adv-x="1474" 
d="M1053 1458h340v-899q0 -288 -179 -440q-181 -152 -477 -152q-290 0 -471 154q-184 153 -184 438v899h340q-21 56 -21 115q0 139 99 227q94 88 237 88q145 0 240 -88q96 -90 96 -227q0 -62 -20 -115zM821 1655q-35 33 -83 33t-83 -33q-32 -32 -32 -82t32 -82
q35 -33 83 -33t83 33t35 82t-35 82zM557 379q67 -62 180 -62q114 0 181 62q65 61 65 176v799q-97 -97 -246 -97q-148 0 -245 97v-799q0 -115 65 -176z" />
    <glyph glyph-name="uring" unicode="&#x16f;" horiz-adv-x="1226" 
d="M844 1247q-100 -90 -240 -90q-141 0 -237 90q-99 89 -99 226t99 227q94 88 237 88q145 0 240 -88q96 -90 96 -227q0 -136 -96 -226zM688 1554q-33 33 -83 33t-83 -33q-35 -33 -35 -81q0 -49 35 -82q33 -33 83 -33t83 33t33 82q0 48 -33 81zM768 471v586h377v-1057h-369
v139q-128 -164 -330 -164q-163 0 -264 104q-100 103 -100 294v684h377v-604q0 -158 143 -158q73 0 119 46q47 47 47 130z" />
    <glyph glyph-name="Uhungarumlaut" unicode="&#x170;" horiz-adv-x="1474" 
d="M623 1546h-283l182 295h402zM1126 1546h-284l184 295h399zM737 -33q-290 0 -471 154q-184 153 -184 438v899h410v-903q0 -115 64 -176q65 -62 181 -62q117 0 182 62q64 61 64 176v903h410v-899q0 -288 -179 -440q-181 -152 -477 -152z" />
    <glyph glyph-name="uhungarumlaut" unicode="&#x171;" horiz-adv-x="1226" 
d="M403 1458h402l-301 -295h-283zM1307 1458l-299 -295h-285l184 295h400zM768 471v586h377v-1057h-369v139q-128 -164 -330 -164q-163 0 -264 104q-100 103 -100 294v684h377v-604q0 -158 143 -158q73 0 119 46q47 47 47 130z" />
    <glyph glyph-name="Uogonek" unicode="&#x172;" horiz-adv-x="1474" 
d="M983 555v903h410v-899q0 -217 -106 -361q-105 -142 -298 -198q-192 -82 -192 -170q0 -70 102 -70q36 0 90 13v-183q-64 -16 -149 -16q-148 0 -229 54t-81 149q0 114 140 192q-262 18 -426 170q-162 150 -162 420v899h410v-903q0 -115 64 -176q65 -62 181 -62
q117 0 182 62q64 61 64 176z" />
    <glyph glyph-name="uogonek" unicode="&#x173;" horiz-adv-x="1226" 
d="M1145 1057v-1057q-193 -83 -193 -170q0 -70 103 -70q36 0 90 13v-183q-64 -16 -150 -16q-147 0 -228 54t-81 149q0 66 51 126q50 59 156 97h-117v139q-128 -164 -330 -164q-163 0 -264 104q-100 103 -100 294v684h377v-604q0 -158 143 -158q73 0 119 46q47 47 47 130v586
h377z" />
    <glyph glyph-name="Wcircumflex" unicode="&#x174;" horiz-adv-x="2062" 
d="M1145 1546l-113 119l-114 -119h-330l243 295h394l248 -295h-328zM1550 1038l95 420h428l-394 -1458h-458l-91 432q-65 318 -98 533q-41 -254 -100 -533l-90 -432h-459l-393 1458h428l94 -420q90 -401 123 -583q46 284 108 583l86 420h404l86 -420q62 -299 108 -583
q34 181 123 583z" />
    <glyph glyph-name="wcircumflex" unicode="&#x175;" horiz-adv-x="1816" 
d="M1022 1163l-113 119l-114 -119h-330l244 295h393l248 -295h-328zM1333 768l80 289h404l-342 -1057h-398l-102 365q-40 138 -68 258q-33 -145 -65 -258l-103 -365h-397l-342 1057h403l80 -289q30 -108 92 -348q31 140 87 350l75 287h342l76 -287q49 -192 86 -350
q62 240 92 348z" />
    <glyph glyph-name="Ycircumflex" unicode="&#x176;" horiz-adv-x="1466" 
d="M846 1546l-113 119l-115 -119h-329l243 295h394l248 -295h-328zM938 1296l90 162h449l-535 -897v-561h-410v561l-542 897h461l94 -164q166 -292 200 -356q96 188 193 358z" />
    <glyph glyph-name="ycircumflex" unicode="&#x177;" horiz-adv-x="1183" 
d="M705 1163l-113 119l-115 -119h-330l244 295h393l248 -295h-327zM786 1012l13 45h385l-363 -1057q-78 -228 -200 -317q-125 -89 -392 -89q-41 0 -133 5v286h105q147 0 147 125q0 62 -49 197l-299 850h403l13 -43q117 -411 188 -729q50 234 182 727z" />
    <glyph glyph-name="Ydieresis" unicode="&#x178;" horiz-adv-x="1466" 
d="M328 1841h354v-295h-354v295zM784 1841h355v-295h-355v295zM938 1296l90 162h449l-535 -897v-561h-410v561l-542 897h461l94 -164q166 -292 200 -356q96 188 193 358z" />
    <glyph glyph-name="Zacute" unicode="&#x179;" horiz-adv-x="1353" 
d="M717 1841h395l-283 -295h-294zM1010 365h293v-365h-1252v315l430 482q37 40 133 145.5t142 155.5q-335 -4 -424 -4h-260v364h1220v-311l-432 -485q-29 -32 -120 -132.5t-154 -169.5q418 5 424 5z" />
    <glyph glyph-name="zacute" unicode="&#x17a;" horiz-adv-x="1054" 
d="M575 1458h396l-283 -295h-295zM731 272h273v-272h-953v229l336 406q46 59 129 151q-62 -2 -209 -2h-256v273h936v-230l-336 -405q-53 -67 -129 -152q62 2 209 2z" />
    <glyph glyph-name="Zdotaccent" unicode="&#x17b;" horiz-adv-x="1353" 
d="M498 1841h356v-295h-356v295zM1010 365h293v-365h-1252v315l430 482q37 40 133 145.5t142 155.5q-335 -4 -424 -4h-260v364h1220v-311l-432 -485q-29 -32 -120 -132.5t-154 -169.5q418 5 424 5z" />
    <glyph glyph-name="zdotaccent" unicode="&#x17c;" horiz-adv-x="1054" 
d="M352 1458h357v-295h-357v295zM731 272h273v-272h-953v229l336 406q46 59 129 151q-62 -2 -209 -2h-256v273h936v-230l-336 -405q-53 -67 -129 -152q62 2 209 2z" />
    <glyph glyph-name="Zcaron" unicode="&#x17d;" horiz-adv-x="1353" 
d="M1118 1841l-244 -295h-393l-248 295h328l115 -119l112 119h330zM1010 365h293v-365h-1252v315l430 482q37 40 133 145.5t142 155.5q-335 -4 -424 -4h-260v364h1220v-311l-432 -485q-29 -32 -120 -132.5t-154 -169.5q418 5 424 5z" />
    <glyph glyph-name="zcaron" unicode="&#x17e;" horiz-adv-x="1054" 
d="M969 1458l-244 -295h-393l-248 295h328l114 -119l113 119h330zM731 272h273v-272h-953v229l336 406q46 59 129 151q-62 -2 -209 -2h-256v273h936v-230l-336 -405q-53 -67 -129 -152q62 2 209 2z" />
    <glyph glyph-name="uni018F" unicode="&#x18f;" horiz-adv-x="1550" 
d="M750 1491q352 0 557 -205q202 -205 202 -555q0 -340 -202 -551q-207 -213 -535 -213q-335 0 -532 221q-199 220 -199 570v86h1042q-45 295 -329 295q-178 0 -256 -133h-418q56 225 233 355q178 130 437 130zM760 315q268 0 319 279h-624q21 -130 100 -204q79 -75 205 -75
z" />
    <glyph glyph-name="florin" unicode="&#x192;" horiz-adv-x="1167" 
d="M1032 1180q-81 0 -116 -35q-33 -33 -48 -131l-20 -133h231v-267h-270l-94 -620q-33 -222 -146 -322q-111 -98 -325 -98q-112 0 -203 12v291q53 -8 94 -8q81 0 116 35q33 33 48 131l88 579h-211v267h250l27 174q33 222 145 321t326 99q103 0 202 -13v-291q-59 9 -94 9z
" />
    <glyph glyph-name="uni01F4" unicode="&#x1f4;" horiz-adv-x="1615" 
d="M836 1874h395l-283 -295h-295zM844 524v312h690v-836h-279l-41 190q-68 -108 -192 -165q-127 -58 -279 -58q-319 0 -510 207q-192 206 -192 555q0 350 201 557q198 205 555 205q297 0 489 -141q197 -145 230 -389h-418q-63 180 -297 180q-157 0 -246 -109
q-88 -107 -88 -303q0 -195 93 -303q94 -109 263 -109q109 0 188 57q79 56 101 150h-268z" />
    <glyph glyph-name="uni01F5" unicode="&#x1f5;" horiz-adv-x="1241" 
d="M682 1458h395l-282 -295h-295zM791 928v129h368v-1028q0 -216 -146 -335q-147 -120 -413 -120q-252 0 -389 108t-143 298h370q6 -130 172 -130q84 0 128 44t44 120v164q-95 -137 -282 -137q-204 0 -332 147q-127 145 -127 375q0 231 123 375q122 143 328 143
q204 0 299 -153zM420 555q0 -219 184 -219t184 227q0 223 -184 223t-184 -231z" />
    <glyph glyph-name="Aringacute" unicode="&#x1fa;" horiz-adv-x="1525" 
d="M1536 0h-434l-62 190h-571l-61 -190h-418l491 1382q-63 78 -63 191q0 106 59 184q61 81 158 113l158 256h393l-264 -277q77 -38 122 -111q46 -74 46 -165q0 -110 -64 -189zM672 1655q-33 -33 -33 -82t33 -82t82 -33q50 0 84 33t34 82t-34 82q-33 33 -83 33t-83 -33z
M682 864l-107 -336h355l-109 336q-56 174 -69 232q-14 -45 -30 -97.5t-25.5 -84.5t-14.5 -50z" />
    <glyph glyph-name="aringacute" unicode="&#x1fb;" horiz-adv-x="1181" 
d="M664 2150h395l-283 -295h-295zM856 1247q-100 -90 -240 -90q-141 0 -237 90q-98 88 -98 226t98 227q94 88 237 88q145 0 240 -88q96 -90 96 -227q0 -136 -96 -226zM700 1554q-33 33 -82 33q-48 0 -83 -33t-35 -81q0 -49 35 -82q34 -33 83 -33t82 33t33 82q0 48 -33 81z
M1161 0h-379q-21 47 -26 109q-108 -134 -336 -134q-175 0 -282 88t-107 242q0 150 100 231t322 99l170 14q67 6 97 27t30 61q0 84 -134 84q-82 0 -115 -23q-35 -24 -42 -89h-373q15 190 144 280q131 92 391 92q497 0 497 -331v-560q0 -134 43 -190zM549 217q201 0 201 199
v61q-23 -30 -95 -41l-120 -12q-121 -12 -121 -105q0 -47 36 -74q37 -28 99 -28z" />
    <glyph glyph-name="AEacute" unicode="&#x1fc;" horiz-adv-x="2191" 
d="M1415 1841h395l-282 -295h-295zM2140 1458v-364h-659v-193h594v-340h-594v-196h659v-365h-1057v272h-546l-127 -272h-420l686 1458h1464zM928 1120l-236 -510h391v510h-155z" />
    <glyph glyph-name="aeacute" unicode="&#x1fd;" horiz-adv-x="1875" 
d="M999 1458h396l-283 -295h-295zM1825 487v-67h-735q34 -178 200 -178q123 0 176 92h336q-41 -169 -180 -263q-142 -96 -332 -96q-235 0 -387 146q-175 -146 -442 -146q-201 0 -316 86q-114 85 -114 244q0 150 100 231t322 99l170 14q67 6 97 27t30 61q0 84 -134 84
q-82 0 -115 -23q-35 -24 -42 -89h-373q15 190 144 280q131 92 391 92q240 0 348 -90q137 90 317 90q244 0 391 -157q148 -160 148 -437zM1282 815q-159 0 -192 -172h391q-37 172 -199 172zM549 217q201 0 201 199v61q-23 -30 -95 -41l-120 -12q-121 -12 -121 -105
q0 -47 36 -74q37 -28 99 -28z" />
    <glyph glyph-name="Oslashacute" unicode="&#x1fe;" horiz-adv-x="1613" 
d="M846 1874h395l-283 -295h-294zM1565 1434l-168 -189q176 -208 176 -516q0 -348 -211 -553q-212 -209 -555 -209q-247 0 -438 115l-170 -193l-152 136l168 190q-174 201 -174 514q0 347 211 555q213 207 555 207q245 0 436 -115l170 193zM467 729q0 -107 31 -194l489 552
q-79 50 -180 50q-156 0 -248 -110t-92 -298zM807 322q157 0 248 108q92 109 92 299q0 107 -33 197l-489 -555q77 -49 182 -49z" />
    <glyph glyph-name="oslashacute" unicode="&#x1ff;" horiz-adv-x="1220" 
d="M657 1458h396l-283 -295h-295zM1171 1032l-116 -131q125 -146 125 -373q0 -249 -154 -401q-157 -152 -416 -152q-184 0 -317 76l-123 -137l-123 109l119 133q-125 146 -125 372q0 253 154 404q150 149 415 149q187 0 318 -75l121 135zM401 528q0 -59 9 -100l317 352
q-45 33 -117 33q-209 0 -209 -285zM610 244q209 0 209 284q0 64 -8 101l-317 -353q44 -32 116 -32z" />
    <glyph glyph-name="uni0218" unicode="&#x218;" horiz-adv-x="1355" 
d="M684 915l121 -20q271 -45 396 -153q124 -108 124 -302q0 -230 -170 -352q-169 -121 -473 -121q-312 0 -482 137q-169 136 -169 375h393q1 -113 68 -157q65 -43 206 -43q205 0 205 131q0 61 -47 90q-46 28 -182 51l-115 18q-506 83 -506 471q0 207 155 329t443 122
q291 0 451 -122t172 -359h-385q-5 88 -60 129q-56 41 -172 41q-186 0 -186 -121q0 -62 47 -92q48 -31 166 -52zM678 -365h-129v244h311v-250q0 -103 -62 -150q-63 -48 -194 -48h-55v116h55q74 0 74 78v10z" />
    <glyph glyph-name="uni0219" unicode="&#x219;" horiz-adv-x="1105" 
d="M532 678l181 -25q191 -27 281 -108q91 -82 91 -228q0 -168 -139 -259t-393 -91q-265 0 -392 86q-126 85 -141 283h365q7 -71 48 -100t128 -29q150 0 150 80q0 39 -35 60q-34 21 -125 36l-152 23q-366 52 -366 329q0 169 130 257q131 89 378 89q491 0 514 -366h-346
q-4 127 -168 127q-140 0 -140 -80q0 -37 30 -55q31 -19 101 -29zM528 -383h-129v244h312v-250q0 -103 -63 -151t-193 -48h-56v117h56q73 0 73 78v10z" />
    <glyph glyph-name="uni021A" unicode="&#x21a;" horiz-adv-x="1310" 
d="M20 1458h1270v-364h-430v-1094h-409v1094h-431v364zM631 -332h-129v244h311v-250q0 -103 -62 -150q-64 -49 -194 -49h-55v117h55q74 0 74 78v10z" />
    <glyph glyph-name="uni021B" unicode="&#x21b;" horiz-adv-x="786" 
d="M745 1057v-266h-198v-422q0 -59 25 -77t96 -18h77v-274q-91 -10 -159 -10q-224 0 -320 78t-96 256v467h-150v266h150v319h377v-319h198zM430 -350h-129v244h311v-250q0 -104 -62 -151q-63 -48 -194 -48h-55v117h55q74 0 74 78v10z" />
    <glyph glyph-name="uni0237" unicode="&#x237;" horiz-adv-x="540" 
d="M63 -406q-20 0 -112 5v280h31q35 0 51 4q19 5 34 27t15 63v1084h377v-1129q0 -176 -93 -255q-92 -79 -303 -79z" />
    <glyph glyph-name="uni0259" unicode="&#x259;" horiz-adv-x="1224" 
d="M610 1081q263 0 418 -149q156 -150 156 -404q0 -249 -154 -401q-158 -152 -412 -152q-253 0 -411 160q-156 156 -156 434v68h772q-33 178 -213 178q-124 0 -180 -92h-354q44 171 192 264q149 94 342 94zM623 242q167 0 200 172h-407q37 -172 207 -172z" />
    <glyph glyph-name="h.sups" unicode="&#x2b0;" horiz-adv-x="962" 
d="M621 1477q149 0 235 -95t86 -260v-585h-330v530q0 131 -123 131q-63 0 -102 -39t-39 -110v-512h-328v1267h328v-461q111 134 273 134z" />
    <glyph glyph-name="r.sups" unicode="&#x2b3;" horiz-adv-x="671" 
d="M586 1473q15 0 65 -5v-297h-82q-221 0 -221 -231v-403h-328v921h320v-170q53 185 246 185z" />
    <glyph glyph-name="circumflex" unicode="&#x2c6;" horiz-adv-x="819" 
d="M604 1458l248 -295h-328l-112 119l-115 -119h-330l244 295h393z" />
    <glyph glyph-name="caron" unicode="&#x2c7;" horiz-adv-x="819" 
d="M412 1339l112 119h330l-244 -295h-393l-248 295h328z" />
    <glyph glyph-name="uni02C9" unicode="&#x2c9;" horiz-adv-x="819" 
d="M772 1163h-725v236h725v-236z" />
    <glyph glyph-name="breve" unicode="&#x2d8;" horiz-adv-x="819" 
d="M659 1233q-103 -80 -249 -80q-147 0 -250 80q-98 78 -133 225h264q23 -96 119 -96t118 96h265q-34 -147 -134 -225z" />
    <glyph glyph-name="dotaccent" unicode="&#x2d9;" horiz-adv-x="819" 
d="M590 1163h-357v295h357v-295z" />
    <glyph glyph-name="ring" unicode="&#x2da;" horiz-adv-x="819" 
d="M649 1247q-101 -90 -239 -90q-142 0 -238 90q-98 88 -98 226t98 227q94 88 238 88t239 -88q96 -90 96 -227q0 -136 -96 -226zM328 1391q33 -33 82 -33q50 0 84 33t34 82q0 48 -34 81t-84 33q-49 0 -82 -33t-33 -81q0 -49 33 -82z" />
    <glyph glyph-name="ogonek" unicode="&#x2db;" horiz-adv-x="819" 
d="M489 -426q-147 0 -228 54t-81 149q0 66 51 126q50 59 156 97h252q-193 -83 -193 -170q0 -70 103 -70q36 0 90 13v-183q-64 -16 -150 -16z" />
    <glyph glyph-name="tilde" unicode="&#x2dc;" horiz-adv-x="819" 
d="M225 1163h-217q0 143 66 219t168 76q75 0 176 -37q78 -28 119 -28q53 0 57 65h217q0 -142 -66 -219q-66 -76 -167 -76q-76 0 -175 37q-87 29 -120 29q-53 0 -58 -66z" />
    <glyph glyph-name="hungarumlaut" unicode="&#x2dd;" horiz-adv-x="819" 
d="M152 1163h-283l182 295h402zM655 1163h-284l184 295h399z" />
    <glyph glyph-name="s.sups" unicode="&#x2e2;" horiz-adv-x="962" 
d="M481 508q-230 0 -338 75t-123 246h318q7 -63 40 -86q31 -22 111 -22q125 0 125 63q0 35 -28 53q-26 17 -111 29l-143 21q-299 44 -299 289q0 146 113 223q114 78 329 78q422 0 440 -322h-303q-2 111 -141 111q-119 0 -119 -70q0 -57 111 -72l151 -20q166 -22 247 -93
t81 -198q0 -146 -121 -225q-122 -80 -340 -80z" />
    <glyph glyph-name="gravecomb" unicode="&#x300;" 
d="M289 1163h-295l-283 295h395z" />
    <glyph glyph-name="acutecomb" unicode="&#x301;" 
d="M6 1163h-295l183 295h395z" />
    <glyph glyph-name="uni0302" unicode="&#x302;" 
d="M195 1458l247 -295h-327l-113 119l-115 -119h-329l243 295h394z" />
    <glyph glyph-name="tildecomb" unicode="&#x303;" 
d="M-184 1163h-217q0 144 65 219q66 76 168 76q75 0 176 -37q78 -28 119 -28q53 0 57 65h217q0 -144 -65 -219q-66 -76 -168 -76q-75 0 -174 37q-87 29 -121 29q-53 0 -57 -66z" />
    <glyph glyph-name="uni0304" unicode="&#x304;" 
d="M362 1163h-724v236h724v-236z" />
    <glyph glyph-name="uni0306" unicode="&#x306;" 
d="M250 1233q-101 -80 -250 -80q-147 0 -250 80q-98 78 -133 225h264q23 -96 119 -96t119 96h264q-35 -147 -133 -225z" />
    <glyph glyph-name="uni0307" unicode="&#x307;" 
d="M178 1163h-356v295h356v-295z" />
    <glyph glyph-name="uni0308" unicode="&#x308;" 
d="M-51 1163h-355v295h355v-295zM406 1163h-355v295h355v-295z" />
    <glyph glyph-name="uni030A" unicode="&#x30a;" 
d="M240 1247q-100 -90 -240 -90t-240 90q-96 90 -96 226q0 137 96 227q95 88 240 88t240 -88q96 -90 96 -227q0 -136 -96 -226zM-84 1391q34 -33 84 -33t84 33q35 33 35 82q0 48 -35 81q-34 33 -84 33t-84 -33q-35 -33 -35 -81q0 -49 35 -82z" />
    <glyph glyph-name="uni030B" unicode="&#x30b;" 
d="M-260 1163h-283l183 295h401zM244 1163h-285l184 295h400z" />
    <glyph glyph-name="uni030C" unicode="&#x30c;" 
d="M-2 1339l115 119h329l-243 -295h-394l-247 295h327z" />
    <glyph glyph-name="uni0312" unicode="&#x312;" 
d="M156 1495h-56q-73 0 -73 -78v-10h129v-244h-312v250q0 103 63 151t193 48h56v-117z" />
    <glyph glyph-name="uni0313" unicode="&#x313;" 
d="M-156 1368v244h312v-250q0 -103 -63 -151t-193 -48h-56v117h56q73 0 73 78v10h-129z" />
    <glyph glyph-name="dotbelowcomb" unicode="&#x323;" 
d="M178 -401h-356v295h356v-295z" />
    <glyph glyph-name="uni0324" unicode="&#x324;" 
d="M-51 -401h-355v295h355v-295zM406 -401h-355v295h355v-295z" />
    <glyph glyph-name="uni0325" unicode="&#x325;" 
d="M236 -631q-97 -86 -236 -86t-236 86q-92 86 -92 219q0 136 92 219q98 87 236 87t236 -87q92 -83 92 -219q0 -133 -92 -219zM-84 -492q51 -53 128 -23t73 103q0 50 -34 81q-35 32 -83 32t-83 -32q-34 -31 -34 -81q0 -47 33 -80z" />
    <glyph glyph-name="uni0326" unicode="&#x326;" 
d="M-156 -350v244h312v-250q0 -103 -63 -151t-193 -48h-56v117h56q73 0 73 78v10h-129z" />
    <glyph glyph-name="uni0327" unicode="&#x327;" 
d="M12 -88q105 0 166 -45q62 -45 62 -115q0 -93 -83 -146q-82 -52 -247 -52q-76 0 -150 14v123q46 -8 115 -8q123 0 123 77q0 70 -117 70q-27 0 -47 -2v78l82 104h145l-86 -100q10 2 37 2z" />
    <glyph glyph-name="uni0328" unicode="&#x328;" 
d="M80 -426q-147 0 -228 54t-81 149q0 66 51 126t155 97h252q-192 -82 -192 -170q0 -70 102 -70q36 0 90 13v-183q-64 -16 -149 -16z" />
    <glyph glyph-name="uni032E" unicode="&#x32e;" 
d="M250 -332q-101 -80 -250 -80q-147 0 -250 80q-98 77 -133 226h264q23 -97 119 -97t119 97h264q-35 -149 -133 -226z" />
    <glyph glyph-name="uni0331" unicode="&#x331;" 
d="M362 -342h-724v236h724v-236z" />
    <glyph glyph-name="uni0335" unicode="&#x335;" 
d="M373 455h-746v194h746v-194z" />
    <glyph glyph-name="uni0337" unicode="&#x337;" 
d="M563 1030l-1003 -1118l-123 108l1003 1119z" />
    <glyph glyph-name="uni0338" unicode="&#x338;" 
d="M760 1434l-1368 -1545l-152 136l1368 1544z" />
    <glyph glyph-name="uni0394" unicode="&#x394;" horiz-adv-x="1443" 
d="M469 1458h492l432 -1120v-338h-1342v338zM643 864l-178 -506h498l-181 506q-52 156 -69 221q-13 -51 -70 -221z" />
    <glyph glyph-name="uni03A9" unicode="&#x3a9;" horiz-adv-x="1636" 
d="M745 0h-704v352h278v6q-266 192 -266 500q0 285 203 461q198 174 553 174q361 0 567 -174q207 -175 207 -461q0 -305 -264 -500v-6h276v-352h-700v313q132 58 202 174t70 275q0 181 -92 279t-254 98q-164 0 -257 -98q-93 -97 -93 -279q0 -156 72 -274t202 -175v-313z" />
    <glyph glyph-name="uni03BC" unicode="&#x3bc;" horiz-adv-x="1228" 
d="M770 471v586h377v-1057h-369v139q-122 -164 -317 -164h-10v-376h-369v1458h379v-604q0 -158 143 -158q73 0 119 46q47 47 47 130z" />
    <glyph glyph-name="pi" unicode="&#x3c0;" horiz-adv-x="1382" 
d="M1341 1057v-266h-149v-467q0 -64 57 -64q46 0 66 2v-262q-81 -10 -178 -10q-191 0 -254 67q-68 68 -68 238v496h-268v-791h-377v791h-150v266h1321z" />
    <glyph glyph-name="d.sups" unicode="&#x1d48;" horiz-adv-x="1017" 
d="M668 1358v446h329v-1267h-319v112q-85 -133 -262 -133q-185 0 -290 129q-106 130 -106 350t106 352q105 130 290 130q166 0 252 -119zM350 989q0 -215 162 -215t162 221q0 224 -162 224t-162 -230z" />
    <glyph glyph-name="t.sups" unicode="&#x1d57;" horiz-adv-x="647" 
d="M637 1458v-233h-168v-369q0 -44 20 -58q22 -16 78 -16h70v-241q-95 -9 -139 -9q-194 0 -276 68q-81 68 -81 217v408h-131v233h131v277h328v-277h168z" />
    <glyph glyph-name="Wgrave" unicode="&#x1e80;" horiz-adv-x="2062" 
d="M997 1841l183 -295h-295l-283 295h395zM1550 1038l95 420h428l-394 -1458h-458l-91 432q-65 318 -98 533q-41 -254 -100 -533l-90 -432h-459l-393 1458h428l94 -420q90 -401 123 -583q46 284 108 583l86 420h404l86 -420q62 -299 108 -583q34 181 123 583z" />
    <glyph glyph-name="wgrave" unicode="&#x1e81;" horiz-adv-x="1816" 
d="M881 1458l182 -295h-295l-283 295h396zM1333 768l80 289h404l-342 -1057h-398l-102 365q-40 138 -68 258q-33 -145 -65 -258l-103 -365h-397l-342 1057h403l80 -289q30 -108 92 -348q31 140 87 350l75 287h342l76 -287q49 -192 86 -350q62 240 92 348z" />
    <glyph glyph-name="Wacute" unicode="&#x1e82;" horiz-adv-x="2062" 
d="M1071 1841h395l-282 -295h-295zM1550 1038l95 420h428l-394 -1458h-458l-91 432q-65 318 -98 533q-41 -254 -100 -533l-90 -432h-459l-393 1458h428l94 -420q90 -401 123 -583q46 284 108 583l86 420h404l86 -420q62 -299 108 -583q34 181 123 583z" />
    <glyph glyph-name="wacute" unicode="&#x1e83;" horiz-adv-x="1816" 
d="M956 1458h396l-283 -295h-295zM1333 768l80 289h404l-342 -1057h-398l-102 365q-40 138 -68 258q-33 -145 -65 -258l-103 -365h-397l-342 1057h403l80 -289q30 -108 92 -348q31 140 87 350l75 287h342l76 -287q49 -192 86 -350q62 240 92 348z" />
    <glyph glyph-name="Wdieresis" unicode="&#x1e84;" horiz-adv-x="2062" 
d="M627 1841h354v-295h-354v295zM1083 1841h355v-295h-355v295zM1550 1038l95 420h428l-394 -1458h-458l-91 432q-65 318 -98 533q-41 -254 -100 -533l-90 -432h-459l-393 1458h428l94 -420q90 -401 123 -583q46 284 108 583l86 420h404l86 -420q62 -299 108 -583
q34 181 123 583z" />
    <glyph glyph-name="wdieresis" unicode="&#x1e85;" horiz-adv-x="1816" 
d="M504 1458h354v-295h-354v295zM961 1458h354v-295h-354v295zM1333 768l80 289h404l-342 -1057h-398l-102 365q-40 138 -68 258q-33 -145 -65 -258l-103 -365h-397l-342 1057h403l80 -289q30 -108 92 -348q31 140 87 350l75 287h342l76 -287q49 -192 86 -350q62 240 92 348
z" />
    <glyph glyph-name="uni1E9E" unicode="&#x1e9e;" horiz-adv-x="1501" 
d="M1395 1149l-242 -299q153 -45 236 -148q81 -100 81 -247q0 -223 -154 -344t-456 -121q-51 0 -184 10v317q120 -4 153 -4q220 0 220 140q0 135 -226 135h-121v237l265 332q-74 10 -183 10q-160 0 -228 -64q-69 -65 -69 -190v-913h-405v899q0 286 183 439t513 153
q274 0 617 -43v-299z" />
    <glyph glyph-name="Ygrave" unicode="&#x1ef2;" horiz-adv-x="1466" 
d="M698 1841l183 -295h-295l-283 295h395zM938 1296l90 162h449l-535 -897v-561h-410v561l-542 897h461l94 -164q166 -292 200 -356q96 188 193 358z" />
    <glyph glyph-name="ygrave" unicode="&#x1ef3;" horiz-adv-x="1183" 
d="M563 1458l182 -295h-294l-283 295h395zM786 1012l13 45h385l-363 -1057q-78 -228 -200 -317q-125 -89 -392 -89q-41 0 -133 5v286h105q147 0 147 125q0 62 -49 197l-299 850h403l13 -43q117 -411 188 -729q50 234 182 727z" />
    <glyph glyph-name="thinspace" unicode="&#x2009;" horiz-adv-x="540" 
 />
    <glyph glyph-name="uni2011" unicode="&#x2011;" horiz-adv-x="731" 
d="M680 416h-629v313h629v-313z" />
    <glyph glyph-name="endash" unicode="&#x2013;" horiz-adv-x="1079" 
d="M1028 416h-977v313h977v-313z" />
    <glyph glyph-name="emdash" unicode="&#x2014;" horiz-adv-x="2021" 
d="M1970 416h-1919v313h1919v-313z" />
    <glyph glyph-name="quoteleft" unicode="&#x2018;" horiz-adv-x="503" 
d="M442 1276h-55q-106 0 -106 -123v-33h161v-368h-381v395q0 311 330 311h51v-182z" />
    <glyph glyph-name="quoteright" unicode="&#x2019;" horiz-adv-x="503" 
d="M61 1087v369h381v-395q0 -311 -329 -311h-52v182h56q106 0 106 123v32h-162z" />
    <glyph glyph-name="quotesinglbase" unicode="&#x201a;" horiz-adv-x="503" 
d="M61 0v369h381v-396q0 -311 -329 -311h-52v182h56q106 0 106 123v33h-162z" />
    <glyph glyph-name="quotedblleft" unicode="&#x201c;" horiz-adv-x="989" 
d="M61 752v395q0 311 330 311h51v-182h-55q-106 0 -106 -123v-33h161v-368h-381zM928 1276h-56q-106 0 -106 -123v-33h162v-368h-381v395q0 311 330 311h51v-182z" />
    <glyph glyph-name="quotedblright" unicode="&#x201d;" horiz-adv-x="989" 
d="M223 1090h-162v368h381v-395q0 -311 -329 -311h-52v182h56q106 0 106 123v33zM547 1090v368h381v-395q0 -311 -330 -311h-51v182h55q107 0 107 123v33h-162z" />
    <glyph glyph-name="quotedblbase" unicode="&#x201e;" horiz-adv-x="989" 
d="M223 0h-162v369h381v-396q0 -311 -329 -311h-52v182h56q106 0 106 123v33zM547 0v369h381v-396q0 -311 -330 -311h-51v182h55q107 0 107 123v33h-162z" />
    <glyph glyph-name="dagger" unicode="&#x2020;" horiz-adv-x="1269" 
d="M840 1057h409v-344h-409v-1012h-410v1012h-410v344h410v401h410v-401z" />
    <glyph glyph-name="daggerdbl" unicode="&#x2021;" horiz-adv-x="1269" 
d="M1249 1057v-344h-409v-267h409v-344h-409v-401h-410v401h-410v344h410v267h-410v344h410v401h410v-401h409z" />
    <glyph glyph-name="bullet" unicode="&#x2022;" horiz-adv-x="927" 
d="M825 229h-723v703h723v-703z" />
    <glyph glyph-name="ellipsis" unicode="&#x2026;" horiz-adv-x="1687" 
d="M479 0h-418v406h418v-406zM1053 0h-418v406h418v-406zM1626 0h-418v406h418v-406z" />
    <glyph glyph-name="perthousand" unicode="&#x2030;" horiz-adv-x="2703" 
d="M786 1034q0 -440 -372 -440q-373 0 -373 440q0 443 373 443q372 0 372 -443zM659 0h-221l779 1458h221zM414 801q59 0 86 51q26 49 26 182q0 136 -26 185q-27 51 -86 51q-61 0 -88 -51t-27 -185q0 -131 27 -182t88 -51zM1835 422q0 -440 -373 -440q-372 0 -372 440
q0 442 372 442q373 0 373 -442zM2662 422q0 -440 -372 -440q-373 0 -373 440q0 442 373 442q372 0 372 -442zM1462 188q58 0 86 52q27 51 27 182q0 133 -27 184t-86 51q-61 0 -88 -51q-26 -49 -26 -184q0 -133 26 -182q28 -52 88 -52zM2290 188q58 0 86 52q26 49 26 182
q0 135 -26 184q-27 51 -86 51q-61 0 -88 -51t-27 -184q0 -131 27 -182q28 -52 88 -52z" />
    <glyph glyph-name="guilsinglleft" unicode="&#x2039;" horiz-adv-x="552" 
d="M102 725l349 285v-336l-160 -129l160 -131v-336l-349 284v363z" />
    <glyph glyph-name="guilsinglright" unicode="&#x203a;" horiz-adv-x="552" 
d="M102 674v336l349 -285v-363l-349 -284v336l160 131z" />
    <glyph glyph-name="uni203D" unicode="&#x203d;" horiz-adv-x="1150" 
d="M588 1491q246 0 389 -103t143 -282q0 -214 -211 -350q-111 -71 -141 -105q-33 -33 -33 -127h-360v162l117 420h153l29 -135q39 39 39 88q0 125 -142 125q-94 0 -129 -41q-34 -39 -32 -139h-379q-2 244 137 365q140 122 420 122zM764 0h-418v406h418v-406z" />
    <glyph glyph-name="fraction" unicode="&#x2044;" horiz-adv-x="671" 
d="M57 0h-221l778 1458h222z" />
    <glyph glyph-name="zero.sups" unicode="&#x2070;" horiz-adv-x="827" 
d="M786 1503q0 -440 -372 -440q-373 0 -373 440q0 443 373 443q372 0 372 -443zM414 1270q59 0 86 51q26 49 26 182q0 136 -26 185q-27 51 -86 51q-61 0 -88 -51t-27 -185q0 -131 27 -182t88 -51z" />
    <glyph glyph-name="four.sups" unicode="&#x2074;" horiz-adv-x="796" 
d="M668 1442h98v-199h-98v-162h-248v162h-369v236l365 448h252v-485zM424 1442v233l-188 -233h188z" />
    <glyph glyph-name="five.sups" unicode="&#x2075;" horiz-adv-x="737" 
d="M414 1649q145 0 224 -79t79 -202q0 -140 -97 -222q-98 -83 -251 -83q-143 0 -238 75t-102 201h235q6 -36 35 -59t70 -23q51 0 82 31q30 30 30 80q0 49 -30 79t-82 30q-70 0 -99 -54h-229l82 504h553v-207h-361l-18 -96q52 25 117 25z" />
    <glyph glyph-name="six.sups" unicode="&#x2076;" horiz-adv-x="757" 
d="M438 1649q140 0 219 -81q80 -82 80 -200q0 -139 -95 -222t-249 -83q-129 0 -217 63q-145 105 -145 373q0 222 94 334q95 113 270 113q140 0 226 -65t104 -185h-231q-22 65 -101 65q-63 0 -93 -36q-31 -37 -38 -132q68 56 176 56zM315 1288q29 -31 78 -31t80 31
q29 29 29 74t-29 76q-29 28 -80 28q-50 0 -78 -28q-30 -30 -30 -76t30 -74z" />
    <glyph glyph-name="seven.sups" unicode="&#x2077;" horiz-adv-x="679" 
d="M31 1720v207h618v-198q-120 -126 -172 -269q-53 -145 -53 -379h-268q5 365 247 639h-372z" />
    <glyph glyph-name="eight.sups" unicode="&#x2078;" horiz-adv-x="784" 
d="M627 1528q127 -55 127 -199q0 -121 -99 -193q-100 -73 -264 -73t-263 73q-97 72 -97 193q0 144 127 199q-90 60 -90 174q0 117 86 180q84 64 237 64q155 0 241 -65q85 -64 85 -179q0 -114 -90 -174zM492 1683q0 82 -101 82q-100 0 -100 -82q0 -81 100 -81q101 0 101 81z
M391 1255q117 0 117 93q0 96 -117 96q-115 0 -115 -96q0 -93 115 -93z" />
    <glyph glyph-name="nine.sups" unicode="&#x2079;" horiz-adv-x="757" 
d="M582 1878q145 -105 145 -369q0 -221 -94 -333q-95 -113 -271 -113q-140 0 -225 64q-86 65 -104 186h231q23 -66 101 -66q63 0 93 36q31 37 38 132q-67 -55 -177 -55q-139 0 -219 80t-80 200q0 139 96 223q95 83 249 83q122 0 217 -68zM287 1573q29 -31 78 -31q48 0 79 31
q29 29 29 74q0 44 -29 75q-31 29 -79 29q-49 0 -78 -29q-31 -31 -31 -75q0 -45 31 -74z" />
    <glyph glyph-name="plus.sups" unicode="&#x207a;" horiz-adv-x="665" 
d="M442 1602h193v-197h-193v-197h-219v197h-192v197h192v196h219v-196z" />
    <glyph glyph-name="minus.sups" unicode="&#x207b;" horiz-adv-x="665" 
d="M635 1405h-604v197h604v-197z" />
    <glyph glyph-name="parenleft.sups" unicode="&#x207d;" horiz-adv-x="395" 
d="M395 922h-231q-69 163 -96 286q-27 124 -27 295q0 168 29 307q28 128 94 283h231q-114 -295 -114 -590q0 -266 114 -581z" />
    <glyph glyph-name="parenright.sups" unicode="&#x207e;" horiz-adv-x="395" 
d="M231 922h-231q115 318 115 581q0 292 -115 590h231q68 -160 95 -283q28 -134 28 -307q0 -175 -26 -295q-26 -119 -97 -286z" />
    <glyph glyph-name="n.sups" unicode="&#x207f;" horiz-adv-x="962" 
d="M621 1477q149 0 235 -95t86 -260v-585h-330v530q0 131 -123 131q-63 0 -102 -39t-39 -110v-512h-328v921h320v-125q112 144 281 144z" />
    <glyph glyph-name="zero.subs" unicode="&#x2080;" horiz-adv-x="827" 
d="M786 20q0 -440 -372 -440q-373 0 -373 440q0 443 373 443q372 0 372 -443zM414 -213q59 0 86 51q26 49 26 182q0 136 -26 185q-27 51 -86 51q-61 0 -88 -51t-27 -185q0 -131 27 -182t88 -51z" />
    <glyph glyph-name="one.subs" unicode="&#x2081;" horiz-adv-x="509" 
d="M264 444h195v-845h-248v516h-180v172q184 0 233 157z" />
    <glyph glyph-name="two.subs" unicode="&#x2082;" horiz-adv-x="749" 
d="M463 -98l-39 -19q-79 -40 -94 -78h385v-206h-684l6 94q17 241 252 354l67 33q64 30 88 53q25 23 25 51q0 72 -78 72q-96 0 -98 -113h-242q35 320 340 320q150 0 239 -71t89 -187q0 -107 -57 -171q-56 -64 -199 -132z" />
    <glyph glyph-name="three.subs" unicode="&#x2083;" horiz-adv-x="765" 
d="M616 51q129 -61 129 -198q0 -123 -93 -198t-253 -75q-368 0 -368 338h239q0 -74 27 -102q27 -29 94 -29q98 0 98 76q0 84 -104 84h-70v178h72q51 0 74 15q22 15 22 59q0 67 -88 67q-53 0 -76 -20t-28 -74h-240q12 291 346 291q154 0 240 -65t86 -177q0 -107 -107 -170z
" />
    <glyph glyph-name="four.subs" unicode="&#x2084;" horiz-adv-x="796" 
d="M668 -41h98v-199h-98v-161h-248v161h-369v236l365 448h252v-485zM424 -41v234l-188 -234h188z" />
    <glyph glyph-name="five.subs" unicode="&#x2085;" horiz-adv-x="737" 
d="M414 166q145 0 224 -79t79 -202q0 -140 -97 -222q-98 -83 -251 -83q-143 0 -238 75t-102 202h235q6 -37 35 -60q28 -22 70 -22q52 0 82 30t30 80q0 49 -30 79t-82 30q-70 0 -99 -53h-229l82 503h553v-206h-361l-18 -97q52 25 117 25z" />
    <glyph glyph-name="six.subs" unicode="&#x2086;" horiz-adv-x="757" 
d="M438 166q140 0 219 -81q80 -82 80 -200q0 -139 -95 -222t-249 -83q-127 0 -217 64q-145 105 -145 372q0 222 94 334q95 113 270 113q140 0 226 -65t104 -185h-231q-22 66 -101 66q-63 0 -93 -36q-31 -37 -38 -132q67 55 176 55zM315 -197q28 -28 78 -28q51 0 80 28
q29 31 29 76t-29 74q-31 31 -80 31t-78 -31q-30 -28 -30 -74t30 -76z" />
    <glyph glyph-name="seven.subs" unicode="&#x2087;" horiz-adv-x="679" 
d="M31 238v206h618v-198q-120 -126 -172 -269q-53 -145 -53 -378h-268q5 365 247 639h-372z" />
    <glyph glyph-name="eight.subs" unicode="&#x2088;" horiz-adv-x="784" 
d="M627 45q127 -55 127 -199q0 -121 -99 -193q-100 -73 -264 -73t-263 73q-97 72 -97 193q0 144 127 199q-90 60 -90 174q0 117 86 180q84 64 237 64q155 0 241 -65q85 -64 85 -179q0 -114 -90 -174zM492 201q0 82 -101 82q-100 0 -100 -82t100 -82q101 0 101 82zM391 -227
q117 0 117 92q0 96 -117 96q-115 0 -115 -96q0 -92 115 -92z" />
    <glyph glyph-name="nine.subs" unicode="&#x2089;" horiz-adv-x="757" 
d="M582 395q145 -105 145 -368q0 -222 -94 -334q-95 -113 -271 -113q-139 0 -225 65t-104 185h231q22 -66 101 -66q63 0 93 36q31 37 38 132q-67 -55 -177 -55q-139 0 -219 80t-80 201q0 138 96 222q95 83 249 83q122 0 217 -68zM287 90q29 -31 78 -31q48 0 79 31
q29 29 29 74t-29 76q-29 28 -79 28t-78 -28q-31 -31 -31 -76t31 -74z" />
    <glyph glyph-name="plus.subs" unicode="&#x208a;" horiz-adv-x="665" 
d="M442 119h193v-197h-193v-196h-219v196h-192v197h192v196h219v-196z" />
    <glyph glyph-name="minus.subs" unicode="&#x208b;" horiz-adv-x="665" 
d="M635 -78h-604v197h604v-197z" />
    <glyph glyph-name="equal.subs" unicode="&#x208c;" horiz-adv-x="665" 
d="M635 63h-604v197h604v-197zM635 -217h-604v197h604v-197z" />
    <glyph glyph-name="uni208D" unicode="&#x208d;" horiz-adv-x="395" 
d="M395 -565h-231q-69 163 -96 286q-27 125 -27 295q0 169 29 308q28 125 94 282h231q-114 -296 -114 -590q0 -266 114 -581z" />
    <glyph glyph-name="uni208E" unicode="&#x208e;" horiz-adv-x="395" 
d="M231 -565h-231q115 318 115 581q0 292 -115 590h231q69 -161 95 -282q28 -134 28 -308q0 -175 -26 -295q-26 -119 -97 -286z" />
    <glyph glyph-name="n.subs" unicode="&#x2099;" horiz-adv-x="962" 
d="M621 539q149 0 235 -95t86 -260v-585h-330v530q0 131 -123 131q-63 0 -102 -39t-39 -110v-512h-328v921h320v-125q112 144 281 144z" />
    <glyph glyph-name="Euro" unicode="&#x20ac;" horiz-adv-x="1579" 
d="M856 301q230 0 281 227h401q-18 -107 -62 -203q-45 -97 -122 -182q-78 -86 -205 -135q-126 -49 -291 -49q-259 0 -435 140q-177 141 -237 393h-186v159h164q-2 22 -2 74q0 56 2 78h-164v160h188q60 247 237 388q176 140 433 140q319 0 488 -184q153 -168 192 -385h-401
q-51 227 -281 227q-192 0 -254 -186h299v-160h-326q-2 -20 -2 -72q0 -58 2 -80h326v-159h-297q62 -191 252 -191z" />
    <glyph glyph-name="uni20B8" unicode="&#x20b8;" horiz-adv-x="1310" 
d="M20 1094v364h1270v-364h-1270zM20 893h1270v-365h-430v-528h-409v528h-431v365z" />
    <glyph glyph-name="uni20B9" unicode="&#x20b9;" horiz-adv-x="1282" 
d="M102 1458h1139v-160h-293q101 -84 125 -225h168v-160h-168q-27 -164 -152 -268q-126 -105 -319 -123l498 -522h-500l-498 532v213h285q224 0 275 168h-560v160h560q-51 168 -275 168h-285v217z" />
    <glyph glyph-name="uni20BA" unicode="&#x20ba;" horiz-adv-x="1394" 
d="M934 762h420q0 -350 -211 -555q-213 -207 -570 -207h-409v600l-164 -68v179l164 67v137l-164 -67v178l164 68v364h409v-194l318 131v-178l-318 -132v-137l318 131v-178l-318 -131v-416q171 0 266 107t95 301z" />
    <glyph glyph-name="uni20BC" unicode="&#x20bc;" horiz-adv-x="1679" 
d="M1040 1108h47q240 0 375 -144t135 -397v-567h-397v565q0 99 -37 145t-123 54v-643h-399v643q-85 -8 -123 -54q-37 -46 -37 -145v-565h-399v567q0 252 143 396q141 145 385 145h31v350h399v-350z" />
    <glyph glyph-name="uni20BF" unicode="&#x20bf;" horiz-adv-x="1421" 
d="M1391 430q0 -188 -117 -299q-116 -110 -346 -127v-242h-152v238h-184v-238h-152v238h-338v1458h338v238h152v-238h184v238h152v-242q201 -18 303 -118q100 -99 100 -249q0 -217 -190 -305q112 -40 181 -139t69 -213zM799 1139h-287v-250h287q78 -6 109 59q31 66 0 131
q-31 66 -109 60zM512 322h307q148 0 148 133t-148 133h-307v-266z" />
    <glyph glyph-name="uni2105" unicode="&#x2105;" horiz-adv-x="2088" 
d="M477 608q-194 0 -313 119q-123 117 -123 322q0 204 119 323t317 119q167 0 279 -85q113 -86 137 -245h-250q-38 115 -166 115q-86 0 -132 -58t-46 -169q0 -112 46 -168q47 -58 132 -58q60 0 105 30q44 30 61 87h250q-23 -158 -136 -245q-114 -87 -280 -87zM750 0h-222
l779 1458h221zM1925 102q-126 -120 -326 -120t-323 120q-125 119 -125 320q0 204 125 323q122 119 323 119t326 -119q123 -121 123 -323t-123 -320zM1462 258q52 -59 137 -59q88 0 140 59q51 57 51 164q0 106 -51 166q-50 59 -140 59q-89 0 -139 -59q-51 -60 -51 -166
q0 -103 53 -164z" />
    <glyph glyph-name="uni2113" unicode="&#x2113;" horiz-adv-x="1077" 
d="M901 336l107 -166q-77 -85 -189 -134q-114 -50 -237 -50q-167 0 -261 107q-96 110 -96 292v29q-89 -11 -164 -15l-36 174q111 6 200 23v442q0 216 107 335q106 118 307 118q169 0 257 -96q89 -97 89 -279q0 -416 -387 -600v-104q0 -152 102 -152q106 0 201 76zM598 1038
v-293q164 134 164 355q0 106 -72 106q-92 0 -92 -168z" />
    <glyph glyph-name="uni2116" unicode="&#x2116;" horiz-adv-x="2435" 
d="M1960 1481q202 0 330 -123q125 -125 125 -330t-125 -328q-126 -122 -330 -122t-330 122q-125 123 -125 328q0 207 125 330q128 123 330 123zM1034 1221v237h389v-1458h-432l-309 518q-126 215 -201 361q11 -316 11 -641v-238h-390v1458h433l309 -518q107 -182 200 -362
q-10 287 -10 643zM1853 901q39 -45 107 -45q67 0 106 45t39 127q0 84 -39 129t-106 45q-68 0 -107 -45q-38 -44 -38 -129q0 -83 38 -127z" />
    <glyph glyph-name="uni2117" unicode="&#x2117;" horiz-adv-x="1607" 
d="M246 1272q225 219 557 219q334 0 559 -219q225 -220 225 -543q0 -321 -225 -541q-224 -221 -559 -221q-331 0 -557 221t-226 541q0 322 226 543zM434 362q144 -147 371 -147q226 0 373 147q145 145 145 367q0 220 -145 369q-149 145 -373 145q-226 0 -371 -145
q-147 -147 -147 -369t147 -367zM535 1102h329q140 0 227 -81t87 -206t-87 -207q-86 -82 -227 -82h-90v-172h-239v748zM774 737h76q88 0 88 78q0 33 -23 54q-24 22 -65 22h-76v-154z" />
    <glyph glyph-name="trademark" unicode="&#x2122;" horiz-adv-x="1214" 
d="M41 1458h461v-145h-150v-383h-159v383h-152v145zM889 1257l51 201h234v-528h-152v153q0 118 2 168q0 -1 -2 -7q0 -2 -1 -5.5t-2 -4.5q-1 -3 -3 -13q-1 -3 -2.5 -8.5t-1.5 -6.5l-76 -276h-129l-76 276q-2 6 -7 25q-3 12 -3 14q2 -46 2 -162v-153h-154v528h234l51 -201
l18 -71q1 24 17 71z" />
    <glyph glyph-name="uni2126" unicode="&#x2126;" horiz-adv-x="1636" 
d="M745 0h-704v352h278v6q-266 192 -266 500q0 285 203 461q198 174 553 174q361 0 567 -174q207 -175 207 -461q0 -305 -264 -500v-6h276v-352h-700v313q132 58 202 174t70 275q0 181 -92 279t-254 98q-164 0 -257 -98q-93 -97 -93 -279q0 -156 72 -274t202 -175v-313z" />
    <glyph glyph-name="estimated" unicode="&#x212e;" horiz-adv-x="1865" 
d="M330 1276q224 215 604 215q379 0 604 -225q223 -224 223 -557h-1323q-28 0 -28 -27v-360q0 -68 32 -97q200 -196 492 -196q153 0 290 64t226 171h149q-89 -126 -263 -209q-171 -82 -402 -82q-373 0 -602 213q-230 212 -230 543q0 328 228 547zM934 1434q-291 0 -492 -201
q-32 -29 -32 -90v-361q0 -26 28 -26h985q29 0 29 26v361q0 60 -33 90q-205 201 -485 201z" />
    <glyph glyph-name="uni2153" unicode="&#x2153;" horiz-adv-x="1564" 
d="M459 612h-248v516h-180v172q183 0 233 158h195v-846zM195 0l778 1458h221l-778 -1458h-221zM1415 453q129 -62 129 -199q0 -123 -93 -198q-92 -74 -253 -74q-369 0 -369 337h240q0 -73 27 -102t94 -29q98 0 98 76q0 84 -104 84h-70v178h72q50 0 74 16q22 15 22 58
q0 68 -88 68q-52 0 -76 -21q-23 -20 -28 -74h-240q12 291 346 291q155 0 240 -64q86 -65 86 -177q0 -107 -107 -170z" />
    <glyph glyph-name="uni2154" unicode="&#x2154;" horiz-adv-x="1880" 
d="M330 819h385v-207h-684l6 95q17 241 252 354l67 33q64 30 88 53q25 23 25 51q0 72 -78 72q-96 0 -98 -113h-242q35 320 340 320q150 0 239 -71t89 -187q0 -107 -57 -171q-58 -65 -199 -133l-39 -18q-79 -40 -94 -78zM483 0l779 1458h221l-778 -1458h-222zM1731 453
q129 -62 129 -199q0 -122 -94 -198q-92 -74 -253 -74q-368 0 -368 337h239q0 -73 27 -102t94 -29q99 0 99 76q0 84 -105 84h-69v178h71q50 0 74 16q22 15 22 58q0 68 -88 68q-51 0 -75 -21t-29 -74h-240q12 291 346 291q155 0 240 -64q86 -65 86 -177q0 -107 -106 -170z" />
    <glyph glyph-name="uni2155" unicode="&#x2155;" horiz-adv-x="1667" 
d="M459 1458v-846h-248v516h-180v172q183 0 233 158h195zM256 0l778 1458h221l-778 -1458h-221zM1343 567q146 0 225 -79t79 -201q0 -139 -98 -222t-251 -83q-149 0 -239 74q-94 77 -101 202h236q16 -82 104 -82q51 0 82 31t31 80q0 48 -31 79q-29 29 -82 29q-69 0 -98 -53
h-229l82 504h553v-207h-361l-18 -96q49 24 116 24z" />
    <glyph glyph-name="uni2156" unicode="&#x2156;" horiz-adv-x="1933" 
d="M330 819h385v-207h-684l6 95q17 241 252 354l67 33q64 30 88 53q25 23 25 51q0 72 -78 72q-96 0 -98 -113h-242q35 320 340 320q150 0 239 -71t89 -187q0 -107 -57 -171q-58 -65 -199 -133l-39 -18q-79 -40 -94 -78zM504 0l778 1458h221l-778 -1458h-221zM1599 567
q146 0 225 -79t79 -201q0 -139 -98 -222t-251 -83q-149 0 -239 74q-94 77 -101 202h236q16 -82 104 -82q51 0 82 31t31 80q0 48 -31 79q-29 29 -82 29q-69 0 -98 -53h-229l82 504h553v-207h-361l-18 -96q49 24 116 24z" />
    <glyph glyph-name="uni2157" unicode="&#x2157;" horiz-adv-x="1859" 
d="M745 866q0 -122 -93 -197t-253 -75q-368 0 -368 338h239q0 -74 27 -103q27 -28 94 -28q98 0 98 76q0 84 -104 84h-70v178h72q51 0 74 15q22 15 22 58q0 68 -88 68q-53 0 -76 -20t-28 -74h-240q12 291 346 291q154 0 240 -65t86 -177q0 -107 -107 -170q129 -61 129 -199z
M449 0l778 1458h221l-778 -1458h-221zM1536 567q145 0 224 -79t79 -201q0 -140 -97 -222q-98 -83 -251 -83q-150 0 -240 74q-93 76 -100 202h235q16 -82 105 -82q51 0 82 31t31 80q0 48 -31 79q-29 29 -82 29q-69 0 -98 -53h-230l82 504h553v-207h-360l-19 -96q49 24 117 24
z" />
    <glyph glyph-name="uni2158" unicode="&#x2158;" horiz-adv-x="1910" 
d="M668 774v-162h-248v162h-369v236l365 448h252v-485h98v-199h-98zM489 0l779 1458h221l-778 -1458h-222zM424 973v233l-188 -233h188zM1577 567q145 0 224 -79t79 -201q0 -140 -97 -222q-98 -83 -251 -83q-150 0 -240 74q-93 76 -100 202h235q16 -82 105 -82q51 0 82 31
t31 80q0 48 -31 79q-29 29 -82 29q-69 0 -98 -53h-230l82 504h553v-207h-360l-19 -96q50 24 117 24z" />
    <glyph glyph-name="uni2159" unicode="&#x2159;" horiz-adv-x="1591" 
d="M459 1458v-846h-248v516h-180v172q183 0 233 158h195zM223 0l778 1458h222l-779 -1458h-221zM1272 567q137 0 218 -81t81 -199q0 -139 -95 -222t-249 -83q-129 0 -217 63q-146 105 -146 373q0 222 94 334t271 112q140 0 225 -64q87 -66 105 -186h-232q-23 66 -100 66
q-63 0 -93 -36q-31 -37 -38 -132q67 55 176 55zM1149 207q29 -31 78 -31t80 31q28 28 28 74t-28 75q-31 29 -80 29t-78 -29q-31 -31 -31 -75q0 -45 31 -74z" />
    <glyph glyph-name="uni215A" unicode="&#x215a;" horiz-adv-x="1757" 
d="M717 899q0 -140 -97 -222q-98 -83 -251 -83q-143 0 -238 75t-102 201h235q6 -36 35 -59t70 -23q51 0 82 31q30 30 30 80q0 49 -30 79t-82 30q-70 0 -99 -54h-229l82 504h553v-207h-361l-18 -96q52 25 117 25q145 0 224 -79t79 -202zM389 0l778 1458h222l-779 -1458h-221z
M1438 567q140 0 219 -81q80 -82 80 -199q0 -138 -96 -222q-95 -83 -248 -83q-129 0 -217 63q-146 105 -146 373q0 222 94 334t271 112q140 0 225 -64q86 -65 104 -186h-231q-23 66 -100 66q-64 0 -94 -36q-29 -35 -37 -132q67 55 176 55zM1315 207q29 -31 78 -31t80 31
q28 28 28 74t-28 75q-31 29 -80 29t-78 -29q-31 -31 -31 -75q0 -45 31 -74z" />
    <glyph glyph-name="oneeighth" unicode="&#x215b;" horiz-adv-x="1601" 
d="M459 612h-248v516h-180v172q183 0 233 158h195v-846zM195 0l778 1458h221l-778 -1458h-221zM1444 446q127 -55 127 -198q0 -123 -98 -194q-99 -72 -265 -72t-263 72t-97 194q0 143 127 198q-90 60 -90 175q0 114 86 180q83 63 237 63q156 0 241 -64t85 -179t-90 -175z
M1309 602q0 82 -101 82q-100 0 -100 -82t100 -82q101 0 101 82zM1208 174q117 0 117 92q0 96 -117 96q-114 0 -114 -96q0 -92 114 -92z" />
    <glyph glyph-name="threeeighths" unicode="&#x215c;" horiz-adv-x="1832" 
d="M745 866q0 -122 -93 -197t-253 -75q-368 0 -368 338h239q0 -74 27 -103q27 -28 94 -28q98 0 98 76q0 84 -104 84h-70v178h72q51 0 74 15q22 15 22 58q0 68 -88 68q-53 0 -76 -20t-28 -74h-240q12 291 346 291q154 0 240 -65t86 -177q0 -107 -107 -170q129 -61 129 -199z
M426 0l778 1458h221l-778 -1458h-221zM1675 446q127 -55 127 -198q0 -123 -98 -194q-99 -72 -264 -72q-166 0 -263 72q-98 72 -98 194q0 143 127 198q-90 60 -90 175q0 114 86 180q82 63 238 63q155 0 240 -64t85 -179t-90 -175zM1540 602q0 82 -100 82q-101 0 -101 -82
t101 -82q100 0 100 82zM1440 174q116 0 116 92q0 96 -116 96q-115 0 -115 -96q0 -92 115 -92z" />
    <glyph glyph-name="fiveeighths" unicode="&#x215d;" horiz-adv-x="1781" 
d="M717 899q0 -140 -97 -222q-98 -83 -251 -83q-143 0 -238 75t-102 201h235q6 -36 35 -59t70 -23q51 0 82 31q30 30 30 80q0 49 -30 79t-82 30q-70 0 -99 -54h-229l82 504h553v-207h-361l-18 -96q52 25 117 25q145 0 224 -79t79 -202zM375 0l778 1458h221l-778 -1458h-221z
M1624 446q127 -55 127 -198q0 -123 -98 -194q-99 -72 -264 -72q-167 0 -264 72t-97 194q0 143 127 198q-90 60 -90 175q0 114 86 180q83 63 238 63t240 -64t85 -179t-90 -175zM1489 602q0 82 -100 82q-101 0 -101 -82t101 -82q100 0 100 82zM1389 174q116 0 116 92
q0 96 -116 96q-115 0 -115 -96q0 -92 115 -92z" />
    <glyph glyph-name="seveneighths" unicode="&#x215e;" horiz-adv-x="1632" 
d="M424 612h-268q5 365 247 639h-372v207h618v-198q-120 -126 -172 -269q-53 -145 -53 -379zM215 0l778 1458h221l-778 -1458h-221zM1475 446q127 -55 127 -198q0 -122 -99 -194t-264 -72t-263 72q-97 72 -97 194q0 143 127 198q-91 61 -91 175t86 180q83 63 238 63
q156 0 241 -64t85 -179t-90 -175zM1339 602q0 82 -100 82t-100 -82t100 -82t100 82zM1239 174q117 0 117 92q0 97 -117 97q-115 0 -115 -97q0 -92 115 -92z" />
    <glyph glyph-name="arrowleft" unicode="&#x2190;" horiz-adv-x="1957" 
d="M840 905h884v-352h-882q76 -91 168 -215l252 -338h-478l-551 729l551 729h478l-252 -338q-96 -130 -170 -215z" />
    <glyph glyph-name="arrowup" unicode="&#x2191;" horiz-adv-x="1957" 
d="M250 940l729 551l729 -551v-457l-338 254q-72 52 -199 156v-893h-389v889q-127 -103 -194 -152l-338 -254v457z" />
    <glyph glyph-name="arrowright" unicode="&#x2192;" horiz-adv-x="1957" 
d="M696 1458h478l550 -729l-550 -729h-478l252 338q92 124 168 215h-883v352h885q-74 85 -170 215z" />
    <glyph glyph-name="arrowdown" unicode="&#x2193;" horiz-adv-x="1957" 
d="M1370 721l338 254v-457l-729 -551l-729 551v457l338 -254q67 -49 194 -152v889h389v-893q127 104 199 156z" />
    <glyph glyph-name="arrowboth" unicode="&#x2194;" horiz-adv-x="1957" 
d="M1098 1458h409l451 -729l-451 -729h-411l204 330q123 200 144 227h-930q58 -89 141 -227l199 -330h-401l-453 729l451 729h407l-205 -336q-76 -131 -135 -217h922q-64 92 -135 211z" />
    <glyph glyph-name="arrowupdn" unicode="&#x2195;" horiz-adv-x="1957" 
d="M1171 1184v-910q82 69 199 156l338 254v-457l-729 -551l-729 551v457l338 -254q79 -57 194 -151v901q-127 -103 -194 -152l-338 -254v457l729 551l729 -551v-457l-338 254q-117 87 -199 156z" />
    <glyph glyph-name="uni2196" unicode="&#x2196;" horiz-adv-x="1957" 
d="M1696 1036h-500q-186 0 -266 2l708 -686l-254 -274l-712 690q2 -76 2 -262v-486l-369 336v1033h1051z" />
    <glyph glyph-name="uni2197" unicode="&#x2197;" horiz-adv-x="1957" 
d="M262 1036l340 353h1051v-1033l-369 -336v486q0 186 2 262l-713 -690l-254 274l709 686q-80 -2 -266 -2h-500z" />
    <glyph glyph-name="uni2198" unicode="&#x2198;" horiz-adv-x="1957" 
d="M1284 965v485l369 -336v-1032h-1051l-340 352h500q186 0 266 -2l-709 686l254 275l713 -691q-2 76 -2 263z" />
    <glyph glyph-name="uni2199" unicode="&#x2199;" horiz-adv-x="1957" 
d="M1196 442h500l-340 -352h-1051v1032l369 336v-485q0 -186 -2 -262l712 690l254 -275l-708 -686q80 2 266 2z" />
    <glyph glyph-name="partialdiff" unicode="&#x2202;" horiz-adv-x="1366" 
d="M809 1491q235 0 365 -129q131 -129 131 -371q0 -279 -91 -522q-89 -235 -260 -369q-173 -133 -403 -133q-211 0 -356 123q-144 123 -144 338q0 218 158 381q158 158 391 158q230 0 326 -146q16 102 16 168q0 215 -168 215q-152 0 -203 -135h-370q66 203 224 312
q160 110 384 110zM586 276q94 0 166 78q69 76 69 183q0 67 -39 108t-110 41q-97 0 -166 -76q-70 -78 -70 -184q0 -68 39 -109t111 -41z" />
    <glyph glyph-name="uni2206" unicode="&#x2206;" horiz-adv-x="1443" 
d="M469 1458h492l432 -1120v-338h-1342v338zM643 864l-178 -506h498l-181 506q-52 156 -69 221q-13 -51 -70 -221z" />
    <glyph glyph-name="product" unicode="&#x220f;" horiz-adv-x="1525" 
d="M102 -401v1859h1321v-1859h-409v1499h-502v-1499h-410z" />
    <glyph glyph-name="summation" unicode="&#x2211;" horiz-adv-x="1323" 
d="M1012 -45h260v-361h-1221v308l563 626l-563 625v309h1200v-360h-239q-298 0 -424 2q186 -203 274 -303l133 -150v-245l-133 -150l-274 -305q168 4 424 4z" />
    <glyph glyph-name="minus" unicode="&#x2212;" horiz-adv-x="1079" 
d="M1028 573h-977v314h977v-314z" />
    <glyph glyph-name="uni2215" unicode="&#x2215;" horiz-adv-x="1079" 
d="M414 0h-363l615 1458h362z" />
    <glyph glyph-name="uni2219" unicode="&#x2219;" horiz-adv-x="1079" 
d="M791 485h-502v488h502v-488z" />
    <glyph glyph-name="radical" unicode="&#x221a;" horiz-adv-x="1529" 
d="M893 610l237 848h410l-567 -1859h-500l-254 749h-199v361h486l26 -99q69 -252 181 -639q111 396 180 639z" />
    <glyph glyph-name="infinity" unicode="&#x221e;" horiz-adv-x="1744" 
d="M1282 1159q185 0 299 -121q113 -122 113 -309q0 -188 -113 -307q-114 -123 -299 -123q-240 0 -410 225q-170 -225 -409 -225q-185 0 -297 123q-115 123 -115 307q0 183 115 309q114 121 297 121q239 0 409 -225q170 225 410 225zM483 561q119 0 230 168
q-111 168 -230 168q-64 0 -105 -47q-40 -46 -40 -121t40 -121q41 -47 105 -47zM1262 561q64 0 105 47q40 46 40 121t-40 121q-41 47 -105 47q-119 0 -230 -168q111 -168 230 -168z" />
    <glyph glyph-name="integral" unicode="&#x222b;" horiz-adv-x="888" 
d="M219 -416q-84 0 -168 15v276q35 -6 82 -6q123 0 123 98v1137q0 165 103 267t311 102q84 0 168 -15v-276q-33 6 -82 6q-123 0 -123 -98v-1137q0 -165 -104 -267q-103 -102 -310 -102z" />
    <glyph glyph-name="approxequal" unicode="&#x2248;" horiz-adv-x="1079" 
d="M276 766h-225q0 187 79 291t226 104q94 0 228 -61q93 -41 125 -41q44 0 64 23q23 26 30 79h225q0 -186 -79 -290q-79 -105 -224 -105q-95 0 -227 61q-93 41 -127 41q-45 0 -66 -21q-22 -22 -29 -81zM276 295h-225q0 187 79 291t226 104q94 0 228 -61q93 -41 125 -41
q44 0 64 23q23 26 30 79h225q0 -186 -79 -290q-79 -105 -224 -105q-87 0 -227 61q-93 41 -127 41q-45 0 -66 -21q-22 -22 -29 -81z" />
    <glyph glyph-name="notequal" unicode="&#x2260;" horiz-adv-x="1079" 
d="M1028 1087v-272h-348l-59 -172h407v-272h-502l-80 -236l-196 70l57 166h-256v272h350l60 172h-410v272h502l82 236l194 -72l-55 -164h254z" />
    <glyph glyph-name="lessequal" unicode="&#x2264;" horiz-adv-x="1079" 
d="M1028 1274v-301l-45 -15q-244 -76 -565 -167q285 -81 565 -168l45 -15v-301l-977 322v323zM1028 0h-977v272h977v-272z" />
    <glyph glyph-name="greaterequal" unicode="&#x2265;" horiz-adv-x="1079" 
d="M51 973v301l977 -322v-323l-977 -322v301l45 15q269 84 566 168q-332 94 -566 167zM1028 0h-977v272h977v-272z" />
    <glyph glyph-name="uni2460" unicode="&#x2460;" horiz-adv-x="1957" 
d="M483 1552q224 125 496 125t496 -125q226 -128 354 -344q129 -217 129 -479q0 -258 -129 -477q-131 -222 -354 -346q-224 -125 -496 -125t-496 125q-223 124 -354 346q-129 219 -129 477q0 261 129 479q128 216 354 344zM500 254q193 -193 481 -193t481 193
q195 190 195 475q0 282 -195 477q-196 191 -481 191q-288 0 -481 -191q-195 -195 -195 -477q0 -285 195 -475zM934 1196h213v-932h-273v570h-196v188q205 0 256 174z" />
    <glyph glyph-name="uni2461" unicode="&#x2461;" horiz-adv-x="1957" 
d="M483 1552q224 125 496 125t496 -125q226 -128 354 -344q129 -217 129 -479q0 -258 -129 -477q-131 -222 -354 -346q-224 -125 -496 -125t-496 125q-223 124 -354 346q-129 219 -129 477q0 261 129 479q128 216 354 344zM500 254q193 -193 481 -193t481 193
q195 190 195 475q0 282 -195 477q-196 191 -481 191q-288 0 -481 -191q-195 -195 -195 -477q0 -285 195 -475zM1087 641l-59 -29q-73 -34 -88 -75h424v-230h-752l6 105q15 256 277 389l74 37q74 38 98 60q27 24 27 54q0 80 -86 80q-107 0 -109 -125h-266q39 353 375 353
q163 0 262 -78q98 -77 98 -207q0 -116 -63 -188q-62 -71 -218 -146z" />
    <glyph glyph-name="uni2462" unicode="&#x2462;" horiz-adv-x="1957" 
d="M483 1552q224 125 496 125t496 -125q226 -128 354 -344q129 -217 129 -479q0 -258 -129 -477q-131 -222 -354 -346q-224 -125 -496 -125t-496 125q-223 124 -354 346q-129 219 -129 477q0 261 129 479q128 216 354 344zM500 254q193 -193 481 -193t481 193
q195 190 195 475q0 282 -195 477q-196 191 -481 191q-288 0 -481 -191q-195 -195 -195 -477q0 -285 195 -475zM1233 762q139 -66 139 -217q0 -135 -102 -217q-101 -82 -277 -82q-203 0 -306 95q-101 93 -99 275h262q0 -80 30 -111q30 -32 103 -32q51 0 80 23t29 59
q0 92 -115 92h-78v197h80q59 0 82 17q24 18 24 65q0 73 -98 73q-58 0 -83 -22q-26 -23 -32 -82h-262q15 322 379 322q169 0 263 -72q96 -73 96 -195q0 -115 -115 -188z" />
    <glyph glyph-name="uni2463" unicode="&#x2463;" horiz-adv-x="1957" 
d="M483 1552q224 125 496 125t496 -125q226 -128 354 -344q129 -217 129 -479q0 -258 -129 -477q-131 -222 -354 -346q-224 -125 -496 -125t-496 125q-223 124 -354 346q-129 219 -129 477q0 261 129 479q128 216 354 344zM500 254q193 -193 481 -193t481 193
q195 190 195 475q0 282 -195 477q-196 191 -481 191q-288 0 -481 -191q-195 -195 -195 -477q0 -285 195 -475zM956 1196h279v-534h106v-220h-106v-178h-272v178h-406v260zM967 662v256l-209 -256h209z" />
    <glyph glyph-name="uni2464" unicode="&#x2464;" horiz-adv-x="1957" 
d="M483 1552q224 125 496 125t496 -125q226 -128 354 -344q129 -217 129 -479q0 -258 -129 -477q-131 -222 -354 -346q-224 -125 -496 -125t-496 125q-223 124 -354 346q-129 219 -129 477q0 261 129 479q128 216 354 344zM500 254q193 -193 481 -193t481 193
q195 190 195 475q0 282 -195 477q-196 191 -481 191q-288 0 -481 -191q-195 -195 -195 -477q0 -285 195 -475zM1026 868q160 0 247 -87t87 -222q0 -151 -107 -243q-106 -91 -276 -91q-157 0 -261 81q-105 82 -112 222h258q7 -41 40 -66q32 -24 75 -24q77 -6 109 58t0 127
q-31 63 -109 57q-79 0 -109 -59h-250l89 555h608v-228h-397l-21 -106q53 26 129 26z" />
    <glyph glyph-name="uni2465" unicode="&#x2465;" horiz-adv-x="1957" 
d="M483 1552q224 125 496 125t496 -125q226 -128 354 -344q129 -217 129 -479q0 -258 -129 -477q-131 -222 -354 -346q-224 -125 -496 -125t-496 125q-223 124 -354 346q-129 219 -129 477q0 261 129 479q128 216 354 344zM500 254q193 -193 481 -193t481 193
q195 190 195 475q0 282 -195 477q-196 191 -481 191q-288 0 -481 -191q-195 -195 -195 -477q0 -285 195 -475zM1028 889q158 0 244 -92t86 -217q0 -152 -105 -243q-104 -91 -274 -91q-143 0 -238 69q-159 114 -159 410q0 244 103 368t296 124q155 0 249 -72q95 -72 113 -205
h-253q-21 74 -111 74q-67 0 -100 -39q-32 -38 -43 -146q72 60 192 60zM979 459q74 -6 104 54q30 61 0 121t-104 54q-75 5 -105 -55q-30 -59 0 -119t105 -55z" />
    <glyph glyph-name="uni2466" unicode="&#x2466;" horiz-adv-x="1957" 
d="M483 1552q224 125 496 125t496 -125q226 -128 354 -344q129 -217 129 -479q0 -258 -129 -477q-131 -222 -354 -346q-224 -125 -496 -125t-496 125q-223 124 -354 346q-129 219 -129 477q0 261 129 479q128 216 354 344zM500 254q193 -193 481 -193t481 193
q195 190 195 475q0 282 -195 477q-196 191 -481 191q-288 0 -481 -191q-195 -195 -195 -477q0 -285 195 -475zM1059 944h-410v227h680v-219q-127 -133 -188 -295q-60 -159 -60 -417h-295q4 401 273 704z" />
    <glyph glyph-name="uni2467" unicode="&#x2467;" horiz-adv-x="1957" 
d="M483 1552q224 125 496 125t496 -125q226 -128 354 -344q129 -217 129 -479q0 -258 -129 -477q-131 -222 -354 -346q-224 -125 -496 -125t-496 125q-223 124 -354 346q-129 219 -129 477q0 261 129 479q128 216 354 344zM500 254q193 -193 481 -193t481 193
q195 190 195 475q0 282 -195 477q-196 191 -481 191q-288 0 -481 -191q-195 -195 -195 -477q0 -285 195 -475zM1237 756q139 -61 139 -217q0 -134 -107 -213q-109 -80 -292 -80q-182 0 -289 80q-106 79 -106 213q0 154 137 217q-98 67 -98 192q0 128 94 198q95 71 262 71
q169 0 264 -71q94 -70 94 -198q0 -125 -98 -192zM1087 928q0 90 -110 90q-111 0 -111 -90t111 -90q110 0 110 90zM977 457q129 0 129 100q0 107 -129 107q-125 0 -125 -107q0 -100 125 -100z" />
    <glyph glyph-name="uni2468" unicode="&#x2468;" horiz-adv-x="1957" 
d="M483 1552q224 125 496 125t496 -125q226 -128 354 -344q129 -217 129 -479q0 -258 -129 -477q-131 -222 -354 -346q-224 -125 -496 -125t-496 125q-223 124 -354 346q-129 219 -129 477q0 261 129 479q128 216 354 344zM500 254q193 -193 481 -193t481 193
q195 190 195 475q0 282 -195 477q-196 191 -481 191q-288 0 -481 -191q-195 -195 -195 -477q0 -285 195 -475zM1227 1141q162 -113 162 -406q0 -241 -105 -365t-297 -124q-155 0 -249 70q-95 71 -113 204h256q22 -71 108 -71q69 0 101 38t43 146q-73 -62 -193 -62
q-157 0 -244 93q-86 92 -86 217q0 151 106 243q107 93 273 93q137 0 238 -76zM903 805q30 -33 86 -33q55 0 88 33q31 31 31 82q0 50 -31 84q-33 30 -88 30q-56 0 -86 -30q-33 -33 -33 -84q0 -52 33 -82z" />
    <glyph glyph-name="uni24EA" unicode="&#x24ea;" horiz-adv-x="1957" 
d="M1475 -94q-224 -125 -496 -125t-496 125q-223 124 -354 346q-129 219 -129 477q0 261 129 479q128 216 354 344q224 125 496 125t496 -125q226 -128 354 -344q129 -217 129 -479q0 -258 -129 -477q-131 -222 -354 -346zM500 254q193 -193 481 -193t481 193
q195 190 195 475q0 282 -195 477q-196 191 -481 191q-288 0 -481 -191q-195 -195 -195 -477q0 -285 195 -475zM1389 729q0 -483 -410 -483t-410 483q0 488 410 488t410 -488zM979 473q68 0 96 56q29 58 29 200q0 146 -30 203t-95 57q-66 0 -95 -56q-30 -57 -30 -204
q0 -143 30 -200q29 -56 95 -56z" />
    <glyph glyph-name="uni24FF" unicode="&#x24ff;" horiz-adv-x="1957" 
d="M1475 -94q-224 -125 -496 -125t-496 125q-223 124 -354 346q-129 219 -129 477q0 261 129 479q128 216 354 344q224 125 496 125t496 -125q226 -128 354 -344q129 -217 129 -479q0 -258 -129 -477q-131 -222 -354 -346zM578 729q0 -477 401 -477t401 477q0 479 -401 479
t-401 -479zM981 465q-74 0 -104 61q-31 64 -31 203q0 141 31 205q30 61 104 61q71 0 101 -61q30 -62 30 -205q0 -144 -30 -204t-101 -60z" />
    <glyph glyph-name="filledbox" unicode="&#x25a0;" horiz-adv-x="1957" 
d="M1909 -180h-1860v1818h1860v-1818z" />
    <glyph glyph-name="uni25A1" unicode="&#x25a1;" horiz-adv-x="1957" 
d="M1909 -180h-1860v1818h1860v-1818zM352 1366v-1274h1254v1274h-1254z" />
    <glyph glyph-name="lozenge" unicode="&#x25ca;" horiz-adv-x="1294" 
d="M434 1458h424l406 -729l-406 -729h-424l-403 729zM424 729l223 -410l223 410l-223 410z" />
    <glyph glyph-name="circle" unicode="&#x25cb;" horiz-adv-x="1957" 
d="M1475 -94q-224 -125 -496 -125t-496 125q-223 124 -354 346q-129 219 -129 477q0 261 129 479q128 216 354 344q224 125 496 125t496 -125q226 -128 354 -344q129 -217 129 -479q0 -258 -129 -477q-131 -222 -354 -346zM500 254q193 -193 481 -193t481 193
q195 190 195 475q0 282 -195 477q-196 191 -481 191q-288 0 -481 -191q-195 -195 -195 -477q0 -285 195 -475z" />
    <glyph glyph-name="uni25CF" unicode="&#x25cf;" horiz-adv-x="1957" 
d="M1475 -94q-224 -125 -496 -125t-496 125q-223 124 -354 346q-129 219 -129 477q0 261 129 479q128 216 354 344q224 125 496 125t496 -125q226 -128 354 -344q129 -217 129 -479q0 -258 -129 -477q-131 -222 -354 -346z" />
    <glyph glyph-name="uni2776" unicode="&#x2776;" horiz-adv-x="1957" 
d="M1475 -94q-224 -125 -496 -125t-496 125q-223 124 -354 346q-129 219 -129 477q0 261 129 479q128 216 354 344q224 125 496 125t496 -125q226 -128 354 -344q129 -217 129 -479q0 -258 -129 -477q-131 -222 -354 -346zM887 842v-570h256v916h-199q-57 -174 -254 -174
v-172h197z" />
    <glyph glyph-name="uni2777" unicode="&#x2777;" horiz-adv-x="1957" 
d="M1475 -94q-224 -125 -496 -125t-496 125q-223 124 -354 346q-129 219 -129 477q0 261 129 479q128 216 354 344q224 125 496 125t496 -125q226 -128 354 -344q129 -217 129 -479q0 -258 -129 -477q-131 -222 -354 -346zM618 412l-6 -97h736v211h-428q17 57 112 103l43 20
q150 71 214 143q63 70 63 183q0 124 -97 201q-94 75 -256 75q-323 0 -366 -336h250q8 125 116 125q95 0 95 -88q0 -35 -30 -62q-32 -29 -99 -61l-74 -34q-257 -122 -273 -383z" />
    <glyph glyph-name="uni2778" unicode="&#x2778;" horiz-adv-x="1957" 
d="M1475 -94q-224 -125 -496 -125t-496 125q-223 124 -354 346q-129 219 -129 477q0 261 129 479q128 216 354 344q224 125 496 125t496 -125q226 -128 354 -344q129 -217 129 -479q0 -258 -129 -477q-131 -222 -354 -346zM993 252q167 0 270 80q101 79 101 213
q0 75 -40 131q-41 57 -112 84q127 67 127 190q0 121 -93 190q-92 68 -257 68q-181 0 -270 -74q-91 -75 -101 -231h246q7 55 36 81q27 24 87 24q107 0 107 -82q0 -49 -27 -70q-26 -20 -88 -20h-72v-181h70q123 0 123 -100q0 -42 -32 -66t-85 -24q-75 0 -107 33
q-33 34 -34 110h-246q6 -356 397 -356z" />
    <glyph glyph-name="uni2779" unicode="&#x2779;" horiz-adv-x="1957" 
d="M1475 -94q-224 -125 -496 -125t-496 125q-223 124 -354 346q-129 219 -129 477q0 261 129 479q128 216 354 344q224 125 496 125t496 -125q226 -128 354 -344q129 -217 129 -479q0 -258 -129 -477q-131 -222 -354 -346zM969 451v-179h256v179h108v202h-108v535h-264
l-398 -488v-249h406zM975 653h-234l234 287v-287z" />
    <glyph glyph-name="uni277A" unicode="&#x277a;" horiz-adv-x="1957" 
d="M1475 -94q-224 -125 -496 -125t-496 125q-223 124 -354 346q-129 219 -129 477q0 261 129 479q128 216 354 344q224 125 496 125t496 -125q226 -128 354 -344q129 -217 129 -479q0 -258 -129 -477q-131 -222 -354 -346zM979 233q166 0 271 91q104 90 104 235
q0 133 -84 217t-242 84q-76 0 -139 -33l24 129h396v211h-594l-86 -538h237q34 59 113 59q59 0 96 -36t37 -93t-37 -93t-96 -36q-99 0 -121 90h-246q11 -131 111 -209q101 -78 256 -78z" />
    <glyph glyph-name="uni277B" unicode="&#x277b;" horiz-adv-x="1957" 
d="M1475 -94q-224 -125 -496 -125t-496 125q-223 124 -354 346q-129 219 -129 477q0 261 129 479q128 216 354 344q224 125 496 125t496 -125q226 -128 354 -344q129 -217 129 -479q0 -258 -129 -477q-131 -222 -354 -346zM979 252q167 0 269 90t102 238q0 130 -85 215
q-86 86 -235 86q-131 0 -203 -72v10q11 115 44 158q35 45 108 45q90 0 117 -74h239q-21 127 -111 193q-91 67 -241 67q-193 0 -293 -124t-100 -359q0 -302 155 -408q95 -65 234 -65zM1073 485q-37 -34 -94 -34q-58 0 -92 34q-35 35 -35 90q0 56 35 89q33 32 92 32
q58 0 94 -32q35 -33 35 -89q0 -55 -35 -90z" />
    <glyph glyph-name="uni277C" unicode="&#x277c;" horiz-adv-x="1957" 
d="M1475 -94q-224 -125 -496 -125t-496 125q-223 124 -354 346q-129 219 -129 477q0 261 129 479q128 216 354 344q224 125 496 125t496 -125q226 -128 354 -344q129 -217 129 -479q0 -258 -129 -477q-131 -222 -354 -346zM784 248h279q5 259 61 414q60 158 187 294v207
h-664v-211h420q-277 -304 -283 -704z" />
    <glyph glyph-name="uni277D" unicode="&#x277d;" horiz-adv-x="1957" 
d="M1475 -94q-224 -125 -496 -125t-496 125q-223 124 -354 346q-129 219 -129 477q0 261 129 479q128 216 354 344q224 125 496 125t496 -125q226 -128 354 -344q129 -217 129 -479q0 -258 -129 -477q-131 -222 -354 -346zM979 252q179 0 285 78t106 207q0 157 -151 217
q110 65 110 194q0 123 -92 192q-90 68 -258 68q-166 0 -256 -68q-92 -69 -92 -192q0 -129 110 -194q-151 -60 -151 -217q0 -129 106 -207t283 -78zM1098 928q0 -99 -119 -99t-119 99q0 98 119 98t119 -98zM979 449q-135 0 -135 108q0 115 135 115q137 0 137 -115
q0 -108 -137 -108z" />
    <glyph glyph-name="uni277E" unicode="&#x277e;" horiz-adv-x="1957" 
d="M1475 -94q-224 -125 -496 -125t-496 125q-223 124 -354 346q-129 219 -129 477q0 261 129 479q128 216 354 344q224 125 496 125t496 -125q226 -128 354 -344q129 -217 129 -479q0 -258 -129 -477q-131 -222 -354 -346zM987 244q192 0 297 124t105 367q0 301 -162 414
q-97 68 -238 68q-166 0 -273 -93q-106 -92 -106 -243q0 -125 86 -217q87 -93 244 -93q107 0 184 56l9 6l-2 -21q-12 -90 -46 -129q-33 -37 -96 -37q-87 0 -108 74h-256q18 -133 113 -205q93 -71 249 -71zM1077 805q-33 -33 -88 -33q-56 0 -86 33q-33 30 -33 82q0 51 33 84
q30 30 86 30q55 0 88 -30q31 -34 31 -84q0 -51 -31 -82z" />
    <glyph glyph-name="uni2E18" unicode="&#x2e18;" horiz-adv-x="1150" 
d="M387 1200h418v-405h-418v405zM741 197h379q2 -245 -137 -366q-140 -122 -420 -122q-244 0 -389 104q-143 103 -143 281q0 214 211 350q111 71 141 105q33 33 33 127h360v-162l-117 -420h-153l-29 135q-39 -39 -39 -88q0 -125 142 -125q94 0 129 41q34 39 32 140z" />
    <glyph glyph-name="uniF8FF" unicode="&#xf8ff;" horiz-adv-x="1755" 
d="M745 989v268q0 70 -63 70q-74 0 -74 -78v-260h-168v647h168v-233q60 67 142 67q74 0 117 -46q44 -47 44 -132v-303h-166zM1468 1636h168v-647h-168v647zM1190 981q-113 0 -183 67q-69 66 -69 179q0 111 69 178q70 68 183 68t182 -72q70 -73 70 -193v-30h-346
q18 -80 94 -80q58 0 82 41h158q-18 -74 -84 -116t-156 -42zM1188 1354q-74 0 -92 -76h182q-15 76 -90 76zM1636 725v-31h-346q17 -80 94 -80q58 0 82 41h158q-18 -73 -84 -115t-156 -42q-114 0 -183 66q-68 65 -68 179q0 112 68 179t183 67q114 0 183 -72t69 -192zM1165 967
l-161 -469h-203l-162 469h174l39 -138q42 -141 53 -194q30 120 53 194l39 138h168zM1382 870q-74 0 -92 -75h183q-15 75 -91 75zM459 516v131h157v-131h-157zM170 610h168v-143h88v-117h-88v-188q0 -20 7 -28q8 -10 16 -11q12 -2 30 -2h35v-123q-55 -4 -72 -4q-99 0 -142 35
q-42 35 -42 112v209h-68v117h68v143zM895 121q73 0 80 69h164q-6 -93 -73 -148q-66 -54 -171 -54q-115 0 -182 66q-68 66 -68 179q0 111 68 179q67 67 182 67q102 0 167 -53q66 -53 73 -141h-164q-12 59 -76 59q-82 0 -82 -111q0 -112 82 -112zM1653 0h-170q-5 14 -10 47
q-45 -57 -150 -57q-77 0 -123 40q-47 41 -47 107q0 68 44 103q45 36 142 43l74 6q32 1 46 10q11 7 11 27q0 39 -59 39q-35 0 -51 -11t-17 -39h-165q17 164 235 164q221 0 221 -147v-248q0 -54 19 -84zM623 0h-168v469h168v-469zM1380 98q90 0 90 86v29q-8 -12 -40 -18
l-54 -9q-53 -11 -53 -45q0 -43 57 -43z" />
    <glyph glyph-name="uniFEFF" unicode="&#xfeff;" 
 />
    <glyph glyph-name="null" 
 />
    <glyph glyph-name="Adieresis.ss01" horiz-adv-x="1525" 
d="M539 1536q-74 0 -126 52q-53 53 -53 126q0 71 53 124q52 52 126 52q72 0 124 -52t52 -124q0 -74 -52 -126t-124 -52zM971 1536q-74 0 -126 52t-52 126q0 72 52 124t126 52q72 0 124 -52t52 -124q0 -74 -52 -126t-124 -52zM1536 0h-434l-62 190h-571l-61 -190h-418
l518 1458h491zM682 864l-107 -336h355l-109 336q-56 174 -69 232q-14 -45 -30 -97.5t-25.5 -84.5t-14.5 -50z" />
    <glyph glyph-name="Cdotaccent.ss01" horiz-adv-x="1546" 
d="M920 1622q-56 -53 -132 -53t-129 53q-55 52 -55 131t55 131q53 53 129 53t132 -53q53 -53 53 -131t-53 -131zM788 -33q-340 0 -542 207q-205 205 -205 555t201 557q198 205 546 205q281 0 480 -152q194 -152 235 -424h-413q-28 108 -109 167q-80 59 -193 59
q-156 0 -239 -107q-82 -106 -82 -305t82 -305q83 -107 239 -107q122 0 204 67t104 187h409q-35 -287 -229 -444q-198 -160 -488 -160z" />
    <glyph glyph-name="Edieresis.ss01" horiz-adv-x="1304" 
d="M463 1536q-74 0 -126 52t-52 126q0 72 52 124t126 52q72 0 124 -52t52 -124q0 -74 -52 -126t-124 -52zM895 1536q-74 0 -126 52t-52 126q0 72 52 124t126 52q72 0 124 -52t52 -124q0 -74 -52 -126t-124 -52zM1253 1458v-364h-741v-193h676v-340h-676v-196h741v-365h-1151
v1458h1151z" />
    <glyph glyph-name="Edotaccent.ss01" horiz-adv-x="1304" 
d="M809 1589q-56 -53 -131 -53q-76 0 -129 53q-55 52 -55 131t55 131q54 54 129 54q74 0 131 -54q53 -53 53 -131t-53 -131zM1253 1458v-364h-741v-193h676v-340h-676v-196h741v-365h-1151v1458h1151z" />
    <glyph glyph-name="uni0122.ss01" horiz-adv-x="1615" 
d="M844 524v312h690v-836h-279l-41 190q-68 -108 -192 -165q-127 -58 -279 -58q-319 0 -510 207q-192 206 -192 555q0 350 201 557q198 205 555 205q297 0 489 -141q197 -145 230 -389h-418q-63 180 -297 180q-157 0 -246 -109q-88 -107 -88 -303q0 -195 93 -303
q94 -109 263 -109q109 0 188 57q79 56 101 150h-268zM784 -111q81 0 127 -55q47 -56 47 -147v-4q0 -124 -67 -190t-195 -66h-51v122h39q84 0 84 60v4v8q-65 6 -101 42t-36 91q0 60 42 98q41 37 111 37z" />
    <glyph glyph-name="Gdotaccent.ss01" horiz-adv-x="1615" 
d="M928 1622q-56 -53 -131 -53q-76 0 -129 53q-56 53 -56 131t56 131q53 53 129 53q75 0 131 -53q53 -53 53 -131t-53 -131zM844 524v312h690v-836h-279l-41 190q-68 -108 -192 -165q-127 -58 -279 -58q-319 0 -510 207q-192 206 -192 555q0 350 201 557q198 205 555 205
q297 0 489 -141q197 -145 230 -389h-418q-63 180 -297 180q-157 0 -246 -109q-88 -107 -88 -303q0 -195 93 -303q94 -109 263 -109q109 0 188 57q79 56 101 150h-268z" />
    <glyph glyph-name="Idieresis.ss01" horiz-adv-x="614" 
d="M219 1585q-49 -49 -117 -49q-67 0 -116 49t-49 117t49 117t116 49q68 0 117 -49t49 -117t-49 -117zM629 1585q-49 -49 -117 -49t-117 49t-49 117t49 117t117 49t117 -49t49 -117t-49 -117zM512 0h-410v1458h410v-1458z" />
    <glyph glyph-name="Idotaccent.ss01" horiz-adv-x="614" 
d="M438 1589q-53 -53 -131 -53t-131 53t-53 131t53 131q54 54 131 54t131 -54t54 -131t-54 -131zM512 0h-410v1458h410v-1458z" />
    <glyph glyph-name="uni0136.ss01" horiz-adv-x="1529" 
d="M1044 1458h496l-573 -596l573 -862h-483l-379 586l-166 -168v-418h-410v1458h410v-577zM784 -78q81 0 127 -55q47 -56 47 -148v-4q0 -123 -67 -189q-69 -67 -195 -67h-51v123h39q84 0 84 60v4v8q-65 6 -101 42t-36 91q0 59 42 97q43 38 111 38z" />
    <glyph glyph-name="uni013B.ss01" horiz-adv-x="1177" 
d="M512 1458v-1093h645v-365h-1055v1458h410zM631 -78q81 0 127 -55q47 -56 47 -148v-4q0 -123 -68 -189q-69 -67 -194 -67h-51v123h38q84 0 84 60v4v8q-65 6 -101 42t-36 91q0 59 42 97q43 38 112 38z" />
    <glyph glyph-name="Ldot.ss01" horiz-adv-x="1177" 
d="M512 1458v-1093h645v-365h-1055v1458h410zM899 549q-96 0 -165 66q-68 65 -68 163q0 95 68 160q69 66 165 66q95 0 162 -66t67 -160q0 -97 -67 -163t-162 -66z" />
    <glyph glyph-name="uni0145.ss01" horiz-adv-x="1525" 
d="M1034 1221v237h389v-1458h-432l-309 518q-126 215 -201 361q11 -316 11 -641v-238h-390v1458h433l309 -518q107 -182 200 -362q-10 287 -10 643zM764 -78q81 0 127 -55q47 -56 47 -148v-4q0 -123 -68 -189q-69 -67 -194 -67h-51v123h39q84 0 84 60v4v8q-66 6 -102 42
t-36 91q0 59 42 97q43 38 112 38z" />
    <glyph glyph-name="Odieresis.ss01" horiz-adv-x="1613" 
d="M592 1569q-74 0 -126 52t-52 126q0 72 52 124t126 52q72 0 124 -52t52 -124q0 -74 -52 -126t-124 -52zM1024 1569q-74 0 -126 52t-52 126q0 72 52 124t126 52q72 0 124 -52t52 -124q0 -74 -52 -126t-124 -52zM807 -33q-343 0 -555 209q-211 205 -211 553q0 347 211 555
q213 207 555 207t555 -207q211 -208 211 -555q0 -348 -211 -553q-212 -209 -555 -209zM559 430q91 -108 248 -108t248 108q92 107 92 299q0 188 -92 298t-248 110t-248 -110t-92 -298q0 -192 92 -299z" />
    <glyph glyph-name="uni0156.ss01" horiz-adv-x="1411" 
d="M1335 342l8 -195q5 -91 37 -147h-422q-23 45 -28 147l-6 166q-4 110 -51 151q-46 40 -148 40h-213v-504h-410v1458h717q279 0 412 -121q131 -123 131 -311q0 -114 -58 -203q-58 -90 -169 -139q109 -40 152 -119q42 -78 48 -223zM512 1139v-336h246q182 0 182 168
t-182 168h-246zM748 -78q80 0 126 -55q48 -57 48 -148v-4q0 -123 -68 -189q-69 -67 -195 -67h-51v123h39q84 0 84 60v4v8q-65 6 -101 42t-36 91q0 59 42 97q43 38 112 38z" />
    <glyph glyph-name="uni0218.ss01" horiz-adv-x="1355" 
d="M684 915l121 -20q271 -45 396 -153q124 -108 124 -302q0 -230 -170 -352q-169 -121 -473 -121q-312 0 -482 137q-169 136 -169 375h393q1 -113 68 -157q65 -43 206 -43q205 0 205 131q0 61 -47 90q-46 28 -182 51l-115 18q-506 83 -506 471q0 207 155 329t443 122
q291 0 451 -122t172 -359h-385q-5 88 -60 129q-56 41 -172 41q-186 0 -186 -121q0 -62 47 -92q48 -31 166 -52zM702 -111q81 0 127 -55q48 -57 48 -147v-4q0 -124 -68 -190q-67 -66 -195 -66h-51v122h39q84 0 84 60v4v8q-65 6 -101 42t-36 91q0 60 42 98q41 37 111 37z" />
    <glyph glyph-name="uni021A.ss01" horiz-adv-x="1310" 
d="M20 1458h1270v-364h-430v-1094h-409v1094h-431v364zM655 -78q81 0 127 -55q47 -56 47 -148v-4q0 -123 -67 -189q-69 -67 -195 -67h-51v123h39q84 0 84 60v4v8q-65 6 -101 42t-36 91q0 59 42 97q43 38 111 38z" />
    <glyph glyph-name="Udieresis.ss01" horiz-adv-x="1474" 
d="M522 1536q-74 0 -126 52t-52 126q0 72 52 124t126 52q72 0 124 -52t52 -124q0 -74 -52 -126t-124 -52zM954 1536q-74 0 -126 52t-52 126q0 72 52 124t126 52q72 0 124 -52t52 -124q0 -74 -52 -126t-124 -52zM737 -33q-290 0 -471 154q-184 153 -184 438v899h410v-903
q0 -115 64 -176q65 -62 181 -62q117 0 182 62q64 61 64 176v903h410v-899q0 -288 -179 -440q-181 -152 -477 -152z" />
    <glyph glyph-name="Wdieresis.ss01" horiz-adv-x="2062" 
d="M817 1536q-74 0 -126 52t-52 126q0 72 52 124t126 52q72 0 124 -52t52 -124q0 -74 -52 -126t-124 -52zM1249 1536q-74 0 -126 52t-52 126q0 72 52 124t126 52q72 0 124 -52t52 -124q0 -74 -52 -126t-124 -52zM1550 1038l95 420h428l-394 -1458h-458l-91 432
q-65 318 -98 533q-41 -254 -100 -533l-90 -432h-459l-393 1458h428l94 -420q90 -401 123 -583q46 284 108 583l86 420h404l86 -420q62 -299 108 -583q34 181 123 583z" />
    <glyph glyph-name="Ydieresis.ss01" horiz-adv-x="1466" 
d="M518 1536q-74 0 -126 52t-52 126q0 72 52 124t126 52q72 0 124 -52t52 -124q0 -74 -52 -126t-124 -52zM950 1536q-74 0 -126 52t-52 126q0 72 52 124t126 52q72 0 124 -52t52 -124q0 -74 -52 -126t-124 -52zM938 1296l90 162h449l-535 -897v-561h-410v561l-542 897h461
l94 -164q166 -292 200 -356q96 188 193 358z" />
    <glyph glyph-name="Zdotaccent.ss01" horiz-adv-x="1353" 
d="M809 1589q-56 -53 -131 -53q-76 0 -129 53q-55 52 -55 131t55 131q54 54 129 54q74 0 131 -54q53 -53 53 -131t-53 -131zM1010 365h293v-365h-1252v315l430 482q37 40 133 145.5t142 155.5q-335 -4 -424 -4h-260v364h1220v-311l-432 -485q-29 -32 -120 -132.5
t-154 -169.5q418 5 424 5z" />
    <glyph glyph-name="G.ss03" horiz-adv-x="1587" 
d="M811 836h729q6 -56 6 -107q0 -347 -198 -553q-201 -209 -537 -209q-345 0 -557 209q-213 207 -213 553q0 351 203 557q202 205 561 205q297 0 485 -145q186 -147 232 -379h-414q-72 170 -303 170q-158 0 -248 -108t-90 -300q0 -205 100 -305q101 -105 244 -105
q234 0 301 205h-301v312z" />
    <glyph glyph-name="uni01F4.ss03" horiz-adv-x="1587" 
d="M844 1874h395l-283 -295h-294zM811 836h729q6 -56 6 -107q0 -347 -198 -553q-201 -209 -537 -209q-345 0 -557 209q-213 207 -213 553q0 351 203 557q202 205 561 205q297 0 485 -145q186 -147 232 -379h-414q-72 170 -303 170q-158 0 -248 -108t-90 -300
q0 -205 100 -305q101 -105 244 -105q234 0 301 205h-301v312z" />
    <glyph glyph-name="Gbreve.ss03" horiz-adv-x="1587" 
d="M1055 1649q-101 -80 -250 -80t-250 80q-98 78 -133 225h264q22 -96 119 -96t119 96h264q-35 -147 -133 -225zM811 836h729q6 -56 6 -107q0 -347 -198 -553q-201 -209 -537 -209q-345 0 -557 209q-213 207 -213 553q0 351 203 557q202 205 561 205q297 0 485 -145
q186 -147 232 -379h-414q-72 170 -303 170q-158 0 -248 -108t-90 -300q0 -205 100 -305q101 -105 244 -105q234 0 301 205h-301v312z" />
    <glyph glyph-name="Gcircumflex.ss03" horiz-adv-x="1587" 
d="M918 1579l-113 119l-115 -119h-330l244 295h393l248 -295h-327zM811 836h729q6 -56 6 -107q0 -347 -198 -553q-201 -209 -537 -209q-345 0 -557 209q-213 207 -213 553q0 351 203 557q202 205 561 205q297 0 485 -145q186 -147 232 -379h-414q-72 170 -303 170
q-158 0 -248 -108t-90 -300q0 -205 100 -305q101 -105 244 -105q234 0 301 205h-301v312z" />
    <glyph glyph-name="uni0122.ss03" horiz-adv-x="1587" 
d="M811 836h729q6 -56 6 -107q0 -347 -198 -553q-201 -209 -537 -209q-345 0 -557 209q-213 207 -213 553q0 351 203 557q202 205 561 205q297 0 485 -145q186 -147 232 -379h-414q-72 170 -303 170q-158 0 -248 -108t-90 -300q0 -205 100 -305q101 -105 244 -105
q234 0 301 205h-301v312zM786 -365h-129v244h312v-250q0 -102 -63 -150t-193 -48h-56v116h56q73 0 73 78v10z" />
    <glyph glyph-name="Gdotaccent.ss03" horiz-adv-x="1587" 
d="M625 1874h356v-295h-356v295zM811 836h729q6 -56 6 -107q0 -347 -198 -553q-201 -209 -537 -209q-345 0 -557 209q-213 207 -213 553q0 351 203 557q202 205 561 205q297 0 485 -145q186 -147 232 -379h-414q-72 170 -303 170q-158 0 -248 -108t-90 -300q0 -205 100 -305
q101 -105 244 -105q234 0 301 205h-301v312z" />
    <glyph glyph-name="uni0122.ss01.ss03" horiz-adv-x="1587" 
d="M811 836h729q6 -56 6 -107q0 -347 -198 -553q-201 -209 -537 -209q-345 0 -557 209q-213 207 -213 553q0 351 203 557q202 205 561 205q297 0 485 -145q186 -147 232 -379h-414q-72 170 -303 170q-158 0 -248 -108t-90 -300q0 -205 100 -305q101 -105 244 -105
q234 0 301 205h-301v312zM811 -111q81 0 127 -55q47 -56 47 -147v-4q0 -124 -68 -190q-67 -66 -194 -66h-51v122h39q84 0 84 60v4v8q-66 6 -102 42t-36 91q0 60 42 98q41 37 112 37z" />
    <glyph glyph-name="Gdotaccent.ss01.ss03" horiz-adv-x="1587" 
d="M936 1622q-56 -53 -131 -53q-76 0 -129 53q-55 52 -55 131t55 131q53 53 129 53q75 0 131 -53q53 -53 53 -131t-53 -131zM811 836h729q6 -56 6 -107q0 -347 -198 -553q-201 -209 -537 -209q-345 0 -557 209q-213 207 -213 553q0 351 203 557q202 205 561 205
q297 0 485 -145q186 -147 232 -379h-414q-72 170 -303 170q-158 0 -248 -108t-90 -300q0 -205 100 -305q101 -105 244 -105q234 0 301 205h-301v312z" />
    <glyph glyph-name="R.ss04" horiz-adv-x="1419" 
d="M1419 0h-456l-279 492h-172v-492h-410v1458h701q259 0 408 -124q151 -125 151 -343q0 -146 -73 -257q-71 -109 -204 -165zM772 1139h-260v-336h260q83 0 132 46q50 47 50 122t-50 122q-49 46 -132 46z" />
    <glyph glyph-name="Racute.ss04" horiz-adv-x="1419" 
d="M756 1841h395l-283 -295h-295zM1419 0h-456l-279 492h-172v-492h-410v1458h701q259 0 408 -124q151 -125 151 -343q0 -146 -73 -257q-71 -109 -204 -165zM772 1139h-260v-336h260q83 0 132 46q50 47 50 122t-50 122q-49 46 -132 46z" />
    <glyph glyph-name="Rcaron.ss04" horiz-adv-x="1419" 
d="M1157 1841l-244 -295h-393l-248 295h328l115 -119l112 119h330zM1419 0h-456l-279 492h-172v-492h-410v1458h701q259 0 408 -124q151 -125 151 -343q0 -146 -73 -257q-71 -109 -204 -165zM772 1139h-260v-336h260q83 0 132 46q50 47 50 122t-50 122q-49 46 -132 46z" />
    <glyph glyph-name="uni0156.ss04" horiz-adv-x="1419" 
d="M1085 569l334 -569h-456l-279 492h-172v-492h-410v1458h701q259 0 408 -124q151 -125 151 -343q0 -146 -73 -257q-71 -109 -204 -165zM772 1139h-260v-336h260q83 0 132 46q50 47 50 122t-50 122q-49 46 -132 46zM715 -332h-129v244h311v-250q0 -103 -62 -150
q-64 -49 -194 -49h-55v117h55q74 0 74 78v10z" />
    <glyph glyph-name="uni0156.ss01.ss04" horiz-adv-x="1419" 
d="M1085 569l334 -569h-456l-279 492h-172v-492h-410v1458h701q259 0 408 -124q151 -125 151 -343q0 -146 -73 -257q-71 -109 -204 -165zM772 1139h-260v-336h260q83 0 132 46q50 47 50 122t-50 122q-49 46 -132 46zM739 -78q81 0 127 -55q47 -56 47 -148v-4
q0 -123 -67 -189q-69 -67 -195 -67h-51v123h39q84 0 84 60v4v8q-65 6 -101 42t-36 91q0 59 42 97q43 38 111 38z" />
    <glyph glyph-name="i.loclTRK" horiz-adv-x="540" 
d="M449 1163h-355v295h355v-295zM459 0h-377v1057h377v-1057z" />
    <glyph glyph-name="adieresis.ss01" horiz-adv-x="1181" 
d="M401 1153q-74 0 -126 52t-52 126q0 72 52 124t126 52q72 0 124 -52q53 -53 53 -124q0 -73 -53 -126q-52 -52 -124 -52zM834 1153q-74 0 -126 52q-53 53 -53 126q0 71 53 124q52 52 126 52q71 0 123 -52q53 -53 53 -124q0 -73 -53 -126q-52 -52 -123 -52zM1161 0h-379
q-21 47 -26 109q-108 -134 -336 -134q-175 0 -282 88t-107 242q0 150 100 231t322 99l170 14q67 6 97 27t30 61q0 84 -134 84q-82 0 -115 -23q-35 -24 -42 -89h-373q15 190 144 280q131 92 391 92q497 0 497 -331v-560q0 -134 43 -190zM549 217q201 0 201 199v61
q-23 -30 -95 -41l-120 -12q-121 -12 -121 -105q0 -47 36 -74q37 -28 99 -28z" />
    <glyph glyph-name="cdotaccent.ss01" horiz-adv-x="1169" 
d="M733 1208q-52 -55 -131 -55t-131 55q-53 53 -53 129q0 75 53 131q54 54 131 54t131 -54q53 -56 53 -131q0 -76 -53 -129zM604 -25q-257 0 -409 152q-154 152 -154 401q0 253 154 404q149 149 409 149q229 0 373 -117q145 -118 166 -319h-371q-22 135 -168 135
q-184 0 -184 -252q0 -249 184 -249q161 0 176 155h369q-12 -210 -160 -334q-151 -125 -385 -125z" />
    <glyph glyph-name="edieresis.ss01" horiz-adv-x="1224" 
d="M391 1153q-74 0 -126 52t-52 126q0 72 52 124t126 52q72 0 124 -52t52 -124q0 -74 -52 -126t-124 -52zM823 1153q-74 0 -126 52t-52 126q0 72 52 124t126 52q72 0 124 -52t52 -124q0 -74 -52 -126t-124 -52zM1174 487v-67h-775q37 -178 211 -178q131 0 187 92h352
q-43 -169 -191 -264q-151 -95 -348 -95q-253 0 -411 152t-158 401q0 252 156 402q155 151 409 151q255 0 412 -157q156 -158 156 -437zM602 815q-169 0 -203 -172h412q-37 172 -209 172z" />
    <glyph glyph-name="edotaccent.ss01" horiz-adv-x="1224" 
d="M735 1208q-55 -55 -131 -55q-77 0 -129 55q-55 52 -55 129q0 76 55 131q54 54 129 54q74 0 131 -54q53 -56 53 -131q0 -76 -53 -129zM1174 487v-67h-775q37 -178 211 -178q131 0 187 92h352q-43 -169 -191 -264q-151 -95 -348 -95q-253 0 -411 152t-158 401
q0 252 156 402q155 151 409 151q255 0 412 -157q156 -158 156 -437zM602 815q-169 0 -203 -172h412q-37 172 -209 172z" />
    <glyph glyph-name="uni0123.ss01" horiz-adv-x="1241" 
d="M647 1155q-81 0 -127 55q-47 56 -47 148v4q0 123 68 189q69 67 194 67h51v-123h-38q-84 0 -84 -59v-4v-9q65 -6 101 -42t36 -91q0 -60 -42 -97q-43 -38 -112 -38zM791 928v129h368v-1028q0 -216 -146 -335q-147 -120 -413 -120q-252 0 -389 108t-143 298h370
q6 -130 172 -130q84 0 128 44t44 120v164q-95 -137 -282 -137q-204 0 -332 147q-127 145 -127 375q0 231 123 375q122 143 328 143q204 0 299 -153zM420 555q0 -219 184 -219t184 227q0 223 -184 223t-184 -231z" />
    <glyph glyph-name="gdotaccent.ss01" horiz-adv-x="1241" 
d="M764 1208q-55 -55 -131 -55q-77 0 -129 55q-55 52 -55 129q0 76 55 131q54 54 129 54q74 0 131 -54q53 -56 53 -131q0 -76 -53 -129zM791 928v129h368v-1028q0 -216 -146 -335q-147 -120 -413 -120q-252 0 -389 108t-143 298h370q6 -130 172 -130q84 0 128 44t44 120v164
q-95 -137 -282 -137q-204 0 -332 147q-127 145 -127 375q0 231 123 375q122 143 328 143q204 0 299 -153zM420 555q0 -219 184 -219t184 227q0 223 -184 223t-184 -231z" />
    <glyph glyph-name="i.ss01" horiz-adv-x="540" 
d="M399 1208q-55 -55 -131 -55q-77 0 -129 55q-55 52 -55 129q0 76 55 131q54 54 129 54q74 0 131 -54q54 -57 54 -131q0 -75 -54 -129zM459 0h-377v1057h377v-1057z" />
    <glyph glyph-name="idieresis.ss01" horiz-adv-x="540" 
d="M182 1202q-49 -49 -116 -49q-68 0 -117 49t-49 117t49 117t117 49q67 0 116 -49t49 -117t-49 -117zM592 1202q-49 -49 -117 -49t-117 49t-49 117t49 117t117 49t117 -49t49 -117t-49 -117zM459 0h-377v1057h377v-1057z" />
    <glyph glyph-name="i.loclTRK.ss01" horiz-adv-x="540" 
d="M399 1208q-55 -55 -131 -55q-77 0 -129 55q-55 52 -55 129q0 76 55 131q54 54 129 54q74 0 131 -54q54 -57 54 -131q0 -75 -54 -129zM459 0h-377v1057h377v-1057z" />
    <glyph glyph-name="ij.ss01" horiz-adv-x="1081" 
d="M399 1208q-55 -55 -131 -55q-77 0 -129 55q-55 52 -55 129q0 76 55 131q54 54 129 54q74 0 131 -54q54 -57 54 -131q0 -75 -54 -129zM940 1208q-55 -55 -131 -55q-77 0 -129 55q-55 52 -55 129q0 76 55 131q54 54 129 54q74 0 131 -54q53 -56 53 -131q0 -76 -53 -129z
M459 0h-377v1057h377v-1057zM604 -406q-20 0 -112 5v280h30q35 0 51 4q19 5 34 27q16 24 16 63v1084h376v-1129q0 -176 -93 -255q-92 -79 -302 -79z" />
    <glyph glyph-name="iogonek.ss01" horiz-adv-x="540" 
d="M399 1208q-55 -55 -131 -55q-77 0 -129 55q-55 52 -55 129q0 76 55 131q54 54 129 54q74 0 131 -54q54 -57 54 -131q0 -75 -54 -129zM459 1057v-1057q-172 -82 -172 -170q0 -70 90 -70q35 0 82 13v-183q-58 -16 -133 -16q-132 0 -204 54q-73 55 -73 149q0 67 46 126
t138 97h-151v1057h377z" />
    <glyph glyph-name="j.ss01" horiz-adv-x="540" 
d="M399 1208q-55 -55 -131 -55q-77 0 -129 55q-55 52 -55 129q0 76 55 131q54 54 129 54q74 0 131 -54q54 -57 54 -131q0 -75 -54 -129zM63 -406q-20 0 -112 5v280h31q35 0 51 4q19 5 34 27t15 63v1084h377v-1129q0 -176 -93 -255q-92 -79 -303 -79z" />
    <glyph glyph-name="uni0137.ss01" horiz-adv-x="1245" 
d="M1225 1057l-396 -418l416 -639h-428l-242 387l-126 -135v-252h-367v1458h367v-799l354 398h422zM635 -78q81 0 127 -55q47 -56 47 -148v-4q0 -123 -68 -189q-69 -67 -194 -67h-51v123h39q83 0 83 60v4v8q-65 6 -101 42t-36 91q0 59 42 97q43 38 112 38z" />
    <glyph glyph-name="uni013C.ss01" horiz-adv-x="540" 
d="M82 0v1458h377v-1458h-377zM270 -78q81 0 127 -55q47 -56 47 -148v-4q0 -123 -67 -189q-69 -67 -195 -67h-51v123h39q84 0 84 60v4v8q-65 6 -101 42t-36 91q0 59 42 97q43 38 111 38z" />
    <glyph glyph-name="ldot.ss01" horiz-adv-x="1107" 
d="M459 0h-377v1458h377v-1458zM817 498q-96 0 -165 66q-68 65 -68 163q0 95 68 160t165 65q96 0 162 -65q68 -66 68 -160q0 -97 -68 -163q-67 -66 -162 -66z" />
    <glyph glyph-name="napostrophe.ss01" horiz-adv-x="1710" 
d="M258 1468q118 0 178 -78q62 -80 62 -212q0 -208 -100 -325q-99 -116 -306 -116h-4v183h10q80 0 116 32q37 33 48 107q-94 0 -152 55q-59 56 -59 146q0 92 60 150q59 58 147 58zM1264 1081q164 0 264 -103t100 -294v-684h-377v604q0 158 -143 158q-73 0 -119 -46
q-47 -47 -47 -130v-586h-377v1057h369v-139q127 163 330 163z" />
    <glyph glyph-name="uni0146.ss01" horiz-adv-x="1226" 
d="M780 1081q164 0 264 -103q101 -104 101 -294v-684h-377v604q0 158 -143 158q-73 0 -119 -46q-47 -47 -47 -130v-586h-377v1057h369v-139q127 163 329 163zM610 -78q81 0 127 -55q47 -56 47 -148v-4q0 -123 -67 -189q-69 -67 -195 -67h-51v123h39q84 0 84 60v4v8
q-65 6 -101 42t-36 91q0 59 42 97q43 38 111 38z" />
    <glyph glyph-name="odieresis.ss01" horiz-adv-x="1220" 
d="M395 1153q-74 0 -126 52t-52 126q0 72 52 124t126 52q72 0 124 -52t52 -124q0 -74 -52 -126t-124 -52zM827 1153q-74 0 -126 52t-52 126q0 72 52 124t126 52q72 0 124 -52q53 -53 53 -124q0 -73 -53 -126q-52 -52 -124 -52zM1026 127q-157 -152 -416 -152
q-258 0 -415 152q-154 152 -154 401q0 253 154 404q150 149 415 149q266 0 416 -149q154 -152 154 -404q0 -249 -154 -401zM420 528q0 -258 190 -258q191 0 191 258t-191 258q-190 0 -190 -258z" />
    <glyph glyph-name="uni0157.ss01" horiz-adv-x="851" 
d="M735 1073q43 0 76 -6v-338h-98q-254 0 -254 -278v-451h-377v1057h369v-209q55 225 284 225zM270 -78q81 0 127 -55q47 -56 47 -148v-4q0 -123 -67 -189q-69 -67 -195 -67h-51v123h39q84 0 84 60v4v8q-65 6 -101 42t-36 91q0 59 42 97q43 38 111 38z" />
    <glyph glyph-name="uni0219.ss01" horiz-adv-x="1105" 
d="M532 678l181 -25q191 -27 281 -108q91 -82 91 -228q0 -168 -139 -259t-393 -91q-265 0 -392 86q-126 85 -141 283h365q7 -71 48 -100t128 -29q150 0 150 80q0 39 -35 60q-34 21 -125 36l-152 23q-366 52 -366 329q0 169 130 257q131 89 378 89q491 0 514 -366h-346
q-4 127 -168 127q-140 0 -140 -80q0 -37 30 -55q31 -19 101 -29zM553 -111q81 0 127 -55q47 -56 47 -147v-4q0 -124 -68 -190t-194 -66h-51v122h39q84 0 84 60v4v8q-66 6 -102 42t-36 91q0 60 42 98q41 37 112 37z" />
    <glyph glyph-name="uni021B.ss01" horiz-adv-x="786" 
d="M745 1057v-266h-198v-422q0 -59 25 -77t96 -18h77v-274q-91 -10 -159 -10q-224 0 -320 78t-96 256v467h-150v266h150v319h377v-319h198zM455 -78q81 0 127 -55q47 -56 47 -148v-4q0 -123 -68 -189q-69 -67 -194 -67h-52v123h39q84 0 84 60v4v8q-65 6 -101 42t-36 91
q0 59 42 97q43 38 112 38z" />
    <glyph glyph-name="udieresis.ss01" horiz-adv-x="1226" 
d="M389 1153q-74 0 -126 52t-52 126q0 72 52 124t126 52q72 0 124 -52t52 -124q0 -74 -52 -126t-124 -52zM821 1153q-74 0 -126 52t-52 126q0 72 52 124t126 52q72 0 124 -52t52 -124q0 -74 -52 -126t-124 -52zM768 471v586h377v-1057h-369v139q-128 -164 -330 -164
q-163 0 -264 104q-100 103 -100 294v684h377v-604q0 -158 143 -158q73 0 119 46q47 47 47 130z" />
    <glyph glyph-name="wdieresis.ss01" horiz-adv-x="1816" 
d="M694 1153q-74 0 -126 52t-52 126q0 72 52 124t126 52q72 0 124 -52t52 -124q0 -74 -52 -126t-124 -52zM1126 1153q-74 0 -126 52t-52 126q0 72 52 124t126 52q72 0 124 -52q53 -53 53 -124q0 -73 -53 -126q-52 -52 -124 -52zM1333 768l80 289h404l-342 -1057h-398
l-102 365q-40 138 -68 258q-33 -145 -65 -258l-103 -365h-397l-342 1057h403l80 -289q30 -108 92 -348q31 140 87 350l75 287h342l76 -287q49 -192 86 -350q62 240 92 348z" />
    <glyph glyph-name="ydieresis.ss01" horiz-adv-x="1183" 
d="M377 1153q-74 0 -126 52t-52 126q0 72 52 124t126 52q72 0 124 -52t52 -124q0 -74 -52 -126t-124 -52zM809 1153q-74 0 -126 52t-52 126q0 72 52 124t126 52q72 0 124 -52t52 -124q0 -74 -52 -126t-124 -52zM786 1012l13 45h385l-363 -1057q-78 -228 -200 -317
q-125 -89 -392 -89q-41 0 -133 5v286h105q147 0 147 125q0 62 -49 197l-299 850h403l13 -43q117 -411 188 -729q50 234 182 727z" />
    <glyph glyph-name="zdotaccent.ss01" horiz-adv-x="1054" 
d="M657 1208q-55 -55 -131 -55q-77 0 -129 55q-55 52 -55 129q0 76 55 131q54 54 129 54q74 0 131 -54q54 -57 54 -131q0 -75 -54 -129zM731 272h273v-272h-953v229l336 406q46 59 129 151q-62 -2 -209 -2h-256v273h936v-230l-336 -405q-53 -67 -129 -152q62 2 209 2z" />
    <glyph glyph-name="a.ss02" horiz-adv-x="1226" 
d="M766 946v111h379v-1057h-369v125q-92 -150 -282 -150q-215 0 -334 148t-119 405q0 258 119 406q119 147 334 147q180 0 272 -135zM463 330q43 -60 133 -60q89 0 133 64q43 61 43 194q0 134 -43 196t-133 62q-176 0 -176 -266q0 -131 43 -190z" />
    <glyph glyph-name="aacute.ss02" horiz-adv-x="1226" 
d="M653 1458h396l-283 -295h-295zM766 946v111h379v-1057h-369v125q-92 -150 -282 -150q-215 0 -334 148t-119 405q0 258 119 406q119 147 334 147q180 0 272 -135zM463 330q43 -60 133 -60q89 0 133 64q43 61 43 194q0 134 -43 196t-133 62q-176 0 -176 -266
q0 -131 43 -190z" />
    <glyph glyph-name="abreve.ss02" horiz-adv-x="1226" 
d="M856 1233q-103 -80 -250 -80t-250 80q-98 78 -133 225h264q23 -96 119 -96t119 96h264q-35 -147 -133 -225zM766 946v111h379v-1057h-369v125q-92 -150 -282 -150q-215 0 -334 148t-119 405q0 258 119 406q119 147 334 147q180 0 272 -135zM463 330q43 -60 133 -60
q89 0 133 64q43 61 43 194q0 134 -43 196t-133 62q-176 0 -176 -266q0 -131 43 -190z" />
    <glyph glyph-name="acircumflex.ss02" horiz-adv-x="1226" 
d="M719 1163l-113 119l-114 -119h-330l244 295h393l248 -295h-328zM766 946v111h379v-1057h-369v125q-92 -150 -282 -150q-215 0 -334 148t-119 405q0 258 119 406q119 147 334 147q180 0 272 -135zM463 330q43 -60 133 -60q89 0 133 64q43 61 43 194q0 134 -43 196t-133 62
q-176 0 -176 -266q0 -131 43 -190z" />
    <glyph glyph-name="adieresis.ss02" horiz-adv-x="1226" 
d="M201 1458h354v-295h-354v295zM657 1458h355v-295h-355v295zM766 946v111h379v-1057h-369v125q-92 -150 -282 -150q-215 0 -334 148t-119 405q0 258 119 406q119 147 334 147q180 0 272 -135zM463 330q43 -60 133 -60q89 0 133 64q43 61 43 194q0 134 -43 196t-133 62
q-176 0 -176 -266q0 -131 43 -190z" />
    <glyph glyph-name="agrave.ss02" horiz-adv-x="1226" 
d="M578 1458l182 -295h-295l-283 295h396zM766 946v111h379v-1057h-369v125q-92 -150 -282 -150q-215 0 -334 148t-119 405q0 258 119 406q119 147 334 147q180 0 272 -135zM463 330q43 -60 133 -60q89 0 133 64q43 61 43 194q0 134 -43 196t-133 62q-176 0 -176 -266
q0 -131 43 -190z" />
    <glyph glyph-name="amacron.ss02" horiz-adv-x="1226" 
d="M244 1399h725v-236h-725v236zM766 946v111h379v-1057h-369v125q-92 -150 -282 -150q-215 0 -334 148t-119 405q0 258 119 406q119 147 334 147q180 0 272 -135zM463 330q43 -60 133 -60q89 0 133 64q43 61 43 194q0 134 -43 196t-133 62q-176 0 -176 -266q0 -131 43 -190
z" />
    <glyph glyph-name="aogonek.ss02" horiz-adv-x="1226" 
d="M1145 1057v-1057q-193 -83 -193 -170q0 -70 103 -70q36 0 90 13v-183q-64 -16 -150 -16q-147 0 -228 54t-81 149q0 66 51 126q50 59 156 97h-117v125q-92 -150 -282 -150q-215 0 -334 148t-119 405q0 258 119 406q119 147 334 147q180 0 272 -135v111h379zM463 330
q43 -60 133 -60q89 0 133 64q43 61 43 194q0 134 -43 196t-133 62q-176 0 -176 -266q0 -131 43 -190z" />
    <glyph glyph-name="aring.ss02" horiz-adv-x="1226" 
d="M846 1247q-100 -90 -240 -90q-141 0 -237 90q-99 89 -99 226t99 227q94 88 237 88q145 0 240 -88q96 -90 96 -227q0 -136 -96 -226zM690 1554q-33 33 -83 33t-83 -33q-32 -32 -32 -81q0 -50 32 -82q33 -33 82 -33q50 0 84 33q35 33 35 82q0 48 -35 81zM766 946v111h379
v-1057h-369v125q-92 -150 -282 -150q-215 0 -334 148t-119 405q0 258 119 406q119 147 334 147q180 0 272 -135zM463 330q43 -60 133 -60q89 0 133 64q43 61 43 194q0 134 -43 196t-133 62q-176 0 -176 -266q0 -131 43 -190z" />
    <glyph glyph-name="aringacute.ss02" horiz-adv-x="1226" 
d="M653 2150h396l-283 -295h-295zM846 1247q-100 -90 -240 -90q-141 0 -237 90q-99 89 -99 226t99 227q94 88 237 88q145 0 240 -88q96 -90 96 -227q0 -136 -96 -226zM690 1554q-33 33 -83 33t-83 -33q-32 -32 -32 -81q0 -50 32 -82q33 -33 82 -33q50 0 84 33q35 33 35 82
q0 48 -35 81zM766 946v111h379v-1057h-369v125q-92 -150 -282 -150q-215 0 -334 148t-119 405q0 258 119 406q119 147 334 147q180 0 272 -135zM463 330q43 -60 133 -60q89 0 133 64q43 61 43 194q0 134 -43 196t-133 62q-176 0 -176 -266q0 -131 43 -190z" />
    <glyph glyph-name="atilde.ss02" horiz-adv-x="1226" 
d="M479 1229q-53 0 -57 -66h-217q0 144 65 219q66 76 168 76q75 0 176 -37q78 -28 119 -28q54 0 58 65h217q0 -142 -66 -219q-66 -76 -168 -76q-75 0 -174 37q-87 29 -121 29zM766 946v111h379v-1057h-369v125q-92 -150 -282 -150q-215 0 -334 148t-119 405q0 258 119 406
q119 147 334 147q180 0 272 -135zM463 330q43 -60 133 -60q89 0 133 64q43 61 43 194q0 134 -43 196t-133 62q-176 0 -176 -266q0 -131 43 -190z" />
    <glyph glyph-name="adieresis.ss01.ss02" horiz-adv-x="1226" 
d="M391 1153q-74 0 -126 52t-52 126q0 72 52 124t126 52q72 0 124 -52t52 -124q0 -74 -52 -126t-124 -52zM823 1153q-74 0 -126 52t-52 126q0 72 52 124t126 52q72 0 124 -52t52 -124q0 -74 -52 -126t-124 -52zM766 946v111h379v-1057h-369v125q-92 -150 -282 -150
q-215 0 -334 148t-119 405q0 258 119 406q119 147 334 147q180 0 272 -135zM463 330q43 -60 133 -60q89 0 133 64q43 61 43 194q0 134 -43 196t-133 62q-176 0 -176 -266q0 -131 43 -190z" />
    <glyph glyph-name="uni021B.ss01.ss05" horiz-adv-x="745" 
d="M547 1057h158v-266h-158v-791h-377v791h-150v266h150v319h377v-319zM358 -78q81 0 127 -55q47 -56 47 -148v-4q0 -123 -67 -189q-69 -67 -195 -67h-51v123h39q84 0 84 60v4v8q-65 6 -101 42t-36 91q0 59 42 97q43 38 111 38z" />
    <glyph glyph-name="udieresis.ss01.ss05" horiz-adv-x="1226" 
d="M389 1153q-74 0 -126 52t-52 126q0 72 52 124t126 52q72 0 124 -52t52 -124q0 -74 -52 -126t-124 -52zM821 1153q-74 0 -126 52t-52 126q0 72 52 124t126 52q72 0 124 -52t52 -124q0 -74 -52 -126t-124 -52zM768 471v586h377v-1057h-369v139q-128 -164 -330 -164
q-163 0 -264 104q-100 103 -100 294v684h377v-604q0 -158 143 -158q73 0 119 46q47 47 47 130z" />
    <glyph glyph-name="t.ss05" horiz-adv-x="745" 
d="M547 1057h158v-266h-158v-791h-377v791h-150v266h150v319h377v-319z" />
    <glyph glyph-name="tbar.ss05" horiz-adv-x="745" 
d="M705 1057v-266h-158v-142h155v-194h-155v-455h-377v455h-147v194h147v142h-150v266h150v319h377v-319h158z" />
    <glyph glyph-name="tcaron.ss05" horiz-adv-x="745" 
d="M612 1118l45 340h359l-162 -340h-242zM170 1376h377v-319h158v-266h-158v-791h-377v791h-150v266h150v319z" />
    <glyph glyph-name="uni0163.ss05" horiz-adv-x="745" 
d="M547 791v-791h-98l-78 -90q10 2 37 2q104 0 165 -45q62 -45 62 -115q0 -93 -83 -146q-82 -52 -247 -52q-75 0 -149 14v123q46 -8 114 -8q123 0 123 77q0 70 -117 70q-27 0 -47 -2v78l74 94h-133v791h-150v266h150v319h377v-319h158v-266h-158z" />
    <glyph glyph-name="uni021B.ss05" horiz-adv-x="745" 
d="M547 1057h158v-266h-158v-791h-377v791h-150v266h150v319h377v-319zM334 -350h-129v244h311v-250q0 -104 -62 -151q-63 -48 -194 -48h-55v117h55q74 0 74 78v10z" />
    <glyph glyph-name="udieresis.ss01.ss06" horiz-adv-x="1230" 
d="M401 1153q-74 0 -126 52t-52 126q0 72 52 124t126 52q72 0 124 -52q53 -53 53 -124q0 -73 -53 -126q-52 -52 -124 -52zM834 1153q-74 0 -126 52q-53 53 -53 126q0 71 53 124q52 52 126 52q71 0 123 -52q53 -53 53 -124q0 -73 -53 -126q-52 -52 -123 -52zM1006 106
q-145 -131 -390 -131q-244 0 -389 131q-145 133 -145 367v584h379v-588q-8 -112 74 -156q82 -45 162 0q81 45 73 156v588h379v-584q0 -237 -143 -367z" />
    <glyph glyph-name="u.ss06" horiz-adv-x="1230" 
d="M1006 106q-145 -131 -390 -131q-244 0 -389 131q-145 133 -145 367v584h379v-588q-8 -112 74 -156q82 -45 162 0q81 45 73 156v588h379v-584q0 -237 -143 -367z" />
    <glyph glyph-name="uacute.ss06" horiz-adv-x="1230" 
d="M776 1163h-295l183 295h395zM1006 106q-145 -131 -390 -131q-244 0 -389 131q-145 133 -145 367v584h379v-588q-8 -112 74 -156q82 -45 162 0q81 45 73 156v588h379v-584q0 -237 -143 -367z" />
    <glyph glyph-name="ubreve.ss06" horiz-adv-x="1230" 
d="M866 1233q-101 -80 -250 -80q-148 0 -249 80q-100 78 -134 225h265q22 -96 118 -96t119 96h264q-35 -147 -133 -225zM1006 106q-145 -131 -390 -131q-244 0 -389 131q-145 133 -145 367v584h379v-588q-8 -112 74 -156q82 -45 162 0q81 45 73 156v588h379v-584
q0 -237 -143 -367z" />
    <glyph glyph-name="ucircumflex.ss06" horiz-adv-x="1230" 
d="M729 1163l-113 119l-114 -119h-330l244 295h393l248 -295h-328zM770 469v588h379v-584q0 -233 -142 -365q-144 -133 -391 -133q-246 0 -391 133q-143 131 -143 365v584h379v-588q-8 -112 74 -156q82 -45 162 0q81 45 73 156z" />
    <glyph glyph-name="udieresis.ss06" horiz-adv-x="1230" 
d="M565 1163h-354v295h354v-295zM1022 1163h-354v295h354v-295zM1006 106q-145 -131 -390 -131q-244 0 -389 131q-145 133 -145 367v584h379v-588q-8 -112 74 -156q82 -45 162 0q81 45 73 156v588h379v-584q0 -237 -143 -367z" />
    <glyph glyph-name="ugrave.ss06" horiz-adv-x="1230" 
d="M770 1163h-295l-282 295h395zM1006 106q-145 -131 -390 -131q-244 0 -389 131q-145 133 -145 367v584h379v-588q-8 -112 74 -156q82 -45 162 0q81 45 73 156v588h379v-584q0 -237 -143 -367z" />
    <glyph glyph-name="uhungarumlaut.ss06" horiz-adv-x="1230" 
d="M516 1163h-283l183 295h401zM1020 1163h-285l185 295h399zM1006 106q-145 -131 -390 -131q-244 0 -389 131q-145 133 -145 367v584h379v-588q-8 -112 74 -156q82 -45 162 0q81 45 73 156v588h379v-584q0 -237 -143 -367z" />
    <glyph glyph-name="umacron.ss06" horiz-adv-x="1230" 
d="M979 1163h-725v236h725v-236zM1006 106q-145 -131 -390 -131q-244 0 -389 131q-145 133 -145 367v584h379v-588q-8 -112 74 -156q82 -45 162 0q81 45 73 156v588h379v-584q0 -237 -143 -367z" />
    <glyph glyph-name="uogonek.ss06" horiz-adv-x="1230" 
d="M770 469v588h379v-584q0 -182 -90 -305t-252 -168q-148 -74 -148 -150q0 -69 103 -69q40 0 90 12v-182q-68 -17 -150 -17q-146 0 -228 55q-81 54 -81 148q0 111 125 185q-204 24 -320 153q-116 130 -116 338v584h379v-588q-8 -112 74 -156q82 -45 162 0q81 45 73 156z
" />
    <glyph glyph-name="uring.ss06" horiz-adv-x="1230" 
d="M856 1247q-100 -90 -240 -90q-141 0 -237 90q-98 88 -98 226t98 227q94 88 237 88q145 0 240 -88q96 -90 96 -227q0 -136 -96 -226zM535 1391q34 -33 83 -33t82 33t33 82q0 48 -33 81t-82 33q-48 0 -83 -33t-35 -81q0 -49 35 -82zM1006 106q-145 -131 -390 -131
q-244 0 -389 131q-145 133 -145 367v584h379v-588q-8 -112 74 -156q82 -45 162 0q81 45 73 156v588h379v-584q0 -237 -143 -367z" />
    <glyph glyph-name="utilde.ss06" horiz-adv-x="1230" 
d="M432 1163h-217q0 143 66 219t168 76q77 0 176 -37q78 -28 118 -28q54 0 58 65h217q0 -142 -66 -219q-66 -76 -168 -76q-73 0 -174 37q-87 29 -121 29q-53 0 -57 -66zM1006 106q-145 -131 -390 -131q-244 0 -389 131q-145 133 -145 367v584h379v-588q-8 -112 74 -156
q82 -45 162 0q81 45 73 156v588h379v-584q0 -237 -143 -367z" />
    <glyph glyph-name="ydieresis.ss01.ss07" horiz-adv-x="1183" 
d="M387 1153q-74 0 -126 52t-52 126q0 72 52 124t126 52q72 0 124 -52t52 -124q0 -74 -52 -126t-124 -52zM819 1153q-74 0 -126 52t-52 126q0 72 52 124t126 52q72 0 124 -52t52 -124q0 -74 -52 -126t-124 -52zM778 993l21 64h385l-404 -971l-194 -487h-361l181 444
l-406 1014h403l11 -33q82 -251 176 -584q126 359 188 553z" />
    <glyph glyph-name="y.ss07" horiz-adv-x="1183" 
d="M778 993l21 64h385l-404 -971l-194 -487h-361l181 444l-406 1014h403l11 -33q82 -251 176 -584q126 359 188 553z" />
    <glyph glyph-name="yacute.ss07" horiz-adv-x="1183" 
d="M649 1458h395l-282 -295h-295zM778 993l21 64h385l-404 -971l-194 -487h-361l181 444l-406 1014h403l11 -33q82 -251 176 -584q126 359 188 553z" />
    <glyph glyph-name="ycircumflex.ss07" horiz-adv-x="1183" 
d="M715 1163l-113 119l-115 -119h-329l243 295h394l247 -295h-327zM778 993l21 64h385l-404 -971l-194 -487h-361l181 444l-406 1014h403l11 -33q82 -251 176 -584q126 359 188 553z" />
    <glyph glyph-name="ydieresis.ss07" horiz-adv-x="1183" 
d="M197 1458h354v-295h-354v295zM653 1458h355v-295h-355v295zM778 993l21 64h385l-404 -971l-194 -487h-361l181 444l-406 1014h403l11 -33q82 -251 176 -584q126 359 188 553z" />
    <glyph glyph-name="ygrave.ss07" horiz-adv-x="1183" 
d="M573 1458l183 -295h-295l-283 295h395zM778 993l21 64h385l-404 -971l-194 -487h-361l181 444l-406 1014h403l11 -33q82 -251 176 -584q126 359 188 553z" />
    <glyph glyph-name="l.ss08" horiz-adv-x="649" 
d="M477 -10q-213 0 -304 78t-91 256v1134h377v-1089q0 -59 21 -77t81 -18h68v-274q-87 -10 -152 -10z" />
    <glyph glyph-name="lacute.ss08" horiz-adv-x="649" 
d="M422 1546h-295l182 295h396zM477 -10q-213 0 -304 78t-91 256v1134h377v-1089q0 -59 21 -77t81 -18h68v-274q-87 -10 -152 -10z" />
    <glyph glyph-name="lcaron.ss08" horiz-adv-x="913" 
d="M477 -10q-213 0 -304 78t-91 256v1134h377v-1089q0 -59 21 -77t81 -18h68v-274q-87 -10 -152 -10zM772 1118h-242l45 340h359z" />
    <glyph glyph-name="uni013C.ss08" horiz-adv-x="649" 
d="M561 274h68v-274q-87 -10 -152 -10q-213 0 -304 78t-91 256v1134h377v-1089q0 -59 21 -77t81 -18zM246 -350h-129v244h311v-250q0 -104 -62 -151q-63 -48 -194 -48h-55v117h55q74 0 74 78v10z" />
    <glyph glyph-name="ldot.ss08" horiz-adv-x="1085" 
d="M477 -10q-213 0 -304 78t-91 256v1134h377v-1089q0 -59 21 -77t81 -18h68v-274q-87 -10 -152 -10zM1024 522h-418v406h418v-406z" />
    <glyph glyph-name="lslash.ss08" horiz-adv-x="716" 
d="M629 274h67v-274q-87 -10 -151 -10q-213 0 -304 78t-91 256v217l-150 -64v219l150 64v698h376v-538l150 63v-219l-150 -64v-331q0 -58 22 -77q21 -18 81 -18z" />
    <glyph glyph-name="uni013C.ss01.ss08" horiz-adv-x="649" 
d="M561 274h68v-274q-87 -10 -152 -10q-213 0 -304 78t-91 256v1134h377v-1089q0 -59 21 -77t81 -18zM270 -78q81 0 127 -55q47 -56 47 -148v-4q0 -123 -67 -189q-69 -67 -195 -67h-51v123h39q84 0 84 60v4v8q-65 6 -101 42t-36 91q0 59 42 97q43 38 111 38z" />
    <glyph glyph-name="ldot.ss01.ss08" horiz-adv-x="1107" 
d="M477 -10q-213 0 -304 78t-91 256v1134h377v-1089q0 -59 21 -77t81 -18h68v-274q-87 -10 -152 -10zM817 498q-96 0 -165 66q-68 65 -68 163q0 95 68 160t165 65q96 0 162 -65q68 -66 68 -160q0 -97 -68 -163q-67 -66 -162 -66z" />
    <glyph glyph-name="fi.ss01" horiz-adv-x="1333" 
d="M1192 1208q-52 -55 -131 -55t-131 55q-53 53 -53 129q0 75 53 131q54 54 131 54t131 -54q53 -56 53 -131q0 -76 -53 -129zM170 1057v43q0 165 103 267q102 101 311 101q77 0 168 -10v-274h-82q-123 0 -123 -99v-28h205v-266h-205v-791h-377v791h-150v266h150zM874 0v1057
h377v-1057h-377z" />
    <glyph glyph-name="fl.ss08" horiz-adv-x="1431" 
d="M170 1057v43q0 165 103 267q102 101 311 101q77 0 168 -10v-274h-82q-123 0 -123 -99v-28h205v-266h-205v-791h-377v791h-150v266h150zM1343 274h68v-274q-87 -10 -151 -10q-214 0 -305 78t-91 256v1134h377v-1089q0 -58 22 -77q21 -18 80 -18z" />
    <glyph glyph-name="ordfeminine.ss02" horiz-adv-x="1017" 
d="M668 1360v98h329v-921h-319v110q-89 -131 -252 -131q-190 0 -298 129t-108 350q0 224 108 353t298 129q156 0 242 -117zM350 989q0 -215 162 -215t162 221q0 224 -162 224t-162 -230z" />
    <glyph glyph-name="t.sups.ss05" horiz-adv-x="610" 
d="M469 1458h131v-233h-131v-688h-328v688h-131v233h131v277h328v-277z" />
    <glyph glyph-name="zero.ss09" horiz-adv-x="1957" 
d="M1909 -180h-1860v1818h1860v-1818zM578 729q0 -477 401 -477t401 477q0 479 -401 479t-401 -479zM981 465q-74 0 -104 61q-31 64 -31 203q0 141 31 205q30 61 104 61q71 0 101 -61q30 -62 30 -205q0 -144 -30 -204t-101 -60z" />
    <glyph glyph-name="one.ss09" horiz-adv-x="1957" 
d="M1909 -180h-1860v1818h1860v-1818zM887 842v-570h256v916h-199q-57 -174 -254 -174v-172h197z" />
    <glyph glyph-name="two.ss09" horiz-adv-x="1957" 
d="M1909 -180h-1860v1818h1860v-1818zM618 412l-6 -97h736v211h-428q17 57 112 103l43 20q150 71 214 143q63 70 63 183q0 124 -97 201q-94 75 -256 75q-323 0 -366 -336h250q8 125 116 125q95 0 95 -88q0 -35 -30 -62q-32 -29 -99 -61l-74 -34q-257 -122 -273 -383z" />
    <glyph glyph-name="three.ss09" horiz-adv-x="1957" 
d="M1909 -180h-1860v1818h1860v-1818zM993 252q167 0 270 80q101 79 101 213q0 75 -40 131q-41 57 -112 84q127 67 127 190q0 121 -93 190q-92 68 -257 68q-181 0 -270 -74q-91 -75 -101 -231h246q7 55 36 81q27 24 87 24q107 0 107 -82q0 -49 -27 -70q-26 -20 -88 -20h-72
v-181h70q123 0 123 -100q0 -42 -32 -66t-85 -24q-75 0 -107 33q-33 34 -34 110h-246q6 -356 397 -356z" />
    <glyph glyph-name="four.ss09" horiz-adv-x="1957" 
d="M1909 -180h-1860v1818h1860v-1818zM969 451v-179h256v179h108v202h-108v535h-264l-398 -488v-249h406zM975 653h-234l234 287v-287z" />
    <glyph glyph-name="five.ss09" horiz-adv-x="1957" 
d="M1909 -180h-1860v1818h1860v-1818zM979 233q166 0 271 91q104 90 104 235q0 133 -84 217t-242 84q-76 0 -139 -33l24 129h396v211h-594l-86 -538h237q34 59 113 59q59 0 96 -36t37 -93t-37 -93t-96 -36q-99 0 -121 90h-246q11 -131 111 -209q101 -78 256 -78z" />
    <glyph glyph-name="six.ss09" horiz-adv-x="1957" 
d="M1909 -180h-1860v1818h1860v-1818zM979 252q167 0 269 90t102 238q0 130 -85 215q-86 86 -235 86q-131 0 -203 -72v10q11 115 44 158q35 45 108 45q90 0 117 -74h239q-21 127 -111 193q-91 67 -241 67q-193 0 -293 -124t-100 -359q0 -296 155 -408q93 -65 234 -65z
M1073 485q-37 -34 -94 -34q-58 0 -92 34q-35 35 -35 90q0 56 35 89q33 32 92 32q58 0 94 -32q35 -33 35 -89q0 -55 -35 -90z" />
    <glyph glyph-name="seven.ss09" horiz-adv-x="1957" 
d="M1909 -180h-1860v1818h1860v-1818zM784 248h279q5 259 61 414q60 158 187 294v207h-664v-211h420q-277 -304 -283 -704z" />
    <glyph glyph-name="eight.ss09" horiz-adv-x="1957" 
d="M1909 -180h-1860v1818h1860v-1818zM979 252q179 0 285 78t106 207q0 157 -151 217q110 65 110 194q0 123 -92 192q-90 68 -258 68q-166 0 -256 -68q-92 -69 -92 -192q0 -129 110 -194q-151 -60 -151 -217q0 -129 106 -207t283 -78zM1098 928q0 -99 -119 -99t-119 99
q0 98 119 98t119 -98zM979 449q-135 0 -135 108q0 115 135 115q137 0 137 -115q0 -108 -137 -108z" />
    <glyph glyph-name="nine.ss09" horiz-adv-x="1957" 
d="M1909 -180h-1860v1818h1860v-1818zM987 244q192 0 297 124t105 367q0 301 -162 414q-97 68 -238 68q-166 0 -273 -93q-106 -92 -106 -243q0 -125 86 -217q87 -93 244 -93q107 0 184 56l9 6l-3 -21q-12 -92 -45 -129t-96 -37q-87 0 -108 74h-256q18 -133 113 -205
q93 -71 249 -71zM1077 805q-33 -33 -88 -33q-56 0 -86 33q-33 30 -33 82q0 51 33 84q30 30 86 30q55 0 88 -30q31 -34 31 -84q0 -51 -31 -82z" />
    <glyph glyph-name="zero.ss10" horiz-adv-x="1957" 
d="M1909 -180h-1860v1818h1860v-1818zM352 1366v-1274h1254v1274h-1254zM1389 729q0 -483 -410 -483t-410 483q0 488 410 488t410 -488zM979 473q68 0 96 56q29 58 29 200q0 146 -30 203t-95 57q-66 0 -95 -56q-30 -57 -30 -204q0 -143 30 -200q29 -56 95 -56z" />
    <glyph glyph-name="one.ss10" horiz-adv-x="1957" 
d="M49 -180v1818h1860v-1818h-1860zM352 92h1254v1274h-1254v-1274zM1167 264h-272v570h-197v188q205 0 256 174h213v-932z" />
    <glyph glyph-name="two.ss10" horiz-adv-x="1957" 
d="M49 -180v1818h1860v-1818h-1860zM352 92h1254v1274h-1254v-1274zM930 494h424v-230h-752l6 105q15 256 277 389l73 37q76 40 99 60q26 23 26 54q0 80 -86 80q-106 0 -108 -125h-266q39 353 374 353q164 0 263 -78q98 -77 98 -207q0 -115 -64 -188q-63 -72 -217 -146
l-43 -20q-83 -40 -104 -84z" />
    <glyph glyph-name="three.ss10" horiz-adv-x="1957" 
d="M49 -180v1818h1860v-1818h-1860zM352 92h1254v1274h-1254v-1274zM993 246q-203 0 -306 95q-101 93 -99 275h262q0 -80 30 -111q30 -32 103 -32q51 0 80 23t29 59q0 92 -115 92h-78v197h80q59 0 82 17q24 18 24 65q0 73 -98 73q-58 0 -83 -22q-26 -23 -32 -82h-262
q15 322 379 322q169 0 263 -72q96 -73 96 -195q0 -115 -115 -188q139 -66 139 -217q0 -135 -102 -217q-101 -82 -277 -82z" />
    <glyph glyph-name="four.ss10" horiz-adv-x="1957" 
d="M49 -180v1818h1860v-1818h-1860zM352 92h1254v1274h-1254v-1274zM1260 264h-273v178h-405v260l399 494h279v-534h106v-220h-106v-178zM991 662v256l-209 -256h209z" />
    <glyph glyph-name="five.ss10" horiz-adv-x="1957" 
d="M49 -180v1818h1860v-1818h-1860zM352 92h1254v1274h-1254v-1274zM981 459q78 -6 110 57q32 64 0 127t-110 57q-79 0 -109 -59h-249l88 555h608v-227h-397l-21 -107q55 27 129 27q160 0 247 -87t87 -222q0 -151 -107 -243q-106 -91 -276 -91q-157 0 -261 81
q-105 82 -112 222h258q7 -42 40 -67q30 -23 75 -23z" />
    <glyph glyph-name="six.ss10" horiz-adv-x="1957" 
d="M49 -180v1818h1860v-1818h-1860zM352 92h1254v1274h-1254v-1274zM752 315q-160 115 -160 410q0 244 103 368t296 124q155 0 249 -72q96 -73 114 -205h-254q-23 74 -111 74q-67 0 -100 -39q-32 -38 -43 -146q72 60 192 60q158 0 244 -92t86 -217q0 -152 -104 -243
t-275 -91q-143 0 -237 69zM1077 657q-34 31 -88 31q-56 0 -86 -33q-33 -33 -33 -82q0 -48 33 -81q30 -33 86 -33q55 0 88 33q33 30 33 81t-33 84z" />
    <glyph glyph-name="seven.ss10" horiz-adv-x="1957" 
d="M49 -180v1818h1860v-1818h-1860zM352 92h1254v1274h-1254v-1274zM1071 264h-295q4 402 273 705h-410v227h680v-219q-128 -134 -189 -295q-59 -156 -59 -418z" />
    <glyph glyph-name="eight.ss10" horiz-adv-x="1957" 
d="M49 -180v1818h1860v-1818h-1860zM352 92h1254v1274h-1254v-1274zM582 539q0 154 137 217q-98 67 -98 192q0 128 94 198q95 71 262 71q169 0 264 -71q94 -70 94 -198q0 -125 -98 -192q139 -61 139 -217q0 -134 -107 -213q-109 -80 -292 -80q-182 0 -289 80
q-106 79 -106 213zM1087 928q0 90 -110 90q-111 0 -111 -90t111 -90q110 0 110 90zM977 457q129 0 129 100q0 107 -129 107q-125 0 -125 -107q0 -100 125 -100z" />
    <glyph glyph-name="nine.ss10" horiz-adv-x="1957" 
d="M49 -180v1818h1860v-1818h-1860zM352 92h1254v1274h-1254v-1274zM920 569q-157 0 -244 93q-86 92 -86 217q0 151 105 243q106 92 274 92q137 0 237 -75q162 -113 162 -406q0 -242 -104 -365q-105 -124 -297 -124q-155 0 -249 70q-96 72 -114 204h256q22 -72 109 -72
q67 0 100 39q32 38 43 146q-73 -62 -192 -62zM1057 967q-32 32 -88 32q-57 0 -86 -32q-33 -33 -33 -82t33 -82q30 -33 86 -33q55 0 88 33q30 33 30 82t-30 82z" />
    <glyph glyph-name="zero.zero" horiz-adv-x="1433" 
d="M229 1294q167 197 488 197q319 0 489 -197q166 -200 166 -565q0 -367 -166 -563q-169 -199 -489 -199q-321 0 -488 199q-168 195 -168 563q0 367 168 565zM717 1157q-119 0 -174 -99q-56 -100 -56 -329q0 -76 11 -172l372 530q-56 70 -153 70zM717 301q119 0 174 98
t55 330q0 89 -10 176l-373 -534q52 -70 154 -70z" />
    <glyph glyph-name="zero.dnom" horiz-adv-x="827" 
d="M786 422q0 -440 -372 -440q-373 0 -373 440q0 442 373 442q372 0 372 -442zM414 188q58 0 86 52q26 49 26 182q0 135 -26 184q-27 51 -86 51q-61 0 -88 -51t-27 -184q0 -131 27 -182q28 -52 88 -52z" />
    <glyph glyph-name="one.dnom" horiz-adv-x="509" 
d="M264 846h195v-846h-248v516h-180v172q183 0 233 158z" />
    <glyph glyph-name="two.dnom" horiz-adv-x="749" 
d="M463 303l-39 -18q-79 -40 -94 -78h385v-207h-684l6 94q17 243 252 355l67 32q62 29 88 54q25 23 25 51q0 71 -78 71q-97 0 -98 -112h-242q34 319 340 319q151 0 239 -70q89 -71 89 -188q0 -106 -57 -171q-56 -64 -199 -132z" />
    <glyph glyph-name="three.dnom" horiz-adv-x="765" 
d="M616 453q129 -61 129 -199q0 -123 -93 -198q-92 -74 -253 -74q-368 0 -368 337h239q0 -73 27 -102t94 -29q98 0 98 76q0 84 -104 84h-70v178h72q50 0 74 16q22 15 22 58q0 68 -88 68q-52 0 -76 -21q-23 -20 -28 -74h-240q12 291 346 291q155 0 240 -64q86 -65 86 -177
q0 -107 -107 -170z" />
    <glyph glyph-name="four.dnom" horiz-adv-x="796" 
d="M668 360h98v-198h-98v-162h-248v162h-369v235l365 449h252v-486zM424 360v234l-188 -234h188z" />
    <glyph glyph-name="five.dnom" horiz-adv-x="737" 
d="M414 567q145 0 224 -79t79 -201q0 -140 -97 -222q-98 -83 -251 -83q-150 0 -240 74q-93 76 -100 202h235q16 -82 105 -82q51 0 82 31q30 30 30 80q0 49 -30 79q-29 29 -82 29q-70 0 -99 -53h-229l82 504h553v-207h-361l-18 -96q49 24 117 24z" />
    <glyph glyph-name="six.dnom" horiz-adv-x="757" 
d="M438 567q140 0 219 -81q80 -82 80 -199q0 -139 -95 -222t-249 -83q-129 0 -217 63q-145 105 -145 373q0 222 94 334t270 112q141 0 226 -64q86 -65 104 -186h-231q-22 66 -101 66q-63 0 -93 -36q-31 -37 -38 -132q67 55 176 55zM315 207q29 -31 78 -31t80 31q29 29 29 74
q0 44 -29 75q-31 29 -80 29t-78 -29q-30 -30 -30 -75t30 -74z" />
    <glyph glyph-name="seven.dnom" horiz-adv-x="679" 
d="M31 639v207h618v-199q-120 -127 -172 -268q-53 -145 -53 -379h-268q5 365 247 639h-372z" />
    <glyph glyph-name="eight.dnom" horiz-adv-x="784" 
d="M627 446q127 -55 127 -198q0 -122 -99 -194t-264 -72t-263 72q-97 72 -97 194q0 143 127 198q-90 60 -90 175q0 114 86 180q83 63 237 63q156 0 241 -64t85 -179t-90 -175zM492 602q0 82 -101 82q-100 0 -100 -82t100 -82q101 0 101 82zM391 174q117 0 117 92
q0 96 -117 96q-115 0 -115 -96q0 -92 115 -92z" />
    <glyph glyph-name="nine.dnom" horiz-adv-x="757" 
d="M582 797q145 -105 145 -369q0 -222 -94 -334t-271 -112q-140 0 -225 64q-86 65 -104 185h231q22 -65 101 -65q63 0 93 36q31 37 38 132q-67 -55 -177 -55q-140 0 -219 79q-80 80 -80 201q0 138 96 222q95 83 249 83q123 0 217 -67zM287 492q29 -31 78 -31q48 0 79 31
q29 29 29 73q0 45 -29 76q-31 29 -79 29q-49 0 -78 -29q-31 -31 -31 -76q0 -44 31 -73z" />
    <glyph glyph-name="zero.numr" horiz-adv-x="827" 
d="M786 1034q0 -440 -372 -440q-373 0 -373 440q0 443 373 443q372 0 372 -443zM414 801q59 0 86 51q26 49 26 182q0 136 -26 185q-27 51 -86 51q-61 0 -88 -51t-27 -185q0 -131 27 -182t88 -51z" />
    <glyph glyph-name="one.numr" horiz-adv-x="509" 
d="M264 1458h195v-846h-248v516h-180v172q183 0 233 158z" />
    <glyph glyph-name="two.numr" horiz-adv-x="749" 
d="M463 915l-39 -18q-79 -40 -94 -78h385v-207h-684l6 95q17 241 252 354l67 33q64 30 88 53q25 23 25 51q0 72 -78 72q-96 0 -98 -113h-242q35 320 340 320q150 0 239 -71t89 -187q0 -107 -57 -171q-58 -65 -199 -133z" />
    <glyph glyph-name="three.numr" horiz-adv-x="765" 
d="M616 1065q129 -61 129 -199q0 -122 -93 -197t-253 -75q-368 0 -368 338h239q0 -74 27 -103q27 -28 94 -28q98 0 98 76q0 84 -104 84h-70v178h72q51 0 74 15q22 15 22 58q0 68 -88 68q-53 0 -76 -20t-28 -74h-240q12 291 346 291q154 0 240 -65t86 -177q0 -107 -107 -170z
" />
    <glyph glyph-name="four.numr" horiz-adv-x="796" 
d="M668 973h98v-199h-98v-162h-248v162h-369v236l365 448h252v-485zM424 973v233l-188 -233h188z" />
    <glyph glyph-name="five.numr" horiz-adv-x="737" 
d="M414 1180q145 0 224 -79t79 -202q0 -140 -97 -222q-98 -83 -251 -83q-143 0 -238 75t-102 201h235q6 -36 35 -59t70 -23q51 0 82 31q30 30 30 80q0 49 -30 79t-82 30q-70 0 -99 -54h-229l82 504h553v-207h-361l-18 -96q52 25 117 25z" />
    <glyph glyph-name="six.numr" horiz-adv-x="757" 
d="M438 1180q139 0 219 -80t80 -201q0 -139 -95 -222t-249 -83q-129 0 -217 63q-145 105 -145 373q0 222 94 334q95 113 270 113q140 0 226 -65t104 -185h-231q-22 65 -101 65q-63 0 -93 -36q-31 -37 -38 -132q68 56 176 56zM315 819q29 -31 78 -31t80 31q29 29 29 74
t-29 76q-29 28 -80 28q-50 0 -78 -28q-30 -30 -30 -76q0 -45 30 -74z" />
    <glyph glyph-name="seven.numr" horiz-adv-x="679" 
d="M31 1251v207h618v-198q-120 -126 -172 -269q-53 -145 -53 -379h-268q5 365 247 639h-372z" />
    <glyph glyph-name="eight.numr" horiz-adv-x="784" 
d="M627 1059q127 -55 127 -199q0 -121 -99 -193q-100 -73 -264 -73t-263 73q-97 72 -97 193q0 144 127 199q-90 60 -90 174t86 180q84 64 237 64q155 0 241 -65q85 -64 85 -179q0 -114 -90 -174zM492 1214q0 82 -101 82q-100 0 -100 -82q0 -81 100 -81q101 0 101 81z
M391 786q117 0 117 93q0 96 -117 96q-115 0 -115 -96q0 -93 115 -93z" />
    <glyph glyph-name="nine.numr" horiz-adv-x="757" 
d="M582 1409q145 -105 145 -369q0 -221 -94 -333q-95 -113 -271 -113q-140 0 -225 64q-86 65 -104 186h231q23 -66 101 -66q63 0 93 36q31 37 38 132q-67 -55 -177 -55q-139 0 -219 81q-80 82 -80 199q0 139 96 223q95 83 249 83q122 0 217 -68zM287 1104q29 -31 78 -31
q48 0 79 31q29 29 29 74q0 44 -29 75q-31 29 -79 29q-49 0 -78 -29q-31 -31 -31 -75q0 -45 31 -74z" />
    <glyph glyph-name="zero.tf" horiz-adv-x="1433" 
d="M1206 166q-169 -199 -489 -199q-321 0 -488 199q-168 195 -168 563q0 367 168 565q167 197 488 197q319 0 489 -197q166 -200 166 -565q0 -367 -166 -563zM717 301q119 0 174 98t55 330q0 231 -55 329q-55 99 -174 99q-112 0 -172 -96q-58 -98 -58 -332t58 -330
q56 -98 172 -98z" />
    <glyph glyph-name="one.tf" horiz-adv-x="1433" 
d="M977 1458v-1132h301v-326h-1065v326h354v522h-344v272l33 2q166 10 262 87q97 77 137 249h322z" />
    <glyph glyph-name="two.tf" horiz-adv-x="1433" 
d="M580 334h725v-334h-1186l8 147q11 161 51 269q27 76 76 137q113 138 344 221l88 31q112 39 159 84q46 45 46 117q0 151 -174 151q-97 0 -142 -50q-45 -49 -45 -155h-389q-2 254 146 397q146 142 440 142q269 0 420 -123q149 -124 149 -319q0 -202 -108 -316
q-113 -116 -344 -211l-119 -49q-81 -34 -110 -62q-30 -29 -35 -77z" />
    <glyph glyph-name="three.tf" horiz-adv-x="1433" 
d="M1092 778q120 -34 191 -128t71 -220q0 -205 -162 -334q-164 -129 -455 -129q-323 0 -491 148q-166 147 -166 422h389q2 -128 62 -182t190 -54q101 0 159 41q56 40 56 111q0 88 -56 125q-55 36 -171 36h-111v281h121q104 0 155 33q52 34 52 114q0 61 -53 99
q-52 37 -144 37q-108 0 -158 -40q-51 -41 -57 -130h-389q18 483 608 483q268 0 423 -110t155 -296q0 -99 -60 -181q-61 -83 -159 -126z" />
    <glyph glyph-name="four.tf" horiz-adv-x="1433" 
d="M1169 633h183v-334h-183v-299h-411v299h-664v385l621 774h454v-825zM772 633v438l-350 -438h350z" />
    <glyph glyph-name="five.tf" horiz-adv-x="1433" 
d="M811 967q250 0 379 -140q129 -141 129 -335q0 -243 -170 -383q-171 -142 -426 -142q-239 0 -406 123q-165 122 -186 340h381q18 -72 74 -113t137 -41q101 0 159 60q58 59 58 156q0 96 -58 155q-58 60 -159 60q-142 0 -199 -111h-377l152 862h958v-334h-649l-49 -231
q112 74 252 74z" />
    <glyph glyph-name="six.tf" horiz-adv-x="1433" 
d="M831 967q237 0 367 -142q127 -143 127 -333q0 -246 -168 -383q-171 -142 -424 -142q-224 0 -375 107q-249 174 -249 614q0 393 160 598t468 205q238 0 388 -111q152 -113 182 -311h-369q-30 135 -197 135q-127 0 -188 -85q-62 -86 -74 -294q119 142 352 142zM578 336
q60 -60 155 -60q96 0 156 60q57 57 57 145q0 91 -57 148t-156 57q-98 0 -155 -57q-58 -58 -58 -148q0 -87 58 -145z" />
    <glyph glyph-name="seven.tf" horiz-adv-x="1433" 
d="M154 1124v334h1124v-332q-240 -208 -348 -456q-106 -247 -111 -670h-420q4 333 138 635q130 297 346 489h-729z" />
    <glyph glyph-name="eight.tf" horiz-adv-x="1433" 
d="M1094 764q233 -88 233 -350q0 -198 -166 -322q-164 -125 -459 -125q-294 0 -458 125q-166 124 -166 322q0 262 233 350q-172 108 -172 317q0 187 152 298q153 112 411 112q259 0 412 -112q152 -111 152 -298q0 -209 -172 -317zM854 1169q-50 43 -152 43q-101 0 -151 -43
q-53 -47 -53 -122t53 -119q52 -43 151 -43q100 0 152 43q53 44 53 119t-53 122zM532 322q56 -50 170 -50q111 0 172 50q56 47 56 131q0 86 -59 133t-169 47q-109 0 -168 -47t-59 -133t57 -131z" />
    <glyph glyph-name="nine.tf" horiz-adv-x="1433" 
d="M1069 1384q250 -175 250 -614q0 -390 -157 -597q-156 -206 -462 -206q-241 0 -394 111q-152 110 -185 311h368q30 -135 207 -135q126 0 184 87q57 85 68 292q-117 -141 -352 -141q-241 0 -365 141q-129 141 -129 334q0 244 168 385q169 139 424 139q224 0 375 -107z
M539 831q59 -59 155 -59q97 0 156 59q57 57 57 146q0 90 -57 147q-58 58 -156 58q-97 0 -155 -58t-58 -147q0 -88 58 -146z" />
    <glyph glyph-name="zero.tf.zero" horiz-adv-x="1433" 
d="M229 1294q167 197 488 197q319 0 489 -197q166 -200 166 -565q0 -367 -166 -563q-169 -199 -489 -199q-321 0 -488 199q-168 195 -168 563q0 367 168 565zM717 1157q-119 0 -174 -99q-56 -100 -56 -329q0 -76 11 -172l372 530q-56 70 -153 70zM717 301q119 0 174 98
t55 330q0 89 -10 176l-373 -534q52 -70 154 -70z" />
    <glyph glyph-name="period.ss01" horiz-adv-x="585" 
d="M295 -25q-95 0 -165 67q-69 66 -69 163q0 94 69 160q68 65 165 65q96 0 162 -65q67 -66 67 -160q0 -97 -67 -163q-69 -67 -162 -67z" />
    <glyph glyph-name="comma.ss01" horiz-adv-x="593" 
d="M279 432q126 0 195 -87t69 -232q0 -458 -416 -482l-35 -2v199l35 2q75 5 110 40q35 36 46 112q-101 0 -166 61q-66 61 -66 160q0 100 65 165q64 64 163 64z" />
    <glyph glyph-name="colon.ss01" horiz-adv-x="585" 
d="M295 553q-95 0 -165 67q-69 66 -69 162q0 94 69 160t165 66q95 0 162 -66t67 -160q0 -96 -67 -162q-69 -67 -162 -67zM295 -25q-95 0 -165 67q-69 66 -69 163q0 94 69 160q68 65 165 65q96 0 162 -65q67 -66 67 -160q0 -97 -67 -163q-69 -67 -162 -67z" />
    <glyph glyph-name="semicolon.ss01" horiz-adv-x="614" 
d="M319 555q-94 0 -164 67q-69 66 -69 162q0 94 69 160t164 66t162 -66q68 -66 68 -160q0 -96 -68 -162q-69 -67 -162 -67zM289 432q126 0 195 -87t69 -232q0 -458 -416 -482l-35 -2v199l35 2q75 5 110 40q35 36 46 112q-101 0 -166 61q-66 61 -66 160q0 101 66 165
q65 64 162 64z" />
    <glyph glyph-name="ellipsis.ss01" horiz-adv-x="1722" 
d="M295 -25q-95 0 -165 67q-69 66 -69 163q0 94 69 160q68 65 165 65q96 0 162 -65q67 -66 67 -160q0 -97 -67 -163q-69 -67 -162 -67zM868 -25q-95 0 -165 67q-68 65 -68 163q0 95 68 160t165 65q96 0 162 -65q68 -66 68 -160q0 -97 -68 -163q-69 -67 -162 -67zM1432 -25
q-95 0 -165 67q-69 66 -69 163q0 94 69 160q68 65 165 65q95 0 161 -65q68 -66 68 -160q0 -97 -68 -163q-69 -67 -161 -67z" />
    </font>
</defs>
</svg>
