<?xml version="1.0" standalone="no"?>
<!DOCTYPE svg PUBLIC "-//W3C//DTD SVG 1.1//EN" "http://www.w3.org/Graphics/SVG/1.1/DTD/svg11.dtd" >
<svg xmlns="http://www.w3.org/2000/svg" xmlns:xlink="http://www.w3.org/1999/xlink" version="1.1">
<metadata>
Created by FontForge 20170731 at Sat Jul 31 16:37:43 2021
 By Aleksey,,,
Copyright (c) 2019 Monotype Imaging Inc. All rights reserved.
</metadata>
<defs>
<font id="HelveticaNowDisplay-ExtLt" horiz-adv-x="0" >
  <font-face 
    font-family="HelveticaNowDisplay ExtraLight"
    font-weight="300"
    font-stretch="normal"
    units-per-em="2048"
    panose-1="2 11 3 4 3 2 2 2 2 4"
    ascent="1792"
    descent="-256"
    x-height="1057"
    cap-height="1458"
    bbox="-713 -623 2298 2103"
    underline-thickness="102"
    underline-position="-614"
    unicode-range="U+000D-FEFF"
  />
<missing-glyph horiz-adv-x="1245" 
d="M1112 0h-979v1458h979v-1458zM221 1378v-1298h803v1298h-803z" />
    <glyph glyph-name="fi" unicode="fi" horiz-adv-x="886" 
d="M207 1057v153q0 252 254 252q25 0 84 -4v-72q-3 0 -8.5 0.5t-15.5 1t-18 0.5q-21 1 -38 1q-174 0 -174 -177v-155h244v-74h-244v-983h-84v983h-182v74h182zM678 1217v186h88v-186h-88zM764 0h-84v1057h84v-1057z" />
    <glyph glyph-name="fl" unicode="fl" horiz-adv-x="878" 
d="M207 1057v153q0 252 254 252q25 0 84 -4v-72q-3 0 -8.5 0.5t-15.5 1t-18 0.5q-21 1 -38 1q-174 0 -174 -177v-155h244v-74h-244v-983h-84v983h-182v74h182zM672 0v1458h84v-1458h-84z" />
    <glyph glyph-name=".notdef" horiz-adv-x="1245" 
d="M1112 0h-979v1458h979v-1458zM221 1378v-1298h803v1298h-803z" />
    <glyph glyph-name=".null" 
 />
    <glyph glyph-name="nonmarkingreturn" horiz-adv-x="681" 
 />
    <glyph glyph-name="NULL" 
 />
    <glyph glyph-name="NULL" 
 />
    <glyph glyph-name="CR" unicode="&#xd;" horiz-adv-x="458" 
 />
    <glyph glyph-name="space" unicode=" " horiz-adv-x="458" 
 />
    <glyph glyph-name="exclam" unicode="!" horiz-adv-x="315" 
d="M186 371h-57l-14 684v403h88v-403zM223 0h-131v129h131v-129z" />
    <glyph glyph-name="quotedbl" unicode="&#x22;" horiz-adv-x="679" 
d="M209 1018h-64l-12 440h88zM535 1018h-64l-12 440h88z" />
    <glyph glyph-name="numbersign" unicode="#" horiz-adv-x="1228" 
d="M1167 979l-14 -72h-242l-71 -356h241l-14 -72h-242l-98 -479h-84l98 479h-352l-98 -479h-84l98 479h-244l15 72h243l72 356h-244l15 72h244l98 479h84l-99 -479h353l98 479h84l-98 -479h241zM403 551h353l71 356h-352z" />
    <glyph glyph-name="dollar" unicode="$" horiz-adv-x="1230" 
d="M1174 375q0 -185 -135 -296t-377 -112v-205h-76v207q-494 21 -518 455h90q22 -354 428 -375v668l-45 8q-217 43 -321 138q-103 94 -103 259q0 167 125 266q124 98 344 103v205h76v-207q227 -12 346 -122q117 -109 122 -288h-90q-17 309 -378 330v-623l69 -12
q240 -50 341 -143q102 -95 102 -256zM580 803l6 -2v610q-183 -4 -281 -82q-98 -77 -98 -207q0 -131 84 -203q85 -73 289 -116zM662 702v-655q202 1 312 90q109 88 109 238q0 128 -89 205q-87 75 -300 116z" />
    <glyph glyph-name="percent" unicode="%" horiz-adv-x="1595" 
d="M578 715q-78 -121 -230 -121t-229 119q-78 122 -78 321q0 210 79 326q80 117 228 117q150 0 229 -118q78 -116 78 -325q0 -199 -77 -319zM449 0h-80l778 1458h80zM178 760q57 -101 170 -101t170 101q57 100 57 274q0 180 -58 278q-58 99 -169 99q-113 0 -170 -100
q-57 -101 -57 -277q0 -174 57 -274zM1249 -18q-151 0 -230 116t-79 324q0 210 79 326t230 116q150 0 228 -118q77 -117 77 -324q0 -209 -77 -324q-77 -116 -228 -116zM1079 147q57 -100 170 -100t170 100q58 102 58 275q0 177 -59 277t-169 100q-113 0 -170 -101
q-59 -100 -59 -276q0 -175 59 -275z" />
    <glyph glyph-name="ampersand" unicode="&#x26;" horiz-adv-x="1294" 
d="M1026 268l244 -268h-113l-180 197q-174 -230 -467 -230q-191 0 -311 115q-119 113 -119 272q0 142 81 241q83 101 265 208q-110 122 -154 204q-43 80 -43 177q0 129 88 217q90 90 240 90q135 0 229 -84q93 -87 93 -209q0 -120 -79 -214q-82 -98 -251 -196l418 -456
q73 135 88 295h84q-22 -202 -113 -359zM557 1415q-109 0 -174 -65q-66 -66 -66 -166q0 -82 40 -153q41 -73 141 -185q161 96 226 171q67 78 67 179q0 88 -68 154q-66 65 -166 65zM514 47q258 0 408 211l-445 487q-167 -95 -238 -180t-71 -207q0 -128 96 -219q97 -92 250 -92
z" />
    <glyph glyph-name="quotesingle" unicode="'" horiz-adv-x="354" 
d="M209 1018h-64l-12 440h88z" />
    <glyph glyph-name="parenleft" unicode="(" horiz-adv-x="483" 
d="M457 -401h-80q-262 427 -262 1001q0 571 262 1002h80q-138 -248 -193 -472q-59 -237 -59 -530q0 -295 59 -532q56 -224 193 -469z" />
    <glyph glyph-name="parenright" unicode=")" horiz-adv-x="483" 
d="M106 -401h-79q137 238 194 469q60 242 60 532q0 292 -60 533q-57 231 -194 469h79q263 -433 263 -1002q0 -573 -263 -1001z" />
    <glyph glyph-name="asterisk" unicode="*" horiz-adv-x="964" 
d="M481 987l-227 -305l-53 43l229 307l-348 109l22 63l345 -106v360h67v-360l344 106l23 -63l-351 -109l230 -307l-53 -43z" />
    <glyph glyph-name="plus" unicode="+" horiz-adv-x="1056" 
d="M569 766h383v-76h-383v-381h-82v381h-383v76h383v383h82v-383z" />
    <glyph glyph-name="comma" unicode="," horiz-adv-x="321" 
d="M98 0v129h131v-184q0 -175 -120 -215l-17 -6v63l10 4q66 29 66 148v61h-70z" />
    <glyph glyph-name="hyphen" unicode="-" horiz-adv-x="753" 
d="M649 541h-545v75h545v-75z" />
    <glyph glyph-name="period" unicode="." horiz-adv-x="315" 
d="M223 0h-131v129h131v-129z" />
    <glyph glyph-name="slash" unicode="/" horiz-adv-x="655" 
d="M109 0h-84l522 1458h84z" />
    <glyph glyph-name="zero" unicode="0" horiz-adv-x="1218" 
d="M987 168q-127 -201 -377 -201q-246 0 -374 201q-127 200 -127 561t127 561q128 201 374 201q250 0 377 -201q125 -199 125 -561t-125 -561zM610 47q200 0 305 177t105 505t-105 505t-305 177q-202 0 -307 -177q-104 -175 -104 -505t104 -505q105 -177 307 -177z" />
    <glyph glyph-name="one" unicode="1" horiz-adv-x="694" 
d="M483 1458h78v-1458h-88v1303q-145 -151 -393 -166v71q136 7 244 73q106 65 159 177z" />
    <glyph glyph-name="two" unicode="2" horiz-adv-x="1105" 
d="M195 80h837v-80h-932l2 43q6 353 377 559l162 90q146 80 212 171q67 93 67 216q0 137 -95 234q-95 98 -270 98q-171 0 -270 -96q-98 -95 -103 -256h-88q1 184 125 309q121 123 336 123q214 0 336 -119q121 -121 121 -293q0 -277 -316 -450l-149 -84q-181 -101 -263 -210
q-83 -110 -89 -255z" />
    <glyph glyph-name="three" unicode="3" horiz-adv-x="1140" 
d="M766 782q138 -45 221 -144q82 -98 82 -245q0 -197 -135 -309q-135 -117 -356 -117q-227 0 -360 116q-132 115 -132 312h86q1 -163 111 -256q109 -92 295 -92q180 0 290 94q111 95 111 252q0 163 -112 255q-110 91 -302 91h-92v76h88q167 0 265 81t98 218q0 135 -98 216
t-257 81q-154 0 -254 -83q-97 -81 -102 -228h-86q0 178 123 284q119 107 319 107q203 0 323 -101q122 -102 122 -274q0 -245 -248 -334z" />
    <glyph glyph-name="four" unicode="4" horiz-adv-x="1173" 
d="M913 489h226v-79h-226v-410h-88v410h-774v84l764 964h98v-969zM825 489v859l-678 -859h678z" />
    <glyph glyph-name="five" unicode="5" horiz-adv-x="1142" 
d="M594 932q215 0 344 -135q129 -139 129 -348q0 -211 -131 -345q-131 -137 -346 -137q-195 0 -330 115q-128 112 -151 297h88q21 -150 128 -241t265 -91q171 0 278 113q109 115 109 289q0 175 -109 290q-107 113 -278 113q-266 0 -367 -221h-82l131 827h717v-80h-645
l-98 -604q129 158 348 158z" />
    <glyph glyph-name="six" unicode="6" horiz-adv-x="1200" 
d="M629 932q211 0 344 -135q131 -137 131 -348t-131 -345q-131 -137 -346 -137q-181 0 -308 105q-210 173 -210 645q0 357 131 565q134 209 399 209q177 0 295 -100q119 -101 149 -271h-86q-28 134 -124 213q-95 78 -234 78q-442 0 -442 -692q0 -63 6 -123q33 148 153 242
q113 94 273 94zM627 47q169 0 276 113q109 115 109 289q0 175 -109 290q-107 113 -276 113q-172 0 -279 -113q-108 -114 -108 -290q0 -175 108 -289q107 -113 279 -113z" />
    <glyph glyph-name="seven" unicode="7" horiz-adv-x="1009" 
d="M47 1378v80h916v-74q-570 -582 -594 -1384h-90q23 797 581 1378h-813z" />
    <glyph glyph-name="eight" unicode="8" horiz-adv-x="1177" 
d="M782 780q154 -41 239 -142t85 -245q0 -193 -140 -309q-141 -117 -378 -117q-238 0 -377 117t-139 309q0 144 85 245q85 102 236 142q-124 39 -195 125t-71 207q0 175 129 277q131 102 332 102q204 0 334 -102q127 -102 127 -277q0 -122 -71 -208q-70 -84 -196 -124z
M215 1112q0 -135 103 -216q104 -81 270 -81q168 0 271 81q104 81 104 216q0 137 -104 218q-103 81 -271 81q-169 0 -271 -81t-102 -218zM588 47q201 0 313 93q113 93 113 253q0 159 -114 254q-113 94 -312 94q-200 0 -312 -94t-112 -254t112 -253t312 -93z" />
    <glyph glyph-name="nine" unicode="9" horiz-adv-x="1200" 
d="M881 1380q213 -175 213 -647q0 -353 -129 -561q-129 -211 -387 -211q-186 0 -307 100t-154 269h88q29 -135 127 -213q99 -78 246 -78q212 0 320 181q108 182 108 513q0 56 -7 123q-33 -148 -153 -242q-118 -94 -275 -94q-213 0 -342 137q-131 134 -131 344q0 212 131 349
q130 135 344 135q181 0 308 -105zM573 600q172 0 279 113q109 115 109 288q0 176 -109 291q-107 113 -279 113q-169 0 -276 -113q-109 -115 -109 -291q0 -173 109 -288q107 -113 276 -113z" />
    <glyph glyph-name="colon" unicode=":" horiz-adv-x="315" 
d="M223 874h-131v130h131v-130zM223 0h-131v129h131v-129z" />
    <glyph glyph-name="semicolon" unicode=";" horiz-adv-x="321" 
d="M92 1004h131v-130h-131v130zM98 0v129h131v-184q0 -175 -120 -215l-17 -6v63l10 4q66 29 66 148v61h-70z" />
    <glyph glyph-name="less" unicode="&#x3c;" horiz-adv-x="1056" 
d="M952 1184v-92l-329 -158q-1 0 -8 -3.5t-22.5 -11t-32.5 -15.5t-69.5 -33t-89.5 -42q-28 -13 -100.5 -47t-114.5 -53q45 -21 56 -26q5 -2 35 -16t51 -23q82 -37 90 -41q39 -18 112 -53t93 -44l329 -159v-91l-848 408v90z" />
    <glyph glyph-name="equal" unicode="=" horiz-adv-x="1056" 
d="M952 856h-848v78h848v-78zM952 524h-848v78h848v-78z" />
    <glyph glyph-name="greater" unicode="&#x3e;" horiz-adv-x="1056" 
d="M104 1092v92l848 -410v-90l-848 -408v91l332 159l434 203q-111 53 -209.5 99.5t-157 74t-67.5 31.5z" />
    <glyph glyph-name="question" unicode="?" horiz-adv-x="1003" 
d="M518 371h-84q0 151 37 235q40 89 178 209q75 64 101 90q25 25 65 99q33 60 33 129q0 130 -83 204t-245 74q-356 0 -377 -362h-86q7 220 128 331q120 111 333 111q201 0 310 -94q110 -95 110 -264q0 -183 -201 -349q-94 -79 -135 -129q-34 -40 -51 -77q-33 -68 -33 -207z
M543 0h-131v129h131v-129z" />
    <glyph glyph-name="at" unicode="@" horiz-adv-x="1871" 
d="M936 1491q388 0 623 -223t235 -551q0 -235 -96 -385q-100 -148 -256 -148q-204 0 -225 209q-84 -219 -308 -219q-163 0 -264 123q-100 122 -100 332q0 207 100 329q101 123 264 123q211 0 295 -200v180h82v-592q0 -211 158 -211q115 0 192 125q78 127 78 332
q0 297 -211 502q-212 202 -567 202q-337 0 -557 -223q-221 -226 -221 -567q0 -353 219 -576q218 -221 565 -221q208 0 379 68v-72q-175 -70 -381 -70q-382 0 -623 244q-239 242 -239 627q0 369 244 618q244 244 614 244zM918 246q132 0 210 102t78 281q0 178 -78 280
q-79 103 -210 103q-132 0 -211 -105q-80 -106 -80 -278q0 -173 80 -279q79 -104 211 -104z" />
    <glyph glyph-name="A" unicode="A" horiz-adv-x="1339" 
d="M1315 0h-94l-185 451h-735l-184 -451h-92l593 1458h99zM498 934l-166 -406h672l-166 406q-44 106 -170 432q-126 -326 -170 -432z" />
    <glyph glyph-name="B" unicode="B" horiz-adv-x="1253" 
d="M918 758q141 -38 216 -132q74 -93 74 -231q0 -185 -122 -290t-336 -105h-617v1458h592q205 0 315 -101q111 -102 111 -265q0 -117 -60 -204q-59 -86 -173 -130zM719 1378h-498v-587h498q173 0 259 79q87 80 87 220q0 128 -89 208t-257 80zM221 80h527q174 0 273 84
t99 231q0 152 -97 234t-278 82h-524v-631z" />
    <glyph glyph-name="C" unicode="C" horiz-adv-x="1413" 
d="M727 -33q-297 0 -473 209q-176 212 -176 553t176 553q176 209 473 209q236 0 397 -140t205 -384h-88q-40 210 -177 327q-136 117 -337 117q-258 0 -408 -186q-151 -188 -151 -496q0 -305 151 -493q151 -189 408 -189q207 0 352 131q143 129 170 357h88
q-29 -264 -194 -414q-169 -154 -416 -154z" />
    <glyph glyph-name="D" unicode="D" horiz-adv-x="1363" 
d="M133 1458h440q341 0 529 -194q184 -194 184 -535q0 -344 -189 -536q-190 -193 -540 -193h-424v1458zM221 80h336q313 0 475 171t162 478q0 309 -159 479t-464 170h-350v-1298z" />
    <glyph glyph-name="E" unicode="E" horiz-adv-x="1163" 
d="M221 723v-643h881v-80h-969v1458h961v-80h-873v-575h791v-80h-791z" />
    <glyph glyph-name="F" unicode="F" horiz-adv-x="1095" 
d="M1051 1458v-80h-830v-575h735v-80h-735v-723h-88v1458h918z" />
    <glyph glyph-name="G" unicode="G" horiz-adv-x="1492" 
d="M780 647v80h600v-727h-86l-2 326q-68 -173 -207 -266q-140 -93 -340 -93q-305 0 -485 211q-182 212 -182 551q0 341 178 553q179 209 487 209q255 0 418 -139q161 -141 201 -373h-92q-34 195 -176 314q-140 118 -351 118q-268 0 -421 -186q-154 -190 -154 -496
q0 -303 158 -493q158 -189 419 -189q255 0 402 168q145 169 145 432h-512z" />
    <glyph glyph-name="H" unicode="H" horiz-adv-x="1372" 
d="M1153 801v657h86v-1458h-86v719h-932v-719h-88v1458h88v-657h932z" />
    <glyph glyph-name="I" unicode="I" horiz-adv-x="354" 
d="M221 0h-88v1458h88v-1458z" />
    <glyph glyph-name="J" unicode="J" horiz-adv-x="1075" 
d="M844 90q-118 -123 -322 -123q-202 0 -319 123q-119 122 -119 326v86h86v-86q0 -168 95 -269q94 -100 257 -100q162 0 257 99q95 100 95 270v1042h89v-1042q0 -204 -119 -326z" />
    <glyph glyph-name="K" unicode="K" horiz-adv-x="1286" 
d="M1262 0h-109l-616 786l-316 -297v-489h-88v1458h88v-864l912 864h116l-649 -614z" />
    <glyph glyph-name="L" unicode="L" horiz-adv-x="1028" 
d="M221 1458v-1378h762v-80h-850v1458h88z" />
    <glyph glyph-name="M" unicode="M" horiz-adv-x="1697" 
d="M956 365l492 1093h117v-1458h-86v965q0 248 2 370q-8 -26 -80 -198l-512 -1137h-80l-512 1137q0 2 -9 23q-2 6 -12 30t-18 42q-10 23 -43 105q4 -164 4 -372v-965h-86v1458h117l498 -1104q31 -76 51 -127q9 -24 22.5 -55.5t14.5 -35.5q13 -33 14 -36q8 18 49 123
q42 112 57 142z" />
    <glyph glyph-name="N" unicode="N" horiz-adv-x="1374" 
d="M1153 487v971h88v-1458h-108l-717 1042q-135 205 -199 310q2 -126 2 -381v-971h-86v1458h109l716 -1042q174 -265 199 -307q-4 168 -4 378z" />
    <glyph glyph-name="O" unicode="O" horiz-adv-x="1497" 
d="M750 -33q-310 0 -490 211q-182 212 -182 551t182 551q180 211 490 211q305 0 489 -211q182 -212 182 -551q0 -337 -182 -549q-185 -213 -489 -213zM328 238q156 -191 422 -191q264 0 421 189q158 190 158 493q0 304 -158 494q-157 188 -421 188q-265 0 -422 -188
q-160 -192 -160 -494q0 -301 160 -491z" />
    <glyph glyph-name="P" unicode="P" horiz-adv-x="1243" 
d="M133 1458h584q214 0 334 -113t120 -313q0 -197 -119 -310q-120 -114 -335 -114h-496v-608h-88v1458zM221 688h496q175 0 269 90q95 90 95 254q0 163 -95 255q-94 91 -269 91h-496v-690z" />
    <glyph glyph-name="Q" unicode="Q" horiz-adv-x="1497" 
d="M1421 729q0 -369 -213 -582l197 -206l-55 -54l-199 209q-168 -129 -401 -129q-310 0 -490 211q-182 212 -182 551t182 551q180 211 490 211q305 0 489 -211q182 -212 182 -551zM750 47q201 0 342 111l-215 225l55 53l217 -227q180 192 180 520q0 304 -158 494
q-157 188 -421 188q-265 0 -422 -188q-160 -192 -160 -494q0 -301 160 -491q156 -191 422 -191z" />
    <glyph glyph-name="R" unicode="R" horiz-adv-x="1275" 
d="M1155 410l12 -240q6 -106 52 -170h-91q-42 54 -47 172l-10 207q-6 151 -81 219q-76 68 -245 68h-524v-666h-88v1458h592q218 0 340 -100q123 -100 123 -287q0 -147 -77 -241q-76 -92 -216 -119q130 -22 192 -97q62 -74 68 -204zM221 745h512q171 0 266 82q97 83 97 240
q0 151 -98 231t-273 80h-504v-633z" />
    <glyph glyph-name="S" unicode="S" horiz-adv-x="1230" 
d="M647 -33q-552 0 -579 457h90q21 -377 489 -377q211 0 324 87q112 87 112 241q0 128 -89 205q-87 75 -300 116l-153 29q-217 43 -321 138q-103 94 -103 259q0 169 130 269t357 100q258 0 390 -111t136 -301h-90q-17 332 -436 332q-190 0 -294 -78q-103 -78 -103 -211
q0 -131 84 -203q85 -73 289 -116l151 -29q240 -50 341 -143q102 -95 102 -256q0 -185 -139 -297q-138 -111 -388 -111z" />
    <glyph glyph-name="T" unicode="T" horiz-adv-x="1245" 
d="M47 1458h1151v-80h-530v-1378h-90v1378h-531v80z" />
    <glyph glyph-name="U" unicode="U" horiz-adv-x="1312" 
d="M657 -33q-256 0 -401 143q-143 142 -143 412v936h88v-936q0 -236 118 -355q119 -120 338 -120t338 120q119 121 119 355v936h86v-936q0 -270 -143 -412q-145 -143 -400 -143z" />
    <glyph glyph-name="V" unicode="V" horiz-adv-x="1271" 
d="M745 383l408 1075h92l-559 -1458h-98l-563 1458h94l411 -1075q93 -248 107 -295q36 113 108 295z" />
    <glyph glyph-name="W" unicode="W" horiz-adv-x="1974" 
d="M1546 473l314 985h90l-457 -1458h-102l-316 1036q-39 126 -88 316q-49 -190 -88 -316l-315 -1036h-103l-456 1458h90l313 -985q58 -189 107 -371q61 235 104 375l297 981h102l297 -981q49 -162 105 -375q55 207 106 371z" />
    <glyph glyph-name="X" unicode="X" horiz-adv-x="1261" 
d="M1200 1458l-518 -702l553 -756h-102l-254 346q-6 8 -107 147q-21 29 -51.5 71.5t-40.5 56.5q-33 45 -51 69q-27 -36 -59 -80q-5 -7 -37 -51t-54 -74q-44 -60 -98 -137l-258 -348h-98l553 752l-517 706h103l223 -305q74 -107 244 -336q72 101 110 152q88 120 113 155
l248 334h98z" />
    <glyph glyph-name="Y" unicode="Y" horiz-adv-x="1277" 
d="M885 1071l268 387h100l-571 -827v-631h-88v631l-569 827h100l270 -389q78 -117 133 -199q75 -112 111 -163q37 57 246 364z" />
    <glyph glyph-name="Z" unicode="Z" horiz-adv-x="1191" 
d="M584 80h551v-80h-1078v80l707 960q140 189 256 342q-164 -4 -424 -4h-500v80h1028v-80l-708 -960q-140 -189 -256 -342q164 4 424 4z" />
    <glyph glyph-name="bracketleft" unicode="[" horiz-adv-x="573" 
d="M526 -401h-393v2003h393v-74h-309v-1856h309v-73z" />
    <glyph glyph-name="backslash" unicode="\" horiz-adv-x="655" 
d="M631 0h-84l-522 1458h84z" />
    <glyph glyph-name="bracketright" unicode="]" horiz-adv-x="573" 
d="M440 -401h-393v73h309v1856h-309v74h393v-2003z" />
    <glyph glyph-name="asciicircum" unicode="^" horiz-adv-x="854" 
d="M381 1458h92l352 -618h-90l-205 366l-102 180q-24 -43 -104 -180l-207 -366h-88z" />
    <glyph glyph-name="underscore" unicode="_" horiz-adv-x="819" 
d="M821 -379h-823v74h823v-74z" />
    <glyph glyph-name="grave" unicode="`" horiz-adv-x="819" 
d="M569 1217h-77l-240 294h110z" />
    <glyph glyph-name="a" unicode="a" horiz-adv-x="1032" 
d="M985 68q13 0 26 1t23 1v-70q-40 -4 -63 -4q-79 0 -117 39q-37 38 -37 123v51q-108 -234 -409 -234q-164 0 -255 81q-92 81 -92 218q0 268 369 314l170 20q122 16 169 59q46 42 46 130q0 211 -295 211q-172 0 -249 -62t-83 -201h-82q4 168 105 252t309 84q189 0 282 -75
q95 -77 95 -209v-635q0 -94 88 -94zM412 47q183 0 293 100t110 289v185q-51 -59 -203 -80l-170 -23q-154 -21 -224 -78q-71 -57 -71 -164q0 -106 69 -167q70 -62 196 -62z" />
    <glyph glyph-name="b" unicode="b" horiz-adv-x="1150" 
d="M604 1081q215 0 342 -151q127 -155 127 -402q0 -248 -127 -399q-128 -154 -342 -154q-288 0 -401 267v-242h-80v1458h84v-633q114 256 397 256zM309 182q105 -131 285 -131q179 0 287 133q106 130 106 348q0 217 -106 345q-107 129 -287 129q-179 0 -285 -132
q-106 -130 -106 -346t106 -346z" />
    <glyph glyph-name="c" unicode="c" horiz-adv-x="1038" 
d="M547 -25q-215 0 -340 150q-129 150 -129 403q0 254 129 404q124 149 340 149q175 0 291 -100q117 -101 141 -264h-88q-24 129 -118 210q-92 79 -226 79q-175 0 -278 -127t-103 -351q0 -223 103 -350t278 -127q134 0 231 86q96 85 117 223h86q-22 -171 -139 -276
q-123 -109 -295 -109z" />
    <glyph glyph-name="d" unicode="d" horiz-adv-x="1150" 
d="M944 825v633h84v-1458h-80v242q-113 -267 -399 -267q-214 0 -342 154q-129 150 -129 399t129 402q127 151 342 151q135 0 237 -66t158 -190zM272 180q105 -129 285 -129t287 131q104 132 104 346t-104 346q-108 132 -287 132t-285 -132q-106 -130 -106 -350
q0 -217 106 -344z" />
    <glyph glyph-name="e" unicode="e" horiz-adv-x="1087" 
d="M1010 532v-30h-846q6 -212 108 -330q102 -119 281 -119q140 0 231 79q92 80 119 216h86q-30 -169 -147 -271t-291 -102q-218 0 -346 152q-127 151 -127 401q0 251 125 402q123 151 342 151q221 0 344 -153q121 -157 121 -396zM545 1004q-171 0 -270 -113
q-98 -112 -109 -311h756q-10 194 -110 309t-267 115z" />
    <glyph glyph-name="f" unicode="f" horiz-adv-x="589" 
d="M465 1389q-174 0 -174 -177v-155h244v-74h-244v-983h-84v983h-182v74h182v153q0 252 254 252q25 0 84 -4v-72q-3 0 -8.5 0.5t-15.5 1t-18 0.5q-21 1 -38 1z" />
    <glyph glyph-name="g" unicode="g" horiz-adv-x="1132" 
d="M930 821v236h80v-1016q0 -467 -455 -467q-181 0 -285 85q-105 85 -123 237h84q34 -250 324 -250q191 0 281 96t90 299v186q-117 -252 -389 -252q-212 0 -336 154q-123 150 -123 399t123 402q123 151 336 151q136 0 237 -67q103 -68 156 -193zM547 51q173 0 278 131
q103 135 103 346t-103 346q-106 132 -278 132q-177 0 -279 -130t-102 -348q0 -216 102 -347q102 -130 279 -130z" />
    <glyph glyph-name="h" unicode="h" horiz-adv-x="1069" 
d="M569 1081q180 0 279 -102q98 -101 98 -293v-686h-84v678q0 159 -80 244q-80 84 -227 84q-142 0 -244 -105q-103 -106 -104 -313v-588h-84v1458h84v-620q47 117 141 180t221 63z" />
    <glyph glyph-name="i" unicode="i" horiz-adv-x="329" 
d="M209 1217h-88v186h88v-186zM207 0h-84v1057h84v-1057z" />
    <glyph glyph-name="j" unicode="j" horiz-adv-x="329" 
d="M209 1217h-88v186h88v-186zM-14 -406q-42 0 -78 3v71h69q80 0 113 35t33 113v1241h84v-1247q0 -110 -53 -163t-168 -53z" />
    <glyph glyph-name="k" unicode="k" horiz-adv-x="999" 
d="M971 0h-97l-425 610l-242 -217v-393h-84v1458h84v-966l620 565h113l-430 -391z" />
    <glyph glyph-name="l" unicode="l" horiz-adv-x="329" 
d="M207 0h-84v1458h84v-1458z" />
    <glyph glyph-name="m" unicode="m" horiz-adv-x="1724" 
d="M1241 1081q174 0 267 -103q94 -105 94 -292v-686h-84v678q0 328 -285 328q-146 0 -236 -110q-91 -110 -92 -316v-580h-84v678q0 328 -286 328q-143 0 -235 -110t-93 -316v-580h-84v1057h80v-230q44 120 133 187t211 67q136 0 224 -67q90 -68 118 -191q45 123 137 191
q91 67 215 67z" />
    <glyph glyph-name="n" unicode="n" horiz-adv-x="1069" 
d="M569 1081q180 0 279 -102q98 -101 98 -293v-686h-84v678q0 159 -80 244q-80 84 -227 84q-142 0 -244 -105q-103 -106 -104 -313v-588h-84v1057h80v-230q46 120 141 187t225 67z" />
    <glyph glyph-name="o" unicode="o" horiz-adv-x="1116" 
d="M905 129q-131 -154 -348 -154q-212 0 -346 154q-133 155 -133 399q0 245 133 400q134 153 346 153q217 0 348 -153q133 -155 133 -400q0 -244 -133 -399zM557 51q180 0 287 131q106 130 106 346t-106 346q-108 132 -287 132q-177 0 -285 -132q-106 -130 -106 -346
t106 -346q107 -131 285 -131z" />
    <glyph glyph-name="p" unicode="p" horiz-adv-x="1150" 
d="M604 1081q215 0 342 -151q127 -155 127 -402q0 -248 -127 -399q-128 -154 -342 -154q-283 0 -397 256v-632h-84v1458h80v-242q113 266 401 266zM309 182q105 -131 285 -131q179 0 287 133q106 130 106 348q0 217 -106 345q-107 129 -287 129q-179 0 -285 -132
q-106 -130 -106 -346t106 -346z" />
    <glyph glyph-name="q" unicode="q" horiz-adv-x="1150" 
d="M948 815v242h80v-1458h-84v632q-55 -123 -158 -189q-104 -67 -237 -67q-214 0 -342 154q-129 150 -129 399t129 402q127 151 342 151q286 0 399 -266zM272 180q105 -129 285 -129t287 131q104 132 104 346t-104 346q-108 132 -287 132t-285 -132q-106 -130 -106 -350
q0 -217 106 -344z" />
    <glyph glyph-name="r" unicode="r" horiz-adv-x="694" 
d="M584 1069q41 0 63 -2v-80q-20 2 -57 2q-182 0 -283 -108q-100 -107 -100 -295v-586h-84v1057h80v-248q44 120 141 189q100 71 240 71z" />
    <glyph glyph-name="s" unicode="s" horiz-adv-x="958" 
d="M492 -25q-200 0 -311 93q-109 91 -120 256h86q23 -275 345 -275q321 0 321 223q0 92 -61 141t-209 76l-117 19q-172 28 -252 99t-80 194q0 130 100 206q98 74 275 74q387 0 408 -313h-86q-10 119 -88 180q-77 60 -234 60q-135 0 -214 -54q-77 -53 -77 -151q0 -94 65 -144
q62 -47 212 -75l114 -19q171 -30 251 -99q79 -69 79 -190q0 -145 -109 -223q-110 -78 -298 -78z" />
    <glyph glyph-name="t" unicode="t" horiz-adv-x="600" 
d="M555 1057v-74h-264v-766q0 -76 40 -112q39 -35 128 -35q72 0 96 2v-72q-84 -4 -106 -4q-242 0 -242 215v772h-182v74h182v299h84v-299h264z" />
    <glyph glyph-name="u" unicode="u" horiz-adv-x="1069" 
d="M862 469v588h84v-1057h-82v223q-49 -117 -143 -182q-95 -66 -221 -66q-179 0 -279 103q-98 101 -98 293v686h84v-678q0 -159 80 -244q79 -84 227 -84q146 0 246 105q97 100 102 313z" />
    <glyph glyph-name="v" unicode="v" horiz-adv-x="1003" 
d="M659 492l228 565h90l-430 -1057h-90l-428 1057h90l227 -568q101 -252 156 -401q2 6 7.5 20t12 30t12.5 32q17 46 57 145q14 35 39 100.5t29 76.5z" />
    <glyph glyph-name="w" unicode="w" horiz-adv-x="1628" 
d="M1272 403l239 654h91l-385 -1057h-95l-233 713q-56 178 -76 243q-28 -107 -74 -243l-233 -713h-92l-385 1057h88l237 -654q62 -175 105 -309q53 173 96 309l213 654h92l213 -654q43 -136 96 -309q12 37 103 309z" />
    <glyph glyph-name="x" unicode="x" horiz-adv-x="976" 
d="M926 1057l-389 -514l413 -543h-100l-178 233q-26 37 -185 248q-120 -161 -184 -250l-178 -231h-96l411 543l-389 514h99l176 -234q25 -31 163 -221q102 140 164 221l176 234h97z" />
    <glyph glyph-name="y" unicode="y" horiz-adv-x="974" 
d="M649 496l207 561h92l-450 -1198q-52 -139 -123 -201q-73 -64 -180 -64q-40 0 -82 3v71h80q147 0 225 209q9 23 37 96l-426 1084h92l217 -559q64 -165 160 -426q98 277 151 424z" />
    <glyph glyph-name="z" unicode="z" horiz-adv-x="966" 
d="M387 74h512v-74h-833v68l565 743q13 13 61 80q43 57 74 94q-66 -2 -221 -2h-457v74h778v-68l-563 -741q-28 -39 -137 -176q66 2 221 2z" />
    <glyph glyph-name="braceleft" unicode="{" horiz-adv-x="677" 
d="M631 -401h-105q-128 0 -191 57t-63 188v570q0 72 -39 110t-129 39v74q90 1 129 39t39 110v568q0 131 63 188t191 57h105v-73h-101q-92 0 -132 -39t-40 -131v-582q0 -167 -149 -174v-2q149 -7 149 -174v-580q0 -92 40 -132t132 -40h101v-73z" />
    <glyph glyph-name="bar" unicode="|" horiz-adv-x="344" 
d="M211 -412h-78v2044h78v-2044z" />
    <glyph glyph-name="braceright" unicode="}" horiz-adv-x="677" 
d="M152 -401h-105v73h98q94 0 134 40t40 132v580q0 166 148 174v2q-148 11 -148 174v582q0 92 -40 131q-41 39 -134 39h-98v73h105q128 0 190 -57q61 -57 61 -188v-568q0 -72 39 -110t129 -39v-74q-90 -1 -129 -39t-39 -110v-570q0 -131 -61 -188q-62 -57 -190 -57z" />
    <glyph glyph-name="asciitilde" unicode="~" horiz-adv-x="1056" 
d="M729 616q-82 0 -219 95q-124 86 -186 86q-123 0 -144 -166h-76q28 243 220 243q79 0 223 -96q128 -84 182 -84q61 0 96 38t47 128h76q-24 -244 -219 -244z" />
    <glyph glyph-name="uni00A0" unicode="&#xa0;" horiz-adv-x="458" 
 />
    <glyph glyph-name="exclamdown" unicode="&#xa1;" horiz-adv-x="315" 
d="M223 1071h-131v129h131v-129zM203 -258h-88v403l14 684h57l17 -684v-403z" />
    <glyph glyph-name="cent" unicode="&#xa2;" horiz-adv-x="1038" 
d="M895 360h86q-18 -158 -129 -266q-118 -112 -274 -119v-208h-76v210q-197 17 -311 164q-113 146 -113 387t113 387q114 147 311 164v207h76v-205q163 -11 270 -109q109 -100 131 -255h-88q-22 122 -107 201t-206 86v-951q126 11 212 94q87 84 105 213zM258 864
q-92 -128 -92 -336q0 -209 92 -333q89 -126 244 -142v951q-154 -17 -244 -140z" />
    <glyph glyph-name="sterling" unicode="&#xa3;" horiz-adv-x="1165" 
d="M213 80h895v-80h-1012v80q136 79 200 162t64 211q0 84 -26 161h-250v74h223l-43 94q-98 203 -98 338q0 167 118 269q119 102 318 102q230 0 349 -110q117 -109 122 -302h-90q-8 332 -385 332q-161 0 -253 -80q-91 -79 -91 -211q0 -109 92 -307l55 -125h514v-74h-489
q25 -94 25 -161q0 -219 -238 -373z" />
    <glyph glyph-name="currency" unicode="&#xa4;" horiz-adv-x="1081" 
d="M997 1176l-139 -146q119 -122 119 -301t-119 -301l139 -145l-55 -54l-141 148q-118 -80 -258 -80q-148 0 -260 82l-144 -150l-55 54l141 149q-116 120 -116 297t116 297l-141 150l55 53l144 -150q112 82 260 82q140 0 258 -80l141 148zM297 977q-100 -100 -100 -248
q0 -147 100 -246q99 -100 246 -100q150 0 250 100q98 98 98 246q0 149 -98 248q-101 98 -250 98q-148 0 -246 -98z" />
    <glyph glyph-name="yen" unicode="&#xa5;" horiz-adv-x="1277" 
d="M1153 1458h100l-524 -758h367v-71h-414v-193h414v-74h-414v-362h-88v362h-412v74h412v193h-412v71h365l-522 758h100l270 -389q78 -117 133 -199q75 -112 111 -163q37 57 246 364z" />
    <glyph glyph-name="brokenbar" unicode="&#xa6;" horiz-adv-x="344" 
d="M211 815h-78v817h78v-817zM211 -418h-78v817h78v-817z" />
    <glyph glyph-name="section" unicode="&#xa7;" horiz-adv-x="1126" 
d="M1069 412q0 -219 -270 -301q141 -107 141 -258q0 -131 -96 -205q-97 -74 -264 -74q-183 0 -277 82q-95 83 -102 231h84q22 -239 297 -239q128 0 201 53t73 152q0 96 -65 161q-61 56 -211 144l-185 104q-173 95 -250 185t-77 206q0 219 270 301q-141 106 -141 258
q0 132 96 205q97 74 264 74q360 0 381 -313h-86q-21 239 -297 239q-129 0 -202 -53q-72 -52 -72 -152q0 -98 65 -159q57 -57 211 -146l184 -104q172 -94 250 -186q78 -91 78 -205zM733 158q122 24 188 90t66 164q0 91 -64 162q-68 76 -208 153l-187 107q-100 56 -125 73
q-120 -24 -186 -90q-65 -65 -65 -164q0 -91 63 -163q64 -73 207 -152l186 -107q100 -56 125 -73z" />
    <glyph glyph-name="dieresis" unicode="&#xa8;" horiz-adv-x="819" 
d="M262 1217h-88v186h88v-186zM645 1217h-88v186h88v-186z" />
    <glyph glyph-name="copyright" unicode="&#xa9;" horiz-adv-x="1712" 
d="M856 -33q-327 0 -553 221q-225 220 -225 541q0 323 225 543q226 221 553 221q331 0 555 -221q223 -220 223 -543q0 -321 -223 -541q-224 -221 -555 -221zM354 238q203 -203 502 -203t502 203q203 201 203 491q0 293 -203 496q-204 200 -502 200t-502 -200
q-202 -202 -202 -496q0 -290 202 -491zM868 270q-180 0 -285 124q-106 126 -106 335t106 335q105 124 285 124q144 0 241 -84q98 -84 116 -221h-78q-18 106 -94 172q-75 65 -185 65q-146 0 -229 -104q-84 -105 -84 -287t84 -287q83 -104 229 -104q110 0 190 71q78 69 95 185
h78q-18 -141 -117 -232q-103 -92 -246 -92z" />
    <glyph glyph-name="ordfeminine" unicode="&#xaa;" horiz-adv-x="921" 
d="M870 600q12 0 23 1t20 1v-65q-55 -5 -57 -5q-78 0 -110 36q-31 35 -31 112v39q-92 -203 -346 -203q-147 0 -231 70q-83 69 -83 188q0 236 322 275l149 18q108 15 146 49q39 34 39 113q0 180 -250 180q-149 0 -214 -52q-67 -53 -71 -173h-80q6 293 365 293q163 0 248 -67
q84 -66 84 -181v-545q0 -84 77 -84zM377 582q148 0 240 88q94 89 94 247v156q-43 -52 -172 -67l-148 -19q-129 -17 -189 -66q-61 -50 -61 -143q0 -90 62 -143t174 -53z" />
    <glyph glyph-name="guillemotleft" unicode="&#xab;" horiz-adv-x="970" 
d="M481 193l-348 282v100l348 285v-100l-288 -234l288 -235v-98zM489 575l349 285v-100l-291 -234l291 -235v-98l-349 282v100z" />
    <glyph glyph-name="logicalnot" unicode="&#xac;" horiz-adv-x="1056" 
d="M104 752v77h848v-458h-82v381h-766z" />
    <glyph glyph-name="uni00AD" unicode="&#xad;" horiz-adv-x="753" 
d="M649 541h-545v75h545v-75z" />
    <glyph glyph-name="registered" unicode="&#xae;" horiz-adv-x="1165" 
d="M227 1350q145 141 357 141q210 0 356 -141q143 -140 143 -344t-143 -344q-147 -142 -356 -142q-210 0 -357 142q-145 141 -145 344t145 344zM268 700q127 -127 316 -127q188 0 315 127t127 306q0 180 -127 307q-125 125 -315 125q-191 0 -316 -125q-129 -125 -129 -307
q0 -178 129 -306zM786 895l7 -92q5 -39 22 -68h-53q-20 26 -21 68l-4 80q-5 54 -28 74q-25 22 -82 22h-181v-244h-51v551h226q85 0 131 -39q47 -39 47 -110q0 -100 -92 -133q73 -22 79 -109zM446 1026h177q122 0 122 107q0 108 -124 108h-175v-215z" />
    <glyph glyph-name="overscore" unicode="&#xaf;" horiz-adv-x="819" 
d="M680 1217h-541v71h541v-71z" />
    <glyph glyph-name="degree" unicode="&#xb0;" horiz-adv-x="673" 
d="M520 1059q-74 -74 -182 -74t-182 74q-74 72 -74 172q0 104 73 175t183 71q108 0 181 -71t73 -175q0 -100 -72 -172zM207 1104q53 -51 131 -51t131 51t53 127t-53 129t-131 53t-131 -53q-55 -52 -55 -129q0 -76 55 -127z" />
    <glyph glyph-name="plusminus" unicode="&#xb1;" horiz-adv-x="1056" 
d="M569 1149v-371h383v-76h-383v-368h-82v368h-383v76h383v371h82zM952 0h-848v78h848v-78z" />
    <glyph glyph-name="two.sups" unicode="&#xb2;" horiz-adv-x="647" 
d="M119 1147h491v-66h-571v31q5 231 252 348l74 37q159 77 159 205q0 78 -51 128q-52 50 -147 50t-146 -53q-52 -53 -53 -137h-76q5 115 75 185q71 71 202 71q128 0 200 -69t72 -173q0 -170 -201 -266l-80 -41q-189 -91 -200 -250z" />
    <glyph glyph-name="three.sups" unicode="&#xb3;" horiz-adv-x="659" 
d="M449 1534q79 -18 126 -77q48 -60 48 -144q0 -115 -81 -183q-80 -67 -218 -67t-220 69q-83 69 -84 189h76q1 -93 63 -144t165 -51q98 0 161 52q62 51 62 137q0 90 -62 138t-170 48h-51v58h53q94 0 147 43q54 44 54 120q0 73 -53 117q-52 43 -143 43q-88 0 -141 -44
q-52 -43 -54 -122h-76q1 108 75 169q73 61 196 61q121 0 197 -59q75 -59 75 -158q0 -67 -39 -120t-106 -75z" />
    <glyph glyph-name="acute" unicode="&#xb4;" horiz-adv-x="819" 
d="M328 1217h-78l207 294h112z" />
    <glyph glyph-name="uni00B5" unicode="&#xb5;" horiz-adv-x="1069" 
d="M862 467v590h84v-1057h-82v223q-49 -117 -143 -182q-95 -66 -221 -66q-207 0 -293 158v-534h-84v1458h84v-678q0 -326 307 -326q146 0 246 105q98 98 102 309z" />
    <glyph glyph-name="paragraph" unicode="&#xb6;" horiz-adv-x="974" 
d="M598 0h-78v743q-203 0 -326 94q-122 93 -122 259q0 362 483 362h287v-1458h-80v1378h-164v-1378z" />
    <glyph glyph-name="middot" unicode="&#xb7;" horiz-adv-x="315" 
d="M223 664h-131v131h131v-131z" />
    <glyph glyph-name="cedilla" unicode="&#xb8;" horiz-adv-x="819" 
d="M371 -119h20q97 0 149 -39t52 -106q0 -82 -66 -126q-67 -44 -190 -44q-63 0 -107 10v53q50 -8 103 -8q178 0 178 113q0 100 -164 100q-27 0 -43 -2v45l88 129l70 -2z" />
    <glyph glyph-name="one.sups" unicode="&#xb9;" horiz-adv-x="405" 
d="M260 1927h70v-846h-76v731q-71 -72 -229 -83v57q174 15 235 141z" />
    <glyph glyph-name="ordmasculine" unicode="&#xba;" horiz-adv-x="1003" 
d="M504 516q-191 0 -305 133q-117 133 -117 346q0 217 117 348q114 134 305 134q186 0 303 -134q115 -135 115 -348q0 -211 -115 -346q-117 -133 -303 -133zM504 588q150 0 242 111q92 112 92 296t-92 297t-242 113q-154 0 -246 -113t-92 -297t92 -296q91 -111 246 -111z
" />
    <glyph glyph-name="guillemotright" unicode="&#xbb;" horiz-adv-x="970" 
d="M422 526l-289 234v100l348 -285v-100l-348 -282v98zM489 760v100l349 -285v-100l-349 -282v98l289 235z" />
    <glyph glyph-name="onequarter" unicode="&#xbc;" horiz-adv-x="1294" 
d="M254 612v731q-71 -72 -229 -83v57q174 15 235 141h70v-846h-76zM178 0l778 1458h78l-778 -1458h-78zM1137 299h133v-66h-133v-233h-80v233h-451v76l447 537h84v-547zM1061 299v461l-381 -461h381z" />
    <glyph glyph-name="onehalf" unicode="&#xbd;" horiz-adv-x="1406" 
d="M254 612v731q-71 -72 -229 -83v57q174 15 235 141h70v-846h-76zM178 0l778 1458h78l-778 -1458h-78zM879 66h491v-66h-571v31q5 231 252 348l73 37q160 77 160 205q0 79 -51 128q-52 50 -148 50q-93 0 -145 -54q-52 -53 -53 -137h-74q2 115 73 186q70 70 201 70
q130 0 201 -68q72 -69 72 -173q0 -171 -201 -267l-80 -41q-189 -91 -200 -249z" />
    <glyph glyph-name="threequarters" unicode="&#xbe;" horiz-adv-x="1505" 
d="M623 844q0 -114 -81 -182q-82 -68 -218 -68q-138 0 -220 69q-83 69 -84 189h76q1 -93 63 -144t165 -51q98 0 161 52q62 51 62 137q0 90 -62 138t-170 48h-51v58h53q94 0 147 43q54 43 54 120q0 73 -53 117q-52 43 -143 43q-88 0 -141 -44q-52 -43 -54 -122h-76
q1 108 75 169q73 61 196 61q121 0 197 -59q75 -59 75 -158q0 -68 -39 -120q-39 -53 -106 -75q79 -18 126 -77q48 -60 48 -144zM387 0l778 1458h80l-778 -1458h-80zM1348 299h133v-66h-133v-233h-78v233h-453v76l449 537h82v-547zM1272 299v459l-381 -459h381z" />
    <glyph glyph-name="questiondown" unicode="&#xbf;" horiz-adv-x="1003" 
d="M594 1071h-131v129h131v-129zM485 -291q-201 0 -309 93t-108 266q0 184 198 348q97 82 137 129q35 42 50 78q29 62 34 206h84q0 -149 -39 -235q-33 -82 -176 -209q-75 -61 -106 -96q-35 -38 -62 -90q-32 -61 -32 -131q0 -131 83 -205t244 -74q177 0 272 86t107 277h84
q-8 -221 -128 -332t-333 -111z" />
    <glyph glyph-name="Agrave" unicode="&#xc0;" horiz-adv-x="1339" 
d="M494 1841l206 -295h-77l-242 295h113zM1315 0h-94l-185 451h-735l-184 -451h-92l593 1458h99zM498 934l-166 -406h672l-166 406q-44 106 -170 432q-126 -326 -170 -432z" />
    <glyph glyph-name="Aacute" unicode="&#xc1;" horiz-adv-x="1339" 
d="M834 1841h112l-241 -295h-78zM1315 0h-94l-185 451h-735l-184 -451h-92l593 1458h99zM498 934l-166 -406h672l-166 406q-44 106 -170 432q-126 -326 -170 -432z" />
    <glyph glyph-name="Acircumflex" unicode="&#xc2;" horiz-adv-x="1339" 
d="M887 1546l-219 244l-219 -244h-87l242 295h127l242 -295h-86zM1315 0h-94l-185 451h-735l-184 -451h-92l593 1458h99zM498 934l-166 -406h672l-166 406q-44 106 -170 432q-126 -326 -170 -432z" />
    <glyph glyph-name="Atilde" unicode="&#xc3;" horiz-adv-x="1339" 
d="M510 1692q-48 0 -67 -34q-20 -35 -21 -112h-72q0 223 154 223q65 0 176 -77q91 -68 141 -68q48 0 67 34q20 35 21 111h72q0 -223 -154 -223q-65 0 -178 80q-96 66 -139 66zM1315 0h-94l-185 451h-735l-184 -451h-92l593 1458h99zM498 934l-166 -406h672l-166 406
q-44 106 -170 432q-126 -326 -170 -432z" />
    <glyph glyph-name="Adieresis" unicode="&#xc4;" horiz-adv-x="1339" 
d="M430 1733h88v-187h-88v187zM813 1733h88v-187h-88v187zM1315 0h-94l-185 451h-735l-184 -451h-92l593 1458h99zM498 934l-166 -406h672l-166 406q-44 106 -170 432q-126 -326 -170 -432z" />
    <glyph glyph-name="Aring" unicode="&#xc5;" horiz-adv-x="1339" 
d="M1315 0h-94l-185 451h-735l-184 -451h-92l571 1405q-69 23 -112 81q-44 59 -44 132q0 94 66 159q65 64 160 64q97 0 162 -64q67 -65 67 -159q0 -73 -44 -132q-43 -58 -114 -81zM508 1618q0 -66 46 -112t112 -46q68 0 114 46q47 47 47 112q0 68 -47 113q-46 45 -114 45
q-66 0 -112 -45t-46 -113zM498 934l-166 -406h672l-166 406q-44 106 -170 432q-126 -326 -170 -432z" />
    <glyph glyph-name="AE" unicode="&#xc6;" horiz-adv-x="2066" 
d="M1186 723v-643h821v-80h-909v451h-731l-244 -451h-98l790 1458h1184v-80h-813v-575h731v-80h-731zM868 1378l-460 -850h690v850h-230z" />
    <glyph glyph-name="Ccedilla" unicode="&#xc7;" horiz-adv-x="1413" 
d="M1249 535h88q-27 -248 -180 -398q-156 -153 -383 -168l-86 -121q6 2 21 2q98 0 149 -38q53 -39 53 -107q0 -81 -65 -125q-66 -45 -193 -45q-62 0 -106 10v54q56 -9 104 -9q85 0 131 30q47 30 47 83q0 100 -165 100q-27 0 -43 -2v45l81 121q-286 10 -454 217
q-170 212 -170 545q0 341 176 553q176 209 473 209q236 0 397 -140t205 -384h-88q-40 210 -177 327q-136 117 -337 117q-258 0 -408 -186q-151 -188 -151 -496q0 -305 151 -493q151 -189 408 -189q207 0 352 131q143 129 170 357z" />
    <glyph glyph-name="Egrave" unicode="&#xc8;" horiz-adv-x="1163" 
d="M440 1841l207 -295h-78l-241 295h112zM221 723v-643h881v-80h-969v1458h961v-80h-873v-575h791v-80h-791z" />
    <glyph glyph-name="Eacute" unicode="&#xc9;" horiz-adv-x="1163" 
d="M782 1841h113l-242 -295h-78zM221 723v-643h881v-80h-969v1458h961v-80h-873v-575h791v-80h-791z" />
    <glyph glyph-name="Ecircumflex" unicode="&#xca;" horiz-adv-x="1163" 
d="M834 1546l-220 244l-219 -244h-86l242 295h127l242 -295h-86zM221 723v-643h881v-80h-969v1458h961v-80h-873v-575h791v-80h-791z" />
    <glyph glyph-name="Edieresis" unicode="&#xcb;" horiz-adv-x="1163" 
d="M377 1733h88v-187h-88v187zM760 1733h88v-187h-88v187zM221 723v-643h881v-80h-969v1458h961v-80h-873v-575h791v-80h-791z" />
    <glyph glyph-name="Igrave" unicode="&#xcc;" horiz-adv-x="354" 
d="M209 1546h-72l-162 295h101zM221 0h-88v1458h88v-1458z" />
    <glyph glyph-name="Iacute" unicode="&#xcd;" horiz-adv-x="354" 
d="M377 1841l-162 -295h-72l133 295h101zM221 0h-88v1458h88v-1458z" />
    <glyph glyph-name="Icircumflex" unicode="&#xce;" horiz-adv-x="354" 
d="M115 1841h123l188 -295h-80l-170 244l-170 -244h-80zM221 0h-88v1458h88v-1458z" />
    <glyph glyph-name="Idieresis" unicode="&#xcf;" horiz-adv-x="354" 
d="M76 1546h-88v187h88v-187zM367 1546h-88v187h88v-187zM221 0h-88v1458h88v-1458z" />
    <glyph glyph-name="Eth" unicode="&#xd0;" horiz-adv-x="1411" 
d="M182 1458h439q341 0 527 -193q185 -192 185 -536q0 -341 -189 -535t-538 -194h-424v723h-182v72h182v663zM268 80h338q310 0 474 171q163 170 163 478q0 309 -159 479t-463 170h-353v-583h434v-72h-434v-643z" />
    <glyph glyph-name="Ntilde" unicode="&#xd1;" horiz-adv-x="1374" 
d="M528 1692q-47 0 -66 -34q-21 -36 -22 -112h-71q0 223 153 223q65 0 176 -77q89 -68 142 -68q47 0 66 34q21 36 22 111h71q0 -223 -153 -223q-63 0 -178 80q-96 66 -140 66zM1153 487v971h88v-1458h-108l-717 1042q-135 205 -199 310q2 -126 2 -381v-971h-86v1458h109
l716 -1042q174 -265 199 -307q-4 168 -4 378z" />
    <glyph glyph-name="Ograve" unicode="&#xd2;" horiz-adv-x="1497" 
d="M782 1579h-77l-242 295h112zM750 -33q-310 0 -490 211q-182 212 -182 551t182 551q180 211 490 211q305 0 489 -211q182 -212 182 -551q0 -337 -182 -549q-185 -213 -489 -213zM328 238q156 -191 422 -191q264 0 421 189q158 190 158 493q0 304 -158 494
q-157 188 -421 188q-265 0 -422 -188q-160 -192 -160 -494q0 -301 160 -491z" />
    <glyph glyph-name="Oacute" unicode="&#xd3;" horiz-adv-x="1497" 
d="M786 1579h-77l206 295h113zM750 -33q-310 0 -490 211q-182 212 -182 551t182 551q180 211 490 211q305 0 489 -211q182 -212 182 -551q0 -337 -182 -549q-185 -213 -489 -213zM328 238q156 -191 422 -191q264 0 421 189q158 190 158 493q0 304 -158 494
q-157 188 -421 188q-265 0 -422 -188q-160 -192 -160 -494q0 -301 160 -491z" />
    <glyph glyph-name="Ocircumflex" unicode="&#xd4;" horiz-adv-x="1497" 
d="M969 1579l-219 244l-220 -244h-86l242 295h127l242 -295h-86zM750 1491q305 0 489 -211q182 -212 182 -551q0 -337 -182 -549q-185 -213 -489 -213q-310 0 -490 211q-182 212 -182 551t182 551q180 211 490 211zM328 238q156 -191 422 -191q264 0 421 189
q158 190 158 493q0 304 -158 494q-157 188 -421 188q-265 0 -422 -188q-160 -192 -160 -494q0 -301 160 -491z" />
    <glyph glyph-name="Otilde" unicode="&#xd5;" horiz-adv-x="1497" 
d="M504 1579h-72q0 223 154 223q64 0 176 -78q89 -67 141 -67q48 0 67 34q20 35 21 111h72q0 -223 -154 -223q-65 0 -178 80q-95 65 -139 65q-48 0 -67 -33q-20 -35 -21 -112zM750 -33q-310 0 -490 211q-182 212 -182 551t182 551q180 211 490 211q305 0 489 -211
q182 -212 182 -551q0 -337 -182 -549q-185 -213 -489 -213zM328 238q156 -191 422 -191q264 0 421 189q158 190 158 493q0 304 -158 494q-157 188 -421 188q-265 0 -422 -188q-160 -192 -160 -494q0 -301 160 -491z" />
    <glyph glyph-name="Odieresis" unicode="&#xd6;" horiz-adv-x="1497" 
d="M600 1579h-88v186h88v-186zM983 1579h-88v186h88v-186zM750 -33q-310 0 -490 211q-182 212 -182 551t182 551q180 211 490 211q305 0 489 -211q182 -212 182 -551q0 -337 -182 -549q-185 -213 -489 -213zM328 238q156 -191 422 -191q264 0 421 189q158 190 158 493
q0 304 -158 494q-157 188 -421 188q-265 0 -422 -188q-160 -192 -160 -494q0 -301 160 -491z" />
    <glyph glyph-name="multiply" unicode="&#xd7;" horiz-adv-x="1056" 
d="M852 1104l55 -53l-323 -322l323 -321l-55 -56l-324 322l-323 -322l-53 56l323 321l-323 322l53 53l323 -322z" />
    <glyph glyph-name="Oslash" unicode="&#xd8;" horiz-adv-x="1497" 
d="M1405 1522l57 -49l-198 -224q157 -211 157 -520q0 -337 -182 -549q-185 -213 -489 -213q-280 0 -463 185l-193 -218l-57 50l199 225q-158 208 -158 520q0 339 182 551q180 211 490 211q279 0 462 -184zM168 729q0 -275 129 -455l858 967q-153 170 -405 170
q-265 0 -422 -188q-160 -192 -160 -494zM1329 729q0 271 -127 453l-858 -967q156 -168 406 -168q264 0 421 189q158 190 158 493z" />
    <glyph glyph-name="Ugrave" unicode="&#xd9;" horiz-adv-x="1312" 
d="M690 1546h-78l-241 295h112zM657 -33q-256 0 -401 143q-143 142 -143 412v936h88v-936q0 -236 118 -355q119 -120 338 -120t338 120q119 121 119 355v936h86v-936q0 -270 -143 -412q-145 -143 -400 -143z" />
    <glyph glyph-name="Uacute" unicode="&#xda;" horiz-adv-x="1312" 
d="M694 1546h-78l207 295h113zM657 -33q-256 0 -401 143q-143 142 -143 412v936h88v-936q0 -236 118 -355q119 -120 338 -120t338 120q119 121 119 355v936h86v-936q0 -270 -143 -412q-145 -143 -400 -143z" />
    <glyph glyph-name="Ucircumflex" unicode="&#xdb;" horiz-adv-x="1312" 
d="M877 1546l-220 244l-219 -244h-86l242 295h127l242 -295h-86zM1114 522v936h86v-936q0 -270 -143 -412q-145 -143 -400 -143q-256 0 -401 143q-143 142 -143 412v936h88v-936q0 -236 118 -355q119 -120 338 -120t338 120q119 121 119 355z" />
    <glyph glyph-name="Udieresis" unicode="&#xdc;" horiz-adv-x="1312" 
d="M508 1546h-88v187h88v-187zM891 1546h-88v187h88v-187zM657 -33q-256 0 -401 143q-143 142 -143 412v936h88v-936q0 -236 118 -355q119 -120 338 -120t338 120q119 121 119 355v936h86v-936q0 -270 -143 -412q-145 -143 -400 -143z" />
    <glyph glyph-name="Yacute" unicode="&#xdd;" horiz-adv-x="1277" 
d="M807 1841h113l-242 -295h-78zM885 1071l268 387h100l-571 -827v-631h-88v631l-569 827h100l270 -389q78 -117 133 -199q75 -112 111 -163q37 57 246 364z" />
    <glyph glyph-name="Thorn" unicode="&#xde;" horiz-adv-x="1243" 
d="M221 1155h496q213 0 334 -114q120 -113 120 -312t-120 -312q-121 -114 -334 -114h-496v-303h-88v1458h88v-303zM221 383h496q175 0 269 91q95 92 95 255t-95 255q-94 91 -269 91h-496v-692z" />
    <glyph glyph-name="germandbls" unicode="&#xdf;" horiz-adv-x="1075" 
d="M672 784q151 -37 238 -139t87 -239q0 -195 -125 -305q-124 -109 -340 -109q-86 0 -147 8v74q85 -8 147 -8q173 0 276 89q101 88 101 251q0 148 -105 240q-104 91 -306 91h-70v78h68q152 0 240 81q89 81 89 214q0 125 -84 209t-223 84q-146 0 -228 -87q-83 -88 -83 -241
v-1075h-84v1071q0 190 105 298t290 108q179 0 287 -105q106 -106 106 -254q0 -120 -62 -207q-63 -88 -177 -127z" />
    <glyph glyph-name="agrave" unicode="&#xe0;" horiz-adv-x="1032" 
d="M356 1511l207 -294h-78l-241 294h112zM985 68q13 0 26 1t23 1v-70q-40 -4 -63 -4q-79 0 -117 39q-37 38 -37 123v51q-108 -234 -409 -234q-164 0 -255 81q-92 81 -92 218q0 268 369 314l170 20q122 16 169 59q46 42 46 130q0 211 -295 211q-172 0 -249 -62t-83 -201h-82
q4 168 105 252t309 84q189 0 282 -75q95 -77 95 -209v-635q0 -94 88 -94zM412 47q183 0 293 100t110 289v185q-51 -59 -203 -80l-170 -23q-154 -21 -224 -78q-71 -57 -71 -164q0 -106 69 -167q70 -62 196 -62z" />
    <glyph glyph-name="aacute" unicode="&#xe1;" horiz-adv-x="1032" 
d="M686 1511h113l-242 -294h-78zM985 68q13 0 26 1t23 1v-70q-40 -4 -63 -4q-79 0 -117 39q-37 38 -37 123v51q-108 -234 -409 -234q-164 0 -255 81q-92 81 -92 218q0 268 369 314l170 20q122 16 169 59q46 42 46 130q0 211 -295 211q-172 0 -249 -62t-83 -201h-82
q4 168 105 252t309 84q189 0 282 -75q95 -77 95 -209v-635q0 -94 88 -94zM412 47q183 0 293 100t110 289v185q-51 -59 -203 -80l-170 -23q-154 -21 -224 -78q-71 -57 -71 -164q0 -106 69 -167q70 -62 196 -62z" />
    <glyph glyph-name="acircumflex" unicode="&#xe2;" horiz-adv-x="1032" 
d="M739 1217l-219 243l-219 -243h-86l242 294h127l241 -294h-86zM985 68q13 0 26 1t23 1v-70q-40 -4 -63 -4q-79 0 -117 39q-37 38 -37 123v51q-108 -234 -409 -234q-164 0 -255 81q-92 81 -92 218q0 268 369 314l170 20q122 16 169 59q46 42 46 130q0 211 -295 211
q-172 0 -249 -62t-83 -201h-82q4 168 105 252t309 84q189 0 282 -75q95 -77 95 -209v-635q0 -94 88 -94zM412 47q183 0 293 100t110 289v185q-51 -59 -203 -80l-170 -23q-154 -21 -224 -78q-71 -57 -71 -164q0 -106 69 -167q70 -62 196 -62z" />
    <glyph glyph-name="atilde" unicode="&#xe3;" horiz-adv-x="1032" 
d="M362 1362q-47 0 -66 -34q-21 -36 -22 -111h-71q0 223 153 223q64 0 176 -78q91 -68 142 -68q47 0 66 34q21 36 22 112h72q0 -223 -154 -223q-66 0 -178 79q-96 66 -140 66zM985 68q13 0 26 1t23 1v-70q-40 -4 -63 -4q-79 0 -117 39q-37 38 -37 123v51
q-108 -234 -409 -234q-164 0 -255 81q-92 81 -92 218q0 268 369 314l170 20q122 16 169 59q46 42 46 130q0 211 -295 211q-172 0 -249 -62t-83 -201h-82q4 168 105 252t309 84q189 0 282 -75q95 -77 95 -209v-635q0 -94 88 -94zM412 47q183 0 293 100t110 289v185
q-51 -59 -203 -80l-170 -23q-154 -21 -224 -78q-71 -57 -71 -164q0 -106 69 -167q70 -62 196 -62z" />
    <glyph glyph-name="adieresis" unicode="&#xe4;" horiz-adv-x="1032" 
d="M283 1403h88v-186h-88v186zM666 1403h88v-186h-88v186zM985 68q13 0 26 1t23 1v-70q-40 -4 -63 -4q-79 0 -117 39q-37 38 -37 123v51q-108 -234 -409 -234q-164 0 -255 81q-92 81 -92 218q0 268 369 314l170 20q122 16 169 59q46 42 46 130q0 211 -295 211
q-172 0 -249 -62t-83 -201h-82q4 168 105 252t309 84q189 0 282 -75q95 -77 95 -209v-635q0 -94 88 -94zM412 47q183 0 293 100t110 289v185q-51 -59 -203 -80l-170 -23q-154 -21 -224 -78q-71 -57 -71 -164q0 -106 69 -167q70 -62 196 -62z" />
    <glyph glyph-name="aring" unicode="&#xe5;" horiz-adv-x="1032" 
d="M518 1212q-93 0 -160 65q-65 64 -65 159t65 157q67 64 160 64q96 0 163 -64t67 -157q0 -94 -67 -159t-163 -65zM518 1593q-65 0 -111 -46q-47 -47 -47 -111q0 -67 47 -114q46 -46 111 -46q69 0 115 46q47 47 47 114q0 64 -47 111q-46 46 -115 46zM985 68q13 0 26 1t23 1
v-70q-40 -4 -63 -4q-79 0 -117 39q-37 38 -37 123v51q-108 -234 -409 -234q-164 0 -255 81q-92 81 -92 218q0 268 369 314l170 20q122 16 169 59q46 42 46 130q0 211 -295 211q-172 0 -249 -62t-83 -201h-82q4 168 105 252t309 84q189 0 282 -75q95 -77 95 -209v-635
q0 -94 88 -94zM412 47q183 0 293 100t110 289v185q-51 -59 -203 -80l-170 -23q-154 -21 -224 -78q-71 -57 -71 -164q0 -106 69 -167q70 -62 196 -62z" />
    <glyph glyph-name="ae" unicode="&#xe6;" horiz-adv-x="1761" 
d="M1683 532v-30h-804q6 -212 102 -330q96 -119 266 -119q133 0 221 79t115 216h80q-28 -169 -139 -271t-277 -102q-283 0 -397 263q-52 -127 -169 -195q-116 -68 -273 -68q-164 0 -255 81q-92 81 -92 218q0 268 369 314l170 20q122 16 169 59q46 42 46 130q0 211 -295 211
q-172 0 -249 -62t-83 -201h-82q4 168 105 252t309 84q305 0 365 -194q121 194 354 194q213 0 330 -153q114 -158 114 -396zM1239 1004q-158 0 -253 -113q-94 -112 -105 -311h718q-11 196 -104 309q-95 115 -256 115zM412 47q164 0 272 84q109 85 127 242q-14 62 -14 155
q0 17 4 78q-53 -47 -189 -65l-170 -23q-154 -21 -224 -78q-71 -57 -71 -164q0 -106 69 -167q70 -62 196 -62z" />
    <glyph glyph-name="ccedilla" unicode="&#xe7;" horiz-adv-x="1038" 
d="M895 360h86q-18 -152 -123 -260q-108 -108 -260 -123l-88 -120q6 2 20 2q98 0 150 -39q53 -39 53 -107q0 -81 -65 -125q-66 -45 -193 -45q-57 0 -106 11v53q50 -8 104 -8q86 0 131 29q47 30 47 83q0 101 -166 101q-27 0 -43 -2v45l82 120q-203 7 -325 157
q-121 148 -121 396q0 254 129 404q124 149 340 149q175 0 291 -100q117 -101 141 -264h-88q-24 129 -118 210q-92 79 -226 79q-175 0 -278 -127t-103 -351q0 -223 103 -350t278 -127q134 0 231 86q96 85 117 223z" />
    <glyph glyph-name="egrave" unicode="&#xe8;" horiz-adv-x="1087" 
d="M379 1511l207 -294h-78l-242 294h113zM1010 532v-30h-846q6 -212 108 -330q102 -119 281 -119q140 0 231 79q92 80 119 216h86q-30 -169 -147 -271t-291 -102q-218 0 -346 152q-127 151 -127 401q0 251 125 402q123 151 342 151q221 0 344 -153q121 -157 121 -396z
M545 1004q-171 0 -270 -113q-98 -112 -109 -311h756q-10 194 -110 309t-267 115z" />
    <glyph glyph-name="eacute" unicode="&#xe9;" horiz-adv-x="1087" 
d="M711 1511h112l-241 -294h-78zM1010 532v-30h-846q6 -212 108 -330q102 -119 281 -119q140 0 231 79q92 80 119 216h86q-30 -169 -147 -271t-291 -102q-218 0 -346 152q-127 151 -127 401q0 251 125 402q123 151 342 151q221 0 344 -153q121 -157 121 -396zM545 1004
q-171 0 -270 -113q-98 -112 -109 -311h756q-10 194 -110 309t-267 115z" />
    <glyph glyph-name="ecircumflex" unicode="&#xea;" horiz-adv-x="1087" 
d="M764 1217l-219 243l-219 -243h-86l241 294h127l242 -294h-86zM1010 532v-30h-846q6 -212 108 -330q102 -119 281 -119q140 0 231 79q92 80 119 216h86q-30 -169 -147 -271t-291 -102q-218 0 -346 152q-127 151 -127 401q0 251 125 402q123 151 342 151q221 0 344 -153
q121 -157 121 -396zM545 1004q-171 0 -270 -113q-98 -112 -109 -311h756q-10 194 -110 309t-267 115z" />
    <glyph glyph-name="edieresis" unicode="&#xeb;" horiz-adv-x="1087" 
d="M307 1403h88v-186h-88v186zM690 1403h88v-186h-88v186zM1010 532v-30h-846q6 -212 108 -330q102 -119 281 -119q140 0 231 79q92 80 119 216h86q-30 -169 -147 -271t-291 -102q-218 0 -346 152q-127 151 -127 401q0 251 125 402q123 151 342 151q221 0 344 -153
q121 -157 121 -396zM545 1004q-171 0 -270 -113q-98 -112 -109 -311h756q-10 194 -110 309t-267 115z" />
    <glyph glyph-name="igrave" unicode="&#xec;" horiz-adv-x="329" 
d="M197 1217h-72l-162 294h100zM207 0h-84v1057h84v-1057z" />
    <glyph glyph-name="iacute" unicode="&#xed;" horiz-adv-x="329" 
d="M203 1217h-72l133 294h101zM207 0h-84v1057h84v-1057z" />
    <glyph glyph-name="icircumflex" unicode="&#xee;" horiz-adv-x="329" 
d="M104 1511h123l189 -294h-80l-170 243l-170 -243h-80zM207 0h-84v1057h84v-1057z" />
    <glyph glyph-name="idieresis" unicode="&#xef;" horiz-adv-x="329" 
d="M63 1217h-88v186h88v-186zM354 1217h-88v186h88v-186zM207 0h-84v1057h84v-1057z" />
    <glyph glyph-name="eth" unicode="&#xf0;" horiz-adv-x="1114" 
d="M928 1397l-256 -90q364 -388 364 -775q0 -254 -131 -405q-134 -152 -348 -152q-212 0 -346 152q-133 151 -133 391q0 242 133 393q134 152 346 152q176 0 285 -115q-96 178 -242 332l-324 -115v72l271 96l-123 125h102l95 -98l307 108v-71zM557 51q181 0 287 129
q106 127 106 338t-106 338q-106 129 -287 129q-177 0 -285 -129q-106 -127 -106 -338t106 -338q108 -129 285 -129z" />
    <glyph glyph-name="ntilde" unicode="&#xf1;" horiz-adv-x="1069" 
d="M377 1362q-48 0 -67 -34q-20 -35 -21 -111h-72q0 223 154 223q63 0 176 -78q89 -68 141 -68q48 0 67 34q20 35 21 112h72q0 -223 -154 -223q-65 0 -178 79q-96 66 -139 66zM569 1081q180 0 279 -102q98 -101 98 -293v-686h-84v678q0 159 -80 244q-80 84 -227 84
q-142 0 -244 -105q-103 -106 -104 -313v-588h-84v1057h80v-230q46 120 141 187t225 67z" />
    <glyph glyph-name="ograve" unicode="&#xf2;" horiz-adv-x="1116" 
d="M600 1217h-78l-241 294h112zM905 129q-131 -154 -348 -154q-212 0 -346 154q-133 155 -133 399q0 245 133 400q134 153 346 153q217 0 348 -153q133 -155 133 -400q0 -244 -133 -399zM557 51q180 0 287 131q106 130 106 346t-106 346q-108 132 -287 132q-177 0 -285 -132
q-106 -130 -106 -346t106 -346q107 -131 285 -131z" />
    <glyph glyph-name="oacute" unicode="&#xf3;" horiz-adv-x="1116" 
d="M596 1217h-78l207 294h113zM905 129q-131 -154 -348 -154q-212 0 -346 154q-133 155 -133 399q0 245 133 400q134 153 346 153q217 0 348 -153q133 -155 133 -400q0 -244 -133 -399zM557 51q180 0 287 131q106 130 106 346t-106 346q-108 132 -287 132q-177 0 -285 -132
q-106 -130 -106 -346t106 -346q107 -131 285 -131z" />
    <glyph glyph-name="ocircumflex" unicode="&#xf4;" horiz-adv-x="1116" 
d="M776 1217l-219 243l-219 -243h-86l242 294h127l241 -294h-86zM211 928q134 153 346 153q217 0 348 -153q133 -155 133 -400q0 -244 -133 -399q-131 -154 -348 -154q-212 0 -346 154q-133 155 -133 399q0 245 133 400zM557 51q180 0 287 131q106 130 106 346t-106 346
q-108 132 -287 132q-177 0 -285 -132q-106 -130 -106 -346t106 -346q107 -131 285 -131z" />
    <glyph glyph-name="otilde" unicode="&#xf5;" horiz-adv-x="1116" 
d="M311 1217h-71q0 223 153 223q63 0 176 -78q91 -68 142 -68q47 0 66 34q21 36 22 112h71q0 -223 -153 -223q-66 0 -178 79q-96 66 -140 66q-47 0 -66 -34q-21 -36 -22 -111zM905 129q-131 -154 -348 -154q-212 0 -346 154q-133 155 -133 399q0 245 133 400
q134 153 346 153q217 0 348 -153q133 -155 133 -400q0 -244 -133 -399zM557 51q180 0 287 131q106 130 106 346t-106 346q-108 132 -287 132q-177 0 -285 -132q-106 -130 -106 -346t106 -346q107 -131 285 -131z" />
    <glyph glyph-name="odieresis" unicode="&#xf6;" horiz-adv-x="1116" 
d="M410 1217h-88v186h88v-186zM793 1217h-88v186h88v-186zM905 129q-131 -154 -348 -154q-212 0 -346 154q-133 155 -133 399q0 245 133 400q134 153 346 153q217 0 348 -153q133 -155 133 -400q0 -244 -133 -399zM557 51q180 0 287 131q106 130 106 346t-106 346
q-108 132 -287 132q-177 0 -285 -132q-106 -130 -106 -346t106 -346q107 -131 285 -131z" />
    <glyph glyph-name="divide" unicode="&#xf7;" horiz-adv-x="1056" 
d="M571 985h-86v178h86v-178zM952 690h-848v78h848v-78zM571 295h-86v178h86v-178z" />
    <glyph glyph-name="oslash" unicode="&#xf8;" horiz-adv-x="1114" 
d="M1008 1102l53 -47l-133 -154q110 -152 110 -373q0 -244 -133 -399q-131 -154 -348 -154q-197 0 -324 127l-127 -147l-53 47l133 154q-108 152 -108 372q0 245 133 400q134 153 346 153q197 0 324 -127zM166 528q0 -180 78 -307l583 672q-107 113 -270 113
q-177 0 -285 -132q-106 -130 -106 -346zM950 528q0 180 -80 308l-581 -672q101 -113 268 -113q180 0 287 131q106 130 106 346z" />
    <glyph glyph-name="ugrave" unicode="&#xf9;" horiz-adv-x="1069" 
d="M360 1511l207 -294h-78l-241 294h112zM862 469v588h84v-1057h-82v223q-49 -117 -143 -182q-95 -66 -221 -66q-179 0 -279 103q-98 101 -98 293v686h84v-678q0 -159 80 -244q79 -84 227 -84q146 0 246 105q97 100 102 313z" />
    <glyph glyph-name="uacute" unicode="&#xfa;" horiz-adv-x="1069" 
d="M690 1511h113l-242 -294h-78zM862 469v588h84v-1057h-82v223q-49 -117 -143 -182q-95 -66 -221 -66q-179 0 -279 103q-98 101 -98 293v686h84v-678q0 -159 80 -244q79 -84 227 -84q146 0 246 105q97 100 102 313z" />
    <glyph glyph-name="ucircumflex" unicode="&#xfb;" horiz-adv-x="1069" 
d="M743 1217l-219 243l-219 -243h-86l242 294h127l241 -294h-86zM862 469v588h84v-1057h-82v223q-49 -117 -143 -182q-95 -66 -221 -66q-179 0 -279 103q-98 101 -98 293v686h84v-678q0 -159 80 -244q79 -84 227 -84q146 0 246 105q97 100 102 313z" />
    <glyph glyph-name="udieresis" unicode="&#xfc;" horiz-adv-x="1069" 
d="M287 1403h88v-186h-88v186zM670 1403h88v-186h-88v186zM862 469v588h84v-1057h-82v223q-49 -117 -143 -182q-95 -66 -221 -66q-179 0 -279 103q-98 101 -98 293v686h84v-678q0 -159 80 -244q79 -84 227 -84q146 0 246 105q97 100 102 313z" />
    <glyph glyph-name="yacute" unicode="&#xfd;" horiz-adv-x="974" 
d="M655 1511h113l-242 -294h-77zM649 496l207 561h92l-450 -1198q-52 -139 -123 -201q-73 -64 -180 -64q-40 0 -82 3v71h80q147 0 225 209q9 23 37 96l-426 1084h92l217 -559q64 -165 160 -426q98 277 151 424z" />
    <glyph glyph-name="thorn" unicode="&#xfe;" horiz-adv-x="1150" 
d="M604 1081q215 0 342 -151q127 -155 127 -402q0 -248 -127 -399q-128 -154 -342 -154q-283 0 -397 256v-632h-84v1859h84v-633q114 256 397 256zM309 182q105 -131 285 -131q179 0 287 133q106 130 106 348q0 217 -106 345q-107 129 -287 129q-179 0 -285 -132
q-106 -130 -106 -346t106 -346z" />
    <glyph glyph-name="ydieresis" unicode="&#xff;" horiz-adv-x="974" 
d="M252 1403h88v-186h-88v186zM635 1403h88v-186h-88v186zM649 496l207 561h92l-450 -1198q-52 -139 -123 -201q-73 -64 -180 -64q-40 0 -82 3v71h80q147 0 225 209q9 23 37 96l-426 1084h92l217 -559q64 -165 160 -426q98 277 151 424z" />
    <glyph glyph-name="Amacron" unicode="&#x100;" horiz-adv-x="1339" 
d="M395 1618h541v-72h-541v72zM1315 0h-94l-185 451h-735l-184 -451h-92l593 1458h99zM498 934l-166 -406h672l-166 406q-44 106 -170 432q-126 -326 -170 -432z" />
    <glyph glyph-name="amacron" unicode="&#x101;" horiz-adv-x="1032" 
d="M248 1288h540v-71h-540v71zM985 68q13 0 26 1t23 1v-70q-40 -4 -63 -4q-79 0 -117 39q-37 38 -37 123v51q-108 -234 -409 -234q-164 0 -255 81q-92 81 -92 218q0 268 369 314l170 20q122 16 169 59q46 42 46 130q0 211 -295 211q-172 0 -249 -62t-83 -201h-82
q4 168 105 252t309 84q189 0 282 -75q95 -77 95 -209v-635q0 -94 88 -94zM412 47q183 0 293 100t110 289v185q-51 -59 -203 -80l-170 -23q-154 -21 -224 -78q-71 -57 -71 -164q0 -106 69 -167q70 -62 196 -62z" />
    <glyph glyph-name="Abreve" unicode="&#x102;" horiz-adv-x="1339" 
d="M868 1614q-76 -76 -200 -76q-125 0 -201 76q-83 74 -90 190h72q12 -91 69 -143q58 -53 148 -53t150 54q61 55 71 142h71q-12 -113 -90 -190zM1315 0h-94l-185 451h-735l-184 -451h-92l594 1458h98zM498 934l-166 -406h672l-166 406q-44 106 -170 432q-126 -326 -170 -432
z" />
    <glyph glyph-name="abreve" unicode="&#x103;" horiz-adv-x="1032" 
d="M721 1284q-76 -76 -201 -76t-201 76q-82 73 -90 191h72q12 -91 70 -144t147 -53q91 0 151 54q59 53 70 143h72q-12 -115 -90 -191zM985 68q13 0 26 1t23 1v-70q-40 -4 -63 -4q-79 0 -117 39q-37 38 -37 123v51q-108 -234 -409 -234q-164 0 -255 81q-92 81 -92 218
q0 268 369 314l170 20q122 16 169 59q46 42 46 130q0 211 -295 211q-172 0 -249 -62t-83 -201h-81q5 169 104 252q101 84 309 84q189 0 282 -75q95 -77 95 -209v-635q0 -94 88 -94zM412 47q183 0 293 100t110 289v185q-51 -59 -203 -80l-170 -23q-154 -21 -224 -78
q-71 -57 -71 -164q0 -106 69 -167q70 -62 196 -62z" />
    <glyph glyph-name="Aogonek" unicode="&#x104;" horiz-adv-x="1339" 
d="M1069 -250q0 -104 127 -104q59 0 119 22v-69q-64 -25 -131 -25q-90 0 -143 43q-54 43 -54 121q0 151 238 262h-4l-185 451h-735l-184 -451h-92l593 1458h99l598 -1458q-246 -128 -246 -250zM498 934l-166 -406h672l-166 406q-44 106 -170 432q-126 -326 -170 -432z" />
    <glyph glyph-name="aogonek" unicode="&#x105;" horiz-adv-x="1032" 
d="M1034 70v-70q-243 -128 -243 -250q0 -104 127 -104q62 0 116 22v-69q-62 -25 -129 -25q-88 0 -142 42t-54 120q0 148 231 262q-123 12 -123 160v51q-108 -234 -409 -234q-164 0 -255 81q-92 81 -92 218q0 268 369 314l170 20q122 16 169 59q46 42 46 130q0 211 -295 211
q-172 0 -249 -62t-83 -201h-82q4 168 105 252t309 84q189 0 282 -75q95 -77 95 -209v-635q0 -94 88 -94q13 0 26 1t23 1zM412 47q183 0 293 100t110 289v185q-51 -59 -203 -80l-170 -23q-154 -21 -224 -78q-71 -57 -71 -164q0 -106 69 -167q70 -62 196 -62z" />
    <glyph glyph-name="Cacute" unicode="&#x106;" horiz-adv-x="1413" 
d="M766 1579h-78l207 295h113zM727 -33q-297 0 -473 209q-176 212 -176 553t176 553q176 209 473 209q236 0 397 -140t205 -384h-88q-40 210 -177 327q-136 117 -337 117q-258 0 -408 -186q-151 -188 -151 -496q0 -305 151 -493q151 -189 408 -189q207 0 352 131
q143 129 170 357h88q-29 -264 -194 -414q-169 -154 -416 -154z" />
    <glyph glyph-name="cacute" unicode="&#x107;" horiz-adv-x="1038" 
d="M584 1217h-78l207 294h112zM547 -25q-215 0 -340 150q-129 150 -129 403q0 254 129 404q124 149 340 149q175 0 291 -100q117 -101 141 -264h-88q-24 129 -118 210q-92 79 -226 79q-175 0 -278 -127t-103 -351q0 -223 103 -350t278 -127q134 0 231 86q96 85 117 223h86
q-22 -171 -139 -276q-123 -109 -295 -109z" />
    <glyph glyph-name="Ccircumflex" unicode="&#x108;" horiz-adv-x="1413" 
d="M946 1579l-219 244l-219 -244h-86l242 295h127l241 -295h-86zM1249 535h88q-29 -264 -194 -414q-169 -154 -416 -154q-297 0 -473 209q-176 212 -176 553t176 553q176 209 473 209q236 0 397 -140t205 -384h-88q-40 210 -177 327q-136 117 -337 117q-258 0 -408 -186
q-151 -188 -151 -496q0 -305 151 -493q151 -189 408 -189q207 0 352 131q143 129 170 357z" />
    <glyph glyph-name="ccircumflex" unicode="&#x109;" horiz-adv-x="1038" 
d="M766 1217l-219 243l-219 -243h-86l241 294h127l242 -294h-86zM895 360h86q-22 -171 -139 -276q-123 -109 -295 -109q-215 0 -340 150q-129 150 -129 403q0 254 129 404q124 149 340 149q175 0 291 -100q117 -101 141 -264h-88q-24 129 -118 210q-92 79 -226 79
q-175 0 -278 -127t-103 -351q0 -223 103 -350t278 -127q134 0 231 86q96 85 117 223z" />
    <glyph glyph-name="Cdotaccent" unicode="&#x10a;" horiz-adv-x="1413" 
d="M770 1579h-90v186h90v-186zM727 -33q-297 0 -473 209q-176 212 -176 553t176 553q176 209 473 209q236 0 397 -140t205 -384h-88q-40 210 -177 327q-136 117 -337 117q-258 0 -408 -186q-151 -188 -151 -496q0 -305 151 -493q151 -189 408 -189q207 0 352 131
q143 129 170 357h88q-29 -264 -194 -414q-169 -154 -416 -154z" />
    <glyph glyph-name="cdotaccent" unicode="&#x10b;" horiz-adv-x="1038" 
d="M592 1217h-90v186h90v-186zM547 -25q-215 0 -340 150q-129 150 -129 403q0 254 129 404q124 149 340 149q175 0 291 -100q117 -101 141 -264h-88q-24 129 -118 210q-92 79 -226 79q-175 0 -278 -127t-103 -351q0 -223 103 -350t278 -127q134 0 231 86q96 85 117 223h86
q-22 -171 -139 -276q-123 -109 -295 -109z" />
    <glyph glyph-name="Ccaron" unicode="&#x10c;" horiz-adv-x="1413" 
d="M1032 1874l-241 -295h-127l-242 295h86l219 -244l219 244h86zM1249 535h88q-29 -264 -194 -414q-169 -154 -416 -154q-297 0 -473 209q-176 212 -176 553t176 553q176 209 473 209q236 0 397 -140t205 -384h-88q-40 210 -177 327q-136 117 -337 117q-258 0 -408 -186
q-151 -188 -151 -496q0 -305 151 -493q151 -189 408 -189q207 0 352 131q143 129 170 357z" />
    <glyph glyph-name="ccaron" unicode="&#x10d;" horiz-adv-x="1038" 
d="M852 1511l-242 -294h-127l-241 294h86l219 -243l219 243h86zM895 360h86q-22 -171 -139 -276q-123 -109 -295 -109q-215 0 -340 150q-129 150 -129 403q0 254 129 404q124 149 340 149q175 0 291 -100q117 -101 141 -264h-88q-24 129 -118 210q-92 79 -226 79
q-175 0 -278 -127t-103 -351q0 -223 103 -350t278 -127q134 0 231 86q96 85 117 223z" />
    <glyph glyph-name="Dcaron" unicode="&#x10e;" horiz-adv-x="1363" 
d="M915 1841l-241 -295h-127l-242 295h86l219 -244l219 244h86zM133 1458h440q341 0 529 -194q184 -194 184 -535q0 -344 -189 -536q-190 -193 -540 -193h-424v1458zM221 80h336q313 0 475 171t162 478q0 309 -159 479t-464 170h-350v-1298z" />
    <glyph glyph-name="dcaron" unicode="&#x10f;" horiz-adv-x="1288" 
d="M944 825v633h84v-1458h-80v242q-113 -267 -399 -267q-214 0 -342 154q-129 150 -129 399t129 402q127 151 342 151q135 0 237 -66t158 -190zM1112 1118l100 340h97l-129 -340h-68zM272 180q105 -129 285 -129t287 131q104 132 104 346t-104 346q-108 132 -287 132
t-285 -132q-106 -130 -106 -350q0 -217 106 -344z" />
    <glyph glyph-name="Dcroat" unicode="&#x110;" horiz-adv-x="1411" 
d="M182 1458h439q341 0 527 -193q185 -192 185 -536q0 -341 -189 -535t-538 -194h-424v723h-182v72h182v663zM268 80h338q310 0 474 171q163 170 163 478q0 309 -159 479t-463 170h-353v-583h434v-72h-434v-643z" />
    <glyph glyph-name="dslash" unicode="&#x111;" horiz-adv-x="1210" 
d="M1028 1284h182v-70h-182v-1214h-80v242q-113 -267 -399 -267q-214 0 -342 154q-129 150 -129 399t129 402q127 151 342 151q135 0 237 -66t158 -190v389h-274v70h274v174h84v-174zM272 180q105 -129 285 -129t287 131q104 132 104 346t-104 346q-108 132 -287 132
t-285 -132q-106 -130 -106 -350q0 -217 106 -344z" />
    <glyph glyph-name="Emacron" unicode="&#x112;" horiz-adv-x="1163" 
d="M342 1618h541v-72h-541v72zM221 723v-643h881v-80h-969v1458h961v-80h-873v-575h791v-80h-791z" />
    <glyph glyph-name="emacron" unicode="&#x113;" horiz-adv-x="1087" 
d="M272 1288h541v-71h-541v71zM1010 532v-30h-846q6 -212 108 -330q102 -119 281 -119q140 0 231 79q92 80 119 216h86q-30 -169 -147 -271t-291 -102q-218 0 -346 152q-127 151 -127 401q0 251 125 402q123 151 342 151q221 0 344 -153q121 -157 121 -396zM545 1004
q-171 0 -270 -113q-98 -112 -109 -311h756q-10 194 -110 309t-267 115z" />
    <glyph glyph-name="Ebreve" unicode="&#x114;" horiz-adv-x="1163" 
d="M815 1614q-76 -76 -201 -76q-124 0 -200 76q-83 74 -90 190h71q12 -90 70 -143t147 -53q91 0 151 54q61 55 71 142h71q-12 -113 -90 -190zM221 723v-643h881v-80h-969v1458h961v-80h-873v-575h791v-80h-791z" />
    <glyph glyph-name="ebreve" unicode="&#x115;" horiz-adv-x="1087" 
d="M745 1284q-76 -76 -200 -76q-125 0 -201 76q-82 73 -90 191h72q12 -92 69 -144q58 -53 148 -53t150 54t71 143h72q-12 -113 -91 -191zM1010 532v-30h-846q6 -212 108 -330q102 -119 281 -119q140 0 231 79q92 80 119 216h86q-30 -169 -147 -271t-291 -102
q-218 0 -346 152q-127 151 -127 401q0 251 125 402q123 151 342 151q221 0 344 -153q121 -157 121 -396zM545 1004q-171 0 -270 -113q-98 -112 -109 -311h756q-10 194 -110 309t-267 115z" />
    <glyph glyph-name="Edotaccent" unicode="&#x116;" horiz-adv-x="1163" 
d="M567 1733h90v-187h-90v187zM221 723v-643h881v-80h-969v1458h961v-80h-873v-575h791v-80h-791z" />
    <glyph glyph-name="edotaccent" unicode="&#x117;" horiz-adv-x="1087" 
d="M498 1403h90v-186h-90v186zM1010 532v-30h-846q6 -212 108 -330q102 -119 281 -119q140 0 231 79q92 80 119 216h86q-30 -169 -147 -271t-291 -102q-218 0 -346 152q-127 151 -127 401q0 251 125 402q123 151 342 151q221 0 344 -153q121 -157 121 -396zM545 1004
q-171 0 -270 -113q-98 -112 -109 -311h756q-10 194 -110 309t-267 115z" />
    <glyph glyph-name="Eogonek" unicode="&#x118;" horiz-adv-x="1163" 
d="M858 -250q0 -104 127 -104q63 0 119 22v-69q-64 -25 -131 -25q-90 0 -143 43q-54 43 -54 121q0 151 238 262h-881v1458h961v-80h-873v-575h791v-80h-791v-643h881v-80h2q-246 -128 -246 -250z" />
    <glyph glyph-name="eogonek" unicode="&#x119;" horiz-adv-x="1087" 
d="M1010 532v-30h-846q6 -212 108 -330q102 -119 281 -119q140 0 231 79q92 80 119 216h86q-22 -126 -96 -218q-73 -91 -186 -130q-246 -128 -246 -250q0 -104 127 -104q63 0 119 22v-69q-64 -25 -132 -25q-89 0 -142 43q-54 43 -54 121q0 133 188 237h-16q-218 0 -346 152
q-127 151 -127 401q0 251 125 402q123 151 342 151q221 0 344 -153q121 -157 121 -396zM545 1004q-171 0 -270 -113q-98 -112 -109 -311h756q-10 194 -110 309t-267 115z" />
    <glyph glyph-name="Ecaron" unicode="&#x11a;" horiz-adv-x="1163" 
d="M920 1841l-242 -295h-127l-242 295h86l219 -244l220 244h86zM221 723v-643h881v-80h-969v1458h961v-80h-873v-575h791v-80h-791z" />
    <glyph glyph-name="ecaron" unicode="&#x11b;" horiz-adv-x="1087" 
d="M850 1511l-242 -294h-127l-241 294h86l219 -243l219 243h86zM1010 532v-30h-846q6 -212 108 -330q102 -119 281 -119q140 0 231 79q92 80 119 216h86q-30 -169 -147 -271t-291 -102q-218 0 -346 152q-127 151 -127 401q0 251 125 402q123 151 342 151q221 0 344 -153
q121 -157 121 -396zM545 1004q-171 0 -270 -113q-98 -112 -109 -311h756q-10 194 -110 309t-267 115z" />
    <glyph glyph-name="Gcircumflex" unicode="&#x11c;" horiz-adv-x="1492" 
d="M958 1565l-219 243l-219 -243h-86l242 295h127l241 -295h-86zM780 647v80h600v-727h-86l-2 326q-68 -173 -207 -266q-140 -93 -340 -93q-305 0 -485 211q-182 212 -182 551q0 341 178 553q179 209 487 209q255 0 418 -139q161 -141 201 -373h-92q-34 195 -176 314
q-140 118 -351 118q-268 0 -421 -186q-154 -190 -154 -496q0 -303 158 -493q158 -189 419 -189q255 0 402 168q145 169 145 432h-512z" />
    <glyph glyph-name="gcircumflex" unicode="&#x11d;" horiz-adv-x="1132" 
d="M778 1219l-219 243l-219 -243h-86l242 294h127l241 -294h-86zM930 821v236h80v-1016q0 -467 -455 -467q-181 0 -285 85q-105 85 -123 237h84q34 -250 324 -250q191 0 281 96t90 299v186q-117 -252 -389 -252q-212 0 -336 154q-123 150 -123 399t123 402q123 151 336 151
q136 0 237 -67q103 -68 156 -193zM547 51q173 0 278 131q103 135 103 346t-103 346q-106 132 -278 132q-177 0 -279 -130t-102 -348q0 -216 102 -347q102 -130 279 -130z" />
    <glyph glyph-name="Gbreve" unicode="&#x11e;" horiz-adv-x="1492" 
d="M940 1632q-76 -76 -201 -76q-124 0 -200 76q-82 73 -90 191h71q12 -91 70 -144t147 -53q91 0 151 54q59 53 70 143h72q-12 -115 -90 -191zM780 647v80h600v-727h-86l-2 326q-68 -173 -207 -266q-140 -93 -340 -93q-305 0 -485 211q-182 212 -182 551q0 341 178 553
q179 209 487 209q255 0 418 -139q161 -141 201 -373h-92q-34 195 -176 314q-140 118 -351 118q-268 0 -421 -186q-154 -190 -154 -496q0 -303 158 -493q158 -189 419 -189q255 0 402 168q145 169 145 432h-512z" />
    <glyph glyph-name="gbreve" unicode="&#x11f;" horiz-adv-x="1132" 
d="M760 1286q-76 -76 -201 -76t-201 76q-82 73 -90 191h72q12 -91 70 -144t147 -53q91 0 151 54q59 53 70 143h72q-12 -115 -90 -191zM930 821v236h80v-1016q0 -467 -455 -467q-181 0 -285 85q-105 85 -123 237h84q34 -250 324 -250q191 0 281 96t90 299v186
q-117 -252 -389 -252q-212 0 -336 154q-123 150 -123 399t123 402q123 151 336 151q136 0 237 -67q103 -68 156 -193zM547 51q173 0 278 131q103 135 103 346t-103 346q-106 132 -278 132q-177 0 -279 -130t-102 -348q0 -216 102 -347q102 -130 279 -130z" />
    <glyph glyph-name="Gdotaccent" unicode="&#x120;" horiz-adv-x="1492" 
d="M694 1751h90v-186h-90v186zM780 647v80h600v-727h-86l-2 326q-68 -173 -207 -266q-140 -93 -340 -93q-305 0 -485 211q-182 212 -182 551q0 341 178 553q179 209 487 209q255 0 418 -139q161 -141 201 -373h-92q-34 195 -176 314q-140 118 -351 118q-268 0 -421 -186
q-154 -190 -154 -496q0 -303 158 -493q158 -189 419 -189q255 0 402 168q145 169 145 432h-512z" />
    <glyph glyph-name="gdotaccent" unicode="&#x121;" horiz-adv-x="1132" 
d="M514 1405h90v-186h-90v186zM930 821v236h80v-1016q0 -467 -455 -467q-181 0 -285 85q-105 85 -123 237h84q34 -250 324 -250q191 0 281 96t90 299v186q-117 -252 -389 -252q-212 0 -336 154q-123 150 -123 399t123 402q123 151 336 151q136 0 237 -67q103 -68 156 -193z
M547 51q173 0 278 131q103 135 103 346t-103 346q-106 132 -278 132q-177 0 -279 -130t-102 -348q0 -216 102 -347q102 -130 279 -130z" />
    <glyph glyph-name="uni0122" unicode="&#x122;" horiz-adv-x="1492" 
d="M780 647v80h600v-727h-86l-2 326q-68 -173 -207 -266q-140 -93 -340 -93q-305 0 -485 211q-182 212 -182 551q0 341 178 553q179 209 487 209q255 0 418 -139q161 -141 201 -373h-92q-34 195 -176 314q-140 118 -351 118q-268 0 -421 -186q-154 -190 -154 -496
q0 -303 158 -493q158 -189 419 -189q255 0 402 168q145 169 145 432h-512zM768 -223h-74v117h127v-158q0 -78 -25 -118q-24 -39 -85 -54l-25 -6v51l16 4q66 23 66 121v43z" />
    <glyph glyph-name="uni0123" unicode="&#x123;" horiz-adv-x="1132" 
d="M545 1335h73v-116h-126v157q0 78 25 118q24 39 85 54l25 6v-51l-17 -4q-65 -22 -65 -121v-43zM930 821v236h80v-1016q0 -467 -455 -467q-181 0 -285 85q-105 85 -123 237h84q34 -250 324 -250q191 0 281 96t90 299v186q-117 -252 -389 -252q-212 0 -336 154
q-123 150 -123 399t123 402q123 151 336 151q136 0 237 -67q103 -68 156 -193zM547 51q173 0 278 131q103 135 103 346t-103 346q-106 132 -278 132q-177 0 -279 -130t-102 -348q0 -216 102 -347q102 -130 279 -130z" />
    <glyph glyph-name="Hcircumflex" unicode="&#x124;" horiz-adv-x="1372" 
d="M905 1546l-219 244l-219 -244h-86l242 295h127l241 -295h-86zM1153 801v657h86v-1458h-86v719h-932v-719h-88v1458h88v-657h932z" />
    <glyph glyph-name="hcircumflex" unicode="&#x125;" horiz-adv-x="1069" 
d="M416 1546h-80l-170 244l-170 -244h-80l188 295h123zM569 1081q180 0 279 -102q98 -101 98 -293v-686h-84v678q0 159 -80 244q-80 84 -227 84q-142 0 -244 -105q-103 -106 -104 -313v-588h-84v1458h84v-620q47 117 141 180t221 63z" />
    <glyph glyph-name="Hbar" unicode="&#x126;" horiz-adv-x="1472" 
d="M1288 1178h185v-70h-185v-1108h-86v719h-932v-719h-88v1108h-182v70h182v280h88v-280h932v280h86v-280zM270 801h932v307h-932v-307z" />
    <glyph glyph-name="hbar" unicode="&#x127;" horiz-adv-x="1128" 
d="M629 1081q179 0 278 -102t99 -293v-686h-84v678q0 159 -80 244q-79 84 -228 84q-142 0 -243 -105t-105 -313v-588h-84v1214h-182v70h182v174h84v-174h275v-70h-275v-376q46 116 142 180q94 63 221 63z" />
    <glyph glyph-name="Itilde" unicode="&#x128;" horiz-adv-x="354" 
d="M-18 1546h-62q2 219 121 219q60 0 147 -77q76 -66 117 -66q34 0 48 32q13 32 18 111h61q-2 -219 -121 -219q-53 0 -149 78q-79 68 -115 68q-35 0 -48 -33q-12 -30 -17 -113zM221 0h-88v1458h88v-1458z" />
    <glyph glyph-name="itilde" unicode="&#x129;" horiz-adv-x="329" 
d="M-31 1217h-61q2 219 121 219q58 0 147 -78q76 -66 117 -66q34 0 48 32q12 29 17 112h62q-2 -219 -121 -219q-54 0 -149 77q-77 68 -115 68q-35 0 -48 -33q-14 -33 -18 -112zM207 0h-84v1057h84v-1057z" />
    <glyph glyph-name="Imacron" unicode="&#x12a;" horiz-adv-x="354" 
d="M379 1546h-406v72h406v-72zM221 0h-88v1458h88v-1458z" />
    <glyph glyph-name="imacron" unicode="&#x12b;" horiz-adv-x="329" 
d="M367 1217h-406v71h406v-71zM207 0h-84v1057h84v-1057z" />
    <glyph glyph-name="Ibreve" unicode="&#x12c;" horiz-adv-x="354" 
d="M352 1606q-73 -68 -176 -68q-104 0 -178 68q-73 67 -80 172h72q11 -79 59 -124q49 -46 125 -46q77 0 127 46q51 46 61 124h72q-12 -108 -82 -172zM221 0h-88v1458h88v-1458z" />
    <glyph glyph-name="ibreve" unicode="&#x12d;" horiz-adv-x="329" 
d="M342 1276q-73 -68 -176 -68q-104 0 -178 68q-69 63 -80 172h72q11 -79 59 -124q49 -46 125 -46q77 0 127 46q51 46 61 124h72q-12 -108 -82 -172zM207 0h-84v1057h84v-1057z" />
    <glyph glyph-name="Iogonek" unicode="&#x12e;" horiz-adv-x="354" 
d="M205 -356q36 0 74 16v-68q-37 -18 -84 -18q-73 0 -116 41q-42 41 -42 121q0 134 117 264h-21v1458h88v-1458q-115 -129 -115 -248q0 -108 99 -108z" />
    <glyph glyph-name="iogonek" unicode="&#x12f;" horiz-adv-x="329" 
d="M121 1403h88v-186h-88v186zM190 -356q38 0 74 16v-68q-33 -18 -84 -18q-155 0 -155 162q0 135 116 264h-18v1057h84v-1057q-115 -129 -115 -248q0 -108 98 -108z" />
    <glyph glyph-name="Idot" unicode="&#x130;" horiz-adv-x="354" 
d="M221 1546h-88v187h88v-187zM221 0h-88v1458h88v-1458z" />
    <glyph glyph-name="dotlessi" unicode="&#x131;" horiz-adv-x="329" 
d="M207 0h-84v1057h84v-1057z" />
    <glyph glyph-name="IJ" unicode="&#x132;" horiz-adv-x="1429" 
d="M221 0h-88v1458h88v-1458zM1198 90q-122 -123 -321 -123q-203 0 -320 123q-119 122 -119 326v86h86v-86q0 -167 96 -269q94 -100 257 -100t257 99q95 100 95 270v1042h88v-1042q0 -204 -119 -326z" />
    <glyph glyph-name="ij" unicode="&#x133;" horiz-adv-x="659" 
d="M209 1217h-88v186h88v-186zM539 1217h-88v186h88v-186zM207 0h-84v1057h84v-1057zM315 -406q-41 0 -77 3v71h69q80 0 113 35t33 113v1241h84v-1247q0 -109 -54 -163q-53 -53 -168 -53z" />
    <glyph glyph-name="Jcircumflex" unicode="&#x134;" horiz-adv-x="1075" 
d="M856 1841h123l188 -295h-80l-169 244l-170 -244h-80zM874 416v1042h89v-1042q0 -202 -119 -326q-118 -123 -322 -123q-200 0 -319 122t-119 327v86h86v-86q0 -168 95 -269q94 -100 257 -100q162 0 257 99q95 100 95 270z" />
    <glyph glyph-name="jcircumflex" unicode="&#x135;" horiz-adv-x="329" 
d="M104 1511h123l189 -294h-80l-170 243l-170 -243h-80zM123 -184v1241h84v-1247q0 -110 -53 -163t-168 -53q-42 0 -78 3v71h69q80 0 113 35t33 113z" />
    <glyph glyph-name="uni0136" unicode="&#x136;" horiz-adv-x="1286" 
d="M1249 1458l-649 -614l662 -844h-109l-616 786l-316 -297v-489h-88v1458h88v-864l912 864h116zM678 -205h-74v117h127v-158q0 -78 -25 -118q-24 -39 -85 -54l-25 -6v51l16 4q66 23 66 121v43z" />
    <glyph glyph-name="uni0137" unicode="&#x137;" horiz-adv-x="999" 
d="M940 1057l-430 -391l461 -666h-97l-425 610l-242 -217v-393h-84v1458h84v-966l620 565h113zM543 -276h-74v116h127v-157q0 -77 -26 -118q-24 -39 -85 -54l-24 -7v52l16 4q66 22 66 121v43z" />
    <glyph glyph-name="kgreenlandic" unicode="&#x138;" horiz-adv-x="999" 
d="M971 0h-97l-425 610l-242 -217v-393h-84v1057h84v-565l620 565h113l-430 -391z" />
    <glyph glyph-name="Lacute" unicode="&#x139;" horiz-adv-x="1028" 
d="M344 1841h113l-242 -295h-78zM221 1458v-1378h762v-80h-850v1458h88z" />
    <glyph glyph-name="lacute" unicode="&#x13a;" horiz-adv-x="329" 
d="M365 1841l-162 -295h-72l133 295h101zM207 0h-84v1458h84v-1458z" />
    <glyph glyph-name="uni013B" unicode="&#x13b;" horiz-adv-x="1028" 
d="M221 1458v-1378h762v-80h-850v1458h88zM571 -205h-73v117h127v-158q0 -77 -26 -118q-24 -39 -85 -54l-25 -6v51l17 4q65 22 65 121v43z" />
    <glyph glyph-name="uni013C" unicode="&#x13c;" horiz-adv-x="329" 
d="M123 1458h84v-1458h-84v1458zM104 -276v116h127v-157q0 -78 -25 -118q-24 -39 -85 -54l-25 -7v52l17 4q65 22 65 121v43h-74z" />
    <glyph glyph-name="Lcaron" unicode="&#x13d;" horiz-adv-x="1028" 
d="M221 1458v-1378h762v-80h-850v1458h88zM575 1458h95l-129 -340h-66z" />
    <glyph glyph-name="lcaron" unicode="&#x13e;" horiz-adv-x="466" 
d="M207 0h-84v1458h84v-1458zM356 1118h-65l100 340h96z" />
    <glyph glyph-name="Ldot" unicode="&#x13f;" horiz-adv-x="1028" 
d="M221 1458v-1378h762v-80h-850v1458h88zM629 821h131v-131h-131v131z" />
    <glyph glyph-name="ldot" unicode="&#x140;" horiz-adv-x="651" 
d="M207 0h-84v1458h84v-1458zM559 662h-129v129h129v-129z" />
    <glyph glyph-name="Lslash" unicode="&#x141;" horiz-adv-x="1077" 
d="M268 739v-659h762v-80h-848v698l-182 -86v78l182 86v682h86v-641l420 201v-78z" />
    <glyph glyph-name="lslash" unicode="&#x142;" horiz-adv-x="448" 
d="M266 797l183 106v-82l-183 -106v-715h-84v664l-182 -107v82l182 106v713h84v-661z" />
    <glyph glyph-name="Nacute" unicode="&#x143;" horiz-adv-x="1374" 
d="M854 1841h113l-242 -295h-78zM1153 487v971h88v-1458h-108l-717 1042q-135 205 -199 310q2 -126 2 -381v-971h-86v1458h109l716 -1042q174 -265 199 -307q-4 168 -4 378z" />
    <glyph glyph-name="nacute" unicode="&#x144;" horiz-adv-x="1069" 
d="M700 1511h113l-242 -294h-77zM569 1081q180 0 279 -102q98 -101 98 -293v-686h-84v678q0 159 -80 244q-80 84 -227 84q-142 0 -244 -105q-103 -106 -104 -313v-588h-84v1057h80v-230q46 120 141 187t225 67z" />
    <glyph glyph-name="uni0145" unicode="&#x145;" horiz-adv-x="1374" 
d="M1153 487v971h88v-1458h-108l-717 1042q-135 205 -199 310q2 -126 2 -381v-971h-86v1458h109l716 -1042q174 -265 199 -307q-4 168 -4 378zM700 -205h-73v117h127v-158q0 -77 -26 -118q-24 -39 -85 -54l-25 -6v51l17 4q65 22 65 121v43z" />
    <glyph glyph-name="uni0146" unicode="&#x146;" horiz-adv-x="1069" 
d="M569 1081q180 0 279 -102q98 -101 98 -293v-686h-84v678q0 159 -80 244q-80 84 -227 84q-142 0 -244 -105q-103 -106 -104 -313v-588h-84v1057h80v-230q46 120 141 187t225 67zM543 -276h-74v116h127v-157q0 -77 -26 -118q-24 -39 -85 -54l-24 -7v52l16 4q66 22 66 121
v43z" />
    <glyph glyph-name="Ncaron" unicode="&#x147;" horiz-adv-x="1374" 
d="M991 1841l-241 -295h-127l-242 295h86l219 -244l219 244h86zM1153 487v971h88v-1458h-108l-717 1042q-135 205 -199 310q2 -126 2 -381v-971h-86v1458h109l716 -1042q174 -265 199 -307q-4 168 -4 378z" />
    <glyph glyph-name="ncaron" unicode="&#x148;" horiz-adv-x="1069" 
d="M840 1511l-242 -294h-127l-242 294h86l220 -243l219 243h86zM569 1081q180 0 279 -102q98 -101 98 -293v-686h-84v678q0 159 -80 244q-80 84 -227 84q-142 0 -244 -105q-103 -106 -104 -313v-588h-84v1057h80v-230q46 120 141 187t225 67z" />
    <glyph glyph-name="napostrophe" unicode="&#x149;" horiz-adv-x="1296" 
d="M166 1331h-68v127h129v-182q0 -172 -118 -211l-17 -6v61l10 4q64 30 64 146v61zM797 1081q179 0 278 -102t99 -293v-686h-87v678q0 162 -78 244q-79 84 -227 84q-142 0 -243 -105t-105 -313v-588h-84v1057h80v-230q46 120 141 187t226 67z" />
    <glyph glyph-name="Eng" unicode="&#x14a;" horiz-adv-x="1374" 
d="M1153 487v971h88v-1530q0 -334 -348 -334q-50 0 -123 5v73q55 -4 119 -4q129 0 198 66q70 67 70 194v66l-731 1048q-168 245 -209 316q2 -128 2 -387v-971h-86v1458h109l727 -1040l186 -281q-2 114 -2 350z" />
    <glyph glyph-name="eng" unicode="&#x14b;" horiz-adv-x="1069" 
d="M569 1081q180 0 279 -102q98 -101 98 -293v-876q0 -110 -53 -163t-168 -53q-42 0 -78 3v71h68q78 0 113 35q34 34 34 113v862q0 159 -80 244q-80 84 -227 84q-142 0 -244 -105q-103 -106 -104 -313v-588h-84v1057h80v-230q46 120 141 187t225 67z" />
    <glyph glyph-name="Omacron" unicode="&#x14c;" horiz-adv-x="1497" 
d="M1018 1579h-541v72h541v-72zM750 -33q-310 0 -490 211q-182 212 -182 551t182 551q180 211 490 211q305 0 489 -211q182 -212 182 -551q0 -337 -182 -549q-185 -213 -489 -213zM328 238q156 -191 422 -191q264 0 421 189q158 190 158 493q0 304 -158 494
q-157 188 -421 188q-265 0 -422 -188q-160 -192 -160 -494q0 -301 160 -491z" />
    <glyph glyph-name="omacron" unicode="&#x14d;" horiz-adv-x="1116" 
d="M827 1217h-540v71h540v-71zM905 129q-131 -154 -348 -154q-212 0 -346 154q-133 155 -133 399q0 245 133 400q134 153 346 153q217 0 348 -153q133 -155 133 -400q0 -244 -133 -399zM557 51q180 0 287 131q106 130 106 346t-106 346q-108 132 -287 132q-177 0 -285 -132
q-106 -130 -106 -346t106 -346q107 -131 285 -131z" />
    <glyph glyph-name="Obreve" unicode="&#x14e;" horiz-adv-x="1497" 
d="M950 1647q-76 -76 -200 -76q-125 0 -201 76q-83 74 -90 190h71q12 -90 70 -143q59 -54 148 -54t150 55t71 142h71q-12 -113 -90 -190zM750 -33q-310 0 -490 211q-182 212 -182 551t182 551q180 211 490 211q305 0 489 -211q182 -212 182 -551q0 -337 -182 -549
q-185 -213 -489 -213zM328 238q156 -191 422 -191q264 0 421 189q158 190 158 493q0 304 -158 494q-157 188 -421 188q-265 0 -422 -188q-160 -192 -160 -494q0 -301 160 -491z" />
    <glyph glyph-name="obreve" unicode="&#x14f;" horiz-adv-x="1116" 
d="M758 1284q-76 -76 -201 -76t-201 76q-82 73 -90 191h72q12 -91 70 -144t147 -53q91 0 151 54q59 53 70 143h72q-12 -115 -90 -191zM905 129q-131 -154 -348 -154q-212 0 -346 154q-133 155 -133 399q0 245 133 400q134 153 346 153q217 0 348 -153q133 -155 133 -400
q0 -244 -133 -399zM557 51q180 0 287 131q106 130 106 346t-106 346q-108 132 -287 132q-177 0 -285 -132q-106 -130 -106 -346t106 -346q107 -131 285 -131z" />
    <glyph glyph-name="Ohungarumlaut" unicode="&#x150;" horiz-adv-x="1497" 
d="M631 1579h-74l205 295h108zM915 1579h-73l207 295h106zM750 -33q-310 0 -490 211q-182 212 -182 551t182 551q180 211 490 211q305 0 489 -211q182 -212 182 -551q0 -337 -182 -549q-185 -213 -489 -213zM328 238q156 -191 422 -191q264 0 421 189q158 190 158 493
q0 304 -158 494q-157 188 -421 188q-265 0 -422 -188q-160 -192 -160 -494q0 -301 160 -491z" />
    <glyph glyph-name="ohungarumlaut" unicode="&#x151;" horiz-adv-x="1116" 
d="M465 1217h-74l205 294h109zM750 1217h-74l207 294h106zM905 129q-131 -154 -348 -154q-212 0 -346 154q-133 155 -133 399q0 245 133 400q134 153 346 153q217 0 348 -153q133 -155 133 -400q0 -244 -133 -399zM557 51q180 0 287 131q106 130 106 346t-106 346
q-108 132 -287 132q-177 0 -285 -132q-106 -130 -106 -346t106 -346q107 -131 285 -131z" />
    <glyph glyph-name="OE" unicode="&#x152;" horiz-adv-x="2359" 
d="M1417 723v-643h881v-80h-969v346q-79 -180 -227 -279q-148 -100 -352 -100q-310 0 -490 211q-182 212 -182 551t182 551q180 211 490 211q205 0 352 -99t227 -280v346h961v-80h-873v-575h791v-80h-791zM328 238q156 -191 422 -191q264 0 421 189q158 190 158 493
q0 304 -158 494q-157 188 -421 188q-265 0 -422 -188q-160 -192 -160 -494q0 -301 160 -491z" />
    <glyph glyph-name="oe" unicode="&#x153;" horiz-adv-x="1959" 
d="M1884 532q0 -22 -2 -30h-844q6 -212 108 -330q102 -119 279 -119q141 0 232 79q93 81 121 216h84q-30 -167 -147 -271q-115 -102 -292 -102q-157 0 -269 80q-111 79 -161 228q-56 -150 -169 -228q-115 -80 -267 -80q-212 0 -346 154q-133 155 -133 399q0 245 133 400
q134 153 346 153q152 0 267 -80q113 -79 169 -227q51 147 161 227t263 80q223 0 346 -153q121 -157 121 -396zM557 51q180 0 287 131q106 130 106 346t-106 346q-108 132 -287 132q-177 0 -285 -132q-106 -130 -106 -346t106 -346q107 -131 285 -131zM1417 1004
q-165 0 -266 -114t-111 -310h754q-7 192 -107 308q-99 116 -270 116z" />
    <glyph glyph-name="Racute" unicode="&#x154;" horiz-adv-x="1275" 
d="M799 1841h112l-241 -295h-78zM1155 410l12 -240q6 -106 52 -170h-91q-42 54 -47 172l-10 207q-6 151 -81 219q-76 68 -245 68h-524v-666h-88v1458h592q218 0 340 -100q123 -100 123 -287q0 -147 -77 -241q-76 -92 -216 -119q130 -22 192 -97q62 -74 68 -204zM221 745h512
q171 0 266 82q97 83 97 240q0 151 -98 231t-273 80h-504v-633z" />
    <glyph glyph-name="racute" unicode="&#x155;" horiz-adv-x="694" 
d="M502 1511h100l-162 -294h-71zM584 1069q41 0 63 -2v-80q-20 2 -57 2q-182 0 -283 -108q-100 -107 -100 -295v-586h-84v1057h80v-248q44 120 141 189q100 71 240 71z" />
    <glyph glyph-name="uni0156" unicode="&#x156;" horiz-adv-x="1275" 
d="M1155 410l12 -240q6 -106 52 -170h-91q-42 54 -47 172l-10 207q-6 151 -81 219q-76 68 -245 68h-524v-666h-88v1458h592q218 0 340 -100q123 -100 123 -287q0 -147 -77 -241q-76 -92 -216 -119q130 -22 192 -97q62 -74 68 -204zM221 745h512q171 0 266 82q97 83 97 240
q0 151 -98 231t-273 80h-504v-633zM686 -205h-74v117h127v-158q0 -78 -25 -118q-24 -39 -85 -54l-25 -6v51l17 4q65 22 65 121v43z" />
    <glyph glyph-name="uni0157" unicode="&#x157;" horiz-adv-x="694" 
d="M584 1069q41 0 63 -2v-80q-20 2 -57 2q-182 0 -283 -108q-100 -107 -100 -295v-586h-84v1057h80v-248q44 120 141 189q100 71 240 71zM178 -276h-74v116h127v-157q0 -78 -25 -118q-24 -39 -85 -54l-25 -7v52l17 4q65 22 65 121v43z" />
    <glyph glyph-name="Rcaron" unicode="&#x158;" horiz-adv-x="1275" 
d="M936 1841l-242 -295h-127l-241 295h86l219 -244l219 244h86zM1155 410l12 -240q6 -106 52 -170h-91q-42 54 -47 172l-10 207q-6 151 -81 219q-76 68 -245 68h-524v-666h-88v1458h592q218 0 340 -100q123 -100 123 -287q0 -147 -77 -241q-76 -92 -216 -119
q130 -22 192 -97q62 -74 68 -204zM221 745h512q171 0 266 82q97 83 97 240q0 151 -98 231t-273 80h-504v-633z" />
    <glyph glyph-name="rcaron" unicode="&#x159;" horiz-adv-x="694" 
d="M651 1511l-188 -294h-123l-188 294h79l170 -243l170 243h80zM203 1057v-248q44 120 141 189q100 71 240 71q41 0 63 -2v-80q-20 2 -57 2q-182 0 -283 -108q-100 -107 -100 -295v-586h-84v1057h80z" />
    <glyph glyph-name="Sacute" unicode="&#x15a;" horiz-adv-x="1230" 
d="M645 1579h-78l207 295h113zM647 -33q-552 0 -579 457h90q21 -377 489 -377q211 0 324 87q112 87 112 241q0 128 -89 205q-87 75 -300 116l-153 29q-217 43 -321 138q-103 94 -103 259q0 169 130 269t357 100q258 0 390 -111t136 -301h-90q-17 332 -436 332
q-190 0 -294 -78q-103 -78 -103 -211q0 -131 84 -203q85 -73 289 -116l151 -29q240 -50 341 -143q102 -95 102 -256q0 -185 -139 -297q-138 -111 -388 -111z" />
    <glyph glyph-name="sacute" unicode="&#x15b;" horiz-adv-x="958" 
d="M516 1217h-78l207 294h113zM492 -25q-200 0 -311 93q-109 91 -120 256h86q23 -275 345 -275q321 0 321 223q0 92 -61 141t-209 76l-117 19q-172 28 -252 99t-80 194q0 130 100 206q98 74 275 74q387 0 408 -313h-86q-10 119 -88 180q-77 60 -234 60q-135 0 -214 -54
q-77 -53 -77 -151q0 -94 65 -144q62 -47 212 -75l114 -19q171 -30 251 -99q79 -69 79 -190q0 -145 -109 -223q-110 -78 -298 -78z" />
    <glyph glyph-name="Scircumflex" unicode="&#x15c;" horiz-adv-x="1230" 
d="M825 1579l-219 244l-219 -244h-86l242 295h127l241 -295h-86zM580 803l151 -29q240 -50 341 -143q102 -95 102 -256q0 -185 -139 -297q-138 -111 -388 -111q-552 0 -579 457h90q21 -377 489 -377q211 0 324 87q112 87 112 241q0 128 -89 205q-87 75 -300 116l-153 29
q-217 43 -321 138q-103 94 -103 259q0 169 130 269t357 100q258 0 390 -111t136 -301h-90q-17 332 -436 332q-190 0 -294 -78q-103 -78 -103 -211q0 -131 84 -203q85 -73 289 -116z" />
    <glyph glyph-name="scircumflex" unicode="&#x15d;" horiz-adv-x="958" 
d="M698 1217l-219 243l-219 -243h-86l242 294h127l241 -294h-86zM455 584l114 -19q171 -30 251 -99q79 -69 79 -190q0 -145 -109 -223q-110 -78 -298 -78q-200 0 -311 93q-109 91 -120 256h86q23 -275 345 -275q321 0 321 223q0 92 -61 141t-209 76l-117 19q-172 28 -252 99
t-80 194q0 130 100 206q98 74 275 74q387 0 408 -313h-86q-10 119 -88 180q-77 60 -234 60q-135 0 -214 -54q-77 -53 -77 -151q0 -94 65 -144q62 -47 212 -75z" />
    <glyph glyph-name="Scedilla" unicode="&#x15e;" horiz-adv-x="1230" 
d="M1174 375q0 -180 -128 -290q-129 -111 -362 -118l-86 -119q6 2 20 2q99 0 150 -38q53 -39 53 -107q0 -81 -65 -125q-66 -45 -193 -45q-62 0 -106 10v54q56 -9 104 -9q85 0 131 30q47 30 47 83q0 100 -166 100q-27 0 -43 -2v45l82 121q-516 15 -544 457h90
q21 -377 489 -377q211 0 324 87q112 87 112 241q0 128 -89 205q-87 75 -300 116l-153 29q-217 43 -321 138q-103 94 -103 259q0 169 130 269t357 100q258 0 390 -111t136 -301h-90q-17 332 -436 332q-190 0 -294 -78q-103 -78 -103 -211q0 -131 84 -203q85 -73 289 -116
l151 -29q240 -50 341 -143q102 -95 102 -256z" />
    <glyph glyph-name="scedilla" unicode="&#x15f;" horiz-adv-x="958" 
d="M899 276q0 -140 -98 -216q-100 -78 -273 -85l-86 -118q6 2 21 2q97 0 149 -39q54 -40 54 -107q0 -80 -66 -125t-192 -45q-58 0 -107 11v53q50 -8 105 -8q86 0 131 29q47 30 47 83q0 101 -166 101q-27 0 -43 -2v45l84 120q-185 7 -287 100q-100 91 -111 249h86
q23 -275 345 -275q321 0 321 223q0 92 -61 141t-209 76l-117 19q-172 28 -252 99t-80 194q0 130 100 206q98 74 275 74q387 0 408 -313h-86q-10 119 -88 180q-77 60 -234 60q-135 0 -214 -54q-77 -53 -77 -151q0 -94 65 -144q62 -47 212 -75l114 -19q171 -30 251 -99
q79 -69 79 -190z" />
    <glyph glyph-name="Scaron" unicode="&#x160;" horiz-adv-x="1230" 
d="M911 1874l-241 -295h-127l-242 295h86l219 -244l219 244h86zM580 803l151 -29q240 -50 341 -143q102 -95 102 -256q0 -185 -139 -297q-138 -111 -388 -111q-552 0 -579 457h90q21 -377 489 -377q211 0 324 87q112 87 112 241q0 128 -89 205q-87 75 -300 116l-153 29
q-217 43 -321 138q-103 94 -103 259q0 169 130 269t357 100q258 0 390 -111t136 -301h-90q-17 332 -436 332q-190 0 -294 -78q-103 -78 -103 -211q0 -131 84 -203q85 -73 289 -116z" />
    <glyph glyph-name="scaron" unicode="&#x161;" horiz-adv-x="958" 
d="M784 1511l-241 -294h-127l-242 294h86l219 -243l219 243h86zM455 584l114 -19q171 -30 251 -99q79 -69 79 -190q0 -145 -109 -223q-110 -78 -298 -78q-200 0 -311 93q-109 91 -120 256h86q23 -275 345 -275q321 0 321 223q0 92 -61 141t-209 76l-117 19q-172 28 -252 99
t-80 194q0 130 100 206q98 74 275 74q387 0 408 -313h-86q-10 119 -88 180q-77 60 -234 60q-135 0 -214 -54q-77 -53 -77 -151q0 -94 65 -144q62 -47 212 -75z" />
    <glyph glyph-name="uni0162" unicode="&#x162;" horiz-adv-x="1245" 
d="M668 1378v-1378h-9l-88 -121q6 2 21 2q96 0 149 -39q54 -40 54 -106q0 -80 -66 -125t-192 -45q-63 0 -107 10v53q50 -8 105 -8q85 0 131 30q47 30 47 83q0 100 -166 100q-27 0 -43 -2v45l84 123h-10v1378h-531v80h1151v-80h-530z" />
    <glyph glyph-name="uni0163" unicode="&#x163;" horiz-adv-x="600" 
d="M555 1057v-74h-264v-766q0 -76 40 -112q39 -35 128 -35q72 0 96 2v-72q-84 -4 -106 -4q-27 0 -35 2l-86 -119q6 2 20 2q98 0 150 -39q53 -39 53 -106q0 -80 -66 -125t-192 -45q-63 0 -107 10v53q50 -8 105 -8q85 0 131 30q47 30 47 83q0 100 -166 100q-27 0 -43 -2v45
l88 129h6q-147 37 -147 205v772h-182v74h182v299h84v-299h264z" />
    <glyph glyph-name="Tcaron" unicode="&#x164;" horiz-adv-x="1245" 
d="M928 1841l-242 -295h-127l-242 295h86l220 -244l219 244h86zM47 1458h1151v-80h-530v-1378h-90v1378h-531v80z" />
    <glyph glyph-name="tcaron" unicode="&#x165;" horiz-adv-x="600" 
d="M508 1458h96l-129 -340h-65zM207 1356h84v-299h264v-74h-264v-766q0 -76 40 -112q39 -35 128 -35q72 0 96 2v-72q-84 -4 -106 -4q-242 0 -242 215v772h-182v74h182v299z" />
    <glyph glyph-name="Tbar" unicode="&#x166;" horiz-adv-x="1245" 
d="M1198 1458v-80h-530v-587h305v-70h-305v-721h-90v721h-308v70h308v587h-531v80h1151z" />
    <glyph glyph-name="tbar" unicode="&#x167;" horiz-adv-x="600" 
d="M555 1057v-74h-264v-403h264v-70h-264v-293q0 -76 40 -112q39 -35 128 -35q72 0 96 2v-72q-84 -4 -106 -4q-242 0 -242 215v299h-180v70h180v403h-182v74h182v299h84v-299h264z" />
    <glyph glyph-name="Utilde" unicode="&#x168;" horiz-adv-x="1312" 
d="M412 1546h-72q0 223 154 223q65 0 176 -77q89 -68 141 -68q48 0 67 34q20 35 21 111h72q0 -223 -154 -223q-63 0 -178 80q-96 66 -139 66q-48 0 -67 -34q-20 -35 -21 -112zM657 -33q-256 0 -401 143q-143 142 -143 412v936h88v-936q0 -236 118 -355q119 -120 338 -120
t338 120q119 121 119 355v936h86v-936q0 -270 -143 -412q-145 -143 -400 -143z" />
    <glyph glyph-name="utilde" unicode="&#x169;" horiz-adv-x="1069" 
d="M367 1362q-48 0 -67 -34q-20 -35 -21 -111h-72q0 223 153 223q64 0 177 -78q91 -68 141 -68q47 0 66 34q21 36 22 112h72q0 -223 -154 -223q-66 0 -178 79q-96 66 -139 66zM862 469v588h84v-1057h-82v223q-49 -117 -143 -182q-95 -66 -221 -66q-179 0 -279 103
q-98 101 -98 293v686h84v-678q0 -159 80 -244q79 -84 227 -84q146 0 246 105q97 100 102 313z" />
    <glyph glyph-name="Umacron" unicode="&#x16a;" horiz-adv-x="1312" 
d="M926 1546h-541v72h541v-72zM657 -33q-256 0 -401 143q-143 142 -143 412v936h88v-936q0 -236 118 -355q119 -120 338 -120t338 120q119 121 119 355v936h86v-936q0 -270 -143 -412q-145 -143 -400 -143z" />
    <glyph glyph-name="umacron" unicode="&#x16b;" horiz-adv-x="1069" 
d="M252 1288h541v-71h-541v71zM862 469v588h84v-1057h-82v223q-49 -117 -143 -182q-95 -66 -221 -66q-179 0 -279 103q-98 101 -98 293v686h84v-678q0 -159 80 -244q79 -84 227 -84q146 0 246 105q97 100 102 313z" />
    <glyph glyph-name="Ubreve" unicode="&#x16c;" horiz-adv-x="1312" 
d="M858 1614q-76 -76 -201 -76q-124 0 -200 76q-83 74 -90 190h71q12 -90 70 -143t147 -53q91 0 151 54q61 55 71 142h71q-12 -113 -90 -190zM657 -33q-256 0 -401 143q-143 142 -143 412v936h88v-936q0 -236 118 -355q119 -120 338 -120t338 120q119 121 119 355v936h86
v-936q0 -270 -143 -412q-145 -143 -400 -143z" />
    <glyph glyph-name="ubreve" unicode="&#x16d;" horiz-adv-x="1069" 
d="M725 1284q-76 -76 -201 -76q-124 0 -200 76q-84 74 -91 191h72q12 -91 70 -144t147 -53q91 0 151 54q59 53 70 143h72q-12 -115 -90 -191zM862 469v588h84v-1057h-82v223q-49 -117 -143 -182q-95 -66 -221 -66q-179 0 -279 103q-98 101 -98 293v686h84v-678
q0 -159 80 -244q79 -84 227 -84q146 0 246 105q97 100 102 313z" />
    <glyph glyph-name="Uring" unicode="&#x16e;" horiz-adv-x="1312" 
d="M657 1395q-96 0 -161 64q-66 65 -66 159t66 159q65 64 161 64t161 -64q67 -65 67 -159t-67 -159q-65 -64 -161 -64zM545 1507q52 -47 112 -47q63 0 113 46q51 47 47 112q0 68 -46 113q-47 45 -114 45t-113 -45t-46 -113q0 -64 47 -111zM657 -33q-256 0 -401 143
q-143 142 -143 412v936h88v-936q0 -236 118 -355q119 -120 338 -120t338 120q119 121 119 355v936h86v-936q0 -270 -143 -412q-145 -143 -400 -143z" />
    <glyph glyph-name="uring" unicode="&#x16f;" horiz-adv-x="1069" 
d="M522 1212q-93 0 -160 65q-65 64 -65 159t65 157q67 64 160 64q96 0 163 -64t67 -157q0 -94 -67 -159t-163 -65zM522 1593q-65 0 -111 -46t-46 -111q0 -68 46 -114t111 -46q69 0 115 46q47 47 47 114q0 64 -47 111q-46 46 -115 46zM862 469v588h84v-1057h-82v223
q-49 -117 -143 -182q-95 -66 -221 -66q-179 0 -279 103q-98 101 -98 293v686h84v-678q0 -159 80 -244q79 -84 227 -84q146 0 246 105q97 100 102 313z" />
    <glyph glyph-name="Uhungarumlaut" unicode="&#x170;" horiz-adv-x="1312" 
d="M539 1546h-74l205 295h108zM823 1546h-73l206 295h107zM657 -33q-256 0 -401 143q-143 142 -143 412v936h88v-936q0 -236 118 -355q119 -120 338 -120t338 120q119 121 119 355v936h86v-936q0 -270 -143 -412q-145 -143 -400 -143z" />
    <glyph glyph-name="uhungarumlaut" unicode="&#x171;" horiz-adv-x="1069" 
d="M561 1511h109l-240 -294h-74zM954 1511l-239 -294h-74l207 294h106zM862 469v588h84v-1057h-82v223q-49 -117 -143 -182q-95 -66 -221 -66q-179 0 -279 103q-98 101 -98 293v686h84v-678q0 -159 80 -244q79 -84 227 -84q146 0 246 105q97 100 102 313z" />
    <glyph glyph-name="Uogonek" unicode="&#x172;" horiz-adv-x="1312" 
d="M1114 522v936h86v-936q0 -207 -85 -340t-243 -184q-243 -127 -243 -248q0 -104 127 -104q62 0 118 22v-69q-64 -25 -131 -25q-89 0 -142 43q-54 43 -54 121q0 131 178 231q-20 -2 -68 -2q-256 0 -401 143q-143 142 -143 412v936h88v-936q0 -236 118 -355
q119 -120 338 -120t338 120q119 121 119 355z" />
    <glyph glyph-name="uogonek" unicode="&#x173;" horiz-adv-x="1069" 
d="M946 1057v-1057q-246 -128 -246 -250q0 -104 127 -104q59 0 119 22v-69q-64 -25 -131 -25q-89 0 -142 43q-55 44 -55 121q0 154 246 266v219q-49 -117 -143 -182q-95 -66 -221 -66q-179 0 -279 103q-98 101 -98 293v686h84v-678q0 -159 80 -244q79 -84 227 -84
q146 0 246 105q97 100 102 313v588h84z" />
    <glyph glyph-name="Wcircumflex" unicode="&#x174;" horiz-adv-x="1974" 
d="M1206 1546l-219 244l-219 -244h-86l242 295h127l241 -295h-86zM1546 473l314 985h90l-457 -1458h-102l-316 1036q-39 126 -88 316q-49 -190 -88 -316l-315 -1036h-103l-456 1458h90l313 -985q58 -189 107 -371q61 235 104 375l297 981h102l297 -981q49 -162 105 -375
q55 207 106 371z" />
    <glyph glyph-name="wcircumflex" unicode="&#x175;" horiz-adv-x="1628" 
d="M1034 1217l-219 243l-219 -243h-86l242 294h127l241 -294h-86zM1272 403l239 654h91l-385 -1057h-95l-233 713q-56 178 -76 243q-28 -107 -74 -243l-233 -713h-92l-385 1057h88l237 -654q62 -175 105 -309q53 173 96 309l213 654h92l213 -654q43 -136 96 -309
q12 37 103 309z" />
    <glyph glyph-name="Ycircumflex" unicode="&#x176;" horiz-adv-x="1277" 
d="M858 1546l-219 244l-219 -244h-86l241 295h127l242 -295h-86zM885 1071l268 387h100l-571 -827v-631h-88v631l-569 827h100l270 -389q78 -117 133 -199q75 -112 111 -163q37 57 246 364z" />
    <glyph glyph-name="ycircumflex" unicode="&#x177;" horiz-adv-x="974" 
d="M707 1217l-220 243l-219 -243h-86l242 294h127l242 -294h-86zM649 496l207 561h92l-450 -1198q-52 -139 -123 -201q-73 -64 -180 -64q-40 0 -82 3v71h80q147 0 225 209q9 23 37 96l-426 1084h92l217 -559q64 -165 160 -426q98 277 151 424z" />
    <glyph glyph-name="Ydieresis" unicode="&#x178;" horiz-adv-x="1277" 
d="M401 1733h88v-187h-88v187zM784 1733h88v-187h-88v187zM885 1071l268 387h100l-571 -827v-631h-88v631l-569 827h100l270 -389q78 -117 133 -199q75 -112 111 -163q37 57 246 364z" />
    <glyph glyph-name="Zacute" unicode="&#x179;" horiz-adv-x="1191" 
d="M768 1841h113l-242 -295h-78zM584 80h551v-80h-1078v80l707 960q140 189 256 342q-164 -4 -424 -4h-500v80h1028v-80l-708 -960q-140 -189 -256 -342q164 4 424 4z" />
    <glyph glyph-name="zacute" unicode="&#x17a;" horiz-adv-x="966" 
d="M649 1511h113l-242 -294h-78zM387 74h512v-74h-833v68l565 743q13 13 61 80q43 57 74 94q-66 -2 -221 -2h-457v74h778v-68l-563 -741q-28 -39 -137 -176q66 2 221 2z" />
    <glyph glyph-name="Zdotaccent" unicode="&#x17b;" horiz-adv-x="1191" 
d="M555 1733h90v-187h-90v187zM584 80h551v-80h-1078v80l707 960q140 189 256 342q-164 -4 -424 -4h-500v80h1028v-80l-708 -960q-140 -189 -256 -342q164 4 424 4z" />
    <glyph glyph-name="zdotaccent" unicode="&#x17c;" horiz-adv-x="966" 
d="M438 1403h90v-186h-90v186zM387 74h512v-74h-833v68l565 743q13 13 61 80q43 57 74 94q-66 -2 -221 -2h-457v74h778v-68l-563 -741q-28 -39 -137 -176q66 2 221 2z" />
    <glyph glyph-name="Zcaron" unicode="&#x17d;" horiz-adv-x="1191" 
d="M907 1841l-241 -295h-127l-242 295h86l219 -244l219 244h86zM584 80h551v-80h-1078v80l707 960q140 189 256 342q-164 -4 -424 -4h-500v80h1028v-80l-708 -960q-140 -189 -256 -342q164 4 424 4z" />
    <glyph glyph-name="zcaron" unicode="&#x17e;" horiz-adv-x="966" 
d="M788 1511l-241 -294h-127l-242 294h86l219 -243l219 243h86zM387 74h512v-74h-833v68l565 743q13 13 61 80q43 57 74 94q-66 -2 -221 -2h-457v74h778v-68l-563 -741q-28 -39 -137 -176q66 2 221 2z" />
    <glyph glyph-name="uni018F" unicode="&#x18f;" horiz-adv-x="1437" 
d="M711 1491q301 0 477 -209q172 -212 172 -555q0 -341 -172 -549q-172 -211 -473 -211q-305 0 -471 211t-166 547v25h1192q-6 303 -154 483q-147 178 -407 178q-203 0 -340 -120q-137 -121 -176 -324h-87q39 235 201 381q156 143 404 143zM715 47q248 0 395 170
q146 170 158 457h-1100q8 -276 154 -453q141 -174 393 -174z" />
    <glyph glyph-name="florin" unicode="&#x192;" horiz-adv-x="909" 
d="M782 1475q35 0 82 -7v-73q-61 4 -76 4q-163 0 -190 -174l-63 -437h249v-73h-260l-129 -887q-18 -132 -80 -192q-61 -60 -186 -60q-15 0 -84 4v76q43 -6 78 -6q164 0 188 176l129 889h-243v73h254l63 435q21 132 82 191q63 61 186 61z" />
    <glyph glyph-name="uni01F4" unicode="&#x1f4;" horiz-adv-x="1492" 
d="M907 1860h113l-242 -295h-78zM780 647v80h600v-727h-86l-2 326q-68 -173 -207 -266q-140 -93 -340 -93q-305 0 -485 211q-182 212 -182 551q0 341 178 553q179 209 487 209q255 0 418 -139q161 -141 201 -373h-92q-34 195 -176 314q-140 118 -351 118q-268 0 -421 -186
q-154 -190 -154 -496q0 -303 158 -493q158 -189 419 -189q255 0 402 168q145 169 145 432h-512z" />
    <glyph glyph-name="uni01F5" unicode="&#x1f5;" horiz-adv-x="1132" 
d="M725 1513h113l-242 -294h-78zM930 821v236h80v-1016q0 -467 -455 -467q-181 0 -285 85q-105 85 -123 237h84q34 -250 324 -250q191 0 281 96t90 299v186q-117 -252 -389 -252q-212 0 -336 154q-123 150 -123 399t123 402q123 151 336 151q136 0 237 -67q103 -68 156 -193
zM547 51q173 0 278 131q103 135 103 346t-103 346q-106 132 -278 132q-177 0 -279 -130t-102 -348q0 -216 102 -347q102 -130 279 -130z" />
    <glyph glyph-name="Aringacute" unicode="&#x1fa;" horiz-adv-x="1339" 
d="M1315 0h-94l-185 451h-735l-184 -451h-92l571 1405q-69 23 -112 81q-44 59 -44 132q0 86 61 152q60 65 150 71l183 262h110l-217 -270q75 -18 121 -78q47 -61 47 -137q0 -73 -44 -132q-43 -58 -112 -81zM508 1618q0 -65 47 -112q46 -46 113 -46q66 0 112 46q47 47 47 112
q0 68 -46 113t-113 45q-68 0 -114 -45t-46 -113zM498 934l-166 -406h672l-166 406q-44 106 -170 432q-126 -326 -170 -432z" />
    <glyph glyph-name="aringacute" unicode="&#x1fb;" horiz-adv-x="1032" 
d="M686 2103h113l-242 -295h-78zM518 1212q-93 0 -160 65q-65 64 -65 159t65 157q67 64 160 64q96 0 163 -64t67 -157q0 -94 -67 -159t-163 -65zM518 1593q-65 0 -111 -46q-47 -47 -47 -111q0 -67 47 -114q46 -46 111 -46q69 0 115 46q47 47 47 114q0 64 -47 111
q-46 46 -115 46zM985 68q13 0 26 1t23 1v-70q-40 -4 -63 -4q-79 0 -117 39q-37 38 -37 123v51q-108 -234 -409 -234q-164 0 -255 81q-92 81 -92 218q0 268 369 314l170 20q122 16 169 59q46 42 46 130q0 211 -295 211q-172 0 -249 -62t-83 -201h-82q4 168 105 252t309 84
q189 0 282 -75q95 -77 95 -209v-635q0 -94 88 -94zM412 47q183 0 293 100t110 289v185q-51 -59 -203 -80l-170 -23q-154 -21 -224 -78q-71 -57 -71 -164q0 -106 69 -167q70 -62 196 -62z" />
    <glyph glyph-name="AEacute" unicode="&#x1fc;" horiz-adv-x="2066" 
d="M1563 1841h112l-241 -295h-78zM1186 723v-643h821v-80h-909v451h-731l-244 -451h-98l790 1458h1184v-80h-813v-575h731v-80h-731zM868 1378l-460 -850h690v850h-230z" />
    <glyph glyph-name="aeacute" unicode="&#x1fd;" horiz-adv-x="1761" 
d="M1063 1511h113l-242 -294h-78zM1683 532v-30h-804q6 -212 102 -330q96 -119 266 -119q133 0 221 79t115 216h80q-28 -169 -139 -271t-277 -102q-283 0 -397 263q-52 -127 -169 -195q-116 -68 -273 -68q-164 0 -255 81q-92 81 -92 218q0 268 369 314l170 20q122 16 169 59
q46 42 46 130q0 211 -295 211q-172 0 -249 -62t-83 -201h-82q4 168 105 252t309 84q305 0 365 -194q121 194 354 194q213 0 330 -153q114 -158 114 -396zM1239 1004q-158 0 -253 -113q-94 -112 -105 -311h718q-11 196 -104 309q-95 115 -256 115zM412 47q164 0 272 84
q109 85 127 242q-14 62 -14 155q0 17 4 78q-53 -47 -189 -65l-170 -23q-154 -21 -224 -78q-71 -57 -71 -164q0 -106 69 -167q70 -62 196 -62z" />
    <glyph glyph-name="Oslashacute" unicode="&#x1fe;" horiz-adv-x="1497" 
d="M915 1874h113l-242 -295h-77zM1405 1522l57 -49l-198 -224q157 -211 157 -520q0 -337 -182 -549q-185 -213 -489 -213q-280 0 -463 185l-193 -218l-57 50l199 225q-158 208 -158 520q0 339 182 551q180 211 490 211q279 0 462 -184zM168 729q0 -275 129 -455l858 967
q-153 170 -405 170q-265 0 -422 -188q-160 -192 -160 -494zM1329 729q0 271 -127 453l-858 -967q156 -168 406 -168q264 0 421 189q158 190 158 493z" />
    <glyph glyph-name="oslashacute" unicode="&#x1ff;" horiz-adv-x="1114" 
d="M725 1511h113l-242 -294h-78zM1008 1102l53 -47l-133 -154q110 -152 110 -373q0 -244 -133 -399q-131 -154 -348 -154q-197 0 -324 127l-127 -147l-53 47l133 154q-108 152 -108 372q0 245 133 400q134 153 346 153q197 0 324 -127zM166 528q0 -180 78 -307l583 672
q-107 113 -270 113q-177 0 -285 -132q-106 -130 -106 -346zM950 528q0 180 -80 308l-581 -672q101 -113 268 -113q180 0 287 131q106 130 106 346z" />
    <glyph glyph-name="uni0218" unicode="&#x218;" horiz-adv-x="1230" 
d="M580 803l151 -29q240 -50 341 -143q102 -95 102 -256q0 -185 -139 -297q-138 -111 -388 -111q-552 0 -579 457h90q21 -377 489 -377q211 0 324 87q112 87 112 241q0 128 -89 205q-87 75 -300 116l-153 29q-217 43 -321 138q-103 94 -103 259q0 169 130 269t357 100
q258 0 390 -111t136 -301h-90q-17 332 -436 332q-190 0 -294 -78q-103 -78 -103 -211q0 -131 84 -203q85 -73 289 -116zM662 -236h-74v117h127v-157q0 -77 -26 -118q-25 -40 -85 -55l-24 -6v52l16 4q66 23 66 120v43z" />
    <glyph glyph-name="uni0219" unicode="&#x219;" horiz-adv-x="958" 
d="M455 584l114 -19q171 -30 251 -99q79 -69 79 -190q0 -145 -109 -223q-110 -78 -298 -78q-200 0 -311 93q-109 91 -120 256h86q23 -275 345 -275q321 0 321 223q0 92 -61 141t-209 76l-117 19q-172 28 -252 99t-80 194q0 130 100 206q98 74 275 74q387 0 408 -313h-86
q-10 119 -88 180q-77 60 -234 60q-135 0 -214 -54q-77 -53 -77 -151q0 -94 65 -144q62 -47 212 -75zM506 -299h-74v117h127v-158q0 -78 -25 -118q-24 -39 -85 -54l-25 -6v51l16 4q66 23 66 121v43z" />
    <glyph glyph-name="uni021A" unicode="&#x21a;" horiz-adv-x="1245" 
d="M47 1378v80h1151v-80h-530v-1378h-90v1378h-531zM637 -205h-74v117h127v-158q0 -78 -25 -118q-24 -39 -85 -54l-25 -6v51l16 4q66 23 66 121v43z" />
    <glyph glyph-name="uni021B" unicode="&#x21b;" horiz-adv-x="600" 
d="M555 1057v-74h-264v-766q0 -76 40 -112q39 -35 128 -35q72 0 96 2v-72q-84 -4 -106 -4q-242 0 -242 215v772h-182v74h182v299h84v-299h264zM393 -276h-74v116h127v-157q0 -78 -25 -118q-24 -39 -85 -54l-25 -7v52l17 4q65 22 65 121v43z" />
    <glyph glyph-name="uni0237" unicode="&#x237;" horiz-adv-x="329" 
d="M-14 -406q-42 0 -78 3v71h69q80 0 113 35t33 113v1241h84v-1247q0 -110 -53 -163t-168 -53z" />
    <glyph glyph-name="uni0259" unicode="&#x259;" horiz-adv-x="1087" 
d="M541 1081q217 0 344 -151q125 -151 125 -402q0 -250 -123 -401q-128 -152 -344 -152q-223 0 -342 156q-123 153 -123 393v31h846q-6 209 -108 329t-277 120q-141 0 -235 -79q-96 -81 -124 -216h-86q30 167 150 271q117 101 297 101zM543 53q165 0 267 114
q101 113 112 310h-756q11 -196 109 -309q100 -115 268 -115z" />
    <glyph glyph-name="h.sups" unicode="&#x2b0;" horiz-adv-x="907" 
d="M496 1477q153 0 236 -86t83 -246v-608h-82v600q0 266 -254 266q-133 0 -218 -93t-87 -261v-512h-82v1267h82v-547q44 101 128 160q86 60 194 60z" />
    <glyph glyph-name="r.sups" unicode="&#x2b3;" horiz-adv-x="600" 
d="M502 1468h49v-79h-47q-158 0 -244 -95t-86 -256v-501h-82v921h80v-215q39 105 123 165t207 60z" />
    <glyph glyph-name="circumflex" unicode="&#x2c6;" horiz-adv-x="819" 
d="M473 1511l242 -294h-86l-219 243l-220 -243h-86l242 294h127z" />
    <glyph glyph-name="caron" unicode="&#x2c7;" horiz-adv-x="819" 
d="M410 1268l219 243h86l-242 -294h-127l-242 294h86z" />
    <glyph glyph-name="uni02C9" unicode="&#x2c9;" horiz-adv-x="819" 
d="M678 1217h-539v71h539v-71z" />
    <glyph glyph-name="breve" unicode="&#x2d8;" horiz-adv-x="819" 
d="M610 1284q-76 -76 -200 -76q-125 0 -201 76q-82 73 -90 191h71q12 -91 70 -144t148 -53t150 54t71 143h71q-12 -115 -90 -191z" />
    <glyph glyph-name="dotaccent" unicode="&#x2d9;" horiz-adv-x="819" 
d="M455 1217h-90v186h90v-186z" />
    <glyph glyph-name="ring" unicode="&#x2da;" horiz-adv-x="819" 
d="M410 1212q-93 0 -160 65q-66 65 -66 159t66 157q67 64 160 64q95 0 162 -64t67 -157q0 -94 -67 -159t-162 -65zM410 1276q68 0 114 46q47 47 47 114q0 64 -48 111q-47 46 -113 46q-67 0 -113 -46q-47 -47 -47 -111q0 -67 47 -114q46 -46 113 -46z" />
    <glyph glyph-name="ogonek" unicode="&#x2db;" horiz-adv-x="819" 
d="M442 -426q-89 0 -142 43q-54 43 -54 121q0 154 246 266l81 -4q-245 -127 -245 -250q0 -104 127 -104q58 0 118 22v-69q-64 -25 -131 -25z" />
    <glyph glyph-name="tilde" unicode="&#x2dc;" horiz-adv-x="819" 
d="M166 1217h-72q0 223 154 223q64 0 176 -78q89 -68 141 -68q48 0 67 34q20 35 21 112h72q0 -223 -154 -223q-65 0 -178 79q-96 66 -139 66q-48 0 -67 -34q-20 -35 -21 -111z" />
    <glyph glyph-name="hungarumlaut" unicode="&#x2dd;" horiz-adv-x="819" 
d="M184 1217h-73l204 294h109zM469 1217h-74l207 294h107z" />
    <glyph glyph-name="s.sups" unicode="&#x2e2;" horiz-adv-x="849" 
d="M434 516q-361 0 -377 301h82q16 -233 297 -233q275 0 275 190q0 80 -56 124t-176 60l-106 17q-289 45 -289 256q0 117 87 181q88 65 249 65q331 0 352 -273h-82q-15 205 -272 205q-252 0 -252 -176q0 -84 57 -126t178 -60l105 -17q148 -23 217 -83q70 -61 70 -169
q0 -126 -97 -194t-262 -68z" />
    <glyph glyph-name="gravecomb" unicode="&#x300;" 
d="M160 1217h-78l-242 294h113z" />
    <glyph glyph-name="acutecomb" unicode="&#x301;" 
d="M-82 1217h-78l207 294h113z" />
    <glyph glyph-name="uni0302" unicode="&#x302;" 
d="M63 1511l242 -294h-86l-219 243l-219 -243h-86l242 294h126z" />
    <glyph glyph-name="tildecomb" unicode="&#x303;" 
d="M-244 1217h-71q0 223 153 223q64 0 176 -78q89 -68 142 -68q47 0 66 34q21 36 22 112h71q0 -223 -153 -223q-65 0 -178 79q-96 66 -140 66q-47 0 -66 -34q-21 -36 -22 -111z" />
    <glyph glyph-name="uni0304" unicode="&#x304;" 
d="M270 1217h-540v71h540v-71z" />
    <glyph glyph-name="uni0306" unicode="&#x306;" 
d="M201 1284q-76 -76 -201 -76q-126 0 -203 76q-81 77 -88 191h72q12 -92 69 -144q58 -53 148 -53t150 54t71 143h72q-12 -115 -90 -191z" />
    <glyph glyph-name="uni0307" unicode="&#x307;" 
d="M45 1217h-90v186h90v-186z" />
    <glyph glyph-name="uni0308" unicode="&#x308;" 
d="M-147 1217h-89v186h89v-186zM236 1217h-89v186h89v-186z" />
    <glyph glyph-name="uni030A" unicode="&#x30a;" 
d="M-2 1212q-93 0 -160 65q-65 64 -65 159t65 157q67 64 160 64q96 0 163 -64q66 -63 66 -157t-66 -159q-67 -65 -163 -65zM-2 1276q69 0 115 46q47 47 47 114q0 64 -47 111q-46 46 -115 46q-66 0 -112 -46t-46 -111q0 -68 46 -114t112 -46z" />
    <glyph glyph-name="uni030B" unicode="&#x30b;" 
d="M-225 1217h-74l205 294h108zM59 1217h-73l207 294h106z" />
    <glyph glyph-name="uni030C" unicode="&#x30c;" 
d="M-305 1268l219 243h86l-242 -294h-127l-241 294h86z" />
    <glyph glyph-name="uni0312" unicode="&#x312;" 
d="M68 1501l-17 -4q-65 -22 -65 -121v-43h73v-116h-127v157q0 77 26 118q24 39 85 54l25 6v-51z" />
    <glyph glyph-name="uni0313" unicode="&#x313;" 
d="M-59 1419v117h127v-158q0 -76 -26 -117q-25 -40 -85 -55l-25 -6v51l17 4q65 22 65 121v43h-73z" />
    <glyph glyph-name="dotbelowcomb" unicode="&#x323;" 
d="M45 -346h-90v186h90v-186z" />
    <glyph glyph-name="uni0324" unicode="&#x324;" 
d="M-147 -346h-89v186h89v-186zM236 -346h-89v186h89v-186z" />
    <glyph glyph-name="uni0325" unicode="&#x325;" 
d="M-2 -604q-95 0 -160 64t-65 159q0 96 65 158q66 63 160 63q97 0 163 -63t66 -158t-66 -159q-65 -64 -163 -64zM-2 -541q69 0 115 46q47 47 47 114q0 65 -47 112q-46 46 -115 46q-66 0 -112 -46t-46 -112q0 -68 46 -114t112 -46z" />
    <glyph glyph-name="uni0326" unicode="&#x326;" 
d="M-59 -276v116h127v-157q0 -77 -26 -118q-24 -39 -85 -54l-25 -7v52l17 4q65 22 65 121v43h-73z" />
    <glyph glyph-name="uni0327" unicode="&#x327;" 
d="M-20 -119q97 0 149 -39q53 -39 53 -106q0 -81 -65 -125q-66 -45 -193 -45q-62 0 -106 10v53q50 -8 104 -8q85 0 131 30q47 30 47 83q0 100 -166 100q-27 0 -43 -2v45l89 129l69 -2l-90 -125q6 2 21 2z" />
    <glyph glyph-name="uni0328" unicode="&#x328;" 
d="M33 -426q-90 0 -143 43q-54 43 -54 121q0 154 246 266l82 -4q-246 -128 -246 -250q0 -104 127 -104q59 0 119 22v-69q-64 -25 -131 -25z" />
    <glyph glyph-name="uni032E" unicode="&#x32e;" 
d="M201 -352q-79 -74 -201 -74q-123 0 -203 74q-81 81 -88 192h72q12 -91 69 -143q58 -53 148 -53t150 54q61 55 71 142h72q-12 -114 -90 -192z" />
    <glyph glyph-name="uni0331" unicode="&#x331;" 
d="M270 -231h-540v71h540v-71z" />
    <glyph glyph-name="uni0335" unicode="&#x335;" 
d="M270 532h-540v70h540v-70z" />
    <glyph glyph-name="uni0337" unicode="&#x337;" 
d="M504 1053l-955 -1098l-53 45l955 1100z" />
    <glyph glyph-name="uni0338" unicode="&#x338;" 
d="M713 1454l-1368 -1538l-58 49l1368 1538z" />
    <glyph glyph-name="uni0394" unicode="&#x394;" horiz-adv-x="1337" 
d="M618 1458h99l563 -1378v-80h-1223v80zM668 1366q-126 -326 -170 -432l-348 -854h1038l-350 856q-63 148 -170 430z" />
    <glyph glyph-name="uni03A9" unicode="&#x3a9;" horiz-adv-x="1515" 
d="M653 0h-575v80h434v4q-195 112 -307 292q-111 178 -111 406q0 327 185 514q183 189 479 189t479 -189q180 -186 180 -514q0 -228 -108 -407t-303 -291v-4h432v-80h-574v72q465 237 465 710q0 296 -153 459q-158 164 -418 164t-418 -164q-158 -169 -158 -459
q0 -470 471 -710v-72z" />
    <glyph glyph-name="uni03BC" unicode="&#x3bc;" horiz-adv-x="1069" 
d="M862 467v590h84v-1057h-82v223q-49 -117 -143 -182q-95 -66 -221 -66q-207 0 -293 158v-534h-84v1458h84v-678q0 -326 307 -326q146 0 246 105q98 98 102 309z" />
    <glyph glyph-name="pi" unicode="&#x3c0;" horiz-adv-x="1085" 
d="M1040 1057v-74h-182v-801q0 -60 22 -87q21 -25 74 -25q17 0 33 1t33 1v-72q-59 -4 -74 -4q-88 0 -130 42t-42 138v807h-483v-983h-84v983h-182v74h1015z" />
    <glyph glyph-name="d.sups" unicode="&#x1d48;" horiz-adv-x="1005" 
d="M831 1251v553h82v-1267h-79v208q-45 -108 -138 -170q-88 -59 -207 -59q-185 0 -296 133t-111 346q0 220 113 351q111 131 294 131q240 0 342 -226zM258 698q88 -110 244 -110q155 0 243 112q89 109 89 295q0 185 -90 298q-89 112 -242 112q-155 0 -244 -113
q-92 -113 -92 -299q0 -183 92 -295z" />
    <glyph glyph-name="t.sups" unicode="&#x1d57;" horiz-adv-x="569" 
d="M518 1458v-69h-229v-654q0 -129 145 -129q62 0 84 2v-69q-76 -4 -94 -4q-217 0 -217 194v660h-158v69h158v260h82v-260h229z" />
    <glyph glyph-name="Wgrave" unicode="&#x1e80;" horiz-adv-x="1974" 
d="M813 1841l207 -295h-78l-242 295h113zM1546 473l314 985h90l-457 -1458h-102l-316 1036q-39 126 -88 316q-49 -190 -88 -316l-315 -1036h-103l-456 1458h90l313 -985q58 -189 107 -371q61 235 104 375l297 981h102l297 -981q49 -162 105 -375q55 207 106 371z" />
    <glyph glyph-name="wgrave" unicode="&#x1e81;" horiz-adv-x="1628" 
d="M649 1511l207 -294h-78l-241 294h112zM1272 403l239 654h91l-385 -1057h-95l-233 713q-56 178 -76 243q-28 -107 -74 -243l-233 -713h-92l-385 1057h88l237 -654q62 -175 105 -309q53 173 96 309l213 654h92l213 -654q43 -136 96 -309q12 37 103 309z" />
    <glyph glyph-name="Wacute" unicode="&#x1e82;" horiz-adv-x="1974" 
d="M1155 1841h113l-242 -295h-78zM1546 473l314 985h90l-457 -1458h-102l-316 1036q-39 126 -88 316q-49 -190 -88 -316l-315 -1036h-103l-456 1458h90l313 -985q58 -189 107 -371q61 235 104 375l297 981h102l297 -981q49 -162 105 -375q55 207 106 371z" />
    <glyph glyph-name="wacute" unicode="&#x1e83;" horiz-adv-x="1628" 
d="M981 1511h113l-242 -294h-78zM1272 403l239 654h91l-385 -1057h-95l-233 713q-56 178 -76 243q-28 -107 -74 -243l-233 -713h-92l-385 1057h88l237 -654q62 -175 105 -309q53 173 96 309l213 654h92l213 -654q43 -136 96 -309q12 37 103 309z" />
    <glyph glyph-name="Wdieresis" unicode="&#x1e84;" horiz-adv-x="1974" 
d="M752 1733h88v-187h-88v187zM1135 1733h88v-187h-88v187zM1546 473l314 985h90l-457 -1458h-102l-316 1036q-39 126 -88 316q-49 -190 -88 -316l-315 -1036h-103l-456 1458h90l313 -985q58 -189 107 -371q61 235 104 375l297 981h102l297 -981q49 -162 105 -375
q55 207 106 371z" />
    <glyph glyph-name="wdieresis" unicode="&#x1e85;" horiz-adv-x="1628" 
d="M578 1403h88v-186h-88v186zM961 1403h88v-186h-88v186zM1272 403l239 654h91l-385 -1057h-95l-233 713q-56 178 -76 243q-28 -107 -74 -243l-233 -713h-92l-385 1057h88l237 -654q62 -175 105 -309q53 173 96 309l213 654h92l213 -654q43 -136 96 -309q12 37 103 309z
" />
    <glyph glyph-name="uni1E9E" unicode="&#x1e9e;" horiz-adv-x="1306" 
d="M700 834h29q244 0 389 -113q144 -113 144 -309q0 -206 -140 -320q-141 -115 -391 -115q-136 0 -293 31v80q157 -31 291 -31q218 0 331 91q114 92 114 264q0 162 -119 251t-330 89q-78 0 -139 -9v78l506 570q-149 20 -402 20q-256 0 -373 -111q-116 -110 -116 -333v-967
h-88v967q0 524 577 524q292 0 510 -33v-69z" />
    <glyph glyph-name="Ygrave" unicode="&#x1ef2;" horiz-adv-x="1277" 
d="M465 1841l207 -295h-78l-242 295h113zM885 1071l268 387h100l-571 -827v-631h-88v631l-569 827h100l270 -389q78 -117 133 -199q75 -112 111 -163q37 57 246 364z" />
    <glyph glyph-name="ygrave" unicode="&#x1ef3;" horiz-adv-x="974" 
d="M324 1511l206 -294h-77l-242 294h113zM649 496l207 561h92l-450 -1198q-52 -139 -123 -201q-73 -64 -180 -64q-40 0 -82 3v71h80q147 0 225 209q9 23 37 96l-426 1084h92l217 -559q64 -165 160 -426q98 277 151 424z" />
    <glyph glyph-name="thinspace" unicode="&#x2009;" horiz-adv-x="329" 
 />
    <glyph glyph-name="uni2011" unicode="&#x2011;" horiz-adv-x="753" 
d="M649 541h-545v75h545v-75z" />
    <glyph glyph-name="endash" unicode="&#x2013;" horiz-adv-x="1056" 
d="M950 541h-846v75h846v-75z" />
    <glyph glyph-name="emdash" unicode="&#x2014;" horiz-adv-x="1867" 
d="M1763 541h-1659v75h1659v-75z" />
    <glyph glyph-name="quoteleft" unicode="&#x2018;" horiz-adv-x="319" 
d="M227 1397l-10 -4q-63 -27 -63 -146v-61h65v-127h-127v182q0 178 119 211l16 6v-61z" />
    <glyph glyph-name="quoteright" unicode="&#x2019;" horiz-adv-x="319" 
d="M98 1331v127h129v-182q0 -172 -118 -211l-17 -6v61l10 4q64 30 64 146v61h-68z" />
    <glyph glyph-name="quotesinglbase" unicode="&#x201a;" horiz-adv-x="319" 
d="M98 0v127h129v-182q0 -172 -118 -211l-17 -6v61l10 4q64 30 64 146v61h-68z" />
    <glyph glyph-name="quotedblleft" unicode="&#x201c;" horiz-adv-x="550" 
d="M92 1059v182q0 172 119 211l16 6v-61l-10 -4q-63 -30 -63 -146v-61h65v-127h-127zM459 1397l-13 -4q-61 -28 -61 -146v-61h66v-127h-127v182q0 172 116 211l19 6v-61z" />
    <glyph glyph-name="quotedblright" unicode="&#x201d;" horiz-adv-x="550" 
d="M166 1331h-68v127h129v-182q0 -172 -118 -211l-17 -6v61l10 4q64 30 64 146v61zM330 1331v127h129v-182q0 -172 -119 -211l-16 -6v61l10 4q63 30 63 146v61h-67z" />
    <glyph glyph-name="quotedblbase" unicode="&#x201e;" horiz-adv-x="550" 
d="M166 0h-68v127h129v-182q0 -172 -118 -211l-17 -6v61l10 4q64 30 64 146v61zM330 0v127h129v-182q0 -172 -119 -211l-16 -6v61l10 4q63 30 63 146v61h-67z" />
    <glyph glyph-name="dagger" unicode="&#x2020;" horiz-adv-x="1093" 
d="M592 1057h455v-80h-455v-1276h-90v1276h-455v80h455v401h90v-401z" />
    <glyph glyph-name="daggerdbl" unicode="&#x2021;" horiz-adv-x="1093" 
d="M1047 1057v-80h-455v-795h455v-80h-455v-401h-90v401h-455v80h455v795h-455v80h455v401h90v-401h455z" />
    <glyph glyph-name="bullet" unicode="&#x2022;" horiz-adv-x="491" 
d="M358 469h-225v223h225v-223z" />
    <glyph glyph-name="ellipsis" unicode="&#x2026;" horiz-adv-x="1318" 
d="M223 0h-131v129h131v-129zM729 0h-131v129h131v-129zM1227 0h-131v129h131v-129z" />
    <glyph glyph-name="perthousand" unicode="&#x2030;" horiz-adv-x="2291" 
d="M578 715q-78 -121 -230 -121t-229 119q-78 122 -78 321q0 210 79 326q80 117 228 117q150 0 229 -118q78 -116 78 -325q0 -199 -77 -319zM449 0h-80l778 1458h80zM178 760q57 -101 170 -101t170 101q57 100 57 274q0 180 -58 278q-58 99 -169 99q-113 0 -170 -100
q-57 -101 -57 -277q0 -174 57 -274zM1249 -18q-151 0 -230 116t-79 324q0 210 79 326t230 116q150 0 228 -118q77 -117 77 -324q0 -209 -77 -324q-77 -116 -228 -116zM1946 -18q-152 0 -231 116t-79 324q0 210 79 326t231 116q149 0 227 -118q78 -119 78 -324
q0 -207 -78 -324q-77 -116 -227 -116zM1079 147q57 -100 170 -100t170 100q58 102 58 275q0 177 -59 277t-169 100q-113 0 -170 -101q-59 -100 -59 -276q0 -175 59 -275zM1776 147q57 -100 170 -100t170 100q57 101 57 275q0 179 -58 277q-59 100 -169 100q-113 0 -170 -101
q-60 -102 -60 -276q0 -173 60 -275z" />
    <glyph glyph-name="guilsinglleft" unicode="&#x2039;" horiz-adv-x="614" 
d="M133 575l348 285v-100l-288 -234l288 -235v-98l-348 282v100z" />
    <glyph glyph-name="guilsinglright" unicode="&#x203a;" horiz-adv-x="614" 
d="M133 760v100l348 -285v-100l-348 -282v98l289 235z" />
    <glyph glyph-name="uni203D" unicode="&#x203d;" horiz-adv-x="1003" 
d="M518 1491q201 0 310 -94q110 -95 110 -264q0 -183 -201 -349q-135 -111 -174 -211q-21 -53 -26 -202h-72l-6 598v215h90v-215l-8 -273q46 71 108 119q75 64 101 90q25 25 65 99q33 60 33 129q0 130 -83 204t-245 74q-356 0 -377 -362h-86q7 220 128 331q120 111 333 111z
M567 0h-131v129h131v-129z" />
    <glyph glyph-name="fraction" unicode="&#x2044;" horiz-adv-x="413" 
d="M-143 0h-78l778 1458h78z" />
    <glyph glyph-name="zero.sups" unicode="&#x2070;" horiz-adv-x="696" 
d="M578 1184q-78 -121 -230 -121t-229 119q-78 122 -78 321q0 210 79 326q80 117 228 117q150 0 229 -118q78 -116 78 -325q0 -199 -77 -319zM178 1229q57 -101 170 -101t170 101t57 274q0 180 -58 278q-58 99 -169 99q-113 0 -170 -100t-57 -277q0 -173 57 -274z" />
    <glyph glyph-name="four.sups" unicode="&#x2074;" horiz-adv-x="712" 
d="M555 1380h133v-65h-133v-234h-78v234h-452v76l448 536h82v-547zM479 1380v459l-381 -459h381z" />
    <glyph glyph-name="five.sups" unicode="&#x2075;" horiz-adv-x="669" 
d="M356 1630q120 0 197 -80q76 -79 76 -204q0 -124 -81 -204q-80 -79 -206 -79q-121 0 -199 65q-79 66 -96 175h74q15 -81 73 -128q60 -49 148 -49q93 0 153 63t60 157q0 98 -59 160q-60 63 -154 63q-150 0 -205 -123h-74l80 481h447v-65h-385l-53 -320q69 88 204 88z" />
    <glyph glyph-name="six.sups" unicode="&#x2076;" horiz-adv-x="694" 
d="M373 1630q121 0 201 -81q79 -80 79 -203q0 -125 -82 -204t-209 -79q-105 0 -182 59q-129 102 -129 367q0 219 80 338t240 119q107 0 180 -59q72 -59 90 -156h-76q-17 71 -68 110q-53 41 -126 41q-248 0 -248 -391v-25q30 76 97 120t153 44zM362 1126q97 0 157 63
q61 64 61 157t-62 157t-156 64q-91 0 -152 -64q-60 -63 -60 -157t60 -157t152 -63z" />
    <glyph glyph-name="seven.sups" unicode="&#x2077;" horiz-adv-x="602" 
d="M25 1862v65h553v-67q-327 -309 -338 -779h-80q5 220 92 420q89 203 248 361h-475z" />
    <glyph glyph-name="eight.sups" unicode="&#x2078;" horiz-adv-x="702" 
d="M485 1532q83 -24 130 -84q47 -61 47 -141q0 -112 -83 -178q-82 -66 -229 -66q-144 0 -226 66q-83 66 -83 178q0 80 46 139t130 86q-135 57 -135 194q0 99 74 159q75 61 194 61q122 0 197 -61q74 -60 74 -159q0 -137 -136 -194zM209 1843q-55 -45 -55 -121q0 -75 55 -120
q54 -46 141 -46t145 47q56 46 56 119q0 76 -57 121q-59 43 -144 43q-86 0 -141 -43zM350 1124q109 0 173 53q63 53 63 138q0 86 -63 137t-173 51q-108 0 -171 -51q-62 -50 -62 -137q0 -86 62 -138q64 -53 171 -53z" />
    <glyph glyph-name="nine.sups" unicode="&#x2079;" horiz-adv-x="694" 
d="M514 1886q129 -100 129 -366q0 -215 -79 -336t-230 -121q-116 0 -190 58q-75 58 -91 157h76q17 -70 71 -111q55 -41 134 -41q235 0 235 392v20q-33 -74 -99 -117q-65 -43 -148 -43q-122 0 -202 81q-79 80 -79 204t82 203q83 80 207 80q106 0 184 -60zM176 1505
q57 -63 154 -63q96 0 153 63q60 66 60 158t-60 158q-57 61 -153 61q-97 0 -154 -61q-61 -62 -61 -158t61 -158z" />
    <glyph glyph-name="plus.sups" unicode="&#x207a;" horiz-adv-x="595" 
d="M332 1534h211v-61h-211v-213h-68v213h-211v61h211v213h68v-213z" />
    <glyph glyph-name="minus.sups" unicode="&#x207b;" horiz-adv-x="595" 
d="M543 1473h-490v61h490v-61z" />
    <glyph glyph-name="parenleft.sups" unicode="&#x207d;" horiz-adv-x="272" 
d="M268 922h-73q-134 266 -134 581q0 313 134 584h73q-137 -266 -137 -584q0 -307 137 -581z" />
    <glyph glyph-name="parenright.sups" unicode="&#x207e;" horiz-adv-x="272" 
d="M78 922h-72q135 274 135 581q0 314 -135 584h72q133 -269 133 -584q0 -316 -133 -581z" />
    <glyph glyph-name="n.sups" unicode="&#x207f;" horiz-adv-x="907" 
d="M496 1477q153 0 236 -86t83 -246v-608h-82v600q0 266 -254 266q-133 0 -218 -93t-87 -261v-512h-82v921h80v-207q40 104 127 165t197 61z" />
    <glyph glyph-name="zero.subs" unicode="&#x2080;" horiz-adv-x="696" 
d="M578 -301q-77 -119 -230 -119q-152 0 -229 119q-78 121 -78 321q0 210 79 326q80 117 228 117q150 0 229 -118q78 -116 78 -325q0 -201 -77 -321zM178 -254q57 -100 170 -100t170 100t57 274q0 180 -58 278q-59 99 -169 99q-113 0 -170 -100q-57 -101 -57 -277
q0 -173 57 -274z" />
    <glyph glyph-name="one.subs" unicode="&#x2081;" horiz-adv-x="405" 
d="M260 444h70v-845h-76v731q-72 -74 -229 -84v57q174 15 235 141z" />
    <glyph glyph-name="two.subs" unicode="&#x2082;" horiz-adv-x="647" 
d="M119 -336h491v-65h-571v30q5 231 252 348l74 37q159 76 159 205q0 79 -51 128q-52 50 -147 50t-146 -53q-52 -53 -53 -137h-76q5 115 75 185q71 71 202 71q128 0 200 -69t72 -173q0 -170 -201 -266l-80 -41q-189 -91 -200 -250z" />
    <glyph glyph-name="three.subs" unicode="&#x2083;" horiz-adv-x="659" 
d="M449 51q79 -18 126 -77q48 -60 48 -144q0 -114 -81 -182q-82 -68 -218 -68q-138 0 -220 69q-83 69 -84 189h76q1 -93 63 -144q61 -50 165 -50q100 0 161 51q62 51 62 137q0 90 -62 138q-61 48 -170 48h-51v58h53q94 0 147 43q54 43 54 121q0 72 -53 116q-52 43 -143 43
q-88 0 -141 -44q-52 -43 -54 -122h-76q1 108 75 169q73 61 196 61q121 0 197 -59q75 -58 75 -158q0 -68 -39 -120q-39 -53 -106 -75z" />
    <glyph glyph-name="four.subs" unicode="&#x2084;" horiz-adv-x="712" 
d="M555 -102h133v-66h-133v-233h-78v233h-452v76l448 536h82v-546zM479 -102v458l-381 -458h381z" />
    <glyph glyph-name="five.subs" unicode="&#x2085;" horiz-adv-x="669" 
d="M356 147q121 0 197 -79t76 -205q0 -125 -81 -204q-80 -79 -206 -79q-120 0 -199 66t-96 174h74q15 -81 73 -128q58 -48 148 -48q94 0 153 62q60 63 60 157q0 99 -59 161t-154 62q-150 0 -205 -123h-74l80 481h447v-65h-385l-53 -320q69 88 204 88z" />
    <glyph glyph-name="six.subs" unicode="&#x2086;" horiz-adv-x="694" 
d="M373 147q122 0 201 -80t79 -204q0 -125 -82 -204t-209 -79q-104 0 -182 60q-129 102 -129 366q0 219 80 338t240 119q107 0 180 -59q72 -59 90 -156h-76q-17 71 -68 110q-53 41 -126 41q-248 0 -248 -391v-24q29 74 97 119q67 44 153 44zM362 -356q98 0 157 62
q61 64 61 157t-62 157t-156 64q-91 0 -152 -64q-60 -63 -60 -157t60 -157q59 -62 152 -62z" />
    <glyph glyph-name="seven.subs" unicode="&#x2087;" horiz-adv-x="602" 
d="M25 379v65h553v-67q-328 -309 -338 -778h-80q5 219 92 419q89 203 248 361h-475z" />
    <glyph glyph-name="eight.subs" unicode="&#x2088;" horiz-adv-x="702" 
d="M485 49q83 -24 130 -84q47 -61 47 -141q0 -111 -83 -177q-84 -67 -229 -67q-142 0 -226 67q-83 66 -83 177q0 80 46 139t130 86q-135 57 -135 195q0 98 74 158q75 61 194 61q122 0 197 -61q74 -60 74 -158q0 -138 -136 -195zM209 360q-55 -45 -55 -120q0 -76 55 -121
q53 -45 141 -45q89 0 145 46t56 120q0 75 -57 120q-59 43 -144 43q-86 0 -141 -43zM350 -358q111 0 173 52q63 52 63 138t-63 137t-173 51q-108 0 -171 -51q-62 -50 -62 -137q0 -86 62 -138t171 -52z" />
    <glyph glyph-name="nine.subs" unicode="&#x2089;" horiz-adv-x="694" 
d="M514 403q129 -101 129 -366q0 -215 -79 -336t-230 -121q-114 0 -190 59q-75 58 -91 156h76q17 -69 71 -110q55 -41 134 -41q235 0 235 391v20q-32 -72 -99 -116q-65 -43 -148 -43q-123 0 -202 80t-79 204t82 203q83 80 207 80q106 0 184 -60zM176 23q58 -64 154 -64
q95 0 153 64q60 66 60 157q0 92 -60 158q-57 61 -153 61q-97 0 -154 -61q-61 -62 -61 -158q0 -95 61 -157z" />
    <glyph glyph-name="plus.subs" unicode="&#x208a;" horiz-adv-x="595" 
d="M332 51h211v-61h-211v-213h-68v213h-211v61h211v213h68v-213z" />
    <glyph glyph-name="minus.subs" unicode="&#x208b;" horiz-adv-x="595" 
d="M543 -10h-490v61h490v-61z" />
    <glyph glyph-name="equal.subs" unicode="&#x208c;" horiz-adv-x="595" 
d="M543 92h-490v60h490v-60zM543 -111h-490v60h490v-60z" />
    <glyph glyph-name="uni208D" unicode="&#x208d;" horiz-adv-x="272" 
d="M268 -561h-73q-134 266 -134 581q0 316 134 582h73q-137 -266 -137 -582q0 -315 137 -581z" />
    <glyph glyph-name="uni208E" unicode="&#x208e;" horiz-adv-x="272" 
d="M78 -563h-72q135 273 135 581q0 314 -135 584h72q133 -269 133 -584q0 -316 -133 -581z" />
    <glyph glyph-name="n.subs" unicode="&#x2099;" horiz-adv-x="907" 
d="M496 539q153 0 236 -86t83 -246v-608h-82v600q0 266 -254 266q-133 0 -218 -93t-87 -261v-512h-82v921h80v-207q40 104 127 165t197 61z" />
    <glyph glyph-name="Euro" unicode="&#x20ac;" horiz-adv-x="1384" 
d="M1223 487h84q-34 -235 -180 -375q-145 -139 -361 -139q-251 0 -404 163q-154 165 -184 450h-178v73h172q-2 22 -2 74q0 29 4 117h-174v74h184q37 267 187 417t391 150q224 0 364 -133q141 -134 179 -365h-91q-38 202 -153 309q-116 109 -299 109q-201 0 -327 -128
q-127 -128 -161 -359h551v-74h-561q-4 -88 -4 -117q0 -52 2 -74h563v-73h-557q28 -252 157 -393q128 -140 341 -140q188 0 307 114q120 116 150 320z" />
    <glyph glyph-name="uni20B8" unicode="&#x20b8;" horiz-adv-x="1245" 
d="M47 1378v80h1151v-80h-1151zM578 1079h-531v80h1151v-80h-530v-1079h-90v1079z" />
    <glyph glyph-name="uni20B9" unicode="&#x20b9;" horiz-adv-x="1236" 
d="M133 1458h1034v-72h-336q161 -97 173 -288h163v-72h-163q-12 -170 -136 -265t-321 -95h-277l740 -666h-125l-752 676v69h414q159 0 257 74q97 73 109 207h-780v72h780q-12 134 -109 207t-257 73h-414v80z" />
    <glyph glyph-name="uni20BA" unicode="&#x20ba;" horiz-adv-x="1134" 
d="M971 762h90q0 -350 -205 -555q-207 -207 -606 -207h-88v766l-162 -64v76l162 64v190l-162 -63v73l162 64v352h88v-317l463 184v-76l-463 -182v-190l463 184v-76l-463 -184v-721q354 0 537 180q184 181 184 502z" />
    <glyph glyph-name="uni20BC" unicode="&#x20bc;" horiz-adv-x="1316" 
d="M700 1081h15q259 0 374 -115t115 -368v-598h-86v604q0 211 -94 305q-95 95 -309 95h-15v-785h-86v785h-18q-211 0 -304 -95t-93 -305v-604h-86v598q0 252 114 368q114 115 367 115h20v377h86v-377z" />
    <glyph glyph-name="uni20BF" unicode="&#x20bf;" horiz-adv-x="1253" 
d="M1208 395q0 -173 -110 -277q-112 -106 -305 -116v-240h-76v238h-199v-238h-76v238h-309v1458h309v238h76v-238h199v238h76v-242q171 -16 265 -116q93 -99 93 -246q0 -117 -60 -204q-59 -86 -173 -130q141 -38 216 -132q74 -93 74 -231zM442 791v587h-221v-587h221z
M717 791v587h-199v-587h199zM1065 1090q0 112 -70 190q-69 76 -202 94v-579q133 18 203 95q69 76 69 200zM221 711v-631h221v631h-221zM518 711v-631h199v631h-199zM793 709v-627q155 10 241 93t86 220q0 141 -85 222q-86 82 -242 92z" />
    <glyph glyph-name="uni2105" unicode="&#x2105;" horiz-adv-x="1906" 
d="M428 594q-177 0 -282 121t-105 319q0 201 103 322t284 121q145 0 243 -86q97 -85 120 -234h-80q-21 117 -97 184q-77 68 -186 68q-140 0 -223 -102q-82 -101 -82 -273q0 -170 82 -271t223 -101q118 0 194 72t93 196h80q-18 -153 -118 -245q-98 -91 -249 -91zM600 0h-82
l778 1458h82zM1757 104q-106 -122 -289 -122q-182 0 -288 122q-109 126 -109 318q0 193 109 319q106 123 288 123t289 -123q109 -126 109 -319q0 -192 -109 -318zM1239 154q86 -103 229 -103q144 0 230 103q86 101 86 268q0 164 -86 270q-86 103 -230 103q-143 0 -229 -103
q-86 -106 -86 -270q0 -167 86 -268z" />
    <glyph glyph-name="uni2113" unicode="&#x2113;" horiz-adv-x="827" 
d="M469 49q107 0 162 72l31 -68q-68 -78 -197 -78q-102 0 -162 66q-59 65 -59 184v264q-85 -28 -187 -36l-12 75q108 11 199 45v619q0 299 250 299q231 0 231 -322q0 -218 -104 -389q-105 -173 -293 -258v-293q0 -87 39 -133q39 -47 102 -47zM328 1194v-582q147 83 230 227
q83 145 83 322q0 256 -149 256q-164 0 -164 -223z" />
    <glyph glyph-name="uni2116" unicode="&#x2116;" horiz-adv-x="2154" 
d="M1749 1479q143 0 233 -104q91 -105 91 -267q0 -163 -91 -266t-233 -103q-148 0 -238 102t-90 267q0 166 90 268q91 103 238 103zM1153 487v971h88v-1458h-108l-717 1042q-135 205 -199 310q2 -126 2 -381v-971h-86v1458h109l716 -1042q174 -265 199 -307q-4 168 -4 378z
M1749 813q113 0 179 81q67 82 67 214q0 133 -67 217q-66 82 -179 82q-115 0 -182 -82q-68 -83 -68 -217q0 -135 68 -215t182 -80z" />
    <glyph glyph-name="uni2117" unicode="&#x2117;" horiz-adv-x="1720" 
d="M860 1493q331 0 555 -221q223 -220 223 -543q0 -321 -223 -541q-224 -221 -555 -221q-327 0 -553 221q-225 220 -225 541q0 323 225 543q226 221 553 221zM358 238q203 -203 502 -203t502 203q203 201 203 491q0 293 -203 496q-204 200 -502 200t-502 -200
q-202 -202 -202 -496q0 -290 202 -491zM594 1167h350q129 0 205 -70t76 -190q0 -119 -76 -188q-78 -70 -205 -70h-274v-358h-76v876zM670 719h274q94 0 150 50q55 49 55 138q0 91 -54 141q-55 50 -151 50h-274v-379z" />
    <glyph glyph-name="trademark" unicode="&#x2122;" horiz-adv-x="1200" 
d="M272 1411h-192v47h438v-47h-192v-504h-54v504zM881 1047l180 411h59v-551h-51v369v78q-1 -3 -5 -13q-3 -8 -3 -10l-187 -424h-43l-184 424l-10 27v-82v-369h-49v551h57l182 -416l25 -67q9 30 29 72z" />
    <glyph glyph-name="uni2126" unicode="&#x2126;" horiz-adv-x="1515" 
d="M653 0h-575v80h434v4q-195 112 -307 292q-111 178 -111 406q0 327 185 514q183 189 479 189t479 -189q180 -186 180 -514q0 -228 -108 -407t-303 -291v-4h432v-80h-574v72q465 237 465 710q0 296 -153 459q-158 164 -418 164t-418 -164q-158 -169 -158 -459
q0 -470 471 -710v-72z" />
    <glyph glyph-name="estimated" unicode="&#x212e;" horiz-adv-x="1865" 
d="M330 1276q224 215 604 215q379 0 604 -225q223 -224 223 -557h-1323q-28 0 -28 -27v-360q0 -68 32 -97q200 -196 492 -196q153 0 290 64t226 171h149q-89 -126 -263 -209q-171 -82 -402 -82q-373 0 -602 213q-230 212 -230 543q0 328 228 547zM934 1434q-291 0 -492 -201
q-32 -29 -32 -90v-361q0 -26 28 -26h985q29 0 29 26v361q0 60 -33 90q-205 201 -485 201z" />
    <glyph glyph-name="uni2153" unicode="&#x2153;" horiz-adv-x="1423" 
d="M254 612v731q-71 -72 -229 -83v57q174 15 235 141h70v-846h-76zM178 0l778 1458h78l-778 -1458h-78zM1214 453q77 -18 126 -77q49 -60 49 -145q0 -114 -81 -182q-80 -67 -218 -67q-143 0 -223 68q-81 69 -81 190h76q0 -95 61 -145t167 -50q100 0 160 51q61 52 61 137
q0 91 -62 139q-61 48 -168 48h-51v57h53q94 0 147 43q54 44 54 121q0 73 -53 117q-52 43 -144 43q-87 0 -140 -44q-52 -43 -54 -122h-76q1 108 75 169q72 60 195 60q124 0 197 -58q74 -59 74 -159q0 -67 -39 -120q-38 -51 -105 -74z" />
    <glyph glyph-name="uni2154" unicode="&#x2154;" horiz-adv-x="1697" 
d="M119 678h491v-66h-571v31q5 231 252 348l74 37q159 78 159 205q0 79 -51 128q-52 50 -147 50t-146 -53q-52 -53 -53 -137h-76q5 115 75 185q71 71 202 71q128 0 200 -69t72 -173q0 -170 -201 -266l-80 -41q-189 -91 -200 -250zM461 0l778 1458h80l-778 -1458h-80z
M1489 453q77 -18 126 -77q48 -58 48 -145q0 -114 -81 -182q-80 -67 -218 -67q-142 0 -222 68q-81 69 -81 190h76q0 -96 60 -145q61 -50 167 -50q101 0 161 51t60 137q0 91 -61 139q-62 48 -168 48h-51v57h53q93 0 146 43q55 44 55 121q0 72 -54 117q-52 43 -143 43
q-87 0 -140 -44q-54 -44 -55 -122h-75q2 109 74 169t196 60t197 -58t73 -159q0 -67 -39 -120q-38 -52 -104 -74z" />
    <glyph glyph-name="uni2155" unicode="&#x2155;" horiz-adv-x="1347" 
d="M254 612v731q-71 -72 -229 -83v57q174 15 235 141h70v-846h-76zM145 0l779 1458h77l-778 -1458h-78zM1034 549q120 0 197 -80q76 -79 76 -205q0 -124 -81 -204q-79 -78 -206 -78q-120 0 -200 65t-95 174h76q15 -82 72 -128q59 -48 147 -48q92 0 152 63q61 64 61 156
q0 99 -59 161t-154 62q-150 0 -205 -122h-74l80 481h447v-66h-385l-54 -319q69 88 205 88z" />
    <glyph glyph-name="uni2156" unicode="&#x2156;" horiz-adv-x="1640" 
d="M119 678h491v-66h-571v31q5 231 252 348l74 37q159 78 159 205q0 79 -51 128q-52 50 -147 50t-146 -53q-52 -53 -53 -137h-76q5 115 75 185q71 71 202 71q128 0 200 -69t72 -173q0 -170 -201 -266l-80 -41q-189 -91 -200 -250zM442 0l779 1458h79l-778 -1458h-80z
M1331 549q121 0 197 -81q76 -80 76 -204t-82 -203t-207 -79q-120 0 -200 65t-95 174h76q15 -82 72 -128q58 -48 147 -48q94 0 154 63q61 64 61 156q0 96 -61 160q-60 63 -154 63q-150 0 -205 -122h-74l82 481h445v-66h-385l-52 -317q69 86 205 86z" />
    <glyph glyph-name="uni2157" unicode="&#x2157;" horiz-adv-x="1581" 
d="M623 844q0 -114 -81 -182q-82 -68 -218 -68q-138 0 -220 69q-83 69 -84 189h76q1 -93 63 -144t165 -51q98 0 161 52q62 51 62 137q0 90 -62 138t-170 48h-51v58h53q94 0 147 43q54 43 54 120q0 73 -53 117q-52 43 -143 43q-88 0 -141 -44q-52 -43 -54 -122h-76
q1 108 75 169q73 61 196 61q121 0 197 -59q75 -59 75 -158q0 -68 -39 -120q-39 -53 -106 -75q79 -18 126 -77q48 -60 48 -144zM385 0l778 1458h78l-778 -1458h-78zM1272 549q119 0 196 -80q76 -79 76 -205q0 -124 -81 -204q-79 -78 -206 -78q-119 0 -199 65t-95 174h75
q15 -81 73 -128q59 -48 146 -48q93 0 153 63t60 156q0 99 -59 161t-154 62q-149 0 -204 -122h-74l80 481h446v-66h-385l-53 -319q69 88 205 88z" />
    <glyph glyph-name="uni2158" unicode="&#x2158;" horiz-adv-x="1607" 
d="M555 612h-78v234h-452v76l448 536h82v-547h133v-65h-133v-234zM424 0l778 1458h78l-778 -1458h-78zM479 911v459l-381 -459h381zM1311 549q119 0 196 -80q76 -79 76 -205q0 -124 -81 -204q-79 -78 -206 -78q-119 0 -199 65q-81 66 -96 174h76q12 -80 71 -128
q58 -48 148 -48q93 0 153 63t60 156q0 98 -59 160q-60 63 -154 63q-153 0 -204 -122h-76l82 481h446v-66h-387l-51 -319q69 88 205 88z" />
    <glyph glyph-name="uni2159" unicode="&#x2159;" horiz-adv-x="1351" 
d="M254 612v731q-71 -72 -229 -83v57q174 15 235 141h70v-846h-76zM145 0l779 1458h77l-778 -1458h-78zM1032 549q122 0 202 -81q79 -80 79 -204q0 -125 -82 -204q-81 -78 -209 -78q-105 0 -182 59q-129 101 -129 367q0 218 80 337t239 119q109 0 180 -58q72 -59 90 -157
h-75q-17 71 -69 111q-53 41 -126 41q-248 0 -248 -391v-23q29 73 98 119q65 43 152 43zM1022 45q97 0 157 63t60 156q0 96 -61 158q-62 63 -156 63q-93 0 -153 -63t-60 -158q0 -93 60 -156t153 -63z" />
    <glyph glyph-name="uni215A" unicode="&#x215a;" horiz-adv-x="1587" 
d="M629 877q0 -125 -81 -204q-80 -79 -206 -79q-121 0 -199 65q-79 66 -96 175h74q15 -81 73 -128q60 -49 148 -49q93 0 153 63t60 157q0 98 -59 160q-60 63 -154 63q-150 0 -205 -123h-74l80 481h447v-65h-385l-53 -320q69 88 204 88q120 0 197 -80q76 -79 76 -204zM379 0
l778 1458h78l-778 -1458h-78zM1268 549q122 0 201 -81q79 -80 79 -204q0 -125 -82 -204q-81 -78 -209 -78q-105 0 -182 59q-129 102 -129 367q0 218 80 337t240 119q109 0 180 -58q72 -59 90 -157h-76q-17 72 -68 111q-53 41 -126 41q-248 0 -248 -391v-23q29 74 97 119
q65 43 153 43zM1257 45q97 0 157 63q61 64 61 156q0 94 -62 158q-61 63 -156 63q-92 0 -152 -63q-61 -64 -61 -158q0 -92 61 -156q60 -63 152 -63z" />
    <glyph glyph-name="oneeighth" unicode="&#x215b;" horiz-adv-x="1445" 
d="M254 612v731q-71 -72 -229 -83v57q174 15 235 141h70v-846h-76zM178 0l778 1458h78l-778 -1458h-78zM1227 451q178 -52 178 -226q0 -111 -83 -177q-82 -66 -228 -66q-144 0 -227 66t-83 177q0 83 46 142q46 60 131 84q-136 57 -136 194q0 99 74 159q73 60 195 60
q121 0 194 -60q74 -60 74 -159q0 -137 -135 -194zM952 762q-57 -45 -57 -121t57 -121q52 -45 142 -45q88 0 143 45t55 121t-55 121q-59 43 -143 43q-87 0 -142 -43zM1094 43q111 0 173 52t62 138q0 88 -62 138q-63 51 -173 51q-108 0 -171 -51t-63 -138q0 -85 63 -138
q62 -52 171 -52z" />
    <glyph glyph-name="threeeighths" unicode="&#x215c;" horiz-adv-x="1640" 
d="M623 844q0 -114 -81 -182q-82 -68 -218 -68q-138 0 -220 69q-83 69 -84 189h76q1 -93 63 -144t165 -51q98 0 161 52q62 51 62 137q0 90 -62 138t-170 48h-51v58h53q94 0 147 43q54 43 54 120q0 73 -53 117q-52 43 -143 43q-88 0 -141 -44q-52 -43 -54 -122h-76
q1 108 75 169q73 61 196 61q121 0 197 -59q75 -59 75 -158q0 -68 -39 -120q-39 -53 -106 -75q79 -18 126 -77q48 -60 48 -144zM387 0l778 1458h80l-778 -1458h-80zM1423 451q83 -24 130 -84q46 -59 46 -142q0 -111 -82 -177q-83 -66 -229 -66q-144 0 -226 66q-83 66 -83 177
q0 81 46 140t130 86q-135 57 -135 194q0 99 74 159t194 60q124 0 197 -60q74 -60 74 -159q0 -137 -136 -194zM1147 762q-55 -45 -55 -121t55 -121q53 -45 141 -45q89 0 145 46t56 120q0 76 -57 121q-59 43 -144 43q-86 0 -141 -43zM1288 43q111 0 173 52q63 53 63 138
q0 87 -63 138t-173 51q-108 0 -171 -51q-62 -50 -62 -138q0 -86 62 -138t171 -52z" />
    <glyph glyph-name="fiveeighths" unicode="&#x215d;" horiz-adv-x="1619" 
d="M629 877q0 -125 -81 -204q-80 -79 -206 -79q-121 0 -199 65q-79 66 -96 175h74q15 -81 73 -128q60 -49 148 -49q93 0 153 63t60 157q0 98 -59 160q-60 63 -154 63q-150 0 -205 -123h-74l80 481h447v-65h-385l-53 -320q69 88 204 88q120 0 197 -80q76 -79 76 -204zM379 0
l778 1458h78l-778 -1458h-78zM1401 451q87 -27 132 -86q46 -59 46 -140q0 -111 -83 -177q-82 -66 -228 -66t-229 66t-83 177q0 81 46 140q45 58 133 86q-136 57 -136 194q0 99 74 159q73 60 195 60q121 0 194 -60q74 -60 74 -159q0 -137 -135 -194zM1126 762
q-57 -45 -57 -121t57 -121q52 -45 142 -45q86 0 143 45q55 45 55 121t-55 121q-56 43 -143 43t-142 -43zM1094 96q64 -53 174 -53t174 53q61 51 61 137q0 85 -62 137t-173 52t-173 -52q-63 -52 -63 -137q0 -86 62 -137z" />
    <glyph glyph-name="seveneighths" unicode="&#x215e;" horiz-adv-x="1388" 
d="M240 612h-80q5 220 92 420q89 203 248 361h-475v65h553v-67q-327 -309 -338 -779zM123 0l778 1458h80l-778 -1458h-80zM1171 451q85 -24 131 -84q46 -59 46 -142q0 -111 -83 -177t-227 -66q-146 0 -228 66q-83 66 -83 177q0 174 178 226q-137 57 -137 194q0 99 74 159
t196 60t195 -60q74 -60 74 -159q0 -137 -136 -194zM897 762q-57 -45 -57 -121t57 -121q53 -45 141 -45q87 0 144 45q55 45 55 121t-55 121q-59 43 -144 43q-86 0 -141 -43zM864 96q64 -53 174 -53t174 53q60 53 60 137q0 87 -63 138t-171 51q-110 0 -173 -51
q-62 -50 -62 -138q0 -86 61 -137z" />
    <glyph glyph-name="arrowleft" unicode="&#x2190;" horiz-adv-x="1957" 
d="M367 770h1357v-80h-1357q46 -58 139 -181q34 -45 129 -169l258 -340h-107l-553 729l553 729h107l-258 -340q-133 -175 -268 -348z" />
    <glyph glyph-name="arrowup" unicode="&#x2191;" horiz-adv-x="1957" 
d="M250 938l729 553l729 -553v-104l-340 256q-136 101 -242 186q-68 50 -104 80v-1356h-86v1356q-34 -27 -59 -45q-38 -27 -92 -71q-48 -39 -80 -62q-76 -60 -115 -88l-340 -256v104z" />
    <glyph glyph-name="arrowright" unicode="&#x2192;" horiz-adv-x="1957" 
d="M1065 1458h106l553 -729l-553 -729h-106l258 340q95 124 129 169q93 123 139 181h-1358v80h1358q-135 173 -268 348z" />
    <glyph glyph-name="arrowdown" unicode="&#x2193;" horiz-adv-x="1957" 
d="M1022 102l346 267l340 256v-105l-729 -553l-729 553v105l340 -256l346 -267v1356h86v-1356z" />
    <glyph glyph-name="arrowboth" unicode="&#x2194;" horiz-adv-x="1957" 
d="M1296 1458h109l553 -729l-553 -729h-109l258 340q140 184 271 350h-1692q22 -28 270 -350l259 -340h-109l-553 729l553 729h109l-259 -340q-53 -69 -270 -348h1690q-2 3 -16.5 22t-48 62.5t-68.5 89.5q-21 28 -76 98q-11 14 -25.5 32.5t-22.5 28.5l-12 15z" />
    <glyph glyph-name="arrowupdn" unicode="&#x2195;" horiz-adv-x="1957" 
d="M1022 1647v-1835q34 27 59 45q40 30 91 70q52 42 81 63q43 37 115 88l340 256v-105l-729 -553l-729 553v105l340 -256q106 -80 244 -187q100 -77 102 -79v1835q-34 -27 -59 -45q-38 -27 -92 -71q-64 -51 -80 -63q-76 -60 -115 -88l-340 -256v105l729 553l729 -553v-105
l-340 256q-118 88 -242 187q-68 50 -104 80z" />
    <glyph glyph-name="uni2196" unicode="&#x2196;" horiz-adv-x="1957" 
d="M1618 1264h-627q-370 0 -506 2l1133 -1119l-59 -63l-1133 1118q2 -136 2 -508v-608l-86 78v1179h1200z" />
    <glyph glyph-name="uni2197" unicode="&#x2197;" horiz-adv-x="1957" 
d="M340 1264l76 79h1200v-1179l-86 -78v608q0 372 2 508l-1133 -1118l-59 63l1133 1119q-136 -2 -506 -2h-627z" />
    <glyph glyph-name="uni2198" unicode="&#x2198;" horiz-adv-x="1957" 
d="M1530 752v608l86 -78v-1180h-1200l-76 80h627q372 0 508 -2l-1135 1118l59 66l1133 -1118q-2 136 -2 506z" />
    <glyph glyph-name="uni2199" unicode="&#x2199;" horiz-adv-x="1957" 
d="M1618 1286l-1135 -1116q136 2 508 2h627l-76 -82h-1200v1180l86 80v-609q0 -372 -2 -508l1133 1119z" />
    <glyph glyph-name="partialdiff" unicode="&#x2202;" horiz-adv-x="1257" 
d="M756 1491q192 0 293 -120q100 -119 100 -337q0 -271 -82 -516q-84 -251 -227 -385q-156 -166 -369 -166q-168 0 -270 102q-103 103 -103 267q0 247 166 420q164 176 387 176q153 0 248 -93q94 -93 94 -243q68 222 68 432q0 383 -311 383q-120 0 -226 -80
q-102 -77 -159 -211h-91q63 169 192 271q127 100 290 100zM475 47q185 0 322 156q135 153 135 352q0 136 -76 216q-76 81 -207 81q-179 0 -319 -152q-140 -157 -140 -356q0 -135 78 -216t207 -81z" />
    <glyph glyph-name="uni2206" unicode="&#x2206;" horiz-adv-x="1337" 
d="M618 1458h99l563 -1378v-80h-1223v80zM668 1366q-126 -326 -170 -432l-348 -854h1038l-350 856q-63 148 -170 430z" />
    <glyph glyph-name="product" unicode="&#x220f;" horiz-adv-x="1372" 
d="M133 -401v1859h1106v-1859h-86v1779h-932v-1779h-88z" />
    <glyph glyph-name="summation" unicode="&#x2211;" horiz-adv-x="1142" 
d="M586 -322h499v-79h-1028v82l629 847l-629 848v82h1008v-80h-479q-256 0 -424 4l256 -342l360 -489v-45l-360 -490l-256 -342q168 4 424 4z" />
    <glyph glyph-name="minus" unicode="&#x2212;" horiz-adv-x="1056" 
d="M952 690h-848v78h848v-78z" />
    <glyph glyph-name="uni2215" unicode="&#x2215;" horiz-adv-x="1056" 
d="M184 0h-90l778 1458h93z" />
    <glyph glyph-name="uni2219" unicode="&#x2219;" horiz-adv-x="1056" 
d="M604 651h-155v156h155v-156z" />
    <glyph glyph-name="radical" unicode="&#x221a;" horiz-adv-x="1400" 
d="M776 115l510 1343h90l-708 -1859h-97l-342 893h-204v77h264l174 -454q34 -91 155 -424q7 16 14 35q3 8 11.5 31t13.5 38q18 50 33 86q49 139 86 234z" />
    <glyph glyph-name="infinity" unicode="&#x221e;" horiz-adv-x="1619" 
d="M1186 1112q151 0 239 -106t88 -277q0 -170 -88 -276q-89 -107 -239 -107q-207 0 -377 299q-164 -299 -377 -299q-150 0 -239 107t-89 276q0 170 89 277q88 106 239 106q213 0 377 -299q170 299 377 299zM434 420q92 0 173 75q80 74 163 234q-159 309 -336 309
q-113 0 -179 -85q-67 -87 -67 -224t67 -224q66 -85 179 -85zM1186 420q112 0 178 85q66 86 66 224q0 139 -66 224t-178 85q-180 0 -336 -309q156 -309 336 -309z" />
    <glyph glyph-name="integral" unicode="&#x222b;" horiz-adv-x="800" 
d="M190 -406q-1 0 -10 0.5t-31 2t-45 2.5v73q69 -4 82 -4q172 0 172 174v1370q0 250 252 250q17 0 86 -4v-74q-23 1 -43 2.5t-29 1.5l-8 1q-174 0 -174 -175v-1370q0 -250 -252 -250z" />
    <glyph glyph-name="approxequal" unicode="&#x2248;" horiz-adv-x="1056" 
d="M188 784h-75q15 96 69 147q55 52 137 52q87 0 234 -63q134 -54 184 -54q107 0 131 121h76q-15 -94 -70 -146q-56 -53 -137 -53q-63 0 -213 60q-145 59 -205 59q-103 0 -131 -123zM188 457h-75q15 95 69 146q55 52 137 52q87 0 234 -63q132 -53 184 -53q107 0 131 120h76
q-15 -94 -70 -146t-137 -52q-65 0 -213 59q-147 60 -205 60q-103 0 -131 -123z" />
    <glyph glyph-name="notequal" unicode="&#x2260;" horiz-adv-x="1056" 
d="M952 934v-74h-317l-109 -262h426v-74h-456l-101 -245l-71 24l92 221h-312v74h340l109 262h-449v74h480l102 248l70 -27l-90 -221h286z" />
    <glyph glyph-name="lessequal" unicode="&#x2264;" horiz-adv-x="1056" 
d="M952 1184v-92l-329 -156q-359 -163 -437 -197q36 -15 254 -114q4 -2 92 -43q45 -21 66 -30q5 -2 9.5 -4t7 -3.5t5 -2.5t3.5 -1l329 -156v-92l-848 401v88zM952 0h-848v78h848v-78z" />
    <glyph glyph-name="greaterequal" unicode="&#x2265;" horiz-adv-x="1056" 
d="M104 1092v92l848 -402v-88l-848 -401v92l332 156q83 37 434 198q-146 64 -434 197zM952 0h-848v78h848v-78z" />
    <glyph glyph-name="uni2460" unicode="&#x2460;" horiz-adv-x="1957" 
d="M285 1403q284 274 694 274t696 -274q283 -277 283 -674t-283 -672q-287 -276 -696 -276q-412 0 -694 276q-285 273 -285 672q0 398 285 674zM344 111q257 -254 635 -254q377 0 637 254q258 253 258 618t-258 619q-260 254 -637 254q-378 0 -635 -254q-260 -254 -260 -619
q0 -364 260 -618zM987 1196h76v-932h-84v805q-81 -81 -252 -92v61q188 18 260 158z" />
    <glyph glyph-name="uni2461" unicode="&#x2461;" horiz-adv-x="1957" 
d="M285 1403q284 274 694 274t696 -274q283 -277 283 -674t-283 -672q-287 -276 -696 -276q-412 0 -694 276q-285 273 -285 672q0 398 285 674zM344 111q257 -254 635 -254q377 0 637 254q258 253 258 618t-258 619q-260 254 -637 254q-378 0 -635 -254q-260 -254 -260 -619
q0 -364 260 -618zM1057 688l-86 -43q-203 -102 -219 -276h538v-74h-628v37q6 254 276 381l82 41q176 86 176 225q0 86 -56 141q-58 56 -163 56q-102 0 -159 -59q-55 -57 -60 -150h-82q4 125 82 202q78 78 221 78q141 0 220 -75t79 -191q0 -98 -53 -168q-52 -69 -168 -125z
" />
    <glyph glyph-name="uni2462" unicode="&#x2462;" horiz-adv-x="1957" 
d="M285 1403q284 274 694 274t696 -274q283 -277 283 -674t-283 -672q-287 -276 -696 -276q-412 0 -694 276q-285 273 -285 672q0 398 285 674zM344 111q257 -254 635 -254q377 0 637 254q258 253 258 618t-258 619q-260 254 -637 254q-378 0 -635 -254q-260 -254 -260 -619
q0 -364 260 -618zM1118 764q88 -21 139 -85q52 -66 52 -159q0 -124 -89 -199q-88 -75 -241 -75q-155 0 -243 75q-89 75 -89 207h82q1 -100 69 -158q66 -57 181 -57q111 0 178 57q68 57 68 152q0 97 -68 150t-186 53h-56v66h58q100 0 161 47q60 46 60 131q0 83 -59 130
q-60 48 -156 48q-97 0 -155 -49q-58 -50 -60 -135h-84q5 119 85 186q82 68 214 68q135 0 216 -66t81 -174q0 -75 -43 -131q-45 -59 -115 -82z" />
    <glyph glyph-name="uni2463" unicode="&#x2463;" horiz-adv-x="1957" 
d="M285 1403q284 274 694 274t696 -274q283 -277 283 -674t-283 -672q-287 -276 -696 -276q-412 0 -694 276q-285 273 -285 672q0 398 285 674zM344 111q257 -254 635 -254q377 0 637 254q258 253 258 618t-258 619q-260 254 -637 254q-378 0 -635 -254q-260 -254 -260 -619
q0 -364 260 -618zM1042 1217h91v-603h147v-73h-147v-256h-86v256h-498v84zM1049 614v504l-420 -504h420z" />
    <glyph glyph-name="uni2464" unicode="&#x2464;" horiz-adv-x="1957" 
d="M285 1403q284 274 694 274t696 -274q283 -277 283 -674t-283 -672q-287 -276 -696 -276q-412 0 -694 276q-285 273 -285 672q0 398 285 674zM344 111q257 -254 635 -254q377 0 637 254q258 253 258 618t-258 619q-260 254 -637 254q-378 0 -635 -254q-260 -254 -260 -619
q0 -364 260 -618zM997 870q133 0 217 -88t84 -225q0 -139 -89 -225t-226 -86q-133 0 -220 71q-90 73 -106 191h84q17 -88 81 -141q66 -54 161 -54q103 0 170 70q66 69 66 174q0 107 -66 176q-67 70 -170 70q-80 0 -139 -37t-86 -100h-82l88 530h491v-74h-424l-59 -350
q76 98 225 98z" />
    <glyph glyph-name="uni2465" unicode="&#x2465;" horiz-adv-x="1957" 
d="M285 1403q284 274 694 274t696 -274q283 -277 283 -674t-283 -672q-287 -276 -696 -276q-412 0 -694 276q-285 273 -285 672q0 398 285 674zM344 111q257 -254 635 -254q377 0 637 254q258 253 258 618t-258 619q-260 254 -637 254q-378 0 -635 -254q-260 -254 -260 -619
q0 -364 260 -618zM997 870q134 0 224 -90q86 -91 86 -223q0 -137 -90 -224t-230 -87q-119 0 -201 63q-141 112 -141 406q0 241 87 371q87 131 263 131q118 0 198 -65q78 -63 99 -173h-84q-18 81 -73 124q-56 44 -140 44q-272 0 -272 -430v-25q34 82 108 130q73 48 166 48z
M987 313q104 0 170 69t66 173t-67 174t-169 70q-101 0 -168 -70q-65 -68 -65 -174q0 -105 65 -173q66 -69 168 -69z" />
    <glyph glyph-name="uni2466" unicode="&#x2466;" horiz-adv-x="1957" 
d="M285 1403q284 274 694 274t696 -274q283 -277 283 -674t-283 -672q-287 -276 -696 -276q-412 0 -694 276q-285 273 -285 672q0 398 285 674zM344 111q257 -254 635 -254q377 0 637 254q258 253 258 618t-258 619q-260 254 -637 254q-378 0 -635 -254q-260 -254 -260 -619
q0 -364 260 -618zM1212 1098h-520v73h608v-75q-365 -342 -372 -856h-88q4 242 99 465t273 393z" />
    <glyph glyph-name="uni2467" unicode="&#x2467;" horiz-adv-x="1957" 
d="M285 1403q284 274 694 274t696 -274q283 -277 283 -674t-283 -672q-287 -276 -696 -276q-412 0 -694 276q-285 273 -285 672q0 398 285 674zM344 111q257 -254 635 -254q377 0 637 254q258 253 258 618t-258 619q-260 254 -637 254q-378 0 -635 -254q-260 -254 -260 -619
q0 -364 260 -618zM1126 760q195 -60 195 -246q0 -122 -91 -195t-253 -73q-158 0 -249 73t-91 195q0 186 194 246q-149 63 -149 213q0 109 81 176q82 68 214 68q134 0 216 -67q81 -66 81 -177q0 -71 -39 -128q-38 -56 -109 -85zM821 1102q-61 -49 -61 -131t61 -131
q61 -52 156 -52q98 0 160 50q61 49 61 133q0 81 -61 130q-62 50 -160 50q-95 0 -156 -49zM977 313q122 0 191 57t69 150q0 95 -69 152t-191 57q-121 0 -189 -57q-67 -57 -67 -152q0 -93 67 -150q68 -57 189 -57z" />
    <glyph glyph-name="uni2468" unicode="&#x2468;" horiz-adv-x="1957" 
d="M285 1403q284 274 694 274t696 -274q283 -277 283 -674t-283 -672q-287 -276 -696 -276q-412 0 -694 276q-285 273 -285 672q0 398 285 674zM344 111q257 -254 635 -254q377 0 637 254q258 253 258 618t-258 619q-260 254 -637 254q-378 0 -635 -254q-260 -254 -260 -619
q0 -364 260 -618zM1182 1151q143 -112 143 -403q0 -240 -86 -371t-254 -131q-127 0 -208 63q-80 62 -101 174h84q18 -80 77 -125t148 -45q260 0 260 432v27q-34 -84 -107 -132q-72 -48 -165 -48q-135 0 -221 90q-88 88 -88 221q0 135 90 225q89 89 227 89q117 0 201 -66z
M811 733q63 -69 170 -69t170 69q66 69 66 172q0 102 -66 174q-66 68 -170 68t-170 -68q-66 -72 -66 -174q0 -103 66 -172z" />
    <glyph glyph-name="uni24EA" unicode="&#x24ea;" horiz-adv-x="1957" 
d="M1675 57q-287 -276 -696 -276q-412 0 -694 276q-285 273 -285 672q0 398 285 674q284 274 694 274t696 -274q283 -277 283 -674t-283 -672zM344 111q257 -254 635 -254q377 0 637 254q258 253 258 618t-258 619q-260 254 -637 254q-378 0 -635 -254q-260 -254 -260 -619
q0 -364 260 -618zM981 246q-163 0 -252 129q-88 128 -88 354q0 229 87 358q88 130 253 130q164 0 250 -131t86 -357q0 -224 -86 -354q-85 -129 -250 -129zM981 317q120 0 184 109q64 110 64 303t-64 304q-63 110 -184 110q-122 0 -187 -110t-65 -304t65 -303t187 -109z" />
    <glyph glyph-name="uni24FF" unicode="&#x24ff;" horiz-adv-x="1957" 
d="M1475 -94q-224 -125 -496 -125t-496 125q-223 124 -354 346q-129 219 -129 477q0 261 129 479q128 216 354 344q224 125 496 125t496 -125q226 -128 354 -344q129 -217 129 -479q0 -258 -129 -477q-131 -222 -354 -346zM731 377q89 -131 250 -131q162 0 248 131
q86 130 86 352q0 225 -87 355t-247 130q-161 0 -250 -129q-88 -128 -88 -356q0 -225 88 -352zM981 313q-124 0 -190 110q-66 109 -66 306q0 199 66 308q66 110 190 110q122 0 187 -110t65 -308q0 -193 -65 -305q-64 -111 -187 -111z" />
    <glyph glyph-name="filledbox" unicode="&#x25a0;" horiz-adv-x="1957" 
d="M1909 -180h-1860v1818h1860v-1818z" />
    <glyph glyph-name="uni25A1" unicode="&#x25a1;" horiz-adv-x="1957" 
d="M1909 -180h-1860v1818h1860v-1818zM133 1563v-1667h1692v1667h-1692z" />
    <glyph glyph-name="lozenge" unicode="&#x25ca;" horiz-adv-x="1148" 
d="M530 1458h88l467 -729l-467 -729h-88l-467 729zM162 729l413 -647l412 647l-412 647z" />
    <glyph glyph-name="circle" unicode="&#x25cb;" horiz-adv-x="1957" 
d="M1675 57q-287 -276 -696 -276q-412 0 -694 276q-285 273 -285 672q0 398 285 674q284 274 694 274t696 -274q283 -277 283 -674t-283 -672zM344 111q257 -254 635 -254q377 0 637 254q258 253 258 618t-258 619q-260 254 -637 254q-378 0 -635 -254q-260 -254 -260 -619
q0 -364 260 -618z" />
    <glyph glyph-name="uni25CF" unicode="&#x25cf;" horiz-adv-x="1957" 
d="M1475 -94q-224 -125 -496 -125t-496 125q-223 124 -354 346q-129 219 -129 477q0 261 129 479q128 216 354 344q224 125 496 125t496 -125q226 -128 354 -344q129 -217 129 -479q0 -258 -129 -477q-131 -222 -354 -346z" />
    <glyph glyph-name="uni2776" unicode="&#x2776;" horiz-adv-x="1957" 
d="M1475 -94q-224 -125 -496 -125t-496 125q-223 124 -354 346q-129 219 -129 477q0 261 129 479q128 216 354 344q224 125 496 125t496 -125q226 -128 354 -344q129 -217 129 -479q0 -258 -129 -477q-131 -222 -354 -346zM971 1096v-815h80v925h-72q-72 -140 -258 -157v-58
q167 10 250 105z" />
    <glyph glyph-name="uni2777" unicode="&#x2777;" horiz-adv-x="1957" 
d="M1475 -94q-224 -125 -496 -125t-496 125q-223 124 -354 346q-129 219 -129 477q0 261 129 479q128 216 354 344q224 125 496 125t496 -125q226 -128 354 -344q129 -217 129 -479q0 -258 -129 -477q-131 -222 -354 -346zM668 322l-2 -33h624v67h-538q6 174 221 281l88 45
q217 106 217 289q0 114 -78 189t-219 75q-142 0 -218 -76q-77 -77 -81 -198h76q4 93 61 150q56 56 160 56q107 0 164 -54t57 -144q0 -142 -176 -228l-82 -41q-270 -127 -274 -378z" />
    <glyph glyph-name="uni2778" unicode="&#x2778;" horiz-adv-x="1957" 
d="M1475 -94q-224 -125 -496 -125t-496 125q-223 124 -354 346q-129 219 -129 477q0 261 129 479q128 216 354 344q224 125 496 125t496 -125q226 -128 354 -344q129 -217 129 -479q0 -258 -129 -477q-131 -222 -354 -346zM741 319q89 -73 238 -73q152 0 240 76
q88 73 88 198q0 91 -55 157q-54 65 -152 87q82 22 127 79t45 134q0 109 -79 173t-214 64q-131 0 -211 -66t-84 -183h76q6 88 64 136t155 48q99 0 158 -49t59 -131q0 -84 -60 -132q-61 -49 -163 -49h-55v-59h53q120 0 189 -54t69 -153q0 -96 -69 -153q-70 -58 -181 -58
q-117 0 -183 57q-68 58 -69 158h-78q5 -134 92 -207z" />
    <glyph glyph-name="uni2779" unicode="&#x2779;" horiz-adv-x="1957" 
d="M1475 -94q-224 -125 -496 -125t-496 125q-223 124 -354 346q-129 219 -129 477q0 261 129 479q128 216 354 344q224 125 496 125t496 -125q226 -128 354 -344q129 -217 129 -479q0 -258 -129 -477q-131 -222 -354 -346zM1073 545v-258h82v258h145v67h-145v602h-86
l-491 -591v-78h495zM1077 612h-428l428 514v-514z" />
    <glyph glyph-name="uni277A" unicode="&#x277a;" horiz-adv-x="1957" 
d="M1475 -94q-224 -125 -496 -125t-496 125q-223 124 -354 346q-129 219 -129 477q0 261 129 479q128 216 354 344q224 125 496 125t496 -125q226 -128 354 -344q129 -217 129 -479q0 -258 -129 -477q-131 -222 -354 -346zM983 248q136 0 225 86q88 85 88 223q0 134 -83 222
q-83 87 -214 87q-155 0 -231 -106l59 366h424v68h-483l-90 -524h78q63 135 227 135q104 0 171 -70t67 -178q0 -106 -67 -176t-171 -70q-94 0 -162 54q-65 52 -82 141h-77q18 -118 105 -188q86 -70 216 -70z" />
    <glyph glyph-name="uni277B" unicode="&#x277b;" horiz-adv-x="1957" 
d="M1475 -94q-224 -125 -496 -125t-496 125q-223 124 -354 346q-129 219 -129 477q0 261 129 479q128 216 354 344q224 125 496 125t496 -125q226 -128 354 -344q129 -217 129 -479q0 -258 -129 -477q-131 -222 -354 -346zM981 246q141 0 228 88t87 223q0 130 -86 221
q-85 88 -219 88q-101 0 -175 -59q-75 -60 -93 -158q-6 39 -6 103q6 397 272 397q85 0 142 -45t75 -123h78q-23 108 -101 170q-79 63 -194 63q-174 0 -261 -130t-87 -369q0 -290 141 -404q83 -65 199 -65zM981 311q-103 0 -170 69q-68 70 -68 175q0 106 68 176t170 70
q104 0 172 -71t68 -175t-68 -174t-172 -70z" />
    <glyph glyph-name="uni277C" unicode="&#x277c;" horiz-adv-x="1957" 
d="M1475 -94q-224 -125 -496 -125t-496 125q-223 124 -354 346q-129 219 -129 477q0 261 129 479q128 216 354 344q224 125 496 125t496 -125q226 -128 354 -344q129 -217 129 -479q0 -258 -129 -477q-131 -222 -354 -346zM842 242h84q6 510 370 856v71h-602v-67h527
q-179 -169 -276 -392q-97 -224 -103 -468z" />
    <glyph glyph-name="uni277D" unicode="&#x277d;" horiz-adv-x="1957" 
d="M1475 -94q-224 -125 -496 -125t-496 125q-223 124 -354 346q-129 219 -129 477q0 261 129 479q128 216 354 344q224 125 496 125t496 -125q226 -128 354 -344q129 -217 129 -479q0 -258 -129 -477q-131 -222 -354 -346zM731 319q88 -73 248 -73t248 73q90 73 90 195
q0 191 -209 248q164 56 164 211q0 109 -81 175t-212 66t-212 -66t-81 -175q0 -155 164 -211q-209 -57 -209 -248q0 -122 90 -195zM1139 836q-64 -52 -160 -52q-97 0 -158 52t-61 135t61 135q61 49 158 49q95 0 160 -49q61 -52 61 -135t-61 -135zM979 309q-121 0 -191 59
q-69 58 -69 152t69 153q68 58 191 58t192 -57q70 -58 70 -154q0 -95 -70 -153t-192 -58z" />
    <glyph glyph-name="uni277E" unicode="&#x277e;" horiz-adv-x="1957" 
d="M1475 -94q-224 -125 -496 -125t-496 125q-223 124 -354 346q-129 219 -129 477q0 261 129 479q128 216 354 344q224 125 496 125t496 -125q226 -128 354 -344q129 -217 129 -479q0 -258 -129 -477q-131 -222 -354 -346zM979 246q170 0 256 131t86 371q0 287 -139 401
q-87 65 -201 65q-137 0 -225 -88q-90 -90 -90 -223q0 -131 88 -219q86 -90 219 -90q99 0 171 57q73 58 91 152l4 14q8 -37 8 -104q-7 -402 -268 -402q-85 0 -144 44t-77 124h-78q21 -105 101 -169t198 -64zM1153 729q-68 -70 -172 -70q-105 0 -172 72q-68 73 -68 174
q0 105 68 175q67 69 172 69q104 0 172 -68q66 -72 66 -176t-66 -176z" />
    <glyph glyph-name="uni2E18" unicode="&#x2e18;" horiz-adv-x="1003" 
d="M438 1200h131v-129h-131v129zM862 152h84q-8 -221 -128 -332t-333 -111q-201 0 -309 93t-108 266q0 184 198 348q138 113 176 211q25 64 25 202h74l6 -598v-215h-90v215l6 273q-39 -62 -107 -119q-75 -61 -106 -96q-35 -38 -62 -90q-32 -61 -32 -131q0 -131 83 -205
t244 -74q177 0 272 86t107 277z" />
    <glyph glyph-name="uniF8FF" unicode="&#xf8ff;" horiz-adv-x="1437" 
d="M446 1284v-260h-36v647h36v-270q45 104 160 104q81 0 124 -46q44 -47 44 -132v-303h-37v301q0 145 -137 145q-67 0 -110 -49q-44 -50 -44 -137zM1266 1024v647h37v-647h-37zM1024 1014q-99 0 -154 66q-55 65 -55 180q0 114 55 179q55 66 152 66t152 -68t55 -177v-15h-375
q4 -93 48 -146q43 -52 124 -52q62 0 103 35q43 37 53 96h39q-15 -77 -67 -120q-53 -44 -130 -44zM1022 1470q-74 0 -118 -51q-44 -52 -50 -139h336q-4 86 -48 138q-43 52 -120 52zM1300 752v-15h-376q4 -94 49 -146t125 -52q128 0 155 131h39q-15 -77 -66 -121
q-52 -45 -130 -45q-96 0 -153 67q-56 66 -56 179q0 114 55 179q56 66 152 66t151 -67t55 -176zM909 983l-190 -469h-41l-191 469h43l99 -250q45 -104 71 -182q21 63 70 182l98 250h41zM1094 961q-73 0 -119 -51q-45 -50 -51 -138h338q-4 85 -49 137q-44 52 -119 52zM455 541
h-39v84h39v-84zM213 602h39v-133h117v-35h-117v-340q0 -63 74 -63h43v-31q-20 -2 -47 -2q-109 0 -109 94v342h-80v35h80v133zM702 23q63 0 104 37t52 100h39q-11 -76 -63 -123q-53 -47 -132 -47q-93 0 -150 66q-56 65 -56 180q0 114 56 179q57 66 150 66q78 0 131 -44
q51 -42 62 -118h-39q-11 59 -52 93t-102 34q-75 0 -121 -56t-46 -154q0 -100 46 -156q47 -57 121 -57zM1292 354v-262q0 -50 11 -92h-37q-11 47 -11 90q-45 -100 -180 -100q-73 0 -113 36t-40 97q0 118 161 139l76 8q54 6 76 26q20 19 20 58q0 95 -129 95q-74 0 -110 -28
q-34 -27 -39 -89h-35q1 149 184 149q166 0 166 -127zM455 0h-37v469h37v-469zM1077 23q81 0 130 44q48 43 48 128v79q-17 -23 -88 -34l-75 -9q-131 -15 -131 -108q0 -100 116 -100z" />
    <glyph glyph-name="uniFEFF" unicode="&#xfeff;" 
 />
    <glyph glyph-name="null" 
 />
    <glyph glyph-name="Adieresis.ss01" horiz-adv-x="1339" 
d="M547 1581q-49 -49 -100 1q-50 50 -1 99q48 47 98 -3t3 -97zM891 1581q-49 -49 -99 1t-1 99q47 47 97 -3t3 -97zM1315 0h-94l-185 451h-735l-184 -451h-92l593 1458h99zM498 934l-166 -406h672l-166 406q-44 106 -170 432q-126 -326 -170 -432z" />
    <glyph glyph-name="Cdotaccent.ss01" horiz-adv-x="1413" 
d="M778 1614q-49 -49 -99 1t-1 99q47 47 97 -3t3 -97zM727 -33q-297 0 -473 209q-176 212 -176 553t176 553q176 209 473 209q236 0 397 -140t205 -384h-88q-40 210 -177 327q-136 117 -337 117q-258 0 -408 -186q-151 -188 -151 -496q0 -305 151 -493q151 -189 408 -189
q207 0 352 131q143 129 170 357h88q-29 -264 -194 -414q-169 -154 -416 -154z" />
    <glyph glyph-name="Edieresis.ss01" horiz-adv-x="1163" 
d="M494 1581q-50 -49 -100 1t-1 99q47 47 97 -3t4 -97zM838 1581q-50 -49 -100 1t-1 99q47 47 98 -3q50 -50 3 -97zM221 723v-643h881v-80h-969v1458h961v-80h-873v-575h791v-80h-791z" />
    <glyph glyph-name="Edotaccent.ss01" horiz-adv-x="1163" 
d="M666 1581q-50 -49 -100 1t-1 99q47 47 98 -3q50 -50 3 -97zM221 723v-643h881v-80h-969v1458h961v-80h-873v-575h791v-80h-791z" />
    <glyph glyph-name="uni0122.ss01" horiz-adv-x="1492" 
d="M780 647v80h600v-727h-86l-2 326q-68 -173 -207 -266q-140 -93 -340 -93q-305 0 -485 211q-182 212 -182 551q0 341 178 553q179 209 487 209q255 0 418 -139q161 -141 201 -373h-92q-34 195 -176 314q-140 118 -351 118q-268 0 -421 -186q-154 -190 -154 -496
q0 -303 158 -493q158 -189 419 -189q255 0 402 168q145 169 145 432h-512zM756 -98q80 0 80 -119v-19q0 -166 -123 -200l-21 -6v53l13 4q71 28 71 133v14v9q-6 -2 -20 -2q-30 0 -50 18t-20 49q0 29 21 47q22 19 49 19z" />
    <glyph glyph-name="Gdotaccent.ss01" horiz-adv-x="1492" 
d="M791 1599q-49 -49 -100 2q-50 50 -1 99q47 47 97 -3q51 -51 4 -98zM780 647v80h600v-727h-86l-2 326q-68 -173 -207 -266q-140 -93 -340 -93q-305 0 -485 211q-182 212 -182 551q0 341 178 553q179 209 487 209q255 0 418 -139q161 -141 201 -373h-92q-34 195 -176 314
q-140 118 -351 118q-268 0 -421 -186q-154 -190 -154 -496q0 -303 158 -493q158 -189 419 -189q255 0 402 168q145 169 145 432h-512z" />
    <glyph glyph-name="Idieresis.ss01" horiz-adv-x="354" 
d="M88 1581q-18 -18 -42 -21q-23 -3 -41 9q-17 12 -29 29q-11 16 -9 41q1 22 21 42q31 31 68 18q38 -14 48 -49q11 -36 -16 -69zM367 1581q-30 -33 -69 -19q-38 14 -47 49q-9 37 17 70q32 31 69 18q39 -14 46 -49q8 -37 -16 -69zM221 0h-88v1458h88v-1458z" />
    <glyph glyph-name="Idotaccent.ss01" horiz-adv-x="354" 
d="M176 1559q-43 -1 -60 34q-18 37 0 74q18 36 60 35q44 2 62 -35q18 -38 1 -74t-63 -34zM221 0h-88v1458h88v-1458z" />
    <glyph glyph-name="uni0136.ss01" horiz-adv-x="1286" 
d="M1249 1458l-649 -614l662 -844h-109l-616 786l-316 -297v-489h-88v1458h88v-864l912 864h116zM666 -80q79 0 79 -119v-18q0 -168 -122 -201l-21 -6v53l12 4q72 29 72 134v14v8q-6 -2 -20 -2q-32 0 -51 18t-19 50q0 30 20 47q21 18 50 18z" />
    <glyph glyph-name="uni013B.ss01" horiz-adv-x="1028" 
d="M221 1458v-1378h762v-80h-850v1458h88zM557 -80q80 0 80 -119v-18q0 -168 -123 -201l-20 -6v53l12 4q72 29 72 134v14v8q-6 -2 -21 -2q-31 0 -50 18q-20 18 -20 50q0 29 21 47t49 18z" />
    <glyph glyph-name="Ldot.ss01" horiz-adv-x="1028" 
d="M221 1458v-1378h762v-80h-850v1458h88zM694 680q-47 -5 -65 35q-18 39 0 78t65 34q46 5 65 -34t0 -78q-20 -40 -65 -35z" />
    <glyph glyph-name="uni0145.ss01" horiz-adv-x="1374" 
d="M1153 487v971h88v-1458h-108l-717 1042q-135 205 -199 310q2 -126 2 -381v-971h-86v1458h109l716 -1042q174 -265 199 -307q-4 168 -4 378zM688 -80q80 0 80 -119v-18q0 -168 -123 -201l-20 -6v53l12 4q72 29 72 134v14v8q-6 -2 -21 -2q-30 0 -50 18t-20 50q0 29 21 47
t49 18z" />
    <glyph glyph-name="Odieresis.ss01" horiz-adv-x="1497" 
d="M629 1614q-49 -50 -100 1q-50 50 -1 99q48 48 98 -3q50 -50 3 -97zM973 1614q-49 -50 -100 1q-50 50 -1 99q48 48 98 -3q50 -50 3 -97zM750 -33q-310 0 -490 211q-182 212 -182 551t182 551q180 211 490 211q305 0 489 -211q182 -212 182 -551q0 -337 -182 -549
q-185 -213 -489 -213zM328 238q156 -191 422 -191q264 0 421 189q158 190 158 493q0 304 -158 494q-157 188 -421 188q-265 0 -422 -188q-160 -192 -160 -494q0 -301 160 -491z" />
    <glyph glyph-name="uni0156.ss01" horiz-adv-x="1275" 
d="M1155 410l12 -240q6 -106 52 -170h-91q-42 54 -47 172l-10 207q-6 151 -81 219q-76 68 -245 68h-524v-666h-88v1458h592q218 0 340 -100q123 -100 123 -287q0 -147 -77 -241q-76 -92 -216 -119q130 -22 192 -97q62 -74 68 -204zM221 745h512q171 0 266 82q97 83 97 240
q0 151 -98 231t-273 80h-504v-633zM674 -80q80 0 80 -119v-18q0 -168 -123 -201l-21 -6v53l13 4q71 28 71 134v14v8q-6 -2 -20 -2q-30 0 -50 18t-20 50q0 29 21 47t49 18z" />
    <glyph glyph-name="uni0218.ss01" horiz-adv-x="1230" 
d="M580 803l151 -29q240 -50 341 -143q102 -95 102 -256q0 -185 -139 -297q-138 -111 -388 -111q-552 0 -579 457h90q21 -377 489 -377q211 0 324 87q112 87 112 241q0 128 -89 205q-87 75 -300 116l-153 29q-217 43 -321 138q-103 94 -103 259q0 169 130 269t357 100
q258 0 390 -111t136 -301h-90q-17 332 -436 332q-190 0 -294 -78q-103 -78 -103 -211q0 -131 84 -203q85 -73 289 -116zM649 -111q80 0 80 -118v-19q0 -166 -123 -201l-20 -6v54l12 4q72 29 72 133v14v8q-6 -2 -21 -2q-29 0 -50 19q-19 18 -19 49q0 30 20 47q21 18 49 18z
" />
    <glyph glyph-name="uni021A.ss01" horiz-adv-x="1245" 
d="M47 1378v80h1151v-80h-530v-1378h-90v1378h-531zM623 -80q79 0 79 -119v-18q0 -168 -122 -201l-21 -6v53l12 4q72 29 72 134v14v8q-6 -2 -20 -2q-31 0 -51 18q-19 18 -19 50q0 30 20 47q21 18 50 18z" />
    <glyph glyph-name="Udieresis.ss01" horiz-adv-x="1312" 
d="M537 1581q-49 -49 -100 1q-50 50 -1 99q48 47 98 -3t3 -97zM881 1581q-49 -49 -100 1q-50 50 -1 99q48 47 98 -3t3 -97zM657 -33q-256 0 -401 143q-143 142 -143 412v936h88v-936q0 -236 118 -355q119 -120 338 -120t338 120q119 121 119 355v936h86v-936
q0 -270 -143 -412q-145 -143 -400 -143z" />
    <glyph glyph-name="Wdieresis.ss01" horiz-adv-x="1974" 
d="M866 1581q-49 -49 -99 1t-1 99q47 47 97 -3t3 -97zM1210 1581q-49 -49 -99 1t-1 99q47 47 97 -3t3 -97zM1546 473l314 985h90l-457 -1458h-102l-316 1036q-39 126 -88 316q-49 -190 -88 -316l-315 -1036h-103l-456 1458h90l313 -985q58 -189 107 -371q61 235 104 375
l297 981h102l297 -981q49 -162 105 -375q55 207 106 371z" />
    <glyph glyph-name="Ydieresis.ss01" horiz-adv-x="1277" 
d="M518 1581q-49 -49 -99 1t-1 99q47 47 97 -3t3 -97zM862 1581q-49 -49 -99 1t-1 99q47 47 97 -3t3 -97zM885 1071l268 387h100l-571 -827v-631h-88v631l-569 827h100l270 -389q78 -117 133 -199q75 -112 111 -163q37 57 246 364z" />
    <glyph glyph-name="Zdotaccent.ss01" horiz-adv-x="1191" 
d="M653 1581q-49 -49 -99 1t-1 99q47 47 97 -3t3 -97zM584 80h551v-80h-1078v80l707 960q140 189 256 342q-164 -4 -424 -4h-500v80h1028v-80l-708 -960q-140 -189 -256 -342q164 4 424 4z" />
    <glyph glyph-name="G.ss03" horiz-adv-x="1480" 
d="M758 737h645l-2 -4h2v-28q0 -333 -170 -535q-168 -203 -479 -203q-308 0 -492 211t-184 553q0 339 184 551q185 209 488 209q262 0 429 -138q165 -137 203 -374h-90q-33 195 -177 314q-143 118 -365 118q-263 0 -422 -184q-160 -186 -160 -496q0 -305 160 -495
q159 -189 426 -189q255 0 402 163q147 164 159 447h-557v80z" />
    <glyph glyph-name="uni01F4.ss03" horiz-adv-x="1480" 
d="M918 1874h112l-242 -295h-77zM758 737h645l-2 -4h2v-28q0 -333 -170 -535q-168 -203 -479 -203q-308 0 -492 211t-184 553q0 339 184 551q185 209 488 209q262 0 429 -138q165 -137 203 -374h-90q-33 195 -177 314q-143 118 -365 118q-263 0 -422 -184
q-160 -186 -160 -496q0 -305 160 -495q159 -189 426 -189q255 0 402 163q147 164 159 447h-557v80z" />
    <glyph glyph-name="Gbreve.ss03" horiz-adv-x="1480" 
d="M950 1647q-76 -76 -200 -76q-125 0 -201 76q-83 74 -90 190h71q12 -90 70 -143q59 -54 148 -54t150 55t71 142h71q-12 -113 -90 -190zM758 737h645l-2 -4h2v-28q0 -333 -170 -535q-168 -203 -479 -203q-308 0 -492 211t-184 553q0 339 184 551q185 209 488 209
q262 0 429 -138q165 -137 203 -374h-90q-33 195 -177 314q-143 118 -365 118q-263 0 -422 -184q-160 -186 -160 -496q0 -305 160 -495q159 -189 426 -189q255 0 402 163q147 164 159 447h-557v80z" />
    <glyph glyph-name="Gcircumflex.ss03" horiz-adv-x="1480" 
d="M969 1579l-219 244l-220 -244h-86l242 295h127l242 -295h-86zM758 737h645l-2 -4h2v-28q0 -333 -170 -535q-168 -203 -479 -203q-308 0 -492 211t-184 553q0 339 184 551q185 209 488 209q262 0 429 -138q165 -137 203 -374h-90q-33 195 -177 314q-143 118 -365 118
q-263 0 -422 -184q-160 -186 -160 -496q0 -305 160 -495q159 -189 426 -189q255 0 402 163q147 164 159 447h-557v80z" />
    <glyph glyph-name="uni0122.ss03" horiz-adv-x="1480" 
d="M758 737h645l-2 -4h2v-28q0 -333 -170 -535q-168 -203 -479 -203q-308 0 -492 211t-184 553q0 339 184 551q185 209 488 209q262 0 429 -138q165 -137 203 -374h-90q-33 195 -177 314q-143 118 -365 118q-263 0 -422 -184q-160 -186 -160 -496q0 -305 160 -495
q159 -189 426 -189q255 0 402 163q147 164 159 447h-557v80zM766 -238h-74v117h127v-158q0 -77 -25 -117t-85 -55l-25 -6v51l16 5q66 23 66 120v43z" />
    <glyph glyph-name="Gdotaccent.ss03" horiz-adv-x="1480" 
d="M705 1765h90v-186h-90v186zM758 737h645l-2 -4h2v-28q0 -333 -170 -535q-168 -203 -479 -203q-308 0 -492 211t-184 553q0 339 184 551q185 209 488 209q262 0 429 -138q165 -137 203 -374h-90q-33 195 -177 314q-143 118 -365 118q-263 0 -422 -184q-160 -186 -160 -496
q0 -305 160 -495q159 -189 426 -189q255 0 402 163q147 164 159 447h-557v80z" />
    <glyph glyph-name="uni0122.ss01.ss03" horiz-adv-x="1480" 
d="M758 737h645l-2 -4h2v-28q0 -333 -170 -535q-168 -203 -479 -203q-308 0 -492 211t-184 553q0 339 184 551q185 209 488 209q262 0 429 -138q165 -137 203 -374h-90q-33 195 -177 314q-143 118 -365 118q-263 0 -422 -184q-160 -186 -160 -496q0 -305 160 -495
q159 -189 426 -189q255 0 402 163q147 164 159 447h-557v80zM754 -113q80 0 80 -118v-19q0 -168 -123 -201l-21 -6v54l12 4q72 29 72 133v14v8q-6 -2 -20 -2q-30 0 -51 19q-19 18 -19 49q0 29 21 47t49 18z" />
    <glyph glyph-name="Gdotaccent.ss01.ss03" horiz-adv-x="1480" 
d="M801 1614q-49 -50 -100 1q-50 50 -1 99q48 48 98 -3q50 -50 3 -97zM758 737h645l-2 -4h2v-28q0 -333 -170 -535q-168 -203 -479 -203q-308 0 -492 211t-184 553q0 339 184 551q185 209 488 209q262 0 429 -138q165 -137 203 -374h-90q-33 195 -177 314q-143 118 -365 118
q-263 0 -422 -184q-160 -186 -160 -496q0 -305 160 -495q159 -189 426 -189q255 0 402 163q147 164 159 447h-557v80z" />
    <glyph glyph-name="R.ss04" horiz-adv-x="1255" 
d="M1212 0h-102l-448 621h-441v-621h-88v1458h584q214 0 334 -113t120 -307q0 -181 -108 -292t-299 -123zM717 1378h-496v-678h496q171 0 268 91q96 90 96 247q0 160 -96 250t-268 90z" />
    <glyph glyph-name="Racute.ss04" horiz-adv-x="1255" 
d="M811 1841h113l-242 -295h-78zM1212 0h-102l-448 621h-441v-621h-88v1458h584q214 0 334 -113t120 -307q0 -181 -108 -292t-299 -123zM717 1378h-496v-678h496q171 0 268 91q96 90 96 247q0 160 -96 250t-268 90z" />
    <glyph glyph-name="Rcaron.ss04" horiz-adv-x="1255" 
d="M948 1841l-241 -295h-127l-242 295h86l219 -244l219 244h86zM1212 0h-102l-448 621h-441v-621h-88v1458h584q214 0 334 -113t120 -307q0 -181 -108 -292t-299 -123zM717 1378h-496v-678h496q171 0 268 91q96 90 96 247q0 160 -96 250t-268 90z" />
    <glyph glyph-name="uni0156.ss04" horiz-adv-x="1255" 
d="M764 623l448 -623h-102l-448 621h-441v-621h-88v1458h584q214 0 334 -113t120 -307q0 -181 -108 -292t-299 -123zM717 1378h-496v-678h496q171 0 268 91q96 90 96 247q0 160 -96 250t-268 90zM666 -205h-74v117h127v-158q0 -77 -26 -118q-24 -39 -85 -54l-24 -6v51l16 4
q66 23 66 121v43z" />
    <glyph glyph-name="uni0156.ss01.ss04" horiz-adv-x="1255" 
d="M764 623l448 -623h-102l-448 621h-441v-621h-88v1458h584q214 0 334 -113t120 -307q0 -181 -108 -292t-299 -123zM717 1378h-496v-678h496q171 0 268 91q96 90 96 247q0 160 -96 250t-268 90zM653 -80q80 0 80 -119v-18q0 -168 -123 -201l-20 -6v53l12 4q72 29 72 134v14
v8q-6 -2 -21 -2q-31 0 -50 18t-19 50q0 30 20 47q21 18 49 18z" />
    <glyph glyph-name="i.loclTRK" horiz-adv-x="329" 
d="M209 1217h-88v186h88v-186zM207 0h-84v1057h84v-1057z" />
    <glyph glyph-name="adieresis.ss01" horiz-adv-x="1032" 
d="M399 1251q-49 -49 -99 1t-1 100q47 47 97 -3q50 -51 3 -98zM743 1251q-49 -49 -99 1t-1 100q47 47 97 -3q50 -51 3 -98zM985 68q13 0 26 1t23 1v-70q-40 -4 -63 -4q-79 0 -117 39q-37 38 -37 123v51q-108 -234 -409 -234q-164 0 -255 81q-92 81 -92 218q0 268 369 314
l170 20q122 16 169 59q46 42 46 130q0 211 -295 211q-172 0 -249 -62t-83 -201h-82q4 168 105 252t309 84q189 0 282 -75q95 -77 95 -209v-635q0 -94 88 -94zM412 47q183 0 293 100t110 289v185q-51 -59 -203 -80l-170 -23q-154 -21 -224 -78q-71 -57 -71 -164
q0 -106 69 -167q70 -62 196 -62z" />
    <glyph glyph-name="cdotaccent.ss01" horiz-adv-x="1038" 
d="M598 1251q-49 -49 -99 1q-51 50 -1 100q47 47 97 -3q51 -51 3 -98zM547 -25q-215 0 -340 150q-129 150 -129 403q0 254 129 404q124 149 340 149q175 0 291 -100q117 -101 141 -264h-88q-24 129 -118 210q-92 79 -226 79q-175 0 -278 -127t-103 -351q0 -223 103 -350
t278 -127q134 0 231 86q96 85 117 223h86q-22 -171 -139 -276q-123 -109 -295 -109z" />
    <glyph glyph-name="edieresis.ss01" horiz-adv-x="1087" 
d="M424 1251q-49 -49 -99 1q-51 50 -1 100q47 47 97 -3q51 -51 3 -98zM768 1251q-49 -49 -99 1q-51 50 -1 100q47 47 97 -3q51 -51 3 -98zM1010 532v-30h-846q6 -212 108 -330q102 -119 281 -119q140 0 231 79q92 80 119 216h86q-30 -169 -147 -271t-291 -102
q-218 0 -346 152q-127 151 -127 401q0 251 125 402q123 151 342 151q221 0 344 -153q121 -157 121 -396zM545 1004q-171 0 -270 -113q-98 -112 -109 -311h756q-10 194 -110 309t-267 115z" />
    <glyph glyph-name="edotaccent.ss01" horiz-adv-x="1087" 
d="M596 1251q-49 -49 -99 1q-51 50 -1 100q47 47 97 -3q51 -51 3 -98zM1010 532v-30h-846q6 -212 108 -330q102 -119 281 -119q140 0 231 79q92 80 119 216h86q-30 -169 -147 -271t-291 -102q-218 0 -346 152q-127 151 -127 401q0 251 125 402q123 151 342 151
q221 0 344 -153q121 -157 121 -396zM545 1004q-171 0 -270 -113q-98 -112 -109 -311h756q-10 194 -110 309t-267 115z" />
    <glyph glyph-name="uni0123.ss01" horiz-adv-x="1132" 
d="M563 1231q-80 0 -80 119v18q0 168 123 201l21 8v-55l-13 -4q-71 -28 -71 -134v-14v-8q6 2 20 2q31 0 50 -18q20 -18 20 -50q0 -29 -21 -47t-49 -18zM930 821v236h80v-1016q0 -467 -455 -467q-181 0 -285 85q-105 85 -123 237h84q34 -250 324 -250q191 0 281 96t90 299
v186q-117 -252 -389 -252q-212 0 -336 154q-123 150 -123 399t123 402q123 151 336 151q136 0 237 -67q103 -68 156 -193zM547 51q173 0 278 131q103 135 103 346t-103 346q-106 132 -278 132q-177 0 -279 -130t-102 -348q0 -216 102 -347q102 -130 279 -130z" />
    <glyph glyph-name="gdotaccent.ss01" horiz-adv-x="1132" 
d="M610 1253q-49 -49 -99 1q-51 50 -1 100q47 47 97 -3q51 -51 3 -98zM930 821v236h80v-1016q0 -467 -455 -467q-181 0 -285 85q-105 85 -123 237h84q34 -250 324 -250q191 0 281 96t90 299v186q-117 -252 -389 -252q-212 0 -336 154q-123 150 -123 399t123 402
q123 151 336 151q136 0 237 -67q103 -68 156 -193zM547 51q173 0 278 131q103 135 103 346t-103 346q-106 132 -278 132q-177 0 -279 -130t-102 -348q0 -216 102 -347q102 -130 279 -130z" />
    <glyph glyph-name="i.ss01" horiz-adv-x="329" 
d="M215 1251q-33 -34 -77 -16t-44 65q0 30 21 51t51 21q44 0 62 -44q18 -43 -13 -77zM207 0h-84v1057h84v-1057z" />
    <glyph glyph-name="idieresis.ss01" horiz-adv-x="329" 
d="M76 1251q-14 -15 -31 -19q-18 -5 -30 -2q-10 2 -26 11q-14 8 -22 22q-8 15 -11 28q-3 15 2 31q4 14 17 30q31 31 69 17t48 -49q11 -36 -16 -69zM354 1251q-30 -33 -68 -19t-47 49q-9 37 17 71q31 31 69 17q39 -14 46 -49t-17 -69zM207 0h-84v1057h84v-1057z" />
    <glyph glyph-name="i.loclTRK.ss01" horiz-adv-x="329" 
d="M215 1251q-33 -34 -77 -16t-44 65q0 30 21 51t51 21q44 0 62 -44q18 -43 -13 -77zM207 0h-84v1057h84v-1057z" />
    <glyph glyph-name="ij.ss01" horiz-adv-x="659" 
d="M215 1251q-33 -34 -77 -16t-44 65q0 30 21 51t51 21q44 0 62 -44q18 -43 -13 -77zM545 1251q-33 -34 -77 -16t-44 65q0 31 20 51q21 21 52 21q44 0 62 -44q18 -43 -13 -77zM207 0h-84v1057h84v-1057zM315 -406q-41 0 -77 3v71h69q80 0 113 35t33 113v1241h84v-1247
q0 -109 -54 -163q-53 -53 -168 -53z" />
    <glyph glyph-name="iogonek.ss01" horiz-adv-x="329" 
d="M215 1251q-33 -34 -77 -16t-44 65q0 30 21 51t51 21q44 0 62 -44q18 -43 -13 -77zM190 -356q38 0 74 16v-68q-33 -18 -84 -18q-155 0 -155 162q0 135 116 264h-18v1057h84v-1057q-115 -129 -115 -248q0 -108 98 -108z" />
    <glyph glyph-name="j.ss01" horiz-adv-x="329" 
d="M215 1251q-33 -34 -77 -16t-44 65q0 30 21 51t51 21q44 0 62 -44q18 -43 -13 -77zM-14 -406q-42 0 -78 3v71h69q80 0 113 35t33 113v1241h84v-1247q0 -110 -53 -163t-168 -53z" />
    <glyph glyph-name="uni0137.ss01" horiz-adv-x="999" 
d="M940 1057l-430 -391l461 -666h-97l-425 610l-242 -217v-393h-84v1458h84v-966l620 565h113zM530 -80q80 0 80 -119v-18q0 -168 -123 -201l-20 -6v53l12 4q72 29 72 134v14v8q-6 -2 -21 -2q-30 0 -50 18q-19 18 -19 50q0 30 20 47q21 18 49 18z" />
    <glyph glyph-name="uni013C.ss01" horiz-adv-x="329" 
d="M123 1458h84v-1458h-84v1458zM164 -80q80 0 80 -119v-18q0 -168 -123 -201l-21 -6v53l13 4q71 28 71 134v14v8q-6 -2 -20 -2q-30 0 -50 18t-20 50q0 29 21 47t49 18z" />
    <glyph glyph-name="ldot.ss01" horiz-adv-x="661" 
d="M207 0h-84v1458h84v-1458zM496 651q-48 -5 -66 35q-18 39 0 78q18 40 66 35q44 4 64 -35t0 -78t-64 -35z" />
    <glyph glyph-name="napostrophe.ss01" horiz-adv-x="1294" 
d="M156 1460q88 0 88 -137q0 -206 -146 -256l-16 -6v59l12 6q86 45 86 193v8q-19 -4 -26 -4q-32 0 -52 19t-20 51q0 29 20 48t54 19zM795 1081q179 0 278 -102q98 -101 98 -293v-686h-84v678q0 161 -79 244q-80 84 -228 84q-141 0 -243 -105q-104 -107 -105 -313v-588h-84
v1057h82v-223q49 117 143 182q93 65 222 65z" />
    <glyph glyph-name="uni0146.ss01" horiz-adv-x="1069" 
d="M569 1081q180 0 279 -102q98 -101 98 -293v-686h-84v678q0 159 -80 244q-80 84 -227 84q-142 0 -244 -105q-103 -106 -104 -313v-588h-84v1057h80v-230q46 120 141 187t225 67zM528 -80q80 0 80 -119v-18q0 -168 -123 -201l-20 -6v53l12 4q72 29 72 134v14v8
q-6 -2 -21 -2q-30 0 -50 18q-19 18 -19 50q0 30 20 47q21 18 49 18z" />
    <glyph glyph-name="odieresis.ss01" horiz-adv-x="1116" 
d="M436 1251q-49 -49 -99 1q-51 50 -1 100q47 47 97 -3q51 -51 3 -98zM780 1251q-49 -49 -99 1q-51 50 -1 100q47 47 97 -3q51 -51 3 -98zM905 129q-131 -154 -348 -154q-212 0 -346 154q-133 155 -133 399q0 245 133 400q134 153 346 153q217 0 348 -153q133 -155 133 -400
q0 -244 -133 -399zM557 51q180 0 287 131q106 130 106 346t-106 346q-108 132 -287 132q-177 0 -285 -132q-106 -130 -106 -346t106 -346q107 -131 285 -131z" />
    <glyph glyph-name="uni0157.ss01" horiz-adv-x="694" 
d="M584 1069q41 0 63 -2v-80q-20 2 -57 2q-182 0 -283 -108q-100 -107 -100 -295v-586h-84v1057h80v-248q44 120 141 189q100 71 240 71zM164 -80q80 0 80 -119v-18q0 -168 -123 -201l-21 -6v53l13 4q71 28 71 134v14v8q-6 -2 -20 -2q-30 0 -50 18t-20 50q0 29 21 47t49 18z
" />
    <glyph glyph-name="uni0219.ss01" horiz-adv-x="958" 
d="M455 584l114 -19q171 -30 251 -99q79 -69 79 -190q0 -145 -109 -223q-110 -78 -298 -78q-200 0 -311 93q-109 91 -120 256h86q23 -275 345 -275q321 0 321 223q0 92 -61 141t-209 76l-117 19q-172 28 -252 99t-80 194q0 130 100 206q98 74 275 74q387 0 408 -313h-86
q-10 119 -88 180q-77 60 -234 60q-135 0 -214 -54q-77 -53 -77 -151q0 -94 65 -144q62 -47 212 -75zM492 -102q79 0 79 -119v-19q0 -166 -122 -200l-21 -6v53l12 4q72 29 72 133v14v9q-9 -3 -20 -3q-30 0 -51 19q-19 18 -19 49q0 30 20 47q22 19 50 19z" />
    <glyph glyph-name="uni021B.ss01" horiz-adv-x="600" 
d="M555 1057v-74h-264v-766q0 -76 40 -112q39 -35 128 -35q72 0 96 2v-72q-84 -4 -106 -4q-242 0 -242 215v772h-182v74h182v299h84v-299h264zM379 -80q80 0 80 -119v-18q0 -168 -123 -201l-21 -6v53l13 4q71 28 71 134v14v8q-6 -2 -20 -2q-31 0 -50 18q-20 18 -20 50
q0 29 21 47t49 18z" />
    <glyph glyph-name="udieresis.ss01" horiz-adv-x="1069" 
d="M403 1251q-49 -49 -99 1t-1 100q47 47 97 -3q50 -51 3 -98zM748 1251q-50 -49 -100 1t-1 100q47 47 97 -3q51 -51 4 -98zM862 469v588h84v-1057h-82v223q-49 -117 -143 -182q-95 -66 -221 -66q-179 0 -279 103q-98 101 -98 293v686h84v-678q0 -159 80 -244
q79 -84 227 -84q146 0 246 105q97 100 102 313z" />
    <glyph glyph-name="wdieresis.ss01" horiz-adv-x="1628" 
d="M694 1251q-49 -49 -99 1q-51 50 -1 100q47 47 97 -3q51 -51 3 -98zM1038 1251q-49 -49 -99 1q-51 50 -1 100q47 47 97 -3q51 -51 3 -98zM1272 403l239 654h91l-385 -1057h-95l-233 713q-56 178 -76 243q-28 -107 -74 -243l-233 -713h-92l-385 1057h88l237 -654
q62 -175 105 -309q53 173 96 309l213 654h92l213 -654q43 -136 96 -309q12 37 103 309z" />
    <glyph glyph-name="ydieresis.ss01" horiz-adv-x="974" 
d="M367 1251q-49 -49 -100 1t-1 100q48 48 98 -3t3 -98zM711 1251q-49 -49 -100 1t-1 100q48 48 98 -3t3 -98zM649 496l207 561h92l-450 -1198q-52 -139 -123 -201q-73 -64 -180 -64q-40 0 -82 3v71h80q147 0 225 209q9 23 37 96l-426 1084h92l217 -559q64 -165 160 -426
q98 277 151 424z" />
    <glyph glyph-name="zdotaccent.ss01" horiz-adv-x="966" 
d="M535 1251q-49 -49 -100 1t-1 100q47 47 97 -3q51 -51 4 -98zM387 74h512v-74h-833v68l565 743q13 13 61 80q43 57 74 94q-66 -2 -221 -2h-457v74h778v-68l-563 -741q-28 -39 -137 -176q66 2 221 2z" />
    <glyph glyph-name="a.ss02" horiz-adv-x="1130" 
d="M922 836v221h84v-1057h-80v231q-111 -256 -389 -256q-213 0 -336 152q-123 151 -123 401q0 252 123 402q123 151 336 151q274 0 385 -245zM547 51q177 0 278 129q101 130 101 348q0 219 -101 349q-101 129 -278 129t-279 -130t-102 -352q0 -219 101 -345
q102 -128 280 -128z" />
    <glyph glyph-name="aacute.ss02" horiz-adv-x="1130" 
d="M725 1511h113l-242 -294h-78zM922 836v221h84v-1057h-80v231q-111 -256 -389 -256q-213 0 -336 152q-123 151 -123 401q0 252 123 402q123 151 336 151q274 0 385 -245zM547 51q177 0 278 129q101 130 101 348q0 219 -101 349q-101 129 -278 129t-279 -130t-102 -352
q0 -219 101 -345q102 -128 280 -128z" />
    <glyph glyph-name="abreve.ss02" horiz-adv-x="1130" 
d="M758 1284q-76 -76 -201 -76t-201 76q-82 73 -90 191h72q12 -91 70 -144t147 -53q91 0 151 54q59 53 70 143h72q-12 -115 -90 -191zM922 836v221h84v-1057h-80v231q-111 -256 -389 -256q-213 0 -336 152q-123 151 -123 401q0 252 123 402q123 151 336 151q274 0 385 -245z
M547 51q177 0 278 129q101 130 101 348q0 219 -101 349q-101 129 -278 129t-279 -130t-102 -352q0 -219 101 -345q102 -128 280 -128z" />
    <glyph glyph-name="acircumflex.ss02" horiz-adv-x="1130" 
d="M776 1217l-219 243l-219 -243h-86l242 294h127l241 -294h-86zM922 836v221h84v-1057h-80v231q-111 -256 -389 -256q-213 0 -336 152q-123 151 -123 401q0 252 123 402q123 151 336 151q274 0 385 -245zM547 51q177 0 278 129q101 130 101 348q0 219 -101 349
q-101 129 -278 129t-279 -130t-102 -352q0 -219 101 -345q102 -128 280 -128z" />
    <glyph glyph-name="adieresis.ss02" horiz-adv-x="1130" 
d="M322 1403h88v-186h-88v186zM705 1403h88v-186h-88v186zM922 836v221h84v-1057h-80v231q-111 -256 -389 -256q-213 0 -336 152q-123 151 -123 401q0 252 123 402q123 151 336 151q274 0 385 -245zM547 51q177 0 278 129q101 130 101 348q0 219 -101 349q-101 129 -278 129
t-279 -130t-102 -352q0 -219 101 -345q102 -128 280 -128z" />
    <glyph glyph-name="agrave.ss02" horiz-adv-x="1130" 
d="M393 1511l207 -294h-78l-241 294h112zM922 836v221h84v-1057h-80v231q-111 -256 -389 -256q-213 0 -336 152q-123 151 -123 401q0 252 123 402q123 151 336 151q274 0 385 -245zM547 51q177 0 278 129q101 130 101 348q0 219 -101 349q-101 129 -278 129t-279 -130
t-102 -352q0 -219 101 -345q102 -128 280 -128z" />
    <glyph glyph-name="amacron.ss02" horiz-adv-x="1130" 
d="M287 1288h540v-71h-540v71zM922 836v221h84v-1057h-80v231q-111 -256 -389 -256q-213 0 -336 152q-123 151 -123 401q0 252 123 402q123 151 336 151q274 0 385 -245zM547 51q177 0 278 129q101 130 101 348q0 219 -101 349q-101 129 -278 129t-279 -130t-102 -352
q0 -219 101 -345q102 -128 280 -128z" />
    <glyph glyph-name="aogonek.ss02" horiz-adv-x="1130" 
d="M1006 1057v-1057q-244 -128 -244 -250q0 -104 127 -104q63 0 117 22v-69q-62 -25 -129 -25q-90 0 -143 43q-54 43 -54 121q0 154 246 266v227q-111 -256 -389 -256q-213 0 -336 152q-123 151 -123 401q0 252 123 402q123 151 336 151q274 0 385 -245v221h84zM547 51
q177 0 278 129q101 130 101 348q0 219 -101 349q-101 129 -278 129t-279 -130t-102 -352q0 -219 101 -345q102 -128 280 -128z" />
    <glyph glyph-name="aring.ss02" horiz-adv-x="1130" 
d="M557 1212q-93 0 -160 65q-65 64 -65 159t65 157q67 64 160 64q96 0 163 -64q66 -63 66 -157t-66 -159q-67 -65 -163 -65zM557 1593q-66 0 -112 -46t-46 -111q0 -68 46 -114t112 -46q69 0 115 46q47 47 47 114q0 64 -47 111q-46 46 -115 46zM922 836v221h84v-1057h-80v231
q-111 -256 -389 -256q-213 0 -336 152q-123 151 -123 401q0 252 123 402q123 151 336 151q274 0 385 -245zM547 51q177 0 278 129q101 130 101 348q0 219 -101 349q-101 129 -278 129t-279 -130t-102 -352q0 -219 101 -345q102 -128 280 -128z" />
    <glyph glyph-name="aringacute.ss02" horiz-adv-x="1130" 
d="M725 2103h111l-240 -295h-78zM557 1212q-93 0 -160 65q-65 64 -65 159t65 157q67 64 160 64q96 0 163 -64q66 -63 66 -157t-66 -159q-67 -65 -163 -65zM557 1593q-66 0 -112 -46t-46 -111q0 -68 46 -114t112 -46q69 0 115 46q47 47 47 114q0 64 -47 111q-46 46 -115 46z
M922 836v221h84v-1057h-80v231q-111 -256 -389 -256q-213 0 -336 152q-123 151 -123 401q0 252 123 402q123 151 336 151q274 0 385 -245zM547 51q177 0 278 129q101 130 101 348q0 219 -101 349q-101 129 -278 129t-279 -130t-102 -352q0 -219 101 -345q102 -128 280 -128z
" />
    <glyph glyph-name="atilde.ss02" horiz-adv-x="1130" 
d="M399 1362q-47 0 -66 -34q-21 -36 -22 -111h-71q0 223 153 223q63 0 176 -78q91 -68 142 -68q47 0 66 34q21 36 22 112h71q0 -223 -153 -223q-66 0 -178 79q-96 66 -140 66zM922 836v221h84v-1057h-80v231q-111 -256 -389 -256q-213 0 -336 152q-123 151 -123 401
q0 252 123 402q123 151 336 151q274 0 385 -245zM547 51q177 0 278 129q101 130 101 348q0 219 -101 349q-101 129 -278 129t-279 -130t-102 -352q0 -219 101 -345q102 -128 280 -128z" />
    <glyph glyph-name="adieresis.ss01.ss02" horiz-adv-x="1130" 
d="M436 1251q-49 -49 -99 1q-51 50 -1 100q47 47 97 -3q51 -51 3 -98zM780 1251q-49 -49 -99 1q-51 50 -1 100q47 47 97 -3q51 -51 3 -98zM922 836v221h84v-1057h-80v231q-111 -256 -389 -256q-213 0 -336 152q-123 151 -123 401q0 252 123 402q123 151 336 151
q274 0 385 -245zM547 51q177 0 278 129q101 130 101 348q0 219 -101 349q-101 129 -278 129t-279 -130t-102 -352q0 -219 101 -345q102 -128 280 -128z" />
    <glyph glyph-name="uni021B.ss01.ss05" horiz-adv-x="557" 
d="M291 1356v-299h221v-74h-221v-983h-84v983h-182v74h182v299h84zM248 -80q80 0 80 -119v-18q0 -168 -123 -201l-21 -6v53l13 4q71 28 71 134v14v8q-6 -2 -20 -2q-30 0 -50 18t-20 50q0 29 21 47t49 18z" />
    <glyph glyph-name="udieresis.ss01.ss05" horiz-adv-x="1069" 
d="M403 1251q-49 -49 -99 1t-1 100q47 47 97 -3q50 -51 3 -98zM748 1251q-50 -49 -100 1t-1 100q47 47 97 -3q51 -51 4 -98zM862 469v588h84v-1057h-82v223q-49 -117 -143 -182q-95 -66 -221 -66q-179 0 -279 103q-98 101 -98 293v686h84v-678q0 -159 80 -244
q79 -84 227 -84q146 0 246 105q97 100 102 313z" />
    <glyph glyph-name="t.ss05" horiz-adv-x="557" 
d="M291 1057h221v-74h-221v-983h-84v983h-182v74h182v299h84v-299z" />
    <glyph glyph-name="tbar.ss05" horiz-adv-x="557" 
d="M512 1057v-74h-221v-408h221v-69h-221v-506h-84v506h-178v69h178v408h-182v74h182v299h84v-299h221z" />
    <glyph glyph-name="tcaron.ss05" horiz-adv-x="557" 
d="M475 1458h96l-131 -340h-65zM207 1356h84v-299h221v-74h-221v-983h-84v983h-182v74h182v299z" />
    <glyph glyph-name="uni0163.ss05" horiz-adv-x="557" 
d="M291 983v-983h-4l-88 -121q6 2 20 2q97 0 150 -39t53 -106q0 -80 -66 -125t-192 -45q-63 0 -107 10v53q50 -8 105 -8q84 0 131 30t47 83q0 100 -166 100q-27 0 -43 -2v45l84 123h-8v983h-182v74h182v299h84v-299h221v-74h-221z" />
    <glyph glyph-name="uni021B.ss05" horiz-adv-x="557" 
d="M291 1356v-299h221v-74h-221v-983h-84v983h-182v74h182v299h84zM262 -276h-74v116h127v-157q0 -78 -25 -118q-24 -39 -85 -54l-25 -7v52l17 4q65 22 65 121v43z" />
    <glyph glyph-name="udieresis.ss01.ss06" horiz-adv-x="1069" 
d="M414 1251q-50 -49 -100 1t-1 100q47 48 98 -3t3 -98zM758 1251q-50 -49 -100 1t-1 100q47 48 98 -3t3 -98zM831 90q-115 -115 -299 -115q-181 0 -296 115q-113 113 -113 303v664h84v-666q0 -161 88 -250q89 -90 237 -90q150 0 240 91q90 92 90 249v666h84v-664
q0 -188 -115 -303z" />
    <glyph glyph-name="u.ss06" horiz-adv-x="1069" 
d="M831 90q-115 -115 -299 -115q-181 0 -296 115q-113 113 -113 303v664h84v-666q0 -161 88 -250q89 -90 237 -90q150 0 240 91q90 92 90 249v666h84v-664q0 -188 -115 -303z" />
    <glyph glyph-name="uacute.ss06" horiz-adv-x="1069" 
d="M571 1217h-77l206 294h113zM831 90q-115 -115 -299 -115q-181 0 -296 115q-113 113 -113 303v664h84v-666q0 -161 88 -250q89 -90 237 -90q150 0 240 91q90 92 90 249v666h84v-664q0 -188 -115 -303z" />
    <glyph glyph-name="ubreve.ss06" horiz-adv-x="1069" 
d="M735 1284q-76 -76 -200 -76q-125 0 -201 76q-82 73 -90 191h71q12 -91 70 -144t147 -53q91 0 151 54t71 143h71q-12 -115 -90 -191zM831 90q-115 -115 -299 -115q-181 0 -296 115q-113 113 -113 303v664h84v-666q0 -161 88 -250q89 -90 237 -90q150 0 240 91
q90 92 90 249v666h84v-664q0 -188 -115 -303z" />
    <glyph glyph-name="ucircumflex.ss06" horiz-adv-x="1069" 
d="M754 1217l-219 243l-220 -243h-86l242 294h127l242 -294h-86zM862 391v666h84v-664q0 -188 -115 -303t-299 -115t-296 114q-113 115 -113 304v664h84v-666q0 -161 88 -250q89 -90 237 -90q150 0 240 91q90 92 90 249z" />
    <glyph glyph-name="udieresis.ss06" horiz-adv-x="1069" 
d="M385 1217h-88v186h88v-186zM768 1217h-88v186h88v-186zM831 90q-115 -115 -299 -115q-181 0 -296 115q-113 113 -113 303v664h84v-666q0 -161 88 -250q89 -90 237 -90q150 0 240 91q90 92 90 249v666h84v-664q0 -188 -115 -303z" />
    <glyph glyph-name="ugrave.ss06" horiz-adv-x="1069" 
d="M578 1217h-78l-242 294h113zM831 90q-115 -115 -299 -115q-181 0 -296 115q-113 113 -113 303v664h84v-666q0 -161 88 -250q89 -90 237 -90q150 0 240 91q90 92 90 249v666h84v-664q0 -188 -115 -303z" />
    <glyph glyph-name="uhungarumlaut.ss06" horiz-adv-x="1069" 
d="M440 1217h-73l204 294h109zM725 1217h-74l207 294h107zM831 90q-115 -115 -299 -115q-181 0 -296 115q-113 113 -113 303v664h84v-666q0 -161 88 -250q89 -90 237 -90q150 0 240 91q90 92 90 249v666h84v-664q0 -188 -115 -303z" />
    <glyph glyph-name="umacron.ss06" horiz-adv-x="1069" 
d="M803 1217h-541v71h541v-71zM831 90q-115 -115 -299 -115q-181 0 -296 115q-113 113 -113 303v664h84v-666q0 -161 88 -250q89 -90 237 -90q150 0 240 91q90 92 90 249v666h84v-664q0 -188 -115 -303z" />
    <glyph glyph-name="uogonek.ss06" horiz-adv-x="1069" 
d="M862 391v666h84v-664q0 -127 -55 -224q-56 -98 -156 -149q-246 -127 -246 -249q0 -105 127 -105q56 0 119 23v-70q-64 -25 -131 -25q-87 0 -142 44q-54 44 -54 120q0 123 155 217h-31q-184 0 -296 114q-113 115 -113 304v664h84v-666q0 -161 88 -250q89 -90 237 -90
q150 0 240 91q90 92 90 249z" />
    <glyph glyph-name="uring.ss06" horiz-adv-x="1069" 
d="M532 1212q-92 0 -159 65q-66 65 -66 159t66 157q67 64 159 64q96 0 163 -64t67 -157q0 -94 -67 -159t-163 -65zM532 1276q69 0 115 46q47 47 47 114q0 64 -47 111q-46 46 -115 46q-65 0 -111 -46t-46 -111q0 -68 46 -114t111 -46zM831 90q-115 -115 -299 -115
q-181 0 -296 115q-113 113 -113 303v664h84v-666q0 -161 88 -250q89 -90 237 -90q150 0 240 91q90 92 90 249v666h84v-664q0 -188 -115 -303z" />
    <glyph glyph-name="utilde.ss06" horiz-adv-x="1069" 
d="M289 1217h-72q0 223 154 223q63 0 176 -78q89 -68 141 -68q48 0 67 34q20 35 21 112h72q0 -223 -154 -223q-65 0 -178 79q-96 66 -139 66q-48 0 -67 -34q-20 -35 -21 -111zM831 90q-115 -115 -299 -115q-181 0 -296 115q-113 113 -113 303v664h84v-666q0 -161 88 -250
q89 -90 237 -90q150 0 240 91q90 92 90 249v666h84v-664q0 -188 -115 -303z" />
    <glyph glyph-name="ydieresis.ss01.ss07" horiz-adv-x="974" 
d="M367 1251q-49 -49 -100 1t-1 100q48 48 98 -3t3 -98zM711 1251q-49 -49 -100 1t-1 100q48 48 98 -3t3 -98zM649 508l207 549h92l-407 -1053l-156 -405h-84l156 403l-428 1055h92l221 -553l158 -404q38 102 71 192.5t54.5 149.5t23.5 66z" />
    <glyph glyph-name="y.ss07" horiz-adv-x="974" 
d="M649 508l207 549h92l-407 -1053l-156 -405h-84l156 403l-428 1055h92l221 -553l158 -404q38 102 71 192.5t54.5 149.5t23.5 66z" />
    <glyph glyph-name="yacute.ss07" horiz-adv-x="974" 
d="M655 1511h113l-242 -294h-77zM649 508l207 549h92l-407 -1053l-156 -405h-84l156 403l-428 1055h92l221 -553l158 -404q38 102 71 192.5t54.5 149.5t23.5 66z" />
    <glyph glyph-name="ycircumflex.ss07" horiz-adv-x="974" 
d="M707 1217l-220 243l-219 -243h-86l242 294h127l242 -294h-86zM649 508l207 549h92l-407 -1053l-156 -405h-84l156 403l-428 1055h92l221 -553l158 -404q38 102 71 192.5t54.5 149.5t23.5 66z" />
    <glyph glyph-name="ydieresis.ss07" horiz-adv-x="974" 
d="M252 1403h88v-186h-88v186zM635 1403h88v-186h-88v186zM649 508l207 549h92l-407 -1053l-156 -405h-84l156 403l-428 1055h92l221 -553l158 -404q38 102 71 192.5t54.5 149.5t23.5 66z" />
    <glyph glyph-name="ygrave.ss07" horiz-adv-x="974" 
d="M324 1511l206 -294h-77l-242 294h113zM649 508l207 549h92l-407 -1053l-156 -405h-84l156 403l-428 1055h92l221 -553l158 -404q38 102 71 192.5t54.5 149.5t23.5 66z" />
    <glyph glyph-name="l.ss08" horiz-adv-x="421" 
d="M340 -4q-217 0 -217 215v1247h84v-1241q0 -77 34 -112t111 -35q62 0 84 2v-72q-73 -4 -96 -4z" />
    <glyph glyph-name="lacute.ss08" horiz-adv-x="421" 
d="M203 1546h-78l207 295h112zM340 -4q-217 0 -217 215v1247h84v-1241q0 -77 34 -112t111 -35q62 0 84 2v-72q-73 -4 -96 -4z" />
    <glyph glyph-name="lcaron.ss08" horiz-adv-x="475" 
d="M340 -4q-217 0 -217 215v1247h84v-1241q0 -77 34 -112t111 -35q62 0 84 2v-72q-73 -4 -96 -4zM356 1118h-65l100 340h96z" />
    <glyph glyph-name="uni013C.ss08" horiz-adv-x="421" 
d="M352 70q62 0 84 2v-72q-73 -4 -96 -4q-217 0 -217 215v1247h84v-1241q0 -77 34 -112t111 -35zM178 -276h-74v116h127v-157q0 -78 -25 -118q-24 -39 -85 -54l-25 -7v52l17 4q65 22 65 121v43z" />
    <glyph glyph-name="ldot.ss08" horiz-adv-x="651" 
d="M340 -4q-217 0 -217 215v1247h84v-1241q0 -77 34 -112t111 -35q62 0 84 2v-72q-73 -4 -96 -4zM559 662h-129v129h129v-129z" />
    <glyph glyph-name="lslash.ss08" horiz-adv-x="481" 
d="M412 70q62 0 84 2v-72q-73 -4 -97 -4q-217 0 -217 215v453l-182 -107v82l182 106v713h84v-661l183 106v-82l-183 -106v-498q0 -77 34 -112t112 -35z" />
    <glyph glyph-name="uni013C.ss01.ss08" horiz-adv-x="421" 
d="M352 70q62 0 84 2v-72q-73 -4 -96 -4q-217 0 -217 215v1247h84v-1241q0 -77 34 -112t111 -35zM164 -80q80 0 80 -119v-18q0 -168 -123 -201l-21 -6v53l13 4q71 28 71 134v14v8q-6 -2 -20 -2q-30 0 -50 18t-20 50q0 29 21 47t49 18z" />
    <glyph glyph-name="ldot.ss01.ss08" horiz-adv-x="661" 
d="M340 -4q-217 0 -217 215v1247h84v-1241q0 -77 34 -112t111 -35q62 0 84 2v-72q-73 -4 -96 -4zM496 651q-48 -5 -66 35q-18 39 0 78q18 40 66 35q44 4 64 -35t0 -78t-64 -35z" />
    <glyph glyph-name="fi.ss01" horiz-adv-x="911" 
d="M207 1057v153q0 252 254 252q25 0 84 -4v-72q-3 0 -8.5 0.5t-15.5 1t-18 0.5q-21 1 -38 1q-174 0 -174 -177v-155h244v-74h-244v-983h-84v983h-182v74h182zM748 1372q42 1 60 -35q18 -37 0 -73t-60 -35q-44 -2 -62 35q-18 38 -1 73q18 37 63 35zM788 0h-83v1057h83v-1057
z" />
    <glyph glyph-name="fl.ss08" horiz-adv-x="983" 
d="M207 1057v153q0 252 254 252q25 0 84 -4v-72q-3 0 -8.5 0.5t-15.5 1t-18 0.5q-21 1 -38 1q-174 0 -174 -177v-155h244v-74h-244v-983h-84v983h-182v74h182zM913 70q62 0 84 2v-72q-73 -4 -96 -4q-217 0 -217 215v1247h84v-1241q0 -77 34 -112t111 -35z" />
    <glyph glyph-name="ordfeminine.ss02" horiz-adv-x="1005" 
d="M831 1251v207h82v-921h-79v208q-45 -108 -138 -170q-88 -59 -207 -59q-185 0 -296 133t-111 346q0 220 113 351q111 131 294 131q240 0 342 -226zM258 698q88 -110 244 -110q155 0 243 112q89 109 89 295q0 185 -90 298q-89 112 -242 112q-155 0 -244 -113
q-92 -113 -92 -299q0 -183 92 -295z" />
    <glyph glyph-name="t.sups.ss05" horiz-adv-x="536" 
d="M289 1458h198v-69h-198v-852h-82v852h-158v69h158v260h82v-260z" />
    <glyph glyph-name="zero.ss09" horiz-adv-x="1957" 
d="M1909 -180h-1860v1818h1860v-1818zM731 377q89 -131 250 -131q162 0 248 131q86 130 86 352q0 225 -87 355t-247 130q-161 0 -250 -129q-88 -128 -88 -356q0 -225 88 -352zM981 313q-124 0 -190 110q-66 109 -66 306q0 199 66 308q66 110 190 110q122 0 187 -110t65 -308
q0 -193 -65 -305q-64 -111 -187 -111z" />
    <glyph glyph-name="one.ss09" horiz-adv-x="1957" 
d="M1909 -180h-1860v1818h1860v-1818zM971 1096v-815h78v925h-70q-76 -141 -260 -157v-58q161 7 252 105z" />
    <glyph glyph-name="two.ss09" horiz-adv-x="1957" 
d="M1909 -180h-1860v1818h1860v-1818zM668 322l-2 -33h624v67h-538q6 174 221 281l88 45q217 106 217 289q0 114 -78 189t-219 75q-142 0 -218 -76q-77 -77 -81 -198h76q4 93 61 150q56 56 160 56q107 0 164 -54t57 -144q0 -142 -176 -228l-82 -41q-270 -127 -274 -378z" />
    <glyph glyph-name="three.ss09" horiz-adv-x="1957" 
d="M1909 -180h-1860v1818h1860v-1818zM741 319q89 -73 238 -73q152 0 240 76q88 73 88 198q0 91 -55 157q-54 65 -152 87q82 22 127 79t45 134q0 109 -79 173t-214 64q-131 0 -211 -66t-84 -183h76q6 88 64 136t155 48q99 0 158 -49t59 -131q0 -84 -60 -132
q-61 -49 -163 -49h-55v-59h53q120 0 189 -54t69 -153q0 -96 -69 -153q-70 -58 -181 -58q-117 0 -183 57q-68 58 -69 158h-78q5 -134 92 -207z" />
    <glyph glyph-name="four.ss09" horiz-adv-x="1957" 
d="M1909 -180h-1860v1818h1860v-1818zM1073 545v-258h82v258h145v67h-145v602h-86l-491 -591v-78h495zM1077 612h-428l428 514v-514z" />
    <glyph glyph-name="five.ss09" horiz-adv-x="1957" 
d="M1909 -180h-1860v1818h1860v-1818zM983 248q136 0 225 86q88 85 88 223q0 134 -83 222q-83 87 -214 87q-155 0 -231 -106l59 366h424v68h-483l-90 -524h78q63 135 227 135q104 0 171 -70t67 -178q0 -106 -67 -176t-171 -70q-94 0 -162 54q-65 52 -82 141h-77
q18 -118 105 -188q86 -70 216 -70z" />
    <glyph glyph-name="six.ss09" horiz-adv-x="1957" 
d="M1909 -180h-1860v1818h1860v-1818zM981 246q141 0 228 88t87 223q0 130 -86 221q-85 88 -219 88q-101 0 -175 -59q-75 -60 -93 -158q-6 39 -6 103q6 397 272 397q84 0 141 -45q58 -46 76 -123h78q-23 108 -101 170q-79 63 -194 63q-174 0 -261 -130t-87 -369
q0 -290 141 -404q83 -65 199 -65zM981 311q-103 0 -170 69q-68 70 -68 175q0 106 68 176t170 70q104 0 172 -71t68 -175t-68 -174t-172 -70z" />
    <glyph glyph-name="seven.ss09" horiz-adv-x="1957" 
d="M1909 -180h-1860v1818h1860v-1818zM842 254h84q6 510 370 856v70h-602v-68h527q-179 -169 -276 -392q-97 -224 -103 -466z" />
    <glyph glyph-name="eight.ss09" horiz-adv-x="1957" 
d="M1909 -180h-1860v1818h1860v-1818zM731 319q88 -73 248 -73t248 73q90 73 90 195q0 191 -209 248q164 56 164 211q0 109 -81 175t-212 66t-212 -66t-81 -175q0 -155 164 -211q-209 -57 -209 -248q0 -122 90 -195zM1139 836q-64 -52 -160 -52q-97 0 -158 52t-61 135
t61 135q61 49 158 49q95 0 160 -49q61 -52 61 -135t-61 -135zM979 309q-121 0 -191 59q-69 58 -69 152t69 153q68 58 191 58t192 -57q70 -58 70 -154q0 -95 -70 -153t-192 -58z" />
    <glyph glyph-name="nine.ss09" horiz-adv-x="1957" 
d="M1909 -180h-1860v1818h1860v-1818zM979 246q170 0 256 131t86 371q0 287 -139 401q-87 65 -201 65q-137 0 -225 -88q-90 -90 -90 -223q0 -131 88 -219q86 -90 219 -90q99 0 171 57q73 58 91 152l4 14q8 -37 8 -104q-7 -402 -268 -402q-85 0 -144 44t-77 124h-78
q21 -105 101 -169t198 -64zM1153 729q-68 -70 -172 -70q-105 0 -172 72q-68 73 -68 174q0 105 68 175q67 69 172 69q104 0 172 -68q66 -72 66 -176t-66 -176z" />
    <glyph glyph-name="zero.ss10" horiz-adv-x="1957" 
d="M1909 -180h-1860v1818h1860v-1818zM133 1563v-1667h1692v1667h-1692zM981 246q-163 0 -252 129q-88 128 -88 354q0 229 87 358q88 130 253 130q164 0 250 -131t86 -357q0 -224 -86 -354q-85 -129 -250 -129zM981 317q120 0 184 109q64 110 64 303t-64 304
q-63 110 -184 110q-122 0 -187 -110t-65 -304t65 -303t187 -109z" />
    <glyph glyph-name="one.ss10" horiz-adv-x="1957" 
d="M49 -180v1818h1860v-1818h-1860zM133 -104h1692v1667h-1692v-1667zM1051 264h-84v805q-81 -81 -252 -92v61q188 18 260 158h76v-932z" />
    <glyph glyph-name="two.ss10" horiz-adv-x="1957" 
d="M49 -180v1818h1860v-1818h-1860zM133 -104h1692v1667h-1692v-1667zM756 338h538v-74h-628v35q6 259 276 383l82 41q176 86 176 223q0 86 -56 141q-58 56 -163 56q-102 0 -159 -59q-55 -57 -60 -150h-82q5 125 82 204q78 79 221 79q141 0 220 -76t79 -193
q0 -183 -219 -291l-88 -43q-203 -102 -219 -276z" />
    <glyph glyph-name="three.ss10" horiz-adv-x="1957" 
d="M49 -180v1818h1860v-1818h-1860zM133 -104h1692v1667h-1692v-1667zM979 313q111 0 178 57q68 57 68 152q0 97 -68 150t-186 53h-56v66h58q100 0 161 47q60 46 60 131q0 83 -59 130q-60 48 -156 48q-97 0 -155 -49q-58 -50 -60 -135h-84q5 119 85 186q82 68 214 68
q135 0 216 -66t81 -174q0 -75 -43 -131q-45 -59 -115 -82q88 -21 139 -85q52 -66 52 -159q0 -124 -89 -199q-88 -75 -241 -75q-155 0 -243 75q-89 75 -89 207h82q1 -100 69 -158q66 -57 181 -57z" />
    <glyph glyph-name="four.ss10" horiz-adv-x="1957" 
d="M49 -180v1818h1860v-1818h-1860zM133 -104h1692v1667h-1692v-1667zM1174 264h-87v256h-497v84l493 592h91v-602h147v-74h-147v-256zM1090 594v504l-420 -504h420z" />
    <glyph glyph-name="five.ss10" horiz-adv-x="1957" 
d="M49 -180v1818h1860v-1818h-1860zM133 -104h1692v1667h-1692v-1667zM983 313q103 0 170 70q66 69 66 174q0 107 -66 176q-67 70 -170 70q-80 0 -139 -37t-86 -100h-82l88 530h491v-74h-424l-59 -350q76 98 225 98q133 0 217 -88t84 -225q0 -139 -89 -225t-226 -86
q-133 0 -220 71q-90 73 -106 191h84q17 -88 81 -141q66 -54 161 -54z" />
    <glyph glyph-name="six.ss10" horiz-adv-x="1957" 
d="M49 -180v1818h1860v-1818h-1860zM133 -104h1692v1667h-1692v-1667zM791 309q-142 113 -142 406q0 241 87 371q87 131 263 131q118 0 198 -65q78 -63 99 -173h-84q-18 81 -73 124q-56 44 -140 44q-272 0 -272 -430v-27q32 81 108 131q74 49 166 49q134 0 224 -90
q86 -91 86 -223q0 -137 -90 -224t-230 -87q-116 0 -200 63zM991 799q-101 0 -168 -70q-65 -68 -65 -174q0 -105 65 -173q66 -69 168 -69q105 0 171 69q67 70 67 173q0 104 -67 174t-171 70z" />
    <glyph glyph-name="seven.ss10" horiz-adv-x="1957" 
d="M49 -180v1818h1860v-1818h-1860zM133 -104h1692v1667h-1692v-1667zM924 264h-90q6 242 102 465t272 393h-522v74h608v-76q-363 -342 -370 -856z" />
    <glyph glyph-name="eight.ss10" horiz-adv-x="1957" 
d="M49 -180v1818h1860v-1818h-1860zM133 -104h1692v1667h-1692v-1667zM637 514q0 186 194 246q-149 63 -149 213q0 109 81 176q82 68 214 68q134 0 216 -67q81 -66 81 -177q0 -71 -39 -128q-38 -56 -109 -85q195 -60 195 -246q0 -122 -91 -195t-253 -73q-158 0 -249 73
t-91 195zM821 1102q-61 -49 -61 -131t61 -131q61 -52 156 -52q98 0 160 50q61 49 61 133q0 81 -61 130q-62 50 -160 50q-95 0 -156 -49zM977 729q-121 0 -189 -57q-67 -57 -67 -152q0 -93 67 -150q68 -57 189 -57q122 0 191 57t69 150q0 95 -69 152t-191 57z" />
    <glyph glyph-name="nine.ss10" horiz-adv-x="1957" 
d="M49 -180v1818h1860v-1818h-1860zM133 -104h1692v1667h-1692v-1667zM958 590q-136 0 -221 90q-88 88 -88 221q0 135 90 225q88 88 228 88q117 0 200 -65q144 -112 144 -404q0 -239 -86 -370t-254 -131q-127 0 -208 63q-80 62 -101 174h83q18 -80 77 -125q58 -45 149 -45
q260 0 260 432v27q-34 -83 -108 -132q-72 -48 -165 -48zM1137 1077q-63 68 -170 68t-170 -68q-68 -70 -68 -174t68 -172q63 -69 170 -69t170 69q65 68 65 172q0 103 -65 174z" />
    <glyph glyph-name="zero.zero" horiz-adv-x="1218" 
d="M236 1290q128 201 374 201q250 0 377 -201q125 -199 125 -561t-125 -561q-127 -201 -377 -201q-246 0 -374 201q-127 200 -127 561t127 561zM610 1411q-202 0 -307 -177q-104 -175 -104 -505q0 -261 63 -420l651 930q-105 172 -303 172zM952 1157l-651 -928
q107 -182 309 -182q203 0 308 180q102 180 102 502q0 260 -68 428z" />
    <glyph glyph-name="zero.dnom" horiz-adv-x="696" 
d="M578 102q-77 -120 -230 -120t-229 118q-78 122 -78 322q0 210 79 326t228 116q150 0 229 -118q78 -116 78 -324q0 -200 -77 -320zM178 147q57 -100 170 -100t170 100q57 101 57 275q0 179 -58 277q-59 100 -169 100q-113 0 -170 -101q-57 -100 -57 -276q0 -174 57 -275z
" />
    <glyph glyph-name="one.dnom" horiz-adv-x="405" 
d="M260 846h70v-846h-76v731q-72 -74 -229 -84v58q174 15 235 141z" />
    <glyph glyph-name="two.dnom" horiz-adv-x="647" 
d="M119 66h491v-66h-571v31q5 231 252 348l74 37q159 76 159 205q0 79 -51 128q-52 50 -147 50q-94 0 -146 -54q-52 -53 -53 -137h-76q5 116 75 186t202 70q129 0 200 -68q72 -69 72 -173q0 -171 -201 -267l-80 -41q-189 -91 -200 -249z" />
    <glyph glyph-name="three.dnom" horiz-adv-x="659" 
d="M449 453q79 -18 126 -77q48 -60 48 -145q0 -114 -81 -182q-80 -67 -218 -67q-139 0 -220 68q-83 69 -84 190h76q1 -94 63 -145q61 -50 165 -50q100 0 161 51q62 51 62 137q0 91 -62 139t-170 48h-51v57h53q94 0 147 43q54 44 54 121q0 73 -53 117q-52 43 -143 43
q-88 0 -141 -44q-52 -43 -54 -122h-76q1 108 75 169q72 60 196 60q123 0 197 -58q75 -58 75 -159q0 -67 -39 -120q-38 -51 -106 -74z" />
    <glyph glyph-name="four.dnom" horiz-adv-x="712" 
d="M555 299h133v-66h-133v-233h-78v233h-452v76l448 537h82v-547zM479 299v459l-381 -459h381z" />
    <glyph glyph-name="five.dnom" horiz-adv-x="669" 
d="M356 549q120 0 197 -80q76 -79 76 -205q0 -124 -81 -204q-79 -78 -206 -78q-120 0 -200 65t-95 174h76q15 -81 73 -128q58 -48 146 -48q93 0 153 63t60 156q0 99 -59 161t-154 62q-150 0 -205 -122h-74l80 481h447v-66h-385l-53 -319q69 88 204 88z" />
    </font>
</defs>
</svg>
