<?xml version="1.0" standalone="no"?>
<!DOCTYPE svg PUBLIC "-//W3C//DTD SVG 1.1//EN" "http://www.w3.org/Graphics/SVG/1.1/DTD/svg11.dtd" >
<svg xmlns="http://www.w3.org/2000/svg" xmlns:xlink="http://www.w3.org/1999/xlink" version="1.1">
<metadata>
Created by FontForge 20170731 at Sat Jul 31 16:37:48 2021
 By Aleksey,,,
Copyright (c) 2019 Monotype Imaging Inc. All rights reserved.
</metadata>
<defs>
<font id="HelveticaNowDisplay-BlackIta" horiz-adv-x="0" >
  <font-face 
    font-family="HelveticaNowDisplay Black"
    font-weight="900"
    font-style="italic"
    font-stretch="normal"
    units-per-em="2048"
    panose-1="2 11 10 4 3 2 2 9 2 4"
    ascent="1792"
    descent="-256"
    x-height="1057"
    cap-height="1458"
    bbox="-866 -717 2646 2150"
    underline-thickness="102"
    underline-position="-614"
    slope="-12"
    unicode-range="U+000D-FEFF"
  />
<missing-glyph horiz-adv-x="1378" 
d="M1276 0h-1174v1458h1174v-1458zM451 1151v-844h477v844h-477z" />
    <glyph glyph-name="fi" unicode="fi" horiz-adv-x="1333" 
d="M864 1057l-57 -266h-205l-168 -791h-377l168 791h-149l57 266h150l8 43q40 196 149 282t324 86q97 0 184 -10l-57 -274h-103q-100 0 -124 -109l-5 -18h205zM1022 1163l61 295h355l-62 -295h-354zM1139 0h-377l225 1057h377z" />
    <glyph glyph-name="fl" unicode="fl" horiz-adv-x="1323" 
d="M864 1057l-57 -266h-205l-168 -791h-377l168 791h-149l57 266h150l8 43q40 196 149 282t324 86q97 0 184 -10l-57 -274h-103q-100 0 -124 -109l-5 -18h205zM752 0l311 1458h377l-312 -1458h-376z" />
    <glyph glyph-name=".notdef" horiz-adv-x="1378" 
d="M1276 0h-1174v1458h1174v-1458zM451 1151v-844h477v844h-477z" />
    <glyph glyph-name=".null" 
 />
    <glyph glyph-name="nonmarkingreturn" horiz-adv-x="681" 
 />
    <glyph glyph-name="NULL" 
 />
    <glyph glyph-name="NULL" 
 />
    <glyph glyph-name="CR" unicode="&#xd;" horiz-adv-x="512" 
 />
    <glyph glyph-name="space" unicode=" " horiz-adv-x="512" 
 />
    <glyph glyph-name="exclam" unicode="!" horiz-adv-x="540" 
d="M365 526h-195l16 592l72 340h410l-72 -340zM367 0h-418l86 406h418z" />
    <glyph glyph-name="quotedbl" unicode="&#x22;" horiz-adv-x="1122" 
d="M483 711h-276l88 747h410zM991 711h-276l88 747h409z" />
    <glyph glyph-name="numbersign" unicode="#" horiz-adv-x="1511" 
d="M1604 1151l-127 -303h-172l-99 -236h174l-127 -303h-174l-129 -309h-332l130 309h-248l-129 -309h-332l129 309h-174l127 303h174l98 236h-174l127 303h172l129 307h332l-129 -307h248l129 307h332l-129 -307h174zM627 612h247l99 236h-248z" />
    <glyph glyph-name="dollar" unicode="$" horiz-adv-x="1355" 
d="M1380 1010h-387q22 134 -100 161l-57 -268l49 -8q255 -45 358 -164q103 -120 60 -332q-43 -200 -221 -313t-445 -119l-43 -205h-152l45 209q-275 24 -396 159q-121 134 -71 349h396q-33 -173 137 -194l59 278l-43 6q-235 39 -340 168t-61 336q38 179 205 297
q163 116 436 121l43 205h152l-46 -211q246 -27 353 -148q108 -121 69 -327zM586 1061q-10 -51 14 -81t90 -48l51 244q-137 -15 -155 -115zM877 393q15 62 -12 93q-26 30 -107 51l-53 -256q151 18 172 112z" />
    <glyph glyph-name="percent" unicode="%" horiz-adv-x="1875" 
d="M455 596q-191 0 -268 119t-27 354q89 406 424 406q190 0 268 -120q78 -121 29 -351q-89 -408 -426 -408zM551 0h-229l1089 1458h229zM479 793q62 0 98 50q34 47 62 175q29 145 11 202q-18 58 -87 58q-65 0 -101 -51q-37 -53 -61 -174q-28 -143 -10 -202q18 -58 88 -58z
M1374 -16q-191 0 -267 118q-77 120 -28 355q89 405 424 405q191 0 269 -120q78 -119 28 -351q-88 -407 -426 -407zM1399 180q61 0 97 50q35 49 63 176q29 144 11 201q-18 59 -87 59q-65 0 -102 -52q-36 -51 -60 -174q-28 -142 -10 -201t88 -59z" />
    <glyph glyph-name="ampersand" unicode="&#x26;" horiz-adv-x="1511" 
d="M1126 733h347q-67 -276 -244 -473l180 -260h-455l-28 43q-177 -76 -375 -76q-266 0 -412 137q-148 135 -104 353q46 222 375 356q-105 183 -68 350q28 132 158 232q130 96 364 96q221 0 336 -115q114 -114 76 -289q-45 -216 -383 -344l147 -213q56 90 86 203zM702 1110
q-18 -68 62 -180q154 63 182 168q11 47 -21 79q-31 31 -91 31q-108 0 -132 -98zM633 270q69 0 125 21l-215 319q-96 -66 -111 -139q-21 -85 37 -143t164 -58z" />
    <glyph glyph-name="quotesingle" unicode="'" horiz-adv-x="614" 
d="M483 711h-276l88 747h410z" />
    <glyph glyph-name="parenleft" unicode="(" horiz-adv-x="632" 
d="M444 -401h-344q-117 468 2 1032q61 286 158 502q95 218 268 481h344q-268 -425 -397 -1028q-111 -516 -31 -987z" />
    <glyph glyph-name="parenright" unicode=")" horiz-adv-x="632" 
d="M125 -401h-344q268 425 397 1028q111 516 31 987h344q117 -468 -2 -1032q-60 -280 -156 -500q-102 -228 -270 -483z" />
    <glyph glyph-name="asterisk" unicode="*" horiz-adv-x="905" 
d="M825 702l-209 -104l-106 227l-191 -163l-147 180l195 170l-232 133l119 196l219 -127l55 259l228 -48l-56 -260l252 27l29 -227l-266 -27z" />
    <glyph glyph-name="plus" unicode="+" horiz-adv-x="1079" 
d="M754 887h317v-314h-317v-321h-342v321h-318v314h318v321h342v-321z" />
    <glyph glyph-name="comma" unicode="," horiz-adv-x="540" 
d="M-49 0l86 406h418l-88 -414q-44 -199 -157 -281t-337 -82l41 199q110 0 149 27t60 120l6 25h-178z" />
    <glyph glyph-name="hyphen" unicode="-" horiz-adv-x="731" 
d="M655 416h-628l65 313h629z" />
    <glyph glyph-name="period" unicode="." horiz-adv-x="540" 
d="M367 0h-418l86 406h418z" />
    <glyph glyph-name="slash" unicode="/" horiz-adv-x="864" 
d="M246 0h-369l828 1458h368z" />
    <glyph glyph-name="zero" unicode="0" horiz-adv-x="1433" 
d="M645 -33q-340 0 -478 207t-54 596q74 344 269 533q194 188 492 188q339 0 478 -205t57 -590q-73 -347 -270 -538t-494 -191zM680 301q221 0 305 406q47 260 12 356q-37 94 -161 94q-214 0 -299 -397q-51 -265 -17 -363q34 -96 160 -96z" />
    <glyph glyph-name="one" unicode="1" horiz-adv-x="897" 
d="M629 1458h321l-311 -1458h-410l181 848h-344l59 272l33 2q168 10 281 88q113 77 190 248z" />
    <glyph glyph-name="two" unicode="2" horiz-adv-x="1316" 
d="M823 1491q283 0 420 -141q135 -141 84 -381q-30 -144 -163 -255q-132 -110 -369 -198l-133 -49q-147 -50 -181 -133h719l-72 -334h-1185l39 147q46 179 151 330q127 182 453 295l96 33q120 40 176 84t68 102q33 168 -150 168q-95 0 -148 -50q-52 -49 -73 -157h-385
q57 278 212 409q154 130 441 130z" />
    <glyph glyph-name="three" unicode="3" horiz-adv-x="1363" 
d="M1370 1038q-18 -87 -96 -162t-193 -110q118 -45 170 -146q53 -103 19 -249q-43 -190 -203 -297t-436 -107q-315 0 -466 151t-112 419h398q-18 -236 208 -236q86 0 138 37q53 38 65 98q21 85 -26 132q-46 46 -148 46h-108l59 281h119q193 0 221 127q15 74 -28 115t-128 41
q-183 0 -233 -170h-393q57 243 220 363q164 120 443 120q265 0 410 -125q144 -124 100 -328z" />
    <glyph glyph-name="four" unicode="4" horiz-adv-x="1411" 
d="M1169 633h189l-72 -334h-188l-64 -299h-409l63 299h-680l82 385l801 774h452zM860 1044l-420 -411h332z" />
    <glyph glyph-name="five" unicode="5" horiz-adv-x="1300" 
d="M1378 1458l-69 -334h-650l-92 -217q101 60 228 60q258 0 366 -152q109 -153 60 -385q-46 -222 -208 -343q-161 -120 -415 -120q-248 0 -405 125q-160 123 -152 338h385q6 -154 184 -154q96 0 160 52t82 141q24 105 -29 171q-53 67 -157 67q-146 0 -207 -111h-373l334 862
h958z" />
    <glyph glyph-name="six" unicode="6" horiz-adv-x="1329" 
d="M834 967q245 0 356 -152t61 -381q-49 -218 -213 -342q-164 -125 -424 -125q-258 0 -403 139q-51 47 -86 133q-35 87 -47 220q-12 138 26 303q78 357 269 544q189 185 485 185q227 0 362 -112q134 -112 136 -310h-365q-17 135 -166 135q-122 0 -203 -82q-82 -84 -137 -282
q133 127 349 127zM881 471q21 92 -32 154q-52 61 -153 61q-92 0 -154 -49q-63 -49 -81 -135q-21 -100 29 -163t153 -63q92 0 157 54q63 52 81 141z" />
    <glyph glyph-name="seven" unicode="7" horiz-adv-x="1118" 
d="M150 1124l69 334h1077l-69 -332q-268 -208 -418 -456q-155 -251 -244 -670h-424q69 327 254 629q184 299 412 495h-657z" />
    <glyph glyph-name="eight" unicode="8" horiz-adv-x="1316" 
d="M1329 1038q-43 -190 -237 -288q217 -111 157 -375q-43 -192 -207 -300t-454 -108q-304 0 -459 139q-156 136 -106 375q50 221 319 299q-168 130 -121 350q38 172 189 266q152 95 399 95q274 0 420 -119q147 -118 100 -334zM569 1069q-21 -85 29 -135q49 -49 150 -49
q90 0 150 42q61 43 73 109q15 83 -37 130q-50 46 -152 46q-180 0 -213 -143zM864 430q21 95 -35 149q-55 54 -172 54q-204 0 -239 -158q-18 -94 39 -148q58 -55 172 -55q200 0 235 158z" />
    <glyph glyph-name="nine" unicode="9" horiz-adv-x="1329" 
d="M1196 1354q55 -49 91 -134t48 -221q12 -138 -26 -303q-77 -356 -269 -543q-190 -186 -485 -186q-226 0 -361 112q-136 113 -137 310h365q16 -135 166 -135q123 0 204 82t136 282q-132 -126 -348 -126q-246 0 -357 153q-111 151 -61 379q50 218 213 342q164 125 424 125
q246 0 397 -137zM717 772q92 0 154 49q63 49 81 135q21 100 -29 163q-49 63 -153 63q-92 0 -157 -54q-63 -52 -81 -141q-21 -91 32 -153t153 -62z" />
    <glyph glyph-name="colon" unicode=":" horiz-adv-x="540" 
d="M494 598h-418l86 406h418zM367 0h-418l86 406h418z" />
    <glyph glyph-name="semicolon" unicode=";" horiz-adv-x="540" 
d="M76 598l86 406h418l-86 -406h-418zM129 0h-178l86 406h418l-93 -435q-72 -342 -434 -342h-55l41 199h59q118 0 148 135z" />
    <glyph glyph-name="less" unicode="&#x3c;" horiz-adv-x="1079" 
d="M1069 1274v-363l-45 -14q-327 -106 -553 -168q226 -62 553 -168l45 -14v-363l-977 363v364z" />
    <glyph glyph-name="equal" unicode="=" horiz-adv-x="1079" 
d="M1028 795h-977v292h977v-292zM1028 371h-977v293h977v-293z" />
    <glyph glyph-name="greater" unicode="&#x3e;" horiz-adv-x="1079" 
d="M131 911v363l977 -363v-364l-977 -363v363l45 14q316 103 553 168q-237 65 -553 168z" />
    <glyph glyph-name="question" unicode="?" horiz-adv-x="1150" 
d="M733 524h-360q22 106 47 170q23 55 63 97q59 65 195 133q82 40 110 67q30 28 37 66q28 127 -120 127q-88 0 -132 -43t-65 -137h-379q51 258 201 372q151 115 428 115q248 0 385 -113q135 -113 92 -309q-41 -179 -231 -287q-145 -84 -209 -131q-41 -35 -62 -127zM653 0
h-417l86 405h417z" />
    <glyph glyph-name="at" unicode="@" horiz-adv-x="1884" 
d="M1096 1491q412 0 633 -236q219 -238 137 -626q-47 -221 -174 -347q-128 -126 -303 -126q-227 0 -295 170q-117 -156 -301 -156q-160 2 -256 128q-96 127 -41 384q40 189 154 292q113 103 265 103q155 0 240 -102l16 82h326l-115 -537q-21 -94 52 -94q63 0 110 68
q48 69 70 170q60 279 -83 435q-142 156 -460 156q-291 0 -485 -161q-201 -163 -252 -416q-72 -342 84 -520q158 -183 463 -183q233 0 417 72l-51 -235q-169 -58 -413 -58q-427 0 -639 254q-211 250 -115 701q72 324 344 553t672 229zM909 426q72 0 112 45q39 43 60 145
q43 207 -104 207q-120 0 -160 -182q-23 -102 3 -159q25 -56 89 -56z" />
    <glyph glyph-name="A" unicode="A" horiz-adv-x="1525" 
d="M1425 0h-424l-20 190h-571l-101 -190h-430l828 1458h491zM768 864l-178 -336h352l-37 336q-1 12 -20 230q-75 -152 -117 -230z" />
    <glyph glyph-name="B" unicode="B" horiz-adv-x="1421" 
d="M1442 1057q-44 -210 -258 -283q102 -50 150 -156q48 -107 26 -223q-44 -198 -190 -297q-146 -98 -418 -98h-760l309 1458h672q262 0 385 -115q118 -112 84 -286zM1028 1010q12 60 -18 94q-30 35 -92 35h-275l-53 -250h272q66 0 111 33t55 88zM950 444q15 69 -21 107
q-36 37 -110 37h-293l-57 -266h319q134 0 162 122z" />
    <glyph glyph-name="C" unicode="C" horiz-adv-x="1546" 
d="M694 -33q-354 0 -516 215q-164 218 -82 602q68 314 299 512q231 195 568 195q282 0 458 -152q172 -152 164 -424h-411q-6 108 -73 167t-179 59q-147 0 -256 -107q-109 -108 -148 -286q-92 -431 230 -431q122 0 218 67q95 66 144 187h410q-90 -295 -301 -449
q-212 -155 -525 -155z" />
    <glyph glyph-name="D" unicode="D" horiz-adv-x="1536" 
d="M301 1458h606q361 0 527 -217q164 -219 90 -567q-72 -334 -273 -502q-206 -172 -602 -172h-657zM1114 711q41 199 -28 301t-228 102h-221l-162 -770h219q342 0 420 367z" />
    <glyph glyph-name="E" unicode="E" horiz-adv-x="1304" 
d="M1452 1458l-78 -364h-741l-41 -193h676l-72 -340h-678l-41 -196h742l-78 -365h-1151l311 1458h1151z" />
    <glyph glyph-name="F" unicode="F" horiz-adv-x="1232" 
d="M1411 1458l-78 -364h-700l-41 -191h655l-73 -344h-656l-119 -559h-409l311 1458h1110z" />
    <glyph glyph-name="G" unicode="G" horiz-adv-x="1615" 
d="M907 1141q-145 0 -251 -106q-105 -105 -144 -285q-45 -208 19 -320q65 -113 225 -113q120 0 215 56q94 55 139 151h-270l67 312h690l-178 -836h-278v182q-84 -100 -211 -158q-124 -57 -266 -57q-344 0 -502 215q-158 214 -74 600q69 322 299 518q224 191 571 191
q306 0 476 -141q169 -141 163 -389h-415q-33 180 -275 180z" />
    <glyph glyph-name="H" unicode="H" horiz-adv-x="1525" 
d="M1098 926l114 532h410l-311 -1458h-410l119 561h-502l-119 -561h-409l311 1458h410l-115 -532h502z" />
    <glyph glyph-name="I" unicode="I" horiz-adv-x="614" 
d="M399 0h-409l311 1458h410z" />
    <glyph glyph-name="J" unicode="J" horiz-adv-x="1202" 
d="M498 -33q-273 0 -397 133q-123 132 -72 373l12 59h391l-12 -59q-34 -166 117 -166q128 0 163 158l207 993h410l-215 -1018q-45 -223 -200 -348t-404 -125z" />
    <glyph glyph-name="K" unicode="K" horiz-adv-x="1529" 
d="M1233 1458h506l-695 -610l386 -848h-463l-254 590l-224 -174l-88 -416h-409l309 1458h410l-123 -575z" />
    <glyph glyph-name="L" unicode="L" horiz-adv-x="1177" 
d="M711 1458l-234 -1093h645l-78 -365h-1054l311 1458h410z" />
    <glyph glyph-name="M" unicode="M" horiz-adv-x="1884" 
d="M1096 905l258 553h626l-311 -1458h-381l88 414q80 370 160 690l-158 -332l-374 -772h-332l-47 772q-5 80 -9 156q-5 79 -6 114q0 10 -0.5 22t-1 18.5t-0.5 9.5q-42 -240 -133 -678l-88 -414h-397l311 1458h619l28 -553q8 -125 8 -307q73 169 140 307z" />
    <glyph glyph-name="N" unicode="N" horiz-adv-x="1525" 
d="M1184 1221l51 237h389l-311 -1458h-424l-199 518q-94 239 -129 377q-55 -321 -129 -657l-51 -238h-389l311 1458h424l199 -518q95 -252 129 -379q57 325 129 660z" />
    <glyph glyph-name="O" unicode="O" horiz-adv-x="1613" 
d="M733 -33q-351 0 -534 221q-185 219 -105 605q66 307 305 501q244 197 572 197q349 0 534 -219q183 -224 101 -604q-63 -306 -306 -504q-244 -197 -567 -197zM774 322q151 0 261 104q112 106 151 283q43 201 -27 315q-69 113 -235 113q-149 0 -261 -107
q-113 -108 -153 -291q-43 -195 28 -307q70 -110 236 -110z" />
    <glyph glyph-name="P" unicode="P" horiz-adv-x="1386" 
d="M301 1458h623q294 0 431 -147q137 -148 77 -410q-45 -199 -218 -328q-175 -131 -423 -131h-295l-95 -442h-409zM1028 936q33 178 -145 178h-246l-70 -328h246q84 0 142 40t73 110z" />
    <glyph glyph-name="Q" unicode="Q" horiz-adv-x="1613" 
d="M1606 668q-57 -271 -267 -469l127 -172l-233 -160l-131 176q-165 -76 -369 -76q-351 0 -534 221q-185 219 -105 605q66 307 305 501q244 197 572 197q349 0 534 -219q183 -224 101 -604zM760 510l233 158l115 -156q55 92 78 197q43 201 -27 315q-69 113 -235 113
q-149 0 -261 -107q-113 -108 -153 -291q-43 -195 28 -307q70 -110 236 -110q53 0 113 16z" />
    <glyph glyph-name="R" unicode="R" horiz-adv-x="1411" 
d="M301 1458h655q295 0 424 -126t84 -339q-52 -239 -315 -323q191 -80 147 -328l-28 -176q-16 -112 2 -166h-422q-17 53 6 166l27 147q18 110 -20 151q-37 40 -140 40h-213l-107 -504h-409zM571 803h228q205 0 235 153q38 183 -145 183h-246z" />
    <glyph glyph-name="S" unicode="S" horiz-adv-x="1355" 
d="M606 -33q-337 0 -489 137q-153 138 -97 375h396q-22 -114 34 -157t197 -43q99 0 158 31q60 31 72 83q17 72 -24 104t-173 54l-111 18q-235 39 -340 168t-61 336q38 175 207 297q169 121 442 121q317 0 462 -122t101 -359h-387q15 88 -32 129t-164 41q-190 0 -211 -119
q-12 -65 27 -94q42 -31 155 -52l117 -20q255 -45 358 -164q103 -120 60 -332q-43 -207 -229 -319q-187 -113 -468 -113z" />
    <glyph glyph-name="T" unicode="T" horiz-adv-x="1310" 
d="M219 1458h1270l-78 -364h-430l-233 -1094h-410l233 1094h-430z" />
    <glyph glyph-name="U" unicode="U" horiz-adv-x="1474" 
d="M664 -33q-313 0 -471 176q-156 174 -87 506l175 809h409l-182 -860q-29 -137 24 -209q52 -72 175 -72q113 0 189 66q77 67 101 188l185 887h409l-196 -942q-55 -263 -246 -406t-485 -143z" />
    <glyph glyph-name="V" unicode="V" horiz-adv-x="1484" 
d="M979 920l281 538h434l-807 -1458h-492l-207 1458h426l54 -538q27 -256 39 -562q137 297 272 562z" />
    <glyph glyph-name="W" unicode="W" horiz-adv-x="2062" 
d="M1642 1038l183 420h432l-703 -1458h-458l2 432q1 215 14 533q-76 -201 -213 -533l-182 -432h-459l-84 1458h424l6 -420q6 -302 -2 -585q84 228 234 585l174 420h403l-2 -420q-5 -340 -16 -583q88 217 247 583z" />
    <glyph glyph-name="X" unicode="X" horiz-adv-x="1449" 
d="M1165 1458h469l-616 -713l338 -745h-463l-57 133q-112 262 -121 285q-152 -186 -238 -285l-115 -133h-477l658 741l-318 717h463l53 -127q65 -160 105 -262q134 166 213 262z" />
    <glyph glyph-name="Y" unicode="Y" horiz-adv-x="1466" 
d="M1094 1296l123 162h458l-725 -897l-119 -561h-409l119 561l-353 897h451l59 -164q4 -9 127 -356q62 86 269 358z" />
    <glyph glyph-name="Z" unicode="Z" horiz-adv-x="1353" 
d="M1487 1458l-68 -311l-534 -494q-115 -108 -326 -293q405 5 412 5h293l-78 -365h-1252l68 315l533 488q3 3 44 39.5t118.5 106.5t166.5 149q-331 -4 -415 -4h-261l78 364h1221z" />
    <glyph glyph-name="bracketleft" unicode="[" horiz-adv-x="786" 
d="M567 -401h-663l430 2015h663l-67 -311h-309l-295 -1393h309z" />
    <glyph glyph-name="backslash" unicode="\" horiz-adv-x="864" 
d="M758 0h-355l-210 1458h354z" />
    <glyph glyph-name="bracketright" unicode="]" horiz-adv-x="786" 
d="M485 -401h-663l67 311h310l295 1393h-310l68 311h663z" />
    <glyph glyph-name="asciicircum" unicode="^" horiz-adv-x="870" 
d="M305 1458h342l264 -577h-317l-82 209q-32 80 -35 90q-3 -10 -35 -90l-84 -209h-317z" />
    <glyph glyph-name="underscore" unicode="_" horiz-adv-x="1060" 
d="M877 -348h-1065l57 266h1065z" />
    <glyph glyph-name="grave" unicode="`" horiz-adv-x="819" 
d="M727 1163h-283l-143 295h369z" />
    <glyph glyph-name="a" unicode="a" horiz-adv-x="1181" 
d="M1143 674l-105 -484q-28 -132 2 -190h-378q-11 40 -7 98q-127 -123 -336 -123q-184 0 -280 96q-94 94 -59 257q30 142 142 215q109 71 345 92l172 14q72 6 103 23q30 16 40 55q6 46 -21 70t-99 24q-86 0 -122 -23q-38 -25 -53 -89h-372q45 194 180 283q136 89 393 89
q274 0 385 -101q113 -103 70 -306zM475 217q88 0 156 50t86 149l12 61q-29 -31 -102 -41l-123 -12q-126 -12 -144 -105q-10 -46 21 -74t94 -28z" />
    <glyph glyph-name="b" unicode="b" horiz-adv-x="1214" 
d="M811 1081q211 0 313 -163q101 -164 41 -443q-49 -223 -186 -360q-140 -140 -342 -140q-195 0 -279 134l-22 -109h-367l312 1458h376l-98 -465q106 88 252 88zM797 528q51 258 -140 258q-169 0 -231 -258t139 -258q177 0 232 258z" />
    <glyph glyph-name="c" unicode="c" horiz-adv-x="1169" 
d="M528 -25q-281 0 -411 163q-131 164 -70 454q45 216 211 352q164 137 426 137q236 0 365 -116q128 -121 110 -320h-377q-4 135 -143 135q-88 0 -142 -57t-81 -184q-51 -260 135 -260q154 0 203 155h370q-51 -222 -204 -341q-152 -118 -392 -118z" />
    <glyph glyph-name="d" unicode="d" horiz-adv-x="1241" 
d="M846 958l106 500h377l-311 -1458h-367l17 74q-111 -99 -267 -99q-209 0 -311 166q-103 165 -43 441q49 220 189 360q139 139 339 139q187 0 271 -123zM416 528q-51 -258 139 -258q169 0 231 258t-139 258q-175 0 -231 -258z" />
    <glyph glyph-name="e" unicode="e" horiz-adv-x="1218" 
d="M684 1081q268 0 403 -159q133 -162 72 -435q-7 -40 -18 -67h-774q1 -85 52 -132q49 -46 136 -46q129 0 195 92h352q-66 -175 -216 -266q-152 -93 -366 -93q-270 0 -401 162q-131 160 -74 443q51 239 219 370q169 131 420 131zM657 815q-174 0 -243 -172h413q2 85 -43 128
q-46 44 -127 44z" />
    <glyph glyph-name="f" unicode="f" horiz-adv-x="792" 
d="M891 1184h-103q-100 0 -124 -109l-5 -18h205l-57 -266h-205l-168 -791h-377l168 791h-149l57 266h150l8 43q40 196 149 282t324 86q97 0 184 -10z" />
    <glyph glyph-name="g" unicode="g" horiz-adv-x="1218" 
d="M852 924l29 133h368l-221 -1037q-49 -232 -180 -339t-410 -107q-267 0 -389 107q-120 105 -108 299h385q2 -130 143 -130q79 0 125 51q45 50 68 165l12 65q-96 -90 -246 -90q-224 0 -326 158q-104 156 -47 422q45 217 178 338q134 122 332 122q209 0 287 -157zM428 571
q-24 -116 14 -175q39 -60 133 -60q173 0 220 225t-146 225q-174 0 -221 -215z" />
    <glyph glyph-name="h" unicode="h" horiz-adv-x="1226" 
d="M893 1081q175 0 248 -124q73 -123 20 -363l-129 -594h-377l125 586q18 84 -11 129q-30 47 -101 47q-144 0 -189 -148l-131 -614h-377l310 1458h376l-112 -528q151 151 348 151z" />
    <glyph glyph-name="i" unicode="i" horiz-adv-x="540" 
d="M584 1163h-355l62 295h354zM346 0h-377l226 1057h376z" />
    <glyph glyph-name="j" unicode="j" horiz-adv-x="540" 
d="M584 1163h-355l62 295h354zM-49 -406q-107 0 -199 5l60 280h30q36 0 56 5q17 4 39 33q19 25 32 85l226 1055h376l-231 -1084q-44 -198 -138 -288q-96 -91 -251 -91z" />
    <glyph glyph-name="k" unicode="k" horiz-adv-x="1245" 
d="M920 1057h417l-481 -428l277 -629h-404l-156 416l-180 -152l-57 -264h-367l312 1458h366l-170 -794z" />
    <glyph glyph-name="l" unicode="l" horiz-adv-x="540" 
d="M346 0h-377l312 1458h376z" />
    <glyph glyph-name="m" unicode="m" horiz-adv-x="1863" 
d="M1143 891q189 190 364 190q177 0 260 -116q82 -117 31 -359l-129 -606h-377l129 604q35 158 -112 158q-138 0 -176 -176l-125 -586h-377l129 604q35 158 -109 158q-142 0 -180 -176l-125 -586h-377l226 1057h368l-31 -139q153 163 318 163q241 0 293 -190z" />
    <glyph glyph-name="n" unicode="n" horiz-adv-x="1226" 
d="M893 1081q175 0 248 -124q73 -123 20 -363l-129 -594h-377l125 586q18 84 -11 129q-30 47 -101 47q-75 0 -127 -44q-52 -45 -70 -132l-125 -586h-377l226 1057h368l-28 -139q153 163 358 163z" />
    <glyph glyph-name="o" unicode="o" horiz-adv-x="1220" 
d="M528 -25q-282 0 -411 165q-129 166 -68 452q45 220 217 356q168 135 426 135q286 0 412 -162q127 -162 65 -456q-45 -217 -217 -352q-171 -138 -424 -138zM436 340q40 -70 127 -70q83 0 150 62q62 62 86 184q27 127 -12 200q-37 70 -130 70q-89 0 -148 -62
q-60 -63 -87 -185q-29 -131 14 -199z" />
    <glyph glyph-name="p" unicode="p" horiz-adv-x="1216" 
d="M813 1081q211 0 313 -163q101 -164 41 -443q-49 -223 -186 -360q-140 -140 -342 -140q-187 0 -270 123l-107 -499h-377l312 1458h366l-16 -74q110 98 266 98zM799 528q52 258 -140 258q-169 0 -231 -258t139 -258q177 0 232 258z" />
    <glyph glyph-name="q" unicode="q" horiz-adv-x="1241" 
d="M854 946l25 111h366l-311 -1458h-377l100 467q-109 -91 -256 -91q-209 0 -311 166q-103 165 -43 441q49 220 189 360q139 139 339 139q199 0 279 -135zM416 528q-51 -258 139 -258q169 0 231 258t-139 258q-175 0 -231 -258z" />
    <glyph glyph-name="r" unicode="r" horiz-adv-x="851" 
d="M852 1073q41 0 74 -6l-72 -338h-98q-257 0 -314 -278l-96 -451h-377l226 1057h368l-39 -183q106 199 328 199z" />
    <glyph glyph-name="s" unicode="s" horiz-adv-x="1105" 
d="M471 -33q-278 0 -398 87t-93 282h364q-7 -72 28 -100q37 -29 130 -29q142 0 157 76q7 43 -20 66q-29 24 -104 36l-162 25q-344 56 -281 364q63 307 545 307q262 0 372 -97q112 -98 85 -269h-344q12 67 -25 97t-119 30q-138 0 -155 -74q-8 -40 20 -63q30 -26 92 -33
l176 -25q175 -24 252 -118q76 -92 47 -240q-63 -322 -567 -322z" />
    <glyph glyph-name="t" unicode="t" horiz-adv-x="786" 
d="M801 791h-199l-82 -379q-29 -136 94 -136h78l-59 -274q-91 -10 -139 -10q-436 0 -351 405l84 394h-151l57 266h150l67 319h377l-68 -319h199z" />
    <glyph glyph-name="u" unicode="u" horiz-adv-x="1226" 
d="M756 471l125 586h376l-225 -1057h-368l28 139q-153 -164 -358 -164q-175 0 -248 124q-73 123 -20 364l129 594h376l-125 -586q-18 -83 12 -129q30 -47 101 -47q75 0 127 44q52 45 70 132z" />
    <glyph glyph-name="v" unicode="v" horiz-adv-x="1183" 
d="M885 1012l22 45h393l-587 -1057h-459l-137 1057h395l6 -111q18 -340 31 -629q232 484 336 695z" />
    <glyph glyph-name="w" unicode="w" horiz-adv-x="1816" 
d="M1372 768l141 289h412l-567 -1057h-397l-25 365q-8 114 -14 258q-51 -117 -119 -258l-180 -365h-398l-116 1057h395l18 -289l2 -40q3 -40 5 -75q2 -33 5 -73.5t3 -49.5q0 -30 1 -55q1 -37 3 -55q114 254 159 350l138 287h342l14 -287q0 -15 1.5 -62.5t4 -126.5t4.5 -163
q25 58 168 350z" />
    <glyph glyph-name="x" unicode="x" horiz-adv-x="1173" 
d="M840 1057h426l-467 -512l262 -545h-414l-10 23q-49 112 -98 237q-87 -110 -201 -235l-23 -25h-428l496 541l-250 516h416l14 -35q4 -13 41 -99t41 -98q65 83 143 172z" />
    <glyph glyph-name="y" unicode="y" horiz-adv-x="1183" 
d="M883 1012l22 45h393l-587 -1057q-91 -161 -170 -246q-75 -81 -195 -121q-117 -39 -313 -39q-41 0 -133 5l61 286h105q143 0 172 115q14 56 -9 229l-114 828h395l2 -43q34 -616 35 -731q169 399 336 729z" />
    <glyph glyph-name="z" unicode="z" horiz-adv-x="1054" 
d="M1108 1057l-49 -230l-416 -405q-149 -139 -162 -152q62 2 209 2h266l-57 -272h-952l49 229l418 406l159 151q-60 -2 -204 -2h-256l59 273h936z" />
    <glyph glyph-name="braceleft" unicode="{" horiz-adv-x="792" 
d="M563 -401h-92q-458 0 -362 458l55 265q12 63 -19 95q-31 33 -120 34l65 311q171 2 195 129l80 366q78 357 497 357h129l-63 -305h-76q-77 0 -113 -31q-35 -30 -53 -117l-78 -358q-39 -185 -282 -195v-4q126 -5 172 -54t28 -140l-73 -342q-21 -99 0 -133q20 -33 100 -33
h76z" />
    <glyph glyph-name="bar" unicode="|" horiz-adv-x="512" 
d="M451 -418h-308v2050h308v-2050z" />
    <glyph glyph-name="braceright" unicode="}" horiz-adv-x="792" 
d="M-37 -401h-129l64 305h75q79 0 113 30q35 30 53 117l78 359q39 183 283 194v4q-125 5 -172 55t-29 140l74 342q21 98 0 132t-101 34h-75l65 303h92q459 0 363 -459l-55 -264q-12 -63 18 -95q31 -32 121 -34l-66 -311q-170 -2 -194 -129l-80 -367q-76 -356 -498 -356z" />
    <glyph glyph-name="asciitilde" unicode="~" horiz-adv-x="1079" 
d="M338 530h-246q0 187 79 291q79 105 226 105q89 0 215 -62q87 -41 117 -41q44 0 65 24q22 25 29 79h246q0 -186 -79 -290q-80 -106 -224 -106q-91 0 -217 64q-79 39 -117 39q-43 0 -65 -22t-29 -81z" />
    <glyph glyph-name="uni00A0" unicode="&#xa0;" horiz-adv-x="512" 
 />
    <glyph glyph-name="exclamdown" unicode="&#xa1;" horiz-adv-x="540" 
d="M539 795h-418l86 405h418zM315 -258h-409l71 340l232 592h194l-16 -592z" />
    <glyph glyph-name="cent" unicode="&#xa2;" horiz-adv-x="1169" 
d="M1159 645h-377q-5 86 -59 115l-98 -469q96 30 129 143h370q-50 -216 -194 -333q-146 -119 -373 -126l-45 -213h-143l47 222q-225 30 -325 190t-44 418q43 204 201 344q159 138 401 145l43 205h144l-45 -213q186 -24 285 -138q99 -115 83 -290zM416 539q-41 -203 65 -248
l103 483q-125 -30 -168 -235z" />
    <glyph glyph-name="sterling" unicode="&#xa3;" horiz-adv-x="1196" 
d="M1266 1010h-387q18 164 -121 164q-106 0 -129 -105q-15 -65 14 -219l12 -64h377l-35 -159h-325q4 -70 -8 -117q-18 -78 -97 -145h563l-77 -365h-1104l67 315q214 56 238 179q12 57 6 133h-219l35 159h157q-37 201 -10 332q72 373 568 373q250 0 377 -127
q128 -128 98 -354z" />
    <glyph glyph-name="currency" unicode="&#xa4;" horiz-adv-x="1196" 
d="M1196 1184l-145 -146q108 -134 108 -309t-108 -309l145 -146l-113 -112l-149 149q-130 -84 -289 -84q-165 0 -295 90l-155 -155l-113 112l151 152q-102 136 -102 303t102 303l-151 152l113 112l155 -155q131 90 295 90q159 0 289 -84l149 149zM494 578q62 -62 151 -62
q90 0 154 62q61 57 61 151q0 93 -61 154q-62 59 -154 59q-91 0 -151 -59q-64 -62 -64 -154q0 -93 64 -151z" />
    <glyph glyph-name="yen" unicode="&#xa5;" horiz-adv-x="1466" 
d="M1217 1458h458l-647 -801h227l-32 -159h-287l-31 -152h285l-33 -160h-287l-39 -186h-409l39 186h-307l32 160h310l30 152h-307l33 159h252l-316 801h451l59 -164q103 -285 127 -358q251 341 269 360z" />
    <glyph glyph-name="brokenbar" unicode="&#xa6;" horiz-adv-x="512" 
d="M451 815h-308v817h308v-817zM451 -418h-308v817h308v-817z" />
    <glyph glyph-name="section" unicode="&#xa7;" horiz-adv-x="1273" 
d="M1255 1124h-346q12 65 -24 96q-37 31 -107 31q-112 0 -127 -88q-15 -73 90 -141l228 -150q156 -100 221 -188q64 -91 37 -221q-39 -191 -297 -287q94 -105 61 -264q-30 -158 -165 -245q-133 -85 -365 -85q-245 0 -357 100q-110 98 -86 267h344q-12 -63 26 -95t108 -32
q109 0 127 88q16 68 -93 141l-225 150q-150 96 -219 192q-64 90 -37 232q37 178 293 274q-90 107 -57 281q30 146 166 229q134 82 364 82q245 0 355 -99q109 -99 85 -268zM756 602l-203 135q-74 -34 -102 -59q-32 -29 -39 -64q-12 -67 104 -143l203 -135q124 55 139 125
q12 57 -39 98q-2 1 -9 6t-23 16t-31 21z" />
    <glyph glyph-name="dieresis" unicode="&#xa8;" horiz-adv-x="819" 
d="M496 1163h-357l64 295h356zM952 1163h-354l64 295h354z" />
    <glyph glyph-name="copyright" unicode="&#xa9;" horiz-adv-x="1648" 
d="M1423 188q-224 -221 -559 -221q-331 0 -557 221q-225 220 -225 541q0 323 225 543q225 219 557 219q334 0 559 -219q226 -221 226 -543q0 -320 -226 -541zM496 362q146 -147 370 -147q226 0 373 147q145 145 145 367q0 220 -145 369q-149 145 -373 145q-225 0 -370 -145
q-148 -148 -148 -369t148 -367zM872 334q-180 0 -287 107q-108 108 -108 288t108 288q107 107 287 107q167 0 268 -88q102 -88 109 -235h-270q-6 100 -107 100q-118 0 -118 -172t118 -172q110 0 115 115h266q-5 -155 -107 -246q-104 -92 -274 -92z" />
    <glyph glyph-name="ordfeminine" unicode="&#xaa;" horiz-adv-x="1036" 
d="M707 1477q228 0 328 -86q100 -87 63 -258l-90 -420q-23 -110 -11 -176h-317q-6 35 -2 84q-96 -105 -272 -105q-164 0 -251 89q-88 89 -53 243q24 112 123 171q98 58 287 73l152 12q62 5 87 19q25 15 33 53v2q6 36 -17 53q-24 18 -87 18q-69 0 -99 -23q-31 -24 -46 -81
h-324q39 173 154 253q113 79 342 79zM535 735q149 0 190 158l10 55q-26 -22 -82 -28l-100 -11q-109 -11 -121 -82q-7 -43 20 -67q28 -25 83 -25z" />
    <glyph glyph-name="guillemotleft" unicode="&#xab;" horiz-adv-x="972" 
d="M141 725l408 285l-78 -344l-186 -131l133 -129l-66 -328l-289 284zM561 725l408 285l-78 -344l-186 -131l133 -129l-66 -328l-289 284z" />
    <glyph glyph-name="logicalnot" unicode="&#xac;" horiz-adv-x="1079" 
d="M92 635v313h977v-635h-342v322h-635z" />
    <glyph glyph-name="uni00AD" unicode="&#xad;" horiz-adv-x="731" 
d="M655 416h-628l65 313h629z" />
    <glyph glyph-name="registered" unicode="&#xae;" horiz-adv-x="1142" 
d="M270 1337q160 154 392 154q231 0 391 -154q159 -157 159 -381q0 -223 -159 -376q-158 -156 -391 -156q-234 0 -392 156q-159 153 -159 376q0 224 159 381zM367 666q121 -117 295 -117q178 0 296 117q119 117 119 290q0 176 -119 293q-118 117 -296 117t-297 -117
t-119 -293q0 -173 121 -290zM899 825l4 -69q1 -44 21 -60h-166q-14 26 -15 60l-4 57q-2 35 -15 47t-46 12h-68v-176h-159v529h260q93 0 146 -42q52 -42 52 -118q0 -79 -71 -119q56 -30 61 -121zM610 1096v-103h78q55 0 55 51q0 52 -55 52h-78z" />
    <glyph glyph-name="overscore" unicode="&#xaf;" horiz-adv-x="819" 
d="M907 1163h-727l51 236h727z" />
    <glyph glyph-name="degree" unicode="&#xb0;" horiz-adv-x="737" 
d="M711 913q-99 -98 -248 -98t-248 98q-100 94 -100 234q0 143 100 237q101 95 248 95t248 -95q100 -94 100 -237q0 -140 -100 -234zM463 1018q55 0 92 37t37 92t-37 91t-92 36t-92 -36t-37 -91q0 -54 38 -92q37 -37 91 -37z" />
    <glyph glyph-name="plusminus" unicode="&#xb1;" horiz-adv-x="1079" 
d="M752 1208v-235h317v-314h-317v-235h-342v235h-318v314h318v235h342zM1069 0h-977v313h977v-313z" />
    <glyph glyph-name="two.sups" unicode="&#xb2;" horiz-adv-x="806" 
d="M846 1081h-674l25 88q73 249 321 355l76 32q71 32 104 55q31 22 37 48q18 88 -73 88q-102 0 -125 -115h-230q69 307 383 307q155 0 233 -75t48 -205q-18 -86 -86 -145q-65 -56 -207 -119l-62 -27q-96 -44 -120 -94h391z" />
    <glyph glyph-name="three.sups" unicode="&#xb3;" horiz-adv-x="819" 
d="M569 1065q-182 0 -268 86t-65 242h227q-21 -131 119 -131q88 0 106 73q21 101 -92 101h-66l37 166h66q103 0 121 73q11 41 -14 63q-24 21 -74 21q-102 0 -125 -96h-226q35 147 124 214q90 67 249 67q153 0 237 -70q83 -69 60 -180q-12 -58 -55 -104t-109 -70
q64 -21 91 -76q28 -58 12 -135q-53 -244 -355 -244z" />
    <glyph glyph-name="acute" unicode="&#xb4;" horiz-adv-x="819" 
d="M608 1163h-282l180 295h368z" />
    <glyph glyph-name="uni00B5" unicode="&#xb5;" horiz-adv-x="1452" 
d="M883 471v586h377v-1057h-369v139q-122 -164 -318 -164h-10v-376h-368v1458h378v-604q0 -158 144 -158q73 0 119 46q47 47 47 130z" />
    <glyph glyph-name="paragraph" unicode="&#xb6;" horiz-adv-x="1269" 
d="M608 0h-274l158 743q-190 0 -299 103q-107 101 -64 301q67 311 502 311h692l-311 -1458h-275l258 1206h-129z" />
    <glyph glyph-name="middot" unicode="&#xb7;" horiz-adv-x="540" 
d="M479 526h-418l86 406h418z" />
    <glyph glyph-name="cedilla" unicode="&#xb8;" horiz-adv-x="819" 
d="M322 -88q104 0 157 -53t35 -133q-17 -80 -104 -126q-88 -46 -232 -46q-108 0 -182 14l27 123q43 -8 133 -8q102 0 118 67q8 39 -18 59q-27 21 -84 21q-27 0 -47 -2l16 78l105 104h145l-106 -100q10 2 37 2z" />
    <glyph glyph-name="one.sups" unicode="&#xb9;" horiz-adv-x="509" 
d="M539 1081h-234l111 529h-180l32 157q182 0 267 160h182z" />
    <glyph glyph-name="ordmasculine" unicode="&#xba;" horiz-adv-x="1034" 
d="M555 516q-239 0 -358 141q-122 140 -66 392q44 201 186 313q145 115 363 115q238 0 358 -138q121 -139 68 -381q-45 -208 -184 -325t-367 -117zM580 774q156 0 202 213q24 115 -10 173q-35 59 -119 59q-153 0 -200 -215q-24 -116 10 -173q35 -57 117 -57z" />
    <glyph glyph-name="guillemotright" unicode="&#xbb;" horiz-adv-x="972" 
d="M135 682l66 328l288 -285l-77 -363l-408 -284l78 344l186 131zM555 682l66 328l288 -285l-78 -363l-407 -284l78 344l186 131z" />
    <glyph glyph-name="onequarter" unicode="&#xbc;" horiz-adv-x="1470" 
d="M78 0l1089 1458h230l-1090 -1458h-229zM438 612h-233l110 529h-180l33 157q181 0 266 160h182zM1159 846h252l-102 -486h98l-43 -198h-98l-35 -162h-248l35 162h-369l49 235zM1114 594l-240 -234h189z" />
    <glyph glyph-name="onehalf" unicode="&#xbd;" horiz-adv-x="1581" 
d="M334 0h-230l1090 1458h229zM438 612h-233l110 529h-180l33 157q181 0 266 160h182zM1432 0h-674l24 88q72 248 322 354l76 33q75 34 104 54q31 22 37 49q18 88 -74 88q-102 0 -125 -115h-229q69 307 383 307q153 0 232 -76q78 -75 48 -204q-18 -86 -86 -145
q-69 -59 -206 -120l-62 -26q-98 -44 -121 -94h392z" />
    <glyph glyph-name="threequarters" unicode="&#xbe;" horiz-adv-x="1726" 
d="M797 840q-53 -244 -355 -244q-182 0 -268 86t-65 242h227q-21 -131 119 -131q88 0 106 73q21 101 -92 101h-66l37 166h66q103 0 121 73q11 41 -14 63q-24 21 -74 21q-103 0 -125 -96h-226q35 147 124 214q90 67 249 67q153 0 237 -70q82 -69 60 -180q-12 -58 -55 -104
t-109 -70q64 -21 91 -76q28 -58 12 -135zM319 0l1090 1458h229l-1089 -1458h-230zM1415 846h252l-102 -486h98l-43 -198h-98l-35 -162h-248l35 162h-369l49 235zM1370 594l-240 -234h189z" />
    <glyph glyph-name="questiondown" unicode="&#xbf;" horiz-adv-x="1150" 
d="M864 795h-418l86 405h418zM428 -291q-249 0 -383 113q-137 113 -94 309q41 179 231 287q145 84 209 131q41 35 62 127h360q-24 -120 -45 -170q-17 -44 -66 -96q-62 -68 -194 -134q-84 -41 -111 -67q-30 -28 -37 -66q-28 -127 121 -127q87 0 131 43q45 43 66 138h379
q-51 -259 -201 -373q-151 -115 -428 -115z" />
    <glyph glyph-name="Agrave" unicode="&#xc0;" horiz-adv-x="1525" 
d="M1006 1841l118 -295h-282l-205 295h369zM1425 0h-424l-20 190h-571l-101 -190h-430l828 1458h491zM768 864l-178 -336h352l-37 336q-1 12 -20 230q-75 -152 -117 -230z" />
    <glyph glyph-name="Aacute" unicode="&#xc1;" horiz-adv-x="1525" 
d="M1008 1841h403l-330 -295h-309zM1425 0h-424l-20 190h-571l-101 -190h-430l828 1458h491zM768 864l-178 -336h352l-37 336q-1 12 -20 230q-75 -152 -117 -230z" />
    <glyph glyph-name="Acircumflex" unicode="&#xc2;" horiz-adv-x="1525" 
d="M1087 1546l-86 119l-139 -119h-332l310 295h391l184 -295h-328zM1425 0h-424l-20 190h-571l-101 -190h-430l828 1458h491zM768 864l-178 -336h352l-37 336q-1 12 -20 230q-75 -152 -117 -230z" />
    <glyph glyph-name="Atilde" unicode="&#xc3;" horiz-adv-x="1525" 
d="M858 1612q-54 0 -72 -66h-219q30 144 113 220q82 75 186 75q78 0 168 -37q72 -28 113 -28q54 0 72 65h217q-28 -142 -111 -219q-82 -76 -186 -76q-71 0 -166 37q-78 29 -115 29zM-121 0l828 1458h491l227 -1458h-424l-20 190h-571l-101 -190h-430zM768 864l-178 -336h352
l-37 336q-1 12 -20 230q-75 -152 -117 -230z" />
    <glyph glyph-name="Adieresis" unicode="&#xc4;" horiz-adv-x="1525" 
d="M627 1841h356l-63 -295h-357zM1085 1841h355l-64 -295h-354zM-121 0l828 1458h491l227 -1458h-424l-20 190h-571l-101 -190h-430zM768 864l-178 -336h352l-37 336q-1 12 -20 230q-75 -152 -117 -230z" />
    <glyph glyph-name="Aring" unicode="&#xc5;" horiz-adv-x="1525" 
d="M1425 0h-424l-20 190h-571l-101 -190h-430l795 1401q-51 72 -51 172q0 139 98 227q94 88 237 88q145 0 240 -88q96 -90 96 -227q0 -128 -82 -211zM1042 1655q-33 33 -83 33q-49 0 -82 -33t-33 -82t33 -82t81 -33q50 0 84 33q35 33 35 82t-35 82zM768 864l-178 -336h352
l-37 336q-1 12 -20 230q-75 -152 -117 -230z" />
    <glyph glyph-name="AE" unicode="&#xc6;" horiz-adv-x="2191" 
d="M2337 1458l-76 -364h-662l-40 -193h595l-73 -340h-594l-41 -196h659l-77 -365h-1057l57 272h-547l-184 -272h-420l995 1458h1465zM1055 1120l-346 -510h391l108 510h-153z" />
    <glyph glyph-name="Ccedilla" unicode="&#xc7;" horiz-adv-x="1546" 
d="M922 1141q-147 0 -256 -107q-109 -108 -148 -286q-92 -431 230 -431q122 0 218 67q95 66 144 187h410q-84 -272 -271 -426q-186 -153 -461 -174l-100 -94q10 2 37 2q105 0 158 -53t35 -133q-16 -79 -105 -126q-88 -46 -231 -46q-109 0 -183 14l27 123q43 -8 133 -8
q104 0 119 67q8 38 -19 59t-84 21q-27 0 -47 -2l17 78l96 96q-328 15 -475 232q-150 211 -70 583q68 314 299 512q231 195 568 195q282 0 458 -152q172 -152 164 -424h-411q-6 108 -73 167t-179 59z" />
    <glyph glyph-name="Egrave" unicode="&#xc8;" horiz-adv-x="1304" 
d="M911 1841l119 -295h-282l-205 295h368zM1452 1458l-78 -364h-741l-41 -193h676l-72 -340h-678l-41 -196h742l-78 -365h-1151l311 1458h1151z" />
    <glyph glyph-name="Eacute" unicode="&#xc9;" horiz-adv-x="1304" 
d="M913 1841h404l-330 -295h-309zM1452 1458l-78 -364h-741l-41 -193h676l-72 -340h-678l-41 -196h742l-78 -365h-1151l311 1458h1151z" />
    <glyph glyph-name="Ecircumflex" unicode="&#xca;" horiz-adv-x="1304" 
d="M993 1546l-86 119l-139 -119h-332l309 295h392l184 -295h-328zM1452 1458l-78 -364h-741l-41 -193h676l-72 -340h-678l-41 -196h742l-78 -365h-1151l311 1458h1151z" />
    <glyph glyph-name="Edieresis" unicode="&#xcb;" horiz-adv-x="1304" 
d="M532 1841h357l-64 -295h-356zM991 1841h355l-64 -295h-354zM1452 1458l-78 -364h-741l-41 -193h676l-72 -340h-678l-41 -196h742l-78 -365h-1151l311 1458h1151z" />
    <glyph glyph-name="Igrave" unicode="&#xcc;" horiz-adv-x="614" 
d="M678 1546h-262l-201 295h363zM399 0h-409l311 1458h410z" />
    <glyph glyph-name="Iacute" unicode="&#xcd;" horiz-adv-x="614" 
d="M637 1546h-262l162 295h362zM399 0h-409l311 1458h410z" />
    <glyph glyph-name="Icircumflex" unicode="&#xce;" horiz-adv-x="614" 
d="M604 1546l-53 115l-109 -115h-307l266 295h371l141 -295h-309zM399 0h-409l311 1458h410z" />
    <glyph glyph-name="Idieresis" unicode="&#xcf;" horiz-adv-x="614" 
d="M473 1546h-313l63 295h314zM887 1546h-314l64 295h313zM399 0h-409l311 1458h410z" />
    <glyph glyph-name="Eth" unicode="&#xd0;" horiz-adv-x="1583" 
d="M348 1458h606q361 0 527 -217q163 -219 90 -567q-72 -334 -273 -502q-205 -172 -602 -172h-657l137 645h-199l48 195h192zM1161 711q41 200 -27 301q-69 102 -229 102h-221l-57 -274h237l-45 -195h-233l-64 -301h219q342 0 420 367z" />
    <glyph glyph-name="Ntilde" unicode="&#xd1;" horiz-adv-x="1525" 
d="M870 1612q-53 0 -71 -66h-219q30 145 112 220t187 75q78 0 168 -37q72 -28 112 -28q54 0 72 65h217q-28 -142 -111 -219q-82 -76 -186 -76q-71 0 -166 37q-78 29 -115 29zM1184 1221l51 237h389l-311 -1458h-424l-199 518q-94 239 -129 377q-55 -321 -129 -657l-51 -238
h-389l311 1458h424l199 -518q95 -252 129 -379q57 325 129 660z" />
    <glyph glyph-name="Ograve" unicode="&#xd2;" horiz-adv-x="1613" 
d="M1143 1579h-283l-205 295h369zM733 -33q-351 0 -534 221q-185 219 -105 605q66 307 305 501q244 197 572 197q349 0 534 -219q183 -224 101 -604q-63 -306 -306 -504q-244 -197 -567 -197zM774 322q151 0 261 104q112 106 151 283q43 201 -27 315q-69 113 -235 113
q-149 0 -261 -107q-113 -108 -153 -291q-43 -195 28 -307q70 -110 236 -110z" />
    <glyph glyph-name="Oacute" unicode="&#xd3;" horiz-adv-x="1613" 
d="M1100 1579h-309l235 295h404zM733 -33q-351 0 -534 221q-185 219 -105 605q66 307 305 501q244 197 572 197q349 0 534 -219q183 -224 101 -604q-63 -306 -306 -504q-244 -197 -567 -197zM774 322q151 0 261 104q112 106 151 283q43 201 -27 315q-69 113 -235 113
q-149 0 -261 -107q-113 -108 -153 -291q-43 -195 28 -307q70 -110 236 -110z" />
    <glyph glyph-name="Ocircumflex" unicode="&#xd4;" horiz-adv-x="1613" 
d="M1106 1579l-86 119l-139 -119h-332l309 295h391l185 -295h-328zM971 1491q349 0 534 -219q183 -224 101 -604q-63 -306 -306 -504q-244 -197 -567 -197q-351 0 -534 221q-185 219 -105 605q66 307 305 501q244 197 572 197zM1186 709q43 201 -27 315q-69 113 -235 113
q-149 0 -261 -107q-113 -108 -153 -291q-43 -195 28 -307q70 -110 236 -110q151 0 261 104q112 106 151 283z" />
    <glyph glyph-name="Otilde" unicode="&#xd5;" horiz-adv-x="1613" 
d="M805 1579h-219q30 145 112 220t187 75q78 0 168 -37q75 -29 112 -29q54 0 72 66h217q-28 -142 -111 -219q-82 -76 -186 -76q-73 0 -166 37q-78 29 -114 29q-54 0 -72 -66zM733 -33q-351 0 -534 221q-185 219 -105 605q66 307 305 501q244 197 572 197q349 0 534 -219
q183 -224 101 -604q-63 -306 -306 -504q-244 -197 -567 -197zM774 322q151 0 261 104q112 106 151 283q43 201 -27 315q-69 113 -235 113q-149 0 -261 -107q-113 -108 -153 -291q-43 -195 28 -307q70 -110 236 -110z" />
    <glyph glyph-name="Odieresis" unicode="&#xd6;" horiz-adv-x="1613" 
d="M938 1579h-356l63 295h356zM1395 1579h-355l64 295h354zM733 -33q-351 0 -534 221q-185 219 -105 605q66 307 305 501q244 197 572 197q349 0 534 -219q183 -224 101 -604q-63 -306 -306 -504q-244 -197 -567 -197zM774 322q151 0 261 104q112 106 151 283
q43 201 -27 315q-69 113 -235 113q-149 0 -261 -107q-113 -108 -153 -291q-43 -195 28 -307q70 -110 236 -110z" />
    <glyph glyph-name="multiply" unicode="&#xd7;" horiz-adv-x="1079" 
d="M838 1208l221 -221l-256 -254l256 -256l-221 -221l-256 256l-258 -256l-222 221l256 256l-256 254l222 221l258 -256z" />
    <glyph glyph-name="Oslash" unicode="&#xd8;" horiz-adv-x="1613" 
d="M1608 1434l-123 -140q206 -230 121 -626q-63 -306 -306 -504q-244 -197 -567 -197q-202 0 -354 76l-137 -154l-152 136l125 141q-205 225 -121 627q66 307 305 501q244 197 572 197q198 0 350 -76l135 154zM510 739q-30 -142 -2 -241l545 616q-63 23 -129 23
q-149 0 -261 -107q-113 -108 -153 -291zM1186 709q30 148 2 249l-543 -614q60 -22 129 -22q151 0 261 104q112 106 151 283z" />
    <glyph glyph-name="Ugrave" unicode="&#xd9;" horiz-adv-x="1474" 
d="M1114 1546h-283l-204 295h368zM664 -33q-313 0 -471 176q-156 174 -87 506l175 809h409l-182 -860q-29 -137 24 -209q52 -72 175 -72q113 0 189 66q77 67 101 188l185 887h409l-196 -942q-55 -263 -246 -406t-485 -143z" />
    <glyph glyph-name="Uacute" unicode="&#xda;" horiz-adv-x="1474" 
d="M1071 1546h-309l235 295h404zM664 -33q-313 0 -471 176q-156 174 -87 506l175 809h409l-182 -860q-29 -137 24 -209q52 -72 175 -72q113 0 189 66q77 67 101 188l185 887h409l-196 -942q-55 -263 -246 -406t-485 -143z" />
    <glyph glyph-name="Ucircumflex" unicode="&#xdb;" horiz-adv-x="1474" 
d="M1077 1546l-86 119l-139 -119h-332l309 295h392l184 -295h-328zM997 571l185 887h409l-196 -942q-55 -263 -246 -406t-485 -143q-313 0 -471 176q-156 174 -87 506l175 809h409l-182 -860q-29 -137 24 -209q52 -72 175 -72q113 0 189 66q77 67 101 188z" />
    <glyph glyph-name="Udieresis" unicode="&#xdc;" horiz-adv-x="1474" 
d="M909 1546h-356l63 295h357zM1366 1546h-354l63 295h355zM664 -33q-313 0 -471 176q-156 174 -87 506l175 809h409l-182 -860q-29 -137 24 -209q52 -72 175 -72q113 0 189 66q77 67 101 188l185 887h409l-196 -942q-55 -263 -246 -406t-485 -143z" />
    <glyph glyph-name="Yacute" unicode="&#xdd;" horiz-adv-x="1466" 
d="M987 1841h404l-330 -295h-309zM1094 1296l123 162h458l-725 -897l-119 -561h-409l119 561l-353 897h451l59 -164q4 -9 127 -356q62 86 269 358z" />
    <glyph glyph-name="Thorn" unicode="&#xde;" horiz-adv-x="1386" 
d="M664 1237h213q295 0 431 -147t76 -410q-45 -200 -217 -328q-175 -131 -424 -131h-294l-48 -221h-409l309 1458h410zM981 715q34 178 -145 178h-246l-68 -328h244q84 0 142 40t73 110z" />
    <glyph glyph-name="germandbls" unicode="&#xdf;" horiz-adv-x="1247" 
d="M1221 1059q-33 -157 -193 -254q102 -51 143 -151q42 -102 15 -230q-90 -428 -594 -428q-85 0 -146 4l64 295q25 -4 104 -4q72 0 124 40t67 111q39 199 -166 199h-55l49 236h53q72 0 124 37t67 100q16 71 -22 115q-39 45 -114 45q-143 0 -190 -203l-205 -971h-377l209 983
q108 508 594 508q231 0 361 -121q128 -122 88 -311z" />
    <glyph glyph-name="agrave" unicode="&#xe0;" horiz-adv-x="1181" 
d="M836 1458l57 -295h-283l-143 295h369zM1143 674l-105 -484q-28 -132 2 -190h-378q-11 40 -7 98q-127 -123 -336 -123q-184 0 -280 96q-94 94 -59 257q30 142 142 215q109 71 345 92l172 14q72 6 103 23q30 16 40 55q6 46 -21 70t-99 24q-86 0 -122 -23q-38 -25 -53 -89
h-372q45 194 180 283q136 89 393 89q274 0 385 -101q113 -103 70 -306zM475 217q88 0 156 50t86 149l12 61q-29 -31 -102 -41l-123 -12q-126 -12 -144 -105q-10 -46 21 -74t94 -28z" />
    <glyph glyph-name="aacute" unicode="&#xe1;" horiz-adv-x="1181" 
d="M737 1458h369l-266 -295h-283zM1143 674l-105 -484q-28 -132 2 -190h-378q-11 40 -7 98q-127 -123 -336 -123q-184 0 -280 96q-94 94 -59 257q30 142 142 215q109 71 345 92l172 14q72 6 103 23q30 16 40 55q6 46 -21 70t-99 24q-86 0 -122 -23q-38 -25 -53 -89h-372
q45 194 180 283q136 89 393 89q274 0 385 -101q113 -103 70 -306zM475 217q88 0 156 50t86 149l12 61q-29 -31 -102 -41l-123 -12q-126 -12 -144 -105q-10 -46 21 -74t94 -28z" />
    <glyph glyph-name="acircumflex" unicode="&#xe2;" horiz-adv-x="1181" 
d="M829 1163l-86 119l-139 -119h-332l310 295h391l184 -295h-328zM688 1081q274 0 385 -101q113 -103 70 -306l-105 -484q-28 -132 2 -190h-378q-11 40 -7 98q-127 -123 -336 -123q-184 0 -280 96q-94 94 -59 257q30 142 142 215q109 71 345 92l172 14q72 6 103 23
q30 16 40 55q6 46 -21 70t-99 24q-86 0 -122 -23q-38 -25 -53 -89h-372q45 194 180 283q136 89 393 89zM475 217q88 0 156 50t86 149l12 61q-29 -31 -102 -41l-123 -12q-126 -12 -144 -105q-10 -46 21 -74t94 -28z" />
    <glyph glyph-name="atilde" unicode="&#xe3;" horiz-adv-x="1181" 
d="M598 1229q-54 0 -72 -66h-217q29 142 113 219q82 76 184 76q80 0 170 -37q72 -28 113 -28q54 0 72 65h217q-28 -142 -111 -219q-82 -76 -186 -76q-71 0 -166 37q-78 29 -117 29zM688 1081q274 0 385 -101q113 -103 70 -306l-105 -484q-28 -132 2 -190h-378q-11 40 -7 98
q-127 -123 -336 -123q-184 0 -280 96q-94 94 -59 257q30 142 142 215q109 71 345 92l172 14q72 6 103 23q30 16 40 55q6 46 -21 70t-99 24q-86 0 -122 -23q-38 -25 -53 -89h-372q45 194 180 283q136 89 393 89zM475 217q88 0 156 50t86 149l12 61q-29 -31 -102 -41l-123 -12
q-126 -12 -144 -105q-10 -46 21 -74t94 -28z" />
    <glyph glyph-name="adieresis" unicode="&#xe4;" horiz-adv-x="1181" 
d="M369 1458h356l-63 -295h-357zM827 1458h355l-64 -295h-354zM688 1081q274 0 385 -101q113 -103 70 -306l-105 -484q-28 -132 2 -190h-378q-11 40 -7 98q-127 -123 -336 -123q-184 0 -280 96q-94 94 -59 257q30 142 142 215q109 71 345 92l172 14q72 6 103 23q30 16 40 55
q6 46 -21 70t-99 24q-86 0 -122 -23q-38 -25 -53 -89h-372q45 194 180 283q136 89 393 89zM475 217q88 0 156 50t86 149l12 61q-29 -31 -102 -41l-123 -12q-126 -12 -144 -105q-10 -46 21 -74t94 -28z" />
    <glyph glyph-name="aring" unicode="&#xe5;" horiz-adv-x="1181" 
d="M1018 1247q-100 -90 -240 -90q-141 0 -237 90q-99 89 -99 226t99 227q94 88 237 88q145 0 240 -88q96 -90 96 -227q0 -136 -96 -226zM862 1554q-33 33 -83 33t-83 -33q-32 -32 -32 -81q0 -50 32 -82q33 -33 82 -33q50 0 84 33q35 33 35 82q0 48 -35 81zM1143 674
l-105 -484q-28 -132 2 -190h-378q-11 40 -7 98q-127 -123 -336 -123q-184 0 -280 96q-94 94 -59 257q30 142 142 215q109 71 345 92l172 14q72 6 103 23q30 16 40 55q6 46 -21 70t-100 24q-85 0 -121 -23q-38 -25 -53 -89h-372q45 194 180 283q136 89 393 89q274 0 385 -101
q113 -103 70 -306zM475 217q88 0 156 50t86 149l12 61q-29 -31 -102 -41l-123 -12q-126 -12 -144 -105q-10 -46 21 -74t94 -28z" />
    <glyph glyph-name="ae" unicode="&#xe6;" horiz-adv-x="1875" 
d="M1364 1081q254 0 387 -159q129 -164 66 -435q-9 -37 -19 -67h-735q1 -83 49 -131q47 -47 129 -47q123 0 186 92h334q-63 -174 -206 -266q-145 -93 -347 -93q-253 0 -377 154q-210 -154 -469 -154q-205 0 -305 97q-99 96 -61 272q24 128 138 200q116 73 345 91l172 14
q76 6 108 25q29 18 40 63q8 42 -19 63t-98 21q-84 0 -125 -24q-40 -24 -57 -88h-373q45 193 185 282q141 90 409 90q227 0 328 -73q134 73 315 73zM1339 815q-164 0 -233 -172h395q0 172 -162 172zM475 217q210 0 254 199l14 59v2q-31 -31 -104 -41l-123 -12
q-131 -12 -143 -100q-8 -50 20 -78q29 -29 82 -29z" />
    <glyph glyph-name="ccedilla" unicode="&#xe7;" horiz-adv-x="1169" 
d="M639 780q-88 0 -142 -57t-81 -184q-51 -260 135 -260q154 0 203 155h370q-46 -199 -175 -316q-127 -115 -326 -136l-101 -97q10 2 37 2q105 0 158 -53t35 -133q-16 -79 -105 -126q-88 -46 -231 -46q-109 0 -183 14l27 123q43 -8 133 -8q102 0 119 68q8 38 -18 58
q-27 21 -84 21q-28 0 -48 -2l17 78l96 96q-257 17 -372 180q-116 164 -56 435q45 216 211 352q164 137 426 137q236 0 365 -116q128 -121 110 -320h-377q-4 135 -143 135z" />
    <glyph glyph-name="egrave" unicode="&#xe8;" horiz-adv-x="1218" 
d="M825 1460l58 -295h-283l-143 295h368zM684 1081q268 0 403 -159q133 -162 72 -435q-7 -40 -18 -67h-774q1 -85 52 -132q49 -46 136 -46q129 0 195 92h352q-66 -175 -216 -266q-152 -93 -366 -93q-270 0 -401 162q-131 160 -74 443q51 239 219 370q169 131 420 131z
M657 815q-174 0 -243 -172h413q2 85 -43 128q-46 44 -127 44z" />
    <glyph glyph-name="eacute" unicode="&#xe9;" horiz-adv-x="1218" 
d="M727 1460h369l-267 -295h-282zM684 1081q268 0 403 -159q133 -162 72 -435q-7 -40 -18 -67h-774q1 -85 52 -132q49 -46 136 -46q129 0 195 92h352q-66 -175 -216 -266q-152 -93 -366 -93q-270 0 -401 162q-131 160 -74 443q51 239 219 370q169 131 420 131zM657 815
q-174 0 -243 -172h413q2 85 -43 128q-46 44 -127 44z" />
    <glyph glyph-name="ecircumflex" unicode="&#xea;" horiz-adv-x="1218" 
d="M819 1165l-86 119l-139 -119h-332l309 295h392l184 -295h-328zM684 1081q268 0 403 -159q133 -162 72 -435q-7 -40 -18 -67h-774q1 -85 52 -132q49 -46 136 -46q129 0 195 92h352q-66 -175 -216 -266q-152 -93 -366 -93q-270 0 -401 162q-131 160 -74 443q51 239 219 370
q169 131 420 131zM657 815q-174 0 -243 -172h413q2 85 -43 128q-46 44 -127 44z" />
    <glyph glyph-name="edieresis" unicode="&#xeb;" horiz-adv-x="1218" 
d="M358 1460h357l-64 -295h-356zM817 1460h354l-63 -295h-354zM684 1081q268 0 403 -159q133 -162 72 -435q-7 -40 -18 -67h-774q1 -85 52 -132q49 -46 136 -46q129 0 195 92h352q-66 -175 -216 -266q-152 -93 -366 -93q-270 0 -401 162q-131 160 -74 443q51 239 219 370
q169 131 420 131zM657 815q-174 0 -243 -172h413q2 85 -43 128q-46 44 -127 44z" />
    <glyph glyph-name="igrave" unicode="&#xec;" horiz-adv-x="540" 
d="M549 1163h-262l-201 295h363zM346 0h-377l226 1057h376z" />
    <glyph glyph-name="iacute" unicode="&#xed;" horiz-adv-x="540" 
d="M494 1163h-263l162 295h363zM346 0h-377l226 1057h376z" />
    <glyph glyph-name="icircumflex" unicode="&#xee;" horiz-adv-x="540" 
d="M487 1163l-53 115l-108 -115h-308l267 295h370l142 -295h-310zM346 0h-377l226 1057h376z" />
    <glyph glyph-name="idieresis" unicode="&#xef;" horiz-adv-x="540" 
d="M354 1163h-313l63 295h314zM768 1163h-313l63 295h313zM346 0h-377l226 1057h376z" />
    <glyph glyph-name="eth" unicode="&#xf0;" horiz-adv-x="1200" 
d="M911 1382l326 86l-41 -194l-178 -47q209 -362 127 -754q-50 -231 -215 -364q-167 -134 -408 -134q-258 0 -395 150q-139 149 -82 422q44 199 209 323q164 125 403 125q69 0 142 -18q-29 75 -94 168l-361 -96l41 194l203 53l-127 162h393zM764 461q57 239 -148 239
q-160 0 -200 -188q-50 -242 149 -242q83 0 129 46q48 48 70 145z" />
    <glyph glyph-name="ntilde" unicode="&#xf1;" horiz-adv-x="1226" 
d="M621 1229q-54 0 -72 -66h-217q30 143 112 219t185 76q80 0 170 -37q72 -28 112 -28q54 0 72 65h217q-28 -143 -110 -219t-187 -76q-73 0 -166 37q-78 29 -116 29zM893 1081q175 0 248 -124q73 -123 20 -363l-129 -594h-377l125 586q18 84 -11 129q-30 47 -101 47
q-75 0 -127 -44q-52 -45 -70 -132l-125 -586h-377l226 1057h368l-28 -139q153 163 358 163z" />
    <glyph glyph-name="ograve" unicode="&#xf2;" horiz-adv-x="1220" 
d="M895 1163h-283l-143 295h369zM528 -25q-282 0 -411 165q-129 166 -68 452q45 220 217 356q168 135 426 135q286 0 412 -162q127 -162 65 -456q-45 -217 -217 -352q-171 -138 -424 -138zM436 340q40 -70 127 -70q83 0 150 62q62 62 86 184q27 127 -12 200q-37 70 -130 70
q-89 0 -148 -62q-60 -63 -87 -185q-29 -131 14 -199z" />
    <glyph glyph-name="oacute" unicode="&#xf3;" horiz-adv-x="1220" 
d="M842 1163h-283l180 295h369zM528 -25q-282 0 -411 165q-129 166 -68 452q45 220 217 356q168 135 426 135q286 0 412 -162q127 -162 65 -456q-45 -217 -217 -352q-171 -138 -424 -138zM436 340q40 -70 127 -70q83 0 150 62q62 62 86 184q27 127 -12 200q-37 70 -130 70
q-89 0 -148 -62q-60 -63 -87 -185q-29 -131 14 -199z" />
    <glyph glyph-name="ocircumflex" unicode="&#xf4;" horiz-adv-x="1220" 
d="M831 1163l-86 119l-139 -119h-332l310 295h391l184 -295h-328zM692 1083q286 0 412 -162q127 -162 65 -456q-45 -217 -217 -352q-171 -138 -424 -138q-282 0 -411 165q-129 166 -68 452q45 220 217 356q168 135 426 135zM799 516q27 127 -12 200q-37 70 -130 70
q-89 0 -148 -62q-60 -63 -87 -185q-29 -125 12 -197q40 -72 129 -72t150 63q62 64 86 183z" />
    <glyph glyph-name="otilde" unicode="&#xf5;" horiz-adv-x="1220" 
d="M528 1163h-217q29 142 113 219q82 76 184 76q80 0 170 -37q72 -28 113 -28q54 0 72 65h217q-28 -142 -111 -219q-82 -76 -186 -76q-73 0 -166 37q-78 29 -117 29q-54 0 -72 -66zM528 -25q-282 0 -411 165q-129 166 -68 452q45 220 217 356q168 135 426 135
q286 0 412 -162q127 -162 65 -456q-45 -217 -217 -352q-171 -138 -424 -138zM436 340q40 -70 127 -70q83 0 150 62q62 62 86 184q27 127 -12 200q-37 70 -130 70q-89 0 -148 -62q-60 -63 -87 -185q-29 -131 14 -199z" />
    <glyph glyph-name="odieresis" unicode="&#xf6;" horiz-adv-x="1220" 
d="M664 1163h-357l64 295h356zM1120 1163h-354l63 295h355zM528 -25q-282 0 -411 165q-129 166 -68 452q45 220 217 356q168 135 426 135q286 0 412 -162q127 -162 65 -456q-45 -217 -217 -352q-171 -138 -424 -138zM436 340q40 -70 127 -70q83 0 150 62q62 62 86 184
q27 127 -12 200q-37 70 -130 70q-89 0 -148 -62q-60 -63 -87 -185q-29 -131 14 -199z" />
    <glyph glyph-name="divide" unicode="&#xf7;" horiz-adv-x="1079" 
d="M758 989h-338v283h338v-283zM1071 573h-977v314h977v-314zM750 188h-338v283h338v-283z" />
    <glyph glyph-name="oslash" unicode="&#xf8;" horiz-adv-x="1220" 
d="M1176 1032l-86 -96q145 -163 79 -471q-45 -217 -217 -352q-171 -138 -424 -138q-140 0 -256 48l-98 -109l-123 109l84 94q-153 168 -86 475q45 220 217 356q168 135 426 135q154 0 264 -49l97 107zM406 539q-17 -84 -11 -131l346 385q-38 16 -79 16q-196 0 -256 -270z
M815 514q16 78 10 129l-340 -381q27 -14 74 -14q95 0 161 67q66 68 95 199z" />
    <glyph glyph-name="ugrave" unicode="&#xf9;" horiz-adv-x="1226" 
d="M860 1458l58 -295h-283l-143 295h368zM756 471l125 586h376l-225 -1057h-368l28 139q-153 -164 -358 -164q-175 0 -248 124q-73 123 -20 364l129 594h376l-125 -586q-18 -83 12 -129q30 -47 101 -47q75 0 127 44q52 45 70 132z" />
    <glyph glyph-name="uacute" unicode="&#xfa;" horiz-adv-x="1226" 
d="M762 1458h368l-266 -295h-282zM756 471l125 586h376l-225 -1057h-368l28 139q-153 -164 -358 -164q-175 0 -248 124q-73 123 -20 364l129 594h376l-125 -586q-18 -83 12 -129q30 -47 101 -47q75 0 127 44q52 45 70 132z" />
    <glyph glyph-name="ucircumflex" unicode="&#xfb;" horiz-adv-x="1226" 
d="M854 1163l-86 119l-139 -119h-332l309 295h391l185 -295h-328zM756 471l125 586h376l-225 -1057h-368l28 139q-153 -164 -358 -164q-175 0 -248 124q-73 123 -20 364l129 594h376l-125 -586q-18 -83 12 -129q30 -47 101 -47q75 0 127 44q52 45 70 132z" />
    <glyph glyph-name="udieresis" unicode="&#xfc;" horiz-adv-x="1226" 
d="M393 1458h357l-64 -295h-356zM852 1458h354l-63 -295h-355zM756 471l125 586h376l-225 -1057h-368l28 139q-153 -164 -358 -164q-175 0 -248 124q-73 123 -20 364l129 594h376l-125 -586q-18 -83 12 -129q30 -47 101 -47q75 0 127 44q52 45 70 132z" />
    <glyph glyph-name="yacute" unicode="&#xfd;" horiz-adv-x="1183" 
d="M854 1163h-283l181 295h368zM883 1012l22 45h393l-587 -1057q-91 -161 -170 -246q-75 -81 -195 -121q-117 -39 -313 -39q-41 0 -133 5l61 286h105q143 0 172 115q14 56 -9 229l-114 828h395l2 -43q34 -616 35 -731q169 399 336 729z" />
    <glyph glyph-name="thorn" unicode="&#xfe;" horiz-adv-x="1218" 
d="M815 1081q211 0 313 -163q101 -164 41 -443q-49 -223 -186 -360q-140 -140 -342 -140q-186 0 -270 123l-107 -499h-379l398 1859h379l-101 -465q107 88 254 88zM801 528q51 258 -139 258q-170 0 -232 -258t139 -258q177 0 232 258z" />
    <glyph glyph-name="ydieresis" unicode="&#xff;" horiz-adv-x="1183" 
d="M676 1163h-357l64 295h356zM1133 1163h-355l64 295h354zM883 1012l22 45h393l-587 -1057q-91 -161 -170 -246q-75 -81 -195 -121q-117 -39 -313 -39q-41 0 -133 5l61 286h105q143 0 172 115q14 56 -9 229l-114 828h395l2 -43q34 -616 35 -731q169 399 336 729z" />
    <glyph glyph-name="Amacron" unicode="&#x100;" horiz-adv-x="1525" 
d="M657 1782h727l-51 -236h-727zM1425 0h-424l-20 190h-571l-101 -190h-430l828 1458h491zM768 864l-178 -336h352l-37 336q-1 12 -20 230q-75 -152 -117 -230z" />
    <glyph glyph-name="amacron" unicode="&#x101;" horiz-adv-x="1181" 
d="M399 1399h727l-51 -236h-727zM1143 674l-105 -484q-28 -132 2 -190h-378q-11 40 -7 98q-127 -123 -336 -123q-184 0 -280 96q-94 94 -59 257q30 142 142 215q109 71 345 92l172 14q72 6 103 23q30 16 40 55q6 46 -21 70t-99 24q-86 0 -122 -23q-38 -25 -53 -89h-372
q45 194 180 283q136 89 393 89q274 0 385 -101q113 -103 70 -306zM475 217q88 0 156 50t86 149l12 61q-29 -31 -102 -41l-123 -12q-126 -12 -144 -105q-10 -46 21 -74t94 -28z" />
    <glyph glyph-name="Abreve" unicode="&#x102;" horiz-adv-x="1525" 
d="M999 1536q-158 0 -249 80q-92 81 -99 225h264q10 -96 107 -96q84 0 131 96h264q-47 -146 -157 -225q-112 -80 -261 -80zM1425 0h-424l-20 190h-571l-101 -190h-430l828 1458h491zM768 864l-178 -336h352l-37 336q-1 12 -20 230q-75 -152 -117 -230z" />
    <glyph glyph-name="abreve" unicode="&#x103;" horiz-adv-x="1181" 
d="M743 1153q-158 0 -249 80q-92 81 -99 225h264q11 -96 107 -96q84 0 131 96h264q-47 -146 -157 -225q-112 -80 -261 -80zM688 1081q274 0 385 -101q113 -103 70 -306l-105 -484q-28 -132 2 -190h-378q-11 40 -7 98q-127 -123 -336 -123q-184 0 -280 96q-94 94 -59 257
q30 142 142 215q109 71 345 92l172 14q72 6 103 23q30 16 40 55q6 46 -21 70t-99 24q-86 0 -122 -23q-38 -25 -53 -89h-372q45 194 180 283q136 89 393 89zM475 217q88 0 156 50t86 149l12 61q-29 -31 -102 -41l-123 -12q-126 -12 -144 -105q-10 -46 21 -74t94 -28z" />
    <glyph glyph-name="Aogonek" unicode="&#x104;" horiz-adv-x="1525" 
d="M1196 -162q-8 -40 18 -58q28 -20 70 -20q38 0 92 13l-39 -183q-67 -16 -168 -16q-132 0 -200 65q-67 64 -49 160q16 67 79 117q68 54 175 84h-173l-20 190h-571l-101 -190h-430l828 1458h491l227 -1458q-214 -85 -229 -162zM768 864l-178 -336h352l-37 336q-1 12 -20 230
q-75 -152 -117 -230z" />
    <glyph glyph-name="aogonek" unicode="&#x105;" horiz-adv-x="1181" 
d="M1143 674l-105 -484q-28 -132 2 -190q-214 -85 -229 -162q-8 -40 18 -58q28 -20 70 -20q38 0 92 13l-39 -183q-67 -16 -168 -16q-78 -2 -138 24q-61 26 -88 69q-28 44 -29 96q-1 51 41 109q41 55 120 101q-26 62 -28 131q-124 -129 -343 -129q-186 0 -282 96
q-95 95 -57 257q30 143 142 216q113 73 345 91l172 14q72 6 103 23q30 16 40 55q8 47 -20 70q-28 24 -100 24q-86 0 -122 -23q-38 -25 -53 -89h-372q45 194 180 283q136 89 393 89q273 0 386 -101q114 -102 69 -306zM475 217q88 0 156 50t86 149l12 61q-29 -31 -102 -41
l-123 -12q-126 -12 -144 -105q-10 -46 21 -74t94 -28z" />
    <glyph glyph-name="Cacute" unicode="&#x106;" horiz-adv-x="1546" 
d="M1137 1579h-310l236 295h403zM694 -33q-354 0 -516 215q-164 218 -82 602q68 314 299 512q231 195 568 195q282 0 458 -152q172 -152 164 -424h-411q-6 108 -73 167t-179 59q-147 0 -256 -107q-109 -108 -148 -286q-92 -431 230 -431q122 0 218 67q95 66 144 187h410
q-90 -295 -301 -449q-212 -155 -525 -155z" />
    <glyph glyph-name="cacute" unicode="&#x107;" horiz-adv-x="1169" 
d="M834 1163h-283l180 295h369zM528 -25q-281 0 -411 163q-131 164 -70 454q45 216 211 352q164 137 426 137q236 0 365 -116q128 -121 110 -320h-377q-4 135 -143 135q-88 0 -142 -57t-81 -184q-51 -260 135 -260q154 0 203 155h370q-51 -222 -204 -341
q-152 -118 -392 -118z" />
    <glyph glyph-name="Ccircumflex" unicode="&#x108;" horiz-adv-x="1546" 
d="M1143 1579l-86 119l-139 -119h-332l309 295h391l184 -295h-327zM922 1141q-147 0 -256 -107q-109 -108 -148 -286q-92 -431 230 -431q122 0 218 67q95 66 144 187h410q-90 -295 -301 -449q-212 -155 -525 -155q-354 0 -516 215q-164 218 -82 602q68 314 299 512
q231 195 568 195q282 0 458 -152q172 -152 164 -424h-411q-6 108 -73 167t-179 59z" />
    <glyph glyph-name="ccircumflex" unicode="&#x109;" horiz-adv-x="1169" 
d="M823 1163l-86 119l-139 -119h-332l309 295h392l184 -295h-328zM639 780q-88 0 -142 -57t-81 -184q-51 -260 135 -260q154 0 203 155h370q-51 -222 -204 -341q-152 -118 -392 -118q-281 0 -411 163q-131 164 -70 454q45 216 211 352q164 137 426 137q236 0 365 -116
q128 -121 110 -320h-377q-4 135 -143 135z" />
    <glyph glyph-name="Cdotaccent" unicode="&#x10a;" horiz-adv-x="1546" 
d="M1204 1579h-354l61 295h355zM694 -33q-354 0 -516 215q-164 218 -82 602q68 314 299 512q231 195 568 195q282 0 458 -152q172 -152 164 -424h-411q-6 108 -73 167t-179 59q-147 0 -256 -107q-109 -108 -148 -286q-92 -431 230 -431q122 0 218 67q95 66 144 187h410
q-90 -295 -301 -449q-212 -155 -525 -155z" />
    <glyph glyph-name="cdotaccent" unicode="&#x10b;" horiz-adv-x="1169" 
d="M885 1163h-357l62 295h356zM528 -25q-281 0 -411 163q-131 164 -70 454q45 216 211 352q164 137 426 137q236 0 365 -116q128 -121 110 -320h-377q-4 135 -143 135q-88 0 -142 -57t-81 -184q-51 -260 135 -260q154 0 203 155h370q-51 -222 -204 -341q-152 -118 -392 -118
z" />
    <glyph glyph-name="Ccaron" unicode="&#x10c;" horiz-adv-x="1546" 
d="M1530 1874l-307 -295h-392l-186 295h330l86 -119l139 119h330zM922 1141q-147 0 -256 -107q-109 -108 -148 -286q-92 -431 230 -431q122 0 218 67q95 66 144 187h410q-90 -295 -301 -449q-212 -155 -525 -155q-354 0 -516 215q-164 218 -82 602q68 314 299 512
q231 195 568 195q282 0 458 -152q172 -152 164 -424h-411q-6 108 -73 167t-179 59z" />
    <glyph glyph-name="ccaron" unicode="&#x10d;" horiz-adv-x="1169" 
d="M1219 1458l-308 -295h-393l-184 295h330l86 -119l139 119h330zM684 1081q236 0 365 -116q128 -121 110 -320h-377q-4 135 -143 135q-88 0 -142 -57t-81 -184q-51 -260 135 -260q154 0 203 155h370q-51 -222 -204 -341q-152 -118 -392 -118q-281 0 -411 163
q-131 164 -70 454q45 216 211 352q164 137 426 137z" />
    <glyph glyph-name="Dcaron" unicode="&#x10e;" horiz-adv-x="1536" 
d="M1389 1841l-308 -295h-391l-186 295h330l86 -119l139 119h330zM301 1458h606q361 0 527 -217q164 -219 90 -567q-72 -334 -273 -502q-206 -172 -602 -172h-657zM1114 711q41 199 -28 301t-228 102h-221l-162 -770h219q342 0 420 367z" />
    <glyph glyph-name="dcaron" unicode="&#x10f;" horiz-adv-x="1613" 
d="M846 958l106 500h377l-311 -1458h-367l17 74q-111 -99 -267 -99q-209 0 -311 166q-103 165 -43 441q49 220 189 360q139 139 339 139q187 0 271 -123zM1354 1118l119 340h348l-207 -340h-260zM416 528q-51 -258 139 -258q169 0 231 258t-139 258q-175 0 -231 -258z" />
    <glyph glyph-name="Dcroat" unicode="&#x110;" horiz-adv-x="1583" 
d="M348 1458h606q361 0 527 -217q163 -219 90 -567q-72 -334 -273 -502q-205 -172 -602 -172h-657l137 645h-199l48 195h192zM1161 711q41 200 -27 301q-69 102 -229 102h-221l-57 -274h237l-45 -195h-233l-64 -301h219q342 0 420 367z" />
    <glyph glyph-name="dslash" unicode="&#x111;" horiz-adv-x="1310" 
d="M1309 1366h180l-41 -195h-180l-250 -1171h-367l17 74q-111 -99 -267 -99q-209 0 -311 166q-103 165 -43 441q49 220 189 360q139 139 339 139q187 0 271 -123l45 213h-189l41 195h189l20 92h377zM416 528q-51 -258 139 -258q169 0 231 258t-139 258q-175 0 -231 -258z
" />
    <glyph glyph-name="Emacron" unicode="&#x112;" horiz-adv-x="1304" 
d="M563 1782h727l-51 -236h-727zM1452 1458l-78 -364h-741l-41 -193h676l-72 -340h-678l-41 -196h742l-78 -365h-1151l311 1458h1151z" />
    <glyph glyph-name="emacron" unicode="&#x113;" horiz-adv-x="1218" 
d="M389 1401h727l-51 -236h-727zM684 1081q268 0 403 -159q133 -162 72 -435q-7 -40 -18 -67h-774q1 -85 52 -132q49 -46 136 -46q129 0 195 92h352q-66 -175 -216 -266q-152 -93 -366 -93q-270 0 -401 162q-131 160 -74 443q51 239 219 370q169 131 420 131zM657 815
q-174 0 -243 -172h413q2 85 -43 128q-46 44 -127 44z" />
    <glyph glyph-name="Ebreve" unicode="&#x114;" horiz-adv-x="1304" 
d="M905 1536q-159 0 -250 80t-98 225h264q11 -96 107 -96q85 0 131 96h264q-46 -145 -158 -225t-260 -80zM1452 1458l-78 -364h-741l-41 -193h676l-72 -340h-678l-41 -196h742l-78 -365h-1151l311 1458h1151z" />
    <glyph glyph-name="ebreve" unicode="&#x115;" horiz-adv-x="1218" 
d="M733 1155q-159 0 -250 80t-98 225h264q11 -96 107 -96q84 0 131 96h264q-46 -145 -158 -225t-260 -80zM684 1081q268 0 403 -159q133 -162 72 -435q-7 -40 -18 -67h-774q1 -85 52 -132q49 -46 136 -46q129 0 195 92h352q-66 -175 -216 -266q-152 -93 -366 -93
q-270 0 -401 162q-131 160 -74 443q51 239 219 370q169 131 420 131zM657 815q-174 0 -243 -172h413q2 85 -43 128q-46 44 -127 44z" />
    <glyph glyph-name="Edotaccent" unicode="&#x116;" horiz-adv-x="1304" 
d="M762 1841h354l-61 -295h-355zM1452 1458l-78 -364h-741l-41 -193h676l-72 -340h-678l-41 -196h742l-78 -365h-1151l311 1458h1151z" />
    <glyph glyph-name="edotaccent" unicode="&#x117;" horiz-adv-x="1218" 
d="M586 1460h356l-61 -295h-357zM684 1081q268 0 403 -159q133 -162 72 -435q-7 -40 -18 -67h-774q1 -85 52 -132q49 -46 136 -46q129 0 195 92h352q-66 -175 -216 -266q-152 -93 -366 -93q-270 0 -401 162q-131 160 -74 443q51 239 219 370q169 131 420 131zM657 815
q-174 0 -243 -172h413q2 85 -43 128q-46 44 -127 44z" />
    <glyph glyph-name="Eogonek" unicode="&#x118;" horiz-adv-x="1304" 
d="M1452 1458l-78 -364h-741l-41 -193h676l-72 -340h-678l-41 -196h742l-78 -365h-43q-215 -86 -230 -162q-7 -39 19 -58q28 -20 69 -20q39 0 93 13l-39 -183q-67 -16 -168 -16q-133 0 -201 65q-67 64 -49 160q16 66 80 117q69 55 174 84h-856l311 1458h1151z" />
    <glyph glyph-name="eogonek" unicode="&#x119;" horiz-adv-x="1218" 
d="M684 1081q268 0 403 -159q133 -162 72 -435q-7 -40 -18 -67h-774q1 -85 52 -132q49 -46 136 -46q129 0 195 92h352q-100 -264 -387 -336q-208 -84 -223 -160q-8 -40 18 -58q28 -20 70 -20q38 0 92 13l-39 -183q-67 -16 -168 -16q-133 0 -201 65q-67 64 -49 160
q27 120 199 183q-222 30 -322 189q-100 158 -47 409q51 239 219 370q169 131 420 131zM657 815q-174 0 -243 -172h413q2 85 -43 128q-46 44 -127 44z" />
    <glyph glyph-name="Ecaron" unicode="&#x11a;" horiz-adv-x="1304" 
d="M1380 1841l-307 -295h-391l-186 295h329l86 -119l140 119h329zM1452 1458l-78 -364h-741l-41 -193h676l-72 -340h-678l-41 -196h742l-78 -365h-1151l311 1458h1151z" />
    <glyph glyph-name="ecaron" unicode="&#x11b;" horiz-adv-x="1218" 
d="M1214 1460l-307 -295h-393l-184 295h329l86 -119l140 119h329zM684 1081q268 0 403 -159q133 -162 72 -435q-7 -40 -18 -67h-774q1 -85 52 -132q49 -46 136 -46q129 0 195 92h352q-66 -175 -216 -266q-152 -93 -366 -93q-270 0 -401 162q-131 160 -74 443q51 239 219 370
q169 131 420 131zM657 815q-174 0 -243 -172h413q2 85 -43 128q-46 44 -127 44z" />
    <glyph glyph-name="Gcircumflex" unicode="&#x11c;" horiz-adv-x="1615" 
d="M1094 1579l-86 119l-140 -119h-331l309 295h391l184 -295h-327zM907 1141q-145 0 -251 -106q-105 -105 -144 -285q-45 -208 19 -320q65 -113 225 -113q120 0 215 56q94 55 139 151h-270l67 312h690l-178 -836h-278v182q-84 -100 -211 -158q-124 -57 -266 -57
q-344 0 -502 215q-158 214 -74 600q69 322 299 518q224 191 571 191q306 0 476 -141q169 -141 163 -389h-415q-33 180 -275 180z" />
    <glyph glyph-name="gcircumflex" unicode="&#x11d;" horiz-adv-x="1218" 
d="M881 1163l-86 119l-140 -119h-331l309 295h391l184 -295h-327zM852 924l29 133h368l-221 -1037q-49 -232 -180 -339t-410 -107q-267 0 -389 107q-120 105 -108 299h385q2 -130 143 -130q79 0 125 51q45 50 68 165l12 65q-96 -90 -246 -90q-224 0 -326 158
q-104 156 -47 422q45 217 178 338q134 122 332 122q209 0 287 -157zM428 571q-24 -116 14 -175q39 -60 133 -60q173 0 220 225t-146 225q-174 0 -221 -215z" />
    <glyph glyph-name="Gbreve" unicode="&#x11e;" horiz-adv-x="1615" 
d="M1006 1569q-159 0 -250 80q-92 81 -99 225h265q10 -96 106 -96q84 0 131 96h264q-47 -146 -157 -225q-112 -80 -260 -80zM907 1141q-145 0 -251 -106q-105 -105 -144 -285q-45 -208 19 -320q65 -113 225 -113q120 0 215 56q94 55 139 151h-270l67 312h690l-178 -836h-278
v182q-84 -100 -211 -158q-124 -57 -266 -57q-344 0 -502 215q-158 214 -74 600q69 322 299 518q224 191 571 191q306 0 476 -141q169 -141 163 -389h-415q-33 180 -275 180z" />
    <glyph glyph-name="gbreve" unicode="&#x11f;" horiz-adv-x="1218" 
d="M795 1153q-159 0 -250 80q-92 81 -99 225h265q11 -96 106 -96q85 0 131 96h264q-47 -146 -157 -225q-112 -80 -260 -80zM852 924l29 133h368l-221 -1037q-49 -232 -180 -339t-410 -107q-267 0 -389 107q-120 105 -108 299h385q2 -130 143 -130q79 0 125 51q45 50 68 165
l12 65q-96 -90 -246 -90q-224 0 -326 158q-104 156 -47 422q45 217 178 338q134 122 332 122q209 0 287 -157zM428 571q-24 -116 14 -175q39 -60 133 -60q173 0 220 225t-146 225q-174 0 -221 -215z" />
    <glyph glyph-name="Gdotaccent" unicode="&#x120;" horiz-adv-x="1615" 
d="M862 1874h355l-62 -295h-354zM907 1141q-145 0 -251 -106q-105 -105 -144 -285q-45 -208 19 -320q65 -113 225 -113q120 0 215 56q94 55 139 151h-270l67 312h690l-178 -836h-278v182q-84 -100 -211 -158q-124 -57 -266 -57q-344 0 -502 215q-158 214 -74 600
q69 322 299 518q224 191 571 191q306 0 476 -141q169 -141 163 -389h-415q-33 180 -275 180z" />
    <glyph glyph-name="gdotaccent" unicode="&#x121;" horiz-adv-x="1218" 
d="M647 1458h357l-62 -295h-356zM852 924l29 133h368l-221 -1037q-49 -232 -180 -339t-410 -107q-267 0 -389 107q-120 105 -108 299h385q2 -130 143 -130q79 0 125 51q45 50 68 165l12 65q-96 -90 -246 -90q-224 0 -326 158q-104 156 -47 422q45 217 178 338
q134 122 332 122q209 0 287 -157zM428 571q-24 -116 14 -175q39 -60 133 -60q173 0 220 225t-146 225q-174 0 -221 -215z" />
    <glyph glyph-name="uni0122" unicode="&#x122;" horiz-adv-x="1615" 
d="M907 1141q-145 0 -251 -106q-105 -105 -144 -285q-45 -208 19 -320q65 -113 225 -113q120 0 215 56q94 55 139 151h-270l67 312h690l-178 -836h-278v182q-84 -100 -211 -158q-124 -57 -266 -57q-344 0 -502 215q-158 214 -74 600q69 322 299 518q224 191 571 191
q306 0 476 -141q169 -141 163 -389h-415q-33 180 -275 180zM623 -365h-129l51 244h309l-53 -250q-43 -198 -297 -198h-55l24 116h55q76 0 93 78z" />
    <glyph glyph-name="uni0123" unicode="&#x123;" horiz-adv-x="1218" 
d="M819 1407h129l-51 -244h-309l53 250q44 199 297 199h55l-24 -117h-56q-75 0 -92 -78zM852 924l29 133h368l-221 -1037q-49 -232 -180 -339t-410 -107q-267 0 -389 107q-120 105 -108 299h385q2 -130 143 -130q79 0 125 51q45 50 68 165l12 65q-96 -90 -246 -90
q-224 0 -326 158q-104 156 -47 422q45 217 178 338q134 122 332 122q209 0 287 -157zM428 571q-24 -116 14 -175q39 -60 133 -60q173 0 220 225t-146 225q-174 0 -221 -215z" />
    <glyph glyph-name="Hcircumflex" unicode="&#x124;" horiz-adv-x="1525" 
d="M1096 1546l-86 119l-140 -119h-331l309 295h391l184 -295h-327zM1098 926l114 532h410l-311 -1458h-410l119 561h-502l-119 -561h-409l311 1458h410l-115 -532h502z" />
    <glyph glyph-name="hcircumflex" unicode="&#x125;" horiz-adv-x="1226" 
d="M567 1546l-53 115l-108 -115h-308l267 295h370l142 -295h-310zM893 1081q175 0 248 -124q73 -123 20 -363l-129 -594h-377l125 586q18 84 -11 129q-30 47 -101 47q-144 0 -189 -148l-131 -614h-377l310 1458h376l-112 -528q151 151 348 151z" />
    <glyph glyph-name="Hbar" unicode="&#x126;" horiz-adv-x="1628" 
d="M1632 1274h150l-37 -195h-154l-231 -1079h-410l119 561h-502l-118 -561h-410l231 1079h-151l39 195h153l39 184h410l-39 -184h502l39 184h409zM645 926h502l35 153h-502z" />
    <glyph glyph-name="hbar" unicode="&#x127;" horiz-adv-x="1294" 
d="M961 1081q174 0 247 -124t21 -363l-129 -594h-377l125 586q18 84 -11 129q-30 47 -102 47q-141 0 -188 -148l-131 -614h-377l248 1171h-172l41 195h172l20 92h377l-20 -92h196l-41 -195h-196l-52 -241q151 151 349 151z" />
    <glyph glyph-name="Itilde" unicode="&#x128;" horiz-adv-x="614" 
d="M381 1546h-170q29 140 97 219q66 76 149 76q53 0 121 -33q64 -32 94 -32q41 0 59 65h168q-28 -141 -95 -219q-66 -76 -149 -76q-48 0 -114 33q-68 33 -101 33q-41 0 -59 -66zM399 0h-409l311 1458h410z" />
    <glyph glyph-name="itilde" unicode="&#x129;" horiz-adv-x="540" 
d="M260 1163h-168q30 143 97 220q66 75 149 75q54 0 121 -33q64 -32 94 -32q41 0 59 65h168q-28 -141 -95 -219q-66 -76 -148 -76q-49 0 -115 33q-67 33 -100 33q-44 0 -62 -66zM346 0h-377l226 1057h376z" />
    <glyph glyph-name="Imacron" unicode="&#x12a;" horiz-adv-x="614" 
d="M836 1546h-625l51 236h625zM399 0h-409l311 1458h410z" />
    <glyph glyph-name="imacron" unicode="&#x12b;" horiz-adv-x="540" 
d="M717 1163h-625l51 236h625zM346 0h-377l226 1057h376z" />
    <glyph glyph-name="Ibreve" unicode="&#x12c;" horiz-adv-x="614" 
d="M543 1536q-142 0 -221 82q-80 83 -70 223h237q-5 -96 78 -96q85 0 113 96h244q-46 -145 -147 -226q-98 -79 -234 -79zM399 0h-409l311 1458h410z" />
    <glyph glyph-name="ibreve" unicode="&#x12d;" horiz-adv-x="540" 
d="M391 1153q-142 0 -221 82q-80 83 -70 223h238q-4 -96 78 -96q84 0 112 96h244q-46 -146 -146 -226q-98 -79 -235 -79zM346 0h-377l226 1057h376z" />
    <glyph glyph-name="Iogonek" unicode="&#x12e;" horiz-adv-x="614" 
d="M711 1458l-312 -1458q-191 -83 -209 -170q-6 -39 15 -54q22 -16 61 -16q37 0 84 13l-39 -183q-60 -16 -135 -16q-131 0 -191 54t-42 149q12 67 71 126q59 60 160 97h-184l311 1458h410z" />
    <glyph glyph-name="iogonek" unicode="&#x12f;" horiz-adv-x="540" 
d="M229 1163l62 295h354l-61 -295h-355zM121 0h-152l226 1057h376l-225 -1057q-191 -83 -209 -170q-6 -39 15 -54q22 -16 61 -16q37 0 84 13l-39 -183q-60 -16 -135 -16q-132 0 -192 54t-42 149q12 66 72 126q59 60 160 97z" />
    <glyph glyph-name="Idot" unicode="&#x130;" horiz-adv-x="614" 
d="M702 1546h-354l62 295h354zM399 0h-409l311 1458h410z" />
    <glyph glyph-name="dotlessi" unicode="&#x131;" horiz-adv-x="540" 
d="M346 0h-377l226 1057h376z" />
    <glyph glyph-name="IJ" unicode="&#x132;" horiz-adv-x="1816" 
d="M399 0h-409l311 1458h410zM1112 -33q-272 0 -396 133t-73 373l12 59h392l-13 -59q-34 -166 117 -166q129 0 164 158l207 993h409l-215 -1018q-45 -224 -199 -348q-155 -125 -405 -125z" />
    <glyph glyph-name="ij" unicode="&#x133;" horiz-adv-x="1081" 
d="M584 1163h-355l62 295h354zM1124 1163h-354l61 295h355zM346 0h-377l226 1057h376zM492 -406q-107 0 -199 5l59 280h31q35 0 55 5q17 4 39 33q21 27 33 85l225 1055h377l-231 -1084q-43 -197 -139 -288t-250 -91z" />
    <glyph glyph-name="Jcircumflex" unicode="&#x134;" horiz-adv-x="1202" 
d="M1210 1546l-53 115l-108 -115h-308l267 295h370l142 -295h-310zM700 465l207 993h410l-215 -1018q-45 -223 -200 -348t-404 -125q-273 0 -397 133q-123 132 -72 373l12 59h391l-12 -59q-34 -166 117 -166q128 0 163 158z" />
    <glyph glyph-name="jcircumflex" unicode="&#x135;" horiz-adv-x="540" 
d="M487 1163l-53 115l-108 -115h-308l267 295h370l142 -295h-310zM-31 2l226 1055h376l-231 -1084q-44 -198 -138 -288q-96 -91 -251 -91q-107 0 -199 5l60 280h30q36 0 56 5q17 4 39 33q19 25 32 85z" />
    <glyph glyph-name="uni0136" unicode="&#x136;" horiz-adv-x="1529" 
d="M1233 1458h506l-695 -610l386 -848h-463l-254 590l-224 -174l-88 -416h-409l309 1458h410l-123 -575zM618 -332h-129l52 244h309l-53 -250q-44 -199 -297 -199h-56l25 117h55q76 0 92 78z" />
    <glyph glyph-name="uni0137" unicode="&#x137;" horiz-adv-x="1245" 
d="M920 1057h417l-481 -428l277 -629h-404l-156 416l-180 -152l-57 -264h-367l312 1458h366l-170 -794zM430 -332h-129l51 244h310l-54 -250q-44 -199 -297 -199h-55l25 117h55q76 0 92 78z" />
    <glyph glyph-name="kgreenlandic" unicode="&#x138;" horiz-adv-x="1245" 
d="M920 1057h417l-481 -428l277 -629h-404l-156 416l-180 -152l-57 -264h-367l226 1057h366l-84 -393z" />
    <glyph glyph-name="Lacute" unicode="&#x139;" horiz-adv-x="1177" 
d="M586 1841h403l-330 -295h-309zM711 1458l-234 -1093h645l-78 -365h-1054l311 1458h410z" />
    <glyph glyph-name="lacute" unicode="&#x13a;" horiz-adv-x="540" 
d="M600 1546h-262l162 295h362zM346 0h-377l312 1458h376z" />
    <glyph glyph-name="uni013B" unicode="&#x13b;" horiz-adv-x="1177" 
d="M711 1458l-234 -1093h645l-78 -365h-1054l311 1458h410zM455 -332h-129l51 244h309l-53 -250q-44 -199 -297 -199h-55l24 117h55q76 0 93 78z" />
    <glyph glyph-name="uni013C" unicode="&#x13c;" horiz-adv-x="540" 
d="M-31 0l312 1458h376l-311 -1458h-377zM61 -332h-129l52 244h309l-53 -250q-44 -199 -297 -199h-56l25 117h55q75 0 92 78z" />
    <glyph glyph-name="Lcaron" unicode="&#x13d;" horiz-adv-x="1177" 
d="M301 1458h410l-234 -1093h645l-78 -365h-1054zM885 1458h348l-207 -340h-260z" />
    <glyph glyph-name="lcaron" unicode="&#x13e;" horiz-adv-x="913" 
d="M346 0h-377l312 1458h376zM942 1118h-260l119 340h348z" />
    <glyph glyph-name="Ldot" unicode="&#x13f;" horiz-adv-x="1177" 
d="M301 1458h410l-234 -1093h645l-78 -365h-1054zM1196 979l-86 -406h-418l86 406h418z" />
    <glyph glyph-name="ldot" unicode="&#x140;" horiz-adv-x="1085" 
d="M346 0h-377l312 1458h376zM1016 522h-418l86 406h418z" />
    <glyph glyph-name="Lslash" unicode="&#x141;" horiz-adv-x="1224" 
d="M616 795l-92 -430h645l-77 -365h-1055l135 629l-233 -86l45 213l233 86l131 616h410l-96 -450l311 116l-45 -213z" />
    <glyph glyph-name="lslash" unicode="&#x142;" horiz-adv-x="675" 
d="M610 920l162 63l-45 -219l-164 -64l-149 -700h-377l115 541l-162 -64l45 219l164 64l149 698h377z" />
    <glyph glyph-name="Nacute" unicode="&#x143;" horiz-adv-x="1525" 
d="M1020 1841h403l-329 -295h-310zM1184 1221l51 237h389l-311 -1458h-424l-199 518q-94 239 -129 377q-55 -321 -129 -657l-51 -238h-389l311 1458h424l199 -518q95 -252 129 -379q57 325 129 660z" />
    <glyph glyph-name="nacute" unicode="&#x144;" horiz-adv-x="1226" 
d="M760 1458h368l-266 -295h-282zM893 1081q175 0 248 -124q73 -123 20 -363l-129 -594h-377l125 586q18 84 -11 129q-30 47 -101 47q-75 0 -127 -44q-52 -45 -70 -132l-125 -586h-377l226 1057h368l-28 -139q153 163 358 163z" />
    <glyph glyph-name="uni0145" unicode="&#x145;" horiz-adv-x="1525" 
d="M1184 1221l51 237h389l-311 -1458h-424l-199 518q-94 239 -129 377q-55 -321 -129 -657l-51 -238h-389l311 1458h424l199 -518q95 -252 129 -379q57 325 129 660zM569 -332h-129l52 244h309l-53 -250q-44 -199 -297 -199h-56l25 117h55q75 0 92 78z" />
    <glyph glyph-name="uni0146" unicode="&#x146;" horiz-adv-x="1226" 
d="M893 1081q175 0 248 -124q73 -123 20 -363l-129 -594h-377l125 586q18 84 -11 129q-30 47 -101 47q-75 0 -127 -44q-52 -45 -70 -132l-125 -586h-377l226 1057h368l-28 -139q153 163 358 163zM408 -332h-129l51 244h309l-53 -250q-44 -199 -297 -199h-56l25 117h55
q77 0 93 78z" />
    <glyph glyph-name="Ncaron" unicode="&#x147;" horiz-adv-x="1525" 
d="M1487 1841l-307 -295h-392l-186 295h330l86 -119l139 119h330zM1184 1221l51 237h389l-311 -1458h-424l-199 518q-94 239 -129 377q-55 -321 -129 -657l-51 -238h-389l311 1458h424l199 -518q95 -252 129 -379q57 325 129 660z" />
    <glyph glyph-name="ncaron" unicode="&#x148;" horiz-adv-x="1226" 
d="M1247 1458l-307 -295h-393l-185 295h330l86 -119l140 119h329zM893 1081q175 0 248 -124q73 -123 20 -363l-129 -594h-377l125 586q18 84 -11 129q-30 47 -101 47q-75 0 -127 -44q-52 -45 -70 -132l-125 -586h-377l226 1057h368l-28 -139q153 163 358 163z" />
    <glyph glyph-name="napostrophe" unicode="&#x149;" horiz-adv-x="1669" 
d="M641 1458l-80 -377q-39 -182 -141 -256q-101 -73 -307 -73l37 182q104 0 139 27q34 24 55 124v5h-162l78 368h381zM1335 1081q175 0 248 -124t21 -363l-129 -594h-377l125 586q18 82 -12 129t-101 47q-75 0 -127 -44q-52 -45 -70 -132l-125 -586h-376l225 1057h369
l-29 -139q153 163 358 163z" />
    <glyph glyph-name="Eng" unicode="&#x14a;" horiz-adv-x="1525" 
d="M1235 1458h389l-266 -1255l-51 -246q-34 -166 -150 -268q-115 -101 -303 -101q-83 0 -207 11l60 278q69 -4 102 -4q102 0 123 98l10 49l-246 553q-88 195 -129 349q-68 -387 -133 -684l-51 -238h-389l309 1458h432l205 -491q87 -208 127 -340q38 216 119 594z" />
    <glyph glyph-name="eng" unicode="&#x14b;" horiz-adv-x="1226" 
d="M856 1081q171 0 262 -116q90 -119 39 -373l-141 -670q-38 -176 -148 -255t-319 -79q-42 0 -111 4l60 281h30q36 0 53 4q19 4 40 27q20 22 28 63l127 596q39 199 -123 199q-144 0 -182 -176l-125 -586h-377l226 1057h368l-28 -135q137 159 321 159z" />
    <glyph glyph-name="Omacron" unicode="&#x14c;" horiz-adv-x="1613" 
d="M1352 1579h-727l51 236h727zM733 -33q-351 0 -534 221q-185 219 -105 605q66 307 305 501q244 197 572 197q349 0 534 -219q183 -224 101 -604q-63 -306 -306 -504q-244 -197 -567 -197zM774 322q151 0 261 104q112 106 151 283q43 201 -27 315q-69 113 -235 113
q-149 0 -261 -107q-113 -108 -153 -291q-43 -195 28 -307q70 -110 236 -110z" />
    <glyph glyph-name="omacron" unicode="&#x14d;" horiz-adv-x="1220" 
d="M1077 1163h-727l51 236h727zM528 -25q-282 0 -411 165q-129 166 -68 452q45 220 217 356q168 135 426 135q286 0 412 -162q127 -162 65 -456q-45 -217 -217 -352q-171 -138 -424 -138zM436 340q40 -70 127 -70q83 0 150 62q62 62 86 184q27 127 -12 200q-37 70 -130 70
q-89 0 -148 -62q-60 -63 -87 -185q-29 -131 14 -199z" />
    <glyph glyph-name="Obreve" unicode="&#x14e;" horiz-adv-x="1613" 
d="M1018 1569q-159 0 -250 80t-98 225h264q10 -96 106 -96q84 0 131 96h265q-46 -145 -158 -225t-260 -80zM733 -33q-351 0 -534 221q-185 219 -105 605q66 307 305 501q244 197 572 197q349 0 534 -219q183 -224 101 -604q-63 -306 -306 -504q-244 -197 -567 -197zM774 322
q151 0 261 104q112 106 151 283q43 201 -27 315q-69 113 -235 113q-149 0 -261 -107q-113 -108 -153 -291q-43 -195 28 -307q70 -110 236 -110z" />
    <glyph glyph-name="obreve" unicode="&#x14f;" horiz-adv-x="1220" 
d="M745 1153q-158 0 -249 80q-92 81 -99 225h265q10 -96 106 -96q84 0 131 96h264q-47 -146 -157 -225q-112 -80 -261 -80zM528 -25q-282 0 -411 165q-129 166 -68 452q45 220 217 356q168 135 426 135q286 0 412 -162q127 -162 65 -456q-45 -217 -217 -352
q-171 -138 -424 -138zM436 340q40 -70 127 -70q83 0 150 62q62 62 86 184q27 127 -12 200q-37 70 -130 70q-89 0 -148 -62q-60 -63 -87 -185q-29 -131 14 -199z" />
    <glyph glyph-name="Ohungarumlaut" unicode="&#x150;" horiz-adv-x="1613" 
d="M840 1579h-283l182 295h402zM1343 1579h-282l182 295h399zM733 -33q-351 0 -534 221q-185 219 -105 605q66 307 305 501q244 197 572 197q349 0 534 -219q183 -224 101 -604q-63 -306 -306 -504q-244 -197 -567 -197zM774 322q151 0 261 104q112 106 151 283
q43 201 -27 315q-69 113 -235 113q-149 0 -261 -107q-113 -108 -153 -291q-43 -195 28 -307q70 -110 236 -110z" />
    <glyph glyph-name="ohungarumlaut" unicode="&#x151;" horiz-adv-x="1220" 
d="M584 1163h-283l182 295h402zM1087 1163h-282l182 295h399zM528 -25q-282 0 -411 165q-129 166 -68 452q45 220 217 356q168 135 426 135q286 0 412 -162q127 -162 65 -456q-45 -217 -217 -352q-171 -138 -424 -138zM436 340q40 -70 127 -70q83 0 150 62q62 62 86 184
q27 127 -12 200q-37 70 -130 70q-89 0 -148 -62q-60 -63 -87 -185q-29 -131 14 -199z" />
    <glyph glyph-name="OE" unicode="&#x152;" horiz-adv-x="2351" 
d="M2497 1456l-78 -364h-742l-41 -193h676l-71 -340h-678l-41 -197h741l-78 -364h-1151l17 74q-157 -105 -367 -105q-315 0 -491 232q-177 236 -95 608q68 309 289 496q218 188 524 188q277 0 410 -145l25 110h1151zM774 322q151 0 261 104q112 106 151 283q43 201 -27 315
q-69 113 -235 113q-149 0 -261 -107q-113 -108 -153 -291q-43 -195 28 -307q70 -110 236 -110z" />
    <glyph glyph-name="oe" unicode="&#x153;" horiz-adv-x="1986" 
d="M1452 1081q268 0 403 -159q135 -162 72 -435l-18 -67h-774q1 -85 52 -132q49 -46 136 -46q132 0 195 92h352q-66 -175 -216 -266q-152 -93 -366 -93q-238 0 -366 129q-156 -129 -394 -129q-282 0 -411 165q-129 166 -68 452q45 220 217 356q168 135 426 135
q248 0 361 -125q156 123 399 123zM1425 815q-171 0 -243 -172h413q1 172 -170 172zM799 516q27 127 -12 200q-37 70 -130 70q-89 0 -148 -62q-60 -63 -87 -185q-29 -125 12 -197q40 -72 129 -72t150 63q62 64 86 183z" />
    <glyph glyph-name="Racute" unicode="&#x154;" horiz-adv-x="1411" 
d="M909 1841h404l-330 -295h-309zM301 1458h655q295 0 424 -126t84 -339q-52 -239 -315 -323q191 -80 147 -328l-28 -176q-16 -112 2 -166h-422q-17 53 6 166l27 147q18 110 -20 151q-37 40 -140 40h-213l-107 -504h-409zM571 803h228q205 0 235 153q38 183 -145 183h-246z
" />
    <glyph glyph-name="racute" unicode="&#x155;" horiz-adv-x="851" 
d="M561 1458h363l-262 -295h-263zM852 1073q41 0 74 -6l-72 -338h-98q-257 0 -314 -278l-96 -451h-377l226 1057h368l-39 -183q106 199 328 199z" />
    <glyph glyph-name="uni0156" unicode="&#x156;" horiz-adv-x="1411" 
d="M301 1458h655q295 0 424 -126t84 -339q-52 -239 -315 -323q191 -80 147 -328l-28 -176q-16 -112 2 -166h-422q-17 53 6 166l27 147q18 110 -20 151q-37 40 -140 40h-213l-107 -504h-409zM571 803h228q205 0 235 153q38 183 -145 183h-246zM541 -332h-129l51 244h309
l-53 -250q-44 -199 -297 -199h-55l24 117h55q76 0 93 78z" />
    <glyph glyph-name="uni0157" unicode="&#x157;" horiz-adv-x="851" 
d="M852 1073q41 0 74 -6l-72 -338h-98q-257 0 -314 -278l-96 -451h-377l226 1057h368l-39 -183q106 199 328 199zM61 -332h-129l52 244h309l-53 -250q-44 -199 -297 -199h-56l25 117h55q75 0 92 78z" />
    <glyph glyph-name="Rcaron" unicode="&#x158;" horiz-adv-x="1411" 
d="M1376 1841l-307 -295h-391l-186 295h329l86 -119l140 119h329zM301 1458h655q295 0 424 -126t84 -339q-52 -239 -315 -323q191 -80 147 -328l-28 -176q-16 -112 2 -166h-422q-17 53 6 166l27 147q18 110 -20 151q-37 40 -140 40h-213l-107 -504h-409zM571 803h228
q205 0 235 153q38 183 -145 183h-246z" />
    <glyph glyph-name="rcaron" unicode="&#x159;" horiz-adv-x="851" 
d="M1008 1458l-265 -295h-372l-142 295h312l53 -115l108 115h306zM563 1057l-39 -183q106 199 328 199q41 0 74 -6l-72 -338h-98q-257 0 -314 -278l-96 -451h-377l226 1057h368z" />
    <glyph glyph-name="Sacute" unicode="&#x15a;" horiz-adv-x="1355" 
d="M967 1579h-310l236 295h403zM606 -33q-337 0 -489 137q-153 138 -97 375h396q-22 -114 34 -157t197 -43q99 0 158 31q60 31 72 83q17 72 -24 104t-173 54l-111 18q-235 39 -340 168t-61 336q38 175 207 297q169 121 442 121q317 0 462 -122t101 -359h-387q15 88 -32 129
t-164 41q-190 0 -211 -119q-12 -65 27 -94q42 -31 155 -52l117 -20q255 -45 358 -164q103 -120 60 -332q-43 -207 -229 -319q-187 -113 -468 -113z" />
    <glyph glyph-name="sacute" unicode="&#x15b;" horiz-adv-x="1105" 
d="M793 1163h-283l180 295h369zM471 -33q-278 0 -398 87t-93 282h364q-7 -72 28 -100q37 -29 130 -29q142 0 157 76q7 43 -20 66q-29 24 -104 36l-162 25q-344 56 -281 364q63 307 545 307q262 0 372 -97q112 -98 85 -269h-344q12 67 -25 97t-119 30q-138 0 -155 -74
q-8 -40 20 -63q30 -26 92 -33l176 -25q175 -24 252 -118q76 -92 47 -240q-63 -322 -567 -322z" />
    <glyph glyph-name="Scircumflex" unicode="&#x15c;" horiz-adv-x="1355" 
d="M973 1579l-86 119l-139 -119h-332l309 295h391l184 -295h-327zM1380 1010h-387q15 88 -32 129t-164 41q-190 0 -211 -119q-12 -65 27 -94q42 -31 155 -52l117 -20q255 -45 358 -164q103 -120 60 -332q-43 -207 -229 -319q-187 -113 -468 -113q-337 0 -489 137
q-153 138 -97 375h396q-22 -114 34 -157t197 -43q99 0 158 31q60 31 72 83q17 72 -24 104t-173 54l-111 18q-235 39 -340 168t-61 336q38 175 207 297q169 121 442 121q317 0 462 -122t101 -359z" />
    <glyph glyph-name="scircumflex" unicode="&#x15d;" horiz-adv-x="1105" 
d="M782 1163l-86 119l-139 -119h-332l310 295h391l184 -295h-328zM637 1081q262 0 372 -97q112 -98 85 -269h-344q12 67 -25 97t-119 30q-138 0 -155 -74q-8 -40 20 -63q30 -26 92 -33l176 -25q175 -24 252 -118q76 -92 47 -240q-63 -322 -567 -322q-278 0 -398 87t-93 282
h364q-7 -72 28 -100q37 -29 130 -29q142 0 157 76q7 43 -20 66q-29 24 -104 36l-162 25q-344 56 -281 364q63 307 545 307z" />
    <glyph glyph-name="Scedilla" unicode="&#x15e;" horiz-adv-x="1355" 
d="M1380 1010h-387q15 88 -32 129t-164 41q-190 0 -211 -119q-12 -65 27 -94q42 -31 155 -52l117 -20q255 -45 358 -164q103 -120 60 -332q-39 -189 -198 -300q-160 -112 -407 -128l-98 -94q10 2 37 2q105 0 158 -53q52 -52 34 -133q-17 -80 -104 -126q-88 -46 -231 -46
q-109 0 -183 14l27 123q43 -8 133 -8q103 0 119 67q8 38 -19 59t-84 21q-27 0 -47 -2l17 78l94 94q-309 12 -446 149q-136 136 -85 363h396q-22 -114 34 -157t197 -43q99 0 158 31q60 31 72 83q17 72 -24 104t-173 54l-111 18q-235 39 -340 168t-61 336q38 175 207 297
q169 121 442 121q317 0 462 -122t101 -359z" />
    <glyph glyph-name="scedilla" unicode="&#x15f;" horiz-adv-x="1105" 
d="M1094 715h-344q12 67 -25 97t-119 30q-138 0 -155 -74q-8 -40 20 -63q30 -26 92 -33l176 -25q175 -24 252 -118q76 -92 47 -240q-62 -293 -475 -320l-98 -92q10 2 37 2q104 0 157 -53t35 -133q-17 -80 -104 -126q-88 -46 -232 -46q-108 0 -182 14l27 123q43 -8 133 -8
q103 0 119 67q8 38 -19 59t-84 21q-27 0 -47 -2l17 78l94 94q-249 8 -355 96q-105 87 -81 273h364q-7 -72 28 -100q37 -29 130 -29q142 0 157 76q7 43 -20 66q-29 24 -104 36l-162 25q-344 56 -281 364q63 307 545 307q262 0 372 -97q112 -98 85 -269z" />
    <glyph glyph-name="Scaron" unicode="&#x160;" horiz-adv-x="1355" 
d="M1360 1874l-307 -295h-391l-187 295h330l86 -119l139 119h330zM1380 1010h-387q15 88 -32 129t-164 41q-190 0 -211 -119q-12 -65 27 -94q42 -31 155 -52l117 -20q255 -45 358 -164q103 -120 60 -332q-43 -207 -229 -319q-187 -113 -468 -113q-337 0 -489 137
q-153 138 -97 375h396q-22 -114 34 -157t197 -43q99 0 158 31q60 31 72 83q17 72 -24 104t-173 54l-111 18q-235 39 -340 168t-61 336q38 175 207 297q169 121 442 121q317 0 462 -122t101 -359z" />
    <glyph glyph-name="scaron" unicode="&#x161;" horiz-adv-x="1105" 
d="M1178 1458l-308 -295h-393l-184 295h330l86 -119l139 119h330zM637 1081q262 0 372 -97q112 -98 85 -269h-344q12 67 -25 97t-119 30q-138 0 -155 -74q-8 -40 20 -63q30 -26 92 -33l176 -25q175 -24 252 -118q76 -92 47 -240q-63 -322 -567 -322q-278 0 -398 87t-93 282
h364q-7 -72 28 -100q37 -29 130 -29q142 0 157 76q7 43 -20 66q-29 24 -104 36l-162 25q-344 56 -281 364q63 307 545 307z" />
    <glyph glyph-name="uni0162" unicode="&#x162;" horiz-adv-x="1310" 
d="M981 1094l-233 -1094h-115l-96 -90q10 2 36 2q105 0 158 -53t35 -133q-17 -80 -104 -126q-88 -46 -232 -46q-108 0 -182 14l26 123q43 -8 134 -8q103 0 118 67q8 39 -18 59q-27 21 -84 21q-27 0 -47 -2l16 78l94 94h-149l233 1094h-430l78 364h1270l-78 -364h-430z" />
    <glyph glyph-name="uni0163" unicode="&#x163;" horiz-adv-x="786" 
d="M801 791h-199l-82 -379q-29 -136 94 -136h78l-59 -274q-91 -10 -139 -10h-21l-86 -82q10 2 37 2q105 0 158 -53q52 -52 34 -133q-17 -80 -104 -126q-88 -46 -231 -46q-109 0 -183 14l27 123q43 -8 133 -8q103 0 119 67q8 38 -19 59t-84 21q-27 0 -47 -2l17 78l100 100
q-268 66 -201 391l84 394h-151l57 266h150l67 319h377l-68 -319h199z" />
    <glyph glyph-name="Tcaron" unicode="&#x164;" horiz-adv-x="1310" 
d="M1376 1841l-307 -295h-391l-186 295h329l86 -119l140 119h329zM219 1458h1270l-78 -364h-430l-233 -1094h-410l233 1094h-430z" />
    <glyph glyph-name="tcaron" unicode="&#x165;" horiz-adv-x="786" 
d="M743 1118l119 340h348l-206 -340h-261zM350 1376h377l-68 -319h199l-57 -266h-199l-82 -379q-29 -136 94 -136h78l-59 -274q-91 -10 -139 -10q-436 0 -351 405l84 394h-151l57 266h150z" />
    <glyph glyph-name="Tbar" unicode="&#x166;" horiz-adv-x="1310" 
d="M1489 1458l-78 -364h-430l-66 -310h254l-49 -194h-248l-124 -590h-410l125 590h-238l49 194h232l65 310h-430l78 364h1270z" />
    <glyph glyph-name="tbar" unicode="&#x167;" horiz-adv-x="813" 
d="M858 1057l-57 -266h-199l-31 -142h224l-39 -194h-226l-10 -43q-29 -136 94 -136h78l-59 -274q-91 -10 -139 -10q-436 0 -351 405l13 58h-123l39 194h125l30 142h-151l57 266h150l67 319h377l-68 -319h199z" />
    <glyph glyph-name="Utilde" unicode="&#x168;" horiz-adv-x="1474" 
d="M776 1546h-219q30 144 113 220q82 75 186 75q78 0 168 -37q72 -28 113 -28q53 0 71 65h217q-28 -143 -110 -219t-187 -76q-72 0 -165 37q-78 29 -115 29q-54 0 -72 -66zM664 -33q-313 0 -471 176q-156 174 -87 506l175 809h409l-182 -860q-29 -137 24 -209
q52 -72 175 -72q113 0 189 66q77 67 101 188l185 887h409l-196 -942q-55 -263 -246 -406t-485 -143z" />
    <glyph glyph-name="utilde" unicode="&#x169;" horiz-adv-x="1226" 
d="M623 1229q-54 0 -72 -66h-217q30 143 112 219t185 76q80 0 170 -37q72 -28 112 -28q54 0 72 65h217q-28 -143 -110 -219t-187 -76q-71 0 -166 37q-78 29 -116 29zM756 471l125 586h376l-225 -1057h-368l28 139q-153 -164 -358 -164q-175 0 -248 124q-73 123 -20 364
l129 594h376l-125 -586q-18 -83 12 -129q30 -47 101 -47q75 0 127 44q52 45 70 132z" />
    <glyph glyph-name="Umacron" unicode="&#x16a;" horiz-adv-x="1474" 
d="M1323 1546h-727l51 236h727zM664 -33q-313 0 -471 176q-156 174 -87 506l175 809h409l-182 -860q-29 -137 24 -209q52 -72 175 -72q113 0 189 66q77 67 101 188l185 887h409l-196 -942q-55 -263 -246 -406t-485 -143z" />
    <glyph glyph-name="umacron" unicode="&#x16b;" horiz-adv-x="1226" 
d="M424 1399h727l-51 -236h-727zM756 471l125 586h376l-225 -1057h-368l28 139q-153 -164 -358 -164q-175 0 -248 124q-73 123 -20 364l129 594h376l-125 -586q-18 -83 12 -129q30 -47 101 -47q75 0 127 44q52 45 70 132z" />
    <glyph glyph-name="Ubreve" unicode="&#x16c;" horiz-adv-x="1474" 
d="M989 1536q-159 0 -250 80t-98 225h264q11 -96 107 -96q84 0 131 96h264q-46 -145 -158 -225t-260 -80zM664 -33q-313 0 -471 176q-155 173 -86 506l174 809h409l-182 -860q-29 -137 24 -209q52 -72 175 -72q113 0 189 66q77 67 101 188l185 887h409l-196 -942
q-55 -263 -246 -406t-485 -143z" />
    <glyph glyph-name="ubreve" unicode="&#x16d;" horiz-adv-x="1226" 
d="M768 1153q-159 0 -250 80t-98 225h264q10 -96 107 -96q85 0 131 96h264q-46 -145 -158 -225t-260 -80zM756 471l125 586h376l-225 -1057h-368l28 139q-153 -164 -358 -164q-175 0 -248 124q-73 123 -20 364l129 594h376l-125 -586q-18 -83 12 -129q30 -47 101 -47
q75 0 127 44q52 45 70 132z" />
    <glyph glyph-name="Uring" unicode="&#x16e;" horiz-adv-x="1474" 
d="M1237 1458h354l-196 -942q-55 -263 -246 -406t-485 -143q-313 0 -471 176q-156 174 -87 506l175 809h325q-20 53 -20 115q0 139 98 227q94 88 238 88t239 -88q96 -90 96 -227q0 -62 -20 -115zM1006 1655q-33 33 -83 33t-83 -33t-33 -82t33 -82q34 -33 83 -33t83 33t34 82
t-34 82zM707 317q113 0 189 66q77 67 101 188l160 772q-92 -86 -235 -86q-155 0 -252 103l-162 -762q-29 -137 24 -209q52 -72 175 -72z" />
    <glyph glyph-name="uring" unicode="&#x16f;" horiz-adv-x="1226" 
d="M1042 1247q-100 -90 -239 -90q-142 0 -238 90q-98 88 -98 226t98 227q94 88 238 88t239 -88q97 -91 97 -227q0 -135 -97 -226zM887 1554q-35 33 -84 33t-82 -33t-33 -81q0 -49 33 -82t82 -33t84 33t35 82q0 48 -35 81zM756 471l125 586h376l-225 -1057h-368l28 139
q-153 -164 -358 -164q-175 0 -248 124q-73 123 -20 364l129 594h376l-125 -586q-18 -83 12 -129q30 -47 101 -47q75 0 127 44q52 45 70 132z" />
    <glyph glyph-name="Uhungarumlaut" unicode="&#x170;" horiz-adv-x="1474" 
d="M811 1546h-283l183 295h401zM1315 1546h-283l182 295h400zM664 -33q-313 0 -471 176q-156 174 -87 506l175 809h409l-182 -860q-29 -137 24 -209q52 -72 175 -72q113 0 189 66q77 67 101 188l185 887h409l-196 -942q-55 -263 -246 -406t-485 -143z" />
    <glyph glyph-name="uhungarumlaut" unicode="&#x171;" horiz-adv-x="1226" 
d="M506 1458h401l-301 -295h-282zM1409 1458l-299 -295h-283l183 295h399zM756 471l125 586h376l-225 -1057h-368l28 139q-153 -164 -358 -164q-175 0 -248 124q-73 123 -20 364l129 594h376l-125 -586q-18 -83 12 -129q30 -47 101 -47q75 0 127 44q52 45 70 132z" />
    <glyph glyph-name="Uogonek" unicode="&#x172;" horiz-adv-x="1474" 
d="M997 571l185 887h409l-196 -942q-89 -411 -477 -516q-213 -86 -228 -162q-7 -39 19 -58q28 -20 69 -20q38 0 92 13l-39 -183q-67 -16 -167 -16q-133 0 -201 65q-67 64 -49 160q22 104 170 172q-279 23 -410 197q-135 173 -68 481l175 809h409l-182 -860q-29 -137 24 -209
q52 -72 175 -72q113 0 189 66q77 67 101 188z" />
    <glyph glyph-name="uogonek" unicode="&#x173;" horiz-adv-x="1226" 
d="M1257 1057l-225 -1057q-214 -85 -229 -162q-8 -40 18 -58q28 -20 70 -20q38 0 92 13l-39 -183q-67 -16 -168 -16q-133 0 -201 65q-67 64 -49 160q16 66 80 117q69 55 174 84h-116l28 139q-153 -164 -358 -164q-175 0 -248 124q-73 123 -20 364l129 594h376l-125 -586
q-18 -83 12 -129q30 -47 101 -47q75 0 127 44q52 45 70 132l125 586h376z" />
    <glyph glyph-name="Wcircumflex" unicode="&#x174;" horiz-adv-x="2062" 
d="M1356 1546l-86 119l-140 -119h-331l309 295h391l184 -295h-327zM1642 1038l183 420h432l-703 -1458h-458l2 432q1 215 14 533q-76 -201 -213 -533l-182 -432h-459l-84 1458h424l6 -420q6 -302 -2 -585q84 228 234 585l174 420h403l-2 -420q-5 -340 -16 -583
q88 217 247 583z" />
    <glyph glyph-name="wcircumflex" unicode="&#x175;" horiz-adv-x="1816" 
d="M1122 1163l-86 119l-139 -119h-332l309 295h392l184 -295h-328zM1372 768l141 289h412l-567 -1057h-397l-25 365q-8 114 -14 258q-51 -117 -119 -258l-180 -365h-398l-116 1057h395l18 -289l2 -40q3 -40 5 -75q2 -33 5 -73.5t3 -49.5q0 -30 1 -55q1 -37 3 -55
q114 254 159 350l138 287h342l14 -287q0 -15 1.5 -62.5t4 -126.5t4.5 -163q25 58 168 350z" />
    <glyph glyph-name="Ycircumflex" unicode="&#x176;" horiz-adv-x="1466" 
d="M1067 1546l-86 119l-139 -119h-332l309 295h391l185 -295h-328zM1094 1296l123 162h458l-725 -897l-119 -561h-409l119 561l-353 897h451l59 -164q4 -9 127 -356q62 86 269 358z" />
    <glyph glyph-name="ycircumflex" unicode="&#x177;" horiz-adv-x="1183" 
d="M844 1163l-86 119l-140 -119h-331l309 295h391l184 -295h-327zM883 1012l22 45h393l-587 -1057q-91 -161 -170 -246q-75 -81 -195 -121q-117 -39 -313 -39q-41 0 -133 5l61 286h105q143 0 172 115q14 56 -9 229l-114 828h395l2 -43q34 -616 35 -731q169 399 336 729z" />
    <glyph glyph-name="Ydieresis" unicode="&#x178;" horiz-adv-x="1466" 
d="M606 1841h357l-64 -295h-356zM1065 1841h354l-63 -295h-355zM1094 1296l123 162h458l-725 -897l-119 -561h-409l119 561l-353 897h451l59 -164q4 -9 127 -356q62 86 269 358z" />
    <glyph glyph-name="Zacute" unicode="&#x179;" horiz-adv-x="1353" 
d="M928 1841h403l-330 -295h-309zM1487 1458l-68 -311l-534 -494q-115 -108 -326 -293q405 5 412 5h293l-78 -365h-1252l68 315l533 488q3 3 44 39.5t118.5 106.5t166.5 149q-331 -4 -415 -4h-261l78 364h1221z" />
    <glyph glyph-name="zacute" unicode="&#x17a;" horiz-adv-x="1054" 
d="M674 1458h368l-266 -295h-282zM1108 1057l-49 -230l-416 -405q-149 -139 -162 -152q62 2 209 2h266l-57 -272h-952l49 229l418 406l159 151q-60 -2 -204 -2h-256l59 273h936z" />
    <glyph glyph-name="Zdotaccent" unicode="&#x17b;" horiz-adv-x="1353" 
d="M776 1841h354l-61 -295h-354zM1487 1458l-68 -311l-534 -494q-115 -108 -326 -293q405 5 412 5h293l-78 -365h-1252l68 315l533 488q3 3 44 39.5t118.5 106.5t166.5 149q-331 -4 -415 -4h-261l78 364h1221z" />
    <glyph glyph-name="zdotaccent" unicode="&#x17c;" horiz-adv-x="1054" 
d="M532 1458h357l-62 -295h-356zM1108 1057l-49 -230l-416 -405q-149 -139 -162 -152q62 2 209 2h266l-57 -272h-952l49 229l418 406l159 151q-60 -2 -204 -2h-256l59 273h936z" />
    <glyph glyph-name="Zcaron" unicode="&#x17d;" horiz-adv-x="1353" 
d="M1395 1841l-308 -295h-391l-186 295h330l86 -119l139 119h330zM1487 1458l-68 -311l-534 -494q-115 -108 -326 -293q405 5 412 5h293l-78 -365h-1252l68 315l533 488q3 3 44 39.5t118.5 106.5t166.5 149q-331 -4 -415 -4h-261l78 364h1221z" />
    <glyph glyph-name="zcaron" unicode="&#x17e;" horiz-adv-x="1054" 
d="M1161 1458l-307 -295h-393l-185 295h330l86 -119l139 119h330zM369 784h-256l59 273h936l-49 -230l-416 -405q-149 -139 -162 -152q62 2 209 2h266l-57 -272h-952l49 229l418 406l159 151q-60 -2 -204 -2z" />
    <glyph glyph-name="uni018F" unicode="&#x18f;" horiz-adv-x="1550" 
d="M926 1491q354 0 526 -225q170 -226 86 -609q-63 -305 -276 -497q-213 -193 -553 -193q-377 0 -541 252q-163 250 -55 625h1038q16 295 -277 295q-188 0 -272 -133h-436q99 247 284 367q182 118 476 118zM745 315q255 0 355 279h-631q-6 -129 68 -204q73 -75 208 -75z" />
    <glyph glyph-name="florin" unicode="&#x192;" horiz-adv-x="1167" 
d="M1126 1475q103 0 199 -13l-61 -291q-56 9 -93 9q-82 0 -122 -34q-43 -36 -76 -132l-49 -133h231l-57 -267h-271l-225 -620q-91 -253 -209 -336q-118 -84 -352 -84q-109 0 -199 12l62 291q50 -8 92 -8q83 0 123 34q43 36 76 132l211 579h-211l57 267h250l63 174
q89 250 209 334q119 86 352 86z" />
    <glyph glyph-name="uni01F4" unicode="&#x1f4;" horiz-adv-x="1615" 
d="M1014 1874h403l-330 -295h-309zM907 1141q-145 0 -251 -106q-105 -105 -144 -285q-45 -208 19 -320q65 -113 225 -113q120 0 215 56q94 55 139 151h-270l67 312h690l-178 -836h-278v182q-84 -100 -211 -158q-124 -57 -266 -57q-344 0 -502 215q-158 214 -74 600
q69 322 299 518q224 191 571 191q306 0 476 -141q169 -141 163 -389h-415q-33 180 -275 180z" />
    <glyph glyph-name="uni01F5" unicode="&#x1f5;" horiz-adv-x="1218" 
d="M788 1458h369l-266 -295h-283zM852 924l29 133h368l-221 -1037q-49 -232 -180 -339t-410 -107q-267 0 -389 107q-120 105 -108 299h385q2 -130 143 -130q79 0 125 51q45 50 68 165l12 65q-96 -90 -246 -90q-224 0 -326 158q-104 156 -47 422q45 217 178 338
q134 122 332 122q209 0 287 -157zM428 571q-24 -116 14 -175q39 -60 133 -60q173 0 220 225t-146 225q-174 0 -221 -215z" />
    <glyph glyph-name="Aringacute" unicode="&#x1fa;" horiz-adv-x="1525" 
d="M1288 1573q0 -122 -76 -205l213 -1368h-424l-20 190h-571l-101 -190h-430l793 1395q-56 77 -56 178q0 108 62 188q63 81 162 111l200 254h404l-316 -281q73 -40 117 -113q43 -71 43 -159zM870 1655q-34 -33 -34 -82t34 -82t84 -33q49 0 82 33t33 82t-33 82t-82 33
q-50 0 -84 -33zM768 864l-178 -336h352l-37 336q-1 12 -20 230q-75 -152 -117 -230z" />
    <glyph glyph-name="aringacute" unicode="&#x1fb;" horiz-adv-x="1181" 
d="M891 2150h369l-267 -295h-282zM1018 1247q-100 -90 -240 -90q-141 0 -237 90q-99 89 -99 226t99 227q94 88 237 88q145 0 240 -88q96 -90 96 -227q0 -136 -96 -226zM862 1554q-33 33 -83 33t-83 -33q-32 -32 -32 -81q0 -50 32 -82q33 -33 82 -33q50 0 84 33q35 33 35 82
q0 48 -35 81zM688 1081q274 0 385 -101q113 -103 70 -306l-105 -484q-28 -132 2 -190h-378q-11 40 -7 98q-127 -123 -336 -123q-184 0 -280 96q-94 94 -59 257q30 142 142 215q109 71 345 92l172 14q72 6 103 23q30 16 40 55q6 46 -21 70t-99 24q-86 0 -122 -23
q-38 -25 -53 -89h-372q45 194 180 283q136 89 393 89zM475 217q88 0 156 50t86 149l12 61q-29 -31 -102 -41l-123 -12q-126 -12 -144 -105q-10 -46 21 -74t94 -28z" />
    <glyph glyph-name="AEacute" unicode="&#x1fc;" horiz-adv-x="2191" 
d="M1702 1841h403l-329 -295h-310zM2337 1458l-76 -364h-662l-40 -193h595l-73 -340h-594l-41 -196h659l-77 -365h-1057l57 272h-547l-184 -272h-420l995 1458h1465zM1055 1120l-346 -510h391l108 510h-153z" />
    <glyph glyph-name="aeacute" unicode="&#x1fd;" horiz-adv-x="1875" 
d="M1059 1458h368l-266 -295h-282zM1364 1081q254 0 387 -159q129 -164 66 -435q-9 -37 -19 -67h-735q1 -83 49 -131q47 -47 129 -47q123 0 186 92h334q-63 -174 -206 -266q-145 -93 -347 -93q-253 0 -377 154q-210 -154 -469 -154q-205 0 -305 97q-99 96 -61 272
q24 128 138 200q116 73 345 91l172 14q76 6 108 25q29 18 40 63q8 42 -19 63t-98 21q-84 0 -125 -24q-40 -24 -57 -88h-373q45 193 185 282q141 90 409 90q227 0 328 -73q134 73 315 73zM1339 815q-164 0 -233 -172h395q0 172 -162 172zM475 217q210 0 254 199l14 59v2
q-31 -31 -104 -41l-123 -12q-131 -12 -143 -100q-8 -50 20 -78q29 -29 82 -29z" />
    <glyph glyph-name="Oslashacute" unicode="&#x1fe;" horiz-adv-x="1613" 
d="M1026 1874h404l-330 -295h-309zM1608 1434l-123 -140q206 -230 121 -626q-63 -306 -306 -504q-244 -197 -567 -197q-202 0 -354 76l-137 -154l-152 136l125 141q-205 225 -121 627q66 307 305 501q244 197 572 197q198 0 350 -76l135 154zM510 739q-30 -142 -2 -241
l545 616q-63 23 -129 23q-149 0 -261 -107q-113 -108 -153 -291zM1186 709q30 148 2 249l-543 -614q60 -22 129 -22q151 0 261 104q112 106 151 283z" />
    <glyph glyph-name="oslashacute" unicode="&#x1ff;" horiz-adv-x="1220" 
d="M739 1458h369l-266 -295h-283zM1176 1032l-86 -96q145 -163 79 -471q-45 -217 -217 -352q-171 -138 -424 -138q-140 0 -256 48l-98 -109l-123 109l84 94q-153 168 -86 475q45 220 217 356q168 135 426 135q154 0 264 -49l97 107zM406 539q-17 -84 -11 -131l346 385
q-38 16 -79 16q-196 0 -256 -270zM815 514q16 78 10 129l-340 -381q27 -14 74 -14q95 0 161 67q66 68 95 199z" />
    <glyph glyph-name="uni0218" unicode="&#x218;" horiz-adv-x="1355" 
d="M1380 1010h-387q15 88 -32 129t-164 41q-190 0 -211 -119q-12 -65 27 -94q42 -31 155 -52l117 -20q255 -45 358 -164q103 -120 60 -332q-43 -207 -229 -319q-187 -113 -468 -113q-337 0 -489 137q-153 138 -97 375h396q-22 -114 34 -157t197 -43q99 0 158 31q60 31 72 83
q17 72 -24 104t-173 54l-111 18q-235 39 -340 168t-61 336q38 175 207 297q169 121 442 121q317 0 462 -122t101 -359zM522 -365h-129l51 244h310l-54 -250q-44 -198 -297 -198h-55l25 116h55q76 0 92 78z" />
    <glyph glyph-name="uni0219" unicode="&#x219;" horiz-adv-x="1105" 
d="M1094 715h-344q12 67 -25 97t-119 30q-138 0 -155 -74q-8 -40 20 -63q30 -26 92 -33l176 -25q175 -24 252 -118q76 -92 47 -240q-63 -322 -567 -322q-278 0 -398 87t-93 282h364q-7 -72 28 -100q37 -29 130 -29q142 0 157 76q7 43 -20 66q-29 24 -104 36l-162 25
q-344 56 -281 364q63 307 545 307q262 0 372 -97q112 -98 85 -269zM377 -365h-129l51 244h309l-53 -250q-43 -198 -297 -198h-55l24 116h56q75 0 92 78z" />
    <glyph glyph-name="uni021A" unicode="&#x21a;" horiz-adv-x="1310" 
d="M219 1458h1270l-78 -364h-430l-233 -1094h-410l233 1094h-430zM459 -332h-129l51 244h309l-53 -250q-44 -199 -297 -199h-55l24 117h56q75 0 92 78z" />
    <glyph glyph-name="uni021B" unicode="&#x21b;" horiz-adv-x="786" 
d="M801 791h-199l-82 -379q-29 -136 94 -136h78l-59 -274q-91 -10 -139 -10q-436 0 -351 405l84 394h-151l57 266h150l67 319h377l-68 -319h199zM299 -332h-129l51 244h309l-53 -250q-44 -199 -297 -199h-55l25 117h55q75 0 92 78z" />
    <glyph glyph-name="uni0237" unicode="&#x237;" horiz-adv-x="540" 
d="M-49 -406q-107 0 -199 5l60 280h30q36 0 56 5q17 4 39 33q19 25 32 85l226 1055h376l-231 -1084q-44 -198 -138 -288q-96 -91 -251 -91z" />
    <glyph glyph-name="uni0259" unicode="&#x259;" horiz-adv-x="1218" 
d="M698 1081q274 0 404 -159q132 -161 72 -445q-51 -240 -220 -371t-419 -131q-268 0 -404 160q-135 162 -72 434q15 63 19 68h774q-1 85 -52 132q-49 46 -136 46q-132 0 -195 -92h-352q66 175 216 266q151 92 365 92zM561 242q172 0 244 172h-414q-1 -172 170 -172z" />
    <glyph glyph-name="h.sups" unicode="&#x2b0;" horiz-adv-x="962" 
d="M809 1477q158 0 224 -105q67 -106 24 -299l-113 -536h-330l109 512q33 149 -102 149q-117 0 -156 -119l-115 -542h-327l268 1267h327l-94 -448q136 121 285 121z" />
    <glyph glyph-name="r.sups" unicode="&#x2b3;" horiz-adv-x="671" 
d="M793 1473q21 0 71 -5l-63 -297h-82q-211 0 -266 -210l-88 -424h-328l194 921h320l-35 -160q86 175 277 175z" />
    <glyph glyph-name="circumflex" unicode="&#x2c6;" horiz-adv-x="819" 
d="M805 1458l184 -295h-327l-87 119l-139 -119h-332l310 295h391z" />
    <glyph glyph-name="caron" unicode="&#x2c7;" horiz-adv-x="819" 
d="M582 1339l139 119h330l-308 -295h-393l-184 295h330z" />
    <glyph glyph-name="uni02C9" unicode="&#x2c9;" horiz-adv-x="819" 
d="M905 1163h-725l51 236h725z" />
    <glyph glyph-name="breve" unicode="&#x2d8;" horiz-adv-x="819" 
d="M573 1153q-158 0 -249 80q-92 81 -99 225h264q10 -96 107 -96q84 0 131 96h264q-47 -146 -157 -225q-112 -80 -261 -80z" />
    <glyph glyph-name="dotaccent" unicode="&#x2d9;" horiz-adv-x="819" 
d="M725 1163h-356l61 295h356z" />
    <glyph glyph-name="ring" unicode="&#x2da;" horiz-adv-x="819" 
d="M850 1247q-100 -90 -240 -90q-141 0 -237 90q-99 89 -99 226t99 227q94 88 237 88q145 0 240 -88q96 -90 96 -227q0 -136 -96 -226zM528 1391q33 -33 82 -33q50 0 84 33q35 33 35 82q0 48 -35 81q-34 33 -84 33q-49 0 -82 -33q-32 -32 -32 -81q0 -50 32 -82z" />
    <glyph glyph-name="ogonek" unicode="&#x2db;" horiz-adv-x="819" 
d="M260 -426q-133 0 -201 65q-67 64 -49 160q16 66 80 117q69 55 174 84h252q-214 -85 -229 -162q-8 -40 18 -58q28 -20 70 -20q38 0 92 13l-39 -183q-67 -16 -168 -16z" />
    <glyph glyph-name="tilde" unicode="&#x2dc;" horiz-adv-x="819" 
d="M358 1163h-217q29 142 113 219q82 76 184 76q80 0 170 -37q72 -28 113 -28q54 0 72 65h217q-28 -142 -111 -219q-82 -76 -186 -76q-71 0 -166 37q-78 29 -117 29q-54 0 -72 -66z" />
    <glyph glyph-name="hungarumlaut" unicode="&#x2dd;" horiz-adv-x="819" 
d="M416 1163h-283l182 295h402zM920 1163h-283l182 295h400z" />
    <glyph glyph-name="s.sups" unicode="&#x2e2;" horiz-adv-x="962" 
d="M520 508q-222 0 -331 78q-108 77 -101 243h322q11 -108 143 -108q108 0 115 55q8 39 -18 59q-25 19 -101 31l-115 19q-314 50 -254 329q56 263 457 263q212 0 317 -87q106 -87 95 -235h-304q2 55 -31 82q-35 29 -93 29q-108 0 -123 -62q-7 -37 14 -54q23 -19 80 -26
l147 -20q313 -45 256 -322q-60 -274 -475 -274z" />
    <glyph glyph-name="gravecomb" unicode="&#x300;" 
d="M412 1163h-283l-143 295h368z" />
    <glyph glyph-name="acutecomb" unicode="&#x301;" 
d="M143 1163h-282l180 295h369z" />
    <glyph glyph-name="uni0302" unicode="&#x302;" 
d="M393 1458l185 -295h-328l-86 119l-139 -119h-332l309 295h391z" />
    <glyph glyph-name="tildecomb" unicode="&#x303;" 
d="M-82 1163h-217q29 142 113 219q82 76 184 76q80 0 170 -37q72 -28 113 -28q53 0 71 65h217q-28 -143 -110 -219t-187 -76q-73 0 -166 37q-78 29 -116 29q-54 0 -72 -66z" />
    <glyph glyph-name="uni0304" unicode="&#x304;" 
d="M473 1163h-727l51 236h727z" />
    <glyph glyph-name="uni0306" unicode="&#x306;" 
d="M164 1153q-159 0 -250 80t-98 225h264q11 -96 106 -96q84 0 131 96h265q-46 -145 -158 -225t-260 -80z" />
    <glyph glyph-name="uni0307" unicode="&#x307;" 
d="M285 1163h-357l62 295h356z" />
    <glyph glyph-name="uni0308" unicode="&#x308;" 
d="M53 1163h-356l63 295h357zM510 1163h-354l63 295h354z" />
    <glyph glyph-name="uni030A" unicode="&#x30a;" 
d="M449 1247q-101 -90 -240 -90t-240 90q-96 90 -96 226q0 137 96 227q95 88 240 88t240 -88q96 -90 96 -227q0 -136 -96 -226zM127 1391q35 -33 83 -33t83 33t35 82q0 48 -35 81q-34 33 -83 33q-48 0 -83 -33q-33 -33 -33 -81q0 -49 33 -82z" />
    <glyph glyph-name="uni030B" unicode="&#x30b;" 
d="M-125 1163h-283l183 295h401zM379 1163h-283l183 295h399z" />
    <glyph glyph-name="uni030C" unicode="&#x30c;" 
d="M172 1339l139 119h330l-307 -295h-393l-185 295h330z" />
    <glyph glyph-name="uni0312" unicode="&#x312;" 
d="M313 1495h-55q-76 0 -92 -78l-2 -10h129l-51 -244h-310l54 250q44 199 297 199h55z" />
    <glyph glyph-name="uni0313" unicode="&#x313;" 
d="M-23 1368l52 244h309l-53 -250q-44 -199 -297 -199h-56l25 117h55q76 0 92 78l2 10h-129z" />
    <glyph glyph-name="dotbelowcomb" unicode="&#x323;" 
d="M-51 -401h-355l62 295h356z" />
    <glyph glyph-name="uni0324" unicode="&#x324;" 
d="M-283 -401h-354l64 295h354zM176 -401h-356l63 295h357z" />
    <glyph glyph-name="uni0325" unicode="&#x325;" 
d="M43 -631q-95 -86 -236 -86q-138 0 -235 86q-92 86 -92 219q0 136 92 219q98 87 235 87q138 0 236 -87q92 -83 92 -219q0 -133 -92 -219zM-276 -492q51 -53 128 -23q76 30 72 103q0 50 -34 81q-35 32 -83 32q-47 0 -82 -32q-34 -31 -34 -81q0 -47 33 -80z" />
    <glyph glyph-name="uni0326" unicode="&#x326;" 
d="M-383 -332l51 244h309l-53 -250q-44 -199 -297 -199h-55l25 117h55q76 0 92 78l2 10h-129z" />
    <glyph glyph-name="uni0327" unicode="&#x327;" 
d="M-141 -88q104 0 157 -53t35 -133q-17 -80 -104 -126q-88 -46 -232 -46q-108 0 -182 14l27 123q43 -8 133 -8q103 0 119 67q8 38 -19 59t-84 21q-27 0 -47 -2l16 78l105 104h145l-106 -100q10 2 37 2z" />
    <glyph glyph-name="uni0328" unicode="&#x328;" 
d="M-162 -426q-132 0 -200 65t-50 160q16 66 80 117q69 55 174 84h252q-214 -85 -229 -162q-8 -40 18 -58q28 -20 70 -20q38 0 92 13l-39 -183q-67 -16 -168 -16z" />
    <glyph glyph-name="uni032E" unicode="&#x32e;" 
d="M-170 -412q-159 0 -250 80q-90 80 -98 226h264q11 -97 107 -97q84 0 131 97h264q-47 -146 -158 -226q-112 -80 -260 -80z" />
    <glyph glyph-name="uni0331" unicode="&#x331;" 
d="M154 -342h-727l51 236h727z" />
    <glyph glyph-name="uni0335" unicode="&#x335;" 
d="M338 455h-746l41 194h746z" />
    <glyph glyph-name="uni0337" unicode="&#x337;" 
d="M455 1030l-1004 -1118l-123 108l1004 1119z" />
    <glyph glyph-name="uni0338" unicode="&#x338;" 
d="M653 1434l-1368 -1545l-151 136l1368 1544z" />
    <glyph glyph-name="uni0394" unicode="&#x394;" horiz-adv-x="1443" 
d="M391 1458h492l432 -1120v-338h-1342v338zM565 864l-178 -506h498l-180 506q-57 170 -70 221q-13 -51 -70 -221z" />
    <glyph glyph-name="uni03A9" unicode="&#x3a9;" horiz-adv-x="1636" 
d="M731 0h-704v352h278v6q-266 192 -266 500q0 285 203 461q198 174 553 174q361 0 567 -174q207 -175 207 -461q0 -305 -264 -500v-6h276v-352h-700v313q131 57 201 174q71 118 71 275q0 181 -92 279t-254 98q-164 0 -257 -98q-93 -97 -93 -279q0 -157 71 -274
q71 -118 203 -175v-313z" />
    <glyph glyph-name="uni03BC" unicode="&#x3bc;" horiz-adv-x="1452" 
d="M883 471v586h377v-1057h-369v139q-122 -164 -318 -164h-10v-376h-368v1458h378v-604q0 -158 144 -158q73 0 119 46q47 47 47 130z" />
    <glyph glyph-name="pi" unicode="&#x3c0;" horiz-adv-x="1581" 
d="M1454 1057v-266h-149v-467q0 -64 57 -64q45 0 65 2v-262q-81 -10 -178 -10q-191 0 -254 67q-67 67 -67 238v496h-269v-791h-376v791h-150v266h1321z" />
    <glyph glyph-name="d.sups" unicode="&#x1d48;" horiz-adv-x="1017" 
d="M842 1352l98 452h330l-273 -1267h-319l16 81q-96 -102 -239 -102q-189 0 -285 146q-94 140 -41 391q44 202 161 312q120 112 304 112q185 0 248 -125zM582 774q74 0 117 51q46 53 69 162q24 116 -12 173q-38 59 -121 59q-71 0 -116 -51q-44 -50 -66 -154
q-24 -120 10 -179q35 -61 119 -61z" />
    <glyph glyph-name="t.sups" unicode="&#x1d57;" horiz-adv-x="647" 
d="M782 1225h-168l-71 -338q-23 -105 78 -105h69l-53 -241q-68 -9 -117 -9q-381 0 -303 361l70 332h-131l51 233h129l59 277h328l-59 -277h170z" />
    <glyph glyph-name="Wgrave" unicode="&#x1e80;" horiz-adv-x="2062" 
d="M1274 1841l119 -295h-283l-205 295h369zM1642 1038l183 420h432l-703 -1458h-458l2 432q1 215 14 533q-76 -201 -213 -533l-182 -432h-459l-84 1458h424l6 -420q6 -302 -2 -585q84 228 234 585l174 420h403l-2 -420q-5 -340 -16 -583q88 217 247 583z" />
    <glyph glyph-name="wgrave" unicode="&#x1e81;" horiz-adv-x="1816" 
d="M1128 1458l58 -295h-283l-143 295h368zM1372 768l141 289h412l-567 -1057h-397l-25 365q-8 114 -14 258q-51 -117 -119 -258l-180 -365h-398l-116 1057h395l18 -289l2 -40q3 -40 5 -75q2 -33 5 -73.5t3 -49.5q0 -30 1 -55q1 -37 3 -55q114 254 159 350l138 287h342
l14 -287q0 -15 1.5 -62.5t4 -126.5t4.5 -163q25 58 168 350z" />
    <glyph glyph-name="Wacute" unicode="&#x1e82;" horiz-adv-x="2062" 
d="M1276 1841h403l-329 -295h-310zM1642 1038l183 420h432l-703 -1458h-458l2 432q1 215 14 533q-76 -201 -213 -533l-182 -432h-459l-84 1458h424l6 -420q6 -302 -2 -585q84 228 234 585l174 420h403l-2 -420q-5 -340 -16 -583q88 217 247 583z" />
    <glyph glyph-name="wacute" unicode="&#x1e83;" horiz-adv-x="1816" 
d="M1030 1458h369l-266 -295h-283zM1372 768l141 289h412l-567 -1057h-397l-25 365q-8 114 -14 258q-51 -117 -119 -258l-180 -365h-398l-116 1057h395l18 -289l2 -40q3 -40 5 -75q2 -33 5 -73.5t3 -49.5q0 -30 1 -55q1 -37 3 -55q114 254 159 350l138 287h342l14 -287
q0 -15 1.5 -62.5t4 -126.5t4.5 -163q25 58 168 350z" />
    <glyph glyph-name="Wdieresis" unicode="&#x1e84;" horiz-adv-x="2062" 
d="M895 1841h356l-63 -295h-357zM1354 1841h354l-63 -295h-355zM1642 1038l183 420h432l-703 -1458h-458l2 432q1 215 14 533q-76 -201 -213 -533l-182 -432h-459l-84 1458h424l6 -420q6 -302 -2 -585q84 228 234 585l174 420h403l-2 -420q-5 -340 -16 -583q88 217 247 583z
" />
    <glyph glyph-name="wdieresis" unicode="&#x1e85;" horiz-adv-x="1816" 
d="M662 1458h356l-64 -295h-356zM1120 1458h355l-64 -295h-354zM1372 768l141 289h412l-567 -1057h-397l-25 365q-8 114 -14 258q-51 -117 -119 -258l-180 -365h-398l-116 1057h395l18 -289l2 -40q3 -40 5 -75q2 -33 5 -73.5t3 -49.5q0 -30 1 -55q1 -37 3 -55
q114 254 159 350l138 287h342l14 -287q0 -15 1.5 -62.5t4 -126.5t4.5 -163q25 58 168 350z" />
    <glyph glyph-name="uni1E9E" unicode="&#x1e9e;" horiz-adv-x="1501" 
d="M1581 1421l-57 -272l-316 -309q144 -50 204 -165q61 -117 28 -272q-88 -413 -652 -413q-97 0 -227 10l68 317q135 -4 174 -4q105 0 161 28q54 27 66 93q15 73 -38 114q-52 40 -158 40h-121l51 237l354 330q-94 12 -200 12q-160 0 -242 -64t-109 -190l-194 -913h-406
l191 899q61 286 277 439t546 153q293 0 600 -70z" />
    <glyph glyph-name="Ygrave" unicode="&#x1ef2;" horiz-adv-x="1466" 
d="M985 1841l119 -295h-283l-205 295h369zM1094 1296l123 162h458l-725 -897l-119 -561h-409l119 561l-353 897h451l59 -164q4 -9 127 -356q62 86 269 358z" />
    <glyph glyph-name="ygrave" unicode="&#x1ef3;" horiz-adv-x="1183" 
d="M907 1163h-282l-144 295h369zM883 1012l22 45h393l-587 -1057q-91 -161 -170 -246q-75 -81 -195 -121q-117 -39 -313 -39q-41 0 -133 5l61 286h105q143 0 172 115q14 56 -9 229l-114 828h395l2 -43q34 -616 35 -731q169 399 336 729z" />
    <glyph glyph-name="thinspace" unicode="&#x2009;" horiz-adv-x="540" 
 />
    <glyph glyph-name="uni2011" unicode="&#x2011;" horiz-adv-x="731" 
d="M655 416h-628l65 313h629z" />
    <glyph glyph-name="endash" unicode="&#x2013;" horiz-adv-x="1079" 
d="M1012 416h-977l57 313h977z" />
    <glyph glyph-name="emdash" unicode="&#x2014;" horiz-adv-x="2021" 
d="M1958 416h-1917l68 313h1919z" />
    <glyph glyph-name="quoteleft" unicode="&#x2018;" horiz-adv-x="503" 
d="M639 1458l-37 -182q-101 0 -137 -25q-36 -26 -57 -127v-4h161l-77 -368h-381l79 376q39 182 142 256t307 74z" />
    <glyph glyph-name="quoteright" unicode="&#x2019;" horiz-adv-x="503" 
d="M182 1090l78 368h381l-80 -377q-39 -182 -141 -256q-101 -73 -307 -73l37 182q104 0 139 27q34 24 55 124v5h-162z" />
    <glyph glyph-name="quotesinglbase" unicode="&#x201a;" horiz-adv-x="503" 
d="M-45 0l78 369h381l-80 -377q-39 -182 -141 -256q-103 -74 -308 -74l37 182q100 0 139 25q35 29 56 127v4h-162z" />
    <glyph glyph-name="quotedblleft" unicode="&#x201c;" horiz-adv-x="989" 
d="M391 1124v-4h162l-78 -368h-381l80 376q39 182 141 256q103 74 308 74l-37 -182q-101 0 -137 -25q-37 -27 -58 -127zM1108 1458l-37 -182q-103 0 -137 -25q-36 -26 -57 -127v-4h161l-77 -368h-381l79 376q39 182 142 256t307 74z" />
    <glyph glyph-name="quotedblright" unicode="&#x201d;" horiz-adv-x="989" 
d="M182 1090l78 368h381l-80 -377q-39 -182 -141 -256q-101 -73 -307 -73l37 182q104 0 139 27q34 24 55 124v5h-162zM668 1090l77 368h381l-79 -377q-39 -182 -142 -256q-101 -73 -307 -73l37 182q105 0 139 27q34 24 55 124v5h-161z" />
    <glyph glyph-name="quotedblbase" unicode="&#x201e;" horiz-adv-x="989" 
d="M-49 0l78 369h381l-80 -377q-39 -182 -142 -256t-307 -74l37 182q100 0 139 25q35 29 56 127v4h-162zM436 0l78 369h381l-80 -377q-39 -182 -141 -256q-103 -74 -307 -74l36 182q101 0 140 25q34 28 55 127v4h-162z" />
    <glyph glyph-name="dagger" unicode="&#x2020;" horiz-adv-x="1269" 
d="M950 1057h412l-74 -344h-409l-215 -1012h-410l215 1012h-410l74 344h408l86 401h409z" />
    <glyph glyph-name="daggerdbl" unicode="&#x2021;" horiz-adv-x="1269" 
d="M1360 1057l-74 -344h-409l-58 -267h410l-74 -344h-407l-86 -401h-410l86 401h-412l74 344h410l57 267h-410l74 344h408l86 401h409l-86 -401h412z" />
    <glyph glyph-name="bullet" unicode="&#x2022;" horiz-adv-x="927" 
d="M762 229h-723l147 703h725z" />
    <glyph glyph-name="ellipsis" unicode="&#x2026;" horiz-adv-x="1687" 
d="M367 0h-418l86 406h418zM940 0h-418l86 406h418zM1513 0h-417l86 406h417z" />
    <glyph glyph-name="perthousand" unicode="&#x2030;" horiz-adv-x="2703" 
d="M455 596q-316 0 -316 307q0 70 21 166q89 406 424 406q315 0 315 -310q0 -71 -18 -161q-89 -408 -426 -408zM551 0h-229l1089 1458h229zM479 793q62 0 98 50q34 47 62 175q18 86 18 141q0 119 -94 119q-65 0 -101 -51q-37 -53 -61 -174q-18 -85 -18 -140q0 -120 96 -120z
M1374 -16q-315 0 -315 307q0 75 20 166q89 405 424 405q316 0 316 -309q0 -69 -19 -162q-88 -407 -426 -407zM2202 -16q-316 0 -316 307q0 70 21 166q88 405 424 405q315 0 315 -309q0 -73 -18 -162q-88 -407 -426 -407zM1399 180q61 0 97 50q35 49 63 176q18 86 18 141
q0 119 -94 119q-65 0 -102 -52q-36 -51 -60 -174q-18 -86 -18 -139q0 -121 96 -121zM2226 180q63 0 98 50t62 176q18 86 18 141q0 119 -94 119q-64 0 -101 -52q-37 -53 -61 -174q-18 -86 -18 -139q0 -121 96 -121z" />
    <glyph glyph-name="guilsinglleft" unicode="&#x2039;" horiz-adv-x="552" 
d="M141 725l408 285l-78 -344l-186 -131l133 -129l-66 -328l-289 284z" />
    <glyph glyph-name="guilsinglright" unicode="&#x203a;" horiz-adv-x="552" 
d="M135 682l66 328l288 -285l-77 -363l-408 -284l78 344l186 131z" />
    <glyph glyph-name="uni203D" unicode="&#x203d;" horiz-adv-x="1150" 
d="M758 1491q248 0 385 -113q135 -113 92 -309q-41 -179 -231 -287q-145 -84 -209 -131q-41 -35 -62 -127h-360l33 154l200 428h154l-2 -137q60 37 67 88q28 127 -120 127q-88 0 -132 -43t-65 -137h-379q51 258 201 372q151 115 428 115zM651 0h-418l86 406h418z" />
    <glyph glyph-name="fraction" unicode="&#x2044;" horiz-adv-x="671" 
d="M-51 0h-230l1090 1458h229z" />
    <glyph glyph-name="zero.sups" unicode="&#x2070;" horiz-adv-x="827" 
d="M555 1065q-190 0 -267 119q-77 120 -28 354q89 406 424 406q190 0 268 -120q78 -121 29 -351q-89 -408 -426 -408zM580 1262q63 0 98 50q33 48 61 175q29 147 12 202q-18 58 -87 58q-66 0 -102 -51t-60 -174q-28 -143 -10 -202q18 -58 88 -58z" />
    <glyph glyph-name="four.sups" unicode="&#x2074;" horiz-adv-x="796" 
d="M715 1927h252l-103 -485h99l-43 -199h-99l-35 -162h-247l34 162h-368l49 236zM670 1675l-240 -233h188z" />
    <glyph glyph-name="five.sups" unicode="&#x2075;" horiz-adv-x="737" 
d="M522 1065q-148 0 -239 73q-90 72 -82 189h225q0 -37 33 -59q34 -23 78 -23q103 0 125 105q12 65 -17 101q-28 36 -86 36q-74 0 -104 -53h-219l184 493h545l-41 -192h-363l-47 -119q62 31 129 31q132 0 199 -91q66 -90 39 -223q-23 -119 -120 -194q-95 -74 -239 -74z" />
    <glyph glyph-name="six.sups" unicode="&#x2076;" horiz-adv-x="757" 
d="M655 1647q140 0 206 -89t36 -227q-24 -115 -118 -191q-93 -75 -224 -75q-158 0 -244 86q-126 126 -63 401q90 392 416 392q132 0 214 -65q81 -65 87 -175h-222q-11 68 -102 68q-65 0 -107 -43t-57 -117l-6 -31q77 66 184 66zM682 1354q12 54 -17 88q-30 35 -81 35
q-109 0 -133 -99q-12 -58 20 -94q33 -37 90 -37q100 0 121 107z" />
    <glyph glyph-name="seven.sups" unicode="&#x2077;" horiz-adv-x="679" 
d="M528 1081h-258q40 190 145 361q105 172 242 293h-376l41 192h610l-41 -188q-133 -122 -223 -277q-89 -154 -140 -381z" />
    <glyph glyph-name="eight.sups" unicode="&#x2078;" horiz-adv-x="784" 
d="M524 1065q-171 0 -262 79t-63 212q28 135 182 180q-38 23 -58 77t-8 116q45 215 342 215q149 0 233 -73q83 -73 56 -190q-24 -110 -143 -155q133 -72 100 -232q-21 -100 -123 -165q-101 -64 -256 -64zM612 1595q106 0 121 82q21 99 -94 99q-99 0 -121 -78q-12 -47 16 -75
t78 -28zM541 1245q114 0 137 92q10 51 -19 82t-86 31q-123 0 -141 -96q-7 -49 23 -79t86 -30z" />
    <glyph glyph-name="nine.sups" unicode="&#x2079;" horiz-adv-x="757" 
d="M508 1063q-134 0 -214 64q-81 64 -87 176h221q11 -68 102 -68q125 0 164 160l6 30q-75 -65 -184 -65q-140 0 -206 89t-36 226q24 116 118 192q93 75 224 75q157 0 244 -87q127 -127 64 -401q-90 -391 -416 -391zM588 1530q109 0 133 98q12 57 -21 94t-90 37
q-100 0 -121 -106q-12 -53 18 -88t81 -35z" />
    <glyph glyph-name="plus.sups" unicode="&#x207a;" horiz-adv-x="665" 
d="M631 1602h192v-197h-192v-197h-219v197h-193v197h193v196h219v-196z" />
    <glyph glyph-name="minus.sups" unicode="&#x207b;" horiz-adv-x="665" 
d="M823 1405h-604v197h604v-197z" />
    <glyph glyph-name="parenleft.sups" unicode="&#x207d;" horiz-adv-x="395" 
d="M494 922h-232q-33 150 -33 276q0 116 35 305q38 177 92 306q50 121 156 284h231q-173 -287 -239 -590q-57 -262 -10 -581z" />
    <glyph glyph-name="parenright.sups" unicode="&#x207e;" horiz-adv-x="395" 
d="M299 922h-231q173 288 239 589q57 263 10 582h232q33 -150 33 -276q0 -117 -35 -306q-38 -177 -92 -306q-49 -118 -156 -283z" />
    <glyph glyph-name="n.sups" unicode="&#x207f;" horiz-adv-x="962" 
d="M809 1477q158 0 224 -105q67 -106 24 -299l-113 -536h-330l109 512q33 149 -102 149q-65 0 -105 -35q-39 -35 -57 -114l-109 -512h-327l194 919h320l-25 -110q137 131 297 131z" />
    <glyph glyph-name="zero.subs" unicode="&#x2080;" horiz-adv-x="827" 
d="M240 -418q-191 0 -268 119q-76 119 -27 354q89 406 424 406q190 0 268 -120q78 -121 29 -351q-88 -408 -426 -408zM264 -221q63 0 98 50t62 175q29 145 11 202q-18 58 -87 58q-65 0 -101 -51q-37 -53 -61 -174q-28 -143 -10 -202q18 -58 88 -58z" />
    <glyph glyph-name="one.subs" unicode="&#x2081;" horiz-adv-x="520" 
d="M219 444h195l-181 -845h-247l108 516h-178l37 172q182 0 266 157z" />
    <glyph glyph-name="two.subs" unicode="&#x2082;" horiz-adv-x="749" 
d="M514 -401h-674l25 88q72 248 321 354l76 33q78 35 105 54q30 21 36 48q18 88 -73 88q-103 0 -125 -114h-230q72 307 383 307q154 0 233 -76q78 -75 48 -205q-18 -85 -86 -144q-67 -58 -207 -120l-61 -27q-98 -44 -121 -94h391z" />
    <glyph glyph-name="three.subs" unicode="&#x2083;" horiz-adv-x="765" 
d="M227 -418q-182 0 -268 86t-65 242h227q-21 -131 119 -131q88 0 106 74q21 100 -92 100h-66l37 166h66q103 0 121 74q11 41 -14 62q-24 21 -74 21q-102 0 -125 -96h-226q35 147 124 214q90 67 249 67q153 0 237 -70q83 -69 60 -180q-12 -57 -55 -103q-44 -48 -109 -71
q64 -21 91 -76q28 -58 12 -135q-53 -244 -355 -244z" />
    <glyph glyph-name="four.subs" unicode="&#x2084;" horiz-adv-x="796" 
d="M399 444h252l-102 -485h98l-43 -199h-98l-35 -161h-248l35 161h-369l50 236zM354 193l-239 -234h188z" />
    <glyph glyph-name="five.subs" unicode="&#x2085;" horiz-adv-x="737" 
d="M207 -418q-149 0 -240 73q-90 72 -82 189h226q0 -37 32 -59q34 -23 78 -23q103 0 125 105q12 66 -16 101q-28 36 -86 36q-75 0 -105 -53h-219l184 493h545l-41 -192h-362l-47 -119q62 31 129 31q132 0 198 -90t39 -224q-23 -119 -120 -194q-95 -74 -238 -74z" />
    <glyph glyph-name="six.subs" unicode="&#x2086;" horiz-adv-x="757" 
d="M342 164q140 0 206 -89t36 -227q-24 -115 -118 -191q-93 -75 -224 -75q-158 0 -244 86q-127 127 -64 402q90 391 416 391q132 0 214 -65q81 -65 87 -175h-221q-8 68 -102 68q-66 0 -108 -43q-41 -42 -56 -117l-6 -31q76 66 184 66zM369 -129q12 53 -18 88t-81 35
q-109 0 -133 -98q-12 -57 21 -95q33 -37 90 -37q100 0 121 107z" />
    <glyph glyph-name="seven.subs" unicode="&#x2087;" horiz-adv-x="679" 
d="M213 -401h-258q41 191 144 360q104 171 243 293h-377l41 192h610l-41 -188q-137 -125 -223 -279q-88 -156 -139 -378z" />
    <glyph glyph-name="eight.subs" unicode="&#x2088;" horiz-adv-x="784" 
d="M209 -418q-171 0 -262 79q-92 80 -64 212q28 135 183 180q-39 24 -59 77q-19 52 -7 116q45 215 342 215q148 0 232 -73t57 -189q-24 -110 -144 -156q134 -72 101 -231q-21 -100 -123 -165q-103 -65 -256 -65zM297 113q106 0 121 82q21 98 -94 98q-98 0 -121 -78
q-12 -48 15 -75t79 -27zM225 -238q114 0 137 93q11 52 -18 82q-28 30 -86 30q-123 0 -141 -96q-7 -49 22 -79q30 -30 86 -30z" />
    <glyph glyph-name="nine.subs" unicode="&#x2089;" horiz-adv-x="757" 
d="M193 -420q-133 0 -215 65q-81 65 -87 175h222q11 -68 102 -68q125 0 164 160l6 31q-77 -66 -184 -66q-140 0 -206 89t-36 227q24 115 118 191q93 75 224 75q158 0 244 -86q126 -126 63 -402q-90 -391 -415 -391zM272 47q110 0 134 98q12 57 -21 95q-32 36 -90 36
q-100 0 -121 -106q-12 -54 17 -88q30 -35 81 -35z" />
    <glyph glyph-name="plus.subs" unicode="&#x208a;" horiz-adv-x="665" 
d="M330 119h192v-197h-192v-196h-219v196h-193v197h193v196h219v-196z" />
    <glyph glyph-name="minus.subs" unicode="&#x208b;" horiz-adv-x="665" 
d="M522 -78h-604v197h604v-197z" />
    <glyph glyph-name="equal.subs" unicode="&#x208c;" horiz-adv-x="665" 
d="M526 63h-604v197h604v-197zM526 -217h-604v197h604v-197z" />
    <glyph glyph-name="uni208D" unicode="&#x208d;" horiz-adv-x="395" 
d="M168 -565h-231q-33 150 -33 276q0 116 35 305q39 180 92 307q51 122 155 283h232q-178 -294 -240 -590q-57 -262 -10 -581z" />
    <glyph glyph-name="uni208E" unicode="&#x208e;" horiz-adv-x="395" 
d="M-8 -565h-232q174 290 240 590q57 262 10 581h232q32 -145 32 -276q0 -122 -34 -305q-38 -175 -93 -307q-51 -122 -155 -283z" />
    <glyph glyph-name="n.subs" unicode="&#x2099;" horiz-adv-x="962" 
d="M610 539q159 0 225 -105t23 -299l-113 -536h-329l108 512q33 149 -102 149q-65 0 -105 -35q-39 -35 -57 -114l-108 -512h-328l194 919h320l-25 -110q137 131 297 131z" />
    <glyph glyph-name="Euro" unicode="&#x20ac;" horiz-adv-x="1579" 
d="M825 301q220 0 320 227h401q-39 -114 -93 -203q-60 -98 -144 -179q-87 -84 -222 -134q-132 -49 -296 -49q-259 0 -416 138q-157 137 -178 391h-201l35 159h168q6 68 24 152h-162l35 160h174q94 249 290 389q194 139 456 139q157 0 274 -45t185 -125q66 -77 101 -179
q33 -96 38 -220h-391q-15 227 -248 227q-197 0 -285 -186h307l-34 -160h-328q0 -4 -4 -23q-15 -56 -21 -129h322l-35 -159h-289q27 -191 217 -191z" />
    <glyph glyph-name="uni20B8" unicode="&#x20b8;" horiz-adv-x="1310" 
d="M141 1094l78 364h1270l-78 -364h-1270zM98 893h1270l-78 -365h-430l-112 -528h-410l113 528h-431z" />
    <glyph glyph-name="uni20B9" unicode="&#x20b9;" horiz-adv-x="1282" 
d="M1413 1458l-33 -160h-317q80 -92 86 -225h186l-32 -160h-173q-46 -180 -195 -282q-149 -103 -368 -113l398 -518h-486l-399 532l24 111l23 102h303q226 0 295 168h-561l33 160h555q-12 170 -232 170h-289l45 215h1137z" />
    <glyph glyph-name="uni20BA" unicode="&#x20ba;" horiz-adv-x="1394" 
d="M1004 762h419q-77 -366 -316 -563q-241 -199 -626 -199h-409l129 600l-178 -68l36 179l179 67l28 137l-178 -67l39 178l178 68l78 364h410l-41 -194l344 131l-37 -178l-346 -132l-29 -137l344 131l-37 -178l-346 -131l-88 -416q168 1 287 110q120 109 160 298z" />
    <glyph glyph-name="uni20BC" unicode="&#x20bc;" horiz-adv-x="1679" 
d="M1237 1458l-74 -350q259 -4 378 -161q118 -156 58 -425l-116 -522h-398l115 535q40 198 -113 225l-135 -639h-399l137 645h-4q-85 0 -131 -44q-45 -44 -68 -149l-120 -573h-400l127 610q51 245 200 372q149 126 421 126h49l74 350h399z" />
    <glyph glyph-name="uni20BF" unicode="&#x20bf;" horiz-adv-x="1421" 
d="M1442 1057q-44 -210 -258 -283q102 -50 150 -156q48 -107 26 -223q-39 -181 -165 -279t-357 -114l-52 -240h-151l51 238h-184l-51 -238h-152l51 238h-358l309 1458h358l50 238h151l-49 -238h162h22l49 238h152l-53 -254q174 -34 252 -138q77 -102 47 -247zM1028 1010
q12 60 -18 94q-30 35 -92 35h-275l-53 -250h272q66 0 111 33t55 88zM950 444q15 69 -21 107q-36 37 -110 37h-293l-57 -266h319q134 0 162 122z" />
    <glyph glyph-name="uni2105" unicode="&#x2105;" horiz-adv-x="2088" 
d="M526 608q-202 0 -309 129q-108 129 -57 361q39 183 169 288q131 105 320 105q166 0 271 -87q104 -86 104 -243h-250q-7 55 -51 85q-43 30 -100 30q-168 0 -211 -205q-24 -116 17 -181q43 -67 128 -67q127 0 172 117h250q-108 -332 -453 -332zM680 0h-229l1089 1458h229z
M1522 -18q-212 0 -324 129q-112 127 -63 352q39 181 172 291q132 110 323 110q206 0 318 -129q112 -128 67 -352q-41 -191 -170 -296t-323 -105zM1548 199q168 0 215 213q23 111 -23 173t-138 62q-166 0 -213 -207q-24 -114 20 -177q45 -64 139 -64z" />
    <glyph glyph-name="uni2113" unicode="&#x2113;" horiz-adv-x="1077" 
d="M901 336l107 -166q-77 -85 -189 -134q-114 -50 -237 -50q-167 0 -261 107q-96 110 -96 292v29q-89 -11 -164 -15l-36 174q111 6 200 23v442q0 216 107 335q106 118 307 118q169 0 257 -96q89 -97 89 -279q0 -416 -387 -600v-104q0 -152 102 -152q106 0 201 76zM596 1038
v-295q166 133 166 357q0 106 -72 106q-94 0 -94 -168z" />
    <glyph glyph-name="uni2116" unicode="&#x2116;" horiz-adv-x="2435" 
d="M2132 1481q185 0 295 -96q108 -95 108 -265q0 -216 -141 -379q-145 -163 -385 -163q-188 0 -295 94q-108 94 -108 264q0 211 141 379q136 166 385 166zM1184 1221l51 237h389l-311 -1458h-424l-199 518q-94 239 -129 377q-55 -321 -129 -657l-51 -238h-389l311 1458h424
l199 -518q95 -252 129 -379q57 325 129 660zM2044 856q78 0 127 59t49 156q0 131 -121 131q-77 0 -127 -60q-49 -59 -49 -155q0 -61 33 -96t88 -35z" />
    <glyph glyph-name="uni2117" unicode="&#x2117;" horiz-adv-x="1648" 
d="M307 1272q225 219 557 219q334 0 559 -219q226 -221 226 -543q0 -320 -226 -541q-224 -221 -559 -221q-331 0 -557 221q-225 220 -225 541q0 323 225 543zM496 362q146 -147 370 -147q226 0 373 147q145 145 145 367q0 220 -145 369q-149 145 -373 145q-225 0 -370 -145
q-148 -148 -148 -369t148 -367zM596 1102h330q139 0 226 -81t87 -206t-87 -207q-86 -82 -226 -82h-90v-172h-240v748zM836 737h75q88 0 88 78q0 33 -22 54q-24 22 -66 22h-75v-154z" />
    <glyph glyph-name="trademark" unicode="&#x2122;" horiz-adv-x="1413" 
d="M240 1458h460v-145h-149v-383h-160v383h-151v145zM1087 1257l52 201h233v-528h-151v153q0 120 2 170q-10 -44 -13 -47l-75 -276h-129l-76 276l-10 41q2 -46 2 -164v-153h-154v528h233l52 -201l18 -71q2 28 16 71z" />
    <glyph glyph-name="uni2126" unicode="&#x2126;" horiz-adv-x="1636" 
d="M731 0h-704v352h278v6q-266 192 -266 500q0 285 203 461q198 174 553 174q361 0 567 -174q207 -175 207 -461q0 -305 -264 -500v-6h276v-352h-700v313q131 57 201 174q71 118 71 275q0 181 -92 279t-254 98q-164 0 -257 -98q-93 -97 -93 -279q0 -157 71 -274
q71 -118 203 -175v-313z" />
    <glyph glyph-name="estimated" unicode="&#x212e;" horiz-adv-x="1865" 
d="M330 1276q224 215 604 215q379 0 604 -225q223 -224 223 -557h-1323q-28 0 -28 -27v-360q0 -68 32 -97q200 -196 492 -196q153 0 290 64t226 171h149q-89 -126 -263 -209q-171 -82 -402 -82q-373 0 -602 213q-230 212 -230 543q0 328 228 547zM934 1434q-291 0 -492 -201
q-32 -29 -32 -90v-361q0 -26 28 -26h985q29 0 29 26v361q0 60 -33 90q-205 201 -485 201z" />
    <glyph glyph-name="uni2153" unicode="&#x2153;" horiz-adv-x="1564" 
d="M307 0h-229l1089 1458h230zM438 612h-233l110 529h-180l33 157q181 0 266 160h182zM1112 -16q-182 0 -268 86q-87 87 -66 241h228q-21 -131 118 -131q89 0 107 74q21 100 -92 100h-66l37 166h66q102 0 120 74q11 41 -13 62q-25 22 -75 22q-102 0 -125 -96h-225
q35 147 124 214q88 66 249 66q153 0 236 -69q84 -70 61 -181q-12 -57 -55 -103q-44 -48 -109 -71q64 -21 91 -76q27 -56 11 -135q-52 -243 -354 -243z" />
    <glyph glyph-name="uni2154" unicode="&#x2154;" horiz-adv-x="1880" 
d="M729 612h-674l25 88q73 249 321 355l76 32q74 33 105 55q30 21 36 48q18 88 -73 88q-102 0 -125 -115h-230q72 307 383 307q155 0 233 -75t48 -205q-18 -85 -86 -144q-68 -58 -207 -120l-61 -27q-98 -44 -121 -94h391zM596 0h-229l1089 1458h230zM1427 -16
q-182 0 -268 86t-65 241h227q-21 -131 119 -131q88 0 106 74q21 100 -92 100h-65l36 166h66q103 0 121 74q11 41 -14 62q-25 22 -74 22q-102 0 -125 -96h-225q35 148 123 214q89 66 249 66q155 0 237 -69q83 -69 60 -181q-12 -57 -55 -103q-44 -48 -109 -71q64 -21 91 -76
q28 -58 12 -135q-53 -243 -355 -243z" />
    <glyph glyph-name="uni2155" unicode="&#x2155;" horiz-adv-x="1632" 
d="M307 0h-229l1089 1458h230zM438 612h-233l110 529h-180l33 157q181 0 266 160h182zM1184 -16q-150 0 -240 72t-82 190h225q0 -38 33 -60q32 -22 78 -22q104 0 125 104q12 67 -16 102q-29 36 -86 36q-74 0 -105 -54h-219l184 494h545l-41 -193h-362l-47 -118q57 30 129 30
q132 0 198 -90t39 -223q-24 -120 -120 -195q-94 -73 -238 -73z" />
    <glyph glyph-name="uni2156" unicode="&#x2156;" horiz-adv-x="1927" 
d="M729 612h-674l25 88q73 249 321 355l76 32q74 33 105 55q30 21 36 48q18 88 -73 88q-102 0 -125 -115h-230q72 307 383 307q155 0 233 -75t48 -205q-18 -85 -86 -144q-68 -58 -207 -120l-61 -27q-98 -44 -121 -94h391zM596 0h-229l1089 1458h230zM1479 -16
q-150 0 -240 72t-82 190h225q0 -38 33 -60q32 -22 78 -22q104 0 125 104q12 67 -16 102q-28 36 -86 36q-74 0 -105 -54h-219l184 494h545l-41 -193h-362l-48 -118q57 30 129 30q133 0 199 -90t39 -223q-24 -120 -120 -195q-94 -73 -238 -73z" />
    <glyph glyph-name="uni2157" unicode="&#x2157;" horiz-adv-x="1878" 
d="M442 596q-182 0 -268 86t-65 242h227q-21 -131 119 -131q88 0 106 73q21 101 -92 101h-66l37 166h66q103 0 121 73q11 41 -14 63q-24 21 -74 21q-103 0 -125 -96h-226q35 147 124 214q90 67 249 67q153 0 237 -70q82 -69 60 -180q-12 -58 -55 -104t-109 -70
q64 -21 91 -76q28 -58 12 -135q-53 -244 -355 -244zM549 0h-230l1090 1458h229zM1430 -16q-150 0 -240 72t-82 190h225q0 -38 33 -60q32 -22 78 -22q104 0 125 104q12 65 -17 102q-28 36 -86 36q-73 0 -104 -54h-219l184 494h545l-41 -193h-363l-47 -118q57 30 129 30
q133 0 199 -90t39 -223q-24 -120 -120 -195q-94 -73 -238 -73z" />
    <glyph glyph-name="uni2158" unicode="&#x2158;" horiz-adv-x="1912" 
d="M686 612h-248l35 162h-369l50 236l460 448h252l-102 -485h98l-43 -199h-98zM352 0l1090 1458h229l-1089 -1458h-230zM569 1206l-239 -233h188zM1907 846l-41 -193h-363l-47 -118q60 30 129 30q133 0 199 -90t39 -223q-24 -120 -120 -195q-94 -73 -239 -73q-149 0 -239 72
t-82 190h225q0 -38 33 -60q32 -22 78 -22q103 0 125 104q12 65 -17 102q-29 36 -86 36q-73 0 -104 -54h-219l184 494h545z" />
    <glyph glyph-name="uni2159" unicode="&#x2159;" horiz-adv-x="1591" 
d="M86 0l1090 1458h229l-1090 -1458h-229zM438 612h-233l110 529h-180l33 157q181 0 266 160h182zM1251 565q140 0 206 -89t36 -226q-24 -116 -118 -192q-92 -74 -224 -74q-158 0 -244 86q-129 127 -63 401q90 391 416 391q134 0 214 -64q81 -65 87 -175h-222q-7 67 -102 67
q-123 0 -164 -160l-6 -30q75 65 184 65zM1278 272q12 54 -17 88q-30 35 -81 35q-109 0 -133 -98q-12 -58 20 -94q33 -37 90 -37q100 0 121 106z" />
    <glyph glyph-name="uni215A" unicode="&#x215a;" horiz-adv-x="1757" 
d="M780 864q-23 -119 -120 -194q-95 -74 -238 -74q-149 0 -240 73q-90 72 -82 189h226q0 -37 32 -59q34 -23 78 -23q104 0 125 105q12 66 -16 101q-29 36 -86 36q-75 0 -105 -53h-219l184 493h545l-41 -192h-362l-47 -119q59 31 129 31q131 0 198 -91q66 -90 39 -223zM252 0
l1089 1458h230l-1090 -1458h-229zM1427 565q140 0 206 -89t36 -226q-24 -116 -118 -192q-92 -74 -224 -74q-158 0 -244 86q-129 127 -63 401q90 391 416 391q134 0 214 -64q81 -65 87 -175h-221q-7 67 -103 67q-123 0 -164 -160l-6 -30q75 65 184 65zM1454 272q12 54 -17 88
q-30 35 -81 35q-109 0 -133 -98q-12 -58 20 -94q33 -37 90 -37q100 0 121 106z" />
    <glyph glyph-name="oneeighth" unicode="&#x215b;" horiz-adv-x="1601" 
d="M307 0h-229l1089 1458h230zM438 612h-233l110 529h-180l33 157q181 0 266 160h182zM1112 -16q-172 0 -262 78q-92 80 -64 212q29 136 183 181q-40 25 -59 76q-19 52 -7 116q45 215 342 215q151 0 233 -72q83 -73 56 -190q-24 -111 -143 -156q133 -72 100 -231
q-21 -101 -123 -165q-101 -64 -256 -64zM1200 514q106 0 121 82q22 98 -94 98q-99 0 -121 -78q-12 -47 15 -74q28 -28 79 -28zM1128 164q117 0 138 92q10 51 -19 82t-86 31q-123 0 -141 -97q-7 -49 22 -78q30 -30 86 -30z" />
    <glyph glyph-name="threeeighths" unicode="&#x215c;" horiz-adv-x="1832" 
d="M442 596q-182 0 -268 86t-65 242h227q-21 -131 119 -131q88 0 106 73q21 101 -92 101h-66l37 166h66q103 0 121 73q11 41 -14 63q-24 21 -74 21q-103 0 -125 -96h-226q35 147 124 214q90 67 249 67q153 0 237 -70q82 -69 60 -180q-12 -58 -55 -104t-109 -70
q64 -21 91 -76q28 -58 12 -135q-53 -244 -355 -244zM539 0h-230l1090 1458h229zM1343 -16q-172 0 -262 78q-91 79 -63 212q29 136 182 181q-39 24 -58 76t-7 116q45 215 342 215q149 0 232 -72q83 -73 56 -190q-24 -111 -143 -156q133 -72 100 -231q-21 -101 -123 -165
q-101 -64 -256 -64zM1432 514q105 0 120 82q21 98 -94 98q-98 0 -121 -78q-12 -46 16 -74t79 -28zM1360 164q114 0 137 92q11 52 -18 82q-29 31 -86 31q-124 0 -142 -97q-7 -48 23 -78t86 -30z" />
    <glyph glyph-name="fiveeighths" unicode="&#x215d;" horiz-adv-x="1781" 
d="M422 596q-149 0 -240 73q-90 72 -82 189h226q0 -37 32 -59q34 -23 78 -23q104 0 125 105q12 66 -16 101q-29 36 -86 36q-75 0 -105 -53h-219l184 493h545l-41 -192h-362l-47 -119q59 31 129 31q131 0 198 -91q66 -90 39 -223q-23 -119 -120 -194q-95 -74 -238 -74zM487 0
h-229l1090 1458h229zM1292 -16q-172 0 -262 78q-91 79 -63 212q29 136 182 181q-39 24 -58 76q-20 54 -8 116q47 215 342 215q151 0 233 -72q83 -73 56 -190q-24 -111 -143 -156q133 -72 100 -231q-21 -101 -123 -165q-101 -64 -256 -64zM1380 514q106 0 121 82
q22 98 -94 98q-99 0 -121 -78q-12 -46 16 -74t78 -28zM1309 164q116 0 137 92q10 51 -19 82t-86 31q-123 0 -141 -97q-7 -48 23 -78t86 -30z" />
    <glyph glyph-name="seveneighths" unicode="&#x215e;" horiz-adv-x="1632" 
d="M328 0h-230l1090 1458h229zM428 612h-258q41 192 144 361q104 171 243 293h-377l41 192h610l-40 -188q-135 -124 -224 -277q-88 -152 -139 -381zM1143 -16q-172 0 -262 78q-92 80 -64 212q29 136 182 181q-39 24 -58 76t-7 116q45 215 342 215q150 0 232 -72
q84 -73 57 -190q-24 -110 -144 -156q134 -72 101 -231q-21 -101 -123 -165q-101 -64 -256 -64zM1231 514q106 0 121 82q21 98 -95 98q-97 0 -120 -78q-12 -47 15 -74q28 -28 79 -28zM1159 164q114 0 137 92q11 52 -18 82q-29 31 -86 31q-123 0 -141 -97q-7 -49 22 -78
q30 -30 86 -30z" />
    <glyph glyph-name="arrowleft" unicode="&#x2190;" horiz-adv-x="1957" 
d="M881 905h884v-352h-882q76 -91 168 -215l252 -338h-478l-551 729l551 729h478l-252 -338q-96 -130 -170 -215z" />
    <glyph glyph-name="arrowup" unicode="&#x2191;" horiz-adv-x="1957" 
d="M291 940l729 551l729 -551v-457l-338 254q-72 52 -199 156v-893h-389v889q-127 -103 -194 -152l-338 -254v457z" />
    <glyph glyph-name="arrowright" unicode="&#x2192;" horiz-adv-x="1957" 
d="M737 1458h477l551 -729l-551 -729h-477l252 338q92 124 168 215h-883v352h885q-74 85 -170 215z" />
    <glyph glyph-name="arrowdown" unicode="&#x2193;" horiz-adv-x="1957" 
d="M1411 721l338 254v-457l-729 -551l-729 551v457l338 -254q67 -49 194 -152v889h389v-893q127 104 199 156z" />
    <glyph glyph-name="arrowboth" unicode="&#x2194;" horiz-adv-x="1957" 
d="M1139 1458h409l451 -729l-451 -729h-411l204 330q123 200 144 227h-930q58 -89 141 -227l199 -330h-401l-453 729l451 729h407l-205 -336q-76 -131 -135 -217h922q-64 92 -135 211z" />
    <glyph glyph-name="arrowupdn" unicode="&#x2195;" horiz-adv-x="1957" 
d="M1212 1184v-910q82 69 199 156l338 254v-457l-729 -551l-729 551v457l338 -254q79 -57 194 -151v901q-127 -103 -194 -152l-338 -254v457l729 551l729 -551v-457l-338 254q-117 87 -199 156z" />
    <glyph glyph-name="uni2196" unicode="&#x2196;" horiz-adv-x="1957" 
d="M1737 1036h-500q-186 0 -266 2l708 -686l-254 -274l-712 690q2 -76 2 -262v-486l-369 336v1033h1051z" />
    <glyph glyph-name="uni2197" unicode="&#x2197;" horiz-adv-x="1957" 
d="M303 1036l340 353h1051v-1033l-369 -336v486q0 186 2 262l-713 -690l-254 274l709 686q-80 -2 -266 -2h-500z" />
    <glyph glyph-name="uni2198" unicode="&#x2198;" horiz-adv-x="1957" 
d="M1325 965v485l369 -336v-1032h-1051l-340 352h500q186 0 266 -2l-709 686l254 275l713 -691q-2 76 -2 263z" />
    <glyph glyph-name="uni2199" unicode="&#x2199;" horiz-adv-x="1957" 
d="M1237 442h500l-340 -352h-1051v1032l369 336v-485q0 -186 -2 -262l712 690l254 -275l-708 -686q80 2 266 2z" />
    <glyph glyph-name="partialdiff" unicode="&#x2202;" horiz-adv-x="1257" 
d="M782 1491q234 0 365 -129t131 -371q0 -282 -90 -522q-89 -235 -260 -369q-173 -133 -404 -133q-212 0 -356 123q-143 122 -143 338q0 220 157 381q158 158 391 158q229 0 324 -144q18 106 18 166q0 215 -167 215q-150 0 -203 -135h-371q66 203 224 312q160 110 384 110z
M559 276q94 0 166 78q70 78 70 183q0 67 -39 108t-111 41q-97 0 -166 -76t-69 -184q0 -68 39 -109t110 -41z" />
    <glyph glyph-name="uni2206" unicode="&#x2206;" horiz-adv-x="1443" 
d="M391 1458h492l432 -1120v-338h-1342v338zM565 864l-178 -506h498l-180 506q-57 170 -70 221q-13 -51 -70 -221z" />
    <glyph glyph-name="product" unicode="&#x220f;" horiz-adv-x="1525" 
d="M143 -401v1859h1321v-1859h-409v1499h-502v-1499h-410z" />
    <glyph glyph-name="summation" unicode="&#x2211;" horiz-adv-x="1323" 
d="M1053 -45h260v-361h-1221v308l563 626l-563 625v309h1200v-360h-239q-298 0 -424 2q186 -203 274 -303l133 -150v-245l-133 -150l-274 -305q168 4 424 4z" />
    <glyph glyph-name="minus" unicode="&#x2212;" horiz-adv-x="1079" 
d="M1071 573h-977v314h977v-314z" />
    <glyph glyph-name="uni2215" unicode="&#x2215;" horiz-adv-x="1079" 
d="M266 0h-370l917 1458h371z" />
    <glyph glyph-name="uni2219" unicode="&#x2219;" horiz-adv-x="1079" 
d="M782 485h-501l102 488h502z" />
    <glyph glyph-name="radical" unicode="&#x221a;" horiz-adv-x="1529" 
d="M934 610l237 848h410l-567 -1859h-500l-254 749h-199v361h486l26 -99q12 -43 71.5 -252.5t109.5 -388.5q16 57 81 289q79 279 99 352z" />
    <glyph glyph-name="infinity" unicode="&#x221e;" horiz-adv-x="1744" 
d="M1323 1159q185 0 299 -121q113 -122 113 -309q0 -188 -113 -307q-114 -123 -299 -123q-241 0 -410 225q-169 -225 -409 -225q-184 0 -297 123q-115 123 -115 307q0 183 115 309q114 121 297 121q240 0 409 -225q169 225 410 225zM524 561q119 0 230 168
q-111 168 -230 168q-64 0 -105 -47q-40 -46 -40 -121t40 -121q41 -47 105 -47zM1303 561q64 0 105 47q40 46 40 121t-40 121q-41 47 -105 47q-119 0 -230 -168q111 -168 230 -168z" />
    <glyph glyph-name="integral" unicode="&#x222b;" horiz-adv-x="888" 
d="M260 -416q-84 0 -168 15v276q33 -6 82 -6q123 0 123 98v1137q0 165 103 267q104 102 311 102q84 0 168 -15v-276q-35 6 -82 6q-123 0 -123 -98v-1137q0 -165 -104 -267t-310 -102z" />
    <glyph glyph-name="approxequal" unicode="&#x2248;" horiz-adv-x="1079" 
d="M317 766h-225q0 187 79 291t226 104q94 0 228 -61q93 -41 125 -41q44 0 64 23q23 26 30 79h225q0 -186 -79 -290q-80 -105 -224 -105q-95 0 -227 61q-93 41 -127 41q-45 0 -66 -21q-22 -22 -29 -81zM317 295h-225q0 187 79 291t226 104q94 0 228 -61q93 -41 125 -41
q44 0 64 23q23 26 30 79h225q0 -186 -79 -290q-80 -105 -224 -105q-95 0 -227 61q-93 41 -127 41q-45 0 -66 -21q-22 -22 -29 -81z" />
    <glyph glyph-name="notequal" unicode="&#x2260;" horiz-adv-x="1079" 
d="M1069 1087v-272h-348l-59 -172h407v-272h-502l-80 -236l-196 70l57 166h-256v272h350l60 172h-410v272h502l82 236l194 -72l-55 -164h254z" />
    <glyph glyph-name="lessequal" unicode="&#x2264;" horiz-adv-x="1079" 
d="M1069 1274v-301l-45 -15q-307 -99 -553 -167q226 -62 553 -168l45 -15v-301l-977 322v323zM1069 0h-977v272h977v-272z" />
    <glyph glyph-name="greaterequal" unicode="&#x2265;" horiz-adv-x="1079" 
d="M92 973v301l977 -322v-323l-977 -322v301l45 15q327 106 553 168q-246 68 -553 167zM1069 0h-977v272h977v-272z" />
    <glyph glyph-name="uni2460" unicode="&#x2460;" horiz-adv-x="1957" 
d="M524 1552q224 125 496 125t496 -125q226 -128 354 -344q129 -217 129 -479q0 -258 -129 -477q-131 -222 -354 -346q-224 -125 -496 -125t-496 125q-223 124 -354 346q-129 219 -129 477q0 261 129 479q128 216 354 344zM541 254q193 -193 481 -193t481 193
q195 190 195 475q0 282 -195 477q-193 191 -481 191t-481 -191q-195 -195 -195 -477q0 -285 195 -475zM975 1196h213v-932h-273v570h-196v188q205 0 256 174z" />
    <glyph glyph-name="uni2461" unicode="&#x2461;" horiz-adv-x="1957" 
d="M524 1552q224 125 496 125t496 -125q226 -128 354 -344q129 -217 129 -479q0 -258 -129 -477q-131 -222 -354 -346q-224 -125 -496 -125t-496 125q-223 124 -354 346q-129 219 -129 477q0 261 129 479q128 216 354 344zM541 254q193 -193 481 -193t481 193
q195 190 195 475q0 282 -195 477q-193 191 -481 191t-481 -191q-195 -195 -195 -477q0 -285 195 -475zM1128 641l-43 -20q-81 -38 -104 -84h424v-230h-752l6 105q15 256 277 389l74 37q74 38 98 60q27 24 27 54q0 80 -86 80q-107 0 -109 -125h-266q39 353 375 353
q163 0 262 -78q98 -77 98 -207q0 -116 -63 -188q-62 -71 -218 -146z" />
    <glyph glyph-name="uni2462" unicode="&#x2462;" horiz-adv-x="1957" 
d="M524 1552q224 125 496 125t496 -125q226 -128 354 -344q129 -217 129 -479q0 -258 -129 -477q-131 -222 -354 -346q-224 -125 -496 -125t-496 125q-223 124 -354 346q-129 219 -129 477q0 261 129 479q128 216 354 344zM541 254q193 -193 481 -193t481 193
q195 190 195 475q0 282 -195 477q-193 191 -481 191t-481 -191q-195 -195 -195 -477q0 -285 195 -475zM1274 762q139 -66 139 -217q0 -135 -102 -217q-101 -82 -277 -82q-203 0 -306 95q-101 93 -99 275h262q0 -80 30 -111q30 -32 103 -32q51 0 80 23t29 59q0 92 -115 92
h-78v197h80q59 0 82 17q24 18 24 65q0 73 -98 73q-58 0 -83 -22q-26 -23 -32 -82h-262q15 322 379 322q168 0 263 -72q96 -73 96 -195q0 -115 -115 -188z" />
    <glyph glyph-name="uni2463" unicode="&#x2463;" horiz-adv-x="1957" 
d="M524 1552q224 125 496 125t496 -125q226 -128 354 -344q129 -217 129 -479q0 -258 -129 -477q-131 -222 -354 -346q-224 -125 -496 -125t-496 125q-223 124 -354 346q-129 219 -129 477q0 261 129 479q128 216 354 344zM541 254q193 -193 481 -193t481 193
q195 190 195 475q0 282 -195 477q-193 191 -481 191t-481 -191q-195 -195 -195 -477q0 -285 195 -475zM997 1196h279v-534h106v-220h-106v-178h-272v178h-406v260zM1008 662v256l-209 -256h209z" />
    <glyph glyph-name="uni2464" unicode="&#x2464;" horiz-adv-x="1957" 
d="M524 1552q224 125 496 125t496 -125q226 -128 354 -344q129 -217 129 -479q0 -258 -129 -477q-131 -222 -354 -346q-224 -125 -496 -125t-496 125q-223 124 -354 346q-129 219 -129 477q0 261 129 479q128 216 354 344zM541 254q193 -193 481 -193t481 193
q195 190 195 475q0 282 -195 477q-193 191 -481 191t-481 -191q-195 -195 -195 -477q0 -285 195 -475zM1067 868q160 0 247 -87t87 -222q0 -151 -107 -243q-106 -91 -276 -91q-158 0 -261 81q-105 82 -112 222h258q7 -41 40 -66q31 -24 75 -24q77 -6 109 58t0 127
q-31 63 -109 57q-80 0 -109 -59h-250l89 555h608v-228h-398l-20 -106q53 26 129 26z" />
    <glyph glyph-name="uni2465" unicode="&#x2465;" horiz-adv-x="1957" 
d="M524 1552q224 125 496 125t496 -125q226 -128 354 -344q129 -217 129 -479q0 -258 -129 -477q-131 -222 -354 -346q-224 -125 -496 -125t-496 125q-223 124 -354 346q-129 219 -129 477q0 261 129 479q128 216 354 344zM541 254q193 -193 481 -193t481 193
q195 190 195 475q0 282 -195 477q-193 191 -481 191t-481 -191q-195 -195 -195 -477q0 -285 195 -475zM1069 889q158 0 244 -92t86 -217q0 -152 -105 -243q-104 -91 -274 -91q-144 0 -238 69q-159 114 -159 410q0 244 103 368t296 124q154 0 249 -72t113 -205h-253
q-21 74 -111 74q-67 0 -100 -39q-32 -38 -43 -146q72 60 192 60zM1020 459q74 -6 104 54q30 61 0 121t-104 54q-75 5 -105 -55q-30 -59 0 -119t105 -55z" />
    <glyph glyph-name="uni2466" unicode="&#x2466;" horiz-adv-x="1957" 
d="M524 1552q224 125 496 125t496 -125q226 -128 354 -344q129 -217 129 -479q0 -258 -129 -477q-131 -222 -354 -346q-224 -125 -496 -125t-496 125q-223 124 -354 346q-129 219 -129 477q0 261 129 479q128 216 354 344zM541 254q193 -193 481 -193t481 193
q195 190 195 475q0 282 -195 477q-193 191 -481 191t-481 -191q-195 -195 -195 -477q0 -285 195 -475zM1100 944h-410v227h680v-219q-127 -133 -188 -295q-60 -159 -60 -417h-295q4 401 273 704z" />
    <glyph glyph-name="uni2467" unicode="&#x2467;" horiz-adv-x="1957" 
d="M524 1552q224 125 496 125t496 -125q226 -128 354 -344q129 -217 129 -479q0 -258 -129 -477q-131 -222 -354 -346q-224 -125 -496 -125t-496 125q-223 124 -354 346q-129 219 -129 477q0 261 129 479q128 216 354 344zM541 254q193 -193 481 -193t481 193
q195 190 195 475q0 282 -195 477q-193 191 -481 191t-481 -191q-195 -195 -195 -477q0 -285 195 -475zM1278 756q139 -61 139 -217q0 -134 -107 -213q-109 -80 -292 -80q-182 0 -289 80q-106 79 -106 213q0 154 137 217q-98 67 -98 192q0 128 94 198q95 71 262 71
q169 0 264 -71q94 -70 94 -198q0 -125 -98 -192zM1128 928q0 90 -110 90q-111 0 -111 -90t111 -90q110 0 110 90zM1018 457q129 0 129 100q0 107 -129 107q-125 0 -125 -107q0 -100 125 -100z" />
    <glyph glyph-name="uni2468" unicode="&#x2468;" horiz-adv-x="1957" 
d="M524 1552q224 125 496 125t496 -125q226 -128 354 -344q129 -217 129 -479q0 -258 -129 -477q-131 -222 -354 -346q-224 -125 -496 -125t-496 125q-223 124 -354 346q-129 219 -129 477q0 261 129 479q128 216 354 344zM541 254q193 -193 481 -193t481 193
q195 190 195 475q0 282 -195 477q-193 191 -481 191t-481 -191q-195 -195 -195 -477q0 -285 195 -475zM1268 1141q162 -113 162 -406q0 -241 -105 -365t-297 -124q-155 0 -249 70q-95 71 -113 204h256q22 -71 108 -71q68 0 100 38q34 40 44 146q-73 -62 -193 -62
q-157 0 -244 93q-86 92 -86 217q0 151 106 243q107 93 273 93q137 0 238 -76zM944 805q30 -33 86 -33q55 0 88 33q31 31 31 82q0 50 -31 84q-33 30 -88 30q-56 0 -86 -30q-33 -33 -33 -84q0 -52 33 -82z" />
    <glyph glyph-name="uni24EA" unicode="&#x24ea;" horiz-adv-x="1957" 
d="M1516 -94q-224 -125 -496 -125t-496 125q-223 124 -354 346q-129 219 -129 477q0 261 129 479q128 216 354 344q224 125 496 125t496 -125q226 -128 354 -344q129 -217 129 -479q0 -258 -129 -477q-131 -222 -354 -346zM541 254q193 -193 481 -193t481 193
q195 190 195 475q0 282 -195 477q-193 191 -481 191t-481 -191q-195 -195 -195 -477q0 -285 195 -475zM1430 729q0 -483 -410 -483t-410 483q0 488 410 488t410 -488zM1020 473q68 0 96 56q29 58 29 200q0 146 -30 203t-95 57q-66 0 -95 -56q-30 -57 -30 -204
q0 -143 30 -200q29 -56 95 -56z" />
    <glyph glyph-name="uni24FF" unicode="&#x24ff;" horiz-adv-x="1957" 
d="M1516 -94q-224 -125 -496 -125t-496 125q-223 124 -354 346q-129 219 -129 477q0 261 129 479q128 216 354 344q224 125 496 125t496 -125q226 -128 354 -344q129 -217 129 -479q0 -258 -129 -477q-131 -222 -354 -346zM618 729q0 -477 402 -477q401 0 401 477
q0 479 -401 479q-402 0 -402 -479zM1022 465q-74 0 -104 61q-31 64 -31 203q0 141 31 205q30 61 104 61q71 0 101 -61q30 -62 30 -205q0 -144 -30 -204t-101 -60z" />
    <glyph glyph-name="filledbox" unicode="&#x25a0;" horiz-adv-x="1957" 
d="M1950 -180h-1860v1818h1860v-1818z" />
    <glyph glyph-name="uni25A1" unicode="&#x25a1;" horiz-adv-x="1957" 
d="M1950 -180h-1860v1818h1860v-1818zM393 1366v-1274h1254v1274h-1254z" />
    <glyph glyph-name="lozenge" unicode="&#x25ca;" horiz-adv-x="1294" 
d="M475 1458h424l406 -729l-406 -729h-424l-403 729zM465 729l223 -410l223 410l-223 410z" />
    <glyph glyph-name="circle" unicode="&#x25cb;" horiz-adv-x="1957" 
d="M1516 -94q-224 -125 -496 -125t-496 125q-223 124 -354 346q-129 219 -129 477q0 261 129 479q128 216 354 344q224 125 496 125t496 -125q226 -128 354 -344q129 -217 129 -479q0 -258 -129 -477q-131 -222 -354 -346zM541 254q193 -193 481 -193t481 193
q195 190 195 475q0 282 -195 477q-193 191 -481 191t-481 -191q-195 -195 -195 -477q0 -285 195 -475z" />
    <glyph glyph-name="uni25CF" unicode="&#x25cf;" horiz-adv-x="1957" 
d="M1516 -94q-224 -125 -496 -125t-496 125q-223 124 -354 346q-129 219 -129 477q0 261 129 479q128 216 354 344q224 125 496 125t496 -125q226 -128 354 -344q129 -217 129 -479q0 -258 -129 -477q-131 -222 -354 -346z" />
    <glyph glyph-name="uni2776" unicode="&#x2776;" horiz-adv-x="1957" 
d="M1516 -94q-224 -125 -496 -125t-496 125q-223 124 -354 346q-129 219 -129 477q0 261 129 479q128 216 354 344q224 125 496 125t496 -125q226 -128 354 -344q129 -217 129 -479q0 -258 -129 -477q-131 -222 -354 -346zM928 842v-570h256v916h-199q-57 -174 -254 -174
v-172h197z" />
    <glyph glyph-name="uni2777" unicode="&#x2777;" horiz-adv-x="1957" 
d="M1516 -94q-224 -125 -496 -125t-496 125q-223 124 -354 346q-129 219 -129 477q0 261 129 479q128 216 354 344q224 125 496 125t496 -125q226 -128 354 -344q129 -217 129 -479q0 -258 -129 -477q-131 -222 -354 -346zM659 412l-6 -97h736v211h-428q17 57 112 103l43 20
q150 71 214 143q63 70 63 183q0 124 -97 201q-94 75 -256 75q-322 0 -366 -336h250q8 125 116 125q95 0 95 -88q0 -35 -30 -62q-32 -29 -99 -61l-74 -34q-257 -122 -273 -383z" />
    <glyph glyph-name="uni2778" unicode="&#x2778;" horiz-adv-x="1957" 
d="M1516 -94q-224 -125 -496 -125t-496 125q-223 124 -354 346q-129 219 -129 477q0 261 129 479q128 216 354 344q224 125 496 125t496 -125q226 -128 354 -344q129 -217 129 -479q0 -258 -129 -477q-131 -222 -354 -346zM1034 252q167 0 270 80q101 79 101 213
q0 75 -40 131q-41 57 -112 84q127 67 127 190q0 121 -93 190q-92 68 -257 68q-181 0 -270 -74q-91 -75 -101 -231h246q7 55 36 81q27 24 87 24q107 0 107 -82q0 -49 -27 -70q-26 -20 -88 -20h-72v-181h70q123 0 123 -100q0 -42 -32 -66q-31 -24 -85 -24q-76 0 -108 33
t-33 110h-246q6 -356 397 -356z" />
    <glyph glyph-name="uni2779" unicode="&#x2779;" horiz-adv-x="1957" 
d="M1516 -94q-224 -125 -496 -125t-496 125q-223 124 -354 346q-129 219 -129 477q0 261 129 479q128 216 354 344q224 125 496 125t496 -125q226 -128 354 -344q129 -217 129 -479q0 -258 -129 -477q-131 -222 -354 -346zM1010 451v-179h256v179h108v202h-108v535h-265
l-397 -488v-249h406zM1016 653h-234l234 287v-287z" />
    <glyph glyph-name="uni277A" unicode="&#x277a;" horiz-adv-x="1957" 
d="M1516 -94q-224 -125 -496 -125t-496 125q-223 124 -354 346q-129 219 -129 477q0 261 129 479q128 216 354 344q224 125 496 125t496 -125q226 -128 354 -344q129 -217 129 -479q0 -258 -129 -477q-131 -222 -354 -346zM1020 233q166 0 271 91q104 90 104 235
q0 133 -84 217t-242 84q-76 0 -139 -33l24 129h396v211h-594l-86 -538h237q34 59 113 59q58 0 96 -36q37 -36 37 -93t-37 -93q-38 -36 -96 -36q-98 0 -121 90h-246q11 -131 111 -209t256 -78z" />
    <glyph glyph-name="uni277B" unicode="&#x277b;" horiz-adv-x="1957" 
d="M1516 -94q-224 -125 -496 -125t-496 125q-223 124 -354 346q-129 219 -129 477q0 261 129 479q128 216 354 344q224 125 496 125t496 -125q226 -128 354 -344q129 -217 129 -479q0 -258 -129 -477q-131 -222 -354 -346zM1020 252q167 0 269 90t102 238q0 130 -85 215
q-86 86 -235 86q-131 0 -203 -72v10q11 115 44 158q34 45 108 45q90 0 117 -74h239q-21 127 -111 193q-91 67 -241 67q-193 0 -293 -124t-100 -359q0 -302 155 -408q95 -65 234 -65zM1114 485q-37 -34 -94 -34q-58 0 -92 34q-35 35 -35 90q0 56 35 89q33 32 92 32
q58 0 94 -32q35 -33 35 -89q0 -55 -35 -90z" />
    <glyph glyph-name="uni277C" unicode="&#x277c;" horiz-adv-x="1957" 
d="M1516 -94q-224 -125 -496 -125t-496 125q-223 124 -354 346q-129 219 -129 477q0 261 129 479q128 216 354 344q224 125 496 125t496 -125q226 -128 354 -344q129 -217 129 -479q0 -258 -129 -477q-131 -222 -354 -346zM825 248h279q5 259 61 414q60 158 187 294v207
h-664v-211h420q-277 -304 -283 -704z" />
    <glyph glyph-name="uni277D" unicode="&#x277d;" horiz-adv-x="1957" 
d="M1516 -94q-224 -125 -496 -125t-496 125q-223 124 -354 346q-129 219 -129 477q0 261 129 479q128 216 354 344q224 125 496 125t496 -125q226 -128 354 -344q129 -217 129 -479q0 -258 -129 -477q-131 -222 -354 -346zM1020 252q178 0 285 78q106 78 106 207
q0 157 -151 217q110 65 110 194q0 123 -92 192q-90 68 -258 68q-166 0 -256 -68q-92 -69 -92 -192q0 -129 110 -194q-151 -60 -151 -217q0 -129 106 -207t283 -78zM1139 928q0 -99 -119 -99t-119 99q0 98 119 98t119 -98zM1020 449q-135 0 -135 108q0 115 135 115
q137 0 137 -115q0 -108 -137 -108z" />
    <glyph glyph-name="uni277E" unicode="&#x277e;" horiz-adv-x="1957" 
d="M1516 -94q-224 -125 -496 -125t-496 125q-223 124 -354 346q-129 219 -129 477q0 261 129 479q128 216 354 344q224 125 496 125t496 -125q226 -128 354 -344q129 -217 129 -479q0 -258 -129 -477q-131 -222 -354 -346zM1028 244q192 0 297 124t105 367q0 301 -162 414
q-97 68 -238 68q-166 0 -273 -93q-106 -92 -106 -243q0 -125 86 -217q87 -93 244 -93q107 0 184 56l9 6l-3 -21q-12 -92 -45 -129t-96 -37q-87 0 -108 74h-256q18 -133 113 -205q93 -71 249 -71zM1118 805q-33 -33 -88 -33q-56 0 -86 33q-33 30 -33 82q0 51 33 84
q30 30 86 30q55 0 88 -30q31 -34 31 -84q0 -51 -31 -82z" />
    <glyph glyph-name="uni2E18" unicode="&#x2e18;" horiz-adv-x="1150" 
d="M500 1200h418l-87 -405h-417zM643 197h379q-51 -259 -201 -373q-151 -115 -428 -115q-249 0 -383 113q-137 113 -94 309q41 179 231 287q145 84 209 131q41 35 62 127h360l-33 -154l-200 -428h-154l2 139q-56 -37 -67 -90q-28 -127 120 -127q88 0 132 43q44 42 65 138z
" />
    <glyph glyph-name="uniF8FF" unicode="&#xf8ff;" horiz-adv-x="1773" 
d="M639 1270l-59 -279h-168l137 645h168l-49 -231q65 65 153 65q79 0 110 -55t9 -162l-57 -262h-168l55 258q16 78 -49 78q-61 0 -82 -57zM1745 1636l-139 -645h-168l139 645h168zM1167 979q-123 0 -180 71q-58 71 -31 197q22 106 98 165q74 58 185 58q123 0 183 -72
t30 -192l-8 -30h-346q6 -80 84 -80q58 0 88 41h155q-60 -158 -258 -158zM1120 1276h185q0 76 -76 76t-109 -76zM1651 725l-8 -31h-347q6 -80 84 -80q58 0 88 41h156q-60 -157 -258 -157q-123 0 -180 70q-58 71 -31 198q23 107 97 165t186 58q122 0 183 -73q60 -72 30 -191z
M1241 969l-260 -469h-205l-61 469h176l8 -92q9 -173 10 -232q29 61 55.5 116t39 81t14.5 30l49 97h174zM1319 795h184q0 75 -76 75t-108 -75zM696 516h-157l26 131h158zM379 350l-37 -170q-16 -59 41 -59h35l-27 -123q-33 -4 -61 -4q-195 0 -156 180l37 176h-68l27 117h66
l30 143h168l-31 -143h89l-25 -117h-88zM891 121q69 0 90 69h164q-46 -202 -264 -202q-127 0 -186 72q-58 71 -29 200q21 100 95 159q75 60 187 60q104 0 162 -53q57 -52 49 -141h-166q-4 59 -63 59q-80 0 -101 -106q-23 -117 62 -117zM1473 479q115 0 162 -46
q48 -47 30 -132l-47 -215q-12 -58 4 -86h-170q-6 13 -2 45q-61 -53 -150 -53q-79 0 -121 44q-43 44 -28 116q24 118 215 133l78 6q55 1 61 33v2q4 20 -7 29q-13 10 -44 10q-68 0 -80 -56h-166q47 170 265 170zM422 0l100 469h168l-100 -469h-168zM1370 98q80 0 103 78l10 39
q-11 -11 -45 -16l-56 -9q-56 -8 -63 -45q-4 -20 9 -33q14 -14 42 -14z" />
    <glyph glyph-name="uniFEFF" unicode="&#xfeff;" 
 />
    <glyph glyph-name="null" 
 />
    <glyph glyph-name="Adieresis.ss01" horiz-adv-x="1525" 
d="M758 1536q-74 0 -126 52t-52 126q0 72 52 124t126 52q72 0 124 -52t52 -124q0 -74 -52 -126t-124 -52zM1190 1536q-74 0 -126 52t-52 126q0 72 52 124t126 52q72 0 124 -52t52 -124q0 -74 -52 -126t-124 -52zM1425 0h-424l-20 190h-571l-101 -190h-430l828 1458h491z
M768 864l-178 -336h352l-37 336q-1 12 -20 230q-75 -152 -117 -230z" />
    <glyph glyph-name="Cdotaccent.ss01" horiz-adv-x="1546" 
d="M1194 1622q-55 -55 -131 -55q-77 0 -129 55q-55 52 -55 129q0 76 55 131q53 53 129 53q75 0 131 -53q53 -56 53 -131q0 -76 -53 -129zM694 -33q-354 0 -516 215q-164 218 -82 602q68 314 299 512q231 195 568 195q282 0 458 -152q172 -152 164 -424h-411q-6 108 -73 167
t-179 59q-147 0 -256 -107q-109 -108 -148 -286q-92 -431 230 -431q122 0 218 67q95 66 144 187h410q-90 -295 -301 -449q-212 -155 -525 -155z" />
    <glyph glyph-name="Edieresis.ss01" horiz-adv-x="1304" 
d="M664 1536q-74 0 -126 52q-53 53 -53 126q0 71 53 124q52 52 126 52q71 0 123 -52q53 -53 53 -124q0 -73 -53 -126q-52 -52 -123 -52zM1096 1536q-74 0 -126 52t-52 126q0 72 52 124t126 52q72 0 124 -52t52 -124q0 -74 -52 -126t-124 -52zM1452 1458l-78 -364h-741
l-41 -193h676l-72 -340h-678l-41 -196h742l-78 -365h-1151l311 1458h1151z" />
    <glyph glyph-name="Edotaccent.ss01" horiz-adv-x="1304" 
d="M1044 1589q-52 -55 -131 -55t-131 55q-53 53 -53 129q0 75 53 131q54 54 131 54t131 -54q54 -57 54 -131q0 -75 -54 -129zM1452 1458l-78 -364h-741l-41 -193h676l-72 -340h-678l-41 -196h742l-78 -365h-1151l311 1458h1151z" />
    <glyph glyph-name="uni0122.ss01" horiz-adv-x="1615" 
d="M907 1141q-145 0 -251 -106q-105 -105 -144 -285q-45 -208 19 -320q65 -113 225 -113q120 0 215 56q94 55 139 151h-270l67 312h690l-178 -836h-278v182q-84 -100 -211 -158q-124 -57 -266 -57q-344 0 -502 215q-158 214 -74 600q69 322 299 518q224 191 571 191
q306 0 476 -141q169 -141 163 -389h-415q-33 180 -275 180zM666 -111q68 0 115 -45q46 -45 46 -120q0 -119 -100 -207q-102 -90 -270 -90l28 122q119 6 156 72q-56 4 -94 39q-37 34 -37 90q0 61 45 100t111 39z" />
    <glyph glyph-name="Gdotaccent.ss01" horiz-adv-x="1615" 
d="M1145 1622q-55 -55 -131 -55q-77 0 -129 55q-56 53 -56 129q0 75 56 131q53 53 129 53q75 0 131 -53q53 -56 53 -131q0 -76 -53 -129zM907 1141q-145 0 -251 -106q-105 -105 -144 -285q-45 -208 19 -320q65 -113 225 -113q120 0 215 56q94 55 139 151h-270l67 312h690
l-178 -836h-278v182q-84 -100 -211 -158q-124 -57 -266 -57q-344 0 -502 215q-158 214 -74 600q69 322 299 518q224 191 571 191q306 0 476 -141q169 -141 163 -389h-415q-33 180 -275 180z" />
    <glyph glyph-name="Idieresis.ss01" horiz-adv-x="614" 
d="M451 1585q-49 -49 -117 -49t-117 49t-49 117t49 117t117 49t117 -49t49 -117t-49 -117zM860 1585q-49 -49 -117 -49q-67 0 -116 49t-49 117t49 117t116 49q68 0 117 -49t49 -117t-49 -117zM399 0h-409l311 1458h410z" />
    <glyph glyph-name="Idotaccent.ss01" horiz-adv-x="614" 
d="M692 1589q-52 -55 -131 -55t-131 55q-53 53 -53 129q0 75 53 131q54 54 131 54t131 -54q53 -56 53 -131q0 -76 -53 -129zM399 0h-409l311 1458h410z" />
    <glyph glyph-name="uni0136.ss01" horiz-adv-x="1529" 
d="M1233 1458h506l-695 -610l386 -848h-463l-254 590l-224 -174l-88 -416h-409l309 1458h410l-123 -575zM662 -78q68 0 115 -45q46 -45 46 -121q0 -119 -100 -207q-102 -90 -270 -90l28 123q119 6 156 72q-56 4 -94 39q-37 34 -37 90q0 61 45 100t111 39z" />
    <glyph glyph-name="uni013B.ss01" horiz-adv-x="1177" 
d="M711 1458l-234 -1093h645l-78 -365h-1054l311 1458h410zM498 -78q68 0 115 -45q46 -45 46 -121q0 -119 -100 -207q-102 -90 -270 -90l28 123q119 6 156 72q-56 4 -94 39q-37 34 -37 90q0 61 45 100t111 39z" />
    <glyph glyph-name="Ldot.ss01" horiz-adv-x="1177" 
d="M301 1458h410l-234 -1093h645l-78 -365h-1054zM997 1004q95 0 162 -66q68 -66 68 -160q0 -97 -68 -163q-67 -66 -162 -66t-164 66t-69 163q0 94 69 160t164 66z" />
    <glyph glyph-name="uni0145.ss01" horiz-adv-x="1525" 
d="M1184 1221l51 237h389l-311 -1458h-424l-199 518q-94 239 -129 377q-55 -321 -129 -657l-51 -238h-389l311 1458h424l199 -518q95 -252 129 -379q57 325 129 660zM612 -78q70 0 116 -45t46 -121q0 -119 -100 -207q-102 -90 -271 -90l29 123q118 6 156 72q-56 4 -94 39
q-37 34 -37 90q0 61 45 100t110 39z" />
    <glyph glyph-name="Odieresis.ss01" horiz-adv-x="1613" 
d="M776 1569q-74 0 -126 52t-52 126q0 72 52 124t126 52q72 0 124 -52t52 -124q0 -74 -52 -126t-124 -52zM1208 1569q-74 0 -126 52t-52 126q0 72 52 124t126 52q72 0 124 -52t52 -124q0 -74 -52 -126t-124 -52zM733 -33q-351 0 -534 221q-185 219 -105 605q66 307 305 501
q244 197 572 197q349 0 534 -219q183 -224 101 -604q-63 -306 -306 -504q-244 -197 -567 -197zM774 322q151 0 261 104q112 106 151 283q43 201 -27 315q-69 113 -235 113q-149 0 -261 -107q-113 -108 -153 -291q-43 -195 28 -307q70 -110 236 -110z" />
    <glyph glyph-name="uni0156.ss01" horiz-adv-x="1411" 
d="M301 1458h655q295 0 424 -126t84 -339q-52 -239 -315 -323q191 -80 147 -328l-28 -176q-16 -112 2 -166h-422q-17 53 6 166l27 147q18 110 -20 151q-37 40 -140 40h-213l-107 -504h-409zM571 803h228q205 0 235 153q38 183 -145 183h-246zM584 -78q68 0 115 -45
q46 -45 46 -121q0 -119 -100 -207q-102 -90 -270 -90l28 123q119 6 156 72q-56 4 -94 39q-37 34 -37 90q0 61 45 100t111 39z" />
    <glyph glyph-name="uni0218.ss01" horiz-adv-x="1355" 
d="M1380 1010h-387q15 88 -32 129t-164 41q-190 0 -211 -119q-12 -65 27 -94q42 -31 155 -52l117 -20q255 -45 358 -164q103 -120 60 -332q-43 -207 -229 -319q-187 -113 -468 -113q-337 0 -489 137q-153 138 -97 375h396q-22 -114 34 -157t197 -43q99 0 158 31q60 31 72 83
q17 72 -24 104t-173 54l-111 18q-235 39 -340 168t-61 336q38 175 207 297q169 121 442 121q317 0 462 -122t101 -359zM565 -111q69 0 116 -45q46 -45 46 -120q0 -119 -100 -207q-102 -90 -271 -90l29 122q119 6 156 72q-58 5 -95 39q-36 33 -36 90q0 62 45 101
q44 38 110 38z" />
    <glyph glyph-name="uni021A.ss01" horiz-adv-x="1310" 
d="M219 1458h1270l-78 -364h-430l-233 -1094h-410l233 1094h-430zM502 -78q68 0 115 -45t47 -121q0 -118 -101 -207q-102 -90 -270 -90l29 123q117 6 155 72q-56 4 -94 39q-37 34 -37 90q0 61 45 100t111 39z" />
    <glyph glyph-name="Udieresis.ss01" horiz-adv-x="1474" 
d="M748 1536q-74 0 -126 52q-53 53 -53 126q0 71 53 124q52 52 126 52q71 0 123 -52q53 -53 53 -124q0 -73 -53 -126q-52 -52 -123 -52zM1180 1536q-74 0 -126 52q-53 53 -53 126q0 71 53 124q52 52 126 52q72 0 124 -52t52 -124q0 -74 -52 -126t-124 -52zM664 -33
q-313 0 -471 176q-156 174 -87 506l175 809h409l-182 -860q-29 -137 24 -209q52 -72 175 -72q113 0 189 66q77 67 101 188l185 887h409l-196 -942q-55 -263 -246 -406t-485 -143z" />
    <glyph glyph-name="Wdieresis.ss01" horiz-adv-x="2062" 
d="M1026 1536q-74 0 -126 52t-52 126q0 72 52 124t126 52q72 0 124 -52t52 -124q0 -74 -52 -126t-124 -52zM1458 1536q-74 0 -126 52t-52 126q0 72 52 124t126 52q72 0 124 -52t52 -124q0 -74 -52 -126t-124 -52zM1642 1038l183 420h432l-703 -1458h-458l2 432q1 215 14 533
q-76 -201 -213 -533l-182 -432h-459l-84 1458h424l6 -420q6 -302 -2 -585q84 228 234 585l174 420h403l-2 -420q-5 -340 -16 -583q88 217 247 583z" />
    <glyph glyph-name="Ydieresis.ss01" horiz-adv-x="1466" 
d="M737 1536q-74 0 -126 52t-52 126q0 72 52 124t126 52q72 0 124 -52t52 -124q0 -74 -52 -126t-124 -52zM1169 1536q-74 0 -126 52t-52 126q0 72 52 124t126 52q72 0 124 -52q53 -53 53 -124q0 -73 -53 -126q-52 -52 -124 -52zM1094 1296l123 162h458l-725 -897l-119 -561
h-409l119 561l-353 897h451l59 -164q4 -9 127 -356q62 86 269 358z" />
    <glyph glyph-name="Zdotaccent.ss01" horiz-adv-x="1353" 
d="M1059 1589q-55 -55 -131 -55q-77 0 -129 55q-56 53 -56 129q0 75 56 131q54 54 129 54q74 0 131 -54q53 -56 53 -131q0 -76 -53 -129zM1487 1458l-68 -311l-534 -494q-115 -108 -326 -293q405 5 412 5h293l-78 -365h-1252l68 315l533 488q3 3 44 39.5t118.5 106.5
t166.5 149q-331 -4 -415 -4h-261l78 364h1221z" />
    <glyph glyph-name="G.ss03" horiz-adv-x="1587" 
d="M934 1137q-153 0 -267 -102t-153 -273q-49 -223 26 -333t246 -110q232 0 332 205h-309l68 312h729q-12 -80 -25 -144q-76 -347 -286 -536t-541 -189q-374 0 -557 219q-187 220 -103 611q66 307 301 499q237 195 574 195q314 0 483 -145q168 -146 164 -379h-416
q-29 170 -266 170z" />
    <glyph glyph-name="uni01F4.ss03" horiz-adv-x="1587" 
d="M1049 1874h403l-330 -295h-309zM934 1137q-153 0 -267 -102t-153 -273q-49 -223 26 -333t246 -110q232 0 332 205h-309l68 312h729q-12 -80 -25 -144q-76 -347 -286 -536t-541 -189q-374 0 -557 219q-187 220 -103 611q66 307 301 499q237 195 574 195q314 0 483 -145
q168 -146 164 -379h-416q-29 170 -266 170z" />
    <glyph glyph-name="Gbreve.ss03" horiz-adv-x="1587" 
d="M1040 1569q-158 0 -249 80q-92 81 -99 225h264q10 -96 107 -96q85 0 131 96h264q-46 -145 -158 -225t-260 -80zM934 1137q-153 0 -267 -102t-153 -273q-49 -223 26 -333t246 -110q232 0 332 205h-309l68 312h729q-12 -80 -25 -144q-76 -347 -286 -536t-541 -189
q-374 0 -557 219q-187 220 -103 611q66 307 301 499q237 195 574 195q314 0 483 -145q168 -146 164 -379h-416q-29 170 -266 170z" />
    <glyph glyph-name="Gcircumflex.ss03" horiz-adv-x="1587" 
d="M1128 1579l-86 119l-139 -119h-332l310 295h391l184 -295h-328zM934 1137q-153 0 -267 -102t-153 -273q-49 -223 26 -333t246 -110q232 0 332 205h-309l68 312h729q-12 -80 -25 -144q-76 -347 -286 -536t-541 -189q-374 0 -557 219q-187 220 -103 611q66 307 301 499
q237 195 574 195q314 0 483 -145q168 -146 164 -379h-416q-29 170 -266 170z" />
    <glyph glyph-name="uni0122.ss03" horiz-adv-x="1587" 
d="M934 1137q-153 0 -267 -102t-153 -273q-49 -223 26 -333t246 -110q232 0 332 205h-309l68 312h729q-12 -80 -25 -144q-76 -347 -286 -536t-541 -189q-374 0 -557 219q-187 220 -103 611q66 307 301 499q237 195 574 195q314 0 483 -145q168 -146 164 -379h-416
q-29 170 -266 170zM655 -365h-129l52 244h309l-53 -250q-44 -198 -297 -198h-56l25 116h55q75 0 92 78z" />
    <glyph glyph-name="Gdotaccent.ss03" horiz-adv-x="1587" 
d="M897 1874h354l-61 -295h-354zM934 1137q-153 0 -267 -102t-153 -273q-49 -223 26 -333t246 -110q232 0 332 205h-309l68 312h729q-12 -80 -25 -144q-76 -347 -286 -536t-541 -189q-374 0 -557 219q-187 220 -103 611q66 307 301 499q237 195 574 195q314 0 483 -145
q168 -146 164 -379h-416q-29 170 -266 170z" />
    <glyph glyph-name="uni0122.ss01.ss03" horiz-adv-x="1587" 
d="M934 1137q-153 0 -267 -102t-153 -273q-49 -223 26 -333t246 -110q232 0 332 205h-309l68 312h729q-12 -80 -25 -144q-76 -347 -286 -536t-541 -189q-374 0 -557 219q-187 220 -103 611q66 307 301 499q237 195 574 195q314 0 483 -145q168 -146 164 -379h-416
q-29 170 -266 170zM698 -111q70 0 116 -45t46 -120q0 -119 -100 -207q-102 -90 -271 -90l29 122q118 6 156 72q-56 4 -94 39q-37 34 -37 90q0 61 45 100t110 39z" />
    <glyph glyph-name="Gdotaccent.ss01.ss03" horiz-adv-x="1587" 
d="M1180 1622q-52 -55 -131 -55t-131 55q-54 54 -54 129q0 74 54 131q53 53 131 53t131 -53q53 -56 53 -131q0 -76 -53 -129zM934 1137q-153 0 -267 -102t-153 -273q-49 -223 26 -333t246 -110q232 0 332 205h-309l68 312h729q-12 -80 -25 -144q-76 -347 -286 -536
t-541 -189q-374 0 -557 219q-187 220 -103 611q66 307 301 499q237 195 574 195q314 0 483 -145q168 -146 164 -379h-416q-29 170 -266 170z" />
    <glyph glyph-name="R.ss04" horiz-adv-x="1419" 
d="M301 1458h635q293 0 434 -147q140 -148 74 -410q-28 -119 -117 -213q-89 -95 -221 -147l203 -541h-457l-172 487h-176l-103 -487h-409zM895 1135h-254l-68 -328h252q189 0 217 145q17 91 -22 137t-125 46z" />
    <glyph glyph-name="Racute.ss04" horiz-adv-x="1419" 
d="M897 1841h403l-329 -295h-309zM301 1458h635q293 0 434 -147q140 -148 74 -410q-28 -119 -117 -213q-89 -95 -221 -147l203 -541h-457l-172 487h-176l-103 -487h-409zM895 1135h-254l-68 -328h252q189 0 217 145q17 91 -22 137t-125 46z" />
    <glyph glyph-name="Rcaron.ss04" horiz-adv-x="1419" 
d="M1364 1841l-307 -295h-391l-187 295h330l86 -119l139 119h330zM301 1458h635q293 0 434 -147q140 -148 74 -410q-28 -119 -117 -213q-89 -95 -221 -147l203 -541h-457l-172 487h-176l-103 -487h-409zM895 1135h-254l-68 -328h252q189 0 217 145q17 91 -22 137t-125 46z
" />
    <glyph glyph-name="uni0156.ss04" horiz-adv-x="1419" 
d="M301 1458h635q293 0 434 -147q140 -148 74 -410q-28 -119 -117 -213q-89 -95 -221 -147l203 -541h-457l-172 487h-176l-103 -487h-409zM895 1135h-254l-68 -328h252q189 0 217 145q17 91 -22 137t-125 46zM569 -332h-129l52 244h309l-53 -250q-44 -199 -297 -199h-56
l25 117h55q75 0 92 78z" />
    <glyph glyph-name="uni0156.ss01.ss04" horiz-adv-x="1419" 
d="M301 1458h635q293 0 434 -147q140 -148 74 -410q-28 -119 -117 -213q-89 -95 -221 -147l203 -541h-457l-172 487h-176l-103 -487h-409zM895 1135h-254l-68 -328h252q189 0 217 145q17 91 -22 137t-125 46zM612 -78q70 0 116 -45t46 -121q0 -119 -100 -207
q-102 -90 -271 -90l29 123q118 6 156 72q-56 4 -94 39q-37 34 -37 90q0 61 45 100t110 39z" />
    <glyph glyph-name="i.loclTRK" horiz-adv-x="540" 
d="M584 1163h-355l62 295h354zM346 0h-377l226 1057h376z" />
    <glyph glyph-name="adieresis.ss01" horiz-adv-x="1181" 
d="M539 1153q-74 0 -126 52q-53 53 -53 126q0 71 53 124q52 52 126 52q72 0 124 -52t52 -124q0 -74 -52 -126t-124 -52zM971 1153q-74 0 -126 52t-52 126q0 72 52 124t126 52q72 0 124 -52t52 -124q0 -74 -52 -126t-124 -52zM1143 674l-105 -484q-28 -132 2 -190h-378
q-11 40 -7 98q-127 -123 -336 -123q-184 0 -280 96q-94 94 -59 257q30 142 142 215q109 71 345 92l172 14q72 6 103 23q30 16 40 55q6 46 -21 70t-99 24q-86 0 -122 -23q-38 -25 -53 -89h-372q45 194 180 283q136 89 393 89q274 0 385 -101q113 -103 70 -306zM475 217
q88 0 156 50t86 149l12 61q-29 -31 -102 -41l-123 -12q-126 -12 -144 -105q-10 -46 21 -74t94 -28z" />
    <glyph glyph-name="cdotaccent.ss01" horiz-adv-x="1169" 
d="M874 1208q-55 -55 -131 -55q-77 0 -129 55q-55 52 -55 129q0 76 55 131q54 54 129 54q74 0 131 -54q54 -57 54 -131q0 -75 -54 -129zM528 -25q-281 0 -411 163q-131 164 -70 454q45 216 211 352q164 137 426 137q236 0 365 -116q128 -121 110 -320h-377q-4 135 -143 135
q-88 0 -142 -57t-81 -184q-51 -260 135 -260q154 0 203 155h370q-51 -222 -204 -341q-152 -118 -392 -118z" />
    <glyph glyph-name="edieresis.ss01" horiz-adv-x="1218" 
d="M528 1155q-74 0 -126 52t-52 126q0 72 52 124t126 52q72 0 124 -52q53 -53 53 -124q0 -73 -53 -126q-52 -52 -124 -52zM961 1155q-74 0 -126 52q-53 53 -53 126q0 71 53 124q52 52 126 52q71 0 123 -52q53 -53 53 -124q0 -73 -53 -126q-52 -52 -123 -52zM684 1081
q268 0 403 -159q133 -162 72 -435q-7 -40 -18 -67h-774q1 -85 52 -132q49 -46 136 -46q129 0 195 92h352q-66 -175 -216 -266q-152 -93 -366 -93q-270 0 -401 162q-131 160 -74 443q51 239 219 370q169 131 420 131zM657 815q-174 0 -243 -172h413q2 85 -43 128
q-46 44 -127 44z" />
    <glyph glyph-name="edotaccent.ss01" horiz-adv-x="1218" 
d="M870 1208q-56 -53 -131 -53q-76 0 -129 53q-55 52 -55 131t55 131q54 54 129 54q74 0 131 -54q54 -54 54 -131t-54 -131zM684 1081q268 0 403 -159q133 -162 72 -435q-7 -40 -18 -67h-774q1 -85 52 -132q49 -46 136 -46q129 0 195 92h352q-66 -175 -216 -266
q-152 -93 -366 -93q-270 0 -401 162q-131 160 -74 443q51 239 219 370q169 131 420 131zM657 815q-174 0 -243 -172h413q2 85 -43 128q-46 44 -127 44z" />
    <glyph glyph-name="uni0123.ss01" horiz-adv-x="1218" 
d="M786 1153q-70 0 -116 45q-47 45 -47 121q0 117 102 207t270 90l-28 -123q-119 -6 -156 -72q56 -4 94 -39q37 -34 37 -90q0 -61 -45 -100t-111 -39zM852 924l29 133h368l-221 -1037q-49 -232 -180 -339t-410 -107q-267 0 -389 107q-120 105 -108 299h385q2 -130 143 -130
q79 0 125 51q45 50 68 165l12 65q-96 -90 -246 -90q-224 0 -326 158q-104 156 -47 422q45 217 178 338q134 122 332 122q209 0 287 -157zM428 571q-24 -116 14 -175q39 -60 133 -60q173 0 220 225t-146 225q-174 0 -221 -215z" />
    <glyph glyph-name="gdotaccent.ss01" horiz-adv-x="1218" 
d="M932 1208q-55 -55 -131 -55q-77 0 -129 55q-56 53 -56 129q0 75 56 131q54 54 129 54q74 0 131 -54q53 -56 53 -131q0 -76 -53 -129zM852 924l29 133h368l-221 -1037q-49 -232 -180 -339t-410 -107q-267 0 -389 107q-120 105 -108 299h385q2 -130 143 -130q79 0 125 51
q45 50 68 165l12 65q-96 -90 -246 -90q-224 0 -326 158q-104 156 -47 422q45 217 178 338q134 122 332 122q209 0 287 -157zM428 571q-24 -116 14 -175q39 -60 133 -60q173 0 220 225t-146 225q-174 0 -221 -215z" />
    <glyph glyph-name="i.ss01" horiz-adv-x="540" 
d="M573 1208q-52 -55 -131 -55t-131 55q-53 53 -53 129q0 75 53 131q54 54 131 54t131 -54q54 -57 54 -131q0 -75 -54 -129zM346 0h-377l226 1057h376z" />
    <glyph glyph-name="idieresis.ss01" horiz-adv-x="540" 
d="M350 1202q-49 -49 -117 -49q-67 0 -116 49t-49 117t49 117t116 49q68 0 117 -49t49 -117t-49 -117zM760 1202q-49 -49 -117 -49t-117 49t-49 117t49 117t117 49t117 -49t49 -117t-49 -117zM346 0h-377l226 1057h376z" />
    <glyph glyph-name="i.loclTRK.ss01" horiz-adv-x="540" 
d="M573 1208q-52 -55 -131 -55t-131 55q-53 53 -53 129q0 75 53 131q54 54 131 54t131 -54q54 -57 54 -131q0 -75 -54 -129zM346 0h-377l226 1057h376z" />
    <glyph glyph-name="ij.ss01" horiz-adv-x="1081" 
d="M573 1208q-52 -55 -131 -55t-131 55q-53 53 -53 129q0 75 53 131q54 54 131 54t131 -54q54 -57 54 -131q0 -75 -54 -129zM1114 1208q-52 -55 -131 -55t-131 55q-53 53 -53 129q0 75 53 131q54 54 131 54t131 -54q53 -56 53 -131q0 -76 -53 -129zM346 0h-377l226 1057h376
zM492 -406q-107 0 -199 5l59 280h31q35 0 55 5q17 4 39 33q21 27 33 85l225 1055h377l-231 -1084q-43 -197 -139 -288t-250 -91z" />
    <glyph glyph-name="iogonek.ss01" horiz-adv-x="540" 
d="M311 1468q54 54 131 54t131 -54q54 -57 54 -131q0 -75 -54 -129q-52 -55 -131 -55t-131 55q-53 53 -53 129q0 75 53 131zM121 0h-152l226 1057h376l-225 -1057q-191 -83 -209 -170q-6 -39 15 -54q22 -16 61 -16q37 0 84 13l-39 -183q-60 -16 -135 -16q-132 0 -192 54
t-42 149q12 66 72 126q59 60 160 97z" />
    <glyph glyph-name="j.ss01" horiz-adv-x="540" 
d="M573 1208q-52 -55 -131 -55t-131 55q-53 53 -53 129q0 75 53 131q54 54 131 54t131 -54q54 -57 54 -131q0 -75 -54 -129zM-49 -406q-107 0 -199 5l60 280h30q36 0 56 5q17 4 39 33q19 25 32 85l226 1055h376l-231 -1084q-44 -198 -138 -288q-96 -91 -251 -91z" />
    <glyph glyph-name="uni0137.ss01" horiz-adv-x="1245" 
d="M920 1057h417l-481 -428l277 -629h-404l-156 416l-180 -152l-57 -264h-367l312 1458h366l-170 -794zM481 -78q69 0 116 -45q46 -45 46 -121q0 -119 -100 -207q-102 -90 -271 -90l29 123q119 6 156 72q-58 5 -95 39q-36 33 -36 90q0 61 45 100t110 39z" />
    <glyph glyph-name="uni013C.ss01" horiz-adv-x="540" 
d="M-31 0l312 1458h376l-311 -1458h-377zM113 -78q69 0 115 -45t46 -121q0 -119 -100 -207q-102 -90 -270 -90l28 123q118 6 156 72q-56 4 -94 39q-37 34 -37 90q0 61 45 100t111 39z" />
    <glyph glyph-name="ldot.ss01" horiz-adv-x="1107" 
d="M346 0h-377l312 1458h376zM858 498q-96 0 -165 66q-68 65 -68 163q0 95 68 160t165 65q96 0 162 -65q67 -66 67 -160q0 -97 -67 -163q-68 -66 -162 -66z" />
    <glyph glyph-name="napostrophe.ss01" horiz-adv-x="1716" 
d="M651 1253q0 -189 -139 -340t-373 -151l37 180q176 11 225 139q-82 4 -136 55q-52 49 -52 136q0 96 65 158q64 61 158 61q96 0 156 -63q59 -62 59 -175zM1382 1081q175 0 248 -124t21 -363l-129 -594h-377l125 586q18 82 -12 129t-101 47q-75 0 -127 -44q-51 -44 -69 -132
l-125 -586h-377l225 1057h369l-29 -139q153 163 358 163z" />
    <glyph glyph-name="uni0146.ss01" horiz-adv-x="1226" 
d="M893 1081q175 0 248 -124q73 -123 20 -363l-129 -594h-377l125 586q18 84 -11 129q-30 47 -101 47q-75 0 -127 -44q-52 -45 -70 -132l-125 -586h-377l226 1057h368l-28 -139q153 163 358 163zM459 -78q69 0 115 -45q47 -45 47 -121q0 -118 -101 -207q-102 -90 -270 -90
l29 123q117 6 155 72q-56 4 -94 39q-37 34 -37 90q0 61 45 100t111 39z" />
    <glyph glyph-name="odieresis.ss01" horiz-adv-x="1220" 
d="M541 1153q-74 0 -126 52q-53 53 -53 126q0 71 53 124q52 52 126 52q72 0 124 -52t52 -124q0 -74 -52 -126t-124 -52zM973 1153q-74 0 -126 52t-52 126q0 72 52 124t126 52q72 0 124 -52t52 -124q0 -74 -52 -126t-124 -52zM528 -25q-282 0 -411 165q-129 166 -68 452
q45 220 217 356q168 135 426 135q286 0 412 -162q127 -162 65 -456q-45 -217 -217 -352q-171 -138 -424 -138zM436 340q40 -70 127 -70q83 0 150 62q62 62 86 184q27 127 -12 200q-37 70 -130 70q-89 0 -148 -62q-60 -63 -87 -185q-29 -131 14 -199z" />
    <glyph glyph-name="uni0157.ss01" horiz-adv-x="851" 
d="M852 1073q41 0 74 -6l-72 -338h-98q-257 0 -314 -278l-96 -451h-377l226 1057h368l-39 -183q106 199 328 199zM113 -78q69 0 115 -45t46 -121q0 -119 -100 -207q-102 -90 -270 -90l28 123q118 6 156 72q-56 4 -94 39q-37 34 -37 90q0 61 45 100t111 39z" />
    <glyph glyph-name="uni0219.ss01" horiz-adv-x="1105" 
d="M1094 715h-344q12 67 -25 97t-119 30q-138 0 -155 -74q-8 -40 20 -63q30 -26 92 -33l176 -25q175 -24 252 -118q76 -92 47 -240q-63 -322 -567 -322q-278 0 -398 87t-93 282h364q-7 -72 28 -100q37 -29 130 -29q142 0 157 76q7 43 -20 66q-29 24 -104 36l-162 25
q-344 56 -281 364q63 307 545 307q262 0 372 -97q112 -98 85 -269zM428 -111q70 0 116 -45t46 -120q0 -118 -101 -207q-102 -90 -270 -90l29 122q117 6 155 72q-56 4 -94 39q-37 34 -37 90q0 61 45 100t111 39z" />
    <glyph glyph-name="uni021B.ss01" horiz-adv-x="786" 
d="M801 791h-199l-82 -379q-29 -136 94 -136h78l-59 -274q-91 -10 -139 -10q-436 0 -351 405l84 394h-151l57 266h150l67 319h377l-68 -319h199zM350 -78q70 0 116 -45t46 -121q0 -119 -100 -207q-102 -90 -271 -90l29 123q118 6 156 72q-58 5 -95 39q-36 33 -36 90
q0 61 45 100t110 39z" />
    <glyph glyph-name="udieresis.ss01" horiz-adv-x="1226" 
d="M563 1153q-74 0 -126 52t-52 126q0 72 52 124t126 52q72 0 124 -52t52 -124q0 -74 -52 -126t-124 -52zM995 1153q-74 0 -126 52t-52 126q0 72 52 124t126 52q72 0 124 -52t52 -124q0 -74 -52 -126t-124 -52zM756 471l125 586h376l-225 -1057h-368l28 139
q-153 -164 -358 -164q-175 0 -248 124q-73 123 -20 364l129 594h376l-125 -586q-18 -83 12 -129q30 -47 101 -47q75 0 127 44q52 45 70 132z" />
    <glyph glyph-name="wdieresis.ss01" horiz-adv-x="1816" 
d="M831 1153q-73 0 -125 52q-53 53 -53 126q0 71 53 124q52 52 125 52q72 0 124 -52q53 -53 53 -124q0 -73 -53 -126q-52 -52 -124 -52zM1264 1153q-74 0 -126 52q-53 53 -53 126q0 71 53 124q52 52 126 52q72 0 124 -52t52 -124q0 -74 -52 -126t-124 -52zM1372 768l141 289
h412l-567 -1057h-397l-25 365q-8 114 -14 258q-51 -117 -119 -258l-180 -365h-398l-116 1057h395l18 -289l2 -40q3 -40 5 -75q2 -33 5 -73.5t3 -49.5q0 -30 1 -55q1 -37 3 -55q114 254 159 350l138 287h342l14 -287q0 -15 1.5 -62.5t4 -126.5t4.5 -163q25 58 168 350z" />
    <glyph glyph-name="ydieresis.ss01" horiz-adv-x="1183" 
d="M553 1153q-74 0 -126 52t-52 126q0 72 52 124t126 52q72 0 124 -52t52 -124q0 -74 -52 -126t-124 -52zM985 1153q-74 0 -126 52t-52 126q0 72 52 124t126 52q72 0 124 -52t52 -124q0 -74 -52 -126t-124 -52zM883 1012l22 45h393l-587 -1057q-91 -161 -170 -246
q-75 -81 -195 -121q-117 -39 -313 -39q-41 0 -133 5l61 286h105q143 0 172 115q14 56 -9 229l-114 828h395l2 -43q34 -616 35 -731q169 399 336 729z" />
    <glyph glyph-name="zdotaccent.ss01" horiz-adv-x="1054" 
d="M817 1208q-55 -55 -131 -55q-77 0 -129 55q-55 52 -55 129q0 76 55 131q54 54 129 54q74 0 131 -54q53 -56 53 -131q0 -76 -53 -129zM1108 1057l-49 -230l-416 -405q-149 -139 -162 -152q62 2 209 2h266l-57 -272h-952l49 229l418 406l159 151q-60 -2 -204 -2h-256
l59 273h936z" />
    <glyph glyph-name="a.ss02" horiz-adv-x="1212" 
d="M846 961l20 96h377l-225 -1057h-367l17 74q-111 -99 -267 -99q-209 0 -311 166q-103 165 -43 441q49 220 189 360q139 139 339 139q188 0 271 -120zM416 528q-51 -258 139 -258q169 0 231 258t-139 258q-175 0 -231 -258z" />
    <glyph glyph-name="aacute.ss02" horiz-adv-x="1212" 
d="M758 1458h368l-266 -295h-282zM846 961l20 96h377l-225 -1057h-367l17 74q-111 -99 -267 -99q-209 0 -311 166q-103 165 -43 441q49 220 189 360q139 139 339 139q188 0 271 -120zM416 528q-51 -258 139 -258q169 0 231 258t-139 258q-175 0 -231 -258z" />
    <glyph glyph-name="abreve.ss02" horiz-adv-x="1212" 
d="M764 1153q-159 0 -250 80t-98 225h264q10 -96 106 -96q86 0 132 96h264q-46 -145 -158 -225t-260 -80zM846 961l20 96h377l-225 -1057h-367l17 74q-111 -99 -267 -99q-209 0 -311 166q-103 165 -43 441q49 220 189 360q139 139 339 139q188 0 271 -120zM416 528
q-51 -258 139 -258q169 0 231 258t-139 258q-175 0 -231 -258z" />
    <glyph glyph-name="acircumflex.ss02" horiz-adv-x="1212" 
d="M850 1163l-86 119l-139 -119h-332l309 295h391l185 -295h-328zM846 961l20 96h377l-225 -1057h-367l17 74q-111 -99 -267 -99q-209 0 -311 166q-103 165 -43 441q49 220 189 360q139 139 339 139q188 0 271 -120zM416 528q-51 -258 139 -258q169 0 231 258t-139 258
q-175 0 -231 -258z" />
    <glyph glyph-name="adieresis.ss02" horiz-adv-x="1212" 
d="M389 1458h356l-63 -295h-356zM848 1458h354l-63 -295h-355zM846 961l20 96h377l-225 -1057h-367l17 74q-111 -99 -267 -99q-209 0 -311 166q-103 165 -43 441q49 220 189 360q139 139 339 139q188 0 271 -120zM416 528q-51 -258 139 -258q169 0 231 258t-139 258
q-175 0 -231 -258z" />
    <glyph glyph-name="agrave.ss02" horiz-adv-x="1212" 
d="M856 1458l57 -295h-282l-144 295h369zM846 961l20 96h377l-225 -1057h-367l17 74q-111 -99 -267 -99q-209 0 -311 166q-103 165 -43 441q49 220 189 360q139 139 339 139q188 0 271 -120zM416 528q-51 -258 139 -258q169 0 231 258t-139 258q-175 0 -231 -258z" />
    <glyph glyph-name="amacron.ss02" horiz-adv-x="1212" 
d="M420 1399h727l-51 -236h-727zM846 961l20 96h377l-225 -1057h-367l17 74q-111 -99 -267 -99q-209 0 -311 166q-103 165 -43 441q49 220 189 360q139 139 339 139q188 0 271 -120zM416 528q-51 -258 139 -258q169 0 231 258t-139 258q-175 0 -231 -258z" />
    <glyph glyph-name="aogonek.ss02" horiz-adv-x="1212" 
d="M1243 1057l-225 -1057q-215 -86 -230 -162q-7 -39 19 -58q28 -20 70 -20q38 0 92 13l-39 -183q-67 -16 -168 -16q-132 0 -202 65q-69 64 -48 160q16 66 80 117q69 55 174 84h-115l17 74q-111 -99 -267 -99q-209 0 -311 166q-103 165 -43 441q49 220 189 360
q139 139 339 139q188 0 271 -120l20 96h377zM416 528q-51 -258 139 -258q169 0 231 258t-139 258q-175 0 -231 -258z" />
    <glyph glyph-name="aring.ss02" horiz-adv-x="1212" 
d="M1038 1247q-100 -90 -239 -90q-142 0 -238 90q-98 88 -98 226t98 227q94 88 238 88t239 -88q97 -91 97 -227q0 -135 -97 -226zM883 1554q-33 33 -83 33t-83 -33t-33 -81q0 -49 33 -82t82 -33t84 33t35 82q0 48 -35 81zM846 961l20 96h377l-225 -1057h-367l17 74
q-111 -99 -267 -99q-209 0 -311 166q-103 165 -43 441q49 220 189 360q139 139 339 139q188 0 271 -120zM416 528q-51 -258 139 -258q169 0 231 258t-139 258q-175 0 -231 -258z" />
    <glyph glyph-name="aringacute.ss02" horiz-adv-x="1212" 
d="M909 2150h369l-266 -295h-283zM1038 1247q-100 -90 -239 -90q-142 0 -238 90q-98 88 -98 226t98 227q94 88 238 88t239 -88q97 -91 97 -227q0 -135 -97 -226zM883 1554q-33 33 -83 33t-83 -33t-33 -81q0 -49 33 -82t82 -33t84 33t35 82q0 48 -35 81zM846 961l20 96h377
l-225 -1057h-367l17 74q-111 -99 -267 -99q-209 0 -311 166q-103 165 -43 441q49 220 189 360q139 139 339 139q188 0 271 -120zM416 528q-51 -258 139 -258q169 0 231 258t-139 258q-175 0 -231 -258z" />
    <glyph glyph-name="atilde.ss02" horiz-adv-x="1212" 
d="M618 1229q-53 0 -71 -66h-217q30 143 112 219t185 76q80 0 170 -37q72 -28 112 -28q54 0 72 65h217q-28 -142 -111 -219q-82 -76 -186 -76q-71 0 -166 37q-78 29 -117 29zM846 961l20 96h377l-225 -1057h-367l17 74q-111 -99 -267 -99q-209 0 -311 166q-103 165 -43 441
q49 220 189 360q139 139 339 139q188 0 271 -120zM416 528q-51 -258 139 -258q169 0 231 258t-139 258q-175 0 -231 -258z" />
    <glyph glyph-name="adieresis.ss01.ss02" horiz-adv-x="1212" 
d="M559 1153q-74 0 -126 52t-52 126q0 72 52 124t126 52q72 0 124 -52t52 -124q0 -74 -52 -126t-124 -52zM991 1153q-74 0 -126 52t-52 126q0 72 52 124t126 52q72 0 124 -52t52 -124q0 -74 -52 -126t-124 -52zM846 961l20 96h377l-225 -1057h-367l17 74q-111 -99 -267 -99
q-209 0 -311 166q-103 165 -43 441q49 220 189 360q139 139 339 139q188 0 271 -120zM416 528q-51 -258 139 -258q169 0 231 258t-139 258q-175 0 -231 -258z" />
    <glyph glyph-name="uni021B.ss01.ss05" horiz-adv-x="745" 
d="M672 1057h157l-55 -266h-158l-167 -791h-377l168 791h-150l55 266h150l67 319h377zM211 -78q69 0 116 -45q46 -45 46 -121q0 -118 -101 -207q-102 -90 -270 -90l29 123q117 6 155 72q-56 4 -94 39q-37 34 -37 90q0 61 45 100t111 39z" />
    <glyph glyph-name="udieresis.ss01.ss05" horiz-adv-x="1226" 
d="M563 1153q-74 0 -126 52t-52 126q0 72 52 124t126 52q72 0 124 -52t52 -124q0 -74 -52 -126t-124 -52zM995 1153q-74 0 -126 52t-52 126q0 72 52 124t126 52q72 0 124 -52t52 -124q0 -74 -52 -126t-124 -52zM756 471l125 586h376l-225 -1057h-368l28 139
q-153 -164 -358 -164q-175 0 -248 124q-73 123 -20 364l129 594h376l-125 -586q-18 -83 12 -129q30 -47 101 -47q75 0 127 44q52 45 70 132z" />
    <glyph glyph-name="t.ss05" horiz-adv-x="745" 
d="M672 1057h157l-55 -266h-158l-167 -791h-377l168 791h-150l55 266h150l67 319h377z" />
    <glyph glyph-name="tbar.ss05" horiz-adv-x="757" 
d="M842 1057l-56 -266h-157l-31 -142h139l-37 -194h-143l-96 -455h-377l96 455h-157l36 194h162l31 142h-150l56 266h149l68 319h377l-68 -319h158z" />
    <glyph glyph-name="tcaron.ss05" horiz-adv-x="745" 
d="M768 1118l119 340h348l-207 -340h-260zM362 1376h377l-67 -319h157l-55 -266h-158l-167 -791h-377l168 791h-150l55 266h150z" />
    <glyph glyph-name="uni0163.ss05" horiz-adv-x="745" 
d="M616 791l-167 -791h-105l-96 -90q10 2 37 2q104 0 157 -53t35 -133q-17 -80 -104 -126q-88 -46 -232 -46q-108 0 -182 14l27 123q43 -8 133 -8q103 0 119 67q8 38 -19 59t-84 21q-27 0 -47 -2l16 78l95 94h-127l168 791h-150l55 266h150l67 319h377l-67 -319h157
l-55 -266h-158z" />
    <glyph glyph-name="uni021B.ss05" horiz-adv-x="745" 
d="M672 1057h157l-55 -266h-158l-167 -791h-377l168 791h-150l55 266h150l67 319h377zM160 -332h-129l51 244h309l-53 -250q-44 -199 -297 -199h-55l24 117h56q76 0 92 78z" />
    <glyph glyph-name="udieresis.ss01.ss06" horiz-adv-x="1230" 
d="M559 1153q-74 0 -126 52t-52 126q0 72 52 124t126 52q72 0 124 -52t52 -124q0 -74 -52 -126t-124 -52zM991 1153q-74 0 -126 52t-52 126q0 72 52 124t126 52q72 0 124 -52t52 -124q0 -74 -52 -126t-124 -52zM537 -25q-243 0 -377 152t-78 410l111 520h378l-116 -549
q-23 -108 11 -160q35 -53 107 -53q145 0 183 174l125 588h379l-125 -584q-51 -239 -205 -369q-153 -129 -393 -129z" />
    <glyph glyph-name="u.ss06" horiz-adv-x="1230" 
d="M537 -25q-243 0 -377 152t-78 410l111 520h378l-116 -549q-23 -108 11 -160q35 -53 107 -53q145 0 183 174l125 588h379l-125 -584q-51 -239 -205 -369q-153 -129 -393 -129z" />
    <glyph glyph-name="uacute.ss06" horiz-adv-x="1230" 
d="M860 1163h-282l180 295h368zM537 -25q-243 0 -377 152t-78 410l111 520h378l-116 -549q-23 -108 11 -160q35 -53 107 -53q145 0 183 174l125 588h379l-125 -584q-51 -239 -205 -369q-153 -129 -393 -129z" />
    <glyph glyph-name="ubreve.ss06" horiz-adv-x="1230" 
d="M764 1153q-159 0 -250 80t-98 225h264q10 -96 106 -96q86 0 132 96h264q-46 -145 -158 -225t-260 -80zM537 -25q-243 0 -377 152t-78 410l111 520h378l-116 -549q-23 -108 11 -160q35 -53 107 -53q145 0 183 174l125 588h379l-125 -584q-51 -239 -205 -369
q-153 -129 -393 -129z" />
    <glyph glyph-name="ucircumflex.ss06" horiz-adv-x="1230" 
d="M850 1163l-86 119l-139 -119h-332l309 295h391l185 -295h-328zM756 469l125 588h379l-125 -584q-51 -239 -205 -369q-153 -129 -393 -129q-243 0 -377 152t-78 410l111 520h378l-116 -549q-23 -108 11 -160q35 -53 107 -53q145 0 183 174z" />
    <glyph glyph-name="udieresis.ss06" horiz-adv-x="1230" 
d="M682 1163h-356l63 295h356zM1139 1163h-355l64 295h354zM537 -25q-243 0 -377 152t-78 410l111 520h378l-116 -549q-23 -108 11 -160q35 -53 107 -53q145 0 183 174l125 588h379l-125 -584q-51 -239 -205 -369q-153 -129 -393 -129z" />
    <glyph glyph-name="ugrave.ss06" horiz-adv-x="1230" 
d="M913 1163h-282l-144 295h369zM537 -25q-243 0 -377 152t-78 410l111 520h378l-116 -549q-23 -108 11 -160q35 -53 107 -53q145 0 183 174l125 588h379l-125 -584q-51 -239 -205 -369q-153 -129 -393 -129z" />
    <glyph glyph-name="uhungarumlaut.ss06" horiz-adv-x="1230" 
d="M602 1163h-283l183 295h401zM1106 1163h-283l183 295h399zM537 -25q-243 0 -377 152t-78 410l111 520h378l-116 -549q-23 -108 11 -160q35 -53 107 -53q145 0 183 174l125 588h379l-125 -584q-51 -239 -205 -369q-153 -129 -393 -129z" />
    <glyph glyph-name="umacron.ss06" horiz-adv-x="1230" 
d="M1096 1163h-727l51 236h727zM537 -25q-243 0 -377 152t-78 410l111 520h378l-116 -549q-23 -108 11 -160q35 -53 107 -53q145 0 183 174l125 588h379l-125 -584q-51 -239 -205 -369q-153 -129 -393 -129z" />
    <glyph glyph-name="uogonek.ss06" horiz-adv-x="1230" 
d="M756 469l125 588h379l-125 -584q-74 -354 -365 -461q-196 -79 -211 -153q-8 -40 19 -59q26 -19 69 -19t92 12l-39 -182q-71 -17 -168 -17q-132 0 -200 65q-67 64 -49 161q21 101 151 164q-196 30 -299 178q-102 146 -53 375l111 520h378l-116 -549q-23 -108 11 -160
q35 -53 107 -53q145 0 183 174z" />
    <glyph glyph-name="uring.ss06" horiz-adv-x="1230" 
d="M1038 1247q-100 -90 -239 -90q-142 0 -238 90q-98 88 -98 226t98 227q94 88 238 88t239 -88q97 -91 97 -227q0 -135 -97 -226zM717 1391q33 -33 82 -33t84 33t35 82q0 48 -35 81q-33 33 -83 33t-83 -33t-33 -81q0 -49 33 -82zM537 -25q-243 0 -377 152t-78 410l111 520
h378l-116 -549q-23 -108 11 -160q35 -53 107 -53q145 0 183 174l125 588h379l-125 -584q-51 -239 -205 -369q-153 -129 -393 -129z" />
    <glyph glyph-name="utilde.ss06" horiz-adv-x="1230" 
d="M547 1163h-217q30 143 112 219t185 76q80 0 170 -37q72 -28 112 -28q54 0 72 65h217q-28 -142 -111 -219q-82 -76 -186 -76q-71 0 -166 37q-78 29 -117 29q-53 0 -71 -66zM537 -25q-243 0 -377 152t-78 410l111 520h378l-116 -549q-23 -108 11 -160q35 -53 107 -53
q145 0 183 174l125 588h379l-125 -584q-51 -239 -205 -369q-153 -129 -393 -129z" />
    <glyph glyph-name="ydieresis.ss01.ss07" horiz-adv-x="1183" 
d="M563 1153q-74 0 -126 52t-52 126q0 72 52 124t126 52q72 0 124 -52t52 -124q0 -74 -52 -126t-124 -52zM995 1153q-74 0 -126 52t-52 126q0 72 52 124t126 52q72 0 124 -52t52 -124q0 -74 -52 -126t-124 -52zM874 993l35 64h391l-610 -971l-299 -487h-368l280 454
l-186 1004h397l14 -203q14 -159 16 -187q8 -106 12 -155q1 -13 2.5 -31t3 -29.5t1.5 -19.5q147 259 311 561z" />
    <glyph glyph-name="y.ss07" horiz-adv-x="1183" 
d="M874 993l35 64h391l-610 -971l-299 -487h-368l280 454l-186 1004h397l14 -203q14 -159 16 -187q8 -106 12 -155q1 -13 2.5 -31t3 -29.5t1.5 -19.5q147 259 311 561z" />
    <glyph glyph-name="yacute.ss07" horiz-adv-x="1183" 
d="M762 1458h368l-266 -295h-282zM874 993l35 64h391l-610 -971l-299 -487h-368l280 454l-186 1004h397l14 -203q14 -159 16 -187q8 -106 12 -155q1 -13 2.5 -31t3 -29.5t1.5 -19.5q147 259 311 561z" />
    <glyph glyph-name="ycircumflex.ss07" horiz-adv-x="1183" 
d="M854 1163l-86 119l-139 -119h-332l309 295h391l185 -295h-328zM874 993l35 64h391l-610 -971l-299 -487h-368l280 454l-186 1004h397l14 -203q14 -159 16 -187q8 -106 12 -155q1 -13 2.5 -31t3 -29.5t1.5 -19.5q147 259 311 561z" />
    <glyph glyph-name="ydieresis.ss07" horiz-adv-x="1183" 
d="M393 1458h357l-64 -295h-356zM852 1458h354l-63 -295h-355zM874 993l35 64h391l-610 -971l-299 -487h-368l280 454l-186 1004h397l14 -203q14 -159 16 -187q8 -106 12 -155q1 -13 2.5 -31t3 -29.5t1.5 -19.5q147 259 311 561z" />
    <glyph glyph-name="ygrave.ss07" horiz-adv-x="1183" 
d="M860 1458l58 -295h-283l-143 295h368zM874 993l35 64h391l-610 -971l-299 -487h-368l280 454l-186 1004h397l14 -203q14 -159 16 -187q8 -106 12 -155q1 -13 2.5 -31t3 -29.5t1.5 -19.5q147 259 311 561z" />
    <glyph glyph-name="l.ss08" horiz-adv-x="651" 
d="M387 -8q-418 0 -332 405l226 1061h376l-223 -1046q-29 -136 80 -136h61l-57 -274q-81 -10 -131 -10z" />
    <glyph glyph-name="lacute.ss08" horiz-adv-x="651" 
d="M598 1546h-309l235 295h404zM387 -8q-418 0 -332 405l226 1061h376l-223 -1046q-29 -136 80 -136h61l-57 -274q-81 -10 -131 -10z" />
    <glyph glyph-name="lcaron.ss08" horiz-adv-x="913" 
d="M387 -8q-418 0 -332 405l226 1061h376l-223 -1046q-29 -136 80 -136h61l-57 -274q-81 -10 -131 -10zM942 1118h-260l119 340h348z" />
    <glyph glyph-name="uni013C.ss08" horiz-adv-x="651" 
d="M657 1458l-223 -1046q-29 -136 80 -136h61l-57 -274q-81 -10 -131 -10q-418 0 -332 405l226 1061h376zM61 -332h-129l52 244h309l-53 -250q-44 -199 -297 -199h-56l25 117h55q75 0 92 78z" />
    <glyph glyph-name="ldot.ss08" horiz-adv-x="1085" 
d="M387 -8q-418 0 -332 405l226 1061h376l-223 -1046q-29 -136 80 -136h61l-57 -274q-81 -10 -131 -10zM1016 522h-418l86 406h418z" />
    <glyph glyph-name="lslash.ss08" horiz-adv-x="675" 
d="M727 764l-164 -64l-61 -288q-27 -136 80 -136h61l-57 -274q-81 -10 -131 -10q-418 0 -332 405l31 144l-164 -64l45 219l166 64l147 698h377l-115 -538l162 63z" />
    <glyph glyph-name="uni013C.ss01.ss08" horiz-adv-x="651" 
d="M657 1458l-223 -1046q-29 -136 80 -136h61l-57 -274q-81 -10 -131 -10q-418 0 -332 405l226 1061h376zM113 -78q69 0 115 -45t46 -121q0 -119 -100 -207q-102 -90 -270 -90l28 123q118 6 156 72q-56 4 -94 39q-37 34 -37 90q0 61 45 100t111 39z" />
    <glyph glyph-name="ldot.ss01.ss08" horiz-adv-x="1107" 
d="M387 -8q-418 0 -332 405l226 1061h376l-223 -1046q-29 -136 80 -136h61l-57 -274q-81 -10 -131 -10zM858 498q-96 0 -165 66q-68 65 -68 163q0 95 68 160t165 65q96 0 162 -65q67 -66 67 -160q0 -97 -67 -163q-68 -66 -162 -66z" />
    <glyph glyph-name="fi.ss01" horiz-adv-x="1333" 
d="M1106 1468q54 54 129 54q74 0 131 -54q53 -56 53 -131q0 -76 -53 -129q-55 -55 -131 -55q-77 0 -129 55q-55 52 -55 129q0 76 55 131zM864 1057l-57 -266h-205l-168 -791h-377l168 791h-149l57 266h150l8 43q40 196 149 282t324 86q97 0 184 -10l-57 -274h-103
q-100 0 -124 -109l-5 -18h205zM1139 0h-377l225 1057h377z" />
    <glyph glyph-name="fl.ss08" horiz-adv-x="1433" 
d="M659 1057h205l-57 -266h-205l-168 -791h-377l168 791h-149l57 266h150l8 43q40 196 149 282t324 86q97 0 184 -10l-57 -274h-103q-100 0 -124 -109zM1440 1458l-223 -1046q-29 -136 79 -136h62l-58 -274q-81 -10 -131 -10q-417 0 -331 405l225 1061h377z" />
    <glyph glyph-name="ordfeminine.ss02" horiz-adv-x="1017" 
d="M840 1352l22 104h330l-195 -919h-319l16 81q-96 -102 -239 -102q-189 0 -285 146q-94 140 -41 391q44 202 161 312q120 112 304 112q183 0 246 -125zM582 774q74 0 117 51q46 53 69 162q24 116 -12 173q-38 59 -121 59q-71 0 -116 -51q-44 -50 -66 -154q-24 -120 10 -179
q35 -61 119 -61z" />
    <glyph glyph-name="t.sups.ss05" horiz-adv-x="610" 
d="M666 1458h131l-49 -233h-132l-145 -688h-328l146 688h-131l49 233h131l59 277h328z" />
    <glyph glyph-name="zero.ss09" horiz-adv-x="1957" 
d="M1950 -180h-1860v1818h1860v-1818zM618 729q0 -477 402 -477q401 0 401 477q0 479 -401 479q-402 0 -402 -479zM1022 465q-74 0 -104 61q-31 64 -31 203q0 141 31 205q30 61 104 61q71 0 101 -61q30 -62 30 -205q0 -144 -30 -204t-101 -60z" />
    <glyph glyph-name="one.ss09" horiz-adv-x="1957" 
d="M1950 -180h-1860v1818h1860v-1818zM928 842v-570h256v916h-199q-57 -174 -254 -174v-172h197z" />
    <glyph glyph-name="two.ss09" horiz-adv-x="1957" 
d="M1950 -180h-1860v1818h1860v-1818zM659 412l-6 -97h736v211h-428q17 57 112 103l43 20q150 71 214 143q63 70 63 183q0 124 -97 201q-94 75 -256 75q-322 0 -366 -336h250q8 125 116 125q95 0 95 -88q0 -35 -30 -62q-32 -29 -99 -61l-74 -34q-257 -122 -273 -383z" />
    <glyph glyph-name="three.ss09" horiz-adv-x="1957" 
d="M1950 -180h-1860v1818h1860v-1818zM1034 252q167 0 270 80q101 79 101 213q0 75 -40 131q-41 57 -112 84q127 67 127 190q0 121 -93 190q-92 68 -257 68q-181 0 -270 -74q-91 -75 -101 -231h246q7 55 36 81q27 24 87 24q107 0 107 -82q0 -49 -27 -70q-26 -20 -88 -20h-72
v-181h70q123 0 123 -100q0 -42 -32 -66q-31 -24 -85 -24q-76 0 -108 33t-33 110h-246q6 -356 397 -356z" />
    <glyph glyph-name="four.ss09" horiz-adv-x="1957" 
d="M1950 -180h-1860v1818h1860v-1818zM1010 451v-179h256v179h108v202h-108v535h-265l-397 -488v-249h406zM1016 653h-234l234 287v-287z" />
    <glyph glyph-name="five.ss09" horiz-adv-x="1957" 
d="M1950 -180h-1860v1818h1860v-1818zM1020 233q166 0 271 91q104 90 104 235q0 133 -84 217t-242 84q-76 0 -139 -33l24 129h396v211h-594l-86 -538h237q34 59 113 59q58 0 96 -36q37 -36 37 -93t-37 -93q-38 -36 -96 -36q-98 0 -121 90h-246q11 -131 111 -209t256 -78z
" />
    <glyph glyph-name="six.ss09" horiz-adv-x="1957" 
d="M1950 -180h-1860v1818h1860v-1818zM1020 252q167 0 269 90t102 238q0 130 -85 215q-86 86 -235 86q-131 0 -203 -72v10q11 115 44 158q34 45 108 45q90 0 117 -74h239q-21 127 -111 193q-91 67 -241 67q-193 0 -293 -124t-100 -359q0 -296 155 -408q93 -65 234 -65z
M1114 485q-37 -34 -94 -34q-58 0 -92 34q-35 35 -35 90q0 56 35 89q33 32 92 32q58 0 94 -32q35 -33 35 -89q0 -55 -35 -90z" />
    <glyph glyph-name="seven.ss09" horiz-adv-x="1957" 
d="M1950 -180h-1860v1818h1860v-1818zM825 248h279q5 259 61 414q60 158 187 294v207h-664v-211h420q-277 -304 -283 -704z" />
    <glyph glyph-name="eight.ss09" horiz-adv-x="1957" 
d="M1950 -180h-1860v1818h1860v-1818zM1020 252q178 0 285 78q106 78 106 207q0 157 -151 217q110 65 110 194q0 123 -92 192q-90 68 -258 68q-166 0 -256 -68q-92 -69 -92 -192q0 -129 110 -194q-151 -60 -151 -217q0 -129 106 -207t283 -78zM1139 928q0 -99 -119 -99
t-119 99q0 98 119 98t119 -98zM1020 449q-135 0 -135 108q0 115 135 115q137 0 137 -115q0 -108 -137 -108z" />
    <glyph glyph-name="nine.ss09" horiz-adv-x="1957" 
d="M1950 -180h-1860v1818h1860v-1818zM1028 244q192 0 297 124t105 367q0 301 -162 414q-97 68 -238 68q-166 0 -273 -93q-106 -92 -106 -243q0 -125 86 -217q87 -93 244 -93q107 0 184 56l9 6l-3 -21q-12 -92 -45 -129t-96 -37q-87 0 -108 74h-256q18 -133 113 -205
q93 -71 249 -71zM1118 805q-33 -33 -88 -33q-56 0 -86 33q-33 30 -33 82q0 51 33 84q30 30 86 30q55 0 88 -30q31 -34 31 -84q0 -51 -31 -82z" />
    <glyph glyph-name="zero.ss10" horiz-adv-x="1957" 
d="M1950 -180h-1860v1818h1860v-1818zM393 1366v-1274h1254v1274h-1254zM1430 729q0 -483 -410 -483t-410 483q0 488 410 488t410 -488zM1020 473q68 0 96 56q29 58 29 200q0 146 -30 203t-95 57q-66 0 -95 -56q-30 -57 -30 -204q0 -143 30 -200q29 -56 95 -56z" />
    <glyph glyph-name="one.ss10" horiz-adv-x="1957" 
d="M90 -180v1818h1860v-1818h-1860zM393 92h1254v1274h-1254v-1274zM1208 264h-272v570h-197v188q205 0 256 174h213v-932z" />
    <glyph glyph-name="two.ss10" horiz-adv-x="1957" 
d="M90 -180v1818h1860v-1818h-1860zM393 92h1254v1274h-1254v-1274zM971 494h424v-230h-752l6 105q15 256 277 389l73 37q76 40 99 60q26 23 26 54q0 80 -86 80q-106 0 -108 -125h-266q39 353 374 353q163 0 262 -78t99 -207q0 -115 -64 -188q-63 -72 -217 -146l-43 -20
q-81 -38 -104 -84z" />
    <glyph glyph-name="three.ss10" horiz-adv-x="1957" 
d="M90 -180v1818h1860v-1818h-1860zM393 92h1254v1274h-1254v-1274zM1034 246q-203 0 -306 95q-101 93 -99 275h262q0 -80 30 -111q30 -32 103 -32q51 0 80 23t29 59q0 92 -115 92h-78v197h80q59 0 82 17q24 18 24 65q0 73 -98 73q-58 0 -83 -22q-26 -23 -32 -82h-262
q15 322 379 322q168 0 263 -72q96 -73 96 -195q0 -115 -115 -188q139 -66 139 -217q0 -135 -102 -217q-101 -82 -277 -82z" />
    <glyph glyph-name="four.ss10" horiz-adv-x="1957" 
d="M90 -180v1818h1860v-1818h-1860zM393 92h1254v1274h-1254v-1274zM1300 264h-272v178h-405v260l399 494h278v-534h107v-220h-107v-178zM1036 662v262l-213 -262h213z" />
    <glyph glyph-name="five.ss10" horiz-adv-x="1957" 
d="M90 -180v1818h1860v-1818h-1860zM393 92h1254v1274h-1254v-1274zM1022 459q78 -6 110 57q32 64 0 127t-110 57q-80 0 -109 -59h-249l88 555h608v-227h-397l-21 -107q56 27 129 27q160 0 247 -87t87 -222q0 -151 -107 -243q-106 -91 -276 -91q-158 0 -261 81
q-105 82 -112 222h258q7 -42 40 -67q30 -23 75 -23z" />
    <glyph glyph-name="six.ss10" horiz-adv-x="1957" 
d="M90 -180v1818h1860v-1818h-1860zM393 92h1254v1274h-1254v-1274zM793 315q-160 115 -160 410q0 244 103 368t296 124q154 0 249 -72q96 -73 114 -205h-254q-23 74 -111 74q-67 0 -100 -39q-32 -38 -43 -146q72 60 192 60q158 0 244 -92t86 -217q0 -152 -104 -243
t-275 -91q-142 0 -237 69zM1118 657q-34 31 -88 31q-56 0 -86 -33q-33 -33 -33 -82q0 -48 33 -81q30 -33 86 -33q55 0 88 33q33 30 33 81t-33 84z" />
    <glyph glyph-name="seven.ss10" horiz-adv-x="1957" 
d="M90 -180v1818h1860v-1818h-1860zM393 92h1254v1274h-1254v-1274zM1112 264h-295q5 402 273 705h-410v227h680v-219q-128 -134 -189 -295q-59 -156 -59 -418z" />
    <glyph glyph-name="eight.ss10" horiz-adv-x="1957" 
d="M90 -180v1818h1860v-1818h-1860zM393 92h1254v1274h-1254v-1274zM623 539q0 154 137 217q-98 67 -98 192q0 128 94 198q95 71 262 71q169 0 264 -71q94 -70 94 -198q0 -125 -98 -192q139 -61 139 -217q0 -134 -107 -213q-109 -80 -292 -80q-182 0 -289 80
q-106 79 -106 213zM1128 928q0 90 -110 90q-111 0 -111 -90t111 -90q110 0 110 90zM1018 457q129 0 129 100q0 107 -129 107q-125 0 -125 -107q0 -100 125 -100z" />
    <glyph glyph-name="nine.ss10" horiz-adv-x="1957" 
d="M90 -180v1818h1860v-1818h-1860zM393 92h1254v1274h-1254v-1274zM961 569q-157 0 -244 93q-86 92 -86 217q0 151 105 243q106 92 274 92q137 0 237 -75q162 -113 162 -406q0 -242 -104 -365q-105 -124 -297 -124q-155 0 -249 70q-96 72 -114 204h256q23 -72 109 -72
q67 0 100 39q32 38 43 146q-73 -62 -192 -62zM1098 967q-32 32 -88 32q-57 0 -86 -32q-33 -33 -33 -82t33 -82q30 -33 86 -33q55 0 88 33q30 33 30 82t-30 82z" />
    <glyph glyph-name="zero.zero" horiz-adv-x="1433" 
d="M874 1491q339 0 478 -205t57 -590q-73 -347 -270 -538t-494 -191q-340 0 -478 207t-54 596q74 344 269 533q194 188 492 188zM836 1157q-214 0 -299 -397q-26 -125 -31 -199l479 524q-40 72 -149 72zM680 301q221 0 305 406q23 110 29 198l-484 -530q39 -74 150 -74z" />
    <glyph glyph-name="zero.dnom" horiz-adv-x="827" 
d="M326 -16q-192 0 -268 118q-77 119 -27 355q89 405 424 405q190 0 268 -120q78 -121 29 -351q-88 -407 -426 -407zM350 180q64 0 99 50q33 48 61 176q29 144 11 201q-18 59 -87 59q-64 0 -101 -52q-37 -53 -61 -174q-28 -142 -10 -201t88 -59z" />
    <glyph glyph-name="one.dnom" horiz-adv-x="520" 
d="M319 0h-247l108 516h-178l37 172q182 0 266 158h195z" />
    <glyph glyph-name="two.dnom" horiz-adv-x="749" 
d="M600 0h-674l25 88q72 248 321 354l76 33q78 35 105 54q30 21 36 49q18 88 -73 88q-102 0 -125 -115h-230q69 307 383 307q154 0 233 -76q78 -75 48 -204q-18 -86 -86 -145q-67 -59 -207 -120l-61 -26q-98 -44 -121 -94h391z" />
    <glyph glyph-name="three.dnom" horiz-adv-x="765" 
d="M313 -16q-182 0 -268 86t-65 241h227q-21 -131 119 -131q88 0 106 74q21 100 -92 100h-66l37 166h66q103 0 121 74q11 41 -14 62q-25 22 -74 22q-102 0 -125 -96h-226q35 147 124 214q88 66 249 66q154 0 237 -69t60 -181q-12 -57 -55 -103q-44 -48 -109 -71
q64 -21 91 -76q28 -58 12 -135q-52 -243 -355 -243z" />
    <glyph glyph-name="four.dnom" horiz-adv-x="796" 
d="M485 846h252l-102 -486h98l-43 -198h-98l-35 -162h-248l35 162h-369l50 235zM440 594l-239 -234h188z" />
    <glyph glyph-name="five.dnom" horiz-adv-x="737" 
d="M293 -16q-150 0 -240 72t-82 190h226q0 -38 32 -60t78 -22q104 0 125 104q12 67 -16 102q-29 36 -86 36q-74 0 -105 -54h-219l184 494h545l-41 -193h-362l-47 -118q60 30 129 30q132 0 198 -90t39 -223q-24 -120 -120 -195q-94 -73 -238 -73z" />
    <glyph glyph-name="six.dnom" horiz-adv-x="757" 
d="M428 565q140 0 206 -89t36 -226q-24 -116 -118 -192q-92 -74 -224 -74q-158 0 -244 86q-130 128 -64 401q90 391 416 391q134 0 214 -64q81 -65 87 -175h-221q-7 67 -102 67q-123 0 -164 -160l-6 -30q75 65 184 65zM455 272q12 53 -18 88t-81 35q-109 0 -133 -98
q-12 -57 21 -94t90 -37q100 0 121 106z" />
    </font>
</defs>
</svg>
