<?xml version="1.0" standalone="no"?>
<!DOCTYPE svg PUBLIC "-//W3C//DTD SVG 1.1//EN" "http://www.w3.org/Graphics/SVG/1.1/DTD/svg11.dtd" >
<svg xmlns="http://www.w3.org/2000/svg" xmlns:xlink="http://www.w3.org/1999/xlink" version="1.1">
<metadata>
Created by FontForge 20170731 at Sat Jul 31 16:37:49 2021
 By Aleksey,,,
Copyright (c) 2019 Monotype Imaging Inc. All rights reserved.
</metadata>
<defs>
<font id="HelveticaNowDisplay-MedIta" horiz-adv-x="0" >
  <font-face 
    font-family="HelveticaNowDisplay Medium"
    font-weight="500"
    font-style="italic"
    font-stretch="normal"
    units-per-em="2048"
    panose-1="2 11 6 4 3 2 2 9 2 4"
    ascent="1792"
    descent="-256"
    x-height="1057"
    cap-height="1458"
    bbox="-854 -670 2558 2128"
    underline-thickness="102"
    underline-position="-614"
    slope="-12"
    unicode-range="U+000D-FEFF"
  />
<missing-glyph horiz-adv-x="1312" 
d="M1186 0h-1059v1458h1059v-1458zM334 1274v-1090h645v1090h-645z" />
    <glyph glyph-name="fi" unicode="fi" horiz-adv-x="1099" 
d="M737 1057l-37 -168h-219l-190 -889h-205l188 889h-170l37 168h168l27 123q57 284 373 284q53 0 122 -4l-36 -166h-95q-134 0 -163 -141l-21 -96h221zM924 1206l45 219h209l-45 -219h-209zM872 0h-204l225 1057h205z" />
    <glyph glyph-name="fl" unicode="fl" horiz-adv-x="1083" 
d="M737 1057l-37 -168h-219l-190 -889h-205l188 889h-170l37 168h168l27 123q57 284 373 284q53 0 122 -4l-36 -166h-95q-134 0 -163 -141l-21 -96h221zM651 0l310 1458h204l-309 -1458h-205z" />
    <glyph glyph-name=".notdef" horiz-adv-x="1312" 
d="M1186 0h-1059v1458h1059v-1458zM334 1274v-1090h645v1090h-645z" />
    <glyph glyph-name=".null" 
 />
    <glyph glyph-name="nonmarkingreturn" horiz-adv-x="681" 
 />
    <glyph glyph-name="NULL" 
 />
    <glyph glyph-name="NULL" 
 />
    <glyph glyph-name="CR" unicode="&#xd;" horiz-adv-x="413" 
 />
    <glyph glyph-name="space" unicode=" " horiz-adv-x="413" 
 />
    <glyph glyph-name="exclam" unicode="!" horiz-adv-x="419" 
d="M240 410h-125l96 659l84 389h217l-82 -389zM225 0h-248l54 244h248z" />
    <glyph glyph-name="quotedbl" unicode="&#x22;" horiz-adv-x="880" 
d="M387 893h-158l95 565h219zM795 893h-156l94 565h219z" />
    <glyph glyph-name="numbersign" unicode="#" horiz-adv-x="1337" 
d="M1389 1044l-70 -170h-201l-121 -290h201l-72 -170h-200l-172 -414h-197l172 414h-301l-172 -414h-197l172 414h-198l71 170h199l121 290h-199l72 170h199l172 414h196l-172 -414h301l172 414h197l-172 -414h199zM500 584h301l121 290h-301z" />
    <glyph glyph-name="dollar" unicode="$" horiz-adv-x="1284" 
d="M1292 1030h-215q33 229 -190 266l-101 -469l35 -8q453 -96 369 -471q-39 -177 -193 -278q-155 -102 -393 -103l-43 -205h-145l45 213q-231 29 -343 160q-112 132 -79 346h219q-37 -280 242 -319l104 493l-31 7q-202 44 -297 158q-96 115 -61 300q34 172 186 271
q151 98 381 100l43 205h146l-45 -213q216 -28 307 -148q89 -118 59 -305zM438 1108q-21 -97 28 -155q47 -56 181 -95l94 447q-268 -12 -303 -197zM965 362q22 106 -28 165q-49 58 -194 96l-98 -469q283 12 320 208z" />
    <glyph glyph-name="percent" unicode="%" horiz-adv-x="1830" 
d="M436 596q-175 0 -252 125q-76 123 -26 356q90 400 401 400q175 0 252 -123q76 -123 27 -350q-86 -408 -402 -408zM506 0h-180l1089 1458h180zM451 735q162 0 219 279q72 323 -125 323q-85 0 -137 -68q-53 -70 -86 -214q-35 -158 0 -239q34 -81 129 -81zM1358 -16
q-175 0 -252 125t-27 356q84 399 402 399q175 0 252 -123q76 -122 26 -350q-85 -407 -401 -407zM1370 123q85 0 137 67q55 70 84 211q72 324 -125 324q-86 0 -139 -69q-55 -72 -84 -214q-34 -155 0 -237t127 -82z" />
    <glyph glyph-name="ampersand" unicode="&#x26;" horiz-adv-x="1380" 
d="M1055 297l202 -297h-258l-90 133q-196 -166 -454 -166q-221 0 -344 131q-123 129 -80 330q27 122 126 217t285 180q-125 199 -88 383q24 127 132 205t276 78q165 0 272 -98q105 -99 68 -265q-39 -197 -373 -356l213 -311q52 102 92 250h201q-63 -247 -180 -414zM563 1174
q-27 -116 76 -269q239 121 260 225q18 84 -29 136q-46 51 -129 51q-72 0 -118 -40q-48 -42 -60 -103zM485 152q189 0 324 129l-274 407q-141 -72 -208 -131q-65 -58 -83 -139q-23 -111 46 -189q68 -77 195 -77z" />
    <glyph glyph-name="quotesingle" unicode="'" horiz-adv-x="473" 
d="M387 893h-158l95 565h219z" />
    <glyph glyph-name="parenleft" unicode="(" horiz-adv-x="577" 
d="M389 -401h-190q-181 426 -52 1063q111 538 469 942h199q-346 -437 -457 -973q-63 -321 -53 -559q7 -227 84 -473z" />
    <glyph glyph-name="parenright" unicode=")" horiz-adv-x="577" 
d="M-35 -401h-198q342 442 456 972q61 330 53 559q-8 232 -83 474h188q184 -439 53 -1063q-113 -538 -469 -942z" />
    <glyph glyph-name="asterisk" unicode="*" horiz-adv-x="970" 
d="M829 686l-135 -68l-129 287l-235 -209l-94 117l237 215l-274 156l77 129l267 -154l63 305l148 -30l-66 -306l305 33l19 -149l-314 -33z" />
    <glyph glyph-name="plus" unicode="+" horiz-adv-x="1083" 
d="M682 819h367v-180h-367v-367h-197v367h-368v180h368v369h197v-369z" />
    <glyph glyph-name="comma" unicode="," horiz-adv-x="419" 
d="M-23 0l52 244h247l-55 -260q-33 -150 -102 -213q-71 -65 -205 -72l27 127q60 6 91 37q30 29 46 106l6 31h-107z" />
    <glyph glyph-name="hyphen" unicode="-" horiz-adv-x="751" 
d="M666 487h-600l38 179h601z" />
    <glyph glyph-name="period" unicode="." horiz-adv-x="419" 
d="M221 0h-248l54 244h247z" />
    <glyph glyph-name="slash" unicode="/" horiz-adv-x="768" 
d="M115 0h-205l829 1458h203z" />
    <glyph glyph-name="zero" unicode="0" horiz-adv-x="1294" 
d="M555 -33q-287 0 -392 204q-106 205 -22 595q73 346 250 536q175 189 436 189q279 0 387 -205q109 -207 27 -586q-77 -353 -251 -542q-176 -191 -435 -191zM571 158q161 0 272 138q112 139 167 406q124 598 -201 598q-319 0 -436 -544q-129 -598 198 -598z" />
    <glyph glyph-name="one" unicode="1" horiz-adv-x="763" 
d="M616 1458h177l-312 -1458h-219l221 1040h-333l34 162l33 2q162 11 252 67q92 57 147 187z" />
    <glyph glyph-name="two" unicode="2" horiz-adv-x="1161" 
d="M754 1491q229 0 346 -127q116 -126 71 -332q-30 -142 -140 -253t-308 -206l-168 -81q-134 -66 -200 -133q-64 -66 -93 -169h748l-39 -190h-1008l25 92q51 190 147 320q93 127 320 233l184 92q146 71 220 141q71 66 89 158q27 127 -29 195q-57 69 -190 69
q-274 0 -334 -292h-215q92 483 574 483z" />
    <glyph glyph-name="three" unicode="3" horiz-adv-x="1212" 
d="M1188 1053q-44 -195 -268 -285q233 -111 167 -403q-43 -189 -185 -293q-142 -105 -376 -105q-256 0 -382 131q-125 130 -95 361h215q-17 -147 58 -225q73 -76 223 -76q270 0 321 233q28 139 -38 216t-210 77h-108l37 170h102q135 0 220 55t106 152q24 114 -39 179
t-193 65q-264 0 -327 -258h-217q43 211 189 327q147 117 376 117q213 0 342 -117q127 -116 82 -321z" />
    <glyph glyph-name="four" unicode="4" horiz-adv-x="1234" 
d="M918 1458h237l-194 -915h194l-41 -191h-194l-76 -352h-217l75 352h-722l45 209zM881 1184l-635 -641h497z" />
    <glyph glyph-name="five" unicode="5" horiz-adv-x="1208" 
d="M1235 1458l-41 -190h-619l-147 -396q107 82 262 82q233 0 344 -151q111 -152 62 -391q-39 -195 -185 -320q-145 -125 -372 -125q-224 0 -357 121q-134 122 -119 322h216q-2 -128 70 -192q71 -64 206 -64q125 0 212 78q89 80 116 208q33 154 -36 246t-210 92
q-203 0 -293 -164h-209l305 844h795z" />
    <glyph glyph-name="six" unicode="6" horiz-adv-x="1253" 
d="M729 954q221 0 342 -151q116 -149 64 -389q-45 -204 -192 -326q-146 -121 -368 -121q-242 0 -370 160q-150 189 -68 649q72 330 246 522q175 193 444 193q198 0 313 -106q113 -104 113 -293h-211q-12 219 -243 219q-330 0 -453 -531q141 174 383 174zM922 438
q30 151 -41 243q-72 93 -209 93q-125 0 -220 -77q-96 -78 -120 -193q-34 -161 38 -256q72 -94 218 -94q128 0 217 77q90 78 117 207z" />
    <glyph glyph-name="seven" unicode="7" horiz-adv-x="1038" 
d="M199 1268l41 190h962l-37 -174q-310 -273 -497 -585q-188 -315 -279 -699h-227q176 747 758 1268h-721z" />
    <glyph glyph-name="eight" unicode="8" horiz-adv-x="1222" 
d="M1210 1053q-44 -199 -278 -287q119 -56 170 -161q50 -104 20 -247q-37 -178 -188 -284q-152 -107 -387 -107q-271 0 -410 139q-137 137 -86 371q53 238 334 318q-181 120 -135 354q34 165 172 254q136 88 354 88q225 0 352 -121q125 -119 82 -317zM1001 1053
q27 121 -38 189q-66 69 -201 69q-268 0 -309 -195q-24 -122 47 -190q73 -70 205 -70q118 0 197 52q77 51 99 145zM907 395q30 143 -45 218q-77 77 -233 77q-147 0 -241 -61q-96 -63 -120 -174q-29 -143 50 -223t239 -80q147 0 236 64q90 64 114 179z" />
    <glyph glyph-name="nine" unicode="9" horiz-adv-x="1253" 
d="M1116 1333q152 -191 70 -649q-72 -327 -246 -522q-175 -193 -444 -193q-198 0 -313 106q-113 104 -113 294h209q17 -219 245 -219q333 0 451 530q-141 -174 -383 -174q-221 0 -338 151q-118 150 -66 390q43 203 191 325q146 121 369 121q243 0 368 -160zM651 686
q125 0 219 76t121 194q34 162 -39 256q-74 95 -219 95q-125 0 -216 -79q-92 -80 -116 -206q-30 -151 41 -243q72 -93 209 -93z" />
    <glyph glyph-name="colon" unicode=":" horiz-adv-x="419" 
d="M379 762h-248l53 244h248zM221 0h-248l54 244h247z" />
    <glyph glyph-name="semicolon" unicode=";" horiz-adv-x="419" 
d="M137 760l53 244h248l-53 -244h-248zM84 0h-107l52 244h247l-55 -264q-56 -267 -280 -279l-27 -2l27 127l22 2q88 10 115 139z" />
    <glyph glyph-name="less" unicode="&#x3c;" horiz-adv-x="1083" 
d="M1049 1223v-213l-250 -101q-416 -158 -475 -178q2 -1 52.5 -20t169 -64t253.5 -96l250 -100v-213l-932 389v207z" />
    <glyph glyph-name="equal" unicode="=" horiz-adv-x="1083" 
d="M1008 823h-932v176h932v-176zM1008 459h-932v176h932v-176z" />
    <glyph glyph-name="greater" unicode="&#x3e;" horiz-adv-x="1083" 
d="M160 1010v213l930 -389v-207l-930 -389v213l248 100q135 51 253.5 96t169 64t52.5 20q-59 20 -475 178z" />
    <glyph glyph-name="question" unicode="?" horiz-adv-x="1060" 
d="M596 410h-201q33 159 92 247q61 96 207 195q99 65 154 120q48 48 65 113q23 108 -29 164q-53 58 -177 58q-138 0 -221 -71q-84 -72 -124 -228h-208q52 248 194 366q141 117 377 117q226 0 338 -109q111 -108 67 -309q-35 -158 -258 -311q-167 -118 -213 -182
q-33 -40 -63 -170zM541 0h-248l53 244h248z" />
    <glyph glyph-name="at" unicode="@" horiz-adv-x="1894" 
d="M1133 1491q382 0 591 -236q207 -236 125 -630q-40 -189 -159 -322q-122 -135 -293 -135q-207 0 -244 174q-122 -176 -313 -176q-166 0 -250 133q-85 130 -39 358q39 192 168 310q127 114 291 114q160 0 229 -125l21 101h192l-113 -537q-18 -102 0 -144t80 -42
q89 0 158 89q70 90 100 224q68 314 -88 500t-487 186q-317 0 -541 -190q-225 -189 -291 -486q-73 -343 101 -546q173 -203 489 -203q210 0 414 74l-33 -164q-186 -66 -407 -66q-400 0 -611 256q-213 257 -125 672q73 352 359 582q284 229 676 229zM745 408q39 -82 144 -82
q102 0 180 80q75 81 102 217q29 141 -12 221t-145 80q-102 0 -174 -77q-73 -78 -103 -210q-30 -148 8 -229z" />
    <glyph glyph-name="A" unicode="A" horiz-adv-x="1445" 
d="M1305 0h-224l-65 379h-654l-223 -379h-233l878 1458h250zM520 649l-47 -80h512l-14 80q-58 309 -99 598q-170 -292 -352 -598z" />
    <glyph glyph-name="B" unicode="B" horiz-adv-x="1318" 
d="M1325 1036q-44 -192 -262 -282q234 -108 178 -385q-38 -175 -178 -272t-369 -97h-678l310 1458h585q232 0 343 -116t71 -306zM1110 1049q22 104 -36 162q-59 59 -193 59h-377l-90 -434h391q127 0 205 56q79 57 100 157zM1028 406q27 119 -41 182q-67 63 -207 63h-407
l-97 -463h445q124 0 205 58q79 57 102 160z" />
    <glyph glyph-name="C" unicode="C" horiz-adv-x="1458" 
d="M655 -33q-319 0 -471 215q-151 212 -67 598q63 312 295 514q229 197 522 197q238 0 391 -129q157 -134 158 -387h-221q-24 321 -347 321q-207 0 -364 -145q-156 -147 -209 -391q-62 -285 29 -442q90 -156 305 -156q174 0 309 98q137 99 197 279h221q-82 -278 -285 -424
q-204 -148 -463 -148z" />
    <glyph glyph-name="D" unicode="D" horiz-adv-x="1435" 
d="M326 1458h501q336 0 492 -217t82 -571q-146 -670 -844 -670h-541zM1178 705q55 255 -44 408t-331 153h-299l-228 -1073h299q496 0 603 512z" />
    <glyph glyph-name="E" unicode="E" horiz-adv-x="1218" 
d="M1366 1458l-41 -196h-821l-88 -412h741l-41 -193h-741l-101 -460h816l-41 -197h-1035l312 1458h1040z" />
    <glyph glyph-name="F" unicode="F" horiz-adv-x="1157" 
d="M1319 1458l-41 -196h-774l-88 -412h698l-41 -193h-698l-142 -657h-219l312 1458h993z" />
    <glyph glyph-name="G" unicode="G" horiz-adv-x="1546" 
d="M911 1296q-214 0 -364 -147q-154 -151 -205 -391q-60 -277 43 -436q103 -160 324 -160q189 0 340 117q147 114 194 301h-426l39 186h635l-164 -766h-168l2 180q-191 -213 -481 -213q-324 0 -483 219q-159 220 -80 594q68 317 284 514q218 197 533 197q269 0 430 -139
q158 -141 152 -375h-224q-1 145 -106 232t-275 87z" />
    <glyph glyph-name="H" unicode="H" horiz-adv-x="1443" 
d="M1167 850l129 608h220l-312 -1458h-219l139 649h-751l-140 -649h-219l312 1458h219l-129 -608h751z" />
    <glyph glyph-name="I" unicode="I" horiz-adv-x="473" 
d="M233 0h-219l312 1458h219z" />
    <glyph glyph-name="J" unicode="J" horiz-adv-x="1089" 
d="M446 -31q-227 0 -335 135q-109 135 -54 365l11 45h211l-15 -70q-28 -139 26 -212q54 -72 179 -72q231 0 287 264l219 1034h219l-221 -1038q-95 -451 -527 -451z" />
    <glyph glyph-name="K" unicode="K" horiz-adv-x="1392" 
d="M1280 1458h289l-740 -600l431 -858h-244l-365 721l-315 -250l-100 -471h-220l310 1458h219l-154 -723z" />
    <glyph glyph-name="L" unicode="L" horiz-adv-x="1097" 
d="M545 1458l-271 -1261h717l-43 -197h-934l312 1458h219z" />
    <glyph glyph-name="M" unicode="M" horiz-adv-x="1751" 
d="M1065 702l448 756h310l-310 -1458h-210l96 457q103 475 166 737q-37 -67 -193 -336l-514 -858h-178l-152 858q-31 196 -51 338q-76 -381 -149 -739l-97 -457h-215l310 1458h303l135 -776q29 -167 59 -406q109 202 242 426z" />
    <glyph glyph-name="N" unicode="N" horiz-adv-x="1445" 
d="M1176 1016l94 442h213l-312 -1458h-245l-299 707q-128 304 -189 481q-55 -296 -151 -746l-94 -442h-213l311 1458h246l301 -706q140 -336 186 -486q89 453 152 750z" />
    <glyph glyph-name="O" unicode="O" horiz-adv-x="1554" 
d="M684 -33q-326 0 -485 219q-160 219 -82 590q66 312 299 514q231 201 542 201q325 0 484 -215q160 -221 84 -580q-67 -316 -299 -524q-230 -205 -543 -205zM702 164q220 0 383 151q164 152 215 398q57 270 -42 426q-98 155 -322 155q-218 0 -379 -149q-166 -152 -217 -397
q-60 -270 40 -427t322 -157z" />
    <glyph glyph-name="P" unicode="P" horiz-adv-x="1310" 
d="M326 1458h577q249 0 367 -136t71 -368q-39 -188 -190 -302q-150 -113 -379 -113h-422l-114 -539h-220zM1122 979q29 141 -35 214t-210 73h-373l-113 -535h395q136 0 224 66t112 182z" />
    <glyph glyph-name="Q" unicode="Q" horiz-adv-x="1554" 
d="M1526 696q-63 -312 -295 -520l153 -196l-149 -107l-154 197q-191 -103 -397 -103q-326 0 -485 219q-160 219 -82 590q66 312 299 514q231 201 542 201q325 0 484 -215q160 -221 84 -580zM807 422l147 106l152 -194q144 150 194 379q57 270 -42 426q-98 155 -322 155
q-218 0 -379 -149q-166 -152 -217 -397q-60 -270 40 -427t322 -157q137 0 259 61z" />
    <glyph glyph-name="R" unicode="R" horiz-adv-x="1339" 
d="M326 1458h592q243 0 372 -117q125 -117 80 -327q-22 -116 -112 -201q-88 -84 -224 -117q111 -27 150 -103t16 -220l-29 -191q-20 -107 11 -182h-226q-27 59 -4 188l33 181q21 122 -27 177q-47 54 -172 54h-424l-126 -600h-220zM1145 1010q29 130 -39 195t-213 65h-389
l-103 -488h418q125 0 215 61q88 60 111 167z" />
    <glyph glyph-name="S" unicode="S" horiz-adv-x="1284" 
d="M588 -33q-293 0 -440 135t-109 379h219q-22 -169 68 -249q88 -78 284 -78q154 0 245 54q92 54 110 154q24 115 -36 175q-58 58 -237 98l-119 27q-202 44 -297 158q-96 115 -61 300q34 174 188 273q151 98 385 98q299 0 420 -127q118 -127 84 -334h-215q21 136 -49 206
q-69 69 -254 69q-298 0 -336 -197q-21 -106 38 -165q58 -58 224 -97l121 -27q453 -96 369 -471q-39 -179 -197 -280t-405 -101z" />
    <glyph glyph-name="T" unicode="T" horiz-adv-x="1263" 
d="M236 1458h1189l-43 -196h-483l-268 -1262h-223l268 1262h-481z" />
    <glyph glyph-name="U" unicode="U" horiz-adv-x="1392" 
d="M618 -31q-297 0 -431 173t-62 495l178 821h219l-182 -856q-91 -440 297 -440q357 0 436 385l191 911h219l-199 -950q-114 -539 -666 -539z" />
    <glyph glyph-name="V" unicode="V" horiz-adv-x="1370" 
d="M872 610l439 848h235l-778 -1458h-250l-299 1458h225l166 -848q35 -203 62 -403q71 157 200 403z" />
    <glyph glyph-name="W" unicode="W" horiz-adv-x="1978" 
d="M1602 797l317 661h231l-718 -1458h-246l-41 682q-9 263 -17 508q-76 -171 -235 -508l-332 -682h-244l-100 1458h223l39 -661q14 -315 19 -543q102 233 250 547l315 657h233l37 -657q14 -242 19 -543q132 294 250 539z" />
    <glyph glyph-name="X" unicode="X" horiz-adv-x="1335" 
d="M1229 1458h256l-637 -706l356 -752h-243l-132 281q-50 106 -139 299q-208 -236 -266 -299l-254 -281h-256l676 745l-338 713h244l120 -258q70 -148 129 -287q56 62 100 113q59 68 96 111q32 37 58 65z" />
    <glyph glyph-name="Y" unicode="Y" horiz-adv-x="1370" 
d="M1038 1153l252 305h254l-737 -876l-123 -582h-219l123 582l-369 876h238l127 -307q61 -151 143 -381q262 324 311 383z" />
    <glyph glyph-name="Z" unicode="Z" horiz-adv-x="1253" 
d="M1389 1458l-41 -186l-766 -760q-92 -92 -328 -319q164 4 418 4h461l-43 -197h-1151l41 186l761 760q65 61 164 160t164 160q-164 -4 -418 -4h-407l41 196h1104z" />
    <glyph glyph-name="bracketleft" unicode="[" horiz-adv-x="673" 
d="M428 -401h-512l428 2005h510l-39 -177h-309l-350 -1652h309z" />
    <glyph glyph-name="backslash" unicode="\" horiz-adv-x="768" 
d="M629 0h-195l-211 1458h195z" />
    <glyph glyph-name="bracketright" unicode="]" horiz-adv-x="673" 
d="M360 -401h-510l37 176h310l352 1652h-309l36 177h510z" />
    <glyph glyph-name="asciicircum" unicode="^" horiz-adv-x="886" 
d="M379 1458h211l330 -610h-203l-185 354q-13 19 -47 94q-38 -80 -47 -94l-186 -354h-203z" />
    <glyph glyph-name="underscore" unicode="_" horiz-adv-x="897" 
d="M713 -348h-899l34 168h900z" />
    <glyph glyph-name="grave" unicode="`" horiz-adv-x="819" 
d="M641 1206h-164l-137 295h246z" />
    <glyph glyph-name="a" unicode="a" horiz-adv-x="1101" 
d="M1014 705l-99 -463q-23 -84 46 -84h51l-35 -158q-47 -6 -100 -6q-170 0 -172 137q-131 -156 -353 -156q-182 0 -273 99t-54 266q51 235 444 274l170 19q87 10 130 35q42 24 54 77q39 173 -198 173q-117 0 -181 -44t-92 -147h-200q50 187 162 270q114 84 329 84
q453 0 371 -376zM403 135q127 0 226 75t123 206l26 121q-52 -31 -143 -43l-150 -21q-123 -16 -182 -55q-59 -38 -74 -105q-34 -178 174 -178z" />
    <glyph glyph-name="b" unicode="b" horiz-adv-x="1198" 
d="M737 1081q229 0 336 -159q109 -160 53 -426q-51 -237 -202 -377q-150 -144 -369 -144q-232 0 -324 181l-32 -156h-197l311 1458h205l-106 -504q143 127 325 127zM918 516q39 188 -23 289q-61 100 -209 100q-147 0 -246 -93q-98 -92 -137 -271q-43 -185 22 -290
q65 -104 220 -104q139 0 238 99q101 101 135 270z" />
    <glyph glyph-name="c" unicode="c" horiz-adv-x="1087" 
d="M479 -25q-229 0 -346 162q-119 162 -57 445q47 225 203 362q152 137 383 137q197 0 307 -106q110 -105 102 -287h-215q-1 105 -61 160q-59 55 -160 55q-131 0 -225 -93t-129 -267q-37 -189 24 -289t197 -100q226 0 299 223h209q-57 -190 -196 -296t-335 -106z" />
    <glyph glyph-name="d" unicode="d" horiz-adv-x="1212" 
d="M958 913l117 545h205l-311 -1458h-197l25 113q-146 -138 -336 -138q-229 0 -336 162q-110 161 -53 424q51 234 202 379q152 141 369 141q227 0 315 -168zM510 152q149 0 248 93q98 92 137 271q43 186 -23 290q-66 103 -221 103q-137 0 -236 -99q-99 -100 -134 -269
q-39 -189 21 -289t208 -100z" />
    <glyph glyph-name="e" unicode="e" horiz-adv-x="1136" 
d="M662 1081q239 0 352 -159q113 -158 53 -402q-2 -16 -16 -59h-793q-17 -154 48 -234t192 -80q208 0 299 177h207q-141 -349 -525 -349q-234 0 -348 158q-119 158 -59 432q45 227 209 373q161 143 381 143zM641 909q-122 0 -214 -74t-136 -212h583q16 128 -46 207
q-63 79 -187 79z" />
    <glyph glyph-name="f" unicode="f" horiz-adv-x="681" 
d="M795 1294h-95q-134 0 -163 -141l-21 -96h221l-37 -168h-219l-190 -889h-205l188 889h-170l37 168h168l27 123q57 284 373 284q53 0 122 -4z" />
    <glyph glyph-name="g" unicode="g" horiz-adv-x="1198" 
d="M969 909l32 148h197l-217 -1020q-51 -234 -186 -348q-136 -115 -383 -115q-215 0 -322 94q-108 95 -98 258h207q-2 -93 56 -139q59 -47 175 -47q280 0 346 305l17 72q-137 -129 -322 -129q-231 0 -342 166q-110 167 -53 428q52 237 207 368q152 131 362 131
q228 0 324 -172zM518 164q138 0 240 93t141 257l8 39q30 167 -35 259q-66 93 -210 93q-142 0 -240 -94q-99 -94 -133 -260q-39 -179 23 -283t206 -104z" />
    <glyph glyph-name="h" unicode="h" horiz-adv-x="1130" 
d="M754 1081q180 0 258 -112q77 -111 30 -328l-139 -641h-205l138 649q52 252 -160 252q-120 0 -215 -81q-95 -82 -125 -224l-127 -596h-205l309 1458h205l-112 -534q147 157 348 157z" />
    <glyph glyph-name="i" unicode="i" horiz-adv-x="434" 
d="M467 1206h-209l45 219h209zM207 0h-205l225 1057h205z" />
    <glyph glyph-name="j" unicode="j" horiz-adv-x="440" 
d="M467 1206h-209l45 219h209zM-113 -408q-103 0 -131 2l35 170h72q49 0 75 27q24 25 39 94l250 1172h205l-254 -1192q-57 -273 -291 -273z" />
    <glyph glyph-name="k" unicode="k" horiz-adv-x="1073" 
d="M891 1057h260l-479 -393l280 -664h-215l-221 543l-235 -187l-76 -356h-203l311 1458h203l-182 -854z" />
    <glyph glyph-name="l" unicode="l" horiz-adv-x="434" 
d="M209 0h-205l309 1458h205z" />
    <glyph glyph-name="m" unicode="m" horiz-adv-x="1748" 
d="M1370 1081q182 0 256 -111t33 -315l-137 -655h-207l141 659q50 242 -156 242q-106 0 -192 -84q-87 -85 -121 -237l-123 -580h-205l140 651q52 250 -154 250q-108 0 -195 -84q-88 -85 -118 -237h-2l-123 -580h-205l225 1057h197l-29 -137q136 161 318 161q242 0 293 -198
q156 198 364 198z" />
    <glyph glyph-name="n" unicode="n" horiz-adv-x="1130" 
d="M752 1081q180 0 258 -112q77 -111 30 -328l-139 -641h-205l138 649q51 252 -160 252q-120 0 -215 -81q-95 -82 -125 -224l-127 -596h-205l225 1057h197l-31 -144q147 168 359 168z" />
    <glyph glyph-name="o" unicode="o" horiz-adv-x="1177" 
d="M502 -25q-254 0 -371 159t-57 437q45 223 215 369q167 141 387 141q255 0 370 -158q115 -159 58 -436q-45 -222 -213 -368q-168 -144 -389 -144zM512 152q142 0 245 97q104 98 138 263q41 185 -22 289q-62 104 -207 104q-139 0 -244 -99q-104 -98 -139 -259
q-41 -187 22 -291q62 -104 207 -104z" />
    <glyph glyph-name="p" unicode="p" horiz-adv-x="1198" 
d="M737 1081q227 0 338 -159q108 -166 51 -426q-51 -237 -202 -377q-150 -144 -369 -144q-227 0 -315 168l-117 -544h-205l311 1458h197l-25 -113q145 137 336 137zM918 516q39 188 -23 289q-61 100 -207 100q-149 0 -248 -93q-98 -92 -137 -271q-43 -186 23 -290t221 -104
q136 0 236 100q101 101 135 269z" />
    <glyph glyph-name="q" unicode="q" horiz-adv-x="1212" 
d="M965 901l34 156h197l-311 -1458h-205l106 505q-140 -129 -325 -129q-229 0 -336 162q-110 161 -53 424q51 234 202 379q152 141 369 141q237 0 322 -180zM510 152q149 0 248 93q98 92 137 271q43 186 -23 290q-66 103 -221 103q-137 0 -236 -99q-99 -100 -134 -269
q-39 -189 21 -289t208 -100z" />
    <glyph glyph-name="r" unicode="r" horiz-adv-x="749" 
d="M758 1073q37 0 57 -2l-41 -194h-51q-151 0 -252 -72q-99 -71 -137 -211l-127 -594h-205l225 1057h197l-35 -164q147 180 369 180z" />
    <glyph glyph-name="s" unicode="s" horiz-adv-x="985" 
d="M420 -27q-232 0 -338 89q-105 89 -84 274h205q-8 -109 46 -155q53 -46 189 -46q215 0 242 131q16 76 -24 116q-39 39 -160 60l-95 17q-335 61 -274 350q27 129 145 201q117 71 306 71q211 0 307 -90q97 -91 76 -264h-199q16 104 -34 150q-50 45 -169 45q-98 0 -161 -36
q-62 -35 -74 -98q-15 -68 25 -105t145 -58l100 -17q185 -35 254 -120q70 -86 37 -238q-27 -133 -145 -204q-120 -73 -320 -73z" />
    <glyph glyph-name="t" unicode="t" horiz-adv-x="665" 
d="M694 889h-215l-127 -602q-24 -123 94 -123h93l-35 -164q-67 -6 -109 -6q-149 0 -215 77t-33 218l127 600h-170l37 168h170l64 303h205l-64 -303h213z" />
    <glyph glyph-name="u" unicode="u" horiz-adv-x="1130" 
d="M797 461l125 596h204l-225 -1057h-196l32 143q-150 -168 -358 -168q-182 0 -260 113q-78 112 -31 328l139 641h205l-135 -649q-51 -252 158 -252q121 0 215 81q95 82 125 224h2z" />
    <glyph glyph-name="v" unicode="v" horiz-adv-x="1052" 
d="M709 670l225 387h223l-631 -1057h-227l-178 1057h215l59 -402q41 -308 56 -456q131 243 258 471z" />
    <glyph glyph-name="w" unicode="w" horiz-adv-x="1636" 
d="M1274 616l229 441h230l-576 -1057h-217l-45 465q-19 154 -29 348q-90 -190 -170 -348l-243 -465h-215l-125 1057h211l43 -441q15 -204 17 -233q8 -113 11 -145q98 201 189 378l227 441h205l39 -441q15 -162 28 -385q63 139 191 385z" />
    <glyph glyph-name="x" unicode="x" horiz-adv-x="1046" 
d="M889 1057h244l-488 -514l283 -543h-226l-36 70q0 1 -2.5 5.5t-7 13.5l-9.5 19q-3 7 -12.5 26.5t-21 43.5t-23.5 49q-13 27 -82 168q-54 -56 -301 -327l-64 -68h-245l512 541l-267 516h230l49 -99q40 -79 129 -268q21 23 151 164q78 85 93 100z" />
    <glyph glyph-name="y" unicode="y" horiz-adv-x="1019" 
d="M700 694l201 363h223l-682 -1186q-90 -152 -176 -213q-89 -59 -250 -59q-43 0 -127 4l35 168h103q140 0 209 125l43 75l-158 1086h219l45 -393q30 -288 49 -478q112 226 266 508z" />
    <glyph glyph-name="z" unicode="z" horiz-adv-x="1007" 
d="M1028 1057l-33 -144l-573 -579q-118 -118 -170 -168q66 2 223 2h389l-37 -168h-872l31 143l573 580q103 103 172 168q-66 -2 -219 -2h-352l37 168h831z" />
    <glyph glyph-name="braceleft" unicode="{" horiz-adv-x="722" 
d="M477 -401h-112q-330 0 -261 319l99 467q12 63 -19 95t-121 34l37 176q171 2 195 129l104 486q66 299 369 299h135l-37 -174h-108q-73 0 -113 -38q-38 -37 -55 -118l-105 -492q-34 -167 -215 -178v-4q178 -8 140 -178l-107 -502q-30 -147 109 -147h102z" />
    <glyph glyph-name="bar" unicode="|" horiz-adv-x="432" 
d="M346 -406h-178v2038h178v-2038z" />
    <glyph glyph-name="braceright" unicode="}" horiz-adv-x="722" 
d="M-14 -401h-136l37 174h109q73 0 113 38q38 37 55 117l104 494q34 167 215 178v4q-93 5 -124 47q-31 43 -13 131l107 500q30 148 -109 148h-104l36 174h113q155 0 226 -78t36 -242l-98 -465q-12 -63 18 -95q31 -32 121 -34l-37 -176q-170 -2 -194 -129l-107 -487
q-66 -299 -368 -299z" />
    <glyph glyph-name="asciitilde" unicode="~" horiz-adv-x="1083" 
d="M281 586h-164q10 145 81 226q70 81 189 81q82 0 227 -76q111 -59 156 -59q93 0 115 127h164q-11 -146 -81 -227q-70 -80 -190 -80q-91 0 -221 73q-112 62 -164 62q-94 0 -112 -127z" />
    <glyph glyph-name="uni00A0" unicode="&#xa0;" horiz-adv-x="413" 
 />
    <glyph glyph-name="exclamdown" unicode="&#xa1;" horiz-adv-x="419" 
d="M424 956h-248l51 244h250zM160 -258h-219l84 389l188 660h125l-96 -660z" />
    <glyph glyph-name="cent" unicode="&#xa2;" horiz-adv-x="1087" 
d="M1071 688h-215q-5 164 -139 203l-156 -733q179 27 240 219h209q-55 -179 -181 -285q-124 -104 -307 -115l-45 -215h-143l47 222q-188 37 -273 194q-85 156 -32 404q45 214 188 348t350 149l43 207h144l-45 -211q155 -24 238 -127t77 -260zM281 543q-30 -157 7 -253
q37 -97 132 -124l155 731q-110 -18 -187 -110t-107 -244z" />
    <glyph glyph-name="sterling" unicode="&#xa3;" horiz-adv-x="1138" 
d="M1188 1030h-219q12 128 -49 201q-62 74 -201 74q-104 0 -172 -53q-67 -52 -88 -142q-23 -103 16 -260q21 -114 25 -119h440l-31 -145h-401q-4 -42 -12 -88q-38 -174 -209 -301h725l-41 -197h-1010l39 186q244 134 283 310q10 59 10 90h-236l31 145h186q0 4 -4 19
q-63 213 -28 380q34 172 165 267q130 94 338 94q245 0 359 -133q111 -135 84 -328z" />
    <glyph glyph-name="currency" unicode="&#xa4;" horiz-adv-x="1196" 
d="M1171 1176l-155 -156q98 -123 98 -291q0 -165 -98 -291l155 -155l-108 -109l-162 162q-114 -72 -256 -72q-143 0 -262 78l-168 -168l-109 109l164 163q-94 121 -94 283t94 283l-164 164l109 108l168 -168q119 78 262 78q142 0 256 -72l162 162zM451 924q-78 -78 -78 -195
q0 -116 78 -194t194 -78q119 0 197 78q76 76 76 194q0 119 -76 195q-77 77 -197 77q-117 0 -194 -77z" />
    <glyph glyph-name="yen" unicode="&#xa5;" horiz-adv-x="1370" 
d="M1290 1458h254l-626 -745h266l-33 -144h-346l-33 -153h346l-31 -144h-346l-57 -272h-219l57 272h-346l31 144h346l33 153h-346l32 144h260l-313 745h238l127 -307q58 -143 143 -379q151 191 311 381z" />
    <glyph glyph-name="brokenbar" unicode="&#xa6;" horiz-adv-x="432" 
d="M346 815h-178v817h178v-817zM346 -418h-178v817h178v-817z" />
    <glyph glyph-name="section" unicode="&#xa7;" horiz-adv-x="1179" 
d="M1122 1137h-200q22 194 -191 194q-181 0 -205 -129q-12 -65 21 -113q34 -49 125 -112l168 -113q170 -114 231 -213t33 -231q-43 -205 -318 -301q103 -109 70 -264q-27 -127 -139 -203t-289 -76q-208 0 -305 92t-68 260h201q-27 -192 190 -192q183 0 207 127q11 45 -9 89
t-50 73q-2 1 -31 22.5t-57 42.5l-168 115q-165 110 -227 210q-62 99 -33 236q41 203 319 297q-104 113 -71 277q27 122 138 194t288 72q201 0 297 -93t73 -261zM741 690l-170 117q-15 9 -53 37q-98 -17 -163 -72q-60 -50 -76 -121q-18 -80 19 -143q38 -64 138 -131l172 -117
q33 -25 51 -35q100 22 166 78t78 121q18 80 -18 135q-38 58 -144 131z" />
    <glyph glyph-name="dieresis" unicode="&#xa8;" horiz-adv-x="819" 
d="M471 1206h-209l47 219h209zM846 1206h-209l47 219h209z" />
    <glyph glyph-name="copyright" unicode="&#xa9;" horiz-adv-x="1671" 
d="M1427 188q-221 -221 -550 -221q-331 0 -549 221q-222 219 -222 541q0 321 222 543q218 221 549 221q329 0 550 -221q220 -225 220 -543q0 -321 -220 -541zM877 119q263 0 436 176q170 176 170 434q0 260 -170 436q-173 174 -436 174t-435 -174q-172 -173 -172 -436
q0 -259 172 -434q173 -176 435 -176zM885 281q-185 0 -295 122q-111 123 -111 326q0 205 110 327t296 122q158 0 260 -87q103 -87 119 -237h-172q-15 84 -71 130t-136 46q-109 0 -170 -79q-62 -80 -62 -222t62 -221q62 -78 170 -78q82 0 140 47q57 46 69 133h172
q-18 -148 -122 -239q-104 -90 -259 -90z" />
    <glyph glyph-name="ordfeminine" unicode="&#xaa;" horiz-adv-x="976" 
d="M989 1169l-86 -413q-15 -74 43 -74h41l-31 -145q-51 -7 -79 -7q-167 0 -172 129q-112 -143 -314 -143q-155 0 -233 84q-77 83 -47 231q45 216 397 246l139 13q138 12 160 108v4q12 63 -27 95q-40 32 -137 32q-108 0 -158 -37q-51 -37 -73 -127h-193q39 159 142 235
q104 77 301 77q195 0 277 -79q83 -80 50 -229zM444 662q107 0 186 55t109 162l25 114q-41 -29 -121 -35l-127 -14q-189 -18 -213 -137q-15 -67 24 -107q37 -38 117 -38z" />
    <glyph glyph-name="guillemotleft" unicode="&#xab;" horiz-adv-x="1021" 
d="M152 643l407 285l-47 -228l-256 -178l180 -178l-45 -211l-289 285zM571 643l408 285l-47 -228l-256 -178l180 -178l-45 -211l-289 285z" />
    <glyph glyph-name="logicalnot" unicode="&#xac;" horiz-adv-x="1083" 
d="M117 700v181h932v-547h-197v366h-735z" />
    <glyph glyph-name="uni00AD" unicode="&#xad;" horiz-adv-x="751" 
d="M666 487h-600l38 179h601z" />
    <glyph glyph-name="registered" unicode="&#xae;" horiz-adv-x="1161" 
d="M682 1491q213 0 362 -143q148 -145 148 -353q0 -204 -148 -350q-149 -143 -362 -143q-219 0 -363 143q-149 143 -149 350q0 210 149 353q144 143 363 143zM682 604q172 0 285 113q114 114 114 278q0 169 -114 283q-113 113 -285 113q-174 0 -287 -113
q-116 -113 -116 -283q0 -165 116 -278q113 -113 287 -113zM885 891l6 -74q5 -50 22 -76h-106q-14 20 -19 76l-4 53q-5 46 -18 59q-15 15 -51 15h-127v-203h-105v523h230q85 0 135 -39q49 -39 49 -111q0 -84 -76 -121q58 -24 64 -102zM588 1171v-139h127q76 0 76 70
q0 69 -82 69h-121z" />
    <glyph glyph-name="overscore" unicode="&#xaf;" horiz-adv-x="819" 
d="M864 1206h-620l35 156h620z" />
    <glyph glyph-name="degree" unicode="&#xb0;" horiz-adv-x="698" 
d="M451 942q-119 0 -199 80q-82 76 -82 188q0 113 82 189q77 76 199 76q121 0 198 -76q80 -77 80 -189q0 -111 -80 -188q-85 -80 -198 -80zM451 1081q55 0 92 37t37 92q0 56 -37 92q-36 35 -92 35q-57 0 -93 -35t-36 -92q0 -55 37 -92t92 -37z" />
    <glyph glyph-name="plusminus" unicode="&#xb1;" horiz-adv-x="1083" 
d="M645 1188v-330h369v-180h-369v-328h-194v328h-367v180h367v330h194zM1014 0h-930v180h930v-180z" />
    <glyph glyph-name="two.sups" unicode="&#xb2;" horiz-adv-x="790" 
d="M829 1081h-636l14 62q56 248 340 360l67 27q159 66 174 147q22 127 -126 127q-73 0 -119 -37q-48 -38 -58 -106h-157q24 133 112 208t238 75q147 0 222 -77t48 -200q-37 -161 -291 -262l-63 -25q-88 -35 -129 -71q-44 -38 -62 -90h455z" />
    <glyph glyph-name="three.sups" unicode="&#xb3;" horiz-adv-x="817" 
d="M547 1065q-156 0 -241 82q-84 81 -66 217h153q-8 -77 34 -121q42 -45 128 -45q149 0 178 117q17 74 -20 112q-37 39 -121 39h-55l26 115h58q149 0 178 102q15 62 -23 97t-106 35q-142 0 -172 -127h-158q55 256 336 256q148 0 224 -72t52 -193q-12 -51 -55 -97t-104 -62
q62 -24 89 -82q27 -57 9 -140q-24 -106 -115 -170q-90 -63 -229 -63z" />
    <glyph glyph-name="acute" unicode="&#xb4;" horiz-adv-x="819" 
d="M569 1206h-166l181 295h245z" />
    <glyph glyph-name="uni00B5" unicode="&#xb5;" horiz-adv-x="1353" 
d="M922 461v596h206v-1057h-198v156q-119 -181 -328 -181q-97 0 -170 52v-428h-205v1458h207v-680q0 -221 221 -221q113 0 190 81q77 82 77 224z" />
    <glyph glyph-name="paragraph" unicode="&#xb6;" horiz-adv-x="1120" 
d="M532 0h-176l158 743q-199 0 -298 105t-62 280q37 172 169 251q131 79 371 79h455l-311 -1458h-176l274 1284h-129z" />
    <glyph glyph-name="middot" unicode="&#xb7;" horiz-adv-x="419" 
d="M350 606h-248l54 246h247z" />
    <glyph glyph-name="cedilla" unicode="&#xb8;" horiz-adv-x="819" 
d="M289 -88h12q89 0 135 -54q47 -55 31 -134q-41 -170 -309 -170q-86 0 -146 12l23 100q54 -8 127 -8q116 0 133 84q8 40 -17 63q-27 25 -81 25q-32 0 -56 -2l17 78l104 104h133z" />
    <glyph glyph-name="one.sups" unicode="&#xb9;" horiz-adv-x="479" 
d="M483 1081h-174l127 590h-200l24 119q96 0 156 30t106 107h140z" />
    <glyph glyph-name="ordmasculine" unicode="&#xba;" horiz-adv-x="1056" 
d="M557 516q-209 0 -319 143q-111 141 -60 383q44 199 181 317t341 118q214 0 322 -140q108 -141 57 -374q-44 -208 -179 -327q-136 -120 -343 -120zM575 678q114 0 196 80q82 81 112 221q35 158 -21 247t-180 89q-117 0 -199 -79q-81 -78 -110 -216q-35 -164 21 -252
q57 -90 181 -90z" />
    <glyph glyph-name="guillemotright" unicode="&#xbb;" horiz-adv-x="1021" 
d="M166 717l45 211l289 -285l-49 -225l-408 -285l47 227l256 179zM586 717l45 211l289 -285l-50 -225l-407 -285l47 227l256 179z" />
    <glyph glyph-name="onequarter" unicode="&#xbc;" horiz-adv-x="1495" 
d="M113 0l1089 1458h174l-1089 -1458h-174zM401 612h-172l125 590h-198l24 119q96 0 156 30q59 30 104 107h142zM1313 340h119l-31 -143h-119l-41 -197h-174l43 197h-416l35 165l516 484h176zM1212 659l-340 -319h275z" />
    <glyph glyph-name="onehalf" unicode="&#xbd;" horiz-adv-x="1566" 
d="M293 0h-176l1089 1458h176zM401 612h-172l125 590h-198l24 119q96 0 156 30q59 30 104 107h142zM1425 0h-639l17 61q56 249 340 361l65 27q161 66 176 147q22 127 -127 127q-72 0 -118 -37q-48 -38 -58 -106h-159q52 282 350 282q151 0 225 -77t47 -199
q-37 -163 -293 -262l-61 -25q-86 -35 -129 -72q-44 -38 -62 -90h455z" />
    <glyph glyph-name="threequarters" unicode="&#xbe;" horiz-adv-x="1701" 
d="M752 829q-24 -106 -115 -170q-90 -63 -229 -63q-157 0 -240 82q-84 82 -66 217h154q-10 -76 32 -121t128 -45q154 0 178 117q34 151 -139 151h-56l25 115h59q152 0 176 102q15 63 -22 97q-38 35 -107 35q-138 0 -172 -127h-157q55 256 338 256q145 0 223 -72t51 -193
q-10 -50 -54 -97q-42 -45 -104 -62q59 -24 87 -82q28 -59 10 -140zM322 0l1089 1458h174l-1089 -1458h-174zM1520 340h118l-30 -143h-119l-41 -197h-174l43 197h-416l35 165l516 484h176zM1419 659l-340 -319h275z" />
    <glyph glyph-name="questiondown" unicode="&#xbf;" horiz-adv-x="1060" 
d="M750 956h-248l53 244h248zM373 -291q-227 0 -339 109t-69 309q38 158 258 311q164 116 215 183q34 51 62 170h200q-34 -160 -92 -248q-62 -96 -207 -195q-103 -71 -155 -123q-50 -50 -62 -110q-24 -107 28 -164t179 -57q136 0 218 70q83 71 124 229h209
q-96 -484 -569 -484z" />
    <glyph glyph-name="Agrave" unicode="&#xc0;" horiz-adv-x="1445" 
d="M881 1841l116 -295h-163l-199 295h246zM1305 0h-224l-65 379h-654l-223 -379h-233l878 1458h250zM520 649l-47 -80h512l-14 80q-58 309 -99 598q-170 -292 -352 -598z" />
    <glyph glyph-name="Aacute" unicode="&#xc1;" horiz-adv-x="1445" 
d="M1036 1841h264l-307 -295h-188zM1305 0h-224l-65 379h-654l-223 -379h-233l878 1458h250zM520 649l-47 -80h512l-14 80q-58 309 -99 598q-170 -292 -352 -598z" />
    <glyph glyph-name="Acircumflex" unicode="&#xc2;" horiz-adv-x="1445" 
d="M1110 1546l-137 185l-217 -185h-201l295 295h272l178 -295h-190zM1305 0h-224l-65 379h-654l-223 -379h-233l878 1458h250zM520 649l-47 -80h512l-14 80q-58 309 -99 598q-170 -292 -352 -598z" />
    <glyph glyph-name="Atilde" unicode="&#xc3;" horiz-adv-x="1445" 
d="M807 1640q-62 0 -80 -94h-156q57 260 248 260q67 0 162 -51q76 -43 121 -43q61 0 82 94h153q-57 -260 -247 -260q-59 0 -168 56q-77 38 -115 38zM-94 0l878 1458h250l271 -1458h-224l-65 379h-654l-223 -379h-233zM520 649l-47 -80h512l-14 80q-58 309 -99 598
q-170 -292 -352 -598z" />
    <glyph glyph-name="Adieresis" unicode="&#xc4;" horiz-adv-x="1445" 
d="M682 1765h209l-47 -219h-209zM1057 1765h209l-47 -219h-209zM1305 0h-224l-65 379h-654l-223 -379h-233l878 1458h250zM520 649l-47 -80h512l-14 80q-58 309 -99 598q-170 -292 -352 -598z" />
    <glyph glyph-name="Aring" unicode="&#xc5;" horiz-adv-x="1445" 
d="M1305 0h-224l-65 379h-654l-223 -379h-233l833 1384q-96 78 -96 201q0 115 80 190q78 74 197 74q117 0 195 -74q79 -75 79 -190q0 -159 -141 -231zM920 1714q-57 0 -94 -37q-38 -38 -38 -92q0 -55 38 -91t94 -36q54 0 92 36q37 36 37 91q0 54 -38 92q-37 37 -91 37z
M520 649l-47 -80h512l-14 80q-58 309 -99 598q-170 -292 -352 -598z" />
    <glyph glyph-name="AE" unicode="&#xc6;" horiz-adv-x="2127" 
d="M2275 1458l-41 -196h-755l-88 -412h677l-40 -193h-678l-99 -460h750l-41 -197h-967l84 395h-633l-288 -395h-244l1077 1458h1286zM1083 1268l-499 -682h534l144 682h-179z" />
    <glyph glyph-name="Ccedilla" unicode="&#xc7;" horiz-adv-x="1458" 
d="M676 162q174 0 309 98q137 99 197 279h221q-77 -260 -260 -406q-185 -148 -430 -164l-99 -90h13q89 0 135 -55q47 -56 31 -133q-41 -170 -310 -170q-90 0 -147 12l22 100q54 -8 127 -8q119 0 136 84q6 39 -20 64q-25 24 -81 24q-31 0 -55 -2l16 78l99 98
q-284 24 -412 238q-127 214 -51 571q63 312 295 514q229 197 522 197q238 0 391 -129q157 -134 158 -387h-221q-24 321 -347 321q-207 0 -364 -145q-156 -147 -209 -391q-62 -285 29 -442q90 -156 305 -156z" />
    <glyph glyph-name="Egrave" unicode="&#xc8;" horiz-adv-x="1218" 
d="M805 1841l117 -295h-164l-199 295h246zM1366 1458l-41 -196h-821l-88 -412h741l-41 -193h-741l-101 -460h816l-41 -197h-1035l312 1458h1040z" />
    <glyph glyph-name="Eacute" unicode="&#xc9;" horiz-adv-x="1218" 
d="M963 1841h264l-307 -295h-189zM1366 1458l-41 -196h-821l-88 -412h741l-41 -193h-741l-101 -460h816l-41 -197h-1035l312 1458h1040z" />
    <glyph glyph-name="Ecircumflex" unicode="&#xca;" horiz-adv-x="1218" 
d="M1036 1546l-137 185l-217 -185h-201l295 295h273l178 -295h-191zM1366 1458l-41 -196h-821l-88 -412h741l-41 -193h-741l-101 -460h816l-41 -197h-1035l312 1458h1040z" />
    <glyph glyph-name="Edieresis" unicode="&#xcb;" horiz-adv-x="1218" 
d="M608 1765h209l-47 -219h-209zM983 1765h209l-47 -219h-209zM1366 1458l-41 -196h-821l-88 -412h741l-41 -193h-741l-101 -460h816l-41 -197h-1035l312 1458h1040z" />
    <glyph glyph-name="Igrave" unicode="&#xcc;" horiz-adv-x="473" 
d="M524 1546h-155l-138 295h230zM233 0h-219l312 1458h219z" />
    <glyph glyph-name="Iacute" unicode="&#xcd;" horiz-adv-x="473" 
d="M514 1546h-158l174 295h232zM233 0h-219l312 1458h219z" />
    <glyph glyph-name="Icircumflex" unicode="&#xce;" horiz-adv-x="473" 
d="M387 1841h260l133 -295h-184l-98 183l-179 -183h-190zM233 0h-219l312 1458h219z" />
    <glyph glyph-name="Idieresis" unicode="&#xcf;" horiz-adv-x="473" 
d="M391 1546h-203l48 219h202zM717 1546h-201l47 219h201zM233 0h-219l312 1458h219z" />
    <glyph glyph-name="Eth" unicode="&#xd0;" horiz-adv-x="1476" 
d="M367 1458h501q334 0 492 -219q158 -220 80 -569q-146 -670 -842 -670h-541l144 676h-170l32 145h168zM1219 705q55 255 -44 408t-331 153h-301l-94 -445h380l-32 -145h-379l-103 -483h301q496 0 603 512z" />
    <glyph glyph-name="Ntilde" unicode="&#xd1;" horiz-adv-x="1445" 
d="M786 1640q-61 0 -79 -94h-156q57 260 248 260q67 0 162 -51q77 -43 120 -43q61 0 82 94h154q-57 -260 -248 -260q-59 0 -168 56q-77 38 -115 38zM1176 1016l94 442h213l-312 -1458h-245l-299 707q-128 304 -189 481q-55 -296 -151 -746l-94 -442h-213l311 1458h246
l301 -706q140 -336 186 -486q89 453 152 750z" />
    <glyph glyph-name="Ograve" unicode="&#xd2;" horiz-adv-x="1554" 
d="M1063 1579h-164l-199 295h246zM684 -33q-326 0 -485 219q-160 219 -82 590q66 312 299 514q231 201 542 201q325 0 484 -215q160 -221 84 -580q-67 -316 -299 -524q-230 -205 -543 -205zM702 164q220 0 383 151q164 152 215 398q57 270 -42 426q-98 155 -322 155
q-218 0 -379 -149q-166 -152 -217 -397q-60 -270 40 -427t322 -157z" />
    <glyph glyph-name="Oacute" unicode="&#xd3;" horiz-adv-x="1554" 
d="M1061 1579h-189l232 295h264zM684 -33q-326 0 -485 219q-160 219 -82 590q66 312 299 514q231 201 542 201q325 0 484 -215q160 -221 84 -580q-67 -316 -299 -524q-230 -205 -543 -205zM702 164q220 0 383 151q164 152 215 398q57 270 -42 426q-98 155 -322 155
q-218 0 -379 -149q-166 -152 -217 -397q-60 -270 40 -427t322 -157z" />
    <glyph glyph-name="Ocircumflex" unicode="&#xd4;" horiz-adv-x="1554" 
d="M1178 1579l-138 184l-217 -184h-200l295 295h272l178 -295h-190zM958 1491q325 0 484 -215q160 -221 84 -580q-67 -316 -299 -524q-230 -205 -543 -205q-326 0 -485 219q-160 219 -82 590q66 312 299 514q231 201 542 201zM1300 713q57 270 -42 426q-98 155 -322 155
q-218 0 -379 -149q-166 -152 -217 -397q-60 -270 40 -427t322 -157q220 0 383 151q164 152 215 398z" />
    <glyph glyph-name="Otilde" unicode="&#xd5;" horiz-adv-x="1554" 
d="M795 1579h-156q57 260 248 260q67 0 162 -51q77 -43 120 -43q61 0 82 94h154q-57 -260 -248 -260q-61 0 -168 55q-79 39 -115 39q-61 0 -79 -94zM684 -33q-326 0 -485 219q-160 219 -82 590q66 312 299 514q231 201 542 201q325 0 484 -215q160 -221 84 -580
q-67 -316 -299 -524q-230 -205 -543 -205zM702 164q220 0 383 151q164 152 215 398q57 270 -42 426q-98 155 -322 155q-218 0 -379 -149q-166 -152 -217 -397q-60 -270 40 -427t322 -157z" />
    <glyph glyph-name="Odieresis" unicode="&#xd6;" horiz-adv-x="1554" 
d="M909 1579h-209l48 219h208zM1284 1579h-209l47 219h209zM684 -33q-326 0 -485 219q-160 219 -82 590q66 312 299 514q231 201 542 201q325 0 484 -215q160 -221 84 -580q-67 -316 -299 -524q-230 -205 -543 -205zM702 164q220 0 383 151q164 152 215 398q57 270 -42 426
q-98 155 -322 155q-218 0 -379 -149q-166 -152 -217 -397q-60 -270 40 -427t322 -157z" />
    <glyph glyph-name="multiply" unicode="&#xd7;" horiz-adv-x="1083" 
d="M881 1153l127 -127l-297 -297l297 -297l-127 -127l-297 297l-299 -297l-127 127l297 297l-297 297l127 127l299 -297z" />
    <glyph glyph-name="Oslash" unicode="&#xd8;" horiz-adv-x="1554" 
d="M1444 1550l117 -104l-136 -152q180 -218 101 -598q-67 -316 -299 -524q-230 -205 -543 -205q-209 0 -352 94l-137 -155l-117 104l137 156q-180 224 -98 610q66 312 299 514q231 201 542 201q205 0 351 -92zM340 748q-55 -252 29 -410l794 897q-89 59 -227 59
q-218 0 -379 -149q-166 -152 -217 -397zM1300 713q51 256 -30 405l-795 -895q94 -59 227 -59q220 0 383 151q164 152 215 398z" />
    <glyph glyph-name="Ugrave" unicode="&#xd9;" horiz-adv-x="1392" 
d="M967 1546h-164l-199 295h246zM618 -31q-297 0 -431 173t-62 495l178 821h219l-182 -856q-91 -440 297 -440q357 0 436 385l191 911h219l-199 -950q-114 -539 -666 -539z" />
    <glyph glyph-name="Uacute" unicode="&#xda;" horiz-adv-x="1392" 
d="M965 1546h-189l232 295h264zM618 -31q-297 0 -431 173t-62 495l178 821h219l-182 -856q-91 -440 297 -440q357 0 436 385l191 911h219l-199 -950q-114 -539 -666 -539z" />
    <glyph glyph-name="Ucircumflex" unicode="&#xdb;" horiz-adv-x="1392" 
d="M1081 1546l-137 185l-217 -185h-201l295 295h273l178 -295h-191zM1073 547l191 911h219l-199 -950q-114 -539 -666 -539q-297 0 -431 173t-62 495l178 821h219l-182 -856q-91 -440 297 -440q357 0 436 385z" />
    <glyph glyph-name="Udieresis" unicode="&#xdc;" horiz-adv-x="1392" 
d="M813 1546h-209l47 219h209zM1188 1546h-209l47 219h209zM618 -31q-297 0 -431 173t-62 495l178 821h219l-182 -856q-91 -440 297 -440q357 0 436 385l191 911h219l-199 -950q-114 -539 -666 -539z" />
    <glyph glyph-name="Yacute" unicode="&#xdd;" horiz-adv-x="1370" 
d="M1012 1841h264l-307 -295h-189zM1038 1153l252 305h254l-737 -876l-123 -582h-219l123 582l-369 876h238l127 -307q61 -151 143 -381q262 324 311 383z" />
    <glyph glyph-name="Thorn" unicode="&#xde;" horiz-adv-x="1310" 
d="M487 1190h359q248 0 366 -135q122 -140 72 -371q-39 -188 -190 -302q-152 -114 -379 -114h-422l-57 -268h-220l310 1458h219zM1065 711q29 141 -35 214q-63 72 -211 72h-373l-112 -536h395q135 0 224 66q89 67 112 184z" />
    <glyph glyph-name="germandbls" unicode="&#xdf;" horiz-adv-x="1146" 
d="M1112 1079q-44 -195 -256 -291q123 -47 174 -151q51 -105 21 -252q-39 -187 -180 -289t-369 -102q-92 0 -154 6l37 172q73 -4 135 -4q132 0 214 61q84 63 108 177q28 133 -38 210q-66 76 -220 76h-62l37 166h66q104 0 188 61q81 59 102 156q23 106 -32 171
q-56 67 -168 67q-227 0 -287 -283l-221 -1030h-205l223 1044q44 216 174 331q131 116 338 116q205 0 310 -117q102 -122 65 -295z" />
    <glyph glyph-name="agrave" unicode="&#xe0;" horiz-adv-x="1101" 
d="M705 1501l55 -295h-164l-137 295h246zM1014 705l-99 -463q-23 -84 46 -84h51l-35 -158q-47 -6 -100 -6q-170 0 -172 137q-131 -156 -353 -156q-182 0 -273 99t-54 266q51 235 444 274l170 19q87 10 130 35q42 24 54 77q39 173 -198 173q-117 0 -181 -44t-92 -147h-200
q50 187 162 270q114 84 329 84q453 0 371 -376zM403 135q127 0 226 75t123 206l26 121q-52 -31 -143 -43l-150 -21q-123 -16 -182 -55q-59 -38 -74 -105q-34 -178 174 -178z" />
    <glyph glyph-name="aacute" unicode="&#xe1;" horiz-adv-x="1101" 
d="M766 1501h246l-260 -295h-166zM1014 705l-99 -463q-23 -84 46 -84h51l-35 -158q-47 -6 -100 -6q-170 0 -172 137q-131 -156 -353 -156q-182 0 -273 99t-54 266q51 235 444 274l170 19q87 10 130 35q42 24 54 77q39 173 -198 173q-117 0 -181 -44t-92 -147h-200
q50 187 162 270q114 84 329 84q453 0 371 -376zM403 135q127 0 226 75t123 206l26 121q-52 -31 -143 -43l-150 -21q-123 -16 -182 -55q-59 -38 -74 -105q-34 -178 174 -178z" />
    <glyph glyph-name="acircumflex" unicode="&#xe2;" horiz-adv-x="1101" 
d="M852 1206l-137 183l-217 -183h-201l295 295h272l178 -295h-190zM643 1081q453 0 371 -376l-99 -463q-23 -84 46 -84h51l-35 -158q-47 -6 -100 -6q-170 0 -172 137q-131 -156 -353 -156q-182 0 -273 99t-54 266q51 235 444 274l170 19q87 10 130 35q42 24 54 77
q39 173 -198 173q-117 0 -181 -44t-92 -147h-200q50 187 162 270q114 84 329 84zM403 135q127 0 226 75t123 206l26 121q-52 -31 -143 -43l-150 -21q-123 -16 -182 -55q-59 -38 -74 -105q-34 -178 174 -178z" />
    <glyph glyph-name="atilde" unicode="&#xe3;" horiz-adv-x="1101" 
d="M553 1300q-61 0 -82 -94h-154q57 260 248 260q67 0 162 -51q76 -43 121 -43q61 0 82 94h153q-57 -260 -247 -260q-61 0 -168 56q-77 38 -115 38zM643 1081q453 0 371 -376l-99 -463q-23 -84 46 -84h51l-35 -158q-47 -6 -100 -6q-170 0 -172 137q-131 -156 -353 -156
q-182 0 -273 99t-54 266q51 235 444 274l170 19q87 10 130 35q42 24 54 77q39 173 -198 173q-117 0 -181 -44t-92 -147h-200q50 187 162 270q114 84 329 84zM403 135q127 0 226 75t123 206l26 121q-52 -31 -143 -43l-150 -21q-123 -16 -182 -55q-59 -38 -74 -105
q-34 -178 174 -178z" />
    <glyph glyph-name="adieresis" unicode="&#xe4;" horiz-adv-x="1101" 
d="M428 1425h209l-47 -219h-209zM803 1425h209l-45 -219h-211zM1014 705l-99 -463q-23 -84 46 -84h51l-35 -158q-47 -6 -100 -6q-170 0 -172 137q-131 -156 -353 -156q-182 0 -273 99t-54 266q51 235 444 274l170 19q87 10 130 35q42 24 54 77q39 173 -198 173
q-117 0 -181 -44t-92 -147h-200q50 187 162 270q114 84 329 84q453 0 371 -376zM403 135q127 0 226 75t123 206l26 121q-52 -31 -143 -43l-150 -21q-123 -16 -182 -55q-59 -38 -74 -105q-34 -178 174 -178z" />
    <glyph glyph-name="aring" unicode="&#xe5;" horiz-adv-x="1101" 
d="M727 1196q-117 0 -197 75q-79 75 -79 189q0 113 79 188q78 74 197 74q116 0 195 -73q79 -76 79 -189q0 -115 -79 -188q-77 -76 -195 -76zM819 1552q-56 58 -142 25q-87 -33 -81 -117q0 -54 38 -92q37 -37 93 -37q82 -7 118 79t-26 142zM1014 705l-99 -463q-23 -84 46 -84
h51l-35 -158q-47 -6 -100 -6q-170 0 -172 137q-131 -156 -353 -156q-182 0 -273 99t-54 266q51 235 444 274l170 19q87 10 130 35q42 24 54 77q39 173 -198 173q-119 0 -181 -43q-64 -44 -92 -148h-200q50 187 162 270q114 84 329 84q453 0 371 -376zM403 135q127 0 226 75
t123 206l26 121q-52 -31 -143 -43l-150 -21q-123 -16 -182 -55q-59 -38 -74 -105q-34 -178 174 -178z" />
    <glyph glyph-name="ae" unicode="&#xe6;" horiz-adv-x="1787" 
d="M1331 1081q230 0 338 -159q106 -161 49 -402q-10 -28 -16 -59h-754q-17 -156 43 -235t185 -79q198 0 284 177h195q-129 -349 -496 -349q-260 0 -362 207q-179 -207 -439 -207q-187 0 -279 94q-91 92 -56 263q49 241 456 284l158 17q86 11 128 39q41 28 56 88l2 6
q17 77 -28 114q-46 38 -164 38q-128 0 -192 -44q-62 -43 -89 -147h-203q39 176 161 265t345 89q252 0 332 -131q146 131 346 131zM1311 909q-114 0 -200 -74t-130 -212h553q16 128 -43 207q-60 79 -180 79zM395 135q127 0 226 72t129 203l2 14q1 51 10 98q-43 -26 -127 -37
l-152 -16q-227 -24 -256 -162q-16 -82 27 -127q44 -45 141 -45z" />
    <glyph glyph-name="ccedilla" unicode="&#xe7;" horiz-adv-x="1087" 
d="M635 903q-131 0 -225 -93t-129 -267q-37 -189 24 -289t197 -100q226 0 299 223h209q-51 -173 -168 -275q-116 -101 -287 -122l-100 -93h12q89 0 135 -55q47 -56 31 -133q-41 -170 -309 -170q-91 0 -148 12l23 101q61 -9 127 -9q118 0 135 84q6 39 -20 64q-25 24 -81 24
q-31 0 -55 -2l17 78l98 99q-202 22 -301 180q-103 159 -43 422q47 225 203 362q152 137 383 137q197 0 307 -106q110 -105 102 -287h-215q-1 105 -61 160q-59 55 -160 55z" />
    <glyph glyph-name="egrave" unicode="&#xe8;" horiz-adv-x="1136" 
d="M719 1501l55 -295h-164l-137 295h246zM662 1081q239 0 352 -159q113 -158 53 -402q-2 -16 -16 -59h-793q-17 -154 48 -234t192 -80q208 0 299 177h207q-141 -349 -525 -349q-234 0 -348 158q-119 158 -59 432q45 227 209 373q161 143 381 143zM641 909q-122 0 -214 -74
t-136 -212h583q16 128 -46 207q-63 79 -187 79z" />
    <glyph glyph-name="eacute" unicode="&#xe9;" horiz-adv-x="1136" 
d="M780 1501h246l-260 -295h-166zM662 1081q239 0 352 -159q113 -158 53 -402q-2 -16 -16 -59h-793q-17 -154 48 -234t192 -80q208 0 299 177h207q-141 -349 -525 -349q-234 0 -348 158q-119 158 -59 432q45 227 209 373q161 143 381 143zM641 909q-122 0 -214 -74
t-136 -212h583q16 128 -46 207q-63 79 -187 79z" />
    <glyph glyph-name="ecircumflex" unicode="&#xea;" horiz-adv-x="1136" 
d="M866 1206l-137 183l-217 -183h-201l295 295h273l178 -295h-191zM662 1081q239 0 352 -159q113 -158 53 -402q-2 -16 -16 -59h-793q-17 -154 48 -234t192 -80q208 0 299 177h207q-141 -349 -525 -349q-234 0 -348 158q-119 158 -59 432q45 227 209 373q161 143 381 143z
M641 909q-122 0 -214 -74t-136 -212h583q16 128 -46 207q-63 79 -187 79z" />
    <glyph glyph-name="edieresis" unicode="&#xeb;" horiz-adv-x="1136" 
d="M442 1425h209l-47 -219h-209zM817 1425h209l-45 -219h-211zM662 1081q239 0 352 -159q113 -158 53 -402q-2 -16 -16 -59h-793q-17 -154 48 -234t192 -80q208 0 299 177h207q-141 -349 -525 -349q-234 0 -348 158q-119 158 -59 432q45 227 209 373q161 143 381 143z
M641 909q-122 0 -214 -74t-136 -212h583q16 128 -46 207q-63 79 -187 79z" />
    <glyph glyph-name="igrave" unicode="&#xec;" horiz-adv-x="434" 
d="M424 1206h-156l-137 295h229zM207 0h-205l225 1057h205z" />
    <glyph glyph-name="iacute" unicode="&#xed;" horiz-adv-x="434" 
d="M416 1206h-156l127 295h229zM207 0h-205l225 1057h205z" />
    <glyph glyph-name="icircumflex" unicode="&#xee;" horiz-adv-x="434" 
d="M295 1501h260l133 -295h-184l-98 180l-179 -180h-190zM207 0h-205l225 1057h205z" />
    <glyph glyph-name="idieresis" unicode="&#xef;" horiz-adv-x="434" 
d="M299 1206h-203l47 219h203zM625 1206h-201l47 219h201zM207 0h-205l225 1057h205z" />
    <glyph glyph-name="eth" unicode="&#xf0;" horiz-adv-x="1130" 
d="M838 1341l311 91l-33 -148l-196 -57q110 -171 145 -353q33 -175 -16 -425q-51 -220 -198 -347q-146 -127 -370 -127q-229 0 -348 150q-123 145 -63 420q44 202 198 325q152 125 365 125q134 0 229 -65q-39 107 -129 241l-352 -102l31 148l237 69l-127 172h228zM838 457
q37 172 -27 268q-63 94 -203 94q-128 0 -216 -82q-90 -84 -118 -229q-37 -173 28 -265q64 -91 206 -91q129 0 213 80q87 83 117 225z" />
    <glyph glyph-name="ntilde" unicode="&#xf1;" horiz-adv-x="1130" 
d="M571 1300q-61 0 -82 -94h-153q57 260 248 260q66 0 161 -51q77 -43 121 -43q61 0 82 94h154q-57 -260 -248 -260q-59 0 -168 56q-77 38 -115 38zM752 1081q180 0 258 -112q77 -111 30 -328l-139 -641h-205l138 649q51 252 -160 252q-120 0 -215 -81q-95 -82 -125 -224
l-127 -596h-205l225 1057h197l-31 -144q147 168 359 168z" />
    <glyph glyph-name="ograve" unicode="&#xf2;" horiz-adv-x="1177" 
d="M809 1206h-164l-137 295h246zM502 -25q-254 0 -371 159t-57 437q45 223 215 369q167 141 387 141q255 0 370 -158q115 -159 58 -436q-45 -222 -213 -368q-168 -144 -389 -144zM512 152q142 0 245 97q104 98 138 263q41 185 -22 289q-62 104 -207 104q-139 0 -244 -99
q-104 -98 -139 -259q-41 -187 22 -291q62 -104 207 -104z" />
    <glyph glyph-name="oacute" unicode="&#xf3;" horiz-adv-x="1177" 
d="M801 1206h-166l180 295h246zM502 -25q-254 0 -371 159t-57 437q45 223 215 369q167 141 387 141q255 0 370 -158q115 -159 58 -436q-45 -222 -213 -368q-168 -144 -389 -144zM512 152q142 0 245 97q104 98 138 263q41 185 -22 289q-62 104 -207 104q-139 0 -244 -99
q-104 -98 -139 -259q-41 -187 22 -291q62 -104 207 -104z" />
    <glyph glyph-name="ocircumflex" unicode="&#xf4;" horiz-adv-x="1177" 
d="M903 1206l-137 183l-217 -183h-201l295 295h272l179 -295h-191zM676 1081q255 0 370 -158q115 -159 58 -436q-45 -222 -213 -368q-168 -144 -389 -144q-254 0 -371 159t-57 437q45 223 215 369q167 141 387 141zM895 512q41 185 -22 289q-62 104 -207 104
q-139 0 -244 -99q-104 -98 -139 -259q-41 -187 22 -291q62 -104 207 -104q142 0 245 97q104 98 138 263z" />
    <glyph glyph-name="otilde" unicode="&#xf5;" horiz-adv-x="1177" 
d="M520 1206h-153q57 260 247 260q68 0 162 -51q76 -43 121 -43q61 0 82 94h154q-57 -260 -248 -260q-61 0 -168 56q-77 38 -115 38q-61 0 -82 -94zM502 -25q-254 0 -371 159t-57 437q45 223 215 369q167 141 387 141q255 0 370 -158q115 -159 58 -436q-45 -222 -213 -368
q-168 -144 -389 -144zM512 152q142 0 245 97q104 98 138 263q41 185 -22 289q-62 104 -207 104q-139 0 -244 -99q-104 -98 -139 -259q-41 -187 22 -291q62 -104 207 -104z" />
    <glyph glyph-name="odieresis" unicode="&#xf6;" horiz-adv-x="1177" 
d="M639 1206h-209l47 219h209zM1016 1206h-211l47 219h209zM502 -25q-254 0 -371 159t-57 437q45 223 215 369q167 141 387 141q255 0 370 -158q115 -159 58 -436q-45 -222 -213 -368q-168 -144 -389 -144zM512 152q142 0 245 97q104 98 138 263q41 185 -22 289
q-62 104 -207 104q-139 0 -244 -99q-104 -98 -139 -259q-41 -187 22 -291q62 -104 207 -104z" />
    <glyph glyph-name="divide" unicode="&#xf7;" horiz-adv-x="1083" 
d="M700 989h-200v211h200v-211zM1049 639h-932v180h932v-180zM700 260h-200v209h200v-209z" />
    <glyph glyph-name="oslash" unicode="&#xf8;" horiz-adv-x="1177" 
d="M1030 1141l107 -94l-99 -113q123 -158 66 -447q-45 -222 -213 -368q-168 -144 -389 -144q-144 0 -250 56l-100 -117l-107 94l96 113q-129 157 -67 450q45 223 215 369q167 141 387 141q148 0 254 -57zM279 547q-33 -156 8 -262l514 594q-55 30 -135 30q-140 0 -246 -100
q-107 -101 -141 -262zM899 512q34 151 -6 256l-512 -590q57 -31 131 -31q140 0 246 98q103 96 141 267z" />
    <glyph glyph-name="ugrave" unicode="&#xf9;" horiz-adv-x="1130" 
d="M731 1501l55 -295h-163l-138 295h246zM797 461l125 596h204l-225 -1057h-196l32 143q-150 -168 -358 -168q-182 0 -260 113q-78 112 -31 328l139 641h205l-135 -649q-51 -252 158 -252q121 0 215 81q95 82 125 224h2z" />
    <glyph glyph-name="uacute" unicode="&#xfa;" horiz-adv-x="1130" 
d="M793 1501h245l-260 -295h-166zM797 461l125 596h204l-225 -1057h-196l32 143q-150 -168 -358 -168q-182 0 -260 113q-78 112 -31 328l139 641h205l-135 -649q-51 -252 158 -252q121 0 215 81q95 82 125 224h2z" />
    <glyph glyph-name="ucircumflex" unicode="&#xfb;" horiz-adv-x="1130" 
d="M881 1206l-138 183l-217 -183h-200l295 295h272l178 -295h-190zM797 461l125 596h204l-225 -1057h-196l32 143q-150 -168 -358 -168q-182 0 -260 113q-78 112 -31 328l139 641h205l-135 -649q-51 -252 158 -252q121 0 215 81q95 82 125 224h2z" />
    <glyph glyph-name="udieresis" unicode="&#xfc;" horiz-adv-x="1130" 
d="M455 1425h209l-48 -219h-208zM829 1425h209l-45 -219h-211zM797 461l125 596h204l-225 -1057h-196l32 143q-150 -168 -358 -168q-182 0 -260 113q-78 112 -31 328l139 641h205l-135 -649q-51 -252 158 -252q121 0 215 81q95 82 125 224h2z" />
    <glyph glyph-name="yacute" unicode="&#xfd;" horiz-adv-x="1019" 
d="M731 1501h246l-260 -295h-166zM700 694l201 363h223l-682 -1186q-90 -152 -176 -213q-89 -59 -250 -59q-43 0 -127 4l35 168h103q140 0 209 125l43 75l-158 1086h219l45 -393q30 -288 49 -478q112 226 266 508z" />
    <glyph glyph-name="thorn" unicode="&#xfe;" horiz-adv-x="1198" 
d="M737 1081q227 0 338 -159q108 -166 51 -426q-51 -237 -202 -377q-150 -144 -369 -144q-223 0 -315 168l-115 -544h-207l397 1859h207l-108 -504q139 127 323 127zM918 516q39 187 -22 289q-60 100 -208 100t-247 -93t-138 -271q-41 -189 24 -291q65 -103 220 -103
q138 0 237 99q100 100 134 270z" />
    <glyph glyph-name="ydieresis" unicode="&#xff;" horiz-adv-x="1019" 
d="M393 1425h209l-47 -219h-209zM768 1425h209l-45 -219h-211zM700 694l201 363h223l-682 -1186q-90 -152 -176 -213q-89 -59 -250 -59q-43 0 -127 4l35 168h103q140 0 209 125l43 75l-158 1086h219l45 -393q30 -288 49 -478q112 226 266 508z" />
    <glyph glyph-name="Amacron" unicode="&#x100;" horiz-adv-x="1445" 
d="M651 1702h621l-35 -156h-621zM1305 0h-224l-65 379h-654l-223 -379h-233l878 1458h250zM520 649l-47 -80h512l-14 80q-58 309 -99 598q-170 -292 -352 -598z" />
    <glyph glyph-name="amacron" unicode="&#x101;" horiz-adv-x="1101" 
d="M395 1362h621l-35 -156h-621zM1014 705l-99 -463q-23 -84 46 -84h51l-35 -158q-47 -6 -100 -6q-170 0 -172 137q-131 -156 -353 -156q-182 0 -273 99t-54 266q51 235 444 274l170 19q87 10 130 35q42 24 54 77q39 173 -198 173q-117 0 -181 -44t-92 -147h-200
q50 187 162 270q114 84 329 84q453 0 371 -376zM403 135q127 0 226 75t123 206l26 121q-52 -31 -143 -43l-150 -21q-123 -16 -182 -55q-59 -38 -74 -105q-34 -178 174 -178z" />
    <glyph glyph-name="Abreve" unicode="&#x102;" horiz-adv-x="1445" 
d="M950 1536q-144 0 -224 83q-79 82 -64 222h163q-4 -73 34 -116q37 -42 108 -42q136 0 186 158h166q-34 -147 -133 -226q-98 -79 -236 -79zM-94 0l878 1458h250l271 -1458h-224l-65 379h-654l-223 -379h-233zM520 649l-47 -80h512l-14 80q-58 309 -99 598
q-170 -292 -352 -598z" />
    <glyph glyph-name="abreve" unicode="&#x103;" horiz-adv-x="1101" 
d="M698 1196q-144 0 -224 83q-79 82 -64 222h163q-4 -73 34 -116q38 -42 108 -42q136 0 186 158h166q-34 -147 -133 -226q-98 -79 -236 -79zM643 1081q453 0 371 -376l-99 -463q-23 -84 46 -84h51l-35 -158q-47 -6 -100 -6q-170 0 -172 137q-131 -156 -353 -156
q-182 0 -273 99t-54 266q51 235 444 274l170 19q87 10 130 35q42 24 54 77q39 173 -198 173q-117 0 -181 -44t-92 -147h-200q50 187 162 270q114 84 329 84zM403 135q127 0 226 75t123 206l26 121q-52 -31 -143 -43l-150 -21q-123 -16 -182 -55q-59 -38 -74 -105
q-34 -178 174 -178z" />
    <glyph glyph-name="Aogonek" unicode="&#x104;" horiz-adv-x="1445" 
d="M1055 -190q-11 -42 15 -66q27 -25 69 -25q55 0 110 19l-30 -144q-53 -20 -140 -20q-103 0 -165 59t-44 148q15 69 80 126q67 59 170 93h-39l-65 379h-654l-223 -379h-233l878 1458h250l271 -1458q-228 -100 -250 -190zM520 649l-47 -80h512l-14 80q-58 309 -99 598
q-170 -292 -352 -598z" />
    <glyph glyph-name="aogonek" unicode="&#x105;" horiz-adv-x="1101" 
d="M1014 705l-99 -463q-23 -84 46 -84h51l-35 -158q-235 -102 -250 -190q-11 -42 15 -66q27 -25 69 -25q52 0 111 19l-31 -144q-57 -20 -141 -20q-104 0 -164 59q-61 60 -43 148q24 139 258 223q-91 24 -96 127q-131 -156 -353 -156q-182 0 -273 99t-54 266q51 235 444 274
l170 19q87 10 130 35q42 24 54 77q39 173 -198 173q-117 0 -181 -44t-92 -147h-200q50 187 162 270q114 84 329 84q453 0 371 -376zM403 135q127 0 226 75t123 206l26 121q-52 -31 -143 -43l-150 -21q-123 -16 -182 -55q-59 -38 -74 -105q-34 -178 174 -178z" />
    <glyph glyph-name="Cacute" unicode="&#x106;" horiz-adv-x="1458" 
d="M1047 1579h-189l232 295h264zM655 -33q-319 0 -471 215q-151 212 -67 598q63 312 295 514q229 197 522 197q238 0 391 -129q157 -134 158 -387h-221q-24 321 -347 321q-207 0 -364 -145q-156 -147 -209 -391q-62 -285 29 -442q90 -156 305 -156q174 0 309 98
q137 99 197 279h221q-82 -278 -285 -424q-204 -148 -463 -148z" />
    <glyph glyph-name="cacute" unicode="&#x107;" horiz-adv-x="1087" 
d="M768 1206h-166l180 295h246zM479 -25q-229 0 -346 162q-119 162 -57 445q47 225 203 362q152 137 383 137q197 0 307 -106q110 -105 102 -287h-215q-1 105 -61 160q-59 55 -160 55q-131 0 -225 -93t-129 -267q-37 -189 24 -289t197 -100q226 0 299 223h209
q-57 -190 -196 -296t-335 -106z" />
    <glyph glyph-name="Ccircumflex" unicode="&#x108;" horiz-adv-x="1458" 
d="M1163 1579l-137 184l-217 -184h-201l295 295h273l178 -295h-191zM676 162q174 0 309 98q137 99 197 279h221q-82 -278 -285 -424q-204 -148 -463 -148q-319 0 -471 215q-151 212 -67 598q63 312 295 514q229 197 522 197q238 0 391 -129q157 -134 158 -387h-221
q-24 321 -347 321q-207 0 -364 -145q-156 -147 -209 -391q-62 -285 29 -442q90 -156 305 -156z" />
    <glyph glyph-name="ccircumflex" unicode="&#x109;" horiz-adv-x="1087" 
d="M870 1206l-137 183l-217 -183h-201l295 295h273l178 -295h-191zM635 903q-131 0 -225 -93t-129 -267q-37 -189 24 -289t197 -100q226 0 299 223h209q-57 -190 -196 -296t-335 -106q-229 0 -346 162q-119 162 -57 445q47 225 203 362q152 137 383 137q197 0 307 -106
q110 -105 102 -287h-215q-1 105 -61 160q-59 55 -160 55z" />
    <glyph glyph-name="Cdotaccent" unicode="&#x10a;" horiz-adv-x="1458" 
d="M1085 1579h-211l46 219h210zM655 -33q-319 0 -471 215q-151 212 -67 598q63 312 295 514q229 197 522 197q238 0 391 -129q157 -134 158 -387h-221q-24 321 -347 321q-207 0 -364 -145q-156 -147 -209 -391q-62 -285 29 -442q90 -156 305 -156q174 0 309 98
q137 99 197 279h221q-82 -278 -285 -424q-204 -148 -463 -148z" />
    <glyph glyph-name="cdotaccent" unicode="&#x10b;" horiz-adv-x="1087" 
d="M795 1206h-211l45 219h211zM479 -25q-229 0 -346 162q-119 162 -57 445q47 225 203 362q152 137 383 137q197 0 307 -106q110 -105 102 -287h-215q-1 105 -61 160q-59 55 -160 55q-131 0 -225 -93t-129 -267q-37 -189 24 -289t197 -100q226 0 299 223h209
q-57 -190 -196 -296t-335 -106z" />
    <glyph glyph-name="Ccaron" unicode="&#x10c;" horiz-adv-x="1458" 
d="M1413 1874l-293 -295h-274l-178 295h190l137 -184l217 184h201zM676 162q174 0 309 98q137 99 197 279h221q-82 -278 -285 -424q-204 -148 -463 -148q-319 0 -471 215q-151 212 -67 598q63 312 295 514q229 197 522 197q238 0 391 -129q157 -134 158 -387h-221
q-24 321 -347 321q-207 0 -364 -145q-156 -147 -209 -391q-62 -285 29 -442q90 -156 305 -156z" />
    <glyph glyph-name="ccaron" unicode="&#x10d;" horiz-adv-x="1087" 
d="M1106 1499l-293 -295h-274l-179 295h191l137 -182l217 182h201zM662 1081q197 0 307 -106q110 -105 102 -287h-215q-1 105 -61 160q-59 55 -160 55q-131 0 -225 -93t-129 -267q-37 -189 24 -289t197 -100q226 0 299 223h209q-57 -190 -196 -296t-335 -106
q-229 0 -346 162q-119 162 -57 445q47 225 203 362q152 137 383 137z" />
    <glyph glyph-name="Dcaron" unicode="&#x10e;" horiz-adv-x="1435" 
d="M1274 1841l-293 -295h-274l-179 295h191l137 -184l217 184h201zM326 1458h501q336 0 492 -217t82 -571q-146 -670 -844 -670h-541zM1178 705q55 255 -44 408t-331 153h-299l-228 -1073h299q496 0 603 512z" />
    <glyph glyph-name="dcaron" unicode="&#x10f;" horiz-adv-x="1447" 
d="M958 913l117 545h205l-311 -1458h-197l25 113q-146 -138 -336 -138q-229 0 -336 162q-110 161 -53 424q51 234 202 379q152 141 369 141q227 0 315 -168zM1311 1118l145 340h207l-197 -340h-155zM510 152q149 0 248 93q98 92 137 271q43 186 -23 290q-66 103 -221 103
q-137 0 -236 -99q-99 -100 -134 -269q-39 -189 21 -289t208 -100z" />
    <glyph glyph-name="Dcroat" unicode="&#x110;" horiz-adv-x="1476" 
d="M367 1458h501q334 0 492 -219q158 -220 80 -569q-146 -670 -842 -670h-541l144 676h-170l32 145h168zM1219 705q55 255 -44 408t-331 153h-301l-94 -445h380l-32 -145h-379l-103 -483h301q496 0 603 512z" />
    <glyph glyph-name="dslash" unicode="&#x111;" horiz-adv-x="1265" 
d="M1253 1333h197l-31 -145h-196l-254 -1188h-197l25 113q-146 -138 -336 -138q-229 0 -336 162q-110 161 -53 424q51 234 202 379q152 141 369 141q227 0 315 -168l60 275h-207l31 145h207l26 125h205zM510 152q149 0 248 93q98 92 137 271q43 186 -23 290
q-66 103 -221 103q-137 0 -236 -99q-99 -100 -134 -269q-39 -189 21 -289t208 -100z" />
    <glyph glyph-name="Emacron" unicode="&#x112;" horiz-adv-x="1218" 
d="M578 1702h620l-35 -156h-620zM1366 1458l-41 -196h-821l-88 -412h741l-41 -193h-741l-101 -460h816l-41 -197h-1035l312 1458h1040z" />
    <glyph glyph-name="emacron" unicode="&#x113;" horiz-adv-x="1136" 
d="M410 1362h620l-35 -156h-620zM662 1081q239 0 352 -159q113 -158 53 -402q-2 -16 -16 -59h-793q-17 -154 48 -234t192 -80q208 0 299 177h207q-141 -349 -525 -349q-234 0 -348 158q-119 158 -59 432q45 227 209 373q161 143 381 143zM641 909q-122 0 -214 -74t-136 -212
h583q16 128 -46 207q-63 79 -187 79z" />
    <glyph glyph-name="Ebreve" unicode="&#x114;" horiz-adv-x="1218" 
d="M877 1536q-145 0 -225 83q-79 82 -64 222h164q-5 -74 33 -116q37 -42 108 -42q136 0 186 158h166q-34 -147 -133 -226q-98 -79 -235 -79zM1366 1458l-41 -196h-821l-88 -412h741l-41 -193h-741l-101 -460h816l-41 -197h-1035l312 1458h1040z" />
    <glyph glyph-name="ebreve" unicode="&#x115;" horiz-adv-x="1136" 
d="M713 1196q-145 0 -225 83q-79 82 -64 222h164q-4 -73 34 -116q38 -42 107 -42q136 0 186 158h166q-34 -147 -133 -226q-98 -79 -235 -79zM662 1081q239 0 352 -159q113 -158 53 -402q-2 -16 -16 -59h-793q-17 -154 48 -234t192 -80q208 0 299 177h207
q-141 -349 -525 -349q-234 0 -348 158q-119 158 -59 432q45 227 209 373q161 143 381 143zM641 909q-122 0 -214 -74t-136 -212h583q16 128 -46 207q-63 79 -187 79z" />
    <glyph glyph-name="Edotaccent" unicode="&#x116;" horiz-adv-x="1218" 
d="M793 1765h211l-46 -219h-210zM1366 1458l-41 -196h-821l-88 -412h741l-41 -193h-741l-101 -460h816l-41 -197h-1035l312 1458h1040z" />
    <glyph glyph-name="edotaccent" unicode="&#x117;" horiz-adv-x="1136" 
d="M627 1425h211l-45 -219h-211zM662 1081q239 0 352 -159q113 -158 53 -402q-2 -16 -16 -59h-793q-17 -154 48 -234t192 -80q208 0 299 177h207q-141 -349 -525 -349q-234 0 -348 158q-119 158 -59 432q45 227 209 373q161 143 381 143zM641 909q-122 0 -214 -74t-136 -212
h583q16 128 -46 207q-63 79 -187 79z" />
    <glyph glyph-name="Eogonek" unicode="&#x118;" horiz-adv-x="1218" 
d="M1366 1458l-41 -196h-821l-88 -412h741l-41 -193h-741l-101 -460h816l-41 -197h-11q-228 -100 -250 -190q-11 -41 16 -66t68 -25q56 0 111 19l-31 -144q-53 -20 -139 -20q-103 0 -165 59t-44 148q15 69 80 126q67 59 170 93h-840l312 1458h1040z" />
    <glyph glyph-name="eogonek" unicode="&#x119;" horiz-adv-x="1136" 
d="M662 1081q239 0 352 -159q113 -158 53 -402q-2 -16 -16 -59h-793q-17 -154 48 -234t192 -80q208 0 299 177h207q-108 -262 -347 -326q-222 -100 -243 -188q-11 -42 15 -66q27 -25 69 -25q56 0 110 19l-30 -144q-53 -20 -140 -20q-103 0 -165 59t-44 148q28 122 195 196
q-210 22 -307 177q-100 156 -45 411q45 227 209 373q161 143 381 143zM641 909q-122 0 -214 -74t-136 -212h583q16 128 -46 207q-63 79 -187 79z" />
    <glyph glyph-name="Ecaron" unicode="&#x11a;" horiz-adv-x="1218" 
d="M1288 1841l-293 -295h-274l-178 295h190l137 -184l217 184h201zM1366 1458l-41 -196h-821l-88 -412h741l-41 -193h-741l-101 -460h816l-41 -197h-1035l312 1458h1040z" />
    <glyph glyph-name="ecaron" unicode="&#x11b;" horiz-adv-x="1136" 
d="M1104 1499l-293 -295h-274l-179 295h191l137 -182l217 182h201zM662 1081q239 0 352 -159q113 -158 53 -402q-2 -16 -16 -59h-793q-17 -154 48 -234t192 -80q208 0 299 177h207q-141 -349 -525 -349q-234 0 -348 158q-119 158 -59 432q45 227 209 373q161 143 381 143z
M641 909q-122 0 -214 -74t-136 -212h583q16 128 -46 207q-63 79 -187 79z" />
    <glyph glyph-name="Gcircumflex" unicode="&#x11c;" horiz-adv-x="1546" 
d="M1155 1579l-137 184l-217 -184h-201l295 295h272l179 -295h-191zM911 1296q-214 0 -364 -147q-154 -151 -205 -391q-60 -277 43 -436q103 -160 324 -160q189 0 340 117q147 114 194 301h-426l39 186h635l-164 -766h-168l2 180q-191 -213 -481 -213q-324 0 -483 219
q-159 220 -80 594q68 317 284 514q218 197 533 197q269 0 430 -139q158 -141 152 -375h-224q-1 145 -106 232t-275 87z" />
    <glyph glyph-name="gcircumflex" unicode="&#x11d;" horiz-adv-x="1198" 
d="M901 1206l-137 183l-217 -183h-201l295 295h272l179 -295h-191zM969 909l32 148h197l-217 -1020q-51 -234 -186 -348q-136 -115 -383 -115q-215 0 -322 94q-108 95 -98 258h207q-2 -93 56 -139q59 -47 175 -47q280 0 346 305l17 72q-137 -129 -322 -129q-231 0 -342 166
q-110 167 -53 428q52 237 207 368q152 131 362 131q228 0 324 -172zM518 164q138 0 240 93t141 257l8 39q30 167 -35 259q-66 93 -210 93q-142 0 -240 -94q-99 -94 -133 -260q-39 -179 23 -283t206 -104z" />
    <glyph glyph-name="Gbreve" unicode="&#x11e;" horiz-adv-x="1546" 
d="M995 1569q-144 0 -224 83q-79 82 -64 222h163q-4 -73 34 -116q37 -42 108 -42q136 0 186 158h166q-34 -147 -133 -226q-98 -79 -236 -79zM911 1296q-214 0 -364 -147q-154 -151 -205 -391q-60 -277 43 -436q103 -160 324 -160q189 0 340 117q147 114 194 301h-426l39 186
h635l-164 -766h-168l2 180q-191 -213 -481 -213q-324 0 -483 219q-159 220 -80 594q68 317 284 514q218 197 533 197q269 0 430 -139q158 -141 152 -375h-224q-1 145 -106 232t-275 87z" />
    <glyph glyph-name="gbreve" unicode="&#x11f;" horiz-adv-x="1198" 
d="M745 1196q-144 0 -224 83q-79 82 -64 222h164q-5 -74 33 -116t108 -42q136 0 186 158h166q-34 -147 -133 -226q-98 -79 -236 -79zM969 909l32 148h197l-217 -1020q-51 -234 -186 -348q-136 -115 -383 -115q-215 0 -322 94q-108 95 -98 258h207q-2 -93 56 -139
q59 -47 175 -47q280 0 346 305l17 72q-137 -129 -322 -129q-231 0 -342 166q-110 167 -53 428q52 237 207 368q152 131 362 131q228 0 324 -172zM518 164q138 0 240 93t141 257l8 39q30 167 -35 259q-66 93 -210 93q-142 0 -240 -94q-99 -94 -133 -260q-39 -179 23 -283
t206 -104z" />
    <glyph glyph-name="Gdotaccent" unicode="&#x120;" horiz-adv-x="1546" 
d="M911 1798h211l-45 -219h-211zM911 1296q-214 0 -364 -147q-154 -151 -205 -391q-60 -277 43 -436q103 -160 324 -160q189 0 340 117q147 114 194 301h-426l39 186h635l-164 -766h-168l2 180q-191 -213 -481 -213q-324 0 -483 219q-159 220 -80 594q68 317 284 514
q218 197 533 197q269 0 430 -139q158 -141 152 -375h-224q-1 145 -106 232t-275 87z" />
    <glyph glyph-name="gdotaccent" unicode="&#x121;" horiz-adv-x="1198" 
d="M659 1425h211l-45 -219h-211zM969 909l32 148h197l-217 -1020q-51 -234 -186 -348q-136 -115 -383 -115q-215 0 -322 94q-108 95 -98 258h207q-2 -93 56 -139q59 -47 175 -47q280 0 346 305l17 72q-137 -129 -322 -129q-231 0 -342 166q-110 167 -53 428q52 237 207 368
q152 131 362 131q228 0 324 -172zM518 164q138 0 240 93t141 257l8 39q30 167 -35 259q-66 93 -210 93q-142 0 -240 -94q-99 -94 -133 -260q-39 -179 23 -283t206 -104z" />
    <glyph glyph-name="uni0122" unicode="&#x122;" horiz-adv-x="1546" 
d="M911 1296q-214 0 -364 -147q-154 -151 -205 -391q-60 -277 43 -436q103 -160 324 -160q189 0 340 117q147 114 194 301h-426l39 186h635l-164 -766h-168l2 180q-191 -213 -481 -213q-324 0 -483 219q-159 220 -80 594q68 317 284 514q218 197 533 197q269 0 430 -139
q158 -141 152 -375h-224q-1 145 -106 232t-275 87zM645 -303h-106l39 186h221l-47 -219q-33 -161 -224 -172l-32 -2l18 94l29 2q82 6 94 72z" />
    <glyph glyph-name="uni0123" unicode="&#x123;" horiz-adv-x="1198" 
d="M743 1393h107l-39 -187h-221l47 219q33 162 223 172l33 2l-21 -94l-28 -2q-80 -6 -92 -73zM969 909l32 148h197l-217 -1020q-51 -234 -186 -348q-136 -115 -383 -115q-215 0 -322 94q-108 95 -98 258h207q-2 -93 56 -139q59 -47 175 -47q280 0 346 305l17 72
q-137 -129 -322 -129q-231 0 -342 166q-110 167 -53 428q52 237 207 368q152 131 362 131q228 0 324 -172zM518 164q138 0 240 93t141 257l8 39q30 167 -35 259q-66 93 -210 93q-142 0 -240 -94q-99 -94 -133 -260q-39 -179 23 -283t206 -104z" />
    <glyph glyph-name="Hcircumflex" unicode="&#x124;" horiz-adv-x="1443" 
d="M1116 1542l-137 184l-217 -184h-201l295 295h272l179 -295h-191zM1167 850l129 608h220l-312 -1458h-219l139 649h-751l-140 -649h-219l312 1458h219l-129 -608h751z" />
    <glyph glyph-name="hcircumflex" unicode="&#x125;" horiz-adv-x="1130" 
d="M578 1546l-99 183l-178 -183h-190l258 295h260l133 -295h-184zM754 1081q180 0 258 -112q77 -111 30 -328l-139 -641h-205l138 649q52 252 -160 252q-120 0 -215 -81q-95 -82 -125 -224l-127 -596h-205l309 1458h205l-112 -534q147 157 348 157z" />
    <glyph glyph-name="Hbar" unicode="&#x126;" horiz-adv-x="1525" 
d="M1507 1231h166l-26 -146h-170l-232 -1085h-217l139 649h-753l-140 -649h-217l232 1085h-170l28 146h172l50 227h217l-49 -227h753l49 227h217zM457 850h753l50 235h-754z" />
    <glyph glyph-name="hbar" unicode="&#x127;" horiz-adv-x="1183" 
d="M807 1081q182 0 260 -112t31 -328l-140 -641h-206l137 649q53 252 -158 252q-121 0 -215 -81q-95 -82 -125 -224l-127 -596h-205l252 1188h-194l30 145h195l27 125h204l-26 -125h209l-31 -145h-209l-55 -262q143 155 346 155z" />
    <glyph glyph-name="Itilde" unicode="&#x128;" horiz-adv-x="473" 
d="M289 1546h-125q60 256 209 256q57 0 129 -45q73 -47 104 -47q45 0 68 92h125q-52 -256 -209 -256q-40 0 -123 47q-78 45 -109 45q-46 0 -69 -92zM233 0h-219l312 1458h219z" />
    <glyph glyph-name="itilde" unicode="&#x129;" horiz-adv-x="434" 
d="M186 1206h-125q60 256 209 256q57 0 129 -45q73 -47 105 -47q44 0 67 92h125q-52 -256 -209 -256q-39 0 -122 47q-78 45 -109 45q-47 0 -70 -92zM207 0h-205l225 1057h205z" />
    <glyph glyph-name="Imacron" unicode="&#x12a;" horiz-adv-x="473" 
d="M702 1546h-501l35 156h501zM233 0h-219l312 1458h219z" />
    <glyph glyph-name="imacron" unicode="&#x12b;" horiz-adv-x="434" 
d="M610 1206h-501l34 156h502zM207 0h-205l225 1057h205z" />
    <glyph glyph-name="Ibreve" unicode="&#x12c;" horiz-adv-x="473" 
d="M467 1536q-127 0 -199 82t-57 207h156q0 -142 120 -142q129 0 168 142h160q-37 -137 -126 -213q-88 -76 -222 -76zM233 0h-219l312 1458h219z" />
    <glyph glyph-name="ibreve" unicode="&#x12d;" horiz-adv-x="434" 
d="M346 1196q-127 0 -199 82t-57 207h156q0 -142 121 -142q129 0 168 142h161q-82 -289 -350 -289zM207 0h-205l225 1057h205z" />
    <glyph glyph-name="Iogonek" unicode="&#x12e;" horiz-adv-x="473" 
d="M545 1458l-312 -1458q-154 -91 -178 -195q-18 -90 68 -90q38 0 78 17l-29 -138q-41 -20 -106 -20q-94 0 -141 56q-48 57 -27 147q15 68 65 127q49 58 127 96h-76l312 1458h219z" />
    <glyph glyph-name="iogonek" unicode="&#x12f;" horiz-adv-x="434" 
d="M258 1206l45 219h209l-45 -219h-209zM66 0h-64l225 1057h205l-225 -1057q-158 -90 -176 -195q-23 -90 67 -90q37 0 76 17l-29 -138q-37 -20 -106 -20q-93 0 -139 55q-47 56 -29 148q33 143 195 223z" />
    <glyph glyph-name="Idot" unicode="&#x130;" horiz-adv-x="473" 
d="M559 1546h-209l45 219h209zM233 0h-219l312 1458h219z" />
    <glyph glyph-name="dotlessi" unicode="&#x131;" horiz-adv-x="434" 
d="M207 0h-205l225 1057h205z" />
    <glyph glyph-name="IJ" unicode="&#x132;" horiz-adv-x="1562" 
d="M233 0h-219l312 1458h219zM920 -31q-228 0 -336 135q-109 135 -54 365l11 45h211l-15 -70q-28 -139 26 -212q54 -72 179 -72q232 0 287 264l219 1034h219l-221 -1038q-95 -451 -526 -451z" />
    <glyph glyph-name="ij" unicode="&#x133;" horiz-adv-x="874" 
d="M467 1206h-209l45 219h209zM901 1206h-209l45 219h209zM207 0h-205l225 1057h205zM322 -408q-104 0 -132 2l35 170h72q49 0 75 27q25 26 40 94l250 1172h204l-254 -1192q-57 -273 -290 -273z" />
    <glyph glyph-name="Jcircumflex" unicode="&#x134;" horiz-adv-x="1089" 
d="M1036 1841h260l134 -295h-185l-98 183l-178 -183h-191zM756 424l219 1034h219l-221 -1038q-95 -451 -527 -451q-227 0 -335 135q-109 135 -54 365l11 45h211l-15 -70q-28 -139 26 -212q54 -72 179 -72q231 0 287 264z" />
    <glyph glyph-name="jcircumflex" unicode="&#x135;" horiz-adv-x="440" 
d="M295 1501h260l133 -295h-184l-98 180l-179 -180h-190zM-23 -115l250 1172h205l-254 -1192q-57 -273 -291 -273q-103 0 -131 2l35 170h72q49 0 75 27q24 25 39 94z" />
    <glyph glyph-name="uni0136" unicode="&#x136;" horiz-adv-x="1392" 
d="M1280 1458h289l-740 -600l431 -858h-244l-365 721l-315 -250l-100 -471h-220l310 1458h219l-154 -723zM573 -274h-106l39 186h221l-47 -219q-33 -162 -223 -172l-33 -2l18 94l29 2q82 6 94 72z" />
    <glyph glyph-name="uni0137" unicode="&#x137;" horiz-adv-x="1073" 
d="M891 1057h260l-479 -393l280 -664h-215l-221 543l-235 -187l-76 -356h-203l311 1458h203l-182 -854zM395 -274h-106l39 186h221l-47 -219q-33 -162 -223 -172l-33 -2l18 94l29 2q82 6 94 72z" />
    <glyph glyph-name="kgreenlandic" unicode="&#x138;" horiz-adv-x="1073" 
d="M891 1057h260l-479 -393l280 -664h-215l-221 543l-235 -187l-76 -356h-203l225 1057h203l-96 -453z" />
    <glyph glyph-name="Lacute" unicode="&#x139;" horiz-adv-x="1097" 
d="M606 1841h264l-307 -295h-188zM545 1458l-271 -1261h717l-43 -197h-934l312 1458h219z" />
    <glyph glyph-name="lacute" unicode="&#x13a;" horiz-adv-x="434" 
d="M494 1546h-158l174 295h231zM209 0h-205l309 1458h205z" />
    <glyph glyph-name="uni013B" unicode="&#x13b;" horiz-adv-x="1097" 
d="M545 1458l-271 -1261h717l-43 -197h-934l312 1458h219zM444 -274h-106l39 186h221l-47 -219q-33 -162 -223 -172l-33 -2l18 94l29 2q82 6 94 72z" />
    <glyph glyph-name="uni013C" unicode="&#x13c;" horiz-adv-x="434" 
d="M4 0l309 1458h205l-309 -1458h-205zM47 -274h-106l39 186h221l-47 -219q-33 -161 -224 -172l-32 -2l18 94l29 2q82 6 94 72z" />
    <glyph glyph-name="Lcaron" unicode="&#x13d;" horiz-adv-x="1097" 
d="M545 1458l-271 -1261h717l-43 -197h-934l312 1458h219zM737 1458h205l-197 -340h-153z" />
    <glyph glyph-name="lcaron" unicode="&#x13e;" horiz-adv-x="671" 
d="M209 0h-205l309 1458h205zM705 1118h-154l143 340h207z" />
    <glyph glyph-name="Ldot" unicode="&#x13f;" horiz-adv-x="1097" 
d="M545 1458l-271 -1261h717l-43 -197h-934l312 1458h219zM733 883h248l-53 -246h-248z" />
    <glyph glyph-name="ldot" unicode="&#x140;" horiz-adv-x="862" 
d="M209 0h-205l309 1458h205zM782 602h-247l53 246h248z" />
    <glyph glyph-name="Lslash" unicode="&#x141;" horiz-adv-x="1138" 
d="M442 797l-129 -600h717l-41 -197h-934l150 702l-258 -104l35 162l258 104l127 594h217l-107 -500l340 138l-37 -164z" />
    <glyph glyph-name="lslash" unicode="&#x142;" horiz-adv-x="542" 
d="M449 870l184 88l-37 -167l-182 -86l-150 -705h-207l127 594l-190 -90l35 168l190 90l150 696h204z" />
    <glyph glyph-name="Nacute" unicode="&#x143;" horiz-adv-x="1445" 
d="M1016 1841h264l-307 -295h-189zM1176 1016l94 442h213l-312 -1458h-245l-299 707q-128 304 -189 481q-55 -296 -151 -746l-94 -442h-213l311 1458h246l301 -706q140 -336 186 -486q89 453 152 750z" />
    <glyph glyph-name="nacute" unicode="&#x144;" horiz-adv-x="1130" 
d="M784 1501h246l-260 -295h-166zM752 1081q180 0 258 -112q77 -111 30 -328l-139 -641h-205l138 649q51 252 -160 252q-120 0 -215 -81q-95 -82 -125 -224l-127 -596h-205l225 1057h197l-31 -144q147 168 359 168z" />
    <glyph glyph-name="uni0145" unicode="&#x145;" horiz-adv-x="1445" 
d="M1176 1016l94 442h213l-312 -1458h-245l-299 707q-128 304 -189 481q-55 -296 -151 -746l-94 -442h-213l311 1458h246l301 -706q140 -336 186 -486q89 453 152 750zM518 -274h-106l39 186h221l-47 -219q-33 -161 -224 -172l-32 -2l18 94l29 2q82 6 94 72z" />
    <glyph glyph-name="uni0146" unicode="&#x146;" horiz-adv-x="1130" 
d="M752 1081q180 0 258 -112q77 -111 30 -328l-139 -641h-205l138 649q51 252 -160 252q-120 0 -215 -81q-95 -82 -125 -224l-127 -596h-205l225 1057h197l-31 -144q147 168 359 168zM401 -274h-106l39 186h221l-47 -219q-33 -162 -223 -172l-33 -2l18 94l29 2q82 6 94 72z
" />
    <glyph glyph-name="Ncaron" unicode="&#x147;" horiz-adv-x="1445" 
d="M1341 1841l-292 -295h-275l-178 295h190l138 -184l217 184h200zM1176 1016l94 442h213l-312 -1458h-245l-299 707q-128 304 -189 481q-55 -296 -151 -746l-94 -442h-213l311 1458h246l301 -706q140 -336 186 -486q89 453 152 750z" />
    <glyph glyph-name="ncaron" unicode="&#x148;" horiz-adv-x="1130" 
d="M1108 1499l-293 -295h-274l-179 295h191l137 -182l217 182h201zM752 1081q180 0 258 -112q77 -111 30 -328l-139 -641h-205l138 649q51 252 -160 252q-120 0 -215 -81q-95 -82 -125 -224l-127 -596h-205l225 1057h197l-31 -144q147 168 359 168z" />
    <glyph glyph-name="napostrophe" unicode="&#x149;" horiz-adv-x="1454" 
d="M526 1411l-53 -252q-30 -142 -96 -203q-65 -60 -197 -71l25 123q59 6 89 36q28 28 44 105l6 29h-104l49 233h237zM1075 1081q180 0 258 -112t31 -328l-139 -641h-205l137 649q51 252 -160 252q-121 0 -215 -81q-95 -82 -125 -224l-127 -596h-204l225 1057h197l-31 -144
q147 168 358 168z" />
    <glyph glyph-name="Eng" unicode="&#x14a;" horiz-adv-x="1445" 
d="M1270 1458h213l-309 -1458l-3 -8q-80 -400 -477 -400q-62 0 -141 7l37 170q65 -7 112 -7q218 0 265 232l2 12l-326 717q-137 299 -201 479q-83 -437 -153 -760l-94 -442h-213l309 1458h254l315 -708q126 -282 178 -420q44 249 138 686z" />
    <glyph glyph-name="eng" unicode="&#x14b;" horiz-adv-x="1130" 
d="M729 1081q183 0 268 -113q85 -114 39 -327l-170 -807q-28 -128 -105 -185t-218 -57q-64 0 -92 2l34 168h62q96 0 119 91l168 790q56 258 -185 258q-109 0 -197 -81q-90 -82 -118 -224l-127 -596h-205l225 1057h197l-33 -152q146 176 338 176z" />
    <glyph glyph-name="Omacron" unicode="&#x14c;" horiz-adv-x="1554" 
d="M1303 1579h-621l35 156h620zM684 -33q-326 0 -485 219q-160 219 -82 590q66 312 299 514q231 201 542 201q325 0 484 -215q160 -221 84 -580q-67 -316 -299 -524q-230 -205 -543 -205zM702 164q220 0 383 151q164 152 215 398q57 270 -42 426q-98 155 -322 155
q-218 0 -379 -149q-166 -152 -217 -397q-60 -270 40 -427t322 -157z" />
    <glyph glyph-name="omacron" unicode="&#x14d;" horiz-adv-x="1177" 
d="M1030 1206h-620l34 156h621zM502 -25q-254 0 -371 159t-57 437q45 223 215 369q167 141 387 141q255 0 370 -158q115 -159 58 -436q-45 -222 -213 -368q-168 -144 -389 -144zM512 152q142 0 245 97q104 98 138 263q41 185 -22 289q-62 104 -207 104q-139 0 -244 -99
q-104 -98 -139 -259q-41 -187 22 -291q62 -104 207 -104z" />
    <glyph glyph-name="Obreve" unicode="&#x14e;" horiz-adv-x="1554" 
d="M1016 1569q-144 0 -224 83t-65 222h164q-4 -73 34 -116q37 -42 107 -42q137 0 187 158h165q-34 -147 -133 -226q-98 -79 -235 -79zM684 -33q-326 0 -485 219q-160 219 -82 590q66 312 299 514q231 201 542 201q325 0 484 -215q160 -221 84 -580q-67 -316 -299 -524
q-230 -205 -543 -205zM702 164q220 0 383 151q164 152 215 398q57 270 -42 426q-98 155 -322 155q-218 0 -379 -149q-166 -152 -217 -397q-60 -270 40 -427t322 -157z" />
    <glyph glyph-name="obreve" unicode="&#x14f;" horiz-adv-x="1177" 
d="M748 1196q-145 0 -225 83q-79 82 -64 222h164q-5 -74 33 -116t108 -42q136 0 186 158h166q-34 -147 -133 -226q-98 -79 -235 -79zM502 -25q-254 0 -371 159t-57 437q45 223 215 369q167 141 387 141q255 0 370 -158q115 -159 58 -436q-45 -222 -213 -368
q-168 -144 -389 -144zM512 152q142 0 245 97q104 98 138 263q41 185 -22 289q-62 104 -207 104q-139 0 -244 -99q-104 -98 -139 -259q-41 -187 22 -291q62 -104 207 -104z" />
    <glyph glyph-name="Ohungarumlaut" unicode="&#x150;" horiz-adv-x="1554" 
d="M874 1579h-165l176 295h250zM1243 1579h-166l176 295h250zM684 -33q-326 0 -485 219q-160 219 -82 590q66 312 299 514q231 201 542 201q325 0 484 -215q160 -221 84 -580q-67 -316 -299 -524q-230 -205 -543 -205zM702 164q220 0 383 151q164 152 215 398
q57 270 -42 426q-98 155 -322 155q-218 0 -379 -149q-166 -152 -217 -397q-60 -270 40 -427t322 -157z" />
    <glyph glyph-name="ohungarumlaut" unicode="&#x151;" horiz-adv-x="1177" 
d="M608 1206h-166l176 295h250zM977 1206h-166l176 295h250zM502 -25q-254 0 -371 159t-57 437q45 223 215 369q167 141 387 141q255 0 370 -158q115 -159 58 -436q-45 -222 -213 -368q-168 -144 -389 -144zM512 152q142 0 245 97q104 98 138 263q41 185 -22 289
q-62 104 -207 104q-139 0 -244 -99q-104 -98 -139 -259q-41 -187 22 -291q62 -104 207 -104z" />
    <glyph glyph-name="OE" unicode="&#x152;" horiz-adv-x="2353" 
d="M2501 1458l-43 -196h-822l-88 -412h744l-41 -193h-744l-100 -460h817l-43 -197h-1032l37 172q-212 -205 -512 -205q-317 0 -475 221t-80 590q66 315 295 512q229 201 532 201q335 0 471 -238l43 205h1041zM702 164q220 0 383 151q164 152 215 398q57 270 -42 426
q-98 155 -322 155q-218 0 -379 -149q-166 -152 -217 -397q-60 -270 40 -427t322 -157z" />
    <glyph glyph-name="oe" unicode="&#x153;" horiz-adv-x="1972" 
d="M1497 1081q238 0 352 -159t54 -402q-1 -11 -17 -59h-792q-17 -154 48 -234t191 -80q208 0 299 177h207q-141 -349 -524 -349q-275 0 -371 207q-176 -207 -442 -207q-254 0 -371 159t-57 437q45 223 215 369q167 141 387 141q289 0 389 -204q167 204 432 204zM1477 909
q-122 0 -214 -74q-93 -75 -137 -212h584q16 128 -46 207q-63 79 -187 79zM512 152q142 0 245 97q104 98 138 263q41 185 -22 289q-62 104 -207 104q-139 0 -244 -99q-104 -98 -139 -259q-41 -187 22 -291q62 -104 207 -104z" />
    <glyph glyph-name="Racute" unicode="&#x154;" horiz-adv-x="1339" 
d="M969 1841h264l-307 -295h-189zM326 1458h592q243 0 372 -117q125 -117 80 -327q-22 -116 -112 -201q-88 -84 -224 -117q111 -27 150 -103t16 -220l-29 -191q-20 -107 11 -182h-226q-27 59 -4 188l33 181q21 122 -27 177q-47 54 -172 54h-424l-126 -600h-220zM1145 1010
q29 130 -39 195t-213 65h-389l-103 -488h418q125 0 215 61q88 60 111 167z" />
    <glyph glyph-name="racute" unicode="&#x155;" horiz-adv-x="749" 
d="M598 1501h229l-200 -295h-156zM424 1057l-35 -164q147 180 369 180q37 0 57 -2l-41 -194h-51q-151 0 -252 -72q-99 -71 -137 -211l-127 -594h-205l225 1057h197z" />
    <glyph glyph-name="uni0156" unicode="&#x156;" horiz-adv-x="1339" 
d="M326 1458h592q243 0 372 -117q125 -117 80 -327q-22 -116 -112 -201q-88 -84 -224 -117q111 -27 150 -103t16 -220l-29 -191q-20 -107 11 -182h-226q-27 59 -4 188l33 181q21 122 -27 177q-47 54 -172 54h-424l-126 -600h-220zM1145 1010q29 130 -39 195t-213 65h-389
l-103 -488h418q125 0 215 61q88 60 111 167zM547 -274h-107l39 186h221l-47 -219q-33 -162 -223 -172l-33 -2l19 94l28 2q83 6 95 72z" />
    <glyph glyph-name="uni0157" unicode="&#x157;" horiz-adv-x="749" 
d="M758 1073q37 0 57 -2l-41 -194h-51q-151 0 -252 -72q-99 -71 -137 -211l-127 -594h-205l225 1057h197l-35 -164q147 180 369 180zM41 -274h-107l39 186h222l-48 -219q-33 -162 -223 -172l-33 -2l19 94l29 2q82 6 94 72z" />
    <glyph glyph-name="Rcaron" unicode="&#x158;" horiz-adv-x="1339" 
d="M1294 1841l-293 -295h-274l-178 295h190l138 -184l217 184h200zM326 1458h592q243 0 372 -117q125 -117 80 -327q-22 -116 -112 -201q-88 -84 -224 -117q111 -27 150 -103t16 -220l-29 -191q-20 -107 11 -182h-226q-27 59 -4 188l33 181q21 122 -27 177q-47 54 -172 54
h-424l-126 -600h-220zM1145 1010q29 130 -39 195t-213 65h-389l-103 -488h418q125 0 215 61q88 60 111 167z" />
    <glyph glyph-name="rcaron" unicode="&#x159;" horiz-adv-x="749" 
d="M950 1499l-258 -295h-260l-133 295h184l99 -180l178 180h190zM424 1057l-35 -164q147 180 369 180q37 0 57 -2l-41 -194h-51q-151 0 -252 -72q-99 -71 -137 -211l-127 -594h-205l225 1057h197z" />
    <glyph glyph-name="Sacute" unicode="&#x15a;" horiz-adv-x="1284" 
d="M907 1579h-188l231 295h264zM588 -33q-293 0 -440 135t-109 379h219q-22 -169 68 -249q88 -78 284 -78q154 0 245 54q92 54 110 154q24 115 -36 175q-58 58 -237 98l-119 27q-202 44 -297 158q-96 115 -61 300q34 174 188 273q151 98 385 98q299 0 420 -127
q118 -127 84 -334h-215q21 136 -49 206q-69 69 -254 69q-298 0 -336 -197q-21 -106 38 -165q58 -58 224 -97l121 -27q453 -96 369 -471q-39 -179 -197 -280t-405 -101z" />
    <glyph glyph-name="sacute" unicode="&#x15b;" horiz-adv-x="985" 
d="M682 1206h-166l180 295h246zM420 -27q-232 0 -338 89q-105 89 -84 274h205q-8 -109 46 -155q53 -46 189 -46q215 0 242 131q16 76 -24 116q-39 39 -160 60l-95 17q-335 61 -274 350q27 129 145 201q117 71 306 71q211 0 307 -90q97 -91 76 -264h-199q16 104 -34 150
q-50 45 -169 45q-98 0 -161 -36q-62 -35 -74 -98q-15 -68 25 -105t145 -58l100 -17q185 -35 254 -120q70 -86 37 -238q-27 -133 -145 -204q-120 -73 -320 -73z" />
    <glyph glyph-name="Scircumflex" unicode="&#x15c;" horiz-adv-x="1284" 
d="M1024 1579l-137 184l-217 -184h-201l295 295h272l178 -295h-190zM1292 1030h-215q21 136 -49 206q-69 69 -254 69q-298 0 -336 -197q-21 -106 38 -165q58 -58 224 -97l121 -27q453 -96 369 -471q-39 -179 -197 -280t-405 -101q-293 0 -440 135t-109 379h219
q-22 -169 68 -249q88 -78 284 -78q154 0 245 54q92 54 110 154q24 115 -36 175q-58 58 -237 98l-119 27q-202 44 -297 158q-96 115 -61 300q34 174 188 273q151 98 385 98q299 0 420 -127q118 -127 84 -334z" />
    <glyph glyph-name="scircumflex" unicode="&#x15d;" horiz-adv-x="985" 
d="M784 1206l-137 183l-217 -183h-201l295 295h273l178 -295h-191zM578 1081q211 0 307 -90q97 -91 76 -264h-199q16 104 -34 150q-50 45 -169 45q-98 0 -161 -36q-62 -35 -74 -98q-15 -68 25 -105t145 -58l100 -17q185 -35 254 -120q70 -86 37 -238q-27 -133 -145 -204
q-120 -73 -320 -73q-232 0 -338 89q-105 89 -84 274h205q-8 -109 46 -155q53 -46 189 -46q215 0 242 131q16 76 -24 116q-39 39 -160 60l-95 17q-335 61 -274 350q27 129 145 201q117 71 306 71z" />
    <glyph glyph-name="Scedilla" unicode="&#x15e;" horiz-adv-x="1284" 
d="M1292 1030h-215q21 136 -49 206q-69 69 -254 69q-298 0 -336 -197q-21 -106 38 -165q58 -58 224 -97l121 -27q453 -96 369 -471q-34 -165 -173 -265q-138 -99 -353 -114l-99 -90h13q89 0 135 -55t30 -133q-41 -170 -309 -170q-90 0 -147 12l22 100q54 -8 127 -8
q118 0 135 84q6 40 -19 64q-26 24 -81 24q-31 0 -55 -2l16 78l96 96q-264 15 -395 149t-94 363h219q-22 -169 68 -249q88 -78 284 -78q154 0 245 54q92 54 110 154q24 115 -36 175q-58 58 -237 98l-119 27q-202 44 -297 158q-96 115 -61 300q34 174 188 273q151 98 385 98
q299 0 420 -127q118 -127 84 -334z" />
    <glyph glyph-name="scedilla" unicode="&#x15f;" horiz-adv-x="985" 
d="M961 727h-199q16 104 -34 150q-50 45 -169 45q-98 0 -161 -36q-62 -35 -74 -98q-15 -68 25 -105t145 -58l100 -17q185 -35 254 -120q70 -86 37 -238q-53 -248 -389 -275l-99 -90h13q89 0 135 -55t30 -133q-41 -170 -309 -170q-90 0 -147 12l22 101q61 -9 127 -9
q118 0 135 84q6 40 -19 64q-26 24 -81 24q-31 0 -55 -2l16 78l96 96q-201 10 -291 100q-89 89 -71 261h205q-8 -109 46 -155q53 -46 189 -46q215 0 242 131q16 76 -24 116q-39 39 -160 60l-95 17q-335 61 -274 350q27 129 145 201q117 71 306 71q211 0 307 -90
q97 -91 76 -264z" />
    <glyph glyph-name="Scaron" unicode="&#x160;" horiz-adv-x="1284" 
d="M1276 1874l-293 -295h-274l-179 295h191l137 -184l217 184h201zM1292 1030h-215q21 136 -49 206q-69 69 -254 69q-298 0 -336 -197q-21 -106 38 -165q58 -58 224 -97l121 -27q453 -96 369 -471q-39 -179 -197 -280t-405 -101q-293 0 -440 135t-109 379h219
q-22 -169 68 -249q88 -78 284 -78q154 0 245 54q92 54 110 154q24 115 -36 175q-58 58 -237 98l-119 27q-202 44 -297 158q-96 115 -61 300q34 174 188 273q151 98 385 98q299 0 420 -127q118 -127 84 -334z" />
    <glyph glyph-name="scaron" unicode="&#x161;" horiz-adv-x="985" 
d="M1020 1499l-293 -295h-274l-179 295h191l137 -182l217 182h201zM578 1081q211 0 307 -90q97 -91 76 -264h-199q16 104 -34 150q-50 45 -169 45q-98 0 -161 -36q-62 -35 -74 -98q-15 -68 25 -105t145 -58l100 -17q185 -35 254 -120q70 -86 37 -238q-27 -133 -145 -204
q-120 -73 -320 -73q-232 0 -338 89q-105 89 -84 274h205q-8 -109 46 -155q53 -46 189 -46q215 0 242 131q16 76 -24 116q-39 39 -160 60l-95 17q-335 61 -274 350q27 129 145 201q117 71 306 71z" />
    <glyph glyph-name="uni0162" unicode="&#x162;" horiz-adv-x="1263" 
d="M899 1262l-268 -1262h-39l-96 -88h12q89 0 135 -55q47 -56 31 -133q-41 -170 -309 -170q-91 0 -148 12l23 100q54 -8 127 -8q119 0 135 84q6 39 -20 63q-27 25 -81 25q-31 0 -55 -2l16 78l95 94h-49l268 1262h-481l41 196h1189l-43 -196h-483z" />
    <glyph glyph-name="uni0163" unicode="&#x163;" horiz-adv-x="665" 
d="M694 889h-215l-127 -602q-24 -123 94 -123h93l-35 -164q-52 -6 -86 -6l-90 -82h12q89 0 135 -55q47 -56 31 -133q-41 -170 -309 -170q-91 0 -148 12l23 100q54 -8 127 -8q119 0 135 84q6 39 -20 63q-27 25 -81 25q-31 0 -55 -2l17 78l98 98q-197 50 -146 285l127 600
h-170l37 168h170l64 303h205l-64 -303h213z" />
    <glyph glyph-name="Tcaron" unicode="&#x164;" horiz-adv-x="1263" 
d="M1286 1841l-293 -295h-274l-178 295h190l137 -184l217 184h201zM236 1458h1189l-43 -196h-483l-268 -1262h-223l268 1262h-481z" />
    <glyph glyph-name="tcaron" unicode="&#x165;" horiz-adv-x="665" 
d="M602 1118l146 340h204l-196 -340h-154zM375 1360h205l-64 -303h213l-35 -168h-215l-127 -602q-24 -123 94 -123h93l-35 -164q-67 -6 -109 -6q-149 0 -215 77t-33 218l127 600h-170l37 168h170z" />
    <glyph glyph-name="Tbar" unicode="&#x166;" horiz-adv-x="1263" 
d="M1425 1458l-43 -196h-483l-98 -459h291l-39 -146h-283l-139 -657h-223l139 657h-271l39 146h263l98 459h-481l41 196h1189z" />
    <glyph glyph-name="tbar" unicode="&#x167;" horiz-adv-x="690" 
d="M729 1057l-35 -168h-215l-57 -271h237l-28 -145h-240l-39 -186q-24 -123 94 -123h93l-35 -164q-67 -6 -109 -6q-149 0 -215 77t-33 218l39 184h-141l29 145h143l57 271h-170l37 168h170l64 303h205l-64 -303h213z" />
    <glyph glyph-name="Utilde" unicode="&#x168;" horiz-adv-x="1392" 
d="M698 1546h-155q57 260 248 260q66 0 161 -51q77 -43 121 -43q61 0 82 94h154q-57 -260 -248 -260q-61 0 -168 56q-77 38 -115 38q-62 0 -80 -94zM618 -31q-297 0 -431 173t-62 495l178 821h219l-182 -856q-91 -440 297 -440q357 0 436 385l191 911h219l-199 -950
q-114 -539 -666 -539z" />
    <glyph glyph-name="utilde" unicode="&#x169;" horiz-adv-x="1130" 
d="M582 1300q-61 0 -82 -94h-154q57 260 248 260q68 0 162 -51q76 -43 121 -43q60 0 81 94h154q-57 -260 -248 -260q-61 0 -168 56q-77 38 -114 38zM797 461l125 596h204l-225 -1057h-196l32 143q-150 -168 -358 -168q-182 0 -260 113q-78 112 -31 328l139 641h205
l-135 -649q-51 -252 158 -252q121 0 215 81q95 82 125 224h2z" />
    <glyph glyph-name="Umacron" unicode="&#x16a;" horiz-adv-x="1392" 
d="M1206 1546h-620l35 156h620zM618 -31q-297 0 -431 173t-62 495l178 821h219l-182 -856q-91 -440 297 -440q357 0 436 385l191 911h219l-199 -950q-114 -539 -666 -539z" />
    <glyph glyph-name="umacron" unicode="&#x16b;" horiz-adv-x="1130" 
d="M422 1362h620l-34 -156h-621zM797 461l125 596h204l-225 -1057h-196l32 143q-150 -168 -358 -168q-182 0 -260 113q-78 112 -31 328l139 641h205l-135 -649q-51 -252 158 -252q121 0 215 81q95 82 125 224h2z" />
    <glyph glyph-name="Ubreve" unicode="&#x16c;" horiz-adv-x="1392" 
d="M920 1536q-145 0 -225 83q-79 82 -64 222h164q-5 -74 33 -116t108 -42q136 0 186 158h166q-34 -147 -133 -226q-98 -79 -235 -79zM618 -31q-297 0 -431 173t-62 495l178 821h219l-182 -856q-91 -440 297 -440q357 0 436 385l191 911h219l-199 -950q-114 -539 -666 -539z
" />
    <glyph glyph-name="ubreve" unicode="&#x16d;" horiz-adv-x="1130" 
d="M725 1196q-144 0 -224 83t-65 222h164q-4 -73 34 -116q37 -42 107 -42q137 0 187 158h166q-34 -147 -133 -226q-98 -79 -236 -79zM797 461l125 596h204l-225 -1057h-196l32 143q-150 -168 -358 -168q-182 0 -260 113q-78 112 -31 328l139 641h205l-135 -649
q-51 -252 158 -252q121 0 215 81q95 82 125 224h2z" />
    <glyph glyph-name="Uring" unicode="&#x16e;" horiz-adv-x="1392" 
d="M1071 1399q-77 -76 -197 -76q-119 0 -196 76q-80 74 -80 186q0 115 80 190q78 74 196 74t196 -74q79 -75 79 -190q0 -113 -78 -186zM782 1495q56 -60 142 -27t80 117q0 54 -38 92q-37 37 -92 37q-54 4 -94 -37q-39 -40 -37 -91t39 -91zM618 -31q-297 0 -431 173t-62 495
l178 821h219l-182 -856q-91 -440 297 -440q357 0 436 385l191 911h219l-199 -950q-114 -539 -666 -539z" />
    <glyph glyph-name="uring" unicode="&#x16f;" horiz-adv-x="1130" 
d="M754 1196q-118 0 -197 75q-80 75 -80 189q0 113 80 188q78 74 197 74q115 0 194 -73q80 -77 80 -189q0 -114 -80 -188q-77 -76 -194 -76zM846 1552q-56 58 -143 25q-86 -33 -80 -117q0 -55 37 -92t94 -37q81 -7 117 79q36 87 -25 142zM797 461l125 596h204l-225 -1057
h-196l32 143q-150 -168 -358 -168q-182 0 -260 113q-78 112 -31 328l139 641h205l-135 -649q-51 -252 158 -252q121 0 215 81q95 82 125 224h2z" />
    <glyph glyph-name="Uhungarumlaut" unicode="&#x170;" horiz-adv-x="1392" 
d="M778 1546h-166l176 295h250zM1147 1546h-166l176 295h250zM618 -31q-297 0 -431 173t-62 495l178 821h219l-182 -856q-91 -440 297 -440q357 0 436 385l191 911h219l-199 -950q-114 -539 -666 -539z" />
    <glyph glyph-name="uhungarumlaut" unicode="&#x171;" horiz-adv-x="1130" 
d="M596 1501h250l-260 -295h-166zM1214 1501l-260 -295h-166l177 295h249zM795 461h2l125 596h204l-225 -1057h-196l32 143q-150 -168 -358 -168q-182 0 -260 113q-78 112 -31 328l139 641h205l-135 -649q-51 -252 158 -252q121 0 215 81q95 82 125 224z" />
    <glyph glyph-name="Uogonek" unicode="&#x172;" horiz-adv-x="1392" 
d="M1073 547l191 911h219l-199 -950q-86 -412 -430 -508q-226 -101 -248 -190q-11 -41 16 -66t68 -25q57 0 111 19l-31 -144q-53 -20 -139 -20q-103 0 -165 59t-44 148q23 114 176 188q-286 6 -414 179q-127 172 -59 489l178 821h219l-182 -856q-91 -440 297 -440
q357 0 436 385z" />
    <glyph glyph-name="uogonek" unicode="&#x173;" horiz-adv-x="1130" 
d="M1126 1057l-225 -1057q-228 -100 -250 -190q-11 -41 16 -66t68 -25q57 0 111 19l-31 -144q-53 -20 -139 -20q-103 0 -165 59t-44 148q15 69 80 126q67 59 170 93h-12l32 143q-150 -168 -358 -168q-182 0 -260 113q-78 112 -31 328l139 641h205l-135 -649
q-51 -252 158 -252q121 0 215 81q95 82 125 224h2l125 596h204z" />
    <glyph glyph-name="Wcircumflex" unicode="&#x174;" horiz-adv-x="1978" 
d="M1386 1546l-137 185l-217 -185h-201l295 295h273l178 -295h-191zM1602 797l317 661h231l-718 -1458h-246l-41 682q-9 263 -17 508q-76 -171 -235 -508l-332 -682h-244l-100 1458h223l39 -661q14 -315 19 -543q102 233 250 547l315 657h233l37 -657q14 -242 19 -543
q132 294 250 539z" />
    <glyph glyph-name="wcircumflex" unicode="&#x175;" horiz-adv-x="1636" 
d="M1114 1206l-137 183l-217 -183h-201l295 295h272l179 -295h-191zM1274 616l229 441h230l-576 -1057h-217l-45 465q-19 154 -29 348q-90 -190 -170 -348l-243 -465h-215l-125 1057h211l43 -441q15 -204 17 -233q8 -113 11 -145q98 201 189 378l227 441h205l39 -441
q15 -162 28 -385q63 139 191 385z" />
    <glyph glyph-name="Ycircumflex" unicode="&#x176;" horiz-adv-x="1370" 
d="M1085 1546l-137 185l-217 -185h-201l295 295h273l178 -295h-191zM1038 1153l252 305h254l-737 -876l-123 -582h-219l123 582l-369 876h238l127 -307q61 -151 143 -381q262 324 311 383z" />
    <glyph glyph-name="ycircumflex" unicode="&#x177;" horiz-adv-x="1019" 
d="M817 1206l-137 183l-217 -183h-201l295 295h272l179 -295h-191zM700 694l201 363h223l-682 -1186q-90 -152 -176 -213q-89 -59 -250 -59q-43 0 -127 4l35 168h103q140 0 209 125l43 75l-158 1086h219l45 -393q30 -288 49 -478q112 226 266 508z" />
    <glyph glyph-name="Ydieresis" unicode="&#x178;" horiz-adv-x="1370" 
d="M657 1765h209l-47 -219h-209zM1032 1765h209l-47 -219h-209zM1038 1153l252 305h254l-737 -876l-123 -582h-219l123 582l-369 876h238l127 -307q61 -151 143 -381q262 324 311 383z" />
    <glyph glyph-name="Zacute" unicode="&#x179;" horiz-adv-x="1253" 
d="M965 1841h264l-307 -295h-189zM1389 1458l-41 -186l-766 -760q-92 -92 -328 -319q164 4 418 4h461l-43 -197h-1151l41 186l761 760q65 61 164 160t164 160q-164 -4 -418 -4h-407l41 196h1104z" />
    <glyph glyph-name="zacute" unicode="&#x17a;" horiz-adv-x="1007" 
d="M723 1501h246l-260 -295h-166zM1028 1057l-33 -144l-573 -579q-118 -118 -170 -168q66 2 223 2h389l-37 -168h-872l31 143l573 580q103 103 172 168q-66 -2 -219 -2h-352l37 168h831z" />
    <glyph glyph-name="Zdotaccent" unicode="&#x17b;" horiz-adv-x="1253" 
d="M793 1765h211l-46 -219h-210zM1389 1458l-41 -186l-766 -760q-92 -92 -328 -319q164 4 418 4h461l-43 -197h-1151l41 186l761 760q65 61 164 160t164 160q-164 -4 -418 -4h-407l41 196h1104z" />
    <glyph glyph-name="zdotaccent" unicode="&#x17c;" horiz-adv-x="1007" 
d="M569 1425h211l-45 -219h-211zM1028 1057l-33 -144l-573 -579q-118 -118 -170 -168q66 2 223 2h389l-37 -168h-872l31 143l573 580q103 103 172 168q-66 -2 -219 -2h-352l37 168h831z" />
    <glyph glyph-name="Zcaron" unicode="&#x17d;" horiz-adv-x="1253" 
d="M1288 1841l-293 -295h-274l-178 295h190l137 -184l217 184h201zM1389 1458l-41 -186l-766 -760q-92 -92 -328 -319q164 4 418 4h461l-43 -197h-1151l41 186l761 760q65 61 164 160t164 160q-164 -4 -418 -4h-407l41 196h1104z" />
    <glyph glyph-name="zcaron" unicode="&#x17e;" horiz-adv-x="1007" 
d="M1047 1499l-293 -295h-275l-178 295h191l137 -182l217 182h201zM512 889h-352l37 168h831l-33 -144l-573 -579q-118 -118 -170 -168q66 2 223 2h389l-37 -168h-872l31 143l573 580q103 103 172 168q-66 -2 -219 -2z" />
    <glyph glyph-name="uni018F" unicode="&#x18f;" horiz-adv-x="1490" 
d="M913 1491q334 0 478 -217q145 -217 67 -596q-63 -310 -280 -510q-219 -201 -523 -201q-171 0 -297 64q-123 62 -187 175q-62 110 -79 262q-16 148 31 325h1130q37 245 -56 374t-304 129q-164 0 -284 -77q-121 -78 -189 -226h-230q97 243 282 370q187 128 441 128z
M682 160q191 0 330 121t205 344h-906q-30 -212 68 -338q99 -127 303 -127z" />
    <glyph glyph-name="florin" unicode="&#x192;" horiz-adv-x="974" 
d="M1004 1466q70 0 120 -8l-37 -172q-42 8 -83 8q-77 0 -114 -31q-39 -33 -73 -122l-117 -324h201l-35 -166h-225l-270 -753q-63 -179 -146 -252q-84 -70 -254 -70q-61 0 -121 6l37 172q49 -6 84 -6q75 0 115 32t70 122l270 749h-186l34 166h211l119 328q63 182 148 252
q78 69 252 69z" />
    <glyph glyph-name="uni01F4" unicode="&#x1f4;" horiz-adv-x="1546" 
d="M1081 1874h265l-308 -295h-188zM911 1296q-214 0 -364 -147q-154 -151 -205 -391q-60 -277 43 -436q103 -160 324 -160q189 0 340 117q147 114 194 301h-426l39 186h635l-164 -766h-168l2 180q-191 -213 -481 -213q-324 0 -483 219q-159 220 -80 594q68 317 284 514
q218 197 533 197q269 0 430 -139q158 -141 152 -375h-224q-1 145 -106 232t-275 87z" />
    <glyph glyph-name="uni01F5" unicode="&#x1f5;" horiz-adv-x="1198" 
d="M813 1501h246l-260 -295h-166zM969 909l32 148h197l-217 -1020q-51 -234 -186 -348q-136 -115 -383 -115q-215 0 -322 94q-108 95 -98 258h207q-2 -93 56 -139q59 -47 175 -47q280 0 346 305l17 72q-137 -129 -322 -129q-231 0 -342 166q-110 167 -53 428q52 237 207 368
q152 131 362 131q228 0 324 -172zM518 164q138 0 240 93t141 257l8 39q30 167 -35 259q-66 93 -210 93q-142 0 -240 -94q-99 -94 -133 -260q-39 -179 23 -283t206 -104z" />
    <glyph glyph-name="Aringacute" unicode="&#x1fa;" horiz-adv-x="1445" 
d="M1182 1585q0 -151 -129 -225l252 -1360h-224l-65 379h-654l-223 -379h-233l829 1378q-102 78 -102 207q0 100 61 171q62 73 160 89l190 242h263l-275 -264q68 -30 109 -94t41 -144zM907 1714q-54 0 -91 -37q-38 -38 -38 -92q0 -55 37 -91q38 -36 92 -36q55 0 93 36t38 91
q0 54 -38 92q-37 37 -93 37zM520 649l-47 -80h512l-14 80q-99 595 -99 600q-275 -473 -352 -600z" />
    <glyph glyph-name="aringacute" unicode="&#x1fb;" horiz-adv-x="1101" 
d="M889 2128h248l-263 -295h-165zM727 1196q-117 0 -197 75q-79 75 -79 189q0 113 79 188q78 74 197 74q116 0 195 -73q79 -76 79 -189q0 -115 -79 -188q-77 -76 -195 -76zM819 1552q-56 58 -142 25q-87 -33 -81 -117q0 -54 38 -92q37 -37 93 -37q82 -7 118 79t-26 142z
M643 1081q453 0 371 -376l-99 -463q-23 -84 46 -84h51l-35 -158q-47 -6 -100 -6q-170 0 -172 137q-131 -156 -353 -156q-182 0 -273 99t-54 266q51 235 444 274l170 19q87 10 130 35q42 24 54 77q39 173 -198 173q-119 0 -181 -43q-64 -44 -92 -148h-200q50 187 162 270
q114 84 329 84zM403 135q127 0 226 75t123 206l26 121q-52 -31 -143 -43l-150 -21q-123 -16 -182 -55q-59 -38 -74 -105q-34 -178 174 -178z" />
    <glyph glyph-name="AEacute" unicode="&#x1fc;" horiz-adv-x="2127" 
d="M1774 1841h264l-307 -295h-189zM2275 1458l-41 -196h-755l-88 -412h677l-40 -193h-678l-99 -460h750l-41 -197h-967l84 395h-633l-288 -395h-244l1077 1458h1286zM1083 1268l-499 -682h534l144 682h-179z" />
    <glyph glyph-name="aeacute" unicode="&#x1fd;" horiz-adv-x="1787" 
d="M1108 1501h246l-260 -295h-166zM1331 1081q230 0 338 -159q106 -161 49 -402q-10 -28 -16 -59h-754q-17 -156 43 -235t185 -79q198 0 284 177h195q-129 -349 -496 -349q-260 0 -362 207q-179 -207 -439 -207q-187 0 -279 94q-91 92 -56 263q49 241 456 284l158 17
q86 11 128 39q41 28 56 88l2 6q17 77 -28 114q-46 38 -164 38q-128 0 -192 -44q-62 -43 -89 -147h-203q39 176 161 265t345 89q252 0 332 -131q146 131 346 131zM1311 909q-114 0 -200 -74t-130 -212h553q16 128 -43 207q-60 79 -180 79zM395 135q127 0 226 72t129 203l2 14
q1 51 10 98q-43 -26 -127 -37l-152 -16q-227 -24 -256 -162q-16 -82 27 -127q44 -45 141 -45z" />
    <glyph glyph-name="Oslashacute" unicode="&#x1fe;" horiz-adv-x="1554" 
d="M1104 1874h264l-307 -295h-189zM1444 1550l117 -104l-136 -152q180 -218 101 -598q-67 -316 -299 -524q-230 -205 -543 -205q-209 0 -352 94l-137 -155l-117 104l137 156q-180 224 -98 610q66 312 299 514q231 201 542 201q205 0 351 -92zM340 748q-55 -252 29 -410
l794 897q-89 59 -227 59q-218 0 -379 -149q-166 -152 -217 -397zM1300 713q51 256 -30 405l-795 -895q94 -59 227 -59q220 0 383 151q164 152 215 398z" />
    <glyph glyph-name="oslashacute" unicode="&#x1ff;" horiz-adv-x="1177" 
d="M815 1501h246l-260 -295h-166zM1030 1141l107 -94l-99 -113q123 -158 66 -447q-45 -222 -213 -368q-168 -144 -389 -144q-144 0 -250 56l-100 -117l-107 94l96 113q-129 157 -67 450q45 223 215 369q167 141 387 141q148 0 254 -57zM279 547q-33 -156 8 -262l514 594
q-55 30 -135 30q-140 0 -246 -100q-107 -101 -141 -262zM899 512q34 151 -6 256l-512 -590q57 -31 131 -31q140 0 246 98q103 96 141 267z" />
    <glyph glyph-name="uni0218" unicode="&#x218;" horiz-adv-x="1284" 
d="M1292 1030h-215q21 136 -49 206q-69 69 -254 69q-298 0 -336 -197q-21 -106 38 -165q58 -58 224 -97l121 -27q453 -96 369 -471q-39 -179 -197 -280t-405 -101q-293 0 -440 135t-109 379h219q-22 -169 68 -249q88 -78 284 -78q154 0 245 54q92 54 110 154q24 115 -36 175
q-58 58 -237 98l-119 27q-202 44 -297 158q-96 115 -61 300q34 174 188 273q151 98 385 98q299 0 420 -127q118 -127 84 -334zM530 -307h-106l39 186h221l-47 -219q-33 -162 -223 -172l-33 -2l18 94l29 2q82 6 94 72z" />
    <glyph glyph-name="uni0219" unicode="&#x219;" horiz-adv-x="985" 
d="M961 727h-199q16 104 -34 150q-50 45 -169 45q-98 0 -161 -36q-62 -35 -74 -98q-15 -68 25 -105t145 -58l100 -17q185 -35 254 -120q70 -86 37 -238q-27 -133 -145 -204q-120 -73 -320 -73q-232 0 -338 89q-105 89 -84 274h205q-8 -109 46 -155q53 -46 189 -46
q215 0 242 131q16 76 -24 116q-39 39 -160 60l-95 17q-335 61 -274 350q27 129 145 201q117 71 306 71q211 0 307 -90q97 -91 76 -264zM358 -301h-106l39 186h221l-47 -219q-33 -162 -223 -172l-33 -2l18 94l29 2q82 6 94 72z" />
    <glyph glyph-name="uni021A" unicode="&#x21a;" horiz-adv-x="1263" 
d="M236 1458h1189l-43 -196h-483l-268 -1262h-223l268 1262h-481zM461 -274h-107l39 186h221l-47 -219q-33 -162 -223 -172l-33 -2l19 94l28 2q83 6 95 72z" />
    <glyph glyph-name="uni021B" unicode="&#x21b;" horiz-adv-x="665" 
d="M694 889h-215l-127 -602q-24 -123 94 -123h93l-35 -164q-67 -6 -109 -6q-149 0 -215 77t-33 218l127 600h-170l37 168h170l64 303h205l-64 -303h213zM289 -274h-107l39 186h221l-47 -219q-33 -162 -223 -172l-33 -2l19 94l28 2q83 6 95 72z" />
    <glyph glyph-name="uni0237" unicode="&#x237;" horiz-adv-x="440" 
d="M-113 -408q-103 0 -131 2l35 170h72q49 0 75 27q24 25 39 94l250 1172h205l-254 -1192q-57 -273 -291 -273z" />
    <glyph glyph-name="uni0259" unicode="&#x259;" horiz-adv-x="1136" 
d="M657 1081q232 0 349 -157q119 -158 59 -432q-49 -227 -209 -373q-162 -144 -381 -144q-240 0 -352 160q-113 158 -53 402q2 16 16 59h793q16 152 -49 233q-65 80 -191 80q-209 0 -299 -176h-207q141 348 524 348zM496 147q119 0 211 74q93 75 139 213h-584
q-17 -129 46 -208t188 -79z" />
    <glyph glyph-name="h.sups" unicode="&#x2b0;" horiz-adv-x="956" 
d="M741 1477q157 0 230 -103q71 -101 30 -289l-116 -548h-195l117 553q49 219 -152 219q-99 0 -172 -66q-74 -67 -98 -190l-106 -516h-193l260 1267h193l-97 -471q124 144 299 144z" />
    <glyph glyph-name="r.sups" unicode="&#x2b3;" horiz-adv-x="655" 
d="M754 1473q46 0 67 -3l-39 -182h-51q-134 0 -220 -68q-87 -69 -114 -200l-102 -483h-195l195 921h188l-30 -139q113 154 301 154z" />
    <glyph glyph-name="circumflex" unicode="&#x2c6;" horiz-adv-x="819" 
d="M750 1501l176 -295h-191l-137 183l-217 -183h-201l295 295h275z" />
    <glyph glyph-name="caron" unicode="&#x2c7;" horiz-adv-x="819" 
d="M563 1317l217 182h201l-293 -295h-274l-178 295h190z" />
    <glyph glyph-name="uni02C9" unicode="&#x2c9;" horiz-adv-x="819" 
d="M870 1206h-618l35 156h618z" />
    <glyph glyph-name="breve" unicode="&#x2d8;" horiz-adv-x="819" 
d="M578 1196q-145 0 -225 83q-79 82 -64 222h164q-5 -74 33 -116t108 -42q136 0 186 158h164q-30 -145 -130 -225t-236 -80z" />
    <glyph glyph-name="dotaccent" unicode="&#x2d9;" horiz-adv-x="819" 
d="M662 1206h-211l45 219h211z" />
    <glyph glyph-name="ring" unicode="&#x2da;" horiz-adv-x="819" 
d="M803 1272q-77 -76 -197 -76q-118 0 -194 76q-80 74 -80 188q0 113 79 188q78 74 195 74q119 0 197 -74q80 -75 80 -188q0 -114 -80 -188zM606 1331q56 0 93 37q38 38 38 92q0 55 -38 91q-37 36 -93 36q-54 0 -92 -36q-37 -36 -37 -91q0 -54 38 -92q37 -37 91 -37z" />
    <glyph glyph-name="ogonek" unicode="&#x2db;" horiz-adv-x="819" 
d="M254 -426q-103 0 -165 59t-44 148q15 69 80 126q67 59 170 93h184q-235 -102 -250 -190q-11 -41 16 -66t68 -25q57 0 111 19l-31 -144q-53 -20 -139 -20z" />
    <glyph glyph-name="tilde" unicode="&#x2dc;" horiz-adv-x="819" 
d="M352 1206h-155q57 260 247 260q74 0 162 -51q76 -43 121 -43q61 0 82 94h154q-56 -260 -246 -260q-61 0 -170 56q-75 38 -113 38q-64 0 -82 -94z" />
    <glyph glyph-name="hungarumlaut" unicode="&#x2dd;" horiz-adv-x="819" 
d="M436 1206h-164l177 295h249zM805 1206h-164l176 295h250z" />
    <glyph glyph-name="s.sups" unicode="&#x2e2;" horiz-adv-x="892" 
d="M492 512q-206 0 -303 79q-96 78 -78 236h188q-6 -92 42 -131t165 -39q177 0 201 113q12 64 -24 94q-38 31 -138 49l-99 17q-283 49 -231 305q24 113 126 177q103 65 275 65q192 0 281 -80t68 -228h-185q12 86 -34 125t-146 39q-173 0 -194 -110q-12 -61 21 -91
q35 -32 118 -47l100 -14q309 -50 254 -307q-51 -252 -407 -252z" />
    <glyph glyph-name="gravecomb" unicode="&#x300;" 
d="M358 1206h-163l-138 295h246z" />
    <glyph glyph-name="acutecomb" unicode="&#x301;" 
d="M96 1206h-166l181 295h245z" />
    <glyph glyph-name="uni0302" unicode="&#x302;" 
d="M338 1501l178 -295h-190l-138 183l-217 -183h-200l295 295h272z" />
    <glyph glyph-name="tildecomb" unicode="&#x303;" 
d="M-86 1206h-154q57 260 248 260q68 0 162 -51q77 -43 121 -43q61 0 82 94h153q-57 -260 -247 -260q-59 0 -168 56q-77 38 -115 38q-61 0 -82 -94z" />
    <glyph glyph-name="uni0304" unicode="&#x304;" 
d="M436 1206h-620l34 156h621z" />
    <glyph glyph-name="uni0306" unicode="&#x306;" 
d="M166 1196q-144 0 -224 83t-65 222h164q-4 -73 34 -116q37 -42 107 -42q137 0 187 158h166q-34 -146 -134 -226q-98 -79 -235 -79z" />
    <glyph glyph-name="uni0307" unicode="&#x307;" 
d="M229 1206h-211l45 219h211z" />
    <glyph glyph-name="uni0308" unicode="&#x308;" 
d="M37 1206h-209l47 219h209zM414 1206h-211l47 219h209z" />
    <glyph glyph-name="uni030A" unicode="&#x30a;" 
d="M205 1196q-117 0 -197 75t-80 189q0 113 80 188q78 74 197 74q115 0 194 -73q80 -77 80 -189q0 -114 -80 -188q-77 -76 -194 -76zM205 1331q54 0 91 37q38 38 38 92q0 55 -37 91q-38 36 -92 36q-55 0 -93 -36t-38 -91q0 -54 38 -92q37 -37 93 -37z" />
    <glyph glyph-name="uni030B" unicode="&#x30b;" 
d="M-88 1206h-166l176 295h250zM281 1206h-166l176 295h250z" />
    <glyph glyph-name="uni030C" unicode="&#x30c;" 
d="M162 1317l217 182h201l-293 -295h-275l-178 295h191z" />
    <glyph glyph-name="uni0312" unicode="&#x312;" 
d="M274 1505l-28 -2q-80 -6 -92 -73l-9 -37h107l-39 -187h-221l47 219q33 162 223 172l33 2z" />
    <glyph glyph-name="uni0313" unicode="&#x313;" 
d="M35 1407l41 186h219l-47 -219q-16 -84 -70 -125q-53 -41 -151 -47h-35l20 92l29 2q80 6 92 74l8 37h-106z" />
    <glyph glyph-name="dotbelowcomb" unicode="&#x323;" 
d="M-106 -369h-211l45 219h211z" />
    <glyph glyph-name="uni0324" unicode="&#x324;" 
d="M-297 -369h-209l47 219h209zM80 -369h-211l47 219h209z" />
    <glyph glyph-name="uni0325" unicode="&#x325;" 
d="M2 -596q-80 -74 -197 -74q-115 0 -194 74q-78 74 -78 186q0 114 78 187q77 73 194 73q118 0 197 -73q78 -73 78 -187q0 -112 -78 -186zM-287 -502q38 -35 92 -35q55 0 93 35q39 38 39 92q0 56 -39 91q-36 36 -93 36q-56 0 -92 -36q-37 -34 -37 -91q0 -55 37 -92z" />
    <glyph glyph-name="uni0326" unicode="&#x326;" 
d="M-322 -274l39 186h222l-48 -219q-33 -162 -223 -172l-33 -2l19 94l29 2q82 6 94 72l8 39h-107z" />
    <glyph glyph-name="uni0327" unicode="&#x327;" 
d="M-158 -88h13q89 0 135 -55t30 -133q-41 -170 -309 -170q-87 0 -147 12l22 100q54 -8 127 -8q119 0 135 84q6 39 -19 63q-27 25 -81 25q-31 0 -55 -2l16 78l105 104h135z" />
    <glyph glyph-name="uni0328" unicode="&#x328;" 
d="M-170 -426q-103 0 -165 59t-44 148q15 69 80 126q67 59 170 93h184q-228 -100 -250 -190q-11 -41 16 -66t68 -25q56 0 111 19l-31 -144q-53 -20 -139 -20z" />
    <glyph glyph-name="uni032E" unicode="&#x32e;" 
d="M-184 -455q-145 0 -225 83q-79 82 -64 222h164q-4 -72 34 -115q38 -42 107 -42q137 0 186 157h166q-34 -147 -133 -226q-98 -79 -235 -79z" />
    <glyph glyph-name="uni0331" unicode="&#x331;" 
d="M115 -305h-621l35 155h621z" />
    <glyph glyph-name="uni0335" unicode="&#x335;" 
d="M283 487h-611l31 146h610z" />
    <glyph glyph-name="uni0337" unicode="&#x337;" 
d="M434 1044l-987 -1132l-106 94l987 1133z" />
    <glyph glyph-name="uni0338" unicode="&#x338;" 
d="M629 1430l-1366 -1541l-117 105l1366 1540z" />
    <glyph glyph-name="uni0394" unicode="&#x394;" horiz-adv-x="1361" 
d="M459 1458h250l510 -1268v-190h-1260v190zM584 1247q-132 -365 -226 -598l-174 -454h803l-176 454q-109 274 -227 598z" />
    <glyph glyph-name="uni03A9" unicode="&#x3a9;" horiz-adv-x="1574" 
d="M664 0h-621v193h334v4q-153 102 -236 260q-82 157 -82 344q0 317 195 502q191 184 512 184q320 0 510 -184t190 -502q0 -189 -81 -345q-82 -158 -232 -259v-4h334v-193h-619v172q187 97 282 253q95 157 95 357q0 250 -126 381t-351 131q-226 0 -357 -132
q-130 -131 -130 -380q0 -198 98 -355q99 -159 285 -255v-172z" />
    <glyph glyph-name="uni03BC" unicode="&#x3bc;" horiz-adv-x="1353" 
d="M922 461v596h206v-1057h-198v156q-119 -181 -328 -181q-97 0 -170 52v-428h-205v1458h207v-680q0 -221 221 -221q113 0 190 81q77 82 77 224z" />
    <glyph glyph-name="pi" unicode="&#x3c0;" horiz-adv-x="1400" 
d="M1262 1057v-168h-170v-641q0 -46 16 -65t59 -19h72v-164q-61 -6 -113 -6q-126 0 -182 55q-57 56 -57 182v658h-371v-889h-205v889h-170v168h1121z" />
    <glyph glyph-name="d.sups" unicode="&#x1d48;" horiz-adv-x="1052" 
d="M932 1315l104 489h195l-270 -1267h-187l27 122q-118 -143 -295 -143q-198 0 -297 141q-98 138 -45 390q44 197 170 313q128 117 313 117q209 0 285 -162zM375 768q52 -90 172 -90q119 0 203 84q83 83 116 231q33 151 -25 236q-59 86 -184 86q-115 0 -191 -78
q-78 -80 -108 -219q-37 -157 17 -250z" />
    <glyph glyph-name="t.sups" unicode="&#x1d57;" horiz-adv-x="628" 
d="M745 1305h-184l-106 -498q-12 -60 6 -87q19 -28 76 -28h79l-34 -151q-59 -9 -109 -9q-138 0 -190 70q-51 69 -21 217l105 486h-148l33 153h147l56 264h194l-55 -264h184z" />
    <glyph glyph-name="Wgrave" unicode="&#x1e80;" horiz-adv-x="1978" 
d="M1157 1841l117 -295h-164l-199 295h246zM1602 797l317 661h231l-718 -1458h-246l-41 682q-9 263 -17 508q-76 -171 -235 -508l-332 -682h-244l-100 1458h223l39 -661q14 -315 19 -543q102 233 250 547l315 657h233l37 -657q14 -242 19 -543q132 294 250 539z" />
    <glyph glyph-name="wgrave" unicode="&#x1e81;" horiz-adv-x="1636" 
d="M965 1501l55 -295h-164l-137 295h246zM1274 616l229 441h230l-576 -1057h-217l-45 465q-19 154 -29 348q-90 -190 -170 -348l-243 -465h-215l-125 1057h211l43 -441q15 -204 17 -233q8 -113 11 -145q98 201 189 378l227 441h205l39 -441q15 -162 28 -385q63 139 191 385z
" />
    <glyph glyph-name="Wacute" unicode="&#x1e82;" horiz-adv-x="1978" 
d="M1315 1841h264l-307 -295h-189zM1602 797l317 661h231l-718 -1458h-246l-41 682q-9 263 -17 508q-76 -171 -235 -508l-332 -682h-244l-100 1458h223l39 -661q14 -315 19 -543q102 233 250 547l315 657h233l37 -657q14 -242 19 -543q132 294 250 539z" />
    <glyph glyph-name="wacute" unicode="&#x1e83;" horiz-adv-x="1636" 
d="M1028 1501h246l-260 -295h-166zM1274 616l229 441h230l-576 -1057h-217l-45 465q-19 154 -29 348q-90 -190 -170 -348l-243 -465h-215l-125 1057h211l43 -441q15 -204 17 -233q8 -113 11 -145q98 201 189 378l227 441h205l39 -441q15 -162 28 -385q63 139 191 385z" />
    <glyph glyph-name="Wdieresis" unicode="&#x1e84;" horiz-adv-x="1978" 
d="M958 1765h209l-47 -219h-209zM1333 1765h209l-47 -219h-209zM1602 797l317 661h231l-718 -1458h-246l-41 682q-9 263 -17 508q-76 -171 -235 -508l-332 -682h-244l-100 1458h223l39 -661q14 -315 19 -543q102 233 250 547l315 657h233l37 -657q14 -242 19 -543
q132 294 250 539z" />
    <glyph glyph-name="wdieresis" unicode="&#x1e85;" horiz-adv-x="1636" 
d="M688 1425h209l-47 -219h-209zM1063 1425h209l-45 -219h-211zM1274 616l229 441h230l-576 -1057h-217l-45 465q-19 154 -29 348q-90 -190 -170 -348l-243 -465h-215l-125 1057h211l43 -441q15 -204 17 -233q8 -113 11 -145q98 201 189 378l227 441h205l39 -441
q15 -162 28 -385q63 139 191 385z" />
    <glyph glyph-name="uni1E9E" unicode="&#x1e9e;" horiz-adv-x="1378" 
d="M1450 1440l-33 -162l-469 -430q203 -27 299 -152t53 -315q-44 -193 -200 -296q-157 -103 -410 -103q-161 0 -284 26l38 187q127 -25 258 -25q160 0 257 62q100 63 122 174q24 132 -51 203q-78 73 -239 73q-66 0 -132 -6l37 170l484 438q-127 16 -279 16q-224 0 -342 -95
q-117 -95 -158 -287l-194 -918h-219l194 913q61 282 254 429q192 147 506 147q257 0 508 -49z" />
    <glyph glyph-name="Ygrave" unicode="&#x1ef2;" horiz-adv-x="1370" 
d="M854 1841l117 -295h-164l-199 295h246zM1038 1153l252 305h254l-737 -876l-123 -582h-219l123 582l-369 876h238l127 -307q61 -151 143 -381q262 324 311 383z" />
    <glyph glyph-name="ygrave" unicode="&#x1ef3;" horiz-adv-x="1019" 
d="M670 1501l55 -295h-164l-137 295h246zM700 694l201 363h223l-682 -1186q-90 -152 -176 -213q-89 -59 -250 -59q-43 0 -127 4l35 168h103q140 0 209 125l43 75l-158 1086h219l45 -393q30 -288 49 -478q112 226 266 508z" />
    <glyph glyph-name="thinspace" unicode="&#x2009;" horiz-adv-x="434" 
 />
    <glyph glyph-name="uni2011" unicode="&#x2011;" horiz-adv-x="751" 
d="M666 487h-600l38 179h601z" />
    <glyph glyph-name="endash" unicode="&#x2013;" horiz-adv-x="1083" 
d="M1006 487h-932l37 179h929z" />
    <glyph glyph-name="emdash" unicode="&#x2014;" horiz-adv-x="1978" 
d="M1913 487h-1827l43 179h1827z" />
    <glyph glyph-name="quoteleft" unicode="&#x2018;" horiz-adv-x="409" 
d="M522 1460l-24 -123q-58 -6 -89 -37q-29 -29 -44 -104l-7 -29h105l-51 -233h-238l55 252q30 140 97 203q65 60 196 71z" />
    <glyph glyph-name="quoteright" unicode="&#x2019;" horiz-adv-x="409" 
d="M238 1225l49 233h237l-53 -252q-33 -140 -99 -202q-67 -63 -196 -70l25 123q61 6 90 36q28 29 43 103l6 29h-102z" />
    <glyph glyph-name="quotesinglbase" unicode="&#x201a;" horiz-adv-x="409" 
d="M-23 0l52 233h237l-55 -251q-30 -140 -97 -203t-196 -70l25 123q61 6 90 36q28 29 43 103l6 29h-105z" />
    <glyph glyph-name="quotedblleft" unicode="&#x201c;" horiz-adv-x="731" 
d="M336 1196l-6 -29h102l-49 -233h-238l54 250q30 140 96 202q66 61 197 72l-23 -123q-62 -6 -89 -36q-28 -31 -44 -103zM815 1458l-24 -123q-63 -6 -91 -36q-28 -29 -43 -103l-6 -29h105l-51 -233h-238l53 250q33 142 98 202q66 61 197 72z" />
    <glyph glyph-name="quotedblright" unicode="&#x201d;" horiz-adv-x="731" 
d="M238 1225l49 233h237l-53 -252q-33 -140 -99 -202q-67 -63 -196 -70l25 123q61 6 90 36q28 29 43 103l6 29h-102zM559 1225l49 233h238l-53 -252q-29 -138 -98 -202q-67 -63 -195 -70l22 123q62 6 90 36q28 29 43 103l7 29h-103z" />
    <glyph glyph-name="quotedblbase" unicode="&#x201e;" horiz-adv-x="731" 
d="M-23 0l50 233h237l-53 -251q-30 -140 -97 -203t-196 -70l23 123q61 6 90 36q28 29 43 103l6 29h-103zM299 0l51 233h236l-54 -251q-30 -140 -97 -203t-195 -70l24 123q62 6 90 36q28 29 43 103l6 29h-104z" />
    <glyph glyph-name="dagger" unicode="&#x2020;" horiz-adv-x="1189" 
d="M817 1057h449l-43 -193h-447l-246 -1163h-223l246 1163h-447l44 193h444l86 401h223z" />
    <glyph glyph-name="daggerdbl" unicode="&#x2021;" horiz-adv-x="1189" 
d="M1268 1057l-43 -193h-447l-119 -569h447l-43 -193h-445l-86 -401h-223l86 401h-448l43 193h446l119 569h-444l41 193h444l86 401h223l-86 -401h449z" />
    <glyph glyph-name="bullet" unicode="&#x2022;" horiz-adv-x="684" 
d="M522 373h-428l90 422h430z" />
    <glyph glyph-name="ellipsis" unicode="&#x2026;" horiz-adv-x="1386" 
d="M221 0h-248l54 244h247zM713 0h-248l53 244h248zM1188 0h-248l51 244h250z" />
    <glyph glyph-name="perthousand" unicode="&#x2030;" horiz-adv-x="2613" 
d="M436 596q-141 0 -219 81t-78 234q0 69 19 166q90 400 401 400q143 0 220 -80t77 -232q0 -71 -18 -161q-86 -408 -402 -408zM506 0h-180l1089 1458h180zM451 735q162 0 219 279q16 80 16 143q0 180 -141 180q-85 0 -137 -68q-53 -70 -86 -214q-17 -94 -17 -137
q0 -183 146 -183zM1358 -16q-141 0 -219 81t-78 234q0 74 18 166q84 399 402 399q141 0 219 -80t78 -231q0 -69 -19 -162q-85 -407 -401 -407zM2138 -16q-141 0 -219 81t-78 234q0 69 19 166q90 399 401 399q143 0 220 -80t77 -231q0 -73 -18 -162q-85 -407 -402 -407z
M1370 123q85 0 137 67q55 70 84 211q17 85 17 144q0 180 -142 180q-86 0 -139 -69q-55 -72 -84 -214q-16 -89 -16 -137q0 -182 143 -182zM2152 123q165 0 222 278q16 80 16 144q0 180 -143 180q-85 0 -138 -69q-55 -72 -84 -214q-18 -79 -18 -137q0 -182 145 -182z" />
    <glyph glyph-name="guilsinglleft" unicode="&#x2039;" horiz-adv-x="602" 
d="M152 643l407 285l-47 -228l-256 -178l180 -178l-45 -211l-289 285z" />
    <glyph glyph-name="guilsinglright" unicode="&#x203a;" horiz-adv-x="602" 
d="M166 717l45 211l289 -285l-49 -225l-408 -285l47 227l256 179z" />
    <glyph glyph-name="uni203D" unicode="&#x203d;" horiz-adv-x="1060" 
d="M725 1491q226 0 338 -109q111 -108 68 -309q-34 -160 -259 -311q-169 -118 -213 -182q-33 -40 -63 -170h-201l107 540l65 209h172l-26 -209l-29 -106q3 3 6 4l4 4q107 69 153 118q50 53 66 115q23 108 -29 164q-53 58 -177 58q-138 0 -221 -71q-84 -72 -124 -228h-208
q52 248 194 366q141 117 377 117zM530 0h-247l53 244h248z" />
    <glyph glyph-name="fraction" unicode="&#x2044;" horiz-adv-x="620" 
d="M-104 0h-175l1090 1458h174z" />
    <glyph glyph-name="zero.sups" unicode="&#x2070;" horiz-adv-x="780" 
d="M537 1065q-175 0 -252 125t-27 356q90 400 401 400q175 0 252 -123q76 -123 27 -350q-86 -408 -401 -408zM551 1204q162 0 219 279q72 323 -125 323q-85 0 -137 -68q-53 -70 -86 -214q-35 -158 0 -239q34 -81 129 -81z" />
    <glyph glyph-name="four.sups" unicode="&#x2074;" horiz-adv-x="772" 
d="M819 1421h119l-31 -143h-119l-40 -197h-175l43 197h-415l35 166l516 483h176zM719 1741l-340 -320h274z" />
    <glyph glyph-name="five.sups" unicode="&#x2075;" horiz-adv-x="724" 
d="M516 1065q-136 0 -221 68q-84 67 -84 180l160 4q0 -54 44 -89q43 -34 111 -34q148 0 183 158q18 78 -21 126t-115 48q-108 0 -165 -88h-160l192 489h510l-30 -137h-383l-84 -203q60 60 168 60q130 0 199 -87q68 -86 38 -231q-28 -122 -119 -193t-223 -71z" />
    <glyph glyph-name="six.sups" unicode="&#x2076;" horiz-adv-x="749" 
d="M627 1651q138 0 208 -88q71 -89 42 -228q-24 -122 -116 -196t-222 -74q-140 0 -230 90q-103 103 -51 393q82 396 410 396q124 0 200 -63t76 -167h-158q-11 103 -135 103q-172 0 -235 -234l-6 -27q89 95 217 95zM721 1348q15 77 -22 126q-36 48 -109 48q-72 0 -126 -39
q-55 -40 -67 -92q-21 -90 22 -144q42 -53 130 -53q67 0 114 42q46 41 58 112z" />
    <glyph glyph-name="seven.sups" unicode="&#x2077;" horiz-adv-x="659" 
d="M449 1081h-183q50 210 167 396q117 187 278 313h-426l28 137h592l-28 -139q-173 -136 -273 -303q-99 -163 -155 -404z" />
    <glyph glyph-name="eight.sups" unicode="&#x2078;" horiz-adv-x="749" 
d="M520 1065q-159 0 -244 76t-61 207q12 65 65 115q55 52 134 69q-46 27 -68 81q-22 53 -10 120q21 100 104 155q85 56 209 56q140 0 216 -74q74 -73 50 -191q-12 -52 -51 -92t-92 -57q137 -68 100 -240q-21 -100 -116 -162q-96 -63 -236 -63zM608 1577q64 0 109 30
q44 30 55 83q15 61 -22 97q-38 36 -109 36q-65 0 -109 -29q-42 -28 -53 -78q-15 -60 22 -100q36 -39 107 -39zM530 1192q162 0 189 127q17 73 -24 114q-40 40 -126 40q-167 0 -194 -132q-15 -71 27 -110t128 -39z" />
    <glyph glyph-name="nine.sups" unicode="&#x2079;" horiz-adv-x="749" 
d="M496 1065q-126 0 -201 62q-76 63 -76 167h160q11 -102 135 -102q86 0 141 55q56 56 95 178q4 19 4 25q-88 -94 -217 -94q-135 0 -206 89t-42 228q24 124 115 197q92 74 223 74q138 0 229 -91q104 -103 51 -393q-39 -192 -143 -293q-105 -102 -268 -102zM575 1487
q72 0 126 39q55 40 67 92q21 90 -21 143q-43 54 -131 54q-66 0 -113 -42q-46 -41 -61 -112q-15 -76 24 -126q38 -48 109 -48z" />
    <glyph glyph-name="plus.sups" unicode="&#x207a;" horiz-adv-x="618" 
d="M575 1571h197v-137h-197v-197h-149v197h-195v137h195v198h149v-198z" />
    <glyph glyph-name="minus.sups" unicode="&#x207b;" horiz-adv-x="618" 
d="M770 1434h-539v137h539v-137z" />
    <glyph glyph-name="parenleft.sups" unicode="&#x207d;" horiz-adv-x="337" 
d="M424 922h-158q-63 270 2 581q39 175 94 309q56 134 154 277h158q-179 -271 -248 -586q-59 -293 -2 -581z" />
    <glyph glyph-name="parenright.sups" unicode="&#x207e;" horiz-adv-x="337" 
d="M236 922h-160q181 270 248 585q62 284 2 582h159q62 -274 -4 -582q-38 -175 -92 -307q-51 -126 -153 -278z" />
    <glyph glyph-name="n.sups" unicode="&#x207f;" horiz-adv-x="956" 
d="M741 1477q157 0 230 -103q71 -101 30 -289l-116 -548h-195l117 553q49 219 -152 219q-94 0 -163 -60q-72 -62 -101 -174l-112 -538h-193l195 919h186l-27 -125q128 146 301 146z" />
    <glyph glyph-name="zero.subs" unicode="&#x2080;" horiz-adv-x="780" 
d="M221 -418q-175 0 -252 125q-76 123 -26 356q90 400 401 400q176 0 252 -123t27 -350q-85 -408 -402 -408zM236 -279q162 0 219 279q72 324 -125 324q-84 0 -137 -69q-55 -72 -87 -214q-35 -158 0 -239t130 -81z" />
    <glyph glyph-name="one.subs" unicode="&#x2081;" horiz-adv-x="499" 
d="M225 444h144l-181 -845h-174l123 587h-198l26 121q96 0 155 30t105 107z" />
    <glyph glyph-name="two.subs" unicode="&#x2082;" horiz-adv-x="694" 
d="M467 -401h-637l14 61q57 246 342 360l66 27q157 63 174 148q12 61 -22 94t-103 33q-155 0 -176 -144h-160q51 283 350 283q153 0 225 -76q73 -77 46 -201q-34 -161 -291 -262l-64 -24q-85 -34 -129 -72q-43 -37 -61 -90h457z" />
    <glyph glyph-name="three.subs" unicode="&#x2083;" horiz-adv-x="724" 
d="M193 -418q-157 0 -240 82q-84 82 -66 217h154q-10 -76 32 -121t128 -45q154 0 178 117q35 152 -139 152h-56l25 114h59q152 0 176 103q15 62 -22 96q-38 35 -107 35q-138 0 -172 -127h-157q55 256 338 256q145 0 223 -72t51 -192q-11 -52 -54 -98q-42 -45 -104 -62
q59 -24 87 -82t10 -139q-24 -106 -115 -170t-229 -64z" />
    <glyph glyph-name="four.subs" unicode="&#x2084;" horiz-adv-x="772" 
d="M504 -61h119l-31 -144h-119l-41 -196h-174l43 196h-416l35 166l516 483h176zM403 258l-340 -319h275z" />
    <glyph glyph-name="five.subs" unicode="&#x2085;" horiz-adv-x="724" 
d="M201 -418q-136 0 -221 68q-84 68 -84 180l159 4q0 -54 44 -89q43 -34 112 -34q147 0 182 158q18 79 -20 126q-39 48 -115 48q-109 0 -166 -88h-160l193 489h510l-31 -137h-383l-84 -203q60 60 168 60q131 0 200 -87q68 -86 38 -231q-28 -122 -119 -193t-223 -71z" />
    <glyph glyph-name="six.subs" unicode="&#x2086;" horiz-adv-x="749" 
d="M313 168q136 0 206 -88t42 -227q-24 -123 -116 -197t-222 -74q-139 0 -229 90q-104 104 -51 394q39 191 143 292q106 103 268 103q124 0 201 -63q76 -63 76 -167h-160q-11 103 -135 103q-170 0 -236 -234l-6 -28q90 96 219 96zM408 -135q15 76 -24 126q-38 48 -110 48
t-126 -39t-66 -92q-21 -91 21 -144t130 -53q67 0 114 42q46 41 61 112z" />
    <glyph glyph-name="seven.subs" unicode="&#x2087;" horiz-adv-x="659" 
d="M133 -401h-182q50 208 167 395q118 189 277 313h-426l29 137h592l-29 -139q-171 -135 -272 -303q-101 -167 -156 -403z" />
    <glyph glyph-name="eight.subs" unicode="&#x2088;" horiz-adv-x="749" 
d="M205 -418q-159 0 -244 76t-61 207q12 67 64 116q53 50 134 68q-44 27 -67 81q-23 55 -11 120q21 100 105 156q83 55 209 55q140 0 216 -74q74 -73 50 -190q-12 -53 -51 -93t-92 -57q137 -68 100 -240q-21 -98 -117 -161q-98 -64 -235 -64zM293 94q63 0 108 30t56 83
q15 61 -23 97t-108 36q-65 0 -109 -29q-42 -28 -53 -78q-15 -61 21 -100t108 -39zM215 -291q161 0 188 127q17 74 -23 114t-126 40q-168 0 -195 -131q-15 -71 28 -111q42 -39 128 -39z" />
    <glyph glyph-name="nine.subs" unicode="&#x2089;" horiz-adv-x="749" 
d="M180 -418q-123 0 -200 63q-76 63 -76 167h159q11 -103 136 -103q86 0 141 55t94 179q4 19 4 24q-88 -94 -217 -94q-135 0 -206 89q-71 88 -42 228q24 123 116 197t222 74q140 0 230 -90q104 -104 51 -394q-39 -191 -143 -292q-106 -103 -269 -103zM260 4q72 0 126 39
q55 40 67 92q21 90 -22 144q-42 53 -130 53q-67 0 -114 -42q-44 -40 -60 -112q-15 -76 24 -126q37 -48 109 -48z" />
    <glyph glyph-name="plus.subs" unicode="&#x208a;" horiz-adv-x="618" 
d="M276 88h197v-137h-197v-197h-149v197h-195v137h195v199h149v-199z" />
    <glyph glyph-name="minus.subs" unicode="&#x208b;" horiz-adv-x="618" 
d="M473 -49h-541v137h541v-137z" />
    <glyph glyph-name="equal.subs" unicode="&#x208c;" horiz-adv-x="618" 
d="M471 74h-541v129h541v-129zM471 -162h-541v129h541v-129z" />
    <glyph glyph-name="uni208D" unicode="&#x208d;" horiz-adv-x="337" 
d="M111 -563h-160q-62 274 4 581q40 177 94 310q50 123 152 276h159q-174 -264 -247 -586q-62 -283 -2 -581z" />
    <glyph glyph-name="uni208E" unicode="&#x208e;" horiz-adv-x="337" 
d="M-80 -563h-158q179 271 248 586q59 294 2 581h158q63 -270 -2 -581q-40 -177 -94 -310q-56 -131 -154 -276z" />
    <glyph glyph-name="n.subs" unicode="&#x2099;" horiz-adv-x="956" 
d="M543 539q156 0 229 -103q72 -102 31 -289l-117 -548h-194l116 553q50 219 -151 219q-95 0 -164 -60q-70 -61 -100 -174l-113 -538h-193l195 919h186l-26 -125q128 146 301 146z" />
    <glyph glyph-name="Euro" unicode="&#x20ac;" horiz-adv-x="1431" 
d="M750 160q311 0 440 338h213q-185 -531 -676 -531q-245 0 -387 148t-143 411h-181l33 144h158q6 49 18 110q3 11 7 25.5t4 17.5h-154l31 144h168q95 244 274 384t416 140q243 0 377 -126q132 -125 149 -364h-217q-27 297 -334 297q-141 0 -254 -86t-182 -245h428l-31 -144
h-446l-12 -55q-14 -59 -19 -98h444l-32 -144h-422q0 -366 330 -366z" />
    <glyph glyph-name="uni20B8" unicode="&#x20b8;" horiz-adv-x="1263" 
d="M195 1262l41 196h1189l-43 -196h-1187zM594 872h-483l43 197h1187l-41 -197h-483l-186 -872h-223z" />
    <glyph glyph-name="uni20B9" unicode="&#x20b9;" horiz-adv-x="1280" 
d="M1384 1458l-30 -141h-277q78 -84 84 -207h150l-29 -141h-139q-45 -166 -190 -258q-146 -93 -357 -93h-178l524 -618h-283l-538 639l8 39l25 110h440q258 0 321 181h-722l28 141h717q-15 180 -270 180h-408l35 168h1089z" />
    <glyph glyph-name="uni20BA" unicode="&#x20ba;" horiz-adv-x="1193" 
d="M928 762h227q-77 -367 -315 -563q-241 -199 -627 -199h-219l139 647l-151 -61l30 147l152 62l33 151l-152 -61l33 147l149 62l78 364h219l-57 -264l424 174l-31 -147l-424 -174l-33 -152l424 174l-32 -147l-422 -174l-119 -551q273 0 444 146q173 148 230 419z" />
    <glyph glyph-name="uni20BC" unicode="&#x20bc;" horiz-adv-x="1486" 
d="M1044 1458l-77 -366q245 -4 358 -149q113 -144 57 -408l-114 -535h-224l127 557q78 338 -245 348l-152 -715h-213l152 715h-13q-159 0 -243 -68q-88 -71 -117 -212l-131 -625h-215l135 635q51 227 196 342t404 115h25l77 366h213z" />
    <glyph glyph-name="uni20BF" unicode="&#x20bf;" horiz-adv-x="1318" 
d="M1325 1036q-44 -192 -262 -282q234 -108 178 -385q-37 -162 -162 -258q-126 -97 -325 -109l-52 -240h-151l49 238h-149l-50 -238h-151l49 238h-283l310 1458h282l51 238h152l-51 -238h151l50 238h151l-53 -252q158 -34 230 -144q71 -108 36 -264zM1110 1049
q22 104 -36 162q-59 59 -193 59h-377l-90 -434h391q127 0 205 56q79 57 100 157zM1028 406q27 119 -41 182q-67 63 -207 63h-407l-97 -463h445q124 0 205 58q79 57 102 160z" />
    <glyph glyph-name="uni2105" unicode="&#x2105;" horiz-adv-x="2033" 
d="M502 596q-192 0 -293 131q-100 128 -53 348q44 186 167 294q125 110 308 110q155 0 250 -91q96 -92 96 -239h-174q-4 81 -57 131q-52 49 -136 49q-108 0 -179 -75q-70 -75 -97 -203q-30 -147 18 -225q49 -78 166 -78q182 0 248 190h172q-108 -342 -436 -342zM627 0h-181
l1090 1458h180zM1481 -18q-199 0 -301 129q-105 129 -58 348q41 181 168 293q124 112 314 112q196 0 301 -131q105 -130 55 -352q-39 -184 -166 -291q-128 -108 -313 -108zM1495 135q106 0 184 73q75 71 103 198q30 140 -25 222q-56 83 -172 83q-107 0 -182 -73
q-74 -72 -98 -198q-30 -141 22 -223t168 -82z" />
    <glyph glyph-name="uni2113" unicode="&#x2113;" horiz-adv-x="903" 
d="M555 145q100 0 172 60l57 -144q-107 -84 -260 -84q-137 0 -215 80q-78 79 -78 213v148q-77 -14 -137 -19l-22 150q85 6 159 26v551q0 175 83 270t241 95q291 0 291 -350q0 -224 -106 -397q-105 -171 -304 -263v-200q0 -61 33 -99q33 -37 86 -37zM436 1130v-466
q234 156 234 471q0 186 -111 186q-123 0 -123 -191z" />
    <glyph glyph-name="uni2116" unicode="&#x2116;" horiz-adv-x="2279" 
d="M2023 1479q141 0 227 -81q85 -81 85 -222q0 -181 -121 -330q-118 -150 -320 -150q-144 0 -229 81q-86 81 -86 222q0 260 203 404q101 76 241 76zM1176 1016l94 442h213l-312 -1458h-245l-299 707q-128 304 -189 481q-74 -381 -151 -746l-94 -442h-213l311 1458h246
l301 -706q130 -312 186 -486q38 194 152 750zM1919 864q111 0 172 88q59 88 59 197q0 78 -40 121t-109 43q-112 0 -174 -86q-64 -90 -64 -199q0 -79 41 -122q40 -42 115 -42z" />
    <glyph glyph-name="uni2117" unicode="&#x2117;" horiz-adv-x="1671" 
d="M328 1272q218 221 549 221q329 0 550 -221q220 -225 220 -543q0 -321 -220 -541q-221 -221 -550 -221q-331 0 -549 221q-222 219 -222 541q0 321 222 543zM877 119q263 0 436 176q170 176 170 434q0 260 -170 436q-173 174 -436 174t-435 -174q-172 -173 -172 -436
q0 -259 172 -434q173 -176 435 -176zM600 1153h350q143 0 225 -76t82 -203q0 -126 -82 -201q-83 -75 -225 -75h-188v-293h-162v848zM762 743h186q69 0 109 35q39 34 39 96q0 132 -148 132h-186v-263z" />
    <glyph glyph-name="trademark" unicode="&#x2122;" horiz-adv-x="1316" 
d="M403 1364h-163v94h430v-94h-164v-428h-103v428zM1038 1194l101 264h127v-522h-101v168q0 114 2 168q-6 -16 -12 -37l-113 -299h-84l-112 299l-15 37q3 -81 3 -168v-168h-101v522h129l103 -272l36 -103q17 57 37 111z" />
    <glyph glyph-name="uni2126" unicode="&#x2126;" horiz-adv-x="1574" 
d="M664 0h-621v193h334v4q-153 102 -236 260q-82 157 -82 344q0 317 195 502q191 184 512 184q320 0 510 -184t190 -502q0 -189 -81 -345q-82 -158 -232 -259v-4h334v-193h-619v172q187 97 282 253q95 157 95 357q0 250 -126 381t-351 131q-226 0 -357 -132
q-130 -131 -130 -380q0 -198 98 -355q99 -159 285 -255v-172z" />
    <glyph glyph-name="estimated" unicode="&#x212e;" horiz-adv-x="1865" 
d="M330 1276q224 215 604 215q379 0 604 -225q223 -224 223 -557h-1323q-28 0 -28 -27v-360q0 -68 32 -97q200 -196 492 -196q153 0 290 64t226 171h149q-89 -126 -263 -209q-171 -82 -402 -82q-373 0 -602 213q-230 212 -230 543q0 328 228 547zM934 1434q-291 0 -492 -201
q-32 -29 -32 -90v-361q0 -26 28 -26h985q29 0 29 26v361q0 60 -33 90q-205 201 -485 201z" />
    <glyph glyph-name="uni2153" unicode="&#x2153;" horiz-adv-x="1599" 
d="M287 0h-174l1089 1458h174zM401 612h-172l125 590h-198l24 119q96 0 156 30q59 30 104 107h142zM1153 -16q-157 0 -240 82t-65 217h153q-10 -76 32 -121t130 -45q152 0 176 116q35 152 -139 152h-55l24 115h60q152 0 176 102q15 61 -23 96t-106 35q-138 0 -172 -127h-158
q55 256 338 256q149 0 224 -71q78 -73 51 -193q-10 -49 -55 -97q-44 -47 -103 -63q59 -24 87 -82q27 -57 9 -139q-24 -106 -115 -170q-90 -63 -229 -63z" />
    <glyph glyph-name="uni2154" unicode="&#x2154;" horiz-adv-x="1875" 
d="M682 612h-637l14 62q57 246 342 360l66 27q157 63 174 147q12 63 -21 95t-104 32q-155 0 -176 -143h-160q53 283 350 283q153 0 225 -76q73 -77 46 -201q-34 -161 -291 -262l-64 -25q-88 -35 -129 -71q-43 -37 -61 -90h457zM575 0h-176l1090 1458h176zM1430 -16
q-156 0 -241 82t-67 217h154q-8 -77 34 -121q42 -45 128 -45q151 0 178 116q17 74 -21 113q-37 39 -120 39h-56l27 115h57q149 0 178 102q15 62 -22 96q-38 35 -107 35q-138 0 -172 -127h-157q55 256 336 256q149 0 224 -71q76 -72 52 -193q-12 -51 -55 -97
q-44 -47 -105 -63q62 -24 89 -82q28 -58 10 -139q-24 -106 -115 -170q-90 -63 -229 -63z" />
    <glyph glyph-name="uni2155" unicode="&#x2155;" horiz-adv-x="1581" 
d="M274 0h-176l1090 1458h176zM401 612h-172l125 590h-198l24 119q96 0 156 30q59 30 104 107h142zM1143 -16q-136 0 -219 67q-85 68 -86 180l159 5q1 -56 45 -90q42 -33 111 -33q148 0 182 157q18 79 -20 126q-39 48 -115 48q-109 0 -166 -88h-160l193 490h510l-31 -137
h-383l-84 -203q65 59 168 59q131 0 200 -87q68 -86 38 -230q-29 -123 -119 -194q-89 -70 -223 -70z" />
    <glyph glyph-name="uni2156" unicode="&#x2156;" horiz-adv-x="1847" 
d="M682 612h-637l14 62q57 246 342 360l66 27q157 63 174 147q12 63 -21 95t-104 32q-155 0 -176 -143h-160q53 283 350 283q153 0 225 -76q73 -77 46 -201q-34 -161 -291 -262l-64 -25q-88 -35 -129 -71q-43 -37 -61 -90h457zM539 0h-177l1090 1458h176zM1632 55
q-89 -71 -225 -71q-137 0 -219 67q-85 68 -86 180l160 5q1 -55 46 -90q42 -33 111 -33q146 0 180 157q18 78 -19 126q-38 48 -114 48q-107 0 -168 -88h-159l192 490h510l-29 -137h-382l-84 -203q59 59 165 59q134 0 203 -87t35 -230q-29 -124 -117 -193z" />
    <glyph glyph-name="uni2157" unicode="&#x2157;" horiz-adv-x="1798" 
d="M408 596q-157 0 -240 82q-84 82 -66 217h154q-10 -76 32 -121t128 -45q154 0 178 117q34 151 -139 151h-56l25 115h59q152 0 176 102q15 63 -22 97q-38 35 -107 35q-138 0 -172 -127h-157q55 256 338 256q145 0 223 -72t51 -193q-10 -50 -54 -97q-42 -45 -104 -62
q59 -24 87 -82q28 -59 10 -140q-24 -106 -115 -170q-90 -63 -229 -63zM489 0h-174l1090 1458h174zM1583 55q-89 -71 -225 -71q-137 0 -219 67q-85 68 -86 180l159 5q1 -55 46 -90q42 -33 112 -33q146 0 180 157q18 78 -19 126t-114 48q-107 0 -168 -88h-159l192 490h510
l-29 -137h-383l-84 -203q59 59 166 59q134 0 203 -87t35 -230q-29 -124 -117 -193z" />
    <glyph glyph-name="uni2158" unicode="&#x2158;" horiz-adv-x="1837" 
d="M647 612h-174l43 197h-416l35 166l516 483h176l-108 -506h119l-31 -143h-119zM362 0l1090 1458h174l-1089 -1458h-175zM618 1272l-339 -320h274zM1833 846l-31 -137h-383l-84 -203q59 59 168 59q131 0 200 -87q68 -86 38 -230q-29 -123 -119 -194q-89 -70 -223 -70
q-138 0 -221 67q-84 67 -84 180l159 5q0 -55 44 -90q42 -33 112 -33q148 0 182 157q18 79 -20 126q-39 48 -115 48q-109 0 -166 -88h-160l193 490h510z" />
    <glyph glyph-name="uni2159" unicode="&#x2159;" horiz-adv-x="1570" 
d="M100 0l1090 1458h176l-1090 -1458h-176zM401 612h-172l125 590h-198l24 119q96 0 156 30q59 30 104 107h142zM1223 569q138 0 208 -88t42 -227q-24 -123 -116 -197q-91 -73 -222 -73q-140 0 -230 90q-103 104 -51 393q82 395 410 395q125 0 200 -62q76 -63 76 -167h-158
q-10 102 -135 102q-86 0 -141 -55t-94 -178l-6 -27q88 94 217 94zM1317 266q15 77 -23 126q-38 48 -108 48q-72 0 -126 -39q-55 -40 -67 -92q-21 -89 22 -143q42 -53 130 -53q67 0 113 42q47 43 59 111z" />
    <glyph glyph-name="uni215A" unicode="&#x215a;" horiz-adv-x="1767" 
d="M758 860q-28 -122 -119 -193t-223 -71q-136 0 -221 68q-84 68 -84 180l159 4q0 -54 44 -89q43 -34 112 -34q147 0 182 158q18 79 -20 126q-39 48 -115 48q-109 0 -166 -88h-160l193 489h510l-31 -137h-383l-84 -203q60 60 168 60q131 0 200 -87q68 -86 38 -231zM301 0
l1090 1458h176l-1090 -1458h-176zM1423 569q136 0 206 -88t42 -227q-24 -123 -116 -197q-91 -73 -222 -73q-139 0 -229 90q-96 105 -51 393q39 192 143 293q105 102 268 102q126 0 201 -62q76 -63 76 -167h-160q-11 102 -135 102q-86 0 -141 -55q-56 -56 -95 -178l-6 -29
q90 96 219 96zM1518 266q15 76 -24 126q-38 48 -110 48t-126 -39q-53 -38 -64 -92q-21 -90 21 -143t128 -53q67 0 114 42q46 41 61 111z" />
    <glyph glyph-name="oneeighth" unicode="&#x215b;" horiz-adv-x="1607" 
d="M287 0h-174l1089 1458h174zM401 612h-172l125 590h-198l24 119q96 0 156 30q59 30 104 107h142zM1149 -16q-160 0 -244 75q-85 76 -61 207q12 67 64 116q55 52 134 69q-45 27 -67 80q-23 55 -8 120q21 101 103 156t208 55q140 0 216 -74q74 -73 50 -190q-12 -52 -51 -92
t-92 -57q137 -68 100 -240q-21 -99 -117 -162t-235 -63zM1237 496q65 0 109 29q44 30 55 83q15 62 -23 98q-36 35 -108 35q-66 0 -109 -28q-42 -28 -53 -78q-15 -61 21 -100t108 -39zM1159 111q162 0 189 127q16 72 -23 113q-39 40 -127 40q-167 0 -194 -131
q-15 -71 27 -110t128 -39z" />
    <glyph glyph-name="threeeighths" unicode="&#x215c;" horiz-adv-x="1814" 
d="M408 596q-157 0 -240 82q-84 82 -66 217h154q-10 -76 32 -121t128 -45q154 0 178 117q34 151 -139 151h-56l25 115h59q152 0 176 102q15 63 -22 97q-38 35 -107 35q-138 0 -172 -127h-157q55 256 338 256q145 0 223 -72t51 -193q-10 -50 -54 -97q-42 -45 -104 -62
q59 -24 87 -82q28 -59 10 -140q-24 -106 -115 -170q-90 -63 -229 -63zM494 0h-175l1090 1458h174zM1356 -16q-160 0 -244 75q-85 76 -61 207q12 67 64 116q55 52 134 69q-45 27 -67 80q-23 55 -8 120q21 101 103 156t208 55q140 0 216 -74q74 -73 50 -190q-12 -52 -51 -92
t-92 -57q137 -68 100 -240q-21 -99 -117 -162t-235 -63zM1444 496q64 0 108 29q45 30 56 83q15 62 -23 98q-36 35 -108 35q-66 0 -109 -28q-42 -28 -53 -78q-15 -61 21 -100t108 -39zM1366 111q161 0 188 127q16 73 -23 113q-40 40 -126 40q-168 0 -195 -131
q-15 -70 28 -110q42 -39 128 -39z" />
    <glyph glyph-name="fiveeighths" unicode="&#x215d;" horiz-adv-x="1808" 
d="M416 596q-136 0 -221 68q-84 68 -84 180l159 4q0 -54 44 -89q43 -34 112 -34q147 0 182 158q18 79 -20 126q-39 48 -115 48q-109 0 -166 -88h-160l193 489h510l-31 -137h-383l-84 -203q60 60 168 60q131 0 200 -87q68 -86 38 -231q-28 -122 -119 -193t-223 -71zM487 0
h-174l1090 1458h174zM1348 -16q-159 0 -243 75q-85 76 -61 207q12 66 65 116q55 52 134 69q-45 27 -67 80q-23 55 -11 120q21 101 105 156q83 55 209 55q140 0 216 -74q75 -73 48 -190q-11 -52 -49 -92q-39 -40 -95 -57q138 -68 101 -240q-21 -100 -116 -163
q-93 -62 -236 -62zM1436 496q64 0 109 29q46 30 57 83q15 61 -24 98q-36 35 -108 35q-66 0 -109 -28q-43 -29 -54 -78q-15 -61 21 -100t108 -39zM1360 111q158 0 188 127q17 73 -23 113t-128 40q-172 0 -193 -131q-15 -68 29 -109q43 -40 127 -40z" />
    <glyph glyph-name="seveneighths" unicode="&#x215e;" horiz-adv-x="1589" 
d="M266 0h-174l1090 1458h174zM348 612h-182q50 210 167 396q118 189 277 313h-426l29 137h592l-29 -139q-171 -135 -272 -303q-100 -166 -156 -404zM1130 -16q-159 0 -243 75q-86 77 -62 207q12 66 65 116q55 52 134 69q-46 28 -68 80q-22 53 -10 120q21 101 105 156
q83 55 209 55q140 0 216 -74q74 -73 50 -190q-12 -52 -51 -92q-38 -40 -93 -57q138 -68 101 -240q-21 -99 -117 -162t-236 -63zM1219 496q65 0 108 29q44 30 55 83q15 62 -22 98q-36 35 -109 35q-65 0 -108 -28q-42 -28 -53 -78q-15 -61 21 -100t108 -39zM1141 111
q161 0 188 127q17 73 -23 113t-126 40q-168 0 -195 -131q-15 -70 28 -110q42 -39 128 -39z" />
    <glyph glyph-name="arrowleft" unicode="&#x2190;" horiz-adv-x="1957" 
d="M604 827h1161v-194h-1161q81 -101 227 -295l256 -338h-262l-551 729l551 729h262l-256 -338q-169 -222 -227 -293z" />
    <glyph glyph-name="arrowup" unicode="&#x2191;" horiz-adv-x="1957" 
d="M291 940l729 551l729 -551v-256l-338 256q-178 134 -287 221v-1161h-213v1159q-129 -105 -282 -219l-338 -256v256z" />
    <glyph glyph-name="arrowright" unicode="&#x2192;" horiz-adv-x="1957" 
d="M952 1458h262l551 -729l-551 -729h-262l256 338q131 175 228 295h-1162v194h1162q-76 94 -228 293z" />
    <glyph glyph-name="arrowdown" unicode="&#x2193;" horiz-adv-x="1957" 
d="M1411 518l338 256v-256l-729 -551l-729 551v256l338 -256q153 -114 282 -219v1159h213v-1161q109 87 287 221z" />
    <glyph glyph-name="arrowboth" unicode="&#x2194;" horiz-adv-x="1957" 
d="M1217 1458h251l531 -729l-531 -729h-251l247 336q96 136 222 299h-1332q114 -148 221 -299l248 -336h-250l-532 729l530 729h252l-248 -338q-2 -3 -51 -69q-9 -12 -29 -40t-28 -38q-63 -87 -109 -146h1323q-20 26 -217 293z" />
    <glyph glyph-name="arrowupdn" unicode="&#x2195;" horiz-adv-x="1957" 
d="M1124 1452v-1446q109 87 287 221l338 256v-256l-729 -551l-729 551v256l338 -256q153 -114 282 -219v1442q-129 -105 -282 -219l-338 -256v256l729 551l729 -551v-256l-338 256q-178 134 -287 221z" />
    <glyph glyph-name="uni2196" unicode="&#x2196;" horiz-adv-x="1957" 
d="M1692 1167h-592q-242 0 -398 4l979 -948l-143 -155l-977 948q2 -118 2 -395v-562l-207 191v1112h1151z" />
    <glyph glyph-name="uni2197" unicode="&#x2197;" horiz-adv-x="1957" 
d="M348 1167l184 195h1151v-1112l-206 -191v562q0 277 2 395l-977 -948l-144 155l979 948q-156 -4 -397 -4h-592z" />
    <glyph glyph-name="uni2198" unicode="&#x2198;" horiz-adv-x="1957" 
d="M1477 834v561l206 -193v-1110h-1151l-184 195h592q241 0 397 -4l-979 948l144 155l977 -950q-2 118 -2 398z" />
    <glyph glyph-name="uni2199" unicode="&#x2199;" horiz-adv-x="1957" 
d="M1100 266h592l-185 -194h-1151v1112l207 190v-559q0 -279 -2 -397l977 948l143 -156l-979 -946q118 2 398 2z" />
    <glyph glyph-name="partialdiff" unicode="&#x2202;" horiz-adv-x="1214" 
d="M768 1491q210 0 322 -124t112 -347q0 -305 -98 -565q-101 -265 -283 -389q-145 -99 -317 -99q-188 0 -307 111q-119 107 -119 293q0 241 166 413q167 170 397 170q117 0 203 -51t123 -139q24 146 24 250q0 297 -243 297q-89 0 -168 -58q-78 -57 -121 -161h-213
q66 188 204 293q139 106 318 106zM514 154q147 0 248 120q102 122 102 275q0 103 -57 164t-158 61q-141 0 -246 -119q-104 -117 -104 -276q0 -103 58 -164t157 -61z" />
    <glyph glyph-name="uni2206" unicode="&#x2206;" horiz-adv-x="1361" 
d="M459 1458h250l510 -1268v-190h-1260v190zM584 1247q-132 -365 -226 -598l-174 -454h803l-176 454q-109 274 -227 598z" />
    <glyph glyph-name="product" unicode="&#x220f;" horiz-adv-x="1443" 
d="M168 -401v1859h1190v-1859h-219v1663h-752v-1663h-219z" />
    <glyph glyph-name="summation" unicode="&#x2211;" horiz-adv-x="1206" 
d="M786 -207h410v-194h-1104v184l598 745l-598 746v184h1084v-194h-390q-253 0 -417 4q36 -45 95 -118q88 -110 165 -204l284 -360v-115l-284 -360q-9 -9 -111 -138q-2 -2 -149 -184q164 4 417 4z" />
    <glyph glyph-name="minus" unicode="&#x2212;" horiz-adv-x="1083" 
d="M1049 639h-932v180h932v-180z" />
    <glyph glyph-name="uni2215" unicode="&#x2215;" horiz-adv-x="1083" 
d="M139 0h-219l1024 1458h219z" />
    <glyph glyph-name="uni2219" unicode="&#x2219;" horiz-adv-x="1079" 
d="M698 582h-297l62 295h299z" />
    <glyph glyph-name="radical" unicode="&#x221a;" horiz-adv-x="1466" 
d="M868 295l398 1163h219l-645 -1859h-250l-299 835h-221v193h370l117 -334q150 -456 156 -475q128 396 155 477z" />
    <glyph glyph-name="infinity" unicode="&#x221e;" horiz-adv-x="1648" 
d="M1243 1130q170 0 270 -110q101 -112 101 -291t-101 -291q-100 -110 -270 -110q-218 0 -377 237q-164 -237 -379 -237q-170 0 -270 110t-100 291t100 291t270 110q213 0 379 -239q161 239 377 239zM492 494q146 0 282 235q-141 236 -282 236q-83 0 -136 -65t-53 -171
t53 -171q52 -64 136 -64zM1239 494q83 0 135 64q53 65 53 171t-53 171t-135 65q-144 0 -281 -236q135 -235 281 -235z" />
    <glyph glyph-name="integral" unicode="&#x222b;" horiz-adv-x="817" 
d="M233 -410q-35 0 -116 9v170q54 -7 92 -7q137 0 137 140v1253q0 311 318 311q46 0 118 -8v-170q-50 6 -92 6q-139 0 -139 -139v-1253q0 -312 -318 -312z" />
    <glyph glyph-name="approxequal" unicode="&#x2248;" horiz-adv-x="1083" 
d="M276 764h-159q10 130 83 209q72 78 187 78q84 0 227 -58q111 -45 160 -45q97 0 115 111h160q-10 -130 -83 -209q-72 -78 -188 -78q-88 0 -221 57q-105 45 -166 45q-97 0 -115 -110zM276 375h-159q10 130 83 209q72 78 187 78q84 0 227 -58q111 -45 160 -45q97 0 115 111
h160q-10 -130 -83 -209q-72 -78 -188 -78q-80 0 -221 57q-105 45 -166 45q-97 0 -115 -110z" />
    <glyph glyph-name="notequal" unicode="&#x2260;" horiz-adv-x="1083" 
d="M1049 999v-163h-347l-77 -213h424v-164h-484l-82 -226l-149 52l63 174h-280v164h342l78 213h-420v163h479l84 228l147 -51l-63 -177h285z" />
    <glyph glyph-name="lessequal" unicode="&#x2264;" horiz-adv-x="1083" 
d="M1049 1223v-201l-250 -98q-391 -141 -465 -164q115 -39 465 -166l250 -100v-199l-932 362v201zM1049 0h-932v172h932v-172z" />
    <glyph glyph-name="greaterequal" unicode="&#x2265;" horiz-adv-x="1083" 
d="M117 1022v201l932 -365v-201l-932 -362v199l250 100q339 123 462 166q-120 39 -462 164zM1049 0h-932v172h932v-172z" />
    <glyph glyph-name="uni2460" unicode="&#x2460;" horiz-adv-x="1957" 
d="M326 1403q284 274 694 274t696 -274q283 -277 283 -674t-283 -672q-286 -276 -696 -276q-412 0 -694 276q-285 273 -285 672q0 398 285 674zM459 180q224 -223 561 -223t561 223q227 223 227 549q0 325 -227 549q-224 223 -561 223t-561 -223q-228 -225 -228 -549
t228 -549zM993 1196h156v-932h-186v674q-67 -27 -224 -27v133q108 5 160 33q54 29 94 119z" />
    <glyph glyph-name="uni2461" unicode="&#x2461;" horiz-adv-x="1957" 
d="M326 1403q284 274 694 274t696 -274q283 -277 283 -674t-283 -672q-286 -276 -696 -276q-412 0 -694 276q-285 273 -285 672q0 398 285 674zM459 180q224 -223 561 -223t561 223q227 223 227 549q0 325 -227 549q-224 223 -561 223t-561 -223q-228 -225 -228 -549
t228 -549zM1100 659l-72 -30q-142 -60 -158 -162h496v-160h-704l2 72q6 139 73 236q68 98 219 161l66 27q152 62 152 168q0 129 -156 129q-78 0 -119 -42q-41 -43 -41 -118h-182q5 149 92 233q90 87 254 87q159 0 248 -79q90 -79 90 -202q0 -108 -63 -183q-64 -77 -197 -137
z" />
    <glyph glyph-name="uni2462" unicode="&#x2462;" horiz-adv-x="1957" 
d="M326 1403q284 274 694 274t696 -274q283 -277 283 -674t-283 -672q-286 -276 -696 -276q-412 0 -694 276q-285 273 -285 672q0 398 285 674zM459 180q224 -223 561 -223t561 223q227 223 227 549q0 325 -227 549q-224 223 -561 223t-561 -223q-228 -225 -228 -549
t228 -549zM1233 762q151 -55 151 -227q0 -131 -97 -210t-263 -79q-177 0 -275 86t-100 246h185q0 -179 188 -179q80 0 127 38t47 106q0 137 -182 137h-64v139h68q164 0 164 127q0 56 -43 87q-44 32 -115 32q-152 0 -160 -135h-184q7 139 97 213q89 74 249 74q156 0 246 -69
t90 -185q0 -63 -35 -118t-94 -83z" />
    <glyph glyph-name="uni2463" unicode="&#x2463;" horiz-adv-x="1957" 
d="M326 1403q284 274 694 274t696 -274q283 -277 283 -674t-283 -672q-286 -276 -696 -276q-412 0 -694 276q-285 273 -285 672q0 398 285 674zM459 180q224 -223 561 -223t561 223q227 223 227 549q0 325 -227 549q-224 223 -561 223t-561 -223q-228 -225 -228 -549
t228 -549zM1038 1212h195v-557h129v-157h-129v-217h-191v217h-456v184zM1049 655v353l-301 -353h301z" />
    <glyph glyph-name="uni2464" unicode="&#x2464;" horiz-adv-x="1957" 
d="M326 1403q284 274 694 274t696 -274q283 -277 283 -674t-283 -672q-286 -276 -696 -276q-412 0 -694 276q-285 273 -285 672q0 398 285 674zM459 180q224 -223 561 -223t561 223q227 223 227 549q0 325 -227 549q-224 223 -561 223t-561 -223q-228 -225 -228 -549
t228 -549zM1059 887q144 0 229 -91q86 -92 86 -231q0 -147 -100 -235t-254 -88q-148 0 -246 76q-97 75 -112 206h180q30 -133 178 -133q80 0 128 49q48 50 48 125q0 79 -48 129q-48 49 -128 49q-127 0 -166 -94h-180l94 543h565v-160h-418l-36 -198q73 53 180 53z" />
    <glyph glyph-name="uni2465" unicode="&#x2465;" horiz-adv-x="1957" 
d="M326 1403q284 274 694 274t696 -274q283 -277 283 -674t-283 -672q-286 -276 -696 -276q-412 0 -694 276q-285 273 -285 672q0 398 285 674zM459 180q224 -223 561 -223t561 223q227 223 227 549q0 325 -227 549q-224 223 -561 223t-561 -223q-228 -225 -228 -549
t228 -549zM1049 891q147 0 237 -92q90 -96 90 -230q0 -147 -99 -235q-98 -88 -257 -88q-136 0 -225 67q-152 114 -152 398q0 245 97 375q98 131 286 131q140 0 228 -69q90 -70 108 -190h-180q-30 111 -158 111q-96 0 -145 -65q-50 -66 -60 -209q85 96 230 96zM895 444
q46 -49 125 -49q78 0 127 49q49 46 49 121t-49 125q-49 49 -127 49q-79 0 -125 -49q-49 -50 -49 -125t49 -121z" />
    <glyph glyph-name="uni2466" unicode="&#x2466;" horiz-adv-x="1957" 
d="M326 1403q284 274 694 274t696 -274q283 -277 283 -674t-283 -672q-286 -276 -696 -276q-412 0 -694 276q-285 273 -285 672q0 398 285 674zM459 180q224 -223 561 -223t561 223q227 223 227 549q0 325 -227 549q-224 223 -561 223t-561 -223q-228 -225 -228 -549
t228 -549zM1171 1012h-469v159h656v-159q-163 -154 -235 -333t-72 -439h-203q1 222 89 427q87 204 234 345z" />
    <glyph glyph-name="uni2467" unicode="&#x2467;" horiz-adv-x="1957" 
d="M326 1403q284 274 694 274t696 -274q283 -277 283 -674t-283 -672q-286 -276 -696 -276q-412 0 -694 276q-285 273 -285 672q0 398 285 674zM459 180q224 -223 561 -223t561 223q227 223 227 549q0 325 -227 549q-224 223 -561 223t-561 -223q-228 -225 -228 -549
t228 -549zM1233 758q156 -69 156 -234q0 -124 -100 -201t-269 -77t-269 77t-100 201q0 165 156 234q-115 73 -115 200q0 120 88 189q90 70 240 70t238 -71t88 -188q0 -131 -113 -200zM1135 1042q-70 58 -177 26q-106 -32 -96 -120q0 -61 43 -97t115 -36t115 36t43 97
q0 60 -43 94zM883 434q47 -41 137 -41t137 41t47 109t-49 108q-50 41 -135 41t-135 -41q-49 -40 -49 -108t47 -109z" />
    <glyph glyph-name="uni2468" unicode="&#x2468;" horiz-adv-x="1957" 
d="M326 1403q284 274 694 274t696 -274q283 -277 283 -674t-283 -672q-286 -276 -696 -276q-412 0 -694 276q-285 273 -285 672q0 398 285 674zM459 180q224 -223 561 -223t561 223q227 223 227 549q0 325 -227 549q-224 223 -561 223t-561 -223q-228 -225 -228 -549
t228 -549zM1249 1147q152 -114 152 -397q0 -245 -95 -375q-94 -129 -278 -129q-143 0 -234 67t-112 189h180q35 -109 166 -109q90 0 138 66q49 67 59 207q-86 -97 -228 -97q-148 0 -237 95q-90 94 -90 227q0 147 99 236q101 90 257 90q132 0 223 -70zM1026 721q78 0 125 50
t47 126q0 74 -47 121t-125 47q-79 0 -129 -47q-49 -46 -49 -121q0 -77 49 -126q50 -50 129 -50z" />
    <glyph glyph-name="uni24EA" unicode="&#x24ea;" horiz-adv-x="1957" 
d="M1716 57q-286 -276 -696 -276q-412 0 -694 276q-285 273 -285 672q0 398 285 674q284 274 694 274t696 -274q283 -277 283 -674t-283 -672zM459 180q224 -223 561 -223t561 223q227 223 227 549q0 325 -227 549q-224 223 -561 223t-561 -223q-228 -225 -228 -549
t228 -549zM1309 375q-99 -129 -289 -129q-193 0 -287 129q-98 126 -98 354q0 234 98 360q99 128 287 128t287 -128q98 -126 98 -360q0 -226 -96 -354zM831 729q0 -326 189 -326q188 0 188 326q0 328 -188 328q-189 0 -189 -328z" />
    <glyph glyph-name="uni24FF" unicode="&#x24ff;" horiz-adv-x="1957" 
d="M1516 -94q-224 -125 -496 -125t-496 125q-223 124 -354 346q-129 219 -129 477q0 261 129 479q128 216 354 344q224 125 496 125t496 -125q226 -128 354 -344q129 -217 129 -479q0 -258 -129 -477q-131 -222 -354 -346zM739 373q99 -125 281 -125t283 125q98 122 98 356
q0 232 -98 357q-99 126 -283 126t-283 -126q-98 -125 -98 -357q0 -235 100 -356zM1214 729q0 -330 -194 -330q-195 0 -195 330q0 332 195 332q194 0 194 -332z" />
    <glyph glyph-name="filledbox" unicode="&#x25a0;" horiz-adv-x="1957" 
d="M1950 -180h-1860v1818h1860v-1818z" />
    <glyph glyph-name="uni25A1" unicode="&#x25a1;" horiz-adv-x="1957" 
d="M1950 -180h-1860v1818h1860v-1818zM281 1466v-1474h1478v1474h-1478z" />
    <glyph glyph-name="lozenge" unicode="&#x25ca;" horiz-adv-x="1187" 
d="M524 1458h221l437 -729l-437 -729h-221l-436 729zM319 729l316 -532l315 532l-315 533z" />
    <glyph glyph-name="circle" unicode="&#x25cb;" horiz-adv-x="1957" 
d="M1716 57q-286 -276 -696 -276q-412 0 -694 276q-285 273 -285 672q0 398 285 674q284 274 694 274t696 -274q283 -277 283 -674t-283 -672zM459 180q224 -223 561 -223t561 223q227 223 227 549q0 325 -227 549q-224 223 -561 223t-561 -223q-228 -225 -228 -549
t228 -549z" />
    <glyph glyph-name="uni25CF" unicode="&#x25cf;" horiz-adv-x="1957" 
d="M1516 -94q-224 -125 -496 -125t-496 125q-223 124 -354 346q-129 219 -129 477q0 261 129 479q128 216 354 344q224 125 496 125t496 -125q226 -128 354 -344q129 -217 129 -479q0 -258 -129 -477q-131 -222 -354 -346z" />
    <glyph glyph-name="uni2776" unicode="&#x2776;" horiz-adv-x="1957" 
d="M1516 -94q-224 -125 -496 -125t-496 125q-223 124 -354 346q-129 219 -129 477q0 261 129 479q128 216 354 344q224 125 496 125t496 -125q226 -128 354 -344q129 -217 129 -479q0 -258 -129 -477q-131 -222 -354 -346zM956 913v-647h191v928h-156q-30 -88 -88 -120
t-166 -32v-129h219z" />
    <glyph glyph-name="uni2777" unicode="&#x2777;" horiz-adv-x="1957" 
d="M1516 -94q-224 -125 -496 -125t-496 125q-223 124 -354 346q-129 219 -129 477q0 261 129 479q128 216 354 344q224 125 496 125t496 -125q226 -128 354 -344q129 -217 129 -479q0 -258 -129 -477q-131 -222 -354 -346zM674 362l-2 -67h696v151h-496q12 110 158 170
l72 31q134 57 196 132q62 76 62 184q0 120 -89 198t-243 78q-163 0 -251 -83q-87 -82 -93 -228h174q1 76 45 118q42 41 119 41q162 0 162 -133q0 -110 -156 -172l-65 -26q-278 -112 -289 -394z" />
    <glyph glyph-name="uni2778" unicode="&#x2778;" horiz-adv-x="1957" 
d="M1516 -94q-224 -125 -496 -125t-496 125q-223 124 -354 346q-129 219 -129 477q0 261 129 479q128 216 354 344q224 125 496 125t496 -125q226 -128 354 -344q129 -217 129 -479q0 -258 -129 -477q-131 -222 -354 -346zM1024 248q162 0 259 79t97 208q0 83 -43 142
q-45 62 -118 85q62 27 100 81q37 53 37 120q0 114 -89 182q-88 67 -241 67q-157 0 -244 -71q-88 -72 -96 -207h172q15 137 166 137q76 0 119 -34t43 -91q0 -131 -168 -131h-64v-131h60q188 0 188 -143q0 -68 -49 -108t-131 -40q-191 0 -195 178h-172q1 -153 98 -239
q95 -84 271 -84z" />
    <glyph glyph-name="uni2779" unicode="&#x2779;" horiz-adv-x="1957" 
d="M1516 -94q-224 -125 -496 -125t-496 125q-223 124 -354 346q-129 219 -129 477q0 261 129 479q128 216 354 344q224 125 496 125t496 -125q226 -128 354 -344q129 -217 129 -479q0 -258 -129 -477q-131 -222 -354 -346zM1047 502v-217h180v217h131v147h-131v559h-187
l-448 -528v-178h455zM1055 649h-318l318 369v-369z" />
    <glyph glyph-name="uni277A" unicode="&#x277a;" horiz-adv-x="1957" 
d="M1516 -94q-224 -125 -496 -125t-496 125q-223 124 -354 346q-129 219 -129 477q0 261 129 479q128 216 354 344q224 125 496 125t496 -125q226 -128 354 -344q129 -217 129 -479q0 -258 -129 -477q-131 -222 -354 -346zM1022 246q154 0 252 88t98 231q0 142 -84 229
t-225 87q-122 0 -188 -60l38 215h418v152h-555l-94 -535h172q47 97 168 97q80 0 130 -52t50 -133q0 -77 -50 -129q-50 -51 -130 -51q-143 0 -180 133h-174q17 -126 112 -199t242 -73z" />
    <glyph glyph-name="uni277B" unicode="&#x277b;" horiz-adv-x="1957" 
d="M1516 -94q-224 -125 -496 -125t-496 125q-223 124 -354 346q-129 219 -129 477q0 261 129 479q128 216 354 344q224 125 496 125t496 -125q226 -128 354 -344q129 -217 129 -479q0 -258 -129 -477q-131 -222 -354 -346zM1020 248q155 0 253 89q97 88 97 232
q0 138 -88 226q-90 90 -233 90q-148 0 -234 -101v13q15 276 211 276q130 0 160 -110h172q-22 117 -110 183q-87 66 -220 66q-187 0 -283 -129t-96 -372q0 -284 148 -396q88 -67 223 -67zM1020 389q-79 0 -128 49q-50 50 -50 127q0 78 50 128t128 50q79 0 131 -50
q51 -49 51 -128q0 -77 -51 -127q-50 -49 -131 -49z" />
    <glyph glyph-name="uni277C" unicode="&#x277c;" horiz-adv-x="1957" 
d="M1516 -94q-224 -125 -496 -125t-496 125q-223 124 -354 346q-129 219 -129 477q0 261 129 479q128 216 354 344q224 125 496 125t496 -125q226 -128 354 -344q129 -217 129 -479q0 -258 -129 -477q-131 -222 -354 -346zM852 244h190q5 266 78 440q73 177 232 330v153
h-645v-151h475q-150 -143 -237 -344q-89 -206 -93 -428z" />
    <glyph glyph-name="uni277D" unicode="&#x277d;" horiz-adv-x="1957" 
d="M1516 -94q-224 -125 -496 -125t-496 125q-223 124 -354 346q-129 219 -129 477q0 261 129 479q128 216 354 344q224 125 496 125t496 -125q226 -128 354 -344q129 -217 129 -479q0 -258 -129 -477q-131 -222 -354 -346zM756 324q95 -76 264 -76q166 0 266 76
q98 77 98 200q0 167 -163 234q120 67 120 200q0 117 -87 186q-86 68 -234 68q-149 0 -235 -68q-87 -69 -87 -186q0 -134 123 -200q-166 -67 -166 -234q0 -123 101 -200zM1139 848q-45 -39 -119 -39q-76 0 -117 39q-45 38 -45 100t44 98q42 35 118 35q75 0 119 -35
q45 -36 45 -98t-45 -100zM1161 428q-53 -41 -141 -41q-87 0 -139 41q-52 40 -52 113q0 70 52 114q53 41 139 41t139 -41q51 -43 51 -114q0 -74 -49 -113z" />
    <glyph glyph-name="uni277E" unicode="&#x277e;" horiz-adv-x="1957" 
d="M1516 -94q-224 -125 -496 -125t-496 125q-223 124 -354 346q-129 219 -129 477q0 261 129 479q128 216 354 344q224 125 496 125t496 -125q226 -128 354 -344q129 -217 129 -479q0 -258 -129 -477q-131 -222 -354 -346zM1018 248q186 0 284 128q97 127 97 374
q0 281 -152 395q-85 67 -221 67q-160 0 -257 -88t-97 -233q0 -136 92 -225q90 -93 233 -93t222 91l10 10q0 -8 -2 -10q-15 -275 -209 -275q-124 0 -158 111h-174q21 -121 109 -186q89 -66 223 -66zM1026 717q-80 0 -130 50t-50 130q0 76 50 124t130 48q78 0 127 -48t49 -124
q0 -77 -50 -129q-50 -51 -126 -51z" />
    <glyph glyph-name="uni2E18" unicode="&#x2e18;" horiz-adv-x="1060" 
d="M528 1200h250l-53 -244h-248zM696 193h209q-96 -484 -569 -484q-227 0 -339 109t-69 309q38 158 258 311q164 116 215 183q37 49 64 170h199l-105 -541l-65 -209h-175l29 209l27 104l-4 -4q-2 -2 -4 -2q-98 -61 -152 -117q-52 -53 -68 -116q-24 -107 28 -164
q53 -57 179 -57q136 0 218 70q83 71 124 229z" />
    <glyph glyph-name="uniF8FF" unicode="&#xf8ff;" horiz-adv-x="1574" 
d="M526 1274l-61 -285h-92l137 647h92l-49 -233q66 67 154 67q79 0 114 -50q35 -51 13 -146l-62 -285h-90l59 289q24 113 -69 113q-47 0 -89 -31q-40 -30 -57 -86zM1518 1636l-138 -647h-90l137 647h91zM1042 983q-106 0 -157 71q-52 71 -25 191q22 104 94 167t168 63
q109 0 160 -72t23 -176q0 -3 -3 -13q-1 -4 -3.5 -9t-2.5 -7h-352q-16 -139 107 -139q92 0 131 80h92q-57 -156 -232 -156zM1114 1399q-113 0 -156 -127h261q6 56 -22 92q-27 35 -83 35zM1421 707h-352q-12 -140 107 -140q96 0 133 78h92q-57 -153 -234 -153q-107 0 -156 70
q-51 72 -24 192q22 104 93 167q69 62 167 62q108 0 160 -73q51 -73 23 -177q-1 -10 -9 -26zM1059 969l-281 -469h-100l-80 469h96l29 -187q0 -7 3 -34q0 -4 3 -28.5t5 -41.5q4 -44 9 -90q71 132 109 196l109 185h98zM1239 905q-111 0 -154 -127h258q8 58 -20 92
q-29 35 -84 35zM586 537h-94l20 98h94zM332 393l-58 -268q-12 -53 41 -53h41l-14 -74q-20 -2 -51 -2q-136 0 -109 131l58 266h-76l16 74h76l29 135h90l-29 -135h96l-16 -74h-94zM750 66q100 0 133 100h94q-55 -178 -238 -178q-102 0 -153 73t-27 195q21 101 91 162t169 61
q87 0 137 -47t45 -127h-94q-1 94 -100 94q-57 0 -98 -41q-42 -42 -58 -118q-18 -83 11 -129q28 -45 88 -45zM1290 479q189 0 156 -168l-45 -219q-15 -62 -2 -92h-90q-8 19 -2 59q-55 -69 -158 -69q-75 0 -119 42q-43 41 -26 111q24 106 190 127l88 11q70 11 80 49
q6 39 -13 58q-20 20 -69 20q-108 0 -129 -86h-88q30 157 227 157zM379 0l100 469h92l-100 -469h-92zM1171 61q123 0 158 115l14 66q-31 -17 -67 -23l-78 -12q-90 -16 -102 -68q-7 -37 13 -57q21 -21 62 -21z" />
    <glyph glyph-name="uniFEFF" unicode="&#xfeff;" 
 />
    <glyph glyph-name="null" 
 />
    <glyph glyph-name="Adieresis.ss01" horiz-adv-x="1445" 
d="M745 1536q-77 -4 -112 77q-35 82 26 134q51 62 133 27q81 -34 76 -115q0 -50 -35 -86q-36 -37 -88 -37zM1208 1573q-37 -37 -88 -37q-52 0 -86 37q-37 34 -37 86q0 51 37 88q51 61 132 27q82 -35 77 -115q0 -46 -35 -86zM1305 0h-224l-65 379h-654l-223 -379h-233
l878 1458h250zM520 649l-47 -80h512l-14 80q-58 309 -99 598q-170 -292 -352 -598z" />
    <glyph glyph-name="Cdotaccent.ss01" horiz-adv-x="1458" 
d="M1090 1606q-37 -37 -89 -37q-51 0 -88 37q-36 36 -36 88t36 88q37 37 88 37q52 0 89 -37q36 -36 36 -88t-36 -88zM655 -33q-319 0 -471 215q-151 212 -67 598q63 312 295 514q229 197 522 197q238 0 391 -129q157 -134 158 -387h-221q-24 321 -347 321q-207 0 -364 -145
q-156 -147 -209 -391q-62 -285 29 -442q90 -156 305 -156q174 0 309 98q137 99 197 279h221q-82 -278 -285 -424q-204 -148 -463 -148z" />
    <glyph glyph-name="Edieresis.ss01" horiz-adv-x="1218" 
d="M672 1536q-78 -5 -113 77q-35 81 27 134q51 61 132 27q82 -35 77 -115q0 -49 -36 -86t-87 -37zM1135 1573q-37 -37 -88 -37q-52 0 -86 37q-37 34 -37 86q0 51 37 88q51 61 132 27t76 -115q0 -48 -34 -86zM1366 1458l-41 -196h-821l-88 -412h741l-41 -193h-741l-101 -460
h816l-41 -197h-1035l312 1458h1040z" />
    <glyph glyph-name="Edotaccent.ss01" horiz-adv-x="1218" 
d="M965 1573q-37 -37 -88 -37q-52 0 -89 37q-36 36 -36 88t36 88q37 37 89 37q51 0 88 -37q36 -36 36 -88t-36 -88zM1366 1458l-41 -196h-821l-88 -412h741l-41 -193h-741l-101 -460h816l-41 -197h-1035l312 1458h1040z" />
    <glyph glyph-name="uni0122.ss01" horiz-adv-x="1546" 
d="M911 1296q-214 0 -364 -147q-154 -151 -205 -391q-60 -277 43 -436q103 -160 324 -160q189 0 340 117q147 114 194 301h-426l39 186h635l-164 -766h-168l2 180q-191 -213 -481 -213q-324 0 -483 219q-159 220 -80 594q68 317 284 514q218 197 533 197q269 0 430 -139
q158 -141 152 -375h-224q-1 145 -106 232t-275 87zM664 -106q55 0 88 -35q32 -33 32 -103q0 -100 -75 -176q-78 -80 -203 -92l22 94q94 16 129 99q-44 1 -77 30t-33 72q0 47 33 79q34 32 84 32z" />
    <glyph glyph-name="Gdotaccent.ss01" horiz-adv-x="1546" 
d="M1083 1606q-37 -37 -88 -37t-88 37t-37 88t37 88t88 37t88 -37t37 -88t-37 -88zM911 1296q-214 0 -364 -147q-154 -151 -205 -391q-60 -277 43 -436q103 -160 324 -160q189 0 340 117q147 114 194 301h-426l39 186h635l-164 -766h-168l2 180q-191 -213 -481 -213
q-324 0 -483 219q-159 220 -80 594q68 317 284 514q218 197 533 197q269 0 430 -139q158 -141 152 -375h-224q-1 145 -106 232t-275 87z" />
    <glyph glyph-name="Idieresis.ss01" horiz-adv-x="473" 
d="M373 1573q-38 -37 -86 -37q-47 0 -86 36q-38 36 -37 85q0 49 36 86t87 37q49 0 85 -36t36 -87q0 -49 -35 -84zM623 1536q-49 -1 -85 36q-36 38 -36 85q0 48 37 86q52 57 130 26q76 -30 76 -112q0 -50 -35 -85q-36 -36 -87 -36zM233 0h-219l312 1458h219z" />
    <glyph glyph-name="Idotaccent.ss01" horiz-adv-x="473" 
d="M565 1573q-37 -37 -88 -37t-88 37t-37 88t37 88t88 37t88 -37t37 -88t-37 -88zM233 0h-219l312 1458h219z" />
    <glyph glyph-name="uni0136.ss01" horiz-adv-x="1392" 
d="M1280 1458h289l-740 -600l431 -858h-244l-365 721l-315 -250l-100 -471h-220l310 1458h219l-154 -723zM592 -78q55 0 88 -35t33 -102q0 -99 -76 -176q-77 -80 -203 -92l23 94q96 17 129 98q-44 1 -78 31q-33 28 -33 72q0 46 33 78q34 32 84 32z" />
    <glyph glyph-name="uni013B.ss01" horiz-adv-x="1097" 
d="M545 1458l-271 -1261h717l-43 -197h-934l312 1458h219zM463 -78q55 0 88 -35t33 -102q0 -99 -76 -176q-78 -80 -203 -92l23 94q95 17 129 98q-44 1 -78 31q-33 28 -33 72q0 46 33 78q34 32 84 32z" />
    <glyph glyph-name="Ldot.ss01" horiz-adv-x="1097" 
d="M326 1458h219l-271 -1261h717l-43 -197h-934zM885 618q-65 0 -105 40q-41 41 -41 100q0 58 41 99q40 40 105 40q57 0 98 -39t41 -96q0 -62 -41 -103t-98 -41z" />
    <glyph glyph-name="uni0145.ss01" horiz-adv-x="1445" 
d="M1176 1016l94 442h213l-312 -1458h-245l-299 707q-128 304 -189 481q-55 -296 -151 -746l-94 -442h-213l311 1458h246l301 -706q140 -336 186 -486q89 453 152 750zM537 -78q55 0 88 -35q32 -33 32 -102q0 -100 -75 -176q-78 -80 -203 -92l22 94q95 17 129 98
q-43 1 -77 31q-33 28 -33 72q0 46 33 78q34 32 84 32z" />
    <glyph glyph-name="Odieresis.ss01" horiz-adv-x="1554" 
d="M811 1569q-78 -5 -113 77q-35 81 27 134q50 61 132 26q81 -35 77 -114q0 -48 -36 -86q-36 -37 -87 -37zM1274 1606q-37 -37 -88 -37q-52 0 -86 37q-37 34 -37 86q0 51 37 88q50 61 132 26q81 -35 77 -114q0 -46 -35 -86zM684 -33q-326 0 -485 219q-160 219 -82 590
q66 312 299 514q231 201 542 201q325 0 484 -215q160 -221 84 -580q-67 -316 -299 -524q-230 -205 -543 -205zM702 164q220 0 383 151q164 152 215 398q57 270 -42 426q-98 155 -322 155q-218 0 -379 -149q-166 -152 -217 -397q-60 -270 40 -427t322 -157z" />
    <glyph glyph-name="uni0156.ss01" horiz-adv-x="1339" 
d="M326 1458h592q243 0 372 -117q125 -117 80 -327q-22 -116 -112 -201q-88 -84 -224 -117q111 -27 150 -103t16 -220l-29 -191q-20 -107 11 -182h-226q-27 59 -4 188l33 181q21 122 -27 177q-47 54 -172 54h-424l-126 -600h-220zM1145 1010q29 130 -39 195t-213 65h-389
l-103 -488h418q125 0 215 61q88 60 111 167zM565 -78q55 0 88 -35t33 -102q0 -99 -76 -176q-79 -80 -202 -92l22 94q95 17 129 98q-44 1 -78 31q-32 28 -32 72q0 47 32 78q34 32 84 32z" />
    <glyph glyph-name="uni0218.ss01" horiz-adv-x="1284" 
d="M1292 1030h-215q21 136 -49 206q-69 69 -254 69q-298 0 -336 -197q-21 -106 38 -165q58 -58 224 -97l121 -27q453 -96 369 -471q-39 -179 -197 -280t-405 -101q-293 0 -440 135t-109 379h219q-22 -169 68 -249q88 -78 284 -78q154 0 245 54q92 54 110 154q24 115 -36 175
q-58 58 -237 98l-119 27q-202 44 -297 158q-96 115 -61 300q34 174 188 273q151 98 385 98q299 0 420 -127q118 -127 84 -334zM549 -111q55 0 88 -34q33 -35 33 -103q0 -99 -76 -176q-78 -80 -203 -92l23 94q95 17 129 98q-44 1 -78 31q-33 29 -33 72q0 47 33 79
q32 31 84 31z" />
    <glyph glyph-name="uni021A.ss01" horiz-adv-x="1263" 
d="M236 1458h1189l-43 -196h-483l-268 -1262h-223l268 1262h-481zM479 -78q55 0 88 -35t33 -102q0 -99 -76 -176q-79 -80 -202 -92l22 94q95 17 129 98q-44 1 -78 31q-33 28 -33 72q0 46 33 78q34 32 84 32z" />
    <glyph glyph-name="Udieresis.ss01" horiz-adv-x="1392" 
d="M715 1536q-78 -5 -113 77q-35 81 27 134q51 61 132 27q82 -35 77 -115q0 -49 -36 -86t-87 -37zM1178 1573q-37 -37 -88 -37q-52 0 -86 37q-37 34 -37 86q0 51 37 88q51 61 132 27t76 -115q0 -48 -34 -86zM618 -31q-297 0 -431 173t-62 495l178 821h219l-182 -856
q-91 -440 297 -440q357 0 436 385l191 911h219l-199 -950q-114 -539 -666 -539z" />
    <glyph glyph-name="Wdieresis.ss01" horiz-adv-x="1978" 
d="M1022 1536q-78 -5 -113 77q-35 81 27 134q51 61 132 27q82 -35 77 -115q0 -49 -36 -86t-87 -37zM1485 1573q-37 -37 -88 -37q-52 0 -86 37q-37 34 -37 86q0 51 37 88q51 61 132 27q82 -35 77 -115q0 -46 -35 -86zM1602 797l317 661h231l-718 -1458h-246l-41 682
q-9 263 -17 508q-76 -171 -235 -508l-332 -682h-244l-100 1458h223l39 -661q14 -315 19 -543q102 233 250 547l315 657h233l37 -657q14 -242 19 -543q132 294 250 539z" />
    <glyph glyph-name="Ydieresis.ss01" horiz-adv-x="1370" 
d="M721 1536q-78 -5 -113 77q-35 81 27 134q51 61 132 27q82 -35 77 -115q0 -49 -36 -86t-87 -37zM1184 1573q-37 -37 -88 -37q-52 0 -86 37q-37 34 -37 86q0 51 37 88q51 61 132 27q82 -35 77 -115q0 -46 -35 -86zM1038 1153l252 305h254l-737 -876l-123 -582h-219l123 582
l-369 876h238l127 -307q61 -151 143 -381q262 324 311 383z" />
    <glyph glyph-name="Zdotaccent.ss01" horiz-adv-x="1253" 
d="M965 1573q-37 -37 -88 -37q-52 0 -89 37q-36 36 -36 88t36 88q37 37 89 37q51 0 88 -37q36 -36 36 -88t-36 -88zM1389 1458l-41 -186l-766 -760q-92 -92 -328 -319q164 4 418 4h461l-43 -197h-1151l41 186l761 760q65 61 164 160t164 160q-164 -4 -418 -4h-407l41 196
h1104z" />
    <glyph glyph-name="G.ss03" horiz-adv-x="1538" 
d="M938 1294q-213 0 -375 -143q-168 -144 -223 -406q-60 -273 42 -427t327 -154q427 0 557 436h-471l39 186h690q0 -3 -3 -24q-2 -11 -8 -41q-66 -358 -280 -555q-219 -199 -543 -199q-327 0 -489 217q-163 215 -86 574q68 328 297 530q232 203 546 203q275 0 428 -138
q154 -138 152 -374h-219q-1 147 -102 231t-279 84z" />
    <glyph glyph-name="uni01F4.ss03" horiz-adv-x="1538" 
d="M1094 1874h264l-307 -295h-189zM938 1294q-213 0 -375 -143q-168 -144 -223 -406q-60 -273 42 -427t327 -154q427 0 557 436h-471l39 186h690q0 -3 -3 -24q-2 -11 -8 -41q-66 -358 -280 -555q-219 -199 -543 -199q-327 0 -489 217q-163 215 -86 574q68 328 297 530
q232 203 546 203q275 0 428 -138q154 -138 152 -374h-219q-1 147 -102 231t-279 84z" />
    <glyph glyph-name="Gbreve.ss03" horiz-adv-x="1538" 
d="M1006 1569q-145 0 -225 83q-79 82 -64 222h164q-5 -74 33 -116t108 -42q136 0 186 158h166q-34 -147 -133 -226q-98 -79 -235 -79zM938 1294q-213 0 -375 -143q-168 -144 -223 -406q-60 -273 42 -427t327 -154q427 0 557 436h-471l39 186h690q0 -3 -3 -24q-2 -11 -8 -41
q-66 -358 -280 -555q-219 -199 -543 -199q-327 0 -489 217q-163 215 -86 574q68 328 297 530q232 203 546 203q275 0 428 -138q154 -138 152 -374h-219q-1 147 -102 231t-279 84z" />
    <glyph glyph-name="Gcircumflex.ss03" horiz-adv-x="1538" 
d="M1167 1579l-137 184l-217 -184h-201l295 295h273l178 -295h-191zM938 1294q-213 0 -375 -143q-168 -144 -223 -406q-60 -273 42 -427t327 -154q427 0 557 436h-471l39 186h690q0 -3 -3 -24q-2 -11 -8 -41q-66 -358 -280 -555q-219 -199 -543 -199q-327 0 -489 217
q-163 215 -86 574q68 328 297 530q232 203 546 203q275 0 428 -138q154 -138 152 -374h-219q-1 147 -102 231t-279 84z" />
    <glyph glyph-name="uni0122.ss03" horiz-adv-x="1538" 
d="M938 1294q-213 0 -375 -143q-168 -144 -223 -406q-60 -273 42 -427t327 -154q427 0 557 436h-471l39 186h690q0 -3 -3 -24q-2 -11 -8 -41q-66 -358 -280 -555q-219 -199 -543 -199q-327 0 -489 217q-163 215 -86 574q68 328 297 530q232 203 546 203q275 0 428 -138
q154 -138 152 -374h-219q-1 147 -102 231t-279 84zM627 -307h-107l39 186h221l-47 -219q-33 -162 -223 -172l-33 -2l19 94l28 2q82 6 94 72z" />
    <glyph glyph-name="Gdotaccent.ss03" horiz-adv-x="1538" 
d="M922 1798h211l-46 -219h-210zM938 1294q-213 0 -375 -143q-168 -144 -223 -406q-60 -273 42 -427t327 -154q427 0 557 436h-471l39 186h690q0 -3 -3 -24q-2 -11 -8 -41q-66 -358 -280 -555q-219 -199 -543 -199q-327 0 -489 217q-163 215 -86 574q68 328 297 530
q232 203 546 203q275 0 428 -138q154 -138 152 -374h-219q-1 147 -102 231t-279 84z" />
    <glyph glyph-name="uni0122.ss01.ss03" horiz-adv-x="1538" 
d="M938 1294q-213 0 -375 -143q-168 -144 -223 -406q-60 -273 42 -427t327 -154q427 0 557 436h-471l39 186h690q0 -3 -3 -24q-2 -11 -8 -41q-66 -358 -280 -555q-219 -199 -543 -199q-327 0 -489 217q-163 215 -86 574q68 328 297 530q232 203 546 203q275 0 428 -138
q154 -138 152 -374h-219q-1 147 -102 231t-279 84zM645 -111q55 0 88 -34t33 -103q0 -99 -76 -176q-77 -80 -203 -92l23 94q96 17 129 98q-44 1 -78 31q-33 29 -33 72q0 47 33 79q32 31 84 31z" />
    <glyph glyph-name="Gdotaccent.ss01.ss03" horiz-adv-x="1538" 
d="M1094 1606q-37 -37 -88 -37t-88 37t-37 88t37 88t88 37t88 -37q36 -36 36 -88t-36 -88zM938 1294q-213 0 -375 -143q-168 -144 -223 -406q-60 -273 42 -427t327 -154q427 0 557 436h-471l39 186h690q0 -3 -3 -24q-2 -11 -8 -41q-66 -358 -280 -555q-219 -199 -543 -199
q-327 0 -489 217q-163 215 -86 574q68 328 297 530q232 203 546 203q275 0 428 -138q154 -138 152 -374h-219q-1 147 -102 231t-279 84z" />
    <glyph glyph-name="R.ss04" horiz-adv-x="1318" 
d="M326 1458h579q247 0 366 -131q117 -129 70 -356q-30 -154 -146 -256q-116 -103 -294 -131l283 -584h-254l-277 573h-297l-120 -573h-220zM1122 999q30 133 -32 201q-64 70 -211 70h-375l-107 -510h391q136 0 223 63t111 176z" />
    <glyph glyph-name="Racute.ss04" horiz-adv-x="1318" 
d="M954 1841h265l-308 -295h-188zM326 1458h579q247 0 366 -131q117 -129 70 -356q-30 -154 -146 -256q-116 -103 -294 -131l283 -584h-254l-277 573h-297l-120 -573h-220zM1122 999q30 133 -32 201q-64 70 -211 70h-375l-107 -510h391q136 0 223 63t111 176z" />
    <glyph glyph-name="Rcaron.ss04" horiz-adv-x="1318" 
d="M1280 1841l-293 -295h-274l-178 295h190l137 -184l217 184h201zM326 1458h579q247 0 366 -131q117 -129 70 -356q-30 -154 -146 -256q-116 -103 -294 -131l283 -584h-254l-277 573h-297l-120 -573h-220zM1122 999q30 133 -32 201q-64 70 -211 70h-375l-107 -510h391
q136 0 223 63t111 176z" />
    <glyph glyph-name="uni0156.ss04" horiz-adv-x="1318" 
d="M326 1458h579q247 0 366 -131q117 -129 70 -356q-30 -154 -146 -256q-116 -103 -294 -131l283 -584h-254l-277 573h-297l-120 -573h-220zM1122 999q30 133 -32 201q-64 70 -211 70h-375l-107 -510h391q136 0 223 63t111 176zM557 -274h-106l38 186h222l-47 -219
q-33 -161 -224 -172l-32 -2l18 94l29 2q82 6 94 72z" />
    <glyph glyph-name="uni0156.ss01.ss04" horiz-adv-x="1318" 
d="M326 1458h579q247 0 366 -131q117 -129 70 -356q-30 -154 -146 -256q-116 -103 -294 -131l283 -584h-254l-277 573h-297l-120 -573h-220zM1122 999q30 133 -32 201q-64 70 -211 70h-375l-107 -510h391q136 0 223 63t111 176zM575 -78q56 0 89 -35q32 -33 32 -102
q0 -100 -75 -176q-77 -80 -203 -92l22 94q96 17 129 98q-43 1 -77 31q-33 28 -33 72q0 46 33 78q34 32 83 32z" />
    <glyph glyph-name="i.loclTRK" horiz-adv-x="434" 
d="M467 1206h-209l45 219h209zM207 0h-205l225 1057h205z" />
    <glyph glyph-name="adieresis.ss01" horiz-adv-x="1101" 
d="M596 1233q-37 -37 -88 -37q-52 0 -86 37q-37 34 -37 86q0 51 37 88q51 61 132 27q82 -35 77 -115q0 -46 -35 -86zM971 1233q-57 -60 -135 -28q-78 31 -78 114q0 51 37 88t88 37q49 0 86 -37t37 -88q0 -46 -35 -86zM1014 705l-99 -463q-23 -84 46 -84h51l-35 -158
q-47 -6 -100 -6q-170 0 -172 137q-131 -156 -353 -156q-182 0 -273 99t-54 266q51 235 444 274l170 19q87 10 130 35q42 24 54 77q39 173 -198 173q-117 0 -181 -44t-92 -147h-200q50 187 162 270q114 84 329 84q453 0 371 -376zM403 135q127 0 226 75t123 206l26 121
q-52 -31 -143 -43l-150 -21q-123 -16 -182 -55q-59 -38 -74 -105q-34 -178 174 -178z" />
    <glyph glyph-name="cdotaccent.ss01" horiz-adv-x="1087" 
d="M803 1233q-37 -37 -88 -37t-88 37t-37 88t37 88t88 37t88 -37t37 -88t-37 -88zM479 -25q-229 0 -346 162q-119 162 -57 445q47 225 203 362q152 137 383 137q197 0 307 -106q110 -105 102 -287h-215q-1 105 -61 160q-59 55 -160 55q-131 0 -225 -93t-129 -267
q-37 -189 24 -289t197 -100q226 0 299 223h209q-57 -190 -196 -296t-335 -106z" />
    <glyph glyph-name="edieresis.ss01" horiz-adv-x="1136" 
d="M610 1233q-37 -37 -88 -37q-52 0 -86 37q-37 34 -37 86q0 51 37 88q51 61 132 27q82 -35 77 -115q0 -46 -35 -86zM985 1233q-57 -60 -135 -28q-78 31 -78 114q0 51 37 88t88 37q49 0 86 -37t37 -88q0 -46 -35 -86zM662 1081q239 0 352 -159q113 -158 53 -402
q-2 -16 -16 -59h-793q-17 -154 48 -234t192 -80q208 0 299 177h207q-141 -349 -525 -349q-234 0 -348 158q-119 158 -59 432q45 227 209 373q161 143 381 143zM641 909q-122 0 -214 -74t-136 -212h583q16 128 -46 207q-63 79 -187 79z" />
    <glyph glyph-name="edotaccent.ss01" horiz-adv-x="1136" 
d="M713 1196q-53 0 -89 37t-36 88t37 88t88 37t88 -37t37 -88t-37 -88t-88 -37zM662 1081q239 0 352 -159q113 -158 53 -402q-2 -16 -16 -59h-793q-17 -154 48 -234t192 -80q208 0 299 177h207q-141 -349 -525 -349q-234 0 -348 158q-119 158 -59 432q45 227 209 373
q161 143 381 143zM641 909q-122 0 -214 -74t-136 -212h583q16 128 -46 207q-63 79 -187 79z" />
    <glyph glyph-name="uni0123.ss01" horiz-adv-x="1198" 
d="M823 1229q-39 -28 -86 -33q-46 -4 -86 34t-35 101q0 101 77 180t202 91l-23 -97q-97 -17 -127 -96q44 -1 78 -31q33 -29 33 -71q0 -48 -33 -78zM969 909l32 148h197l-217 -1020q-51 -234 -186 -348q-136 -115 -383 -115q-215 0 -322 94q-108 95 -98 258h207
q-2 -93 56 -139q59 -47 175 -47q280 0 346 305l17 72q-137 -129 -322 -129q-231 0 -342 166q-110 167 -53 428q52 237 207 368q152 131 362 131q228 0 324 -172zM518 164q138 0 240 93t141 257l8 39q30 167 -35 259q-66 93 -210 93q-142 0 -240 -94q-99 -94 -133 -260
q-39 -179 23 -283t206 -104z" />
    <glyph glyph-name="gdotaccent.ss01" horiz-adv-x="1198" 
d="M745 1196q-53 0 -89 37q-35 36 -35 88t36 88q37 37 88 37q52 0 89 -37q36 -36 36 -88t-36 -88q-37 -37 -89 -37zM969 909l32 148h197l-217 -1020q-51 -234 -186 -348q-136 -115 -383 -115q-215 0 -322 94q-108 95 -98 258h207q-2 -93 56 -139q59 -47 175 -47
q280 0 346 305l17 72q-137 -129 -322 -129q-231 0 -342 166q-110 167 -53 428q52 237 207 368q152 131 362 131q228 0 324 -172zM518 164q138 0 240 93t141 257l8 39q30 167 -35 259q-66 93 -210 93q-142 0 -240 -94q-99 -94 -133 -260q-39 -179 23 -283t206 -104z" />
    <glyph glyph-name="i.ss01" horiz-adv-x="434" 
d="M475 1233q-37 -37 -88 -37t-88 37t-37 88t37 88t88 37t88 -37t37 -88t-37 -88zM207 0h-205l225 1057h205z" />
    <glyph glyph-name="idieresis.ss01" horiz-adv-x="434" 
d="M217 1196q-48 0 -85 35q-36 35 -36 86q0 48 35 85q34 36 86 36q48 0 85 -35q36 -35 36 -86q0 -48 -35 -85q-35 -36 -86 -36zM641 1233q-38 -37 -86 -37q-47 0 -86 36q-38 36 -37 85q0 49 36 85t87 36q49 1 85 -36q36 -38 36 -85q0 -46 -35 -84zM207 0h-205l225 1057h205z
" />
    <glyph glyph-name="i.loclTRK.ss01" horiz-adv-x="434" 
d="M475 1233q-37 -37 -88 -37t-88 37t-37 88t37 88t88 37t88 -37t37 -88t-37 -88zM207 0h-205l225 1057h205z" />
    <glyph glyph-name="ij.ss01" horiz-adv-x="874" 
d="M475 1233q-37 -37 -88 -37t-88 37t-37 88t37 88t88 37t88 -37t37 -88t-37 -88zM909 1233q-37 -37 -88 -37t-88 37t-37 88t37 88t88 37t88 -37t37 -88t-37 -88zM207 0h-205l225 1057h205zM322 -408q-104 0 -132 2l35 170h72q49 0 75 27q25 26 40 94l250 1172h204
l-254 -1192q-57 -273 -290 -273z" />
    <glyph glyph-name="iogonek.ss01" horiz-adv-x="434" 
d="M299 1409q37 37 88 37t88 -37t37 -88t-37 -88t-88 -37t-88 37t-37 88t37 88zM66 0h-64l225 1057h205l-225 -1057q-158 -90 -176 -195q-23 -90 67 -90q37 0 76 17l-29 -138q-37 -20 -106 -20q-93 0 -139 55q-47 56 -29 148q33 143 195 223z" />
    <glyph glyph-name="j.ss01" horiz-adv-x="440" 
d="M475 1233q-37 -37 -88 -37t-88 37t-37 88t37 88t88 37t88 -37t37 -88t-37 -88zM-113 -408q-103 0 -131 2l35 170h72q49 0 75 27q24 25 39 94l250 1172h205l-254 -1192q-57 -273 -291 -273z" />
    <glyph glyph-name="uni0137.ss01" horiz-adv-x="1073" 
d="M891 1057h260l-479 -393l280 -664h-215l-221 543l-235 -187l-76 -356h-203l311 1458h203l-182 -854zM416 -78q55 0 88 -35t33 -102q0 -99 -76 -176q-77 -80 -203 -92l23 94q96 17 129 98q-44 1 -78 31q-33 28 -33 72q0 46 33 78q34 32 84 32z" />
    <glyph glyph-name="uni013C.ss01" horiz-adv-x="434" 
d="M4 0l309 1458h205l-309 -1458h-205zM68 -78q55 0 88 -35q32 -33 32 -102q0 -100 -75 -176q-77 -80 -203 -92l22 94q96 17 129 98q-43 1 -77 31q-33 28 -33 72q0 46 33 78q34 32 84 32z" />
    <glyph glyph-name="ldot.ss01" horiz-adv-x="880" 
d="M209 0h-205l309 1458h205zM702 586q-64 0 -104 40q-41 41 -41 101q0 59 41 98q40 39 104 39q57 0 97 -40q41 -41 41 -97q0 -59 -41 -100t-97 -41z" />
    <glyph glyph-name="napostrophe.ss01" horiz-adv-x="1464" 
d="M524 1309q0 -132 -94 -244q-97 -115 -258 -127l27 121q135 24 174 155q-53 5 -87 37q-34 33 -34 84q0 55 38 93t97 38q62 0 99 -40q38 -41 38 -117zM1085 1081q183 0 261 -112q77 -111 30 -328l-139 -641h-207l137 649q53 252 -157 252q-120 0 -215 -81
q-95 -82 -125 -224h-2l-125 -596h-207l225 1057h199l-33 -144q150 168 358 168z" />
    <glyph glyph-name="uni0146.ss01" horiz-adv-x="1130" 
d="M752 1081q180 0 258 -112q77 -111 30 -328l-139 -641h-205l138 649q51 252 -160 252q-120 0 -215 -81q-95 -82 -125 -224l-127 -596h-205l225 1057h197l-31 -144q147 168 359 168zM422 -78q55 0 88 -35t33 -102q0 -99 -76 -176q-78 -80 -203 -92l23 94q95 17 129 98
q-44 1 -78 31q-33 28 -33 72q0 46 33 78q34 32 84 32z" />
    <glyph glyph-name="odieresis.ss01" horiz-adv-x="1177" 
d="M645 1233q-37 -37 -88 -37q-52 0 -86 37q-37 34 -37 86q0 51 37 88q51 61 132 27q82 -35 77 -115q0 -46 -35 -86zM1020 1233q-57 -60 -135 -28q-78 31 -78 114q0 51 37 88t88 37q49 0 86 -37t37 -88q0 -46 -35 -86zM502 -25q-254 0 -371 159t-57 437q45 223 215 369
q167 141 387 141q255 0 370 -158q115 -159 58 -436q-45 -222 -213 -368q-168 -144 -389 -144zM512 152q142 0 245 97q104 98 138 263q41 185 -22 289q-62 104 -207 104q-139 0 -244 -99q-104 -98 -139 -259q-41 -187 22 -291q62 -104 207 -104z" />
    <glyph glyph-name="uni0157.ss01" horiz-adv-x="749" 
d="M758 1073q37 0 57 -2l-41 -194h-51q-151 0 -252 -72q-99 -71 -137 -211l-127 -594h-205l225 1057h197l-35 -164q147 180 369 180zM61 -78q56 0 89 -35q32 -33 32 -102q0 -99 -76 -176q-79 -80 -202 -92l22 94q95 17 129 98q-44 1 -78 31q-32 28 -32 72q0 47 32 78
q34 32 84 32z" />
    <glyph glyph-name="uni0219.ss01" horiz-adv-x="985" 
d="M961 727h-199q16 104 -34 150q-50 45 -169 45q-98 0 -161 -36q-62 -35 -74 -98q-15 -68 25 -105t145 -58l100 -17q185 -35 254 -120q70 -86 37 -238q-27 -133 -145 -204q-120 -73 -320 -73q-232 0 -338 89q-105 89 -84 274h205q-8 -109 46 -155q53 -46 189 -46
q215 0 242 131q16 76 -24 116q-39 39 -160 60l-95 17q-335 61 -274 350q27 129 145 201q117 71 306 71q211 0 307 -90q97 -91 76 -264zM379 -104q55 0 88 -35t33 -103q0 -99 -76 -176q-77 -80 -203 -92l23 94q96 15 129 99q-45 1 -78 30t-33 72q0 47 33 79q34 32 84 32z" />
    <glyph glyph-name="uni021B.ss01" horiz-adv-x="665" 
d="M694 889h-215l-127 -602q-24 -123 94 -123h93l-35 -164q-67 -6 -109 -6q-149 0 -215 77t-33 218l127 600h-170l37 168h170l64 303h205l-64 -303h213zM309 -78q55 0 88 -35t33 -102q0 -99 -76 -176q-77 -80 -202 -92l22 94q96 17 129 98q-44 1 -78 31q-32 28 -32 72
q0 47 32 78q34 32 84 32z" />
    <glyph glyph-name="udieresis.ss01" horiz-adv-x="1130" 
d="M623 1233q-37 -37 -88 -37q-52 0 -86 37q-37 34 -37 86q0 51 37 88q51 61 132 27t76 -115q0 -48 -34 -86zM997 1233q-57 -60 -135 -28q-78 31 -78 114q0 51 37 88t88 37q49 0 86 -37t37 -88q0 -46 -35 -86zM797 461l125 596h204l-225 -1057h-196l32 143
q-150 -168 -358 -168q-182 0 -260 113q-78 112 -31 328l139 641h205l-135 -649q-51 -252 158 -252q121 0 215 81q95 82 125 224h2z" />
    <glyph glyph-name="wdieresis.ss01" horiz-adv-x="1636" 
d="M856 1233q-37 -37 -88 -37q-52 0 -86 37q-37 34 -37 86q0 51 37 88q51 61 132 27q82 -35 77 -115q0 -46 -35 -86zM1231 1233q-57 -60 -135 -28q-78 31 -78 114q0 51 37 88t88 37q49 0 86 -37t37 -88q0 -46 -35 -86zM1274 616l229 441h230l-576 -1057h-217l-45 465
q-19 154 -29 348q-90 -190 -170 -348l-243 -465h-215l-125 1057h211l43 -441q15 -204 17 -233q8 -113 11 -145q98 201 189 378l227 441h205l39 -441q15 -162 28 -385q63 139 191 385z" />
    <glyph glyph-name="ydieresis.ss01" horiz-adv-x="1019" 
d="M561 1233q-37 -37 -88 -37q-52 0 -86 37q-37 34 -37 86q0 51 37 88q51 61 132 27q82 -35 77 -115q0 -46 -35 -86zM936 1233q-57 -60 -135 -28q-78 31 -78 114q0 51 37 88t88 37q49 0 86 -37t37 -88q0 -46 -35 -86zM700 694l201 363h223l-682 -1186q-90 -152 -176 -213
q-89 -59 -250 -59q-43 0 -127 4l35 168h103q140 0 209 125l43 75l-158 1086h219l45 -393q30 -288 49 -478q112 226 266 508z" />
    <glyph glyph-name="zdotaccent.ss01" horiz-adv-x="1007" 
d="M655 1196q-53 0 -89 37t-36 88t37 88t88 37t88 -37t37 -88t-37 -88t-88 -37zM1028 1057l-33 -144l-573 -579q-118 -118 -170 -168q66 2 223 2h389l-37 -168h-872l31 143l573 580q103 103 172 168q-66 -2 -219 -2h-352l37 168h831z" />
    <glyph glyph-name="a.ss02" horiz-adv-x="1196" 
d="M958 913l31 144h205l-225 -1057h-197l25 113q-146 -138 -336 -138q-229 0 -336 162q-110 161 -53 424q51 234 202 379q152 141 369 141q227 0 315 -168zM510 152q149 0 248 93q98 92 137 271q43 186 -23 290q-66 103 -221 103q-137 0 -236 -99q-99 -100 -134 -269
q-39 -189 21 -289t208 -100z" />
    <glyph glyph-name="aacute.ss02" horiz-adv-x="1196" 
d="M799 1501h245l-260 -295h-166zM958 913l31 144h205l-225 -1057h-197l25 113q-146 -138 -336 -138q-229 0 -336 162q-110 161 -53 424q51 234 202 379q152 141 369 141q227 0 315 -168zM510 152q149 0 248 93q98 92 137 271q43 186 -23 290q-66 103 -221 103
q-137 0 -236 -99q-99 -100 -134 -269q-39 -189 21 -289t208 -100z" />
    <glyph glyph-name="abreve.ss02" horiz-adv-x="1196" 
d="M731 1196q-144 0 -224 83t-65 222h164q-4 -73 34 -116q38 -42 108 -42q136 0 186 158h166q-34 -147 -133 -226q-98 -79 -236 -79zM958 913l31 144h205l-225 -1057h-197l25 113q-146 -138 -336 -138q-229 0 -336 162q-110 161 -53 424q51 234 202 379q152 141 369 141
q227 0 315 -168zM510 152q149 0 248 93q98 92 137 271q43 186 -23 290q-66 103 -221 103q-137 0 -236 -99q-99 -100 -134 -269q-39 -189 21 -289t208 -100z" />
    <glyph glyph-name="acircumflex.ss02" horiz-adv-x="1196" 
d="M887 1206l-137 183l-218 -183h-200l295 295h272l178 -295h-190zM958 913l31 144h205l-225 -1057h-197l25 113q-146 -138 -336 -138q-229 0 -336 162q-110 161 -53 424q51 234 202 379q152 141 369 141q227 0 315 -168zM510 152q149 0 248 93q98 92 137 271
q43 186 -23 290q-66 103 -221 103q-137 0 -236 -99q-99 -100 -134 -269q-39 -189 21 -289t208 -100z" />
    <glyph glyph-name="adieresis.ss02" horiz-adv-x="1196" 
d="M461 1425h209l-47 -219h-209zM836 1425h208l-45 -219h-211zM958 913l31 144h205l-225 -1057h-197l25 113q-146 -138 -336 -138q-229 0 -336 162q-110 161 -53 424q51 234 202 379q152 141 369 141q227 0 315 -168zM510 152q149 0 248 93q98 92 137 271q43 186 -23 290
q-66 103 -221 103q-137 0 -236 -99q-99 -100 -134 -269q-39 -189 21 -289t208 -100z" />
    <glyph glyph-name="agrave.ss02" horiz-adv-x="1196" 
d="M737 1501l56 -295h-164l-137 295h245zM958 913l31 144h205l-225 -1057h-197l25 113q-146 -138 -336 -138q-229 0 -336 162q-110 161 -53 424q51 234 202 379q152 141 369 141q227 0 315 -168zM510 152q149 0 248 93q98 92 137 271q43 186 -23 290q-66 103 -221 103
q-137 0 -236 -99q-99 -100 -134 -269q-39 -189 21 -289t208 -100z" />
    <glyph glyph-name="amacron.ss02" horiz-adv-x="1196" 
d="M428 1362h621l-35 -156h-621zM958 913l31 144h205l-225 -1057h-197l25 113q-146 -138 -336 -138q-229 0 -336 162q-110 161 -53 424q51 234 202 379q152 141 369 141q227 0 315 -168zM510 152q149 0 248 93q98 92 137 271q43 186 -23 290q-66 103 -221 103
q-137 0 -236 -99q-99 -100 -134 -269q-39 -189 21 -289t208 -100z" />
    <glyph glyph-name="aogonek.ss02" horiz-adv-x="1196" 
d="M1194 1057l-225 -1057q-231 -102 -252 -190q-8 -43 18 -66q28 -25 68 -25q51 0 110 19l-30 -144q-57 -20 -142 -20q-102 0 -164 59q-63 60 -45 148q15 67 81 126t171 93h-12l25 113q-146 -138 -336 -138q-229 0 -336 162q-110 161 -53 424q51 234 202 379
q152 141 369 141q227 0 315 -168l31 144h205zM510 152q149 0 248 93q98 92 137 271q43 186 -23 290q-66 103 -221 103q-137 0 -236 -99q-99 -100 -134 -269q-39 -189 21 -289t208 -100z" />
    <glyph glyph-name="aring.ss02" horiz-adv-x="1196" 
d="M760 1196q-118 0 -197 75q-80 75 -80 189q0 113 80 188q78 74 197 74q115 0 194 -73q80 -77 80 -189q0 -114 -80 -188q-77 -76 -194 -76zM852 1552q-56 58 -142 25q-87 -33 -81 -117q0 -54 38 -92q37 -37 93 -37q82 -7 118 79t-26 142zM958 913l31 144h205l-225 -1057
h-197l25 113q-146 -138 -336 -138q-229 0 -336 162q-110 161 -53 424q51 234 202 379q152 141 369 141q227 0 315 -168zM510 152q149 0 248 93q98 92 137 271q43 186 -23 290q-66 103 -221 103q-137 0 -236 -99q-99 -100 -134 -269q-39 -189 21 -289t208 -100z" />
    <glyph glyph-name="aringacute.ss02" horiz-adv-x="1196" 
d="M926 2128h245l-260 -295h-166zM760 1196q-118 0 -197 75q-80 75 -80 189q0 113 80 188q78 74 197 74q115 0 194 -73q80 -77 80 -189q0 -114 -80 -188q-77 -76 -194 -76zM852 1552q-56 58 -142 25q-87 -33 -81 -117q0 -54 38 -92q37 -37 93 -37q82 -7 118 79t-26 142z
M958 913l31 144h205l-225 -1057h-197l25 113q-146 -138 -336 -138q-229 0 -336 162q-110 161 -53 424q51 234 202 379q152 141 369 141q227 0 315 -168zM510 152q149 0 248 93q98 92 137 271q43 186 -23 290q-66 103 -221 103q-137 0 -236 -99q-99 -100 -134 -269
q-39 -189 21 -289t208 -100z" />
    <glyph glyph-name="atilde.ss02" horiz-adv-x="1196" 
d="M586 1300q-61 0 -82 -94h-154q57 260 248 260q68 0 162 -51q76 -43 121 -43q61 0 82 94h153q-57 -260 -248 -260q-61 0 -168 56q-77 38 -114 38zM958 913l31 144h205l-225 -1057h-197l25 113q-146 -138 -336 -138q-229 0 -336 162q-110 161 -53 424q51 234 202 379
q152 141 369 141q227 0 315 -168zM510 152q149 0 248 93q98 92 137 271q43 186 -23 290q-66 103 -221 103q-137 0 -236 -99q-99 -100 -134 -269q-39 -189 21 -289t208 -100z" />
    <glyph glyph-name="adieresis.ss01.ss02" horiz-adv-x="1196" 
d="M629 1233q-37 -37 -88 -37q-52 0 -86 37q-37 34 -37 86q0 51 37 88q51 61 132 27q82 -35 77 -115q0 -46 -35 -86zM1004 1233q-57 -60 -136 -28q-77 31 -77 114q0 52 36 88q37 37 88 37q49 0 86 -37t37 -88q0 -48 -34 -86zM958 913l31 144h205l-225 -1057h-197l25 113
q-146 -138 -336 -138q-229 0 -336 162q-110 161 -53 424q51 234 202 379q152 141 369 141q227 0 315 -168zM510 152q149 0 248 93q98 92 137 271q43 186 -23 290q-66 103 -221 103q-137 0 -236 -99q-99 -100 -134 -269q-39 -189 21 -289t208 -100z" />
    <glyph glyph-name="uni021B.ss01.ss05" horiz-adv-x="641" 
d="M528 1057h189l-35 -168h-188l-189 -889h-205l189 889h-170l35 168h170l63 303h205zM164 -78q55 0 88 -35t33 -102q0 -99 -76 -176q-78 -80 -203 -92l23 94q95 17 129 98q-44 1 -78 31q-33 28 -33 72q0 46 33 78q34 32 84 32z" />
    <glyph glyph-name="udieresis.ss01.ss05" horiz-adv-x="1130" 
d="M623 1233q-37 -37 -88 -37q-52 0 -86 37q-37 34 -37 86q0 51 37 88q51 61 132 27t76 -115q0 -48 -34 -86zM997 1233q-57 -60 -135 -28q-78 31 -78 114q0 51 37 88t88 37q49 0 86 -37t37 -88q0 -46 -35 -86zM797 461l125 596h204l-225 -1057h-196l32 143
q-150 -168 -358 -168q-182 0 -260 113q-78 112 -31 328l139 641h205l-135 -649q-51 -252 158 -252q121 0 215 81q95 82 125 224h2z" />
    <glyph glyph-name="t.ss05" horiz-adv-x="641" 
d="M528 1057h189l-35 -168h-188l-189 -889h-205l189 889h-170l35 168h170l63 303h205z" />
    <glyph glyph-name="tbar.ss05" horiz-adv-x="649" 
d="M725 1057l-35 -168h-188l-58 -271h177l-29 -145h-178l-101 -473h-207l101 473h-172l26 145h177l57 271h-170l37 168h170l63 303h205l-63 -303h188z" />
    <glyph glyph-name="tcaron.ss05" horiz-adv-x="641" 
d="M623 1118l145 340h207l-197 -340h-155zM387 1360h205l-64 -303h189l-35 -168h-188l-189 -889h-205l189 889h-170l35 168h170z" />
    <glyph glyph-name="uni0163.ss05" horiz-adv-x="641" 
d="M494 889l-189 -889h-26l-97 -88h13q89 0 135 -55t30 -133q-41 -170 -309 -170q-87 0 -147 12l22 100q54 -8 127 -8q119 0 135 84q6 39 -19 63q-27 25 -81 25q-31 0 -55 -2l16 78l94 94h-43l189 889h-170l35 168h170l63 303h205l-64 -303h189l-35 -168h-188z" />
    <glyph glyph-name="uni021B.ss05" horiz-adv-x="641" 
d="M528 1057h189l-35 -168h-188l-189 -889h-205l189 889h-170l35 168h170l63 303h205zM143 -274h-106l39 186h221l-47 -219q-33 -162 -223 -172l-33 -2l18 94l29 2q82 6 94 72z" />
    <glyph glyph-name="udieresis.ss01.ss06" horiz-adv-x="1130" 
d="M627 1233q-37 -37 -88 -37q-52 0 -86 37q-37 34 -37 86q0 51 37 88q51 61 132 27q82 -35 77 -115q0 -46 -35 -86zM1001 1233q-57 -60 -135 -28q-78 31 -78 114q0 51 37 88t88 37q49 0 86 -37t37 -88q0 -46 -35 -86zM481 -25q-205 0 -317 136q-111 130 -64 360l125 586
h207l-133 -619q-29 -130 28 -207q56 -77 171 -77q106 0 182 70q75 69 104 204l136 629h206l-141 -664q-43 -195 -174 -306q-132 -112 -330 -112z" />
    <glyph glyph-name="u.ss06" horiz-adv-x="1130" 
d="M481 -25q-205 0 -317 136q-111 130 -64 360l125 586h207l-133 -619q-29 -130 28 -207q56 -77 171 -77q106 0 182 70q75 69 104 204l136 629h206l-141 -664q-43 -195 -174 -306q-132 -112 -330 -112z" />
    <glyph glyph-name="uacute.ss06" horiz-adv-x="1130" 
d="M784 1206h-166l181 295h245zM481 -25q-205 0 -317 136q-111 130 -64 360l125 586h207l-133 -619q-29 -130 28 -207q56 -77 171 -77q106 0 182 70q75 69 104 204l136 629h206l-141 -664q-43 -195 -174 -306q-132 -112 -330 -112z" />
    <glyph glyph-name="ubreve.ss06" horiz-adv-x="1130" 
d="M729 1196q-144 0 -224 83t-65 222h164q-4 -73 34 -116q37 -42 107 -42q137 0 187 158h166q-34 -147 -133 -226q-98 -79 -236 -79zM481 -25q-205 0 -317 136q-111 130 -64 360l125 586h207l-133 -619q-29 -130 28 -207q56 -77 171 -77q106 0 182 70q75 69 104 204l136 629
h206l-141 -664q-43 -195 -174 -306q-132 -112 -330 -112z" />
    <glyph glyph-name="ucircumflex.ss06" horiz-adv-x="1130" 
d="M885 1206l-137 183l-218 -183h-200l295 295h272l178 -295h-190zM784 428l136 629h206l-141 -664q-43 -195 -174 -306q-132 -112 -330 -112q-205 0 -317 136q-111 130 -64 360l125 586h207l-133 -619q-29 -130 28 -207q56 -77 171 -77q106 0 182 70q75 69 104 204z" />
    <glyph glyph-name="udieresis.ss06" horiz-adv-x="1130" 
d="M621 1206h-209l47 219h209zM997 1206h-211l48 219h208zM481 -25q-205 0 -317 136q-111 130 -64 360l125 586h207l-133 -619q-29 -130 28 -207q56 -77 171 -77q106 0 182 70q75 69 104 204l136 629h206l-141 -664q-43 -195 -174 -306q-132 -112 -330 -112z" />
    <glyph glyph-name="ugrave.ss06" horiz-adv-x="1130" 
d="M791 1206h-164l-138 295h246zM481 -25q-205 0 -317 136q-111 130 -64 360l125 586h207l-133 -619q-29 -130 28 -207q56 -77 171 -77q106 0 182 70q75 69 104 204l136 629h206l-141 -664q-43 -195 -174 -306q-132 -112 -330 -112z" />
    <glyph glyph-name="uhungarumlaut.ss06" horiz-adv-x="1130" 
d="M590 1206h-166l176 295h250zM958 1206h-165l176 295h250zM481 -25q-205 0 -317 136q-111 130 -64 360l125 586h207l-133 -619q-29 -130 28 -207q56 -77 171 -77q106 0 182 70q75 69 104 204l136 629h206l-141 -664q-43 -195 -174 -306q-132 -112 -330 -112z" />
    <glyph glyph-name="umacron.ss06" horiz-adv-x="1130" 
d="M1012 1206h-621l35 156h621zM481 -25q-205 0 -317 136q-111 130 -64 360l125 586h207l-133 -619q-29 -130 28 -207q56 -77 171 -77q106 0 182 70q75 69 104 204l136 629h206l-141 -664q-43 -195 -174 -306q-132 -112 -330 -112z" />
    <glyph glyph-name="uogonek.ss06" horiz-adv-x="1130" 
d="M784 428l136 629h206l-141 -664q-30 -148 -118 -252q-88 -103 -220 -143q-212 -95 -233 -182q-11 -42 15 -66q25 -24 69 -24q59 0 110 18l-30 -143q-56 -21 -140 -21q-102 0 -165 60q-62 59 -44 147q22 116 185 193q-183 23 -270 154q-87 132 -44 337l125 586h207
l-133 -619q-29 -130 28 -207q56 -77 171 -77q106 0 182 70q75 69 104 204z" />
    <glyph glyph-name="uring.ss06" horiz-adv-x="1130" 
d="M758 1196q-118 0 -197 75q-80 75 -80 189q0 113 80 188q78 74 197 74q115 0 194 -73q80 -77 80 -189q0 -114 -80 -188q-77 -76 -194 -76zM758 1331q54 0 91 37q38 38 38 92q0 55 -37 91q-38 36 -92 36q-56 0 -93 -36q-38 -36 -38 -91q0 -54 38 -92q37 -37 93 -37z
M481 -25q-205 0 -317 136q-111 130 -64 360l125 586h207l-133 -619q-29 -130 28 -207q56 -77 171 -77q106 0 182 70q75 69 104 204l136 629h206l-141 -664q-43 -195 -174 -306q-132 -112 -330 -112z" />
    <glyph glyph-name="utilde.ss06" horiz-adv-x="1130" 
d="M504 1206h-154q57 260 248 260q68 0 162 -51q76 -43 121 -43q61 0 82 94h153q-57 -260 -248 -260q-61 0 -168 56q-77 38 -114 38q-61 0 -82 -94zM481 -25q-205 0 -317 136q-111 130 -64 360l125 586h207l-133 -619q-29 -130 28 -207q56 -77 171 -77q106 0 182 70
q75 69 104 204l136 629h206l-141 -664q-43 -195 -174 -306q-132 -112 -330 -112z" />
    <glyph glyph-name="ydieresis.ss01.ss07" horiz-adv-x="1019" 
d="M580 1233q-37 -37 -88 -37q-52 0 -86 37q-37 34 -37 86q0 51 37 88q51 61 132 27t76 -115q0 -48 -34 -86zM954 1233q-57 -60 -135 -28q-78 31 -78 114q0 51 37 88t88 37q49 0 86 -37t37 -88q0 -46 -35 -86zM702 713l199 344h225l-616 -1012l-268 -446h-207l268 440
l-182 1018h219l55 -381q0 -5 4 -28.5t7 -44.5q8 -60 12 -97q4 -27 14 -109.5t17 -134.5q40 74 122 219q90 158 131 232z" />
    <glyph glyph-name="y.ss07" horiz-adv-x="1019" 
d="M702 713l199 344h225l-616 -1012l-268 -446h-207l268 440l-182 1018h219l55 -381q0 -5 4 -28.5t7 -44.5q8 -60 12 -97q4 -27 14 -109.5t17 -134.5q40 74 122 219q90 158 131 232z" />
    <glyph glyph-name="yacute.ss07" horiz-adv-x="1019" 
d="M752 1501h245l-260 -295h-166zM702 713l199 344h225l-616 -1012l-268 -446h-207l268 440l-182 1018h219l55 -381q0 -5 4 -28.5t7 -44.5q8 -60 12 -97q4 -27 14 -109.5t17 -134.5q40 74 122 219q90 158 131 232z" />
    <glyph glyph-name="ycircumflex.ss07" horiz-adv-x="1019" 
d="M838 1206l-138 183l-217 -183h-200l295 295h272l178 -295h-190zM702 713l199 344h225l-616 -1012l-268 -446h-207l268 440l-182 1018h219l55 -381q0 -5 4 -28.5t7 -44.5q8 -60 12 -97q4 -27 14 -109.5t17 -134.5q40 74 122 219q90 158 131 232z" />
    <glyph glyph-name="ydieresis.ss07" horiz-adv-x="1019" 
d="M412 1425h209l-48 -219h-208zM786 1425h209l-45 -219h-211zM702 713l199 344h225l-616 -1012l-268 -446h-207l268 440l-182 1018h219l55 -381q0 -5 4 -28.5t7 -44.5q8 -60 12 -97q4 -27 14 -109.5t17 -134.5q40 74 122 219q90 158 131 232z" />
    <glyph glyph-name="ygrave.ss07" horiz-adv-x="1019" 
d="M688 1501l55 -295h-163l-138 295h246zM702 713l199 344h225l-616 -1012l-268 -446h-207l268 440l-182 1018h219l55 -381q0 -5 4 -28.5t7 -44.5q8 -60 12 -97q4 -27 14 -109.5t17 -134.5q40 74 122 219q90 158 131 232z" />
    <glyph glyph-name="l.ss08" horiz-adv-x="520" 
d="M287 -6q-135 0 -194 77q-57 75 -27 218l247 1169h205l-248 -1171q-24 -123 76 -123h74l-33 -164q-63 -6 -100 -6z" />
    <glyph glyph-name="lacute.ss08" horiz-adv-x="520" 
d="M502 1546h-189l232 295h264zM287 -6q-135 0 -194 77q-57 75 -27 218l247 1169h205l-248 -1171q-24 -123 76 -123h74l-33 -164q-63 -6 -100 -6z" />
    <glyph glyph-name="lcaron.ss08" horiz-adv-x="671" 
d="M287 -6q-135 0 -194 77q-57 75 -27 218l247 1169h205l-248 -1171q-24 -123 76 -123h74l-33 -164q-63 -6 -100 -6zM705 1118h-154l143 340h207z" />
    <glyph glyph-name="uni013C.ss08" horiz-adv-x="520" 
d="M518 1458l-248 -1171q-24 -123 76 -123h74l-33 -164q-63 -6 -100 -6q-135 0 -194 77q-57 75 -27 218l247 1169h205zM47 -274h-106l39 186h221l-47 -219q-33 -161 -224 -172l-32 -2l18 94l29 2q82 6 94 72z" />
    <glyph glyph-name="ldot.ss08" horiz-adv-x="862" 
d="M287 -6q-135 0 -194 77q-57 75 -27 218l247 1169h205l-248 -1171q-24 -123 76 -123h74l-33 -164q-63 -6 -100 -6zM782 602h-247l53 246h248z" />
    <glyph glyph-name="lslash.ss08" horiz-adv-x="542" 
d="M596 791l-182 -86l-88 -418q-27 -123 73 -123h76l-35 -164q-62 -6 -100 -6q-135 0 -194 77q-57 75 -27 218l65 305l-190 -90l35 168l190 90l150 696h204l-124 -588l184 88z" />
    <glyph glyph-name="uni013C.ss01.ss08" horiz-adv-x="520" 
d="M518 1458l-248 -1171q-24 -123 76 -123h74l-33 -164q-63 -6 -100 -6q-135 0 -194 77q-57 75 -27 218l247 1169h205zM68 -78q55 0 88 -35q32 -33 32 -102q0 -100 -75 -176q-77 -80 -203 -92l22 94q96 17 129 98q-43 1 -77 31q-33 28 -33 72q0 46 33 78q34 32 84 32z" />
    <glyph glyph-name="ldot.ss01.ss08" horiz-adv-x="880" 
d="M287 -6q-135 0 -194 77q-57 75 -27 218l247 1169h205l-248 -1171q-24 -123 76 -123h74l-33 -164q-63 -6 -100 -6zM702 586q-64 0 -104 40q-41 41 -41 101q0 59 41 98q40 39 104 39q57 0 97 -40q41 -41 41 -97q0 -59 -41 -100t-97 -41z" />
    <glyph glyph-name="fi.ss01" horiz-adv-x="1099" 
d="M737 1057l-37 -168h-219l-190 -889h-205l188 889h-170l37 168h168l27 123q57 284 373 284q53 0 122 -4l-36 -166h-95q-134 0 -163 -141l-21 -96h221zM965 1409q37 37 88 37t88 -37t37 -88t-37 -88t-88 -37t-88 37t-37 88t37 88zM872 0h-204l225 1057h205z" />
    <glyph glyph-name="fl.ss08" horiz-adv-x="1167" 
d="M516 1057h221l-37 -168h-219l-190 -889h-205l188 889h-170l37 168h168l27 123q57 284 373 284q53 0 122 -4l-36 -166h-95q-134 0 -163 -141zM1165 1458l-247 -1171q-24 -123 75 -123h74l-33 -164q-63 -6 -100 -6q-135 0 -194 77q-57 75 -27 218l248 1169h204z" />
    <glyph glyph-name="ordfeminine.ss02" horiz-adv-x="1052" 
d="M930 1315l31 141h194l-194 -919h-187l27 122q-118 -143 -295 -143q-198 0 -297 141q-98 138 -45 390q44 197 170 313q128 117 313 117q209 0 283 -162zM375 768q52 -90 172 -90q119 0 203 84q83 83 116 231q33 151 -25 236q-59 86 -184 86q-115 0 -191 -78
q-78 -80 -108 -219q-37 -157 17 -250z" />
    <glyph glyph-name="t.sups.ss05" horiz-adv-x="606" 
d="M590 1458h162l-33 -153h-162l-162 -768h-194l164 768h-148l33 153h147l56 264h192z" />
    <glyph glyph-name="zero.ss09" horiz-adv-x="1957" 
d="M1950 -180h-1860v1818h1860v-1818zM739 373q99 -125 281 -125t283 125q98 122 98 356q0 232 -98 357q-99 126 -283 126t-283 -126q-98 -125 -98 -357q0 -235 100 -356zM1214 729q0 -330 -194 -330q-195 0 -195 330q0 332 195 332q194 0 194 -332z" />
    <glyph glyph-name="one.ss09" horiz-adv-x="1957" 
d="M1950 -180h-1860v1818h1860v-1818zM956 913v-647h191v928h-156q-30 -88 -88 -120t-166 -32v-129h219z" />
    <glyph glyph-name="two.ss09" horiz-adv-x="1957" 
d="M1950 -180h-1860v1818h1860v-1818zM674 362l-2 -67h696v151h-496q12 110 158 170l72 31q134 57 196 132q62 76 62 184q0 120 -89 198t-243 78q-163 0 -251 -83q-87 -82 -93 -228h174q1 76 45 118q42 41 119 41q162 0 162 -133q0 -110 -156 -172l-65 -26
q-278 -112 -289 -394z" />
    <glyph glyph-name="three.ss09" horiz-adv-x="1957" 
d="M1950 -180h-1860v1818h1860v-1818zM1024 248q162 0 259 79t97 208q0 83 -43 142q-45 62 -118 85q62 27 100 81q37 53 37 120q0 114 -89 182q-88 67 -241 67q-157 0 -244 -71q-88 -72 -96 -207h172q15 137 166 137q76 0 119 -34t43 -91q0 -131 -168 -131h-64v-131h60
q188 0 188 -143q0 -68 -49 -108t-131 -40q-191 0 -195 178h-172q1 -153 98 -239q95 -84 271 -84z" />
    <glyph glyph-name="four.ss09" horiz-adv-x="1957" 
d="M1950 -180h-1860v1818h1860v-1818zM1047 502v-217h180v217h131v147h-131v559h-187l-448 -528v-178h455zM1055 649h-318l318 369v-369z" />
    <glyph glyph-name="five.ss09" horiz-adv-x="1957" 
d="M1950 -180h-1860v1818h1860v-1818zM1022 246q154 0 252 88t98 231q0 142 -84 229t-225 87q-122 0 -188 -60l38 215h418v152h-555l-94 -535h172q47 97 168 97q80 0 130 -52t50 -133q0 -77 -50 -129q-50 -51 -130 -51q-143 0 -180 133h-174q17 -126 112 -199t242 -73z" />
    <glyph glyph-name="six.ss09" horiz-adv-x="1957" 
d="M1950 -180h-1860v1818h1860v-1818zM1020 248q155 0 253 89q97 88 97 232q0 138 -88 226q-90 90 -233 90q-148 0 -234 -101v13q15 276 211 276q130 0 160 -110h172q-22 117 -110 183q-87 66 -220 66q-187 0 -283 -129t-96 -372q0 -284 148 -396q88 -67 223 -67zM1020 389
q-79 0 -128 49q-50 50 -50 127q0 78 50 128t128 50q79 0 131 -50q51 -49 51 -128q0 -77 -51 -127q-50 -49 -131 -49z" />
    <glyph glyph-name="seven.ss09" horiz-adv-x="1957" 
d="M1950 -180h-1860v1818h1860v-1818zM852 244h190q5 266 78 440q73 177 232 330v153h-645v-151h475q-150 -143 -237 -344q-89 -206 -93 -428z" />
    <glyph glyph-name="eight.ss09" horiz-adv-x="1957" 
d="M1950 -180h-1860v1818h1860v-1818zM756 324q95 -76 264 -76q166 0 266 76q98 77 98 200q0 167 -163 234q120 67 120 200q0 117 -87 186q-86 68 -234 68q-149 0 -235 -68q-87 -69 -87 -186q0 -134 123 -200q-166 -67 -166 -234q0 -123 101 -200zM1139 848
q-45 -39 -119 -39q-76 0 -117 39q-45 38 -45 100t44 98q42 35 118 35q75 0 119 -35q45 -36 45 -98t-45 -100zM1161 428q-53 -41 -141 -41q-87 0 -139 41q-52 40 -52 113q0 70 52 114q53 41 139 41t139 -41q51 -43 51 -114q0 -74 -49 -113z" />
    <glyph glyph-name="nine.ss09" horiz-adv-x="1957" 
d="M1950 -180h-1860v1818h1860v-1818zM1018 248q186 0 284 128q97 127 97 374q0 281 -152 395q-85 67 -221 67q-160 0 -257 -88t-97 -233q0 -136 92 -225q90 -93 233 -93t222 91l10 10q0 -8 -2 -10q-15 -275 -209 -275q-124 0 -158 111h-174q21 -121 109 -186
q89 -66 223 -66zM1026 717q-80 0 -130 50t-50 130q0 76 50 124t130 48q78 0 127 -48t49 -124q0 -77 -50 -129q-50 -51 -126 -51z" />
    <glyph glyph-name="zero.ss10" horiz-adv-x="1957" 
d="M1950 -180h-1860v1818h1860v-1818zM281 1466v-1474h1478v1474h-1478zM1309 375q-99 -129 -289 -129q-193 0 -287 129q-98 126 -98 354q0 234 98 360q99 128 287 128t287 -128q98 -126 98 -360q0 -226 -96 -354zM831 729q0 -326 189 -326q188 0 188 326q0 328 -188 328
q-189 0 -189 -328z" />
    <glyph glyph-name="one.ss10" horiz-adv-x="1957" 
d="M90 -180v1818h1860v-1818h-1860zM281 -8h1478v1474h-1478v-1474zM1153 264h-186v674q-68 -27 -224 -27v133q108 5 160 33q54 29 94 119h156v-932z" />
    <glyph glyph-name="two.ss10" horiz-adv-x="1957" 
d="M90 -180v1818h1860v-1818h-1860zM281 -8h1478v1474h-1478v-1474zM877 424h497v-160h-706l2 72q6 139 73 236q68 98 220 161l65 27q152 62 152 168q0 129 -156 129q-78 0 -119 -42q-41 -43 -41 -118h-182q5 149 92 233q90 87 254 87q159 0 248 -79q90 -79 90 -202
q0 -109 -61 -183q-62 -75 -199 -137l-72 -30q-140 -60 -157 -162z" />
    <glyph glyph-name="three.ss10" horiz-adv-x="1957" 
d="M90 -180v1818h1860v-1818h-1860zM281 -8h1478v1474h-1478v-1474zM1022 399q80 0 127 38t47 106q0 137 -182 137h-64v139h68q164 0 164 127q0 56 -43 87q-44 32 -115 32q-152 0 -160 -135h-184q7 139 97 213q89 74 249 74q156 0 246 -69t90 -185q0 -63 -35 -118t-94 -83
q151 -55 151 -227q0 -131 -97 -210t-263 -79q-177 0 -275 86t-100 246h185q0 -179 188 -179z" />
    <glyph glyph-name="four.ss10" horiz-adv-x="1957" 
d="M90 -180v1818h1860v-1818h-1860zM281 -8h1478v1474h-1478v-1474zM1272 264h-193v217h-454v183l452 532h195v-557h129v-158h-129v-217zM1087 639v352l-301 -352h301z" />
    <glyph glyph-name="five.ss10" horiz-adv-x="1957" 
d="M90 -180v1818h1860v-1818h-1860zM281 -8h1478v1474h-1478v-1474zM1020 395q80 0 128 49t48 125q0 79 -48 129t-128 50q-121 0 -166 -95h-178l94 543h563v-160h-418l-36 -198q73 53 180 53q146 0 231 -91q86 -92 86 -231q0 -147 -100 -235t-256 -88q-146 0 -246 77
q-97 75 -112 205h182q12 -61 58 -97t118 -36z" />
    <glyph glyph-name="six.ss10" horiz-adv-x="1957" 
d="M90 -180v1818h1860v-1818h-1860zM281 -8h1478v1474h-1478v-1474zM805 313q-152 111 -152 398q0 244 98 375t285 131q140 0 229 -69q89 -70 107 -190h-180q-30 111 -158 111q-96 0 -145 -65q-50 -66 -60 -209q86 96 230 96q148 0 237 -92q90 -96 90 -230q0 -147 -99 -235
q-98 -88 -257 -88q-137 0 -225 67zM1157 690q-49 49 -127 49q-80 0 -125 -49q-49 -50 -49 -125t49 -121q46 -49 125 -49q78 0 127 49q49 46 49 121t-49 125z" />
    <glyph glyph-name="seven.ss10" horiz-adv-x="1957" 
d="M90 -180v1818h1860v-1818h-1860zM281 -8h1478v1474h-1478v-1474zM1040 264h-202q1 222 89 427q87 204 234 345h-469v160h656v-160q-163 -154 -235 -333q-73 -181 -73 -439z" />
    </font>
</defs>
</svg>
