<?xml version="1.0" standalone="no"?>
<!DOCTYPE svg PUBLIC "-//W3C//DTD SVG 1.1//EN" "http://www.w3.org/Graphics/SVG/1.1/DTD/svg11.dtd" >
<svg xmlns="http://www.w3.org/2000/svg" xmlns:xlink="http://www.w3.org/1999/xlink" version="1.1">
<metadata>
Created by FontForge 20170731 at Sat Jul 31 16:37:41 2021
 By Aleksey,,,
Copyright (c) 2019 Monotype Imaging Inc. All rights reserved.
</metadata>
<defs>
<font id="HelveticaNowDisplay-ExtraBold" horiz-adv-x="0" >
  <font-face 
    font-family="HelveticaNowDisplay ExtraBold"
    font-weight="800"
    font-stretch="normal"
    units-per-em="2048"
    panose-1="2 11 9 4 3 2 2 2 2 4"
    ascent="1792"
    descent="-256"
    x-height="1057"
    cap-height="1458"
    bbox="-754 -700 2632 2148"
    underline-thickness="102"
    underline-position="-614"
    unicode-range="U+000D-FEFF"
  />
<missing-glyph horiz-adv-x="1355" 
d="M1245 0h-1134v1458h1134v-1458zM412 1192v-926h532v926h-532z" />
    <glyph glyph-name="fi" unicode="fi" horiz-adv-x="1255" 
d="M180 1057v61q0 159 95 254q94 94 286 94q67 0 152 -8v-237h-86q-127 0 -127 -113v-51h209v-234h-209v-823h-320v823h-157v234h157zM850 1448h305v-270h-305v270zM842 0v1057h319v-1057h-319z" />
    <glyph glyph-name="fl" unicode="fl" horiz-adv-x="1243" 
d="M180 1057v61q0 159 95 254q94 94 286 94q67 0 152 -8v-237h-86q-127 0 -127 -113v-51h209v-234h-209v-823h-320v823h-157v234h157zM829 0v1458h320v-1458h-320z" />
    <glyph glyph-name=".notdef" horiz-adv-x="1355" 
d="M1245 0h-1134v1458h1134v-1458zM412 1192v-926h532v926h-532z" />
    <glyph glyph-name=".null" 
 />
    <glyph glyph-name="nonmarkingreturn" horiz-adv-x="681" 
 />
    <glyph glyph-name="NULL" 
 />
    <glyph glyph-name="NULL" 
 />
    <glyph glyph-name="CR" unicode="&#xd;" horiz-adv-x="477" 
 />
    <glyph glyph-name="space" unicode=" " horiz-adv-x="477" 
 />
    <glyph glyph-name="exclam" unicode="!" horiz-adv-x="499" 
d="M336 487h-172l-86 615v356h346v-356zM430 0h-360v352h360v-352z" />
    <glyph glyph-name="quotedbl" unicode="&#x22;" horiz-adv-x="1042" 
d="M403 772h-237l-55 686h346zM877 772h-236l-55 686h346z" />
    <glyph glyph-name="numbersign" unicode="#" horiz-adv-x="1454" 
d="M1407 1116l-53 -260h-183l-51 -254h183l-52 -258h-184l-70 -344h-286l69 344h-266l-70 -344h-286l69 344h-180l51 258h183l51 254h-180l53 260h180l70 342h286l-69 -342h266l70 342h286l-69 -342h182zM567 602h267l51 254h-267z" />
    <glyph glyph-name="dollar" unicode="$" horiz-adv-x="1331" 
d="M1296 428q0 -210 -146 -328q-148 -119 -407 -131v-207h-149v207q-267 21 -410 154q-144 133 -145 356h336q1 -211 219 -235v352l-37 6q-487 82 -487 457q0 188 137 305q136 116 387 127v205h149v-209q242 -21 368 -141q129 -122 136 -330h-327q-7 167 -177 196v-331
l50 -9q263 -46 384 -152q119 -104 119 -292zM422 1073q0 -63 40 -100q41 -38 132 -62v308q-172 -18 -172 -146zM743 565v-325q195 18 195 166q0 65 -42 100q-43 35 -153 59z" />
    <glyph glyph-name="percent" unicode="%" horiz-adv-x="1861" 
d="M678 707q-92 -113 -272 -113q-181 0 -273 113t-92 327q0 215 92 330q92 113 273 113q180 0 272 -113q92 -115 92 -330q0 -214 -92 -327zM643 0h-203l779 1458h202zM305 838q34 -58 101 -58q66 0 100 58q33 52 33 196q0 142 -33 199t-100 57q-68 0 -101 -57t-33 -199
q0 -144 33 -196zM1456 -18q-366 0 -366 440q0 217 92 330q91 112 274 112q179 0 271 -113q94 -115 94 -329t-94 -328q-93 -112 -271 -112zM1456 168q68 0 99 58q32 59 32 196q0 135 -32 196q-31 60 -99 60q-69 0 -102 -58t-33 -198q0 -137 33 -196q33 -58 102 -58z" />
    <glyph glyph-name="ampersand" unicode="&#x26;" horiz-adv-x="1468" 
d="M1202 295l266 -295h-393l-82 90q-185 -123 -405 -123q-252 0 -398 123q-143 118 -143 316q0 272 303 409l-2 2q-76 87 -110 157q-33 69 -33 148q0 159 119 264t323 105q198 0 322 -96q121 -99 121 -258q0 -243 -306 -383l226 -248q45 96 51 219h287q-10 -239 -146 -430z
M766 1210q-63 58 -157 25q-95 -33 -87 -113q0 -75 105 -192l10 -10q168 86 168 200q0 52 -39 90zM446 291q66 -60 172 -60t203 56l-315 352q-125 -77 -125 -203q0 -86 65 -145z" />
    <glyph glyph-name="quotesingle" unicode="'" horiz-adv-x="567" 
d="M403 772h-237l-55 686h346z" />
    <glyph glyph-name="parenleft" unicode="(" horiz-adv-x="614" 
d="M608 -401h-293q-122 240 -178 475q-57 230 -57 526q0 304 57 535q56 236 178 475h293q-202 -425 -202 -1010q0 -554 202 -1001z" />
    <glyph glyph-name="parenright" unicode=")" horiz-adv-x="614" 
d="M299 -401h-293q203 450 203 1001q0 583 -203 1010h293q118 -230 180 -475q56 -239 56 -535q0 -290 -56 -526q-61 -240 -180 -475z" />
    <glyph glyph-name="asterisk" unicode="*" horiz-adv-x="927" 
d="M463 848l-162 -217l-162 127l168 225l-270 86l67 193l256 -84v280h207v-280l256 84l68 -193l-270 -86l167 -225l-161 -127z" />
    <glyph glyph-name="plus" unicode="+" horiz-adv-x="1081" 
d="M686 864h336v-268h-336v-338h-293v338h-334v268h334v338h293v-338z" />
    <glyph glyph-name="comma" unicode="," horiz-adv-x="499" 
d="M70 0v352h360v-379q0 -317 -315 -319l-45 -2v176h47q106 1 106 137v35h-153z" />
    <glyph glyph-name="hyphen" unicode="-" horiz-adv-x="737" 
d="M678 440h-619v269h619v-269z" />
    <glyph glyph-name="period" unicode="." horiz-adv-x="499" 
d="M430 0h-360v352h360v-352z" />
    <glyph glyph-name="slash" unicode="/" horiz-adv-x="831" 
d="M309 0h-309l522 1458h309z" />
    <glyph glyph-name="zero" unicode="0" horiz-adv-x="1386" 
d="M1157 166q-157 -199 -463 -199t-463 199q-159 196 -159 563q0 364 159 565q158 197 463 197t463 -197q158 -202 158 -565q0 -364 -158 -563zM498 367q63 -113 196 -113q134 0 197 113q63 108 63 362q0 249 -64 362t-196 113q-133 0 -197 -113q-65 -115 -65 -362
q0 -249 66 -362z" />
    <glyph glyph-name="one" unicode="1" horiz-adv-x="851" 
d="M469 1458h272v-1458h-346v911h-340v236l33 2q163 11 254 81q93 71 127 228z" />
    <glyph glyph-name="two" unicode="2" horiz-adv-x="1265" 
d="M457 287h737v-287h-1126l8 129q7 147 47 256q28 72 70 131q104 133 311 215l114 51q119 50 169 104q51 56 51 136q0 87 -54 135q-53 47 -151 47q-219 0 -219 -233h-330q-2 247 139 383q142 137 418 137q251 0 397 -123q144 -123 144 -313q0 -188 -101 -301
q-102 -114 -319 -213l-121 -58q-95 -45 -136 -87t-48 -109z" />
    <glyph glyph-name="three" unicode="3" horiz-adv-x="1312" 
d="M1006 778q119 -44 185 -135t66 -219q0 -202 -153 -330q-155 -127 -424 -127q-298 0 -455 142q-155 140 -155 401h331q2 -135 67 -196q64 -60 200 -60q110 0 172 50q61 49 61 136q0 197 -246 197h-108v244h115q223 0 223 174q0 76 -56 121t-157 45q-109 0 -167 -49
t-65 -152h-331q17 471 565 471q251 0 396 -109q144 -108 144 -295q0 -101 -56 -182q-57 -82 -152 -127z" />
    <glyph glyph-name="four" unicode="4" horiz-adv-x="1351" 
d="M1106 602h190v-285h-190v-317h-346v317h-694v326l659 815h381v-856zM770 602v514l-416 -514h416z" />
    <glyph glyph-name="five" unicode="5" horiz-adv-x="1269" 
d="M707 963q240 0 374 -140q129 -141 129 -340q0 -237 -159 -374q-163 -142 -412 -142q-233 0 -389 123q-155 118 -178 334h325q17 -86 81 -137t161 -51q111 0 178 68q68 70 68 179q0 110 -68 180q-67 68 -178 68q-159 0 -225 -129h-320l144 856h903v-287h-637l-55 -297
q107 89 258 89z" />
    <glyph glyph-name="six" unicode="6" horiz-adv-x="1304" 
d="M389 801q123 162 359 162q234 0 364 -142q129 -141 129 -338q0 -237 -158 -377q-161 -139 -409 -139q-217 0 -361 105q-241 174 -241 626q0 386 155 589q156 204 451 204q226 0 371 -109q143 -108 172 -305h-316q-33 162 -223 162q-142 0 -212 -101q-71 -102 -81 -337z
M498 303q63 -67 176 -67t176 67q65 68 65 172t-65 172q-63 68 -176 68t-176 -68q-68 -68 -68 -172t68 -172z" />
    <glyph glyph-name="seven" unicode="7" horiz-adv-x="1091" 
d="M27 1171v287h1038v-278q-230 -230 -338 -500q-106 -270 -111 -680h-358q5 344 129 647q128 305 336 524h-696z" />
    <glyph glyph-name="eight" unicode="8" horiz-adv-x="1286" 
d="M1001 768q242 -92 242 -354q0 -200 -160 -324q-159 -123 -438 -123t-438 123q-160 124 -160 324q0 262 242 354q-183 108 -183 315q0 189 147 298q148 110 392 110t392 -110q147 -110 147 -298q0 -207 -183 -315zM815 1196q-61 49 -170 49t-168 -49q-61 -49 -61 -137
q0 -85 60 -135q61 -50 169 -50t169 50q60 50 60 135q0 88 -59 137zM453 289q64 -58 192 -58t195 58q65 55 65 153q0 101 -67 155t-193 54q-125 0 -192 -54q-68 -54 -68 -155q0 -97 68 -153z" />
    <glyph glyph-name="nine" unicode="9" horiz-adv-x="1304" 
d="M991 1380q240 -176 240 -624q0 -382 -152 -588q-151 -205 -442 -205q-229 0 -377 109t-178 305h317q33 -162 234 -162q138 0 205 103q66 102 77 335q-118 -161 -358 -161q-235 0 -364 141q-132 141 -132 338q0 235 160 377q161 139 410 139q215 0 360 -107zM631 739
q109 0 175 68q66 67 66 172t-66 172q-66 68 -175 68q-110 0 -177 -67t-67 -173t67 -173t177 -67z" />
    <glyph glyph-name="colon" unicode=":" horiz-adv-x="499" 
d="M430 653h-360v351h360v-351zM430 0h-360v352h360v-352z" />
    <glyph glyph-name="semicolon" unicode=";" horiz-adv-x="499" 
d="M70 651v353h360v-353h-360zM223 0h-153v352h360v-379q0 -317 -315 -319l-45 -2v176h47q106 1 106 137v35z" />
    <glyph glyph-name="less" unicode="&#x3c;" horiz-adv-x="1081" 
d="M1022 1257v-313l-115 -43q-310 -104 -540 -172q230 -68 540 -172l115 -43v-311l-963 370v312z" />
    <glyph glyph-name="equal" unicode="=" horiz-adv-x="1081" 
d="M1022 805h-963v254h963v-254zM1022 399h-963v254h963v-254z" />
    <glyph glyph-name="greater" unicode="&#x3e;" horiz-adv-x="1081" 
d="M59 944v313l963 -372v-312l-963 -370v311l113 43q311 106 541 172q-230 66 -541 172z" />
    <glyph glyph-name="question" unicode="?" horiz-adv-x="1120" 
d="M694 485h-307q0 103 10 156q10 50 39 100q38 64 152 142q95 62 127 110q22 38 22 78q0 154 -176 154q-108 0 -153 -50q-47 -51 -48 -169h-323q-1 240 134 362q137 123 400 123q237 0 373 -102q137 -102 137 -283q0 -204 -211 -354q-121 -90 -145 -125q-31 -42 -31 -142z
M721 0h-361v352h361v-352z" />
    <glyph glyph-name="at" unicode="@" horiz-adv-x="1888" 
d="M948 1491q392 0 643 -219q248 -218 248 -563q0 -245 -113 -396q-112 -153 -309 -153q-109 0 -185 47q-75 46 -102 131q-86 -170 -284 -170q-164 0 -263 119q-100 120 -100 340q0 213 105 334q104 120 260 120q160 0 239 -127v103h281v-543q0 -119 88 -119q74 0 113 84
t39 221q0 263 -174 422q-177 160 -492 160q-301 0 -481 -180t-180 -477q0 -315 186 -494q188 -178 494 -178q233 0 423 78v-205q-190 -72 -426 -72q-407 0 -659 238q-250 240 -250 633q0 374 248 620q246 246 651 246zM932 393q160 0 160 234q0 229 -162 229
q-164 0 -164 -229q0 -234 166 -234z" />
    <glyph glyph-name="A" unicode="A" horiz-adv-x="1499" 
d="M1497 0h-367l-86 254h-606l-84 -254h-354l537 1458h411zM618 793l-83 -250h411l-84 250q-43 124 -123 368q-91 -280 -121 -368z" />
    <glyph glyph-name="B" unicode="B" horiz-adv-x="1386" 
d="M1098 776q119 -44 186 -140q68 -98 68 -212q0 -201 -134 -312q-135 -112 -395 -112h-712v1458h692q241 0 365 -102t124 -271q0 -218 -194 -309zM780 1182h-323v-312h323q81 0 124 43q44 44 44 117q0 70 -44 111t-124 41zM457 276h346q93 0 142 43q50 44 50 123
q0 166 -192 166h-346v-332z" />
    <glyph glyph-name="C" unicode="C" horiz-adv-x="1517" 
d="M776 -33q-325 0 -526 207t-201 555q0 351 197 557q196 205 530 205q271 0 459 -143q192 -145 231 -412h-350q-33 123 -122 189q-90 67 -218 67q-177 0 -271 -121q-95 -122 -95 -342t95 -342q94 -121 271 -121q136 0 230 78t118 217h346q-33 -282 -223 -438
q-192 -156 -471 -156z" />
    <glyph glyph-name="D" unicode="D" horiz-adv-x="1503" 
d="M111 1458h598q361 0 553 -193t192 -536q0 -341 -192 -535t-553 -194h-598v1458zM457 293h245q188 0 290 109q102 110 102 327t-102 327q-102 109 -290 109h-245v-872z" />
    <glyph glyph-name="E" unicode="E" horiz-adv-x="1275" 
d="M1225 1458v-309h-768v-264h698v-291h-698v-285h766v-309h-1112v1458h1114z" />
    <glyph glyph-name="F" unicode="F" horiz-adv-x="1208" 
d="M1182 1458v-309h-725v-264h669v-293h-669v-592h-346v1458h1071z" />
    <glyph glyph-name="G" unicode="G" horiz-adv-x="1593" 
d="M831 543v270h672v-813h-241l-41 193q-148 -226 -473 -226q-317 0 -508 209q-191 206 -191 553q0 350 199 557q196 205 540 205q285 0 474 -141q190 -144 223 -383h-355q-30 106 -118 166q-87 59 -221 59q-178 0 -280 -123q-101 -122 -101 -340q0 -217 105 -340t292 -123
q134 0 232 77t116 200h-324z" />
    <glyph glyph-name="H" unicode="H" horiz-adv-x="1499" 
d="M1042 901v557h347v-1458h-347v590h-585v-590h-346v1458h346v-557h585z" />
    <glyph glyph-name="I" unicode="I" horiz-adv-x="567" 
d="M457 0h-346v1458h346v-1458z" />
    <glyph glyph-name="J" unicode="J" horiz-adv-x="1165" 
d="M557 -33q-237 0 -374 125q-136 124 -136 342v92h330v-92q0 -83 47 -130q46 -46 129 -46t129 46q47 47 47 130v1024h346v-1024q0 -206 -135 -336q-137 -131 -383 -131z" />
    <glyph glyph-name="K" unicode="K" horiz-adv-x="1484" 
d="M1061 1458h422l-586 -596l586 -862h-410l-420 631l-196 -195v-436h-346v1458h346v-631z" />
    <glyph glyph-name="L" unicode="L" horiz-adv-x="1150" 
d="M457 1458v-1149h667v-309h-1013v1458h346z" />
    <glyph glyph-name="M" unicode="M" horiz-adv-x="1839" 
d="M1020 838l190 620h519v-1458h-330v428q0 408 12 705q-42 -160 -98 -332l-252 -801h-283l-252 801q-48 154 -96 329q10 -327 10 -702v-428h-329v1458h518l192 -627q48 -165 101 -362q58 228 98 369z" />
    <glyph glyph-name="N" unicode="N" horiz-adv-x="1499" 
d="M1059 1153v305h330v-1458h-373l-357 582q-168 281 -227 397q8 -299 8 -674v-305h-329v1458h372l357 -581q152 -251 227 -402q-8 304 -8 678z" />
    <glyph glyph-name="O" unicode="O" horiz-adv-x="1593" 
d="M797 -33q-334 0 -541 209q-207 212 -207 553t207 553q207 209 541 209q333 0 540 -209q207 -212 207 -553t-207 -553q-207 -209 -540 -209zM516 391q105 -123 281 -123q174 0 282 123q107 122 107 338t-107 338q-108 123 -282 123q-176 0 -281 -123q-106 -121 -106 -338
t106 -338z" />
    <glyph glyph-name="P" unicode="P" horiz-adv-x="1361" 
d="M111 1458h663q251 0 395 -132t144 -359q0 -228 -144 -360t-395 -132h-317v-475h-346v1458zM457 768h295q101 0 158 51t57 148q0 95 -58 147q-57 51 -157 51h-295v-397z" />
    <glyph glyph-name="Q" unicode="Q" horiz-adv-x="1593" 
d="M1544 729q0 -335 -196 -543l161 -176l-170 -160l-178 197q-168 -80 -364 -80q-334 0 -541 209q-207 212 -207 553t207 553q207 209 541 209q333 0 540 -209q207 -212 207 -553zM797 268q72 0 141 25l-154 170l170 158l162 -179q70 114 70 287q0 211 -106 337
q-105 124 -283 124q-176 0 -281 -123q-106 -121 -106 -338t106 -338q105 -123 281 -123z" />
    <glyph glyph-name="R" unicode="R" horiz-adv-x="1386" 
d="M1300 362l11 -204q1 -97 41 -158h-357q-32 61 -34 160l-7 164q-4 119 -54 166t-161 47h-282v-537h-346v1458h690q257 0 392 -113q136 -114 136 -309q0 -252 -235 -346q114 -38 156 -112q44 -77 50 -216zM457 1182v-385h305q100 0 156 50q55 49 55 144q0 191 -217 191
h-299z" />
    <glyph glyph-name="S" unicode="S" horiz-adv-x="1331" 
d="M678 -33q-304 0 -471 135q-166 135 -168 377h336q1 -135 79 -188q77 -53 236 -53q248 0 248 168q0 73 -54 109q-55 36 -208 65l-119 22q-487 82 -487 457q0 198 148 315t421 117q291 0 444 -123q154 -123 164 -352h-327q-6 105 -71 155t-204 50q-223 0 -223 -148
q0 -73 54 -112t194 -66l123 -23q263 -46 384 -152q119 -104 119 -292q0 -224 -163 -342q-164 -119 -455 -119z" />
    <glyph glyph-name="T" unicode="T" horiz-adv-x="1294" 
d="M27 1458h1243v-309h-449v-1149h-348v1149h-446v309z" />
    <glyph glyph-name="U" unicode="U" horiz-adv-x="1447" 
d="M723 -33q-284 0 -459 154q-174 150 -174 434v903h346v-907q0 -140 75 -212q76 -73 212 -73q135 0 213 73q76 72 76 212v907h346v-903q0 -281 -169 -434q-171 -154 -466 -154z" />
    <glyph glyph-name="V" unicode="V" horiz-adv-x="1445" 
d="M879 817l211 641h356l-510 -1458h-410l-526 1458h371l213 -641q95 -298 149 -512q71 275 146 512z" />
    <glyph glyph-name="W" unicode="W" horiz-adv-x="2033" 
d="M1550 958l123 500h361l-400 -1458h-387l-121 516q-57 232 -108 526q-37 -197 -109 -526l-123 -516h-387l-399 1458h362l121 -500q79 -322 129 -571q63 337 115 571l117 500h346l117 -500q58 -254 114 -575q32 145 129 575z" />
    <glyph glyph-name="X" unicode="X" horiz-adv-x="1411" 
d="M1380 1458l-473 -710l504 -748h-401l-121 182q-115 174 -189 291q-30 -51 -186 -291l-121 -182h-393l506 741l-475 717h399l111 -170q1 -5 170 -270q89 146 170 270l112 170h387z" />
    <glyph glyph-name="Y" unicode="Y" horiz-adv-x="1433" 
d="M930 1249l123 209h381l-541 -891v-567h-346v567l-547 891h391l127 -211q52 -92 107 -184q34 -63 40 -72q8 -13 20 -35t17 -30t13.5 -22t11.5 -19q103 191 203 364z" />
    <glyph glyph-name="Z" unicode="Z" horiz-adv-x="1320" 
d="M922 309h348v-309h-1219v272l488 574q81 96 268 307q-335 -4 -422 -4h-309v309h1181v-270l-489 -576q-135 -160 -270 -307q335 4 424 4z" />
    <glyph glyph-name="bracketleft" unicode="[" horiz-adv-x="749" 
d="M723 -401h-612v2011h612v-267h-309v-1478h309v-266z" />
    <glyph glyph-name="backslash" unicode="\" horiz-adv-x="831" 
d="M831 0h-309l-522 1458h309z" />
    <glyph glyph-name="bracketright" unicode="]" horiz-adv-x="749" 
d="M639 -401h-612v266h309v1478h-309v267h612v-2011z" />
    <glyph glyph-name="asciicircum" unicode="^" horiz-adv-x="876" 
d="M289 1458h299l284 -588h-278l-117 256l-18 48q-15 34 -21 51q-11 -31 -20 -51q-7 -17 -19 -48l-116 -256h-281z" />
    <glyph glyph-name="underscore" unicode="_" horiz-adv-x="1005" 
d="M1008 -348h-1010v233h1010v-233z" />
    <glyph glyph-name="grave" unicode="`" horiz-adv-x="819" 
d="M674 1178h-254l-275 295h349z" />
    <glyph glyph-name="a" unicode="a" horiz-adv-x="1144" 
d="M1110 0h-322q-25 47 -26 119q-106 -144 -338 -144q-174 0 -280 86q-105 85 -105 238q0 295 414 330l165 14q138 15 138 105q0 106 -162 106q-98 0 -138 -30q-41 -30 -48 -109h-318q28 366 506 366q471 0 471 -325v-561q0 -134 43 -195zM520 190q109 0 172 57
q64 58 64 169v78q-29 -30 -107 -41l-131 -15q-153 -16 -153 -127q0 -55 41 -88q40 -33 114 -33z" />
    <glyph glyph-name="b" unicode="b" horiz-adv-x="1232" 
d="M723 1081q214 0 338 -149q123 -150 123 -404q0 -253 -123 -403q-125 -150 -338 -150q-212 0 -320 166v-141h-311v1458h320v-530q108 153 311 153zM635 231q106 0 166 79q59 78 59 227q0 288 -225 288q-227 0 -227 -297t227 -297z" />
    <glyph glyph-name="c" unicode="c" horiz-adv-x="1142" 
d="M592 -25q-248 0 -395 152q-148 153 -148 401q0 253 148 404q146 149 395 149q218 0 355 -113q139 -114 161 -309h-317q-27 162 -199 162q-219 0 -219 -293q0 -290 219 -290q184 0 205 178h317q-15 -201 -158 -322q-145 -119 -364 -119z" />
    <glyph glyph-name="d" unicode="d" horiz-adv-x="1230" 
d="M819 930v528h320v-1458h-312v137q-107 -162 -317 -162q-213 0 -336 150q-125 151 -125 403q0 253 125 404q122 149 336 149q201 0 309 -151zM598 231q227 0 227 297t-227 297q-106 0 -166 -79q-59 -78 -59 -226q0 -289 225 -289z" />
    <glyph glyph-name="e" unicode="e" horiz-adv-x="1196" 
d="M1139 498v-64h-783q17 -109 80 -166t162 -57q156 0 213 119h303q-44 -166 -182 -259q-142 -96 -334 -96q-245 0 -397 152t-152 401q0 252 150 402q147 151 395 151q246 0 397 -157q148 -160 148 -426zM590 846q-197 0 -232 -209h467q-17 99 -77 154q-61 55 -158 55z" />
    <glyph glyph-name="f" unicode="f" horiz-adv-x="755" 
d="M713 1221h-86q-127 0 -127 -113v-51h209v-234h-209v-823h-320v823h-157v234h157v61q0 159 95 254q94 94 286 94q67 0 152 -8v-237z" />
    <glyph glyph-name="g" unicode="g" horiz-adv-x="1230" 
d="M827 918v139h312v-1024q0 -215 -143 -337t-398 -122q-236 0 -369 103q-132 103 -143 284h315q12 -147 203 -147q104 0 160 54q55 54 55 152v152q-100 -149 -303 -149q-209 0 -338 147t-129 383q0 234 127 383q127 145 334 145q212 0 317 -163zM598 279q108 0 168 70
q59 69 59 204t-58 203q-59 69 -169 69q-106 0 -166 -72q-59 -71 -59 -204q0 -131 59 -200q60 -70 166 -70z" />
    <glyph glyph-name="h" unicode="h" horiz-adv-x="1193" 
d="M735 1081q169 0 267 -101q100 -103 100 -288v-692h-320v629q0 180 -170 180q-86 0 -143 -57t-57 -162v-590h-320v1458h320v-540q121 163 323 163z" />
    <glyph glyph-name="i" unicode="i" horiz-adv-x="505" 
d="M406 1178h-306v270h306v-270zM412 0h-320v1057h320v-1057z" />
    <glyph glyph-name="j" unicode="j" horiz-adv-x="505" 
d="M406 1178h-306v270h306v-270zM57 -406q-62 0 -104 3v243h39q53 0 77 21q23 20 23 73v1123h320v-1159q0 -160 -84 -232t-271 -72z" />
    <glyph glyph-name="k" unicode="k" horiz-adv-x="1187" 
d="M1186 0h-365l-272 436l-143 -147v-289h-314v1458h314v-819l391 418h366l-397 -410z" />
    <glyph glyph-name="l" unicode="l" horiz-adv-x="505" 
d="M412 0h-320v1458h320v-1458z" />
    <glyph glyph-name="m" unicode="m" horiz-adv-x="1824" 
d="M1362 1081q173 0 272 -103q99 -104 99 -292v-686h-320v631q0 178 -158 178q-83 0 -133 -57q-49 -56 -49 -168v-584h-319v631q0 178 -158 178q-85 0 -134 -57q-50 -58 -50 -168v-584h-320v1057h311v-150q117 174 302 174q237 0 327 -190q129 190 330 190z" />
    <glyph glyph-name="n" unicode="n" horiz-adv-x="1193" 
d="M735 1081q169 0 267 -101q100 -103 100 -288v-692h-320v629q0 180 -170 180q-86 0 -143 -57t-57 -162v-590h-320v1057h311v-150q123 174 332 174z" />
    <glyph glyph-name="o" unicode="o" horiz-adv-x="1206" 
d="M604 -25q-251 0 -403 152t-152 401q0 252 152 404q149 149 403 149q255 0 404 -149t149 -404q0 -252 -149 -401q-152 -152 -404 -152zM604 231q110 0 170 76t60 221q0 146 -60 222q-59 75 -170 75q-113 0 -172 -75t-59 -222q0 -146 59 -221q60 -76 172 -76z" />
    <glyph glyph-name="p" unicode="p" horiz-adv-x="1232" 
d="M723 1081q214 0 338 -149q123 -150 123 -404q0 -253 -123 -403q-125 -150 -338 -150q-202 0 -311 154v-530h-320v1458h311v-142q108 166 320 166zM635 231q106 0 166 79q59 78 59 227q0 288 -225 288q-227 0 -227 -297t227 -297z" />
    <glyph glyph-name="q" unicode="q" horiz-adv-x="1230" 
d="M827 920v137h312v-1458h-320v528q-108 -152 -309 -152q-213 0 -336 150q-125 151 -125 403q0 253 125 404q122 149 336 149q211 0 317 -161zM598 231q227 0 227 297t-227 297q-106 0 -166 -79q-59 -78 -59 -226q0 -289 225 -289z" />
    <glyph glyph-name="r" unicode="r" horiz-adv-x="817" 
d="M705 1073q14 0 69 -4v-291h-82q-280 0 -280 -286v-492h-320v1057h311v-197q73 213 302 213z" />
    <glyph glyph-name="s" unicode="s" horiz-adv-x="1064" 
d="M537 -31q-251 0 -372 87t-136 280h311q8 -85 54 -119q47 -35 149 -35q178 0 178 103q0 49 -39 74q-39 26 -143 42l-138 23q-356 55 -356 324q0 159 123 246t352 87q474 0 492 -362h-297q-1 149 -195 149q-162 0 -162 -100q0 -46 37 -70t117 -36l158 -23q189 -28 280 -109
q90 -80 90 -219q0 -165 -132 -253q-133 -89 -371 -89z" />
    <glyph glyph-name="t" unicode="t" horiz-adv-x="745" 
d="M702 1057v-234h-202v-493q0 -54 26 -73t95 -19h81v-238q-61 -8 -147 -8q-199 0 -287 70t-88 233v528h-157v234h157v313h320v-313h202z" />
    <glyph glyph-name="u" unicode="u" horiz-adv-x="1193" 
d="M782 467v590h320v-1057h-311v150q-124 -175 -332 -175q-169 0 -268 102t-99 288v692h320v-629q0 -180 170 -180q86 0 143 57t57 162z" />
    <glyph glyph-name="v" unicode="v" horiz-adv-x="1140" 
d="M754 897l55 160h328l-377 -1057h-381l-377 1057h344l55 -160q37 -128 84 -296q14 -49 35.5 -124t28.5 -101q6 -22 13 -46t10.5 -38t5.5 -20q21 80 28 104q7 26 28.5 101t35.5 124q47 168 84 296z" />
    <glyph glyph-name="w" unicode="w" horiz-adv-x="1757" 
d="M1313 717l98 340h342l-344 -1057h-336l-117 397q-37 123 -79 285q-45 -177 -76 -285l-117 -397h-336l-346 1057h344l98 -340q68 -238 99 -357q36 148 92 359l96 338h295l96 -338q56 -211 92 -359q31 119 99 357z" />
    <glyph glyph-name="x" unicode="x" horiz-adv-x="1130" 
d="M1108 1057l-365 -512l385 -545h-362l-27 39q-15 21 -176 266l-79 -118.5t-99 -147.5l-27 -39h-356l389 541l-368 516h364l39 -56q133 -202 145 -221q69 112 144 221l39 56h354z" />
    <glyph glyph-name="y" unicode="y" horiz-adv-x="1128" 
d="M750 905l47 152h329l-383 -1098q-72 -206 -182 -283q-113 -79 -344 -79q-49 0 -125 4v245h103q159 0 159 148q0 67 -49 205l-303 858h344l47 -150q101 -341 180 -665q71 298 177 663z" />
    <glyph glyph-name="z" unicode="z" horiz-adv-x="1038" 
d="M670 238h313v-238h-926v201l375 463q80 99 131 157q-62 -2 -213 -2h-289v238h902v-201l-375 -463q-80 -99 -131 -157q62 2 213 2z" />
    <glyph glyph-name="braceleft" unicode="{" horiz-adv-x="770" 
d="M743 -401h-131q-385 0 -385 362v381q0 64 -39 95q-40 33 -129 34v266q89 1 129 34q39 31 39 95v381q0 363 385 363h131v-260h-90q-73 0 -102 -30q-29 -31 -29 -103v-420q0 -183 -221 -191v-4q221 -8 221 -188v-424q0 -71 29 -102q28 -29 102 -29h90v-260z" />
    <glyph glyph-name="bar" unicode="|" horiz-adv-x="485" 
d="M375 -414h-264v2046h264v-2046z" />
    <glyph glyph-name="braceright" unicode="}" horiz-adv-x="770" 
d="M158 -401h-131v260h90q74 0 102 29q29 31 29 102v424q0 178 219 188v4q-219 10 -219 191v420q0 72 -29 103q-29 30 -102 30h-90v260h131q385 0 385 -363v-381q0 -64 39 -95q40 -33 129 -34v-266q-89 -1 -129 -34q-39 -31 -39 -95v-381q0 -362 -385 -362z" />
    <glyph glyph-name="asciitilde" unicode="~" horiz-adv-x="1081" 
d="M729 547q-86 0 -219 65q-91 47 -131 47q-45 0 -69 -24q-23 -23 -31 -86h-220q5 175 80 270q77 96 213 96q86 0 219 -67q100 -47 131 -47q45 0 69 25q25 26 32 85h219q-5 -173 -80 -268q-76 -96 -213 -96z" />
    <glyph glyph-name="uni00A0" unicode="&#xa0;" horiz-adv-x="477" 
 />
    <glyph glyph-name="exclamdown" unicode="&#xa1;" horiz-adv-x="499" 
d="M430 848h-360v352h360v-352zM424 -258h-346v356l86 615h172l88 -615v-356z" />
    <glyph glyph-name="cent" unicode="&#xa2;" horiz-adv-x="1142" 
d="M797 416h317q-15 -186 -134 -300q-120 -115 -314 -136v-218h-144v218q-217 22 -345 170t-128 378q0 234 127 380q127 147 346 169v209h144v-209q188 -18 305 -129q116 -110 137 -289h-317q-23 125 -125 152v-563q115 33 131 168zM373 528q0 -237 149 -280v563
q-149 -43 -149 -283z" />
    <glyph glyph-name="sterling" unicode="&#xa3;" horiz-adv-x="1177" 
d="M612 530q0 -126 -98 -221h627v-309h-1073v272q107 40 156 97q48 55 48 139q0 44 -16 104h-225v156h162q-87 195 -87 303q0 195 141 307q142 113 378 113q489 0 516 -475h-326q-5 102 -49 151q-45 50 -145 50q-77 0 -120 -37q-44 -38 -44 -109q0 -69 67 -221l33 -82h395
v-156h-348q8 -37 8 -82z" />
    <glyph glyph-name="currency" unicode="&#xa4;" horiz-adv-x="1196" 
d="M1147 1182l-148 -148q105 -134 105 -305t-105 -305l148 -148l-111 -110l-153 153q-124 -79 -279 -79q-157 0 -285 86l-159 -160l-111 110l156 156q-101 128 -101 297t101 297l-156 156l111 110l159 -159q128 86 285 86q154 0 279 -80l153 153zM438 563q67 -67 166 -67
t166 67q68 63 68 166q0 100 -68 168q-69 66 -166 66t-166 -66q-67 -67 -67 -168q0 -103 67 -166z" />
    <glyph glyph-name="yen" unicode="&#xa5;" horiz-adv-x="1433" 
d="M1053 1458h381l-476 -782h246v-154h-311v-153h311v-154h-311v-215h-346v215h-316v154h316v153h-316v154h248l-479 782h391l127 -211q52 -92 107 -184q34 -63 40 -72q8 -13 20 -35t17 -30t13.5 -22t11.5 -19q103 191 203 364z" />
    <glyph glyph-name="brokenbar" unicode="&#xa6;" horiz-adv-x="485" 
d="M375 815h-264v817h264v-817zM375 -418h-264v817h264v-817z" />
    <glyph glyph-name="section" unicode="&#xa7;" horiz-adv-x="1243" 
d="M1206 461q0 -205 -237 -301q114 -102 114 -232q0 -171 -118 -259q-119 -89 -342 -89q-227 0 -342 95t-121 268h297q6 -150 170 -150q143 0 143 115q0 45 -30 75q-28 28 -115 80l-236 138q-193 113 -270 198q-80 89 -80 211q0 205 237 301q-114 102 -114 232
q0 168 119 258t342 90q227 0 342 -95q114 -94 120 -268h-297q-6 150 -170 150q-143 0 -143 -115q0 -44 31 -77q29 -30 115 -78l235 -138q193 -113 270 -198q80 -89 80 -211zM512 440l238 -137l6 -4q137 51 137 156q0 48 -35 86q-34 37 -125 90l-237 137l-7 4
q-137 -51 -137 -158q0 -46 35 -84q34 -37 125 -90z" />
    <glyph glyph-name="dieresis" unicode="&#xa8;" horiz-adv-x="819" 
d="M348 1178h-307v270h307v-270zM778 1178h-307v270h307v-270z" />
    <glyph glyph-name="copyright" unicode="&#xa9;" horiz-adv-x="1656" 
d="M1384 188q-226 -221 -557 -221t-555 221q-223 220 -223 541q0 323 223 543q224 219 555 219q332 0 557 -219q224 -221 224 -543q0 -320 -224 -541zM436 340q158 -158 393 -158q236 0 394 158q153 157 153 389q0 233 -153 391q-156 156 -394 156q-237 0 -393 -156
q-155 -155 -155 -391q0 -234 155 -389zM834 315q-182 0 -290 113q-108 112 -108 301t108 301q108 113 290 113q164 0 265 -88t113 -236h-239q-15 125 -139 125q-156 0 -156 -215t156 -215q137 0 145 137h238q-10 -152 -114 -244t-269 -92z" />
    <glyph glyph-name="ordfeminine" unicode="&#xaa;" horiz-adv-x="1001" 
d="M942 537h-276q-15 45 -21 104q-89 -125 -287 -125q-150 0 -244 74t-94 203q0 137 86 206t277 86l137 15q65 5 89 23q26 20 26 63q0 90 -135 90q-82 0 -116 -27t-40 -98h-278q11 165 114 245q105 81 322 81q411 0 411 -283v-475q0 -104 29 -182zM442 711q89 0 141 49
t52 143v60q-25 -25 -86 -31l-109 -10q-131 -15 -131 -109q0 -48 35 -75q34 -27 98 -27z" />
    <glyph glyph-name="guillemotleft" unicode="&#xab;" horiz-adv-x="989" 
d="M459 96l-348 285v317l348 285v-297l-180 -145l180 -148v-297zM530 698l349 285v-297l-181 -145l181 -148v-297l-349 285v317z" />
    <glyph glyph-name="logicalnot" unicode="&#xac;" horiz-adv-x="1081" 
d="M59 657v269h963v-607h-295v338h-668z" />
    <glyph glyph-name="uni00AD" unicode="&#xad;" horiz-adv-x="737" 
d="M678 440h-619v269h619v-269z" />
    <glyph glyph-name="registered" unicode="&#xae;" horiz-adv-x="1148" 
d="M575 1491q223 0 381 -152q156 -150 156 -370q0 -217 -156 -367q-157 -151 -381 -151q-225 0 -382 151q-156 150 -156 367q0 220 156 370q158 152 382 152zM575 567q170 0 293 115q117 112 117 287q0 174 -117 291q-121 114 -293 114q-173 0 -292 -114
q-119 -117 -119 -291t119 -287q120 -115 292 -115zM797 848l4 -72q5 -48 22 -65h-147q-16 28 -17 65l-4 55q-2 40 -15 53t-48 13h-88v-186h-139v526h247q92 0 144 -41q51 -41 51 -115q0 -80 -74 -118q62 -29 64 -115zM504 1120v-114h94q64 0 64 57t-66 57h-92z" />
    <glyph glyph-name="overscore" unicode="&#xaf;" horiz-adv-x="819" 
d="M754 1178h-688v208h688v-208z" />
    <glyph glyph-name="degree" unicode="&#xb0;" horiz-adv-x="724" 
d="M362 858q-136 0 -231 90q-94 88 -94 219q0 134 94 222q89 88 231 88q138 0 232 -88t94 -222q0 -131 -94 -219q-96 -90 -232 -90zM362 1038q56 0 93 37t37 92t-37 91t-93 36q-54 0 -92 -36q-37 -36 -37 -91q0 -54 38 -92q37 -37 91 -37z" />
    <glyph glyph-name="plusminus" unicode="&#xb1;" horiz-adv-x="1081" 
d="M686 1202v-268h336v-268h-336v-267h-293v267h-334v268h334v268h293zM1022 0h-963v268h963v-268z" />
    <glyph glyph-name="two.sups" unicode="&#xb2;" horiz-adv-x="731" 
d="M449 1391l-48 -23q-94 -45 -112 -100h409v-187h-669l4 84q15 246 256 357l65 30q121 55 121 121q0 86 -98 86q-111 0 -115 -123h-217q12 148 96 229t236 81q145 0 233 -72t88 -184q0 -106 -58 -171q-60 -68 -191 -128z" />
    <glyph glyph-name="three.sups" unicode="&#xb3;" horiz-adv-x="751" 
d="M596 1532q131 -56 131 -199q0 -123 -91 -196q-92 -74 -249 -74q-176 0 -267 85t-91 241h215q0 -77 32 -109q33 -33 105 -33q55 0 87 26t32 68q0 99 -125 99h-66v159h68q112 0 112 89q0 81 -104 81q-112 0 -119 -104h-215q12 281 336 281q146 0 233 -64q85 -63 85 -174
q0 -109 -109 -176z" />
    <glyph glyph-name="acute" unicode="&#xb4;" horiz-adv-x="819" 
d="M408 1178h-254l180 295h348z" />
    <glyph glyph-name="uni00B5" unicode="&#xb5;" horiz-adv-x="1196" 
d="M782 467v590h322v-1057h-313v147q-118 -172 -320 -172q-34 0 -63 9v-385h-316v1458h322v-629q0 -180 170 -180q85 0 142 57q56 56 56 162z" />
    <glyph glyph-name="paragraph" unicode="&#xb6;" horiz-adv-x="1220" 
d="M739 0h-241v743q-204 0 -327 94q-122 93 -122 259q0 362 483 362h578v-1458h-242v1233h-129v-1233z" />
    <glyph glyph-name="middot" unicode="&#xb7;" horiz-adv-x="499" 
d="M430 553h-360v352h360v-352z" />
    <glyph glyph-name="cedilla" unicode="&#xb8;" horiz-adv-x="819" 
d="M424 -88q98 0 157 -45q58 -45 58 -115q0 -94 -79 -146t-236 -52q-85 0 -144 14v115q59 -9 117 -9q123 0 123 82q0 74 -117 74q-29 0 -49 -2v78l82 104h141l-86 -100q10 2 33 2z" />
    <glyph glyph-name="one.sups" unicode="&#xb9;" horiz-adv-x="491" 
d="M264 1927h176v-846h-223v541h-186v154q92 0 148 31t85 120z" />
    <glyph glyph-name="ordmasculine" unicode="&#xba;" horiz-adv-x="1042" 
d="M520 516q-219 0 -350 131q-133 133 -133 348q0 218 133 351q131 131 350 131q223 0 354 -131q132 -132 132 -351q0 -218 -132 -348q-131 -131 -354 -131zM520 741q94 0 147 66q52 65 52 188q0 126 -52 191t-147 65t-145 -65q-51 -66 -51 -191q0 -122 51 -188t145 -66z
" />
    <glyph glyph-name="guillemotright" unicode="&#xbb;" horiz-adv-x="989" 
d="M291 541l-180 145v297l348 -285v-317l-348 -285v297zM530 686v297l349 -285v-317l-349 -285v297l181 148z" />
    <glyph glyph-name="onequarter" unicode="&#xbc;" horiz-adv-x="1478" 
d="M440 612h-223v541h-186v154q92 0 148 31t85 120h176v-846zM207 0l778 1458h203l-778 -1458h-203zM1343 354h105v-180h-105v-174h-223v174h-385v211l381 461h227v-492zM1124 354v260l-215 -260h215z" />
    <glyph glyph-name="onehalf" unicode="&#xbd;" horiz-adv-x="1576" 
d="M440 1458v-846h-223v541h-186v154q92 0 148 31t85 120h176zM227 0l779 1458h202l-778 -1458h-203zM1294 309l-47 -22q-94 -46 -110 -101h407v-186h-670l5 84q15 245 256 356l65 31q65 28 93 56t28 65q0 86 -98 86q-113 0 -115 -123h-217q12 147 96 228t236 81
q148 0 234 -70q87 -70 87 -186q0 -106 -58 -171q-59 -67 -192 -128z" />
    <glyph glyph-name="threequarters" unicode="&#xbe;" horiz-adv-x="1718" 
d="M727 864q0 -123 -91 -196q-92 -74 -249 -74q-176 0 -267 85t-91 241h215q0 -77 32 -109q33 -33 105 -33q55 0 87 26t32 68q0 99 -125 99h-66v159h68q112 0 112 89q0 81 -104 81q-112 0 -119 -104h-215q12 281 336 281q146 0 233 -64q85 -63 85 -174q0 -109 -109 -176
q131 -56 131 -199zM436 0l778 1458h203l-778 -1458h-203zM1583 354h105v-180h-105v-174h-223v174h-385v211l381 461h227v-492zM1364 354v260l-215 -260h215z" />
    <glyph glyph-name="questiondown" unicode="&#xbf;" horiz-adv-x="1120" 
d="M762 848h-363v352h363v-352zM549 -291q-235 0 -373 103q-137 102 -137 282q0 208 213 355q116 85 143 124q31 42 31 142h307q0 -113 -8 -156q-7 -43 -41 -100q-38 -64 -152 -142q-2 -1 -4.5 -3t-7 -5t-8.5 -6q-6 -4 -11.5 -8t-6.5 -5t-3.5 -2.5t-5.5 -4t-7 -4.5
q-5 -3 -9.5 -7.5t-5.5 -4.5l-12 -9q-10 -8 -12 -11q-4 -6 -10 -11q-5 -4 -11 -14t-10 -15q-25 -39 -25 -78q0 -154 176 -154q107 0 155 51q46 49 48 169h321q2 -241 -134 -363q-137 -123 -400 -123z" />
    <glyph glyph-name="Agrave" unicode="&#xc0;" horiz-adv-x="1499" 
d="M686 1841l180 -295h-254l-274 295h348zM1497 0h-367l-86 254h-606l-84 -254h-354l537 1458h411zM618 793l-83 -250h411l-84 250q-43 124 -123 368q-91 -280 -121 -368z" />
    <glyph glyph-name="Aacute" unicode="&#xc1;" horiz-adv-x="1499" 
d="M797 1841h348l-275 -295h-254zM1497 0h-367l-86 254h-606l-84 -254h-354l537 1458h411zM618 793l-83 -250h411l-84 250q-43 124 -123 368q-91 -280 -121 -368z" />
    <glyph glyph-name="Acircumflex" unicode="&#xc2;" horiz-adv-x="1499" 
d="M874 1546l-133 142l-135 -142h-287l242 295h354l244 -295h-285zM1497 0h-367l-86 254h-606l-84 -254h-354l537 1458h411zM618 793l-83 -250h411l-84 250q-43 124 -123 368q-91 -280 -121 -368z" />
    <glyph glyph-name="Atilde" unicode="&#xc3;" horiz-adv-x="1499" 
d="M608 1622q-56 0 -57 -76h-195q0 138 59 211q58 72 160 72q69 0 177 -41q74 -33 122 -33q56 0 58 74h194q0 -140 -58 -211q-58 -72 -161 -72q-62 0 -178 43q-80 33 -121 33zM1497 0h-367l-86 254h-606l-84 -254h-354l537 1458h411zM618 793l-83 -250h411l-84 250
q-43 124 -123 368q-91 -280 -121 -368z" />
    <glyph glyph-name="Adieresis" unicode="&#xc4;" horiz-adv-x="1499" 
d="M373 1817h307v-271h-307v271zM803 1817h307v-271h-307v271zM1497 0h-367l-86 254h-606l-84 -254h-354l537 1458h411zM618 793l-83 -250h411l-84 250q-43 124 -123 368q-91 -280 -121 -368z" />
    <glyph glyph-name="Aring" unicode="&#xc5;" horiz-adv-x="1499" 
d="M1497 0h-367l-86 254h-606l-84 -254h-354l506 1374q-80 85 -80 203q0 131 92 215q90 84 223 84q131 0 226 -84q90 -84 90 -215q0 -117 -78 -201zM827 1663q-35 33 -86 33t-86 -33q-34 -33 -34 -85t34 -85q35 -35 86 -35t86 35t35 86t-35 84zM618 793l-83 -250h411
l-84 250q-43 124 -123 368q-91 -280 -121 -368z" />
    <glyph glyph-name="AE" unicode="&#xc6;" horiz-adv-x="2170" 
d="M2120 1458v-309h-693v-264h623v-291h-623v-285h691v-309h-1028v313h-580l-152 -313h-358l715 1458h1405zM924 1169l-275 -567h441v567h-166z" />
    <glyph glyph-name="Ccedilla" unicode="&#xc7;" horiz-adv-x="1517" 
d="M1124 561h346q-30 -256 -193 -410q-165 -156 -415 -180l-80 -94q10 2 33 2q99 0 157 -45t58 -115q0 -94 -79 -146t-236 -52q-88 0 -144 14v115q50 -8 115 -8q125 0 125 82q0 73 -117 73q-29 0 -49 -2v78l76 96q-308 18 -488 224q-184 202 -184 536q0 351 197 557
q196 205 530 205q271 0 459 -143q192 -145 231 -412h-350q-33 123 -122 189q-90 67 -218 67q-177 0 -271 -121q-95 -122 -95 -342t95 -342q94 -121 271 -121q136 0 230 78t118 217z" />
    <glyph glyph-name="Egrave" unicode="&#xc8;" horiz-adv-x="1275" 
d="M612 1841l181 -295h-254l-275 295h348zM1225 1458v-309h-768v-264h698v-291h-698v-285h766v-309h-1112v1458h1114z" />
    <glyph glyph-name="Eacute" unicode="&#xc9;" horiz-adv-x="1275" 
d="M723 1841h348l-274 -295h-254zM1225 1458v-309h-768v-264h698v-291h-698v-285h766v-309h-1112v1458h1114z" />
    <glyph glyph-name="Ecircumflex" unicode="&#xca;" horiz-adv-x="1275" 
d="M801 1546l-133 142l-136 -142h-286l241 295h355l243 -295h-284zM1225 1458v-309h-768v-264h698v-291h-698v-285h766v-309h-1112v1458h1114z" />
    <glyph glyph-name="Edieresis" unicode="&#xcb;" horiz-adv-x="1275" 
d="M299 1817h307v-271h-307v271zM729 1817h307v-271h-307v271zM1225 1458v-309h-768v-264h698v-291h-698v-285h766v-309h-1112v1458h1114z" />
    <glyph glyph-name="Igrave" unicode="&#xcc;" horiz-adv-x="567" 
d="M397 1546h-227l-195 295h318zM457 0h-346v1458h346v-1458z" />
    <glyph glyph-name="Iacute" unicode="&#xcd;" horiz-adv-x="567" 
d="M594 1841l-195 -295h-227l104 295h318zM457 0h-346v1458h346v-1458z" />
    <glyph glyph-name="Icircumflex" unicode="&#xce;" horiz-adv-x="567" 
d="M383 1546l-100 140l-103 -140h-266l199 295h336l202 -295h-268zM457 0h-346v1458h346v-1458z" />
    <glyph glyph-name="Idieresis" unicode="&#xcf;" horiz-adv-x="567" 
d="M229 1546h-276v271h276v-271zM612 1546h-274v271h274v-271zM457 0h-346v1458h346v-1458z" />
    <glyph glyph-name="Eth" unicode="&#xd0;" horiz-adv-x="1548" 
d="M156 1458h598q361 0 553 -193t192 -536q0 -341 -192 -535t-553 -194h-598v655h-156v179h156v624zM502 293h246q187 0 289 109q102 110 102 327t-102 327q-102 109 -289 109h-246v-331h313v-179h-313v-362z" />
    <glyph glyph-name="Ntilde" unicode="&#xd1;" horiz-adv-x="1499" 
d="M616 1622q-56 0 -57 -76h-194q0 140 58 211q59 72 161 72q68 0 176 -41q74 -33 123 -33q55 0 57 74h195q0 -138 -59 -211q-58 -72 -161 -72q-62 0 -178 43q-80 33 -121 33zM1059 1153v305h330v-1458h-373l-357 582q-168 281 -227 397q8 -299 8 -674v-305h-329v1458h372
l357 -581q152 -251 227 -402q-8 304 -8 678z" />
    <glyph glyph-name="Ograve" unicode="&#xd2;" horiz-adv-x="1593" 
d="M922 1579h-254l-275 295h348zM797 -33q-334 0 -541 209q-207 212 -207 553t207 553q207 209 541 209q333 0 540 -209q207 -212 207 -553t-207 -553q-207 -209 -540 -209zM516 391q105 -123 281 -123q174 0 282 123q107 122 107 338t-107 338q-108 123 -282 123
q-176 0 -281 -123q-106 -121 -106 -338t106 -338z" />
    <glyph glyph-name="Oacute" unicode="&#xd3;" horiz-adv-x="1593" 
d="M926 1579h-254l180 295h348zM797 -33q-334 0 -541 209q-207 212 -207 553t207 553q207 209 541 209q333 0 540 -209q207 -212 207 -553t-207 -553q-207 -209 -540 -209zM516 391q105 -123 281 -123q174 0 282 123q107 122 107 338t-107 338q-108 123 -282 123
q-176 0 -281 -123q-106 -121 -106 -338t106 -338z" />
    <glyph glyph-name="Ocircumflex" unicode="&#xd4;" horiz-adv-x="1593" 
d="M930 1579l-133 141l-135 -141h-287l241 295h355l243 -295h-284zM797 1491q333 0 540 -209q207 -212 207 -553t-207 -553q-207 -209 -540 -209q-334 0 -541 209q-207 212 -207 553t207 553q207 209 541 209zM516 391q105 -123 281 -123q174 0 282 123q107 122 107 338
t-107 338q-108 123 -282 123q-176 0 -281 -123q-106 -121 -106 -338t106 -338z" />
    <glyph glyph-name="Otilde" unicode="&#xd5;" horiz-adv-x="1593" 
d="M606 1579h-194q0 140 58 211q58 72 161 72q68 0 176 -41q73 -33 123 -33q52 0 57 74h195q0 -138 -59 -211q-59 -72 -160 -72q-63 0 -179 43q-80 33 -120 33q-57 0 -58 -76zM797 -33q-334 0 -541 209q-207 212 -207 553t207 553q207 209 541 209q333 0 540 -209
q207 -212 207 -553t-207 -553q-207 -209 -540 -209zM516 391q105 -123 281 -123q174 0 282 123q107 122 107 338t-107 338q-108 123 -282 123q-176 0 -281 -123q-106 -121 -106 -338t106 -338z" />
    <glyph glyph-name="Odieresis" unicode="&#xd6;" horiz-adv-x="1593" 
d="M735 1579h-307v270h307v-270zM1165 1579h-307v270h307v-270zM797 -33q-334 0 -541 209q-207 212 -207 553t207 553q207 209 541 209q333 0 540 -209q207 -212 207 -553t-207 -553q-207 -209 -540 -209zM516 391q105 -123 281 -123q174 0 282 123q107 122 107 338
t-107 338q-108 123 -282 123q-176 0 -281 -123q-106 -121 -106 -338t106 -338z" />
    <glyph glyph-name="multiply" unicode="&#xd7;" horiz-adv-x="1081" 
d="M811 1190l190 -191l-270 -268l270 -268l-190 -191l-270 269l-271 -269l-190 191l270 268l-270 268l190 191l271 -268z" />
    <glyph glyph-name="Oslash" unicode="&#xd8;" horiz-adv-x="1593" 
d="M1409 1563l139 -125l-174 -197q170 -206 170 -512q0 -341 -207 -553q-207 -209 -540 -209q-254 0 -441 125l-174 -196l-139 124l174 197q-168 205 -168 512q0 341 207 553q207 209 541 209q251 0 438 -125zM410 729q0 -136 47 -242l563 635q-92 68 -223 68
q-178 0 -283 -124q-104 -123 -104 -337zM1186 729q0 138 -47 246l-566 -639q97 -68 224 -68q178 0 283 124q106 126 106 337z" />
    <glyph glyph-name="Ugrave" unicode="&#xd9;" horiz-adv-x="1447" 
d="M848 1546h-254l-275 295h349zM723 -33q-284 0 -459 154q-174 150 -174 434v903h346v-907q0 -140 75 -212q76 -73 212 -73q135 0 213 73q76 72 76 212v907h346v-903q0 -281 -169 -434q-171 -154 -466 -154z" />
    <glyph glyph-name="Uacute" unicode="&#xda;" horiz-adv-x="1447" 
d="M854 1546h-254l180 295h348zM723 -33q-284 0 -459 154q-174 150 -174 434v903h346v-907q0 -140 75 -212q76 -73 212 -73q135 0 213 73q76 72 76 212v907h346v-903q0 -281 -169 -434q-171 -154 -466 -154z" />
    <glyph glyph-name="Ucircumflex" unicode="&#xdb;" horiz-adv-x="1447" 
d="M858 1546l-133 142l-135 -142h-287l242 295h354l244 -295h-285zM1012 551v907h346v-903q0 -281 -169 -434q-171 -154 -466 -154q-284 0 -459 154q-174 150 -174 434v903h346v-907q0 -140 75 -212q76 -73 212 -73q135 0 213 73q76 72 76 212z" />
    <glyph glyph-name="Udieresis" unicode="&#xdc;" horiz-adv-x="1447" 
d="M662 1546h-308v271h308v-271zM1092 1546h-308v271h308v-271zM723 -33q-284 0 -459 154q-174 150 -174 434v903h346v-907q0 -140 75 -212q76 -73 212 -73q135 0 213 73q76 72 76 212v907h346v-903q0 -281 -169 -434q-171 -154 -466 -154z" />
    <glyph glyph-name="Yacute" unicode="&#xdd;" horiz-adv-x="1433" 
d="M774 1841h348l-274 -295h-254zM930 1249l123 209h381l-541 -891v-567h-346v567l-547 891h391l127 -211q52 -92 107 -184q34 -63 40 -72q8 -13 20 -35t17 -30t13.5 -22t11.5 -19q103 191 203 364z" />
    <glyph glyph-name="Thorn" unicode="&#xde;" horiz-adv-x="1361" 
d="M457 1221h317q251 0 395 -132t144 -360q0 -227 -144 -359t-395 -132h-317v-238h-346v1458h346v-237zM457 530h295q100 0 158 52q57 51 57 147q0 97 -57 148t-158 51h-295v-398z" />
    <glyph glyph-name="germandbls" unicode="&#xdf;" horiz-adv-x="1214" 
d="M932 813q110 -49 172 -144q61 -94 61 -212q0 -213 -145 -336q-145 -125 -389 -125q-32 0 -105 4v254q44 -4 76 -4q111 0 173 55q63 55 63 148q0 99 -63 151q-64 53 -179 53h-61v213h59q83 0 136 50q52 49 52 124q0 77 -50 127t-134 50q-87 0 -137 -52q-49 -50 -49 -139
v-1030h-320v1018q0 224 129 349q128 124 369 124q205 0 346 -115q135 -114 135 -278q0 -183 -139 -285z" />
    <glyph glyph-name="agrave" unicode="&#xe0;" horiz-adv-x="1144" 
d="M547 1473l180 -295h-254l-274 295h348zM1110 0h-322q-25 47 -26 119q-106 -144 -338 -144q-174 0 -280 86q-105 85 -105 238q0 295 414 330l165 14q138 15 138 105q0 106 -162 106q-98 0 -138 -30q-41 -30 -48 -109h-318q28 366 506 366q471 0 471 -325v-561
q0 -134 43 -195zM520 190q109 0 172 57q64 58 64 169v78q-29 -30 -107 -41l-131 -15q-153 -16 -153 -127q0 -55 41 -88q40 -33 114 -33z" />
    <glyph glyph-name="aacute" unicode="&#xe1;" horiz-adv-x="1144" 
d="M657 1473h349l-275 -295h-254zM1110 0h-322q-25 47 -26 119q-106 -144 -338 -144q-174 0 -280 86q-105 85 -105 238q0 295 414 330l165 14q138 15 138 105q0 106 -162 106q-98 0 -138 -30q-41 -30 -48 -109h-318q28 366 506 366q471 0 471 -325v-561q0 -134 43 -195z
M520 190q109 0 172 57q64 58 64 169v78q-29 -30 -107 -41l-131 -15q-153 -16 -153 -127q0 -55 41 -88q40 -33 114 -33z" />
    <glyph glyph-name="acircumflex" unicode="&#xe2;" horiz-adv-x="1144" 
d="M729 1178l-133 139l-135 -139h-287l242 295h354l244 -295h-285zM1110 0h-322q-25 47 -26 119q-106 -144 -338 -144q-174 0 -280 86q-105 85 -105 238q0 295 414 330l165 14q138 15 138 105q0 106 -162 106q-98 0 -138 -30q-41 -30 -48 -109h-318q28 366 506 366
q471 0 471 -325v-561q0 -134 43 -195zM520 190q109 0 172 57q64 58 64 169v78q-29 -30 -107 -41l-131 -15q-153 -16 -153 -127q0 -55 41 -88q40 -33 114 -33z" />
    <glyph glyph-name="atilde" unicode="&#xe3;" horiz-adv-x="1144" 
d="M461 1253q-57 0 -58 -75h-194q0 140 58 211t161 71q68 0 176 -41q74 -33 123 -33q55 0 57 74h195q0 -140 -58 -211t-161 -71q-62 0 -178 43q-77 32 -121 32zM1110 0h-322q-25 47 -26 119q-106 -144 -338 -144q-174 0 -280 86q-105 85 -105 238q0 295 414 330l165 14
q138 15 138 105q0 106 -162 106q-98 0 -138 -30q-41 -30 -48 -109h-318q28 366 506 366q471 0 471 -325v-561q0 -134 43 -195zM520 190q109 0 172 57q64 58 64 169v78q-29 -30 -107 -41l-131 -15q-153 -16 -153 -127q0 -55 41 -88q40 -33 114 -33z" />
    <glyph glyph-name="adieresis" unicode="&#xe4;" horiz-adv-x="1144" 
d="M225 1448h307v-270h-307v270zM655 1448h308v-270h-308v270zM1110 0h-322q-25 47 -26 119q-106 -144 -338 -144q-174 0 -280 86q-105 85 -105 238q0 295 414 330l165 14q138 15 138 105q0 106 -162 106q-98 0 -138 -30q-41 -30 -48 -109h-318q28 366 506 366
q471 0 471 -325v-561q0 -134 43 -195zM520 190q109 0 172 57q64 58 64 169v78q-29 -30 -107 -41l-131 -15q-153 -16 -153 -127q0 -55 41 -88q40 -33 114 -33z" />
    <glyph glyph-name="aring" unicode="&#xe5;" horiz-adv-x="1144" 
d="M819 1253q-95 -84 -225 -84q-133 0 -223 84q-92 83 -92 215q0 129 92 213q90 84 223 84q130 0 225 -84q90 -84 90 -213q0 -131 -90 -215zM680 1554q-35 35 -86 35t-86 -35t-35 -86t35 -84q33 -32 86 -32t86 32q35 33 35 84t-35 86zM1110 0h-322q-25 47 -26 119
q-106 -144 -338 -144q-174 0 -280 86q-105 85 -105 238q0 295 414 330l165 14q138 15 138 105q0 106 -162 106q-98 0 -138 -30q-41 -30 -48 -109h-318q28 366 506 366q471 0 471 -325v-561q0 -134 43 -195zM520 190q109 0 172 57q64 58 64 169v78q-29 -30 -107 -41l-131 -15
q-153 -16 -153 -127q0 -55 41 -88q40 -33 114 -33z" />
    <glyph glyph-name="ae" unicode="&#xe6;" horiz-adv-x="1847" 
d="M1790 498v-64h-743q30 -223 231 -223q146 0 203 119h286q-40 -165 -173 -260t-318 -95q-243 0 -389 164q-164 -164 -432 -164q-195 0 -305 85q-111 86 -111 239q0 295 414 330l165 14q138 15 138 105q0 106 -162 106q-98 0 -138 -30q-41 -30 -48 -109h-318
q28 366 506 366q249 0 348 -108q134 108 328 108q238 0 379 -157q139 -161 139 -426zM1270 846q-188 0 -221 -209h444q-38 209 -223 209zM520 190q109 0 172 57q64 58 64 169v78q-29 -30 -107 -41l-131 -15q-153 -16 -153 -127q0 -55 41 -88q40 -33 114 -33z" />
    <glyph glyph-name="ccedilla" unicode="&#xe7;" horiz-adv-x="1142" 
d="M797 416h317q-15 -178 -129 -294t-299 -140l-82 -97q10 2 33 2q99 0 157 -45t58 -114q0 -95 -79 -147t-236 -52q-88 0 -144 14v115q50 -8 115 -8q125 0 125 82q0 73 -117 73q-29 0 -49 -2v78l76 96q-227 16 -361 164q-133 146 -133 387q0 253 148 404q146 149 395 149
q218 0 355 -113q139 -114 161 -309h-317q-27 162 -199 162q-219 0 -219 -293q0 -290 219 -290q184 0 205 178z" />
    <glyph glyph-name="egrave" unicode="&#xe8;" horiz-adv-x="1196" 
d="M545 1473l180 -295h-254l-274 295h348zM1139 498v-64h-783q17 -109 80 -166t162 -57q156 0 213 119h303q-44 -166 -182 -259q-142 -96 -334 -96q-245 0 -397 152t-152 401q0 252 150 402q147 151 395 151q246 0 397 -157q148 -160 148 -426zM590 846q-197 0 -232 -209
h467q-17 99 -77 154q-61 55 -158 55z" />
    <glyph glyph-name="eacute" unicode="&#xe9;" horiz-adv-x="1196" 
d="M657 1473h349l-275 -295h-254zM1139 498v-64h-783q17 -109 80 -166t162 -57q156 0 213 119h303q-44 -166 -182 -259q-142 -96 -334 -96q-245 0 -397 152t-152 401q0 252 150 402q147 151 395 151q246 0 397 -157q148 -160 148 -426zM590 846q-197 0 -232 -209h467
q-17 99 -77 154q-61 55 -158 55z" />
    <glyph glyph-name="ecircumflex" unicode="&#xea;" horiz-adv-x="1196" 
d="M727 1178l-133 139l-135 -139h-287l242 295h354l244 -295h-285zM1139 498v-64h-783q17 -109 80 -166t162 -57q156 0 213 119h303q-44 -166 -182 -259q-142 -96 -334 -96q-245 0 -397 152t-152 401q0 252 150 402q147 151 395 151q246 0 397 -157q148 -160 148 -426z
M590 846q-197 0 -232 -209h467q-17 99 -77 154q-61 55 -158 55z" />
    <glyph glyph-name="edieresis" unicode="&#xeb;" horiz-adv-x="1196" 
d="M225 1448h307v-270h-307v270zM655 1448h308v-270h-308v270zM1139 498v-64h-783q17 -109 80 -166t162 -57q156 0 213 119h303q-44 -166 -182 -259q-142 -96 -334 -96q-245 0 -397 152t-152 401q0 252 150 402q147 151 395 151q246 0 397 -157q148 -160 148 -426zM590 846
q-197 0 -232 -209h467q-17 99 -77 154q-61 55 -158 55z" />
    <glyph glyph-name="igrave" unicode="&#xec;" horiz-adv-x="505" 
d="M365 1178h-228l-194 295h317zM412 0h-320v1057h320v-1057z" />
    <glyph glyph-name="iacute" unicode="&#xed;" horiz-adv-x="505" 
d="M367 1178h-228l105 295h317zM412 0h-320v1057h320v-1057z" />
    <glyph glyph-name="icircumflex" unicode="&#xee;" horiz-adv-x="505" 
d="M352 1178l-100 139l-102 -139h-267l199 295h336l203 -295h-269zM412 0h-320v1057h320v-1057z" />
    <glyph glyph-name="idieresis" unicode="&#xef;" horiz-adv-x="505" 
d="M199 1178h-277v270h277v-270zM582 1178h-275v270h275v-270zM412 0h-320v1057h320v-1057z" />
    <glyph glyph-name="eth" unicode="&#xf0;" horiz-adv-x="1204" 
d="M1038 1290l-172 -49q289 -349 289 -690q0 -273 -151 -424q-152 -152 -400 -152q-245 0 -399 148q-156 144 -156 391q0 233 146 379q145 141 397 141q74 0 147 -30q-50 76 -131 163l-338 -98v178l203 60l-156 151h340l76 -74l2 -2l303 88v-180zM434 303q61 -72 170 -72
q108 0 170 72q60 72 60 205q0 135 -60 207q-59 71 -170 71q-112 0 -171 -71q-60 -72 -60 -207q0 -137 61 -205z" />
    <glyph glyph-name="ntilde" unicode="&#xf1;" horiz-adv-x="1193" 
d="M463 1253q-56 0 -57 -75h-195q0 140 58 211t161 71q68 0 176 -41q74 -33 123 -33q52 0 57 74h195q0 -140 -58 -211t-161 -71q-62 0 -178 43q-77 32 -121 32zM735 1081q169 0 267 -101q100 -103 100 -288v-692h-320v629q0 180 -170 180q-86 0 -143 -57t-57 -162v-590h-320
v1057h311v-150q123 174 332 174z" />
    <glyph glyph-name="ograve" unicode="&#xf2;" horiz-adv-x="1206" 
d="M735 1178h-254l-274 295h348zM604 -25q-251 0 -403 152t-152 401q0 252 152 404q149 149 403 149q255 0 404 -149t149 -404q0 -252 -149 -401q-152 -152 -404 -152zM604 231q110 0 170 76t60 221q0 146 -60 222q-59 75 -170 75q-113 0 -172 -75t-59 -222q0 -146 59 -221
q60 -76 172 -76z" />
    <glyph glyph-name="oacute" unicode="&#xf3;" horiz-adv-x="1206" 
d="M741 1178h-254l181 295h348zM604 -25q-251 0 -403 152t-152 401q0 252 152 404q149 149 403 149q255 0 404 -149t149 -404q0 -252 -149 -401q-152 -152 -404 -152zM604 231q110 0 170 76t60 221q0 146 -60 222q-59 75 -170 75q-113 0 -172 -75t-59 -222q0 -146 59 -221
q60 -76 172 -76z" />
    <glyph glyph-name="ocircumflex" unicode="&#xf4;" horiz-adv-x="1206" 
d="M737 1178l-133 139l-135 -139h-287l242 295h354l244 -295h-285zM604 1081q255 0 404 -149t149 -404q0 -252 -149 -401q-152 -152 -404 -152q-251 0 -403 152t-152 401q0 252 152 404q149 149 403 149zM604 231q110 0 170 76t60 221q0 146 -60 222q-59 75 -170 75
q-113 0 -172 -75t-59 -222q0 -146 59 -221q60 -76 172 -76z" />
    <glyph glyph-name="otilde" unicode="&#xf5;" horiz-adv-x="1206" 
d="M412 1178h-195q0 140 58 211t161 71q68 0 176 -41q74 -33 123 -33q56 0 58 74h194q0 -140 -58 -211t-161 -71q-62 0 -178 43q-77 32 -121 32q-56 0 -57 -75zM604 -25q-251 0 -403 152t-152 401q0 252 152 404q149 149 403 149q255 0 404 -149t149 -404q0 -252 -149 -401
q-152 -152 -404 -152zM604 231q110 0 170 76t60 221q0 146 -60 222q-59 75 -170 75q-113 0 -172 -75t-59 -222q0 -146 59 -221q60 -76 172 -76z" />
    <glyph glyph-name="odieresis" unicode="&#xf6;" horiz-adv-x="1206" 
d="M541 1178h-308v270h308v-270zM971 1178h-307v270h307v-270zM604 -25q-251 0 -403 152t-152 401q0 252 152 404q149 149 403 149q255 0 404 -149t149 -404q0 -252 -149 -401q-152 -152 -404 -152zM604 231q110 0 170 76t60 221q0 146 -60 222q-59 75 -170 75
q-113 0 -172 -75t-59 -222q0 -146 59 -221q60 -76 172 -76z" />
    <glyph glyph-name="divide" unicode="&#xf7;" horiz-adv-x="1081" 
d="M688 989h-293v258h293v-258zM1022 596h-963v268h963v-268zM688 213h-293v258h293v-258z" />
    <glyph glyph-name="oslash" unicode="&#xf8;" horiz-adv-x="1206" 
d="M1042 1141l117 -105l-123 -139q121 -145 121 -369q0 -252 -149 -401q-152 -152 -404 -152q-179 0 -315 80l-125 -141l-119 104l125 142q-121 145 -121 368q0 252 152 404q149 149 403 149q178 0 314 -80zM358 528q0 -68 17 -139l368 416q-61 41 -139 41q-119 0 -182 -81
q-64 -82 -64 -237zM848 528q0 69 -17 140l-368 -416q61 -41 141 -41q117 0 180 81q64 82 64 236z" />
    <glyph glyph-name="ugrave" unicode="&#xf9;" horiz-adv-x="1193" 
d="M541 1473l180 -295h-254l-274 295h348zM782 467v590h320v-1057h-311v150q-124 -175 -332 -175q-169 0 -268 102t-99 288v692h320v-629q0 -180 170 -180q86 0 143 57t57 162z" />
    <glyph glyph-name="uacute" unicode="&#xfa;" horiz-adv-x="1193" 
d="M651 1473h348l-274 -295h-254zM782 467v590h320v-1057h-311v150q-124 -175 -332 -175q-169 0 -268 102t-99 288v692h320v-629q0 -180 170 -180q86 0 143 57t57 162z" />
    <glyph glyph-name="ucircumflex" unicode="&#xfb;" horiz-adv-x="1193" 
d="M721 1178l-133 139l-135 -139h-287l242 295h354l244 -295h-285zM782 467v590h320v-1057h-311v150q-124 -175 -332 -175q-169 0 -268 102t-99 288v692h320v-629q0 -180 170 -180q86 0 143 57t57 162z" />
    <glyph glyph-name="udieresis" unicode="&#xfc;" horiz-adv-x="1193" 
d="M219 1448h307v-270h-307v270zM649 1448h307v-270h-307v270zM782 467v590h320v-1057h-311v150q-124 -175 -332 -175q-169 0 -268 102t-99 288v692h320v-629q0 -180 170 -180q86 0 143 57t57 162z" />
    <glyph glyph-name="yacute" unicode="&#xfd;" horiz-adv-x="1128" 
d="M629 1473h348l-275 -295h-253zM750 905l47 152h329l-383 -1098q-72 -206 -182 -283q-113 -79 -344 -79q-49 0 -125 4v245h103q159 0 159 148q0 67 -49 205l-303 858h344l47 -150q101 -341 180 -665q71 298 177 663z" />
    <glyph glyph-name="thorn" unicode="&#xfe;" horiz-adv-x="1234" 
d="M723 1081q215 0 339 -149t124 -404q0 -254 -124 -403q-124 -150 -339 -150q-201 0 -309 152v-528h-322v1859h322v-528q108 151 309 151zM635 231q108 0 168 79q59 78 59 227q0 288 -227 288q-225 0 -225 -297t225 -297z" />
    <glyph glyph-name="ydieresis" unicode="&#xff;" horiz-adv-x="1128" 
d="M197 1448h307v-270h-307v270zM627 1448h307v-270h-307v270zM750 905l47 152h329l-383 -1098q-72 -206 -182 -283q-113 -79 -344 -79q-49 0 -125 4v245h103q159 0 159 148q0 67 -49 205l-303 858h344l47 -150q101 -341 180 -665q71 298 177 663z" />
    <glyph glyph-name="Amacron" unicode="&#x100;" horiz-adv-x="1499" 
d="M397 1755h688v-209h-688v209zM1497 0h-367l-86 254h-606l-84 -254h-354l537 1458h411zM618 793l-83 -250h411l-84 250q-43 124 -123 368q-91 -280 -121 -368z" />
    <glyph glyph-name="amacron" unicode="&#x101;" horiz-adv-x="1144" 
d="M250 1386h688v-208h-688v208zM1110 0h-322q-25 47 -26 119q-106 -144 -338 -144q-174 0 -280 86q-105 85 -105 238q0 295 414 330l165 14q138 15 138 105q0 106 -162 106q-98 0 -138 -30q-41 -30 -48 -109h-318q28 366 506 366q471 0 471 -325v-561q0 -134 43 -195z
M520 190q109 0 172 57q64 58 64 169v78q-29 -30 -107 -41l-131 -15q-153 -16 -153 -127q0 -55 41 -88q40 -33 114 -33z" />
    <glyph glyph-name="Abreve" unicode="&#x102;" horiz-adv-x="1499" 
d="M983 1618q-94 -82 -242 -82q-147 0 -241 82q-99 80 -123 223h231q15 -117 133 -117t133 117h232q-27 -143 -123 -223zM1497 0h-367l-86 254h-606l-84 -254h-354l537 1458h411zM618 793l-83 -250h411l-84 250q-43 124 -123 368q-91 -280 -121 -368z" />
    <glyph glyph-name="abreve" unicode="&#x103;" horiz-adv-x="1144" 
d="M836 1249q-94 -82 -242 -82t-242 82q-99 79 -123 224h232q15 -117 133 -117t133 117h231q-27 -146 -122 -224zM1110 0h-322q-25 47 -26 119q-106 -144 -338 -144q-174 0 -280 86q-105 85 -105 238q0 295 414 330l165 14q138 15 138 105q0 106 -162 106q-98 0 -138 -30
q-41 -30 -48 -109h-318q28 366 506 366q471 0 471 -325v-561q0 -134 43 -195zM520 190q109 0 172 57q64 58 64 169v78q-29 -30 -107 -41l-131 -15q-153 -16 -153 -127q0 -55 41 -88q40 -33 114 -33z" />
    <glyph glyph-name="Aogonek" unicode="&#x104;" horiz-adv-x="1499" 
d="M1298 -180q0 -74 103 -74q50 0 96 14v-168q-63 -18 -147 -18q-133 0 -210 53t-77 146q0 64 53 128q50 60 156 99h-142l-86 254h-606l-84 -254h-354l537 1458h411l549 -1458q-199 -89 -199 -180zM618 793l-83 -250h411l-84 250q-43 124 -123 368q-91 -280 -121 -368z" />
    <glyph glyph-name="aogonek" unicode="&#x105;" horiz-adv-x="1144" 
d="M913 -180q0 -74 103 -74q48 0 94 14v-168q-63 -18 -145 -18q-135 0 -212 53t-77 146q0 122 139 207q-43 43 -53 141q-108 -146 -338 -146q-174 0 -280 86q-105 85 -105 238q0 295 414 330l165 14q138 15 138 105q0 106 -162 106q-98 0 -138 -30q-41 -30 -48 -109h-318
q28 366 506 366q471 0 471 -325v-561q0 -134 43 -195q-197 -90 -197 -180zM520 190q109 0 172 57q64 58 64 169v78q-29 -30 -107 -41l-131 -15q-153 -16 -153 -127q0 -55 41 -88q40 -33 114 -33z" />
    <glyph glyph-name="Cacute" unicode="&#x106;" horiz-adv-x="1517" 
d="M907 1579h-254l181 295h348zM776 -33q-325 0 -526 207t-201 555q0 351 197 557q196 205 530 205q271 0 459 -143q192 -145 231 -412h-350q-33 123 -122 189q-90 67 -218 67q-177 0 -271 -121q-95 -122 -95 -342t95 -342q94 -121 271 -121q136 0 230 78t118 217h346
q-33 -282 -223 -438q-192 -156 -471 -156z" />
    <glyph glyph-name="cacute" unicode="&#x107;" horiz-adv-x="1142" 
d="M729 1178h-254l180 295h349zM592 -25q-248 0 -395 152q-148 153 -148 401q0 253 148 404q146 149 395 149q218 0 355 -113q139 -114 161 -309h-317q-27 162 -199 162q-219 0 -219 -293q0 -290 219 -290q184 0 205 178h317q-15 -201 -158 -322q-145 -119 -364 -119z" />
    <glyph glyph-name="Ccircumflex" unicode="&#x108;" horiz-adv-x="1517" 
d="M911 1579l-133 141l-135 -141h-287l242 295h354l244 -295h-285zM1124 561h346q-33 -282 -223 -438q-192 -156 -471 -156q-325 0 -526 207t-201 555q0 351 197 557q196 205 530 205q271 0 459 -143q192 -145 231 -412h-350q-33 123 -122 189q-90 67 -218 67
q-177 0 -271 -121q-95 -122 -95 -342t95 -342q94 -121 271 -121q136 0 230 78t118 217z" />
    <glyph glyph-name="ccircumflex" unicode="&#x109;" horiz-adv-x="1142" 
d="M727 1178l-133 139l-135 -139h-287l242 295h354l244 -295h-285zM797 416h317q-15 -201 -158 -322q-145 -119 -364 -119q-248 0 -395 152q-148 153 -148 401q0 253 148 404q146 149 395 149q218 0 355 -113q139 -114 161 -309h-317q-27 162 -199 162q-219 0 -219 -293
q0 -290 219 -290q184 0 205 178z" />
    <glyph glyph-name="Cdotaccent" unicode="&#x10a;" horiz-adv-x="1517" 
d="M928 1579h-307v270h307v-270zM776 -33q-325 0 -526 207t-201 555q0 351 197 557q196 205 530 205q271 0 459 -143q192 -145 231 -412h-350q-33 123 -122 189q-90 67 -218 67q-177 0 -271 -121q-95 -122 -95 -342t95 -342q94 -121 271 -121q136 0 230 78t118 217h346
q-33 -282 -223 -438q-192 -156 -471 -156z" />
    <glyph glyph-name="cdotaccent" unicode="&#x10b;" horiz-adv-x="1142" 
d="M748 1178h-308v270h308v-270zM592 -25q-248 0 -395 152q-148 153 -148 401q0 253 148 404q146 149 395 149q218 0 355 -113q139 -114 161 -309h-317q-27 162 -199 162q-219 0 -219 -293q0 -290 219 -290q184 0 205 178h317q-15 -201 -158 -322q-145 -119 -364 -119z" />
    <glyph glyph-name="Ccaron" unicode="&#x10c;" horiz-adv-x="1517" 
d="M1196 1874l-242 -295h-354l-244 295h285l135 -141l133 141h287zM1124 561h346q-33 -282 -223 -438q-192 -156 -471 -156q-325 0 -526 207t-201 555q0 351 197 557q196 205 530 205q271 0 459 -143q192 -145 231 -412h-350q-33 123 -122 189q-90 67 -218 67
q-177 0 -271 -121q-95 -122 -95 -342t95 -342q94 -121 271 -121q136 0 230 78t118 217z" />
    <glyph glyph-name="ccaron" unicode="&#x10d;" horiz-adv-x="1142" 
d="M1012 1473l-242 -295h-354l-244 295h285l135 -142l133 142h287zM797 416h317q-15 -201 -158 -322q-145 -119 -364 -119q-248 0 -395 152q-148 153 -148 401q0 253 148 404q146 149 395 149q218 0 355 -113q139 -114 161 -309h-317q-27 162 -199 162q-219 0 -219 -293
q0 -290 219 -290q184 0 205 178z" />
    <glyph glyph-name="Dcaron" unicode="&#x10e;" horiz-adv-x="1503" 
d="M1143 1841l-242 -295h-354l-244 295h285l135 -141l133 141h287zM111 1458h598q361 0 553 -193t192 -536q0 -341 -192 -535t-553 -194h-598v1458zM457 293h245q188 0 290 109q102 110 102 327t-102 327q-102 109 -290 109h-245v-872z" />
    <glyph glyph-name="dcaron" unicode="&#x10f;" horiz-adv-x="1558" 
d="M819 930v528h320v-1458h-312v137q-107 -162 -317 -162q-213 0 -336 150q-125 151 -125 403q0 253 125 404q122 149 336 149q201 0 309 -151zM1212 1118l54 340h313l-158 -340h-209zM598 231q227 0 227 297t-227 297q-106 0 -166 -79q-59 -78 -59 -226q0 -289 225 -289z
" />
    <glyph glyph-name="Dcroat" unicode="&#x110;" horiz-adv-x="1548" 
d="M156 1458h598q361 0 553 -193t192 -536q0 -341 -192 -535t-553 -194h-598v655h-156v179h156v624zM502 293h246q187 0 289 109q102 110 102 327t-102 327q-102 109 -289 109h-246v-331h313v-179h-313v-362z" />
    <glyph glyph-name="dslash" unicode="&#x111;" horiz-adv-x="1296" 
d="M1139 1356h157v-178h-157v-1178h-312v137q-107 -162 -317 -162q-213 0 -336 150q-125 151 -125 403q0 253 125 404q122 149 336 149q201 0 309 -151v248h-223v178h223v102h320v-102zM598 231q227 0 227 297t-227 297q-106 0 -166 -79q-59 -78 -59 -226q0 -289 225 -289z
" />
    <glyph glyph-name="Emacron" unicode="&#x112;" horiz-adv-x="1275" 
d="M324 1755h688v-209h-688v209zM1225 1458v-309h-768v-264h698v-291h-698v-285h766v-309h-1112v1458h1114z" />
    <glyph glyph-name="emacron" unicode="&#x113;" horiz-adv-x="1196" 
d="M250 1386h688v-208h-688v208zM1139 498v-64h-783q17 -109 80 -166t162 -57q156 0 213 119h303q-44 -166 -182 -259q-142 -96 -334 -96q-245 0 -397 152t-152 401q0 252 150 402q147 151 395 151q246 0 397 -157q148 -160 148 -426zM590 846q-197 0 -232 -209h467
q-17 99 -77 154q-61 55 -158 55z" />
    <glyph glyph-name="Ebreve" unicode="&#x114;" horiz-adv-x="1275" 
d="M909 1618q-94 -82 -241 -82q-148 0 -242 82q-99 80 -123 223h232q15 -117 133 -117t133 117h231q-27 -143 -123 -223zM1225 1458v-309h-768v-264h698v-291h-698v-285h766v-309h-1112v1458h1114z" />
    <glyph glyph-name="ebreve" unicode="&#x115;" horiz-adv-x="1196" 
d="M836 1249q-94 -82 -242 -82t-242 82q-99 79 -123 224h232q15 -117 133 -117t133 117h231q-27 -146 -122 -224zM1139 498v-64h-783q17 -109 80 -166t162 -57q156 0 213 119h303q-44 -166 -182 -259q-142 -96 -334 -96q-245 0 -397 152t-152 401q0 252 150 402
q147 151 395 151q246 0 397 -157q148 -160 148 -426zM590 846q-197 0 -232 -209h467q-17 99 -77 154q-61 55 -158 55z" />
    <glyph glyph-name="Edotaccent" unicode="&#x116;" horiz-adv-x="1275" 
d="M512 1817h307v-271h-307v271zM1225 1458v-309h-768v-264h698v-291h-698v-285h766v-309h-1112v1458h1114z" />
    <glyph glyph-name="edotaccent" unicode="&#x117;" horiz-adv-x="1196" 
d="M440 1448h308v-270h-308v270zM1139 498v-64h-783q17 -109 80 -166t162 -57q156 0 213 119h303q-44 -166 -182 -259q-142 -96 -334 -96q-245 0 -397 152t-152 401q0 252 150 402q147 151 395 151q246 0 397 -157q148 -160 148 -426zM590 846q-197 0 -232 -209h467
q-17 99 -77 154q-61 55 -158 55z" />
    <glyph glyph-name="Eogonek" unicode="&#x118;" horiz-adv-x="1275" 
d="M1225 1458v-309h-768v-264h698v-291h-698v-285h766v-309q-199 -89 -199 -180q0 -74 102 -74q51 0 97 14v-168q-63 -18 -148 -18q-133 0 -210 53t-77 146q0 63 54 128q50 61 155 99h-886v1458h1114z" />
    <glyph glyph-name="eogonek" unicode="&#x119;" horiz-adv-x="1196" 
d="M1139 498v-64h-783q17 -109 80 -166t162 -57q156 0 213 119h303q-33 -128 -123 -213q-91 -87 -225 -121q-191 -86 -191 -176q0 -74 103 -74q50 0 96 14v-168q-66 -18 -147 -18q-133 0 -210 53t-77 146q0 125 164 209q-210 29 -332 175q-123 147 -123 371q0 252 150 402
q147 151 395 151q246 0 397 -157q148 -160 148 -426zM590 846q-197 0 -232 -209h467q-17 99 -77 154q-61 55 -158 55z" />
    <glyph glyph-name="Ecaron" unicode="&#x11a;" horiz-adv-x="1275" 
d="M1085 1841l-241 -295h-355l-243 295h284l136 -141l133 141h286zM1225 1458v-309h-768v-264h698v-291h-698v-285h766v-309h-1112v1458h1114z" />
    <glyph glyph-name="ecaron" unicode="&#x11b;" horiz-adv-x="1196" 
d="M1012 1473l-242 -295h-354l-244 295h285l135 -142l133 142h287zM1139 498v-64h-783q17 -109 80 -166t162 -57q156 0 213 119h303q-44 -166 -182 -259q-142 -96 -334 -96q-245 0 -397 152t-152 401q0 252 150 402q147 151 395 151q246 0 397 -157q148 -160 148 -426z
M590 846q-197 0 -232 -209h467q-17 99 -77 154q-61 55 -158 55z" />
    <glyph glyph-name="Gcircumflex" unicode="&#x11c;" horiz-adv-x="1593" 
d="M922 1579l-134 141l-135 -141h-286l241 295h355l243 -295h-284zM831 543v270h672v-813h-241l-41 193q-148 -226 -473 -226q-317 0 -508 209q-191 206 -191 553q0 350 199 557q196 205 540 205q285 0 474 -141q190 -144 223 -383h-355q-30 106 -118 166q-87 59 -221 59
q-178 0 -280 -123q-101 -122 -101 -340q0 -217 105 -340t292 -123q134 0 232 77t116 200h-324z" />
    <glyph glyph-name="gcircumflex" unicode="&#x11d;" horiz-adv-x="1230" 
d="M756 1178l-133 139l-136 -139h-286l241 295h355l243 -295h-284zM827 918v139h312v-1024q0 -215 -143 -337t-398 -122q-236 0 -369 103q-132 103 -143 284h315q12 -147 203 -147q104 0 160 54q55 54 55 152v152q-100 -149 -303 -149q-209 0 -338 147t-129 383
q0 234 127 383q127 145 334 145q212 0 317 -163zM598 279q108 0 168 70q59 69 59 204t-58 203q-59 69 -169 69q-106 0 -166 -72q-59 -71 -59 -204q0 -131 59 -200q60 -70 166 -70z" />
    <glyph glyph-name="Gbreve" unicode="&#x11e;" horiz-adv-x="1593" 
d="M1030 1651q-94 -82 -242 -82q-147 0 -241 82q-99 80 -123 223h231q16 -117 133 -117q118 0 134 117h231q-27 -143 -123 -223zM831 543v270h672v-813h-241l-41 193q-148 -226 -473 -226q-317 0 -508 209q-191 206 -191 553q0 350 199 557q196 205 540 205q285 0 474 -141
q190 -144 223 -383h-355q-30 106 -118 166q-87 59 -221 59q-178 0 -280 -123q-101 -122 -101 -340q0 -217 105 -340t292 -123q134 0 232 77t116 200h-324z" />
    <glyph glyph-name="gbreve" unicode="&#x11f;" horiz-adv-x="1230" 
d="M862 1249q-94 -82 -241 -82q-148 0 -242 82q-99 79 -123 224h231q16 -117 134 -117q116 0 133 117h231q-27 -145 -123 -224zM827 918v139h312v-1024q0 -215 -143 -337t-398 -122q-236 0 -369 103q-132 103 -143 284h315q12 -147 203 -147q104 0 160 54q55 54 55 152v152
q-100 -149 -303 -149q-209 0 -338 147t-129 383q0 234 127 383q127 145 334 145q212 0 317 -163zM598 279q108 0 168 70q59 69 59 204t-58 203q-59 69 -169 69q-106 0 -166 -72q-59 -71 -59 -204q0 -131 59 -200q60 -70 166 -70z" />
    <glyph glyph-name="Gdotaccent" unicode="&#x120;" horiz-adv-x="1593" 
d="M633 1849h307v-270h-307v270zM831 543v270h672v-813h-241l-41 193q-148 -226 -473 -226q-317 0 -508 209q-191 206 -191 553q0 350 199 557q196 205 540 205q285 0 474 -141q190 -144 223 -383h-355q-30 106 -118 166q-87 59 -221 59q-178 0 -280 -123
q-101 -122 -101 -340q0 -217 105 -340t292 -123q134 0 232 77t116 200h-324z" />
    <glyph glyph-name="gdotaccent" unicode="&#x121;" horiz-adv-x="1230" 
d="M469 1448h307v-270h-307v270zM827 918v139h312v-1024q0 -215 -143 -337t-398 -122q-236 0 -369 103q-132 103 -143 284h315q12 -147 203 -147q104 0 160 54q55 54 55 152v152q-100 -149 -303 -149q-209 0 -338 147t-129 383q0 234 127 383q127 145 334 145
q212 0 317 -163zM598 279q108 0 168 70q59 69 59 204t-58 203q-59 69 -169 69q-106 0 -166 -72q-59 -71 -59 -204q0 -131 59 -200q60 -70 166 -70z" />
    <glyph glyph-name="uni0122" unicode="&#x122;" horiz-adv-x="1593" 
d="M831 543v270h672v-813h-241l-41 193q-148 -226 -473 -226q-317 0 -508 209q-191 206 -191 553q0 350 199 557q196 205 540 205q285 0 474 -141q190 -144 223 -383h-355q-30 106 -118 166q-87 59 -221 59q-178 0 -280 -123q-101 -122 -101 -340q0 -217 105 -340t292 -123
q134 0 232 77t116 200h-324zM768 -344h-123v225h283v-239q0 -186 -234 -191h-49v109l47 2q76 0 76 76v18z" />
    <glyph glyph-name="uni0123" unicode="&#x123;" horiz-adv-x="1230" 
d="M639 1403h123v-225h-283v239q0 189 234 191h49v-109l-47 -2q-76 0 -76 -76v-18zM827 918v139h312v-1024q0 -215 -143 -337t-398 -122q-236 0 -369 103q-132 103 -143 284h315q12 -147 203 -147q104 0 160 54q55 54 55 152v152q-100 -149 -303 -149q-209 0 -338 147
t-129 383q0 234 127 383q127 145 334 145q212 0 317 -163zM598 279q108 0 168 70q59 69 59 204t-58 203q-59 69 -169 69q-106 0 -166 -72q-59 -71 -59 -204q0 -131 59 -200q60 -70 166 -70z" />
    <glyph glyph-name="Hcircumflex" unicode="&#x124;" horiz-adv-x="1499" 
d="M885 1546l-133 142l-136 -142h-286l241 295h355l243 -295h-284zM1042 901v557h347v-1458h-347v590h-585v-590h-346v1458h346v-557h585z" />
    <glyph glyph-name="hcircumflex" unicode="&#x125;" horiz-adv-x="1193" 
d="M352 1546l-100 140l-102 -140h-267l199 295h336l203 -295h-269zM735 1081q169 0 267 -101q100 -103 100 -288v-692h-320v629q0 180 -170 180q-86 0 -143 -57t-57 -162v-590h-320v1458h320v-540q121 163 323 163z" />
    <glyph glyph-name="Hbar" unicode="&#x126;" horiz-adv-x="1593" 
d="M1434 1260h159v-179h-159v-1081h-344v590h-586v-590h-346v1081h-158v179h158v198h346v-198h586v198h344v-198zM504 901h586v180h-586v-180z" />
    <glyph glyph-name="hbar" unicode="&#x127;" horiz-adv-x="1257" 
d="M799 1081q169 0 267 -101q99 -102 99 -288v-692h-319v629q0 180 -170 180q-87 0 -144 -57t-57 -162v-590h-319v1178h-156v178h156v102h319v-102h225v-178h-225v-260q121 163 324 163z" />
    <glyph glyph-name="Itilde" unicode="&#x128;" horiz-adv-x="567" 
d="M133 1546h-156q0 137 48 211q47 72 127 72q56 0 139 -43q63 -33 96 -33q45 0 45 76h156q0 -138 -47 -211q-47 -72 -127 -72q-57 0 -144 43q-68 31 -92 31q-45 0 -45 -74zM457 0h-346v1458h346v-1458z" />
    <glyph glyph-name="itilde" unicode="&#x129;" horiz-adv-x="505" 
d="M102 1178h-155q0 138 47 211q46 71 127 71q56 0 139 -43q63 -33 96 -33q45 0 45 76h156q0 -138 -47 -211q-46 -71 -127 -71q-56 0 -143 43q-63 30 -93 30q-45 0 -45 -73zM412 0h-320v1057h320v-1057z" />
    <glyph glyph-name="Imacron" unicode="&#x12a;" horiz-adv-x="567" 
d="M573 1546h-581v209h581v-209zM457 0h-346v1458h346v-1458z" />
    <glyph glyph-name="imacron" unicode="&#x12b;" horiz-adv-x="505" 
d="M543 1178h-582v208h582v-208zM412 0h-320v1057h320v-1057z" />
    <glyph glyph-name="Ibreve" unicode="&#x12c;" horiz-adv-x="567" 
d="M504 1618q-88 -82 -221 -82q-134 0 -222 82q-89 83 -104 217h217q11 -111 109 -111q97 0 108 111h217q-15 -134 -104 -217zM457 0h-346v1458h346v-1458z" />
    <glyph glyph-name="ibreve" unicode="&#x12d;" horiz-adv-x="505" 
d="M473 1249q-88 -82 -221 -82t-221 82q-90 84 -105 217h217q10 -110 109 -110q98 0 108 110h218q-15 -133 -105 -217zM412 0h-320v1057h320v-1057z" />
    <glyph glyph-name="Iogonek" unicode="&#x12e;" horiz-adv-x="567" 
d="M385 -254q41 0 80 12v-166q-55 -18 -123 -18q-118 0 -186 53t-68 146q0 66 44 130q43 62 126 97h-147v1458h346v-1458q-160 -83 -160 -178q0 -76 88 -76z" />
    <glyph glyph-name="iogonek" unicode="&#x12f;" horiz-adv-x="505" 
d="M100 1448h306v-270h-306v270zM342 -254q40 0 78 12v-166q-51 -18 -123 -18q-118 0 -185 53t-67 146q0 66 44 130q43 62 126 97h-123v1057h320v-1057q-160 -86 -160 -178q0 -76 90 -76z" />
    <glyph glyph-name="Idot" unicode="&#x130;" horiz-adv-x="567" 
d="M436 1546h-307v271h307v-271zM457 0h-346v1458h346v-1458z" />
    <glyph glyph-name="dotlessi" unicode="&#x131;" horiz-adv-x="505" 
d="M412 0h-320v1057h320v-1057z" />
    <glyph glyph-name="IJ" unicode="&#x132;" horiz-adv-x="1732" 
d="M457 0h-346v1458h346v-1458zM1124 -33q-236 0 -373 125t-137 342v92h330v-92q0 -83 47 -130q46 -46 129 -46t129 46q47 47 47 130v1024h346v-1024q0 -206 -135 -336q-137 -131 -383 -131z" />
    <glyph glyph-name="ij" unicode="&#x133;" horiz-adv-x="1011" 
d="M406 1178h-306v270h306v-270zM911 1178h-305v270h305v-270zM412 0h-320v1057h320v-1057zM563 -406q-62 0 -104 3v243h39q52 0 76 21t24 73v1123h320v-1159q0 -160 -84 -232t-271 -72z" />
    <glyph glyph-name="Jcircumflex" unicode="&#x134;" horiz-adv-x="1165" 
d="M1001 1546l-100 140l-102 -140h-267l199 295h336l203 -295h-269zM729 434v1024h346v-1024q0 -206 -135 -336q-137 -131 -383 -131q-237 0 -374 125q-136 124 -136 342v92h330v-92q0 -83 47 -130q46 -46 129 -46t129 46q47 47 47 130z" />
    <glyph glyph-name="jcircumflex" unicode="&#x135;" horiz-adv-x="505" 
d="M352 1178l-100 139l-102 -139h-267l199 295h336l203 -295h-269zM92 -66v1123h320v-1159q0 -160 -84 -232t-271 -72q-62 0 -104 3v243h39q53 0 77 21q23 20 23 73z" />
    <glyph glyph-name="uni0136" unicode="&#x136;" horiz-adv-x="1484" 
d="M1061 1458h422l-586 -596l586 -862h-410l-420 631l-196 -195v-436h-346v1458h346v-631zM743 -313h-122v225h282v-240q0 -189 -233 -190h-49v108l47 2q75 0 75 76v19z" />
    <glyph glyph-name="uni0137" unicode="&#x137;" horiz-adv-x="1187" 
d="M1163 1057l-397 -410l420 -647h-365l-272 436l-143 -147v-289h-314v1458h314v-819l391 418h366zM596 -346h-123v225h283v-239q0 -190 -234 -191h-49v109l47 2q76 0 76 75v19z" />
    <glyph glyph-name="kgreenlandic" unicode="&#x138;" horiz-adv-x="1187" 
d="M1186 0h-365l-272 436l-143 -147v-289h-314v1057h314v-418l391 418h366l-397 -410z" />
    <glyph glyph-name="Lacute" unicode="&#x139;" horiz-adv-x="1150" 
d="M340 1841h348l-274 -295h-254zM457 1458v-1149h667v-309h-1013v1458h346z" />
    <glyph glyph-name="lacute" unicode="&#x13a;" horiz-adv-x="505" 
d="M563 1841l-194 -295h-228l105 295h317zM412 0h-320v1458h320v-1458z" />
    <glyph glyph-name="uni013B" unicode="&#x13b;" horiz-adv-x="1150" 
d="M457 1458v-1149h667v-309h-1013v1458h346zM602 -313h-123v225h283v-240q0 -188 -234 -190h-49v108l47 2q76 0 76 76v19z" />
    <glyph glyph-name="uni013C" unicode="&#x13c;" horiz-adv-x="505" 
d="M92 0v1458h320v-1458h-320zM236 -346h-123v225h282v-239q0 -190 -233 -191h-49v109l47 2q76 0 76 75v19z" />
    <glyph glyph-name="Lcaron" unicode="&#x13d;" horiz-adv-x="1150" 
d="M457 1458v-1149h667v-309h-1013v1458h346zM635 1458h313l-155 -340h-211z" />
    <glyph glyph-name="lcaron" unicode="&#x13e;" horiz-adv-x="833" 
d="M412 0h-320v1458h320v-1458zM696 1118h-211l56 340h313z" />
    <glyph glyph-name="Ldot" unicode="&#x13f;" horiz-adv-x="1150" 
d="M457 1458v-1149h667v-309h-1013v1458h346zM680 946h360v-352h-360v352z" />
    <glyph glyph-name="ldot" unicode="&#x140;" horiz-adv-x="1011" 
d="M412 0h-320v1458h320v-1458zM942 549h-362v352h362v-352z" />
    <glyph glyph-name="Lslash" unicode="&#x141;" horiz-adv-x="1196" 
d="M502 768v-459h667v-309h-1013v625l-156 -64v197l156 63v637h346v-493l360 149v-196z" />
    <glyph glyph-name="lslash" unicode="&#x142;" horiz-adv-x="630" 
d="M475 903l156 72v-203l-156 -72v-700h-319v557l-156 -72v203l156 72v698h319v-555z" />
    <glyph glyph-name="Nacute" unicode="&#x143;" horiz-adv-x="1499" 
d="M807 1841h348l-274 -295h-254zM1059 1153v305h330v-1458h-373l-357 582q-168 281 -227 397q8 -299 8 -674v-305h-329v1458h372l357 -581q152 -251 227 -402q-8 304 -8 678z" />
    <glyph glyph-name="nacute" unicode="&#x144;" horiz-adv-x="1193" 
d="M659 1473h349l-275 -295h-254zM735 1081q169 0 267 -101q100 -103 100 -288v-692h-320v629q0 180 -170 180q-86 0 -143 -57t-57 -162v-590h-320v1057h311v-150q123 174 332 174z" />
    <glyph glyph-name="uni0145" unicode="&#x145;" horiz-adv-x="1499" 
d="M1059 1153v305h330v-1458h-373l-357 582q-168 281 -227 397q8 -299 8 -674v-305h-329v1458h372l357 -581q152 -251 227 -402q-8 304 -8 678zM733 -313h-123v225h283v-240q0 -188 -234 -190h-49v108l47 2q76 0 76 76v19z" />
    <glyph glyph-name="uni0146" unicode="&#x146;" horiz-adv-x="1193" 
d="M735 1081q169 0 267 -101q100 -103 100 -288v-692h-320v629q0 180 -170 180q-86 0 -143 -57t-57 -162v-590h-320v1057h311v-150q123 174 332 174zM578 -346h-123v225h282v-239q0 -190 -233 -191h-49v109l47 2q76 0 76 75v19z" />
    <glyph glyph-name="Ncaron" unicode="&#x147;" horiz-adv-x="1499" 
d="M1169 1841l-241 -295h-355l-243 295h284l136 -141l133 141h286zM1059 1153v305h330v-1458h-373l-357 582q-168 281 -227 397q8 -299 8 -674v-305h-329v1458h372l357 -581q152 -251 227 -402q-8 304 -8 678z" />
    <glyph glyph-name="ncaron" unicode="&#x148;" horiz-adv-x="1193" 
d="M1014 1473l-242 -295h-354l-244 295h285l135 -142l133 142h287zM735 1081q169 0 267 -101q100 -103 100 -288v-692h-320v629q0 180 -170 180q-86 0 -143 -57t-57 -162v-590h-320v1057h311v-150q123 174 332 174z" />
    <glyph glyph-name="napostrophe" unicode="&#x149;" horiz-adv-x="1597" 
d="M211 1133h-141v323h333v-348q0 -291 -290 -297h-43v162h45q96 5 96 127v33zM1137 1081q170 0 268 -101t98 -288v-692h-319v629q0 180 -168 180q-87 0 -144 -57t-57 -162v-590h-319v1057h311v-148q123 172 330 172z" />
    <glyph glyph-name="Eng" unicode="&#x14a;" horiz-adv-x="1499" 
d="M1059 1153v305h330v-1489q0 -177 -103 -278t-313 -101q-89 0 -150 9v241q59 -4 84 -4q162 0 162 144v22l-403 619q-168 264 -236 397q10 -327 10 -713v-305h-329v1458h372l363 -561q134 -210 221 -367q-8 274 -8 623z" />
    <glyph glyph-name="eng" unicode="&#x14b;" horiz-adv-x="1193" 
d="M735 1081q169 0 267 -101q100 -103 100 -288v-798q0 -160 -84 -232t-270 -72q-79 0 -107 2v244h41q52 0 76 21t24 71v701q0 180 -170 180q-86 0 -143 -57t-57 -162v-590h-320v1057h311v-150q123 174 332 174z" />
    <glyph glyph-name="Omacron" unicode="&#x14c;" horiz-adv-x="1593" 
d="M1141 1579h-688v209h688v-209zM797 -33q-334 0 -541 209q-207 212 -207 553t207 553q207 209 541 209q333 0 540 -209q207 -212 207 -553t-207 -553q-207 -209 -540 -209zM516 391q105 -123 281 -123q174 0 282 123q107 122 107 338t-107 338q-108 123 -282 123
q-176 0 -281 -123q-106 -121 -106 -338t106 -338z" />
    <glyph glyph-name="omacron" unicode="&#x14d;" horiz-adv-x="1206" 
d="M948 1178h-688v208h688v-208zM604 -25q-251 0 -403 152t-152 401q0 252 152 404q149 149 403 149q255 0 404 -149t149 -404q0 -252 -149 -401q-152 -152 -404 -152zM604 231q110 0 170 76t60 221q0 146 -60 222q-59 75 -170 75q-113 0 -172 -75t-59 -222q0 -146 59 -221
q60 -76 172 -76z" />
    <glyph glyph-name="Obreve" unicode="&#x14e;" horiz-adv-x="1593" 
d="M1038 1651q-94 -82 -241 -82q-148 0 -242 82q-99 80 -123 223h232q16 -117 133 -117q116 0 133 117h231q-27 -143 -123 -223zM797 -33q-334 0 -541 209q-207 212 -207 553t207 553q207 209 541 209q333 0 540 -209q207 -212 207 -553t-207 -553q-207 -209 -540 -209z
M516 391q105 -123 281 -123q174 0 282 123q107 122 107 338t-107 338q-108 123 -282 123q-176 0 -281 -123q-106 -121 -106 -338t106 -338z" />
    <glyph glyph-name="obreve" unicode="&#x14f;" horiz-adv-x="1206" 
d="M846 1249q-94 -82 -242 -82t-242 82q-98 78 -122 224h231q17 -117 133 -117t133 117h232q-27 -145 -123 -224zM604 -25q-251 0 -403 152t-152 401q0 252 152 404q149 149 403 149q255 0 404 -149t149 -404q0 -252 -149 -401q-152 -152 -404 -152zM604 231q110 0 170 76
t60 221q0 146 -60 222q-59 75 -170 75q-113 0 -172 -75t-59 -222q0 -146 59 -221q60 -76 172 -76z" />
    <glyph glyph-name="Ohungarumlaut" unicode="&#x150;" horiz-adv-x="1593" 
d="M686 1579h-244l181 295h350zM1145 1579h-246l182 295h349zM797 -33q-334 0 -541 209q-207 212 -207 553t207 553q207 209 541 209q333 0 540 -209q207 -212 207 -553t-207 -553q-207 -209 -540 -209zM516 391q105 -123 281 -123q174 0 282 123q107 122 107 338t-107 338
q-108 123 -282 123q-176 0 -281 -123q-106 -121 -106 -338t106 -338z" />
    <glyph glyph-name="ohungarumlaut" unicode="&#x151;" horiz-adv-x="1206" 
d="M508 1178h-244l180 295h351zM967 1178h-246l182 295h348zM604 -25q-251 0 -403 152t-152 401q0 252 152 404q149 149 403 149q255 0 404 -149t149 -404q0 -252 -149 -401q-152 -152 -404 -152zM604 231q110 0 170 76t60 221q0 146 -60 222q-59 75 -170 75
q-113 0 -172 -75t-59 -222q0 -146 59 -221q60 -76 172 -76z" />
    <glyph glyph-name="OE" unicode="&#x152;" horiz-adv-x="2351" 
d="M2300 1456v-307h-770v-266h698v-291h-698v-285h766v-309h-1110v129q-163 -160 -432 -160q-310 0 -506 211q-199 208 -199 551q0 340 199 553q197 209 506 209q269 0 432 -160v125h1114zM516 391q105 -123 281 -123q174 0 282 123q107 122 107 338t-107 338
q-108 123 -282 123q-176 0 -281 -123q-106 -121 -106 -338t106 -338z" />
    <glyph glyph-name="oe" unicode="&#x153;" horiz-adv-x="1980" 
d="M1923 498v-64h-780q30 -223 237 -223q154 0 211 119h301q-41 -165 -180 -259q-142 -96 -332 -96q-241 0 -385 168q-144 -168 -391 -168q-251 0 -403 152t-152 401q0 252 152 404q149 149 403 149q247 0 391 -168q141 168 383 168q247 0 398 -157q147 -159 147 -426z
M1376 846q-198 0 -231 -211h465q-16 100 -77 156q-59 55 -157 55zM604 231q110 0 170 76t60 221q0 146 -60 222q-59 75 -170 75q-113 0 -172 -75t-59 -222q0 -146 59 -221q60 -76 172 -76z" />
    <glyph glyph-name="Racute" unicode="&#x154;" horiz-adv-x="1386" 
d="M750 1841h348l-275 -295h-254zM1300 362l11 -204q1 -97 41 -158h-357q-32 61 -34 160l-7 164q-4 119 -54 166t-161 47h-282v-537h-346v1458h690q257 0 392 -113q136 -114 136 -309q0 -252 -235 -346q114 -38 156 -112q44 -77 50 -216zM457 1182v-385h305q100 0 156 50
q55 49 55 144q0 191 -217 191h-299z" />
    <glyph glyph-name="racute" unicode="&#x155;" horiz-adv-x="817" 
d="M428 1473h317l-194 -295h-227zM705 1073q14 0 69 -4v-291h-82q-280 0 -280 -286v-492h-320v1057h311v-197q73 213 302 213z" />
    <glyph glyph-name="uni0156" unicode="&#x156;" horiz-adv-x="1386" 
d="M1300 362l11 -204q1 -97 41 -158h-357q-32 61 -34 160l-7 164q-4 119 -54 166t-161 47h-282v-537h-346v1458h690q257 0 392 -113q136 -114 136 -309q0 -252 -235 -346q114 -38 156 -112q44 -77 50 -216zM457 1182v-385h305q100 0 156 50q55 49 55 144q0 191 -217 191
h-299zM719 -313h-123v225h283v-240q0 -188 -234 -190h-49v108l47 2q76 0 76 76v19z" />
    <glyph glyph-name="uni0157" unicode="&#x157;" horiz-adv-x="817" 
d="M705 1073q14 0 69 -4v-291h-82q-280 0 -280 -286v-492h-320v1057h311v-197q73 213 302 213zM236 -346h-123v225h282v-239q0 -190 -233 -191h-49v109l47 2q76 0 76 75v19z" />
    <glyph glyph-name="Rcaron" unicode="&#x158;" horiz-adv-x="1386" 
d="M1110 1841l-242 -295h-354l-244 295h285l135 -141l133 141h287zM1300 362l11 -204q1 -97 41 -158h-357q-32 61 -34 160l-7 164q-4 119 -54 166t-161 47h-282v-537h-346v1458h690q257 0 392 -113q136 -114 136 -309q0 -252 -235 -346q114 -38 156 -112q44 -77 50 -216z
M457 1182v-385h305q100 0 156 50q55 49 55 144q0 191 -217 191h-299z" />
    <glyph glyph-name="rcaron" unicode="&#x159;" horiz-adv-x="817" 
d="M805 1473l-203 -295h-336l-198 295h266l102 -140l101 140h268zM403 1057v-197q73 213 302 213q14 0 69 -4v-291h-82q-280 0 -280 -286v-492h-320v1057h311z" />
    <glyph glyph-name="Sacute" unicode="&#x15a;" horiz-adv-x="1331" 
d="M766 1579h-254l180 295h348zM678 -33q-304 0 -471 135q-166 135 -168 377h336q1 -135 79 -188q77 -53 236 -53q248 0 248 168q0 73 -54 109q-55 36 -208 65l-119 22q-487 82 -487 457q0 198 148 315t421 117q291 0 444 -123q154 -123 164 -352h-327q-6 105 -71 155
t-204 50q-223 0 -223 -148q0 -73 54 -112t194 -66l123 -23q263 -46 384 -152q119 -104 119 -292q0 -224 -163 -342q-164 -119 -455 -119z" />
    <glyph glyph-name="sacute" unicode="&#x15b;" horiz-adv-x="1064" 
d="M668 1178h-254l180 295h348zM537 -31q-251 0 -372 87t-136 280h311q8 -85 54 -119q47 -35 149 -35q178 0 178 103q0 49 -39 74q-39 26 -143 42l-138 23q-356 55 -356 324q0 159 123 246t352 87q474 0 492 -362h-297q-1 149 -195 149q-162 0 -162 -100q0 -46 37 -70
t117 -36l158 -23q189 -28 280 -109q90 -80 90 -219q0 -165 -132 -253q-133 -89 -371 -89z" />
    <glyph glyph-name="Scircumflex" unicode="&#x15c;" horiz-adv-x="1331" 
d="M770 1579l-133 141l-135 -141h-287l242 295h354l244 -295h-285zM670 895l123 -23q263 -46 384 -152q119 -104 119 -292q0 -224 -163 -342q-164 -119 -455 -119q-304 0 -471 135q-166 135 -168 377h336q1 -135 79 -188q77 -53 236 -53q248 0 248 168q0 73 -54 109
q-55 36 -208 65l-119 22q-487 82 -487 457q0 198 148 315t421 117q291 0 444 -123q154 -123 164 -352h-327q-6 105 -71 155t-204 50q-223 0 -223 -148q0 -73 54 -112t194 -66z" />
    <glyph glyph-name="scircumflex" unicode="&#x15d;" horiz-adv-x="1064" 
d="M664 1178l-134 139l-135 -139h-286l241 295h355l243 -295h-284zM512 662l158 -23q189 -28 280 -109q90 -80 90 -219q0 -165 -132 -253q-133 -89 -371 -89q-251 0 -372 87t-136 280h311q8 -85 54 -119q47 -35 149 -35q178 0 178 103q0 49 -39 74q-39 26 -143 42l-138 23
q-356 55 -356 324q0 159 123 246t352 87q474 0 492 -362h-297q-1 149 -195 149q-162 0 -162 -100q0 -46 37 -70t117 -36z" />
    <glyph glyph-name="Scedilla" unicode="&#x15e;" horiz-adv-x="1331" 
d="M1296 428q0 -200 -136 -318t-380 -139l-80 -94q10 2 33 2q99 0 157 -45t58 -115q0 -94 -79 -146t-236 -52q-88 0 -144 14v115q50 -8 115 -8q125 0 125 82q0 73 -117 73q-29 0 -49 -2v78l74 94q-285 7 -441 144q-156 136 -157 368h336q1 -135 79 -188q77 -53 236 -53
q248 0 248 168q0 73 -54 109q-55 36 -208 65l-119 22q-487 82 -487 457q0 198 148 315t421 117q291 0 444 -123q154 -123 164 -352h-327q-6 105 -71 155t-204 50q-223 0 -223 -148q0 -73 54 -112t194 -66l123 -23q263 -46 384 -152q119 -104 119 -292z" />
    <glyph glyph-name="scedilla" unicode="&#x15f;" horiz-adv-x="1064" 
d="M1040 311q0 -147 -108 -234q-109 -87 -307 -104l-80 -94q10 2 33 2q98 0 156 -45q59 -45 59 -115q0 -94 -79 -146t-237 -52q-87 0 -143 14v115q50 -8 115 -8q124 0 124 82q0 73 -116 73q-29 0 -49 -2v78l73 96q-219 7 -330 96q-110 87 -122 269h311q8 -85 54 -119
q47 -35 149 -35q178 0 178 103q0 49 -39 74q-39 26 -143 42l-138 23q-356 55 -356 324q0 159 123 246t352 87q474 0 492 -362h-297q-1 149 -195 149q-162 0 -162 -100q0 -46 37 -70t117 -36l158 -23q189 -28 280 -109q90 -80 90 -219z" />
    <glyph glyph-name="Scaron" unicode="&#x160;" horiz-adv-x="1331" 
d="M1055 1874l-242 -295h-354l-244 295h285l135 -141l133 141h287zM670 895l123 -23q263 -46 384 -152q119 -104 119 -292q0 -224 -163 -342q-164 -119 -455 -119q-304 0 -471 135q-166 135 -168 377h336q1 -135 79 -188q77 -53 236 -53q248 0 248 168q0 73 -54 109
q-55 36 -208 65l-119 22q-487 82 -487 457q0 198 148 315t421 117q291 0 444 -123q154 -123 164 -352h-327q-6 105 -71 155t-204 50q-223 0 -223 -148q0 -73 54 -112t194 -66z" />
    <glyph glyph-name="scaron" unicode="&#x161;" horiz-adv-x="1064" 
d="M948 1473l-241 -295h-355l-243 295h284l135 -142l134 142h286zM512 662l158 -23q189 -28 280 -109q90 -80 90 -219q0 -165 -132 -253q-133 -89 -371 -89q-251 0 -372 87t-136 280h311q8 -85 54 -119q47 -35 149 -35q178 0 178 103q0 49 -39 74q-39 26 -143 42l-138 23
q-356 55 -356 324q0 159 123 246t352 87q474 0 492 -362h-297q-1 149 -195 149q-162 0 -162 -100q0 -46 37 -70t117 -36z" />
    <glyph glyph-name="uni0162" unicode="&#x162;" horiz-adv-x="1294" 
d="M821 1149v-1149h-90l-78 -90q10 2 33 2q98 0 157 -45q58 -45 58 -115q0 -94 -79 -146t-236 -52q-88 0 -144 14v115q56 -9 115 -9q125 0 125 82q0 74 -117 74q-29 0 -49 -2v78l74 94h-117v1149h-446v309h1243v-309h-449z" />
    <glyph glyph-name="uni0163" unicode="&#x163;" horiz-adv-x="745" 
d="M702 1057v-234h-202v-493q0 -54 26 -73t95 -19h81v-238q-61 -8 -147 -8h-39l-72 -82q10 2 33 2q99 0 157 -45t58 -115q0 -94 -79 -146t-236 -52q-88 0 -144 14v115q56 -9 115 -9q125 0 125 82q0 74 -117 74q-29 0 -49 -2v78l80 102q-109 28 -157 95q-50 70 -50 192v528
h-157v234h157v313h320v-313h202z" />
    <glyph glyph-name="Tcaron" unicode="&#x164;" horiz-adv-x="1294" 
d="M1067 1841l-242 -295h-354l-244 295h285l135 -141l133 141h287zM27 1458h1243v-309h-449v-1149h-348v1149h-446v309z" />
    <glyph glyph-name="tcaron" unicode="&#x165;" horiz-adv-x="745" 
d="M563 1118l55 340h314l-158 -340h-211zM180 1370h320v-313h202v-234h-202v-493q0 -54 26 -73t95 -19h81v-238q-61 -8 -147 -8q-199 0 -287 70t-88 233v528h-157v234h157v313z" />
    <glyph glyph-name="Tbar" unicode="&#x166;" horiz-adv-x="1294" 
d="M1270 1458v-309h-449v-358h254v-179h-254v-612h-348v612h-252v179h252v358h-446v309h1243z" />
    <glyph glyph-name="tbar" unicode="&#x167;" horiz-adv-x="745" 
d="M702 1057v-234h-202v-184h202v-178h-202v-131q0 -54 26 -73t95 -19h81v-238q-61 -8 -147 -8q-199 0 -287 70t-88 233v166h-155v178h155v184h-157v234h157v313h320v-313h202z" />
    <glyph glyph-name="Utilde" unicode="&#x168;" horiz-adv-x="1447" 
d="M532 1546h-194q0 140 58 211q59 72 161 72q68 0 176 -41q73 -33 123 -33q52 0 57 74h195q0 -140 -58 -211q-58 -72 -161 -72q-62 0 -178 43q-80 33 -121 33q-57 0 -58 -76zM723 -33q-284 0 -459 154q-174 150 -174 434v903h346v-907q0 -140 75 -212q76 -73 212 -73
q135 0 213 73q76 72 76 212v907h346v-903q0 -281 -169 -434q-171 -154 -466 -154z" />
    <glyph glyph-name="utilde" unicode="&#x169;" horiz-adv-x="1193" 
d="M455 1253q-57 0 -58 -75h-194q0 140 58 211t161 71q68 0 176 -41q74 -33 123 -33q52 0 57 74h195q0 -138 -59 -211q-58 -71 -160 -71q-63 0 -179 43q-77 32 -120 32zM782 467v590h320v-1057h-311v150q-124 -175 -332 -175q-169 0 -268 102t-99 288v692h320v-629
q0 -180 170 -180q86 0 143 57t57 162z" />
    <glyph glyph-name="Umacron" unicode="&#x16a;" horiz-adv-x="1447" 
d="M1067 1546h-688v209h688v-209zM723 -33q-284 0 -459 154q-174 150 -174 434v903h346v-907q0 -140 75 -212q76 -73 212 -73q135 0 213 73q76 72 76 212v907h346v-903q0 -281 -169 -434q-171 -154 -466 -154z" />
    <glyph glyph-name="umacron" unicode="&#x16b;" horiz-adv-x="1193" 
d="M244 1386h688v-208h-688v208zM782 467v590h320v-1057h-311v150q-124 -175 -332 -175q-169 0 -268 102t-99 288v692h320v-629q0 -180 170 -180q86 0 143 57t57 162z" />
    <glyph glyph-name="Ubreve" unicode="&#x16c;" horiz-adv-x="1447" 
d="M965 1618q-94 -82 -242 -82t-242 82q-99 80 -123 223h232q16 -117 133 -117t133 117h231q-27 -144 -122 -223zM723 -33q-284 0 -459 154q-174 150 -174 434v903h346v-907q0 -140 75 -212q76 -73 212 -73q135 0 213 73q76 72 76 212v907h346v-903q0 -281 -169 -434
q-171 -154 -466 -154z" />
    <glyph glyph-name="ubreve" unicode="&#x16d;" horiz-adv-x="1193" 
d="M829 1249q-94 -82 -241 -82q-148 0 -242 82q-99 79 -123 224h232q16 -117 133 -117q116 0 133 117h231q-27 -145 -123 -224zM782 467v590h320v-1057h-311v150q-124 -175 -332 -175q-169 0 -268 102t-99 288v692h320v-629q0 -180 170 -180q86 0 143 57t57 162z" />
    <glyph glyph-name="Uring" unicode="&#x16e;" horiz-adv-x="1447" 
d="M1014 1458h344v-903q0 -281 -169 -434q-171 -154 -466 -154q-284 0 -459 154q-174 150 -174 434v903h342q-24 51 -24 119q0 131 92 215q90 84 223 84q131 0 225 -84q90 -84 90 -215q0 -67 -24 -119zM809 1663q-34 33 -86 33q-51 0 -86 -33t-35 -85t35 -85q35 -35 86 -35
t86 35t35 86t-35 84zM723 266q135 0 213 73q76 72 76 212v901q-38 -80 -114 -126t-175 -46q-94 0 -172 45q-77 45 -115 123v-897q0 -140 75 -212q76 -73 212 -73z" />
    <glyph glyph-name="uring" unicode="&#x16f;" horiz-adv-x="1193" 
d="M813 1253q-95 -84 -225 -84q-133 0 -223 84q-93 84 -93 215q0 128 93 213q90 84 223 84q130 0 225 -84q90 -84 90 -213q0 -131 -90 -215zM674 1554q-35 35 -86 35t-86 -35t-35 -86t35 -84q33 -32 86 -32t86 32q35 33 35 84t-35 86zM782 467v590h320v-1057h-311v150
q-124 -175 -332 -175q-169 0 -268 102t-99 288v692h320v-629q0 -180 170 -180q86 0 143 57t57 162z" />
    <glyph glyph-name="Uhungarumlaut" unicode="&#x170;" horiz-adv-x="1447" 
d="M612 1546h-243l180 295h350zM1071 1546h-246l183 295h348zM723 -33q-284 0 -459 154q-174 150 -174 434v903h346v-907q0 -140 75 -212q76 -73 212 -73q135 0 213 73q76 72 76 212v907h346v-903q0 -281 -169 -434q-171 -154 -466 -154z" />
    <glyph glyph-name="uhungarumlaut" unicode="&#x171;" horiz-adv-x="1193" 
d="M430 1473h350l-286 -295h-244zM1237 1473l-285 -295h-245l182 295h348zM782 467v590h320v-1057h-311v150q-124 -175 -332 -175q-169 0 -268 102t-99 288v692h320v-629q0 -180 170 -180q86 0 143 57t57 162z" />
    <glyph glyph-name="Uogonek" unicode="&#x172;" horiz-adv-x="1447" 
d="M1012 551v907h346v-903q0 -216 -103 -358t-290 -197q-197 -90 -197 -180q0 -74 102 -74q51 0 97 14v-168q-66 -18 -148 -18q-133 0 -210 53t-77 146q0 116 140 196q-265 12 -422 166q-160 151 -160 420v903h346v-907q0 -140 75 -212q76 -73 212 -73q135 0 213 73
q76 72 76 212z" />
    <glyph glyph-name="uogonek" unicode="&#x173;" horiz-adv-x="1193" 
d="M1102 1057v-1057q-199 -89 -199 -180q0 -74 103 -74q50 0 96 14v-168q-66 -18 -148 -18q-133 0 -210 53q-76 52 -76 146q0 64 53 128q51 61 153 99h-83v150q-124 -175 -332 -175q-169 0 -268 102t-99 288v692h320v-629q0 -180 170 -180q86 0 143 57t57 162v590h320z" />
    <glyph glyph-name="Wcircumflex" unicode="&#x174;" horiz-adv-x="2033" 
d="M1151 1546l-133 142l-135 -142h-287l242 295h354l244 -295h-285zM1550 958l123 500h361l-400 -1458h-387l-121 516q-57 232 -108 526q-37 -197 -109 -526l-123 -516h-387l-399 1458h362l121 -500q79 -322 129 -571q63 337 115 571l117 500h346l117 -500q58 -254 114 -575
q32 145 129 575z" />
    <glyph glyph-name="wcircumflex" unicode="&#x175;" horiz-adv-x="1757" 
d="M1014 1178l-133 139l-136 -139h-286l241 295h355l243 -295h-284zM1313 717l98 340h342l-344 -1057h-336l-117 397q-37 123 -79 285q-45 -177 -76 -285l-117 -397h-336l-346 1057h344l98 -340q68 -238 99 -357q36 148 92 359l96 338h295l96 -338q56 -211 92 -359
q31 119 99 357z" />
    <glyph glyph-name="Ycircumflex" unicode="&#x176;" horiz-adv-x="1433" 
d="M850 1546l-133 142l-135 -142h-287l242 295h354l244 -295h-285zM930 1249l123 209h381l-541 -891v-567h-346v567l-547 891h391l127 -211q52 -92 107 -184q34 -63 40 -72q8 -13 20 -35t17 -30t13.5 -22t11.5 -19q103 191 203 364z" />
    <glyph glyph-name="ycircumflex" unicode="&#x177;" horiz-adv-x="1128" 
d="M698 1178l-133 139l-135 -139h-287l242 295h354l244 -295h-285zM750 905l47 152h329l-383 -1098q-72 -206 -182 -283q-113 -79 -344 -79q-49 0 -125 4v245h103q159 0 159 148q0 67 -49 205l-303 858h344l47 -150q101 -341 180 -665q71 298 177 663z" />
    <glyph glyph-name="Ydieresis" unicode="&#x178;" horiz-adv-x="1433" 
d="M348 1817h307v-271h-307v271zM778 1817h307v-271h-307v271zM930 1249l123 209h381l-541 -891v-567h-346v567l-547 891h391l127 -211q52 -92 107 -184q34 -63 40 -72q8 -13 20 -35t17 -30t13.5 -22t11.5 -19q103 191 203 364z" />
    <glyph glyph-name="Zacute" unicode="&#x179;" horiz-adv-x="1320" 
d="M719 1841h348l-274 -295h-254zM922 309h348v-309h-1219v272l488 574q81 96 268 307q-335 -4 -422 -4h-309v309h1181v-270l-489 -576q-135 -160 -270 -307q335 4 424 4z" />
    <glyph glyph-name="zacute" unicode="&#x17a;" horiz-adv-x="1038" 
d="M584 1473h348l-275 -295h-254zM670 238h313v-238h-926v201l375 463q80 99 131 157q-62 -2 -213 -2h-289v238h902v-201l-375 -463q-80 -99 -131 -157q62 2 213 2z" />
    <glyph glyph-name="Zdotaccent" unicode="&#x17b;" horiz-adv-x="1320" 
d="M508 1817h307v-271h-307v271zM922 309h348v-309h-1219v272l488 574q81 96 268 307q-335 -4 -422 -4h-309v309h1181v-270l-489 -576q-135 -160 -270 -307q335 4 424 4z" />
    <glyph glyph-name="zdotaccent" unicode="&#x17c;" horiz-adv-x="1038" 
d="M369 1448h307v-270h-307v270zM670 238h313v-238h-926v201l375 463q80 99 131 157q-62 -2 -213 -2h-289v238h902v-201l-375 -463q-80 -99 -131 -157q62 2 213 2z" />
    <glyph glyph-name="Zcaron" unicode="&#x17d;" horiz-adv-x="1320" 
d="M1081 1841l-241 -295h-355l-243 295h284l136 -141l133 141h286zM922 309h348v-309h-1219v272l488 574q81 96 268 307q-335 -4 -422 -4h-309v309h1181v-270l-489 -576q-135 -160 -270 -307q335 4 424 4z" />
    <glyph glyph-name="zcaron" unicode="&#x17e;" horiz-adv-x="1038" 
d="M940 1473l-242 -295h-354l-244 295h285l135 -142l133 142h287zM670 238h313v-238h-926v201l375 463q80 99 131 157q-62 -2 -213 -2h-289v238h902v-201l-375 -463q-80 -99 -131 -157q62 2 213 2z" />
    <glyph glyph-name="uni018F" unicode="&#x18f;" horiz-adv-x="1529" 
d="M745 1491q338 0 539 -207q197 -208 197 -555q0 -337 -197 -551q-198 -211 -522 -211q-330 0 -520 219q-193 219 -193 562v79h1073q-39 365 -374 365q-228 0 -312 -191h-348q56 226 228 358t429 132zM754 264q150 0 244 87q95 88 122 253h-721q21 -157 113 -249
q91 -91 242 -91z" />
    <glyph glyph-name="florin" unicode="&#x192;" horiz-adv-x="1103" 
d="M969 1219q-79 0 -114 -35q-33 -33 -48 -127l-29 -197h221v-233h-256l-100 -666q-28 -204 -129 -296q-100 -91 -295 -91q-79 0 -176 10v252q50 -8 92 -8q79 0 114 35q34 34 46 127l96 637h-203v233h238l33 225q30 204 131 296t293 92q90 0 176 -13v-250q-56 9 -90 9z" />
    <glyph glyph-name="uni01F4" unicode="&#x1f4;" horiz-adv-x="1593" 
d="M844 1874h348l-274 -295h-254zM831 543v270h672v-813h-241l-41 193q-148 -226 -473 -226q-317 0 -508 209q-191 206 -191 553q0 350 199 557q196 205 540 205q285 0 474 -141q190 -144 223 -383h-355q-30 106 -118 166q-87 59 -221 59q-178 0 -280 -123
q-101 -122 -101 -340q0 -217 105 -340t292 -123q134 0 232 77t116 200h-324z" />
    <glyph glyph-name="uni01F5" unicode="&#x1f5;" horiz-adv-x="1230" 
d="M684 1473h348l-274 -295h-254zM827 918v139h312v-1024q0 -215 -143 -337t-398 -122q-236 0 -369 103q-132 103 -143 284h315q12 -147 203 -147q104 0 160 54q55 54 55 152v152q-100 -149 -303 -149q-209 0 -338 147t-129 383q0 234 127 383q127 145 334 145
q212 0 317 -163zM598 279q108 0 168 70q59 69 59 204t-58 203q-59 69 -169 69q-106 0 -166 -72q-59 -71 -59 -204q0 -131 59 -200q60 -70 166 -70z" />
    <glyph glyph-name="Aringacute" unicode="&#x1fa;" horiz-adv-x="1499" 
d="M1497 0h-367l-86 254h-606l-84 -254h-354l506 1374q-80 85 -80 203q0 106 59 181q61 77 158 104l154 252h348l-252 -273q77 -38 120 -107q44 -71 44 -157q0 -115 -78 -199zM655 1663q-34 -33 -34 -85t34 -85q35 -35 86 -35t86 35t35 86t-35 84t-86 33t-86 -33zM618 793
l-83 -250h411l-84 250q-43 124 -123 368q-91 -280 -121 -368z" />
    <glyph glyph-name="aringacute" unicode="&#x1fb;" horiz-adv-x="1144" 
d="M657 2148h349l-275 -295h-254zM819 1253q-95 -84 -225 -84q-133 0 -223 84q-92 83 -92 215q0 129 92 213q90 84 223 84q130 0 225 -84q90 -84 90 -213q0 -131 -90 -215zM680 1554q-35 35 -86 35t-86 -35t-35 -86t35 -84q33 -32 86 -32t86 32q35 33 35 84t-35 86zM1110 0
h-322q-25 47 -26 119q-106 -144 -338 -144q-174 0 -280 86q-105 85 -105 238q0 295 414 330l165 14q138 15 138 105q0 106 -162 106q-98 0 -138 -30q-41 -30 -48 -109h-318q28 366 506 366q471 0 471 -325v-561q0 -134 43 -195zM520 190q109 0 172 57q64 58 64 169v78
q-29 -30 -107 -41l-131 -15q-153 -16 -153 -127q0 -55 41 -88q40 -33 114 -33z" />
    <glyph glyph-name="AEacute" unicode="&#x1fc;" horiz-adv-x="2170" 
d="M1456 1841h348l-274 -295h-254zM2120 1458v-309h-693v-264h623v-291h-623v-285h691v-309h-1028v313h-580l-152 -313h-358l715 1458h1405zM924 1169l-275 -567h441v567h-166z" />
    <glyph glyph-name="aeacute" unicode="&#x1fd;" horiz-adv-x="1847" 
d="M999 1473h349l-275 -295h-254zM1790 498v-64h-743q30 -223 231 -223q146 0 203 119h286q-40 -165 -173 -260t-318 -95q-243 0 -389 164q-164 -164 -432 -164q-195 0 -305 85q-111 86 -111 239q0 295 414 330l165 14q138 15 138 105q0 106 -162 106q-98 0 -138 -30
q-41 -30 -48 -109h-318q28 366 506 366q249 0 348 -108q134 108 328 108q238 0 379 -157q139 -161 139 -426zM1270 846q-188 0 -221 -209h444q-38 209 -223 209zM520 190q109 0 172 57q64 58 64 169v78q-29 -30 -107 -41l-131 -15q-153 -16 -153 -127q0 -55 41 -88
q40 -33 114 -33z" />
    <glyph glyph-name="Oslashacute" unicode="&#x1fe;" horiz-adv-x="1593" 
d="M852 1874h348l-274 -295h-254zM1409 1563l139 -125l-174 -197q170 -206 170 -512q0 -341 -207 -553q-207 -209 -540 -209q-254 0 -441 125l-174 -196l-139 124l174 197q-168 205 -168 512q0 341 207 553q207 209 541 209q251 0 438 -125zM410 729q0 -136 47 -242l563 635
q-92 68 -223 68q-178 0 -283 -124q-104 -123 -104 -337zM1186 729q0 138 -47 246l-566 -639q97 -68 224 -68q178 0 283 124q106 126 106 337z" />
    <glyph glyph-name="oslashacute" unicode="&#x1ff;" horiz-adv-x="1206" 
d="M668 1473h348l-275 -295h-254zM1042 1141l117 -105l-123 -139q121 -145 121 -369q0 -252 -149 -401q-152 -152 -404 -152q-179 0 -315 80l-125 -141l-119 104l125 142q-121 145 -121 368q0 252 152 404q149 149 403 149q178 0 314 -80zM358 528q0 -68 17 -139l368 416
q-61 41 -139 41q-119 0 -182 -81q-64 -82 -64 -237zM848 528q0 69 -17 140l-368 -416q61 -41 141 -41q117 0 180 81q64 82 64 236z" />
    <glyph glyph-name="uni0218" unicode="&#x218;" horiz-adv-x="1331" 
d="M670 895l123 -23q263 -46 384 -152q119 -104 119 -292q0 -224 -163 -342q-164 -119 -455 -119q-304 0 -471 135q-166 135 -168 377h336q1 -135 79 -188q77 -53 236 -53q248 0 248 168q0 73 -54 109q-55 36 -208 65l-119 22q-487 82 -487 457q0 198 148 315t421 117
q291 0 444 -123q154 -123 164 -352h-327q-6 105 -71 155t-204 50q-223 0 -223 -148q0 -73 54 -112t194 -66zM678 -346h-123v225h283v-239q0 -190 -234 -191h-49v109l47 2q76 0 76 75v19z" />
    <glyph glyph-name="uni0219" unicode="&#x219;" horiz-adv-x="1064" 
d="M512 662l158 -23q189 -28 280 -109q90 -80 90 -219q0 -165 -132 -253q-133 -89 -371 -89q-251 0 -372 87t-136 280h311q8 -85 54 -119q47 -35 149 -35q178 0 178 103q0 49 -39 74q-39 26 -143 42l-138 23q-356 55 -356 324q0 159 123 246t352 87q474 0 492 -362h-297
q-1 149 -195 149q-162 0 -162 -100q0 -46 37 -70t117 -36zM522 -377h-123v225h283v-239q0 -187 -233 -191h-50v109l47 2q76 0 76 76v18z" />
    <glyph glyph-name="uni021A" unicode="&#x21a;" horiz-adv-x="1294" 
d="M27 1458h1243v-309h-449v-1149h-348v1149h-446v309zM631 -313h-123v225h283v-240q0 -188 -234 -190h-49v108l47 2q76 0 76 76v19z" />
    <glyph glyph-name="uni021B" unicode="&#x21b;" horiz-adv-x="745" 
d="M702 1057v-234h-202v-493q0 -54 26 -73t95 -19h81v-238q-61 -8 -147 -8q-199 0 -287 70t-88 233v528h-157v234h157v313h320v-313h202zM422 -346h-123v225h283v-239q0 -190 -234 -191h-49v109l47 2q76 0 76 75v19z" />
    <glyph glyph-name="uni0237" unicode="&#x237;" horiz-adv-x="505" 
d="M57 -406q-62 0 -104 3v243h39q53 0 77 21q23 20 23 73v1123h320v-1159q0 -160 -84 -232t-271 -72z" />
    <glyph glyph-name="uni0259" unicode="&#x259;" horiz-adv-x="1196" 
d="M594 1081q252 0 401 -149q152 -152 152 -404q0 -248 -148 -401q-152 -152 -397 -152q-247 0 -395 160q-150 156 -150 424v64h781q-30 223 -244 223q-149 0 -211 -119h-303q43 166 184 260q139 94 330 94zM604 211q199 0 232 209h-465q16 -98 78 -154q61 -55 155 -55z" />
    <glyph glyph-name="h.sups" unicode="&#x2b0;" horiz-adv-x="960" 
d="M598 1477q150 0 237 -92q87 -91 87 -255v-593h-285v548q0 150 -145 150q-74 0 -121 -48q-47 -49 -47 -136v-514h-285v1267h285v-469q106 142 274 142z" />
    <glyph glyph-name="r.sups" unicode="&#x2b3;" horiz-adv-x="665" 
d="M573 1473q12 0 62 -5v-258h-72q-239 0 -239 -243v-430h-285v921h276v-168q66 183 258 183z" />
    <glyph glyph-name="circumflex" unicode="&#x2c6;" horiz-adv-x="819" 
d="M586 1473l243 -295h-284l-133 139l-136 -139h-286l241 295h355z" />
    <glyph glyph-name="caron" unicode="&#x2c7;" horiz-adv-x="819" 
d="M412 1331l133 142h284l-239 -295h-354l-244 295h284z" />
    <glyph glyph-name="uni02C9" unicode="&#x2c9;" horiz-adv-x="819" 
d="M754 1178h-688v208h688v-208z" />
    <glyph glyph-name="breve" unicode="&#x2d8;" horiz-adv-x="819" 
d="M651 1249q-94 -82 -241 -82q-148 0 -242 82q-99 79 -123 224h231q15 -117 134 -117q118 0 133 117h231q-27 -145 -123 -224z" />
    <glyph glyph-name="dotaccent" unicode="&#x2d9;" horiz-adv-x="819" 
d="M565 1178h-307v270h307v-270z" />
    <glyph glyph-name="ring" unicode="&#x2da;" horiz-adv-x="819" 
d="M635 1253q-95 -84 -225 -84q-134 0 -224 84q-92 83 -92 215q0 129 92 213q90 84 224 84q130 0 225 -84q90 -84 90 -213q0 -131 -90 -215zM324 1384q33 -32 86 -32t86 32q34 33 34 84q0 52 -34 86q-35 35 -86 35t-86 -35t-35 -86t35 -84z" />
    <glyph glyph-name="ogonek" unicode="&#x2db;" horiz-adv-x="819" 
d="M479 -426q-133 0 -210 53q-76 52 -76 146q0 64 53 128q50 61 155 99h226q-199 -89 -199 -180q0 -74 102 -74q51 0 97 14v-168q-66 -18 -148 -18z" />
    <glyph glyph-name="tilde" unicode="&#x2dc;" horiz-adv-x="819" 
d="M219 1178h-194q0 140 58 211t161 71q68 0 176 -41q74 -33 123 -33q55 0 57 74h195q0 -138 -59 -211q-58 -71 -161 -71q-62 0 -178 43q-77 32 -121 32q-56 0 -57 -75z" />
    <glyph glyph-name="hungarumlaut" unicode="&#x2dd;" horiz-adv-x="819" 
d="M160 1178h-244l182 295h351zM618 1178h-243l182 295h348z" />
    <glyph glyph-name="s.sups" unicode="&#x2e2;" horiz-adv-x="940" 
d="M473 510q-222 0 -327 75t-117 244h276q7 -73 46 -101t128 -28q148 0 148 82q0 44 -33 65t-123 36l-131 18q-297 45 -297 285q0 138 109 215q107 76 311 76q407 0 424 -318h-264q-6 129 -162 129q-139 0 -139 -86q0 -41 29 -60q30 -19 100 -30l135 -18q166 -24 247 -94
q78 -68 78 -193q0 -141 -115 -219q-116 -78 -323 -78z" />
    <glyph glyph-name="gravecomb" unicode="&#x300;" 
d="M264 1178h-254l-274 295h348z" />
    <glyph glyph-name="acutecomb" unicode="&#x301;" 
d="M-10 1178h-254l180 295h348z" />
    <glyph glyph-name="uni0302" unicode="&#x302;" 
d="M176 1473l244 -295h-285l-133 139l-135 -139h-287l242 295h354z" />
    <glyph glyph-name="tildecomb" unicode="&#x303;" 
d="M-190 1178h-195q0 140 58 211t161 71q68 0 176 -41q74 -33 123 -33q55 0 57 74h195q0 -140 -58 -211t-161 -71q-62 0 -178 43q-77 32 -121 32q-56 0 -57 -75z" />
    <glyph glyph-name="uni0304" unicode="&#x304;" 
d="M344 1178h-688v208h688v-208z" />
    <glyph glyph-name="uni0306" unicode="&#x306;" 
d="M242 1249q-94 -82 -242 -82q-149 0 -244 82q-97 83 -121 224h232q15 -117 133 -117t133 117h232q-27 -145 -123 -224z" />
    <glyph glyph-name="uni0307" unicode="&#x307;" 
d="M154 1178h-308v270h308v-270z" />
    <glyph glyph-name="uni0308" unicode="&#x308;" 
d="M-61 1178h-308v270h308v-270zM369 1178h-308v270h308v-270z" />
    <glyph glyph-name="uni030A" unicode="&#x30a;" 
d="M225 1253q-95 -84 -225 -84t-225 84q-90 84 -90 215q0 129 90 213q95 84 225 84t225 -84q90 -84 90 -213q0 -131 -90 -215zM-86 1384q33 -32 86 -32t86 32q35 33 35 84t-35 86t-86 35t-86 -35t-35 -86t35 -84z" />
    <glyph glyph-name="uni030B" unicode="&#x30b;" 
d="M-250 1178h-244l181 295h350zM209 1178h-246l182 295h349z" />
    <glyph glyph-name="uni030C" unicode="&#x30c;" 
d="M-2 1331l135 142h287l-242 -295h-354l-244 295h285z" />
    <glyph glyph-name="uni0312" unicode="&#x312;" 
d="M141 1499l-47 -2q-76 0 -76 -76v-18h123v-225h-282v239q0 190 233 191h49v-109z" />
    <glyph glyph-name="uni0313" unicode="&#x313;" 
d="M-141 1380v226h282v-240q0 -99 -56 -143q-58 -46 -177 -47h-49v108h47q76 1 76 76v20h-123z" />
    <glyph glyph-name="dotbelowcomb" unicode="&#x323;" 
d="M154 -391h-308v270h308v-270z" />
    <glyph glyph-name="uni0324" unicode="&#x324;" 
d="M-61 -391h-308v270h308v-270zM369 -391h-308v270h308v-270z" />
    <glyph glyph-name="uni0325" unicode="&#x325;" 
d="M221 -621q-89 -79 -221 -79t-221 79q-88 82 -88 209t88 209t221 82t221 -82t88 -209t-88 -209zM-86 -496q52 -55 133 -23q80 32 74 107q0 50 -35 85q-34 34 -86 34t-86 -34q-35 -35 -35 -85q0 -49 35 -84z" />
    <glyph glyph-name="uni0326" unicode="&#x326;" 
d="M-141 -346v225h282v-239q0 -190 -233 -191h-49v109l47 2q76 0 76 75v19h-123z" />
    <glyph glyph-name="uni0327" unicode="&#x327;" 
d="M14 -88q98 0 157 -45q58 -45 58 -115q0 -94 -78 -146q-79 -52 -237 -52q-87 0 -143 14v115q56 -9 114 -9q125 0 125 82q0 74 -116 74q-30 0 -50 -2v78l82 104h142l-86 -100q10 2 32 2z" />
    <glyph glyph-name="uni0328" unicode="&#x328;" 
d="M70 -426q-133 0 -210 53t-77 146q0 64 53 128q50 60 156 99h225q-199 -89 -199 -180q0 -74 103 -74q50 0 96 14v-168q-66 -18 -147 -18z" />
    <glyph glyph-name="uni032E" unicode="&#x32e;" 
d="M242 -346q-95 -80 -242 -80q-144 0 -244 80q-97 85 -121 225h232q15 -117 133 -117t133 117h232q-27 -141 -123 -225z" />
    <glyph glyph-name="uni0331" unicode="&#x331;" 
d="M344 -330h-688v209h688v-209z" />
    <glyph glyph-name="uni0335" unicode="&#x335;" 
d="M350 465h-700v178h700v-178z" />
    <glyph glyph-name="uni0337" unicode="&#x337;" 
d="M557 1034l-997 -1122l-117 104l997 1123z" />
    <glyph glyph-name="uni0338" unicode="&#x338;" 
d="M754 1432l-1368 -1543l-140 125l1368 1542z" />
    <glyph glyph-name="uni0394" unicode="&#x394;" horiz-adv-x="1417" 
d="M496 1458h411l459 -1169v-289h-1315v289zM580 793l-177 -490h601l-181 490q-70 190 -123 362q-70 -221 -120 -362z" />
    <glyph glyph-name="uni03A9" unicode="&#x3a9;" horiz-adv-x="1615" 
d="M725 0h-676v299h297v6q-283 199 -283 535q0 294 199 473q200 178 541 178q347 0 549 -178q200 -178 200 -473q0 -334 -280 -535v-6h295v-299h-674v266q147 69 227 200t80 302q0 206 -103 313q-104 109 -286 109q-185 0 -291 -109q-104 -107 -104 -313q0 -168 81 -300
q82 -133 228 -202v-266z" />
    <glyph glyph-name="uni03BC" unicode="&#x3bc;" horiz-adv-x="1196" 
d="M782 467v590h322v-1057h-313v147q-118 -172 -320 -172q-34 0 -63 9v-385h-316v1458h322v-629q0 -180 170 -180q85 0 142 57q56 56 56 162z" />
    <glyph glyph-name="pi" unicode="&#x3c0;" horiz-adv-x="1320" 
d="M1278 1057v-234h-158v-524q0 -72 64 -72q45 0 67 2v-229q-54 -8 -155 -8q-166 0 -231 63q-64 63 -64 219v549h-301v-823h-320v823h-157v234h1255z" />
    <glyph glyph-name="d.sups" unicode="&#x1d48;" horiz-adv-x="1030" 
d="M705 1348v456h284v-1267h-274v125q-90 -146 -275 -146q-188 0 -296 129q-107 128 -107 350q0 223 107 352q108 130 296 130q174 0 265 -129zM516 741q195 0 195 254q0 256 -195 256q-93 0 -142 -67q-50 -68 -50 -195q0 -248 192 -248z" />
    <glyph glyph-name="t.sups" unicode="&#x1d57;" horiz-adv-x="641" 
d="M616 1458v-207h-174v-422q0 -44 22 -61q20 -16 81 -16h71v-211q-92 -9 -129 -9q-173 0 -251 64q-76 63 -76 201v454h-135v207h135v273h282v-273h174z" />
    <glyph glyph-name="Wgrave" unicode="&#x1e80;" horiz-adv-x="2033" 
d="M963 1841l180 -295h-254l-275 295h349zM1550 958l123 500h361l-400 -1458h-387l-121 516q-57 232 -108 526q-37 -197 -109 -526l-123 -516h-387l-399 1458h362l121 -500q79 -322 129 -571q63 337 115 571l117 500h346l117 -500q58 -254 114 -575q32 145 129 575z" />
    <glyph glyph-name="wgrave" unicode="&#x1e81;" horiz-adv-x="1757" 
d="M831 1473l181 -295h-254l-275 295h348zM1313 717l98 340h342l-344 -1057h-336l-117 397q-37 123 -79 285q-45 -177 -76 -285l-117 -397h-336l-346 1057h344l98 -340q68 -238 99 -357q36 148 92 359l96 338h295l96 -338q56 -211 92 -359q31 119 99 357z" />
    <glyph glyph-name="Wacute" unicode="&#x1e82;" horiz-adv-x="2033" 
d="M1073 1841h348l-274 -295h-254zM1550 958l123 500h361l-400 -1458h-387l-121 516q-57 232 -108 526q-37 -197 -109 -526l-123 -516h-387l-399 1458h362l121 -500q79 -322 129 -571q63 337 115 571l117 500h346l117 -500q58 -254 114 -575q32 145 129 575z" />
    <glyph glyph-name="wacute" unicode="&#x1e83;" horiz-adv-x="1757" 
d="M942 1473h348l-274 -295h-254zM1313 717l98 340h342l-344 -1057h-336l-117 397q-37 123 -79 285q-45 -177 -76 -285l-117 -397h-336l-346 1057h344l98 -340q68 -238 99 -357q36 148 92 359l96 338h295l96 -338q56 -211 92 -359q31 119 99 357z" />
    <glyph glyph-name="Wdieresis" unicode="&#x1e84;" horiz-adv-x="2033" 
d="M649 1817h307v-271h-307v271zM1079 1817h307v-271h-307v271zM1550 958l123 500h361l-400 -1458h-387l-121 516q-57 232 -108 526q-37 -197 -109 -526l-123 -516h-387l-399 1458h362l121 -500q79 -322 129 -571q63 337 115 571l117 500h346l117 -500q58 -254 114 -575
q32 145 129 575z" />
    <glyph glyph-name="wdieresis" unicode="&#x1e85;" horiz-adv-x="1757" 
d="M510 1448h307v-270h-307v270zM940 1448h307v-270h-307v270zM1313 717l98 340h342l-344 -1057h-336l-117 397q-37 123 -79 285q-45 -177 -76 -285l-117 -397h-336l-346 1057h344l98 -340q68 -238 99 -357q36 148 92 359l96 338h295l96 -338q56 -211 92 -359q31 119 99 357
z" />
    <glyph glyph-name="uni1E9E" unicode="&#x1e9e;" horiz-adv-x="1460" 
d="M1352 1196l-283 -338q172 -40 263 -148q91 -107 91 -264q0 -216 -151 -337t-438 -121q-110 0 -209 14v274q103 -10 184 -10q260 0 260 178q0 174 -266 174q-93 0 -123 -2v215l299 369q-82 12 -209 12q-183 0 -260 -74q-78 -75 -78 -223v-915h-342v903q0 284 176 436
t500 152q258 0 586 -41v-254z" />
    <glyph glyph-name="Ygrave" unicode="&#x1ef2;" horiz-adv-x="1433" 
d="M662 1841l180 -295h-254l-275 295h349zM930 1249l123 209h381l-541 -891v-567h-346v567l-547 891h391l127 -211q52 -92 107 -184q34 -63 40 -72q8 -13 20 -35t17 -30t13.5 -22t11.5 -19q103 191 203 364z" />
    <glyph glyph-name="ygrave" unicode="&#x1ef3;" horiz-adv-x="1128" 
d="M516 1473l180 -295h-254l-274 295h348zM750 905l47 152h329l-383 -1098q-72 -206 -182 -283q-113 -79 -344 -79q-49 0 -125 4v245h103q159 0 159 148q0 67 -49 205l-303 858h344l47 -150q101 -341 180 -665q71 298 177 663z" />
    <glyph glyph-name="thinspace" unicode="&#x2009;" horiz-adv-x="505" 
 />
    <glyph glyph-name="uni2011" unicode="&#x2011;" horiz-adv-x="737" 
d="M678 440h-619v269h619v-269z" />
    <glyph glyph-name="endash" unicode="&#x2013;" horiz-adv-x="1081" 
d="M1022 440h-963v269h963v-269z" />
    <glyph glyph-name="emdash" unicode="&#x2014;" horiz-adv-x="2007" 
d="M1948 440h-1889v269h1889v-269z" />
    <glyph glyph-name="quoteleft" unicode="&#x2018;" horiz-adv-x="473" 
d="M403 1296h-45q-98 -1 -98 -127v-32h143v-324h-333v348q0 291 290 297h43v-162z" />
    <glyph glyph-name="quoteright" unicode="&#x2019;" horiz-adv-x="473" 
d="M70 1133v323h333v-348q0 -291 -290 -297h-43v162h45q96 5 96 127v33h-141z" />
    <glyph glyph-name="quotesinglbase" unicode="&#x201a;" horiz-adv-x="473" 
d="M70 0v324h333v-349q0 -296 -290 -297h-43v162h45q96 4 96 127v33h-141z" />
    <glyph glyph-name="quotedblleft" unicode="&#x201c;" horiz-adv-x="903" 
d="M70 813v346q0 293 290 299h43v-162l-45 -2q-98 -4 -98 -125v-32h143v-324h-333zM834 1296l-46 -2q-96 -4 -96 -125v-32h142v-324h-334v346q0 293 291 299h43v-162z" />
    <glyph glyph-name="quotedblright" unicode="&#x201d;" horiz-adv-x="903" 
d="M211 1135h-141v323h333v-348q0 -296 -290 -297h-43v162h45q96 5 96 127v33zM500 1135v323h334v-348q0 -296 -291 -297h-43v162h45q98 4 98 127v33h-143z" />
    <glyph glyph-name="quotedblbase" unicode="&#x201e;" horiz-adv-x="903" 
d="M211 0h-141v324h333v-349q0 -296 -290 -297h-43v162h45q96 4 96 127v33zM500 0v324h334v-349q0 -295 -291 -297h-43v162h45q98 4 98 127v33h-143z" />
    <glyph glyph-name="dagger" unicode="&#x2020;" horiz-adv-x="1243" 
d="M795 1057h422v-293h-422v-1063h-346v1063h-422v293h422v401h346v-401z" />
    <glyph glyph-name="daggerdbl" unicode="&#x2021;" horiz-adv-x="1243" 
d="M1217 1057v-293h-422v-369h422v-293h-422v-401h-346v401h-422v293h422v369h-422v293h422v401h346v-401h422z" />
    <glyph glyph-name="bullet" unicode="&#x2022;" horiz-adv-x="845" 
d="M735 276h-624v611h624v-611z" />
    <glyph glyph-name="ellipsis" unicode="&#x2026;" horiz-adv-x="1587" 
d="M430 0h-360v352h360v-352zM977 0h-361v352h361v-352zM1518 0h-361v352h361v-352z" />
    <glyph glyph-name="perthousand" unicode="&#x2030;" horiz-adv-x="2672" 
d="M678 707q-92 -113 -272 -113q-181 0 -273 113t-92 327q0 215 92 330q92 113 273 113q180 0 272 -113q92 -115 92 -330q0 -214 -92 -327zM643 0h-203l779 1458h202zM305 838q34 -58 101 -58q66 0 100 58q33 52 33 196q0 142 -33 199t-100 57q-68 0 -101 -57t-33 -199
q0 -144 33 -196zM1456 -18q-366 0 -366 440q0 217 92 330q91 112 274 112q179 0 271 -113q94 -115 94 -329t-94 -328q-93 -112 -271 -112zM2267 -18q-364 0 -364 440q0 442 364 442q179 0 271 -113q94 -115 94 -329q0 -215 -92 -328q-91 -112 -273 -112zM1456 168
q68 0 99 58q32 59 32 196q0 135 -32 196q-31 60 -99 60q-69 0 -102 -58t-33 -198q0 -137 33 -196q33 -58 102 -58zM2167 225q33 -57 100 -57t100 57t33 197t-31 198t-102 58q-67 0 -100 -57t-33 -199q0 -144 33 -197z" />
    <glyph glyph-name="guilsinglleft" unicode="&#x2039;" horiz-adv-x="569" 
d="M111 698l348 285v-297l-180 -145l180 -148v-297l-348 285v317z" />
    <glyph glyph-name="guilsinglright" unicode="&#x203a;" horiz-adv-x="569" 
d="M111 686v297l348 -285v-317l-348 -285v297l180 148z" />
    <glyph glyph-name="uni203D" unicode="&#x203d;" horiz-adv-x="1120" 
d="M571 1491q237 0 373 -102q137 -102 137 -283q0 -204 -211 -354q-121 -90 -145 -125q-31 -42 -31 -142h-301l-2 289l84 350h160l33 -184q69 57 69 131q0 154 -176 154q-108 0 -153 -50q-47 -51 -48 -169h-323q-1 240 134 362q137 123 400 123zM723 0h-361v352h361v-352z
" />
    <glyph glyph-name="fraction" unicode="&#x2044;" horiz-adv-x="655" 
d="M39 0h-203l778 1458h203z" />
    <glyph glyph-name="zero.sups" unicode="&#x2070;" horiz-adv-x="811" 
d="M678 1176q-92 -113 -272 -113q-181 0 -273 113q-92 115 -92 327q0 217 92 330t273 113q180 0 272 -113t92 -330q0 -212 -92 -327zM305 1307q34 -58 101 -58q66 0 100 58q33 53 33 196q0 142 -33 199t-100 57q-68 0 -101 -57t-33 -199q0 -143 33 -196z" />
    <glyph glyph-name="four.sups" unicode="&#x2074;" horiz-adv-x="788" 
d="M653 1436h105v-181h-105v-174h-223v174h-385v211l381 461h227v-491zM434 1436v260l-215 -260h215z" />
    <glyph glyph-name="five.sups" unicode="&#x2075;" horiz-adv-x="733" 
d="M410 1649q141 0 219 -80t78 -205q0 -134 -96 -218q-95 -83 -244 -83q-139 0 -233 73q-93 72 -101 197h211q7 -42 42 -68t81 -26q59 0 94 35t35 90q0 54 -35 91q-35 36 -94 36q-85 0 -115 -64h-207l82 500h541v-186h-369l-23 -125q51 33 134 33z" />
    <glyph glyph-name="six.sups" unicode="&#x2076;" horiz-adv-x="755" 
d="M430 1649q137 0 218 -81t81 -204q0 -136 -93 -219q-92 -82 -245 -82q-129 0 -213 63q-141 102 -141 369q0 221 92 336t266 115q133 0 220 -64q85 -63 102 -180h-209q-24 76 -115 76q-71 0 -106 -44q-36 -45 -43 -151q72 66 186 66zM391 1239q58 0 92 34q35 35 35 87
q0 51 -36 87t-91 36t-90 -36q-35 -37 -35 -87q0 -52 35 -87q34 -34 90 -34z" />
    <glyph glyph-name="seven.sups" unicode="&#x2077;" horiz-adv-x="673" 
d="M31 1741v186h612v-180q-127 -128 -184 -279q-58 -151 -62 -387h-239q6 380 262 660h-389z" />
    <glyph glyph-name="eight.sups" unicode="&#x2078;" horiz-adv-x="772" 
d="M606 1528q133 -55 133 -203q0 -118 -95 -190q-94 -72 -259 -72q-160 0 -256 72t-96 190q0 148 133 203q-94 61 -94 178q0 110 83 175t230 65q146 0 231 -65q84 -65 84 -175q0 -117 -94 -178zM385 1784q-53 0 -84 -25t-31 -69t30 -69q31 -26 85 -26q115 0 115 95
q0 94 -115 94zM385 1237q135 0 135 106q0 51 -36 80q-37 29 -99 29q-61 0 -96 -29t-35 -80q0 -106 131 -106z" />
    <glyph glyph-name="nine.sups" unicode="&#x2079;" horiz-adv-x="755" 
d="M575 1880q144 -105 144 -367q0 -220 -92 -335t-265 -115q-136 0 -221 63t-102 181h209q24 -76 117 -76q68 0 103 44q34 43 42 150q-71 -65 -186 -65q-135 0 -216 81t-81 204q0 137 93 219q92 82 242 82q118 0 213 -66zM272 1561q33 -35 92 -35q58 0 91 35q32 33 32 89
q0 55 -32 87t-90 32q-60 0 -93 -32q-34 -33 -34 -87q0 -55 34 -89z" />
    <glyph glyph-name="plus.sups" unicode="&#x207a;" horiz-adv-x="649" 
d="M422 1591h194v-176h-194v-196h-195v196h-194v176h194v197h195v-197z" />
    <glyph glyph-name="minus.sups" unicode="&#x207b;" horiz-adv-x="649" 
d="M616 1415h-583v176h583v-176z" />
    <glyph glyph-name="parenleft.sups" unicode="&#x207d;" horiz-adv-x="376" 
d="M377 922h-209q-64 148 -92 282q-29 133 -29 299q0 168 29 307q28 134 92 281h209q-119 -283 -119 -588q0 -278 119 -581z" />
    <glyph glyph-name="parenright.sups" unicode="&#x207e;" horiz-adv-x="376" 
d="M207 922h-207q117 308 117 581q0 307 -117 588h207q71 -162 94 -279q29 -139 29 -309q0 -177 -27 -301q-27 -127 -96 -280z" />
    <glyph glyph-name="n.sups" unicode="&#x207f;" horiz-adv-x="960" 
d="M598 1477q150 0 237 -92q87 -91 87 -255v-593h-285v548q0 150 -145 150q-74 0 -121 -48q-47 -49 -47 -136v-514h-285v921h276v-135q106 154 283 154z" />
    <glyph glyph-name="zero.subs" unicode="&#x2080;" horiz-adv-x="811" 
d="M678 -307q-92 -113 -272 -113q-181 0 -273 113q-92 115 -92 327q0 215 92 330q92 113 273 113q180 0 272 -113q92 -115 92 -330q0 -212 -92 -327zM305 -178q34 -55 101 -55q66 0 100 55q33 57 33 198q0 142 -33 199t-100 57q-68 0 -101 -57t-33 -199q0 -141 33 -198z" />
    <glyph glyph-name="one.subs" unicode="&#x2081;" horiz-adv-x="491" 
d="M264 444h176v-845h-223v540h-186v154q90 0 148 32q57 31 85 119z" />
    <glyph glyph-name="two.subs" unicode="&#x2082;" horiz-adv-x="731" 
d="M449 -92l-48 -23q-94 -45 -112 -100h409v-186h-669l4 84q15 245 256 356l65 31q121 55 121 120q0 86 -98 86q-111 0 -115 -122h-217q12 147 96 228t236 81q145 0 233 -72t88 -184q0 -106 -58 -171q-60 -68 -191 -128z" />
    <glyph glyph-name="three.subs" unicode="&#x2083;" horiz-adv-x="751" 
d="M596 49q131 -56 131 -199q0 -123 -91 -196q-92 -74 -249 -74q-176 0 -267 85t-91 241h215q0 -77 32 -109q33 -33 105 -33q55 0 87 26t32 69q0 98 -125 98h-66v160h68q112 0 112 88q0 82 -104 82q-111 0 -119 -105h-215q12 281 336 281q146 0 233 -64q85 -63 85 -174
q0 -109 -109 -176z" />
    <glyph glyph-name="four.subs" unicode="&#x2084;" horiz-adv-x="788" 
d="M653 -47h105v-180h-105v-174h-223v174h-385v211l381 460h227v-491zM434 -47v260l-215 -260h215z" />
    <glyph glyph-name="five.subs" unicode="&#x2085;" horiz-adv-x="733" 
d="M410 166q141 0 219 -80q78 -79 78 -205q0 -134 -96 -218q-95 -83 -244 -83q-139 0 -233 73q-93 72 -101 197h211q7 -42 42 -68t81 -26q59 0 94 35t35 90q0 54 -35 91q-35 36 -94 36q-85 0 -115 -63h-207l82 499h541v-186h-369l-23 -125q51 33 134 33z" />
    <glyph glyph-name="six.subs" unicode="&#x2086;" horiz-adv-x="755" 
d="M430 166q137 0 218 -81t81 -204q0 -137 -93 -219q-92 -82 -245 -82q-128 0 -213 64q-141 102 -141 368q0 221 92 336t266 115q133 0 220 -64q85 -63 102 -180h-209q-24 76 -115 76q-71 0 -106 -44q-36 -45 -43 -151q72 66 186 66zM391 -244q58 0 92 34q35 35 35 87
q0 51 -36 87t-91 36t-90 -36q-35 -37 -35 -87q0 -52 35 -87q34 -34 90 -34z" />
    <glyph glyph-name="seven.subs" unicode="&#x2087;" horiz-adv-x="673" 
d="M31 258v186h612v-180q-127 -129 -184 -278q-58 -151 -62 -387h-239q6 379 262 659h-389z" />
    <glyph glyph-name="eight.subs" unicode="&#x2088;" horiz-adv-x="772" 
d="M606 45q133 -55 133 -203q0 -118 -95 -190q-94 -72 -259 -72q-160 0 -256 72t-96 190q0 148 133 203q-94 61 -94 178q0 110 83 175t230 65q146 0 231 -65q84 -65 84 -175q0 -117 -94 -178zM385 301q-53 0 -84 -25t-31 -69q0 -43 30 -69q29 -25 85 -25q115 0 115 94
t-115 94zM385 -246q135 0 135 107q0 51 -36 80q-35 28 -99 28q-62 0 -96 -28q-35 -29 -35 -80q0 -107 131 -107z" />
    <glyph glyph-name="nine.subs" unicode="&#x2089;" horiz-adv-x="755" 
d="M575 397q144 -105 144 -366q0 -221 -92 -336t-265 -115q-134 0 -221 64q-85 63 -102 180h209q24 -76 117 -76q68 0 103 44q34 43 42 151q-72 -66 -186 -66q-135 0 -216 81t-81 204q0 136 93 219q92 82 242 82q118 0 213 -66zM272 78q35 -35 93 -35q57 0 90 35
q32 33 32 89q0 55 -32 87q-33 33 -90 33q-59 0 -93 -33t-34 -87q0 -55 34 -89z" />
    <glyph glyph-name="plus.subs" unicode="&#x208a;" horiz-adv-x="649" 
d="M422 109h194v-177h-194v-196h-195v196h-194v177h194v196h195v-196z" />
    <glyph glyph-name="minus.subs" unicode="&#x208b;" horiz-adv-x="649" 
d="M616 -68h-583v177h583v-177z" />
    <glyph glyph-name="equal.subs" unicode="&#x208c;" horiz-adv-x="649" 
d="M616 68h-583v174h583v-174zM616 -199h-583v174h583v-174z" />
    <glyph glyph-name="uni208D" unicode="&#x208d;" horiz-adv-x="376" 
d="M377 -565h-209q-67 155 -94 282t-27 299q0 171 29 310q28 127 92 280h209q-119 -288 -119 -590q0 -278 119 -581z" />
    <glyph glyph-name="uni208E" unicode="&#x208e;" horiz-adv-x="376" 
d="M207 -565h-207q117 307 117 581q0 309 -117 588h207q71 -162 94 -278q29 -139 29 -310q0 -177 -27 -301q-27 -127 -96 -280z" />
    <glyph glyph-name="n.subs" unicode="&#x2099;" horiz-adv-x="960" 
d="M598 539q150 0 237 -92q87 -91 87 -254v-594h-285v548q0 150 -145 150q-74 0 -121 -48q-47 -49 -47 -136v-514h-285v921h276v-135q106 154 283 154z" />
    <glyph glyph-name="Euro" unicode="&#x20ac;" horiz-adv-x="1529" 
d="M1145 518h338q-39 -226 -185 -383q-162 -174 -464 -174q-252 0 -425 144q-175 146 -227 399h-182v153h162q-2 20 -2 70q0 58 2 82h-162v156h184q57 246 228 387q169 139 422 139q298 0 460 -172q147 -159 187 -371h-342q-66 250 -308 250q-228 0 -294 -233h342v-156h-369
q-2 -22 -2 -78q0 -52 2 -74h369v-153h-347q67 -250 302 -250q251 0 311 264z" />
    <glyph glyph-name="uni20B8" unicode="&#x20b8;" horiz-adv-x="1294" 
d="M27 1149v309h1243v-309h-1243zM473 643h-446v309h1243v-309h-449v-643h-348v643z" />
    <glyph glyph-name="uni20B9" unicode="&#x20b9;" horiz-adv-x="1282" 
d="M111 1458h1122v-153h-277q96 -84 117 -220h160v-153h-160q-27 -174 -168 -276q-139 -100 -354 -105l543 -551h-430l-553 567v193h329q237 0 283 172h-612v153h612q-46 172 -283 172h-329v201z" />
    <glyph glyph-name="uni20BA" unicode="&#x20ba;" horiz-adv-x="1327" 
d="M926 762h356q0 -348 -211 -553q-212 -209 -569 -209h-346v616l-156 -65v168l156 65v142l-156 -66v168l156 66v364h346v-217l340 145v-167l-340 -146v-141l340 143v-168l-340 -143v-463q198 0 311 122t113 339z" />
    <glyph glyph-name="uni20BC" unicode="&#x20bc;" horiz-adv-x="1613" 
d="M975 1102h37q246 0 379 -138q133 -137 133 -391v-573h-336v575q0 120 -49 176t-164 62v-670h-336v670q-112 -5 -161 -61q-50 -58 -50 -177v-575h-338v573q0 249 136 389t386 140h27v356h336v-356z" />
    <glyph glyph-name="uni20BF" unicode="&#x20bf;" horiz-adv-x="1386" 
d="M1352 424q0 -186 -116 -296t-339 -126v-240h-152v238h-174v-238h-151v238h-309v1458h309v238h151v-238h174v238h152v-242q197 -22 296 -122q99 -99 99 -247q0 -218 -194 -309q119 -44 186 -140q68 -98 68 -212zM948 1030q0 70 -44 111t-124 41h-323v-312h323q81 0 124 43
q44 44 44 117zM457 276h346q93 0 142 43q50 44 50 123q0 166 -192 166h-346v-332z" />
    <glyph glyph-name="uni2105" unicode="&#x2105;" horiz-adv-x="2070" 
d="M471 604q-192 0 -311 119t-119 321q0 206 117 324q117 119 313 119q161 0 272 -87q112 -88 136 -243h-226q-38 137 -182 137q-95 0 -145 -65q-52 -67 -52 -185t52 -182q51 -63 145 -63q69 0 118 37t64 104h226q-21 -158 -133 -247t-275 -89zM735 0h-205l779 1458h204z
M1587 -18q-197 0 -317 120q-123 118 -123 320q0 200 123 321q121 121 317 121q198 0 322 -121q121 -121 121 -321q0 -199 -121 -320q-123 -120 -322 -120zM1587 178q98 0 154 64q55 62 55 180q0 117 -55 181q-56 65 -154 65q-93 0 -150 -66t-57 -180t57 -179t150 -65z" />
    <glyph glyph-name="uni2113" unicode="&#x2113;" horiz-adv-x="1019" 
d="M641 221q102 0 190 72l91 -160q-143 -149 -371 -149q-158 0 -246 97t-88 265v70q-72 -13 -156 -17l-32 166q92 5 188 25v477q0 205 97 314q98 110 286 110q160 0 244 -92t84 -275q0 -432 -396 -618v-137q0 -73 30 -111q30 -37 79 -37zM532 1069v-348q189 141 189 391
q0 133 -86 133q-103 0 -103 -176z" />
    <glyph glyph-name="uni2116" unicode="&#x2116;" horiz-adv-x="2383" 
d="M1921 1481q188 0 307 -119q117 -121 117 -313q0 -193 -117 -314q-119 -119 -307 -119q-192 0 -309 119q-119 117 -119 314q0 196 119 315q117 117 309 117zM1059 1153v305h330v-1458h-373l-357 582q-168 281 -227 397q8 -299 8 -674v-305h-329v1458h372l357 -581
q152 -251 227 -402q-8 304 -8 678zM1804 909q44 -51 117 -51t117 51q41 52 41 140q0 89 -43 139q-44 51 -115 51q-74 0 -118 -51q-44 -52 -44 -139q0 -93 45 -140z" />
    <glyph glyph-name="uni2117" unicode="&#x2117;" horiz-adv-x="1632" 
d="M260 1272q224 219 555 219q332 0 557 -219q223 -220 223 -543q0 -321 -223 -541q-226 -221 -557 -221t-555 221q-223 220 -223 541q0 323 223 543zM424 340q158 -158 393 -158t393 158q154 159 154 389q0 232 -154 391q-156 156 -393 156t-393 -156t-156 -391
q0 -233 156 -389zM545 1118h336q141 0 226 -79t85 -203q0 -125 -86 -205t-225 -80h-123v-213h-213v780zM758 739h112q53 0 81 26t28 71q0 42 -28 68t-81 26h-112v-191z" />
    <glyph glyph-name="trademark" unicode="&#x2122;" horiz-adv-x="1185" 
d="M199 1329h-156v129h451v-129h-154v-397h-141v397zM874 1237l68 221h199v-526h-135v158q0 115 2 165l-13 -38l-88 -285h-112l-88 285l-13 40q2 -52 2 -167v-158h-135v526h199l67 -225q1 -2 6.5 -20.5t8.5 -30.5q8 -32 8 -33z" />
    <glyph glyph-name="uni2126" unicode="&#x2126;" horiz-adv-x="1615" 
d="M725 0h-676v299h297v6q-283 199 -283 535q0 294 199 473q200 178 541 178q347 0 549 -178q200 -178 200 -473q0 -334 -280 -535v-6h295v-299h-674v266q147 69 227 200t80 302q0 206 -103 313q-104 109 -286 109q-185 0 -291 -109q-104 -107 -104 -313q0 -168 81 -300
q82 -133 228 -202v-266z" />
    <glyph glyph-name="estimated" unicode="&#x212e;" horiz-adv-x="1865" 
d="M330 1276q224 215 604 215q379 0 604 -225q223 -224 223 -557h-1323q-28 0 -28 -27v-360q0 -68 32 -97q200 -196 492 -196q153 0 290 64t226 171h149q-89 -126 -263 -209q-171 -82 -402 -82q-373 0 -602 213q-230 212 -230 543q0 328 228 547zM934 1434q-291 0 -492 -201
q-32 -29 -32 -90v-361q0 -26 28 -26h985q29 0 29 26v361q0 60 -33 90q-205 201 -485 201z" />
    <glyph glyph-name="uni2153" unicode="&#x2153;" horiz-adv-x="1576" 
d="M440 612h-223v541h-186v154q92 0 148 31t85 120h176v-846zM207 0l778 1458h203l-778 -1458h-203zM1421 451q61 -28 95 -79q34 -52 34 -120q0 -124 -91 -197t-249 -73q-176 0 -267 85t-91 240h215q0 -73 34 -107t105 -34q57 0 86 25q31 26 31 69q0 98 -125 98h-65v160h69
q113 0 113 88q0 82 -107 82q-111 0 -118 -104h-216q12 280 336 280q150 0 235 -63t85 -174q0 -109 -109 -176z" />
    <glyph glyph-name="uni2154" unicode="&#x2154;" horiz-adv-x="1878" 
d="M289 799h409v-187h-669l4 84q15 246 256 357l65 30q121 55 121 121q0 86 -98 86q-111 0 -115 -123h-217q12 148 96 229t236 81q145 0 233 -72t88 -184q0 -106 -58 -171q-60 -68 -191 -128l-48 -23q-94 -45 -112 -100zM494 0l778 1458h205l-779 -1458h-204zM1722 451
q131 -56 131 -199q0 -124 -91 -197t-249 -73q-176 0 -267 85q-92 86 -93 240h215q1 -74 35 -108q33 -33 104 -33q56 0 87 25q32 26 32 69q0 98 -125 98h-65v160h67q113 0 113 88q0 82 -105 82q-111 0 -118 -104h-215q12 280 335 280q147 0 233 -63q85 -63 85 -174
q0 -109 -109 -176z" />
    <glyph glyph-name="uni2155" unicode="&#x2155;" horiz-adv-x="1636" 
d="M440 1458v-846h-223v541h-186v154q92 0 148 31t85 120h176zM246 0l778 1458h205l-778 -1458h-205zM1313 567q141 0 220 -81q79 -80 79 -203q0 -135 -95 -218t-245 -83q-145 0 -236 73q-93 74 -100 197h213q15 -94 123 -94q57 0 92 35t35 90q0 54 -35 91q-34 36 -92 36
q-79 0 -117 -64h-207l84 500h539v-187h-367l-24 -122q56 30 133 30z" />
    <glyph glyph-name="uni2156" unicode="&#x2156;" horiz-adv-x="1896" 
d="M289 799h409v-187h-669l4 84q15 246 256 357l65 30q121 55 121 121q0 86 -98 86q-111 0 -115 -123h-217q12 148 96 229t236 81q145 0 233 -72t88 -184q0 -106 -58 -171q-60 -68 -191 -128l-48 -23q-94 -45 -112 -100zM498 0l778 1458h203l-779 -1458h-202zM1569 567
q141 0 219 -80q78 -79 78 -204q0 -134 -96 -218q-95 -83 -244 -83q-144 0 -235 73t-99 197h211q21 -94 123 -94q59 0 94 35t35 90q0 54 -35 91q-34 36 -94 36q-77 0 -115 -64h-207l82 500h541v-187h-369l-22 -122q56 30 133 30z" />
    <glyph glyph-name="uni2157" unicode="&#x2157;" horiz-adv-x="1830" 
d="M727 864q0 -123 -91 -196q-92 -74 -249 -74q-176 0 -267 85t-91 241h215q0 -77 32 -109q33 -33 105 -33q55 0 87 26t32 68q0 99 -125 99h-66v159h68q112 0 112 89q0 81 -104 81q-112 0 -119 -104h-215q12 281 336 281q146 0 233 -64q85 -63 85 -174q0 -109 -109 -176
q131 -56 131 -199zM444 0l779 1458h202l-778 -1458h-203zM1509 567q142 0 220 -80q77 -78 77 -204q0 -135 -95 -218t-245 -83q-143 0 -234 73t-99 197h210q21 -94 123 -94q60 0 95 35q34 34 34 90t-34 91q-35 36 -95 36q-80 0 -114 -64h-209l84 500h540v-187h-368l-23 -122
q56 30 133 30z" />
    <glyph glyph-name="uni2158" unicode="&#x2158;" horiz-adv-x="1878" 
d="M653 786v-174h-223v174h-385v211l381 461h227v-491h105v-181h-105zM485 0l779 1458h202l-778 -1458h-203zM434 967v260l-215 -260h215zM1550 567q141 0 219 -80q78 -79 78 -204q0 -135 -95 -218t-245 -83q-143 0 -234 73t-99 197h210q21 -94 123 -94q60 0 95 35
q34 34 34 90t-34 91q-34 36 -95 36q-80 0 -114 -64h-209l84 500h540v-187h-368l-23 -122q55 30 133 30z" />
    <glyph glyph-name="uni2159" unicode="&#x2159;" horiz-adv-x="1585" 
d="M440 1458v-846h-223v541h-186v154q92 0 148 31t85 120h176zM221 0l778 1458h203l-778 -1458h-203zM1260 567q137 0 218 -81t81 -203q0 -137 -94 -220q-91 -81 -244 -81q-129 0 -213 63q-142 103 -142 369q0 221 92 336q92 114 267 114q135 0 220 -63q84 -62 101 -180
h-209q-24 75 -114 75q-72 0 -107 -44q-36 -45 -43 -150q71 65 187 65zM1221 158q59 0 92 33q35 35 35 88q0 51 -36 87q-35 35 -91 35q-57 0 -91 -35t-34 -87q0 -54 34 -88q33 -33 91 -33z" />
    <glyph glyph-name="uni215A" unicode="&#x215a;" horiz-adv-x="1761" 
d="M707 895q0 -134 -96 -218q-95 -83 -244 -83q-139 0 -233 73q-93 72 -101 197h211q7 -42 42 -68t81 -26q59 0 94 35t35 90q0 54 -35 91q-35 36 -94 36q-85 0 -115 -64h-207l82 500h541v-186h-369l-23 -125q51 33 134 33q141 0 219 -80t78 -205zM399 0l779 1458h202
l-778 -1458h-203zM1438 567q137 0 218 -81t81 -203q0 -137 -93 -220q-91 -81 -245 -81q-129 0 -213 63q-142 103 -142 369q0 220 93 336q91 114 266 114q135 0 220 -63q84 -62 101 -180h-208q-24 75 -115 75q-72 0 -107 -44q-36 -45 -43 -150q71 65 187 65zM1399 158
q59 0 92 33q35 35 35 88q0 51 -36 87q-35 35 -91 35t-90 -35q-35 -37 -35 -87q0 -53 35 -88q33 -33 90 -33z" />
    <glyph glyph-name="oneeighth" unicode="&#x215b;" horiz-adv-x="1603" 
d="M440 612h-223v541h-186v154q92 0 148 31t85 120h176v-846zM207 0l778 1458h203l-778 -1458h-203zM1438 446q133 -55 133 -202q0 -119 -95 -191q-93 -71 -259 -71q-161 0 -256 71q-97 73 -97 191q0 142 133 202q-96 62 -96 179q0 111 84 175q83 64 232 64q148 0 231 -64
q84 -64 84 -175q0 -116 -94 -179zM1217 702q-54 0 -84 -24q-31 -25 -31 -70q0 -42 30 -68q31 -26 85 -26q114 0 114 94t-114 94zM1083 262q0 -106 134 -106q133 0 133 106q0 109 -133 109q-61 0 -98 -29q-36 -28 -36 -80z" />
    <glyph glyph-name="threeeighths" unicode="&#x215c;" horiz-adv-x="1826" 
d="M727 864q0 -123 -91 -196q-92 -74 -249 -74q-176 0 -267 85t-91 241h215q0 -77 32 -109q33 -33 105 -33q55 0 87 26t32 68q0 99 -125 99h-66v159h68q112 0 112 89q0 81 -104 81q-112 0 -119 -104h-215q12 281 336 281q146 0 233 -64q85 -63 85 -174q0 -109 -109 -176
q131 -56 131 -199zM430 0l778 1458h203l-778 -1458h-203zM1661 446q133 -55 133 -202q0 -119 -95 -191q-93 -71 -259 -71q-161 0 -256 71q-97 73 -97 191q0 142 134 202q-97 62 -97 179q0 111 84 175q83 64 232 64q148 0 231 -64q84 -64 84 -175q0 -116 -94 -179zM1440 702
q-54 0 -84 -24q-31 -25 -31 -70q0 -42 30 -68q31 -26 85 -26q114 0 114 94t-114 94zM1307 262q0 -106 133 -106t133 106q0 109 -133 109q-61 0 -98 -29q-35 -28 -35 -80z" />
    <glyph glyph-name="fiveeighths" unicode="&#x215d;" horiz-adv-x="1789" 
d="M707 895q0 -134 -96 -218q-95 -83 -244 -83q-139 0 -233 73q-93 72 -101 197h211q7 -42 42 -68t81 -26q59 0 94 35t35 90q0 54 -35 91q-35 36 -94 36q-85 0 -115 -64h-207l82 500h541v-186h-369l-23 -125q51 33 134 33q141 0 219 -80t78 -205zM393 0l778 1458h203
l-778 -1458h-203zM1624 446q133 -55 133 -202q0 -119 -95 -191q-93 -71 -259 -71q-161 0 -256 71q-96 72 -96 191q0 147 133 202q-94 61 -94 179q0 111 82 175t231 64q148 0 231 -64q84 -64 84 -175q0 -116 -94 -179zM1403 702q-54 0 -84 -24q-31 -25 -31 -70q0 -42 30 -68
q31 -26 85 -26q115 0 115 94t-115 94zM1403 156q135 0 135 106q0 52 -36 80q-37 29 -99 29q-61 0 -96 -29t-35 -80q0 -106 131 -106z" />
    <glyph glyph-name="seveneighths" unicode="&#x215e;" horiz-adv-x="1617" 
d="M397 612h-239q6 380 262 660h-389v186h612v-180q-127 -128 -184 -279q-58 -153 -62 -387zM213 0l778 1458h203l-778 -1458h-203zM1452 446q133 -55 133 -202q0 -119 -95 -191q-93 -71 -259 -71q-161 0 -256 71q-96 72 -96 191q0 142 133 202q-97 62 -97 179q0 111 84 175
q83 64 232 64q148 0 231 -64q84 -64 84 -175q0 -116 -94 -179zM1231 702q-54 0 -84 -24q-31 -25 -31 -70q0 -42 30 -68q31 -26 85 -26q115 0 115 94t-115 94zM1098 262q0 -106 133 -106t133 106q0 109 -133 109q-60 0 -97 -29q-36 -28 -36 -80z" />
    <glyph glyph-name="arrowleft" unicode="&#x2190;" horiz-adv-x="1957" 
d="M748 879h976v-299h-976q69 -85 188 -242l254 -338h-406l-551 729l551 729h406l-254 -338q-104 -140 -188 -241z" />
    <glyph glyph-name="arrowup" unicode="&#x2191;" horiz-adv-x="1957" 
d="M250 940l729 551l729 -551v-389l-338 254q-129 97 -227 178v-983h-332v981q-155 -125 -223 -176l-338 -254v389z" />
    <glyph glyph-name="arrowright" unicode="&#x2192;" horiz-adv-x="1957" 
d="M768 1458h406l550 -729l-550 -729h-406l254 338q119 157 188 242h-977v299h977q-84 101 -188 241z" />
    <glyph glyph-name="arrowdown" unicode="&#x2193;" horiz-adv-x="1957" 
d="M1370 653l338 254v-389l-729 -551l-729 551v389l338 -254q68 -51 223 -176v981h332v-983q98 81 227 178z" />
    <glyph glyph-name="arrowboth" unicode="&#x2194;" horiz-adv-x="1957" 
d="M1124 1458h357l477 -729l-477 -729h-359l219 332l168 252h-1060q22 -32 165 -252l215 -332h-350l-479 729l477 729h357l-220 -336q-72 -111 -161 -243h1052q-80 110 -162 239z" />
    <glyph glyph-name="arrowupdn" unicode="&#x2195;" horiz-adv-x="1957" 
d="M1143 1274v-1090q98 81 227 178l338 254v-389l-729 -551l-729 551v389l338 -254q68 -51 223 -176v1086q-155 -125 -223 -176l-338 -254v389l729 551l729 -551v-389l-338 254q-129 97 -227 178z" />
    <glyph glyph-name="uni2196" unicode="&#x2196;" horiz-adv-x="1957" 
d="M1681 1079h-530q-189 0 -309 4l796 -774l-217 -235l-803 778q5 -150 5 -307v-512l-314 289v1058h1084z" />
    <glyph glyph-name="uni2197" unicode="&#x2197;" horiz-adv-x="1957" 
d="M276 1079l289 301h1084v-1058l-314 -289v512q0 187 4 307l-802 -778l-218 235l797 774q-120 -4 -309 -4h-531z" />
    <glyph glyph-name="uni2198" unicode="&#x2198;" horiz-adv-x="1957" 
d="M1335 922v510l314 -289v-1057h-1084l-289 299h531q189 0 309 -4l-797 774l218 236l802 -779q-4 120 -4 310z" />
    <glyph glyph-name="uni2199" unicode="&#x2199;" horiz-adv-x="1957" 
d="M1151 383h530l-288 -299h-1084v1059l314 287v-510q0 -155 -5 -310l803 779l217 -234l-798 -776q124 4 311 4z" />
    <glyph glyph-name="partialdiff" unicode="&#x2202;" horiz-adv-x="1345" 
d="M797 1491q226 0 350 -127q125 -128 125 -363q0 -289 -92 -536q-91 -245 -267 -377q-163 -121 -374 -121q-208 0 -342 119q-136 119 -136 324q0 229 162 391q159 162 393 162q235 0 324 -160q21 111 21 194q0 242 -193 242q-166 0 -229 -162h-320q63 197 215 305
q153 109 363 109zM565 236q113 0 193 92t80 213q0 81 -45 127q-45 47 -125 47q-114 0 -193 -90q-82 -89 -82 -215q0 -81 46 -127q47 -47 126 -47z" />
    <glyph glyph-name="uni2206" unicode="&#x2206;" horiz-adv-x="1417" 
d="M496 1458h411l459 -1169v-289h-1315v289zM580 793l-177 -490h601l-181 490q-70 190 -123 362q-70 -221 -120 -362z" />
    <glyph glyph-name="product" unicode="&#x220f;" horiz-adv-x="1499" 
d="M111 -401v1859h1278v-1859h-347v1554h-585v-1554h-346z" />
    <glyph glyph-name="summation" unicode="&#x2211;" horiz-adv-x="1284" 
d="M924 -98h309v-305h-1182v266l576 665l-576 666v266h1161v-305h-288q-258 0 -422 4l268 -309l184 -221v-201l-184 -221l-268 -309q164 4 422 4z" />
    <glyph glyph-name="minus" unicode="&#x2212;" horiz-adv-x="1081" 
d="M1022 596h-963v268h963v-268z" />
    <glyph glyph-name="uni2215" unicode="&#x2215;" horiz-adv-x="1081" 
d="M373 0h-314l650 1458h313z" />
    <glyph glyph-name="uni2219" unicode="&#x2219;" horiz-adv-x="1079" 
d="M756 518h-432v422h432v-422z" />
    <glyph glyph-name="radical" unicode="&#x221a;" horiz-adv-x="1509" 
d="M870 506l291 952h346l-592 -1859h-417l-269 778h-206v305h448l55 -178q20 -76 174 -586q1 7 26 90q17 56 61 213q29 103 83 285z" />
    <glyph glyph-name="infinity" unicode="&#x221e;" horiz-adv-x="1712" 
d="M1255 1149q183 0 289 -117q109 -123 109 -303q0 -181 -109 -301q-107 -119 -289 -119q-231 0 -399 230q-168 -230 -399 -230q-182 0 -289 119q-109 120 -109 301q0 180 109 303q106 117 289 117q229 0 399 -231q170 231 399 231zM473 539q125 0 246 190
q-122 191 -246 191q-72 0 -116 -53t-44 -138t44 -138q43 -52 116 -52zM1241 539q70 0 115 52q45 53 45 138t-45 138t-115 53q-125 0 -248 -191q121 -190 248 -190z" />
    <glyph glyph-name="integral" unicode="&#x222b;" horiz-adv-x="864" 
d="M211 -414q-48 0 -152 13v241q37 -6 86 -6q127 0 127 111v1175q0 160 96 256q94 94 285 94q56 0 152 -12v-241q-37 6 -84 6q-129 0 -129 -111v-1175q0 -161 -95 -256t-286 -95z" />
    <glyph glyph-name="approxequal" unicode="&#x2248;" horiz-adv-x="1081" 
d="M262 766h-203q5 169 81 263q77 95 212 95q89 0 228 -59q90 -39 138 -42q49 -3 66 20q18 25 33 83h205q-4 -166 -81 -262t-212 -96q-91 0 -225 59q-93 43 -139 43t-69 -23t-34 -81zM262 322h-203q5 169 81 263q77 95 212 95q89 0 228 -59q99 -43 137 -43q44 0 68 24t32 82
h205q-4 -168 -81 -264t-212 -96q-85 0 -225 61q-93 37 -141 40t-66 -19q-19 -23 -35 -84z" />
    <glyph glyph-name="notequal" unicode="&#x2260;" horiz-adv-x="1081" 
d="M1022 1059v-238h-348l-66 -184h414v-238h-496l-82 -231l-180 63l60 168h-265v238h349l63 184h-412v238h496l82 231l178 -63l-59 -168h266z" />
    <glyph glyph-name="lessequal" unicode="&#x2264;" horiz-adv-x="1081" 
d="M1022 1257v-268l-115 -43q-316 -104 -534 -166q264 -76 534 -168l115 -43v-266l-963 336v283zM1022 0h-963v240h963v-240z" />
    <glyph glyph-name="greaterequal" unicode="&#x2265;" horiz-adv-x="1081" 
d="M59 989v268l963 -335v-283l-963 -336v266l113 43q264 92 537 168q-242 70 -537 166zM1022 0h-963v240h963v-240z" />
    <glyph glyph-name="uni2460" unicode="&#x2460;" horiz-adv-x="1957" 
d="M483 1552q224 125 496 125t496 -125q226 -128 354 -344q129 -217 129 -479q0 -258 -129 -477q-131 -222 -354 -346q-224 -125 -496 -125t-496 125q-223 124 -354 346q-129 219 -129 477q0 261 129 479q128 216 354 344zM473 229q206 -202 508 -202t508 202
q205 198 205 500q0 300 -205 502q-207 201 -508 201q-300 0 -508 -203q-207 -203 -207 -500t207 -500zM940 1196h195v-932h-244v602q-63 -6 -207 -6v170q69 2 108 13q38 11 80 47q47 38 68 106z" />
    <glyph glyph-name="uni2461" unicode="&#x2461;" horiz-adv-x="1957" 
d="M483 1552q224 125 496 125t496 -125q226 -128 354 -344q129 -217 129 -479q0 -258 -129 -477q-131 -222 -354 -346q-224 -125 -496 -125t-496 125q-223 124 -354 346q-129 219 -129 477q0 261 129 479q128 216 354 344zM473 229q206 -202 508 -202t508 202
q205 198 205 500q0 300 -205 502q-207 201 -508 201q-300 0 -508 -203q-207 -203 -207 -500t207 -500zM1077 647l-63 -31q-95 -44 -111 -102h449v-207h-738l7 94q17 268 280 392l72 32q133 60 133 133q0 97 -109 97q-123 0 -125 -137h-239q15 164 106 252q93 90 260 90
q162 0 257 -78q96 -79 96 -205q0 -114 -64 -189q-62 -73 -211 -141z" />
    <glyph glyph-name="uni2462" unicode="&#x2462;" horiz-adv-x="1957" 
d="M483 1552q224 125 496 125t496 -125q226 -128 354 -344q129 -217 129 -479q0 -258 -129 -477q-131 -222 -354 -346q-224 -125 -496 -125t-496 125q-223 124 -354 346q-129 219 -129 477q0 261 129 479q128 216 354 344zM473 229q206 -202 508 -202t508 202
q205 198 205 500q0 300 -205 502q-207 201 -508 201q-300 0 -508 -203q-207 -203 -207 -500t207 -500zM1219 762q143 -61 143 -221q0 -133 -100 -214t-273 -81q-197 0 -296 93t-99 265h235q1 -83 38 -120q35 -35 116 -35q61 0 95 27t34 75q0 106 -137 106h-72v179h76
q125 0 125 96q0 90 -119 90q-118 0 -129 -115h-235q12 310 366 310q163 0 258 -71q94 -70 94 -192q0 -121 -120 -192z" />
    <glyph glyph-name="uni2463" unicode="&#x2463;" horiz-adv-x="1957" 
d="M483 1552q224 125 496 125t496 -125q226 -128 354 -344q129 -217 129 -479q0 -258 -129 -477q-131 -222 -354 -346q-224 -125 -496 -125t-496 125q-223 124 -354 346q-129 219 -129 477q0 261 129 479q128 216 354 344zM473 229q206 -202 508 -202t508 202
q205 198 205 500q0 300 -205 502q-207 201 -508 201q-300 0 -508 -203q-207 -203 -207 -500t207 -500zM971 1202h250v-543h114v-198h-114v-191h-246v191h-422v235zM981 659v289l-240 -289h240z" />
    <glyph glyph-name="uni2464" unicode="&#x2464;" horiz-adv-x="1957" 
d="M483 1552q224 125 496 125t496 -125q226 -128 354 -344q129 -217 129 -479q0 -258 -129 -477q-131 -222 -354 -346q-224 -125 -496 -125t-496 125q-223 124 -354 346q-129 219 -129 477q0 261 129 479q128 216 354 344zM473 229q206 -202 508 -202t508 202
q205 198 205 500q0 300 -205 502q-207 201 -508 201q-300 0 -508 -203q-207 -203 -207 -500t207 -500zM1024 874q154 0 241 -89q87 -88 87 -224q0 -149 -105 -239q-106 -91 -270 -91q-155 0 -256 79q-104 81 -111 216h232q8 -46 45 -75q38 -29 90 -29q63 0 103 39t40 100
q0 62 -40 101q-39 38 -103 38q-94 0 -127 -69h-227l90 551h594v-205h-404l-24 -137q59 34 145 34z" />
    <glyph glyph-name="uni2465" unicode="&#x2465;" horiz-adv-x="1957" 
d="M483 1552q224 125 496 125t496 -125q226 -128 354 -344q129 -217 129 -479q0 -258 -129 -477q-131 -222 -354 -346q-224 -125 -496 -125t-496 125q-223 124 -354 346q-129 219 -129 477q0 261 129 479q128 216 354 344zM473 229q206 -202 508 -202t508 202
q205 198 205 500q0 300 -205 502q-207 201 -508 201q-300 0 -508 -203q-207 -203 -207 -500t207 -500zM1022 889q153 0 242 -92q86 -92 86 -222q0 -151 -103 -240t-268 -89q-144 0 -234 69q-157 111 -157 406q0 245 101 370q102 126 294 126q147 0 241 -71q92 -70 113 -200
h-231q-24 86 -125 86q-79 0 -116 -48t-48 -167q78 72 205 72zM979 438q85 -6 122 64q36 70 0 139q-37 70 -122 64q-61 0 -99 -38t-38 -96q0 -57 38 -95t99 -38z" />
    <glyph glyph-name="uni2466" unicode="&#x2466;" horiz-adv-x="1957" 
d="M483 1552q224 125 496 125t496 -125q226 -128 354 -344q129 -217 129 -479q0 -258 -129 -477q-131 -222 -354 -346q-224 -125 -496 -125t-496 125q-223 124 -354 346q-129 219 -129 477q0 261 129 479q128 216 354 344zM473 229q206 -202 508 -202t508 202
q205 198 205 500q0 300 -205 502q-207 201 -508 201q-300 0 -508 -203q-207 -203 -207 -500t207 -500zM1081 967h-428v204h672v-198q-138 -147 -203 -307q-65 -164 -65 -426h-264q2 210 79 398q78 189 209 329z" />
    <glyph glyph-name="uni2467" unicode="&#x2467;" horiz-adv-x="1957" 
d="M483 1552q224 125 496 125t496 -125q226 -128 354 -344q129 -217 129 -479q0 -258 -129 -477q-131 -222 -354 -346q-224 -125 -496 -125t-496 125q-223 124 -354 346q-129 219 -129 477q0 261 129 479q128 216 354 344zM473 229q206 -202 508 -202t508 202
q205 198 205 500q0 300 -205 502q-207 201 -508 201q-300 0 -508 -203q-207 -203 -207 -500t207 -500zM1221 756q145 -61 145 -221q0 -131 -105 -210q-104 -79 -284 -79q-179 0 -282 79t-103 210q0 158 143 221q-104 67 -104 196q0 124 91 194q92 71 255 71q164 0 256 -71
t92 -194q0 -129 -104 -196zM1071 1012q-32 28 -93 28t-93 -28q-33 -27 -33 -78q0 -105 125 -105q127 0 127 105q0 51 -33 78zM977 436q147 0 147 117q0 121 -147 121q-68 0 -106 -32q-37 -31 -37 -89q0 -117 143 -117z" />
    <glyph glyph-name="uni2468" unicode="&#x2468;" horiz-adv-x="1957" 
d="M483 1552q224 125 496 125t496 -125q226 -128 354 -344q129 -217 129 -479q0 -258 -129 -477q-131 -222 -354 -346q-224 -125 -496 -125t-496 125q-223 124 -354 346q-129 219 -129 477q0 261 129 479q128 216 354 344zM473 229q206 -202 508 -202t508 202
q205 198 205 500q0 300 -205 502q-207 201 -508 201q-300 0 -508 -203q-207 -203 -207 -500t207 -500zM1221 1143q157 -114 157 -404q0 -244 -100 -368q-101 -125 -291 -125q-150 0 -244 70t-112 198h229q28 -84 129 -84q75 0 113 47q36 45 47 166q-78 -72 -203 -72
q-154 0 -241 93q-89 91 -89 221q0 150 103 241t268 91q131 0 234 -74zM889 795q61 -64 151 -28q91 36 84 124q0 56 -38 94q-37 37 -99 37t-99 -37q-38 -38 -38 -94q0 -59 39 -96z" />
    <glyph glyph-name="uni24EA" unicode="&#x24ea;" horiz-adv-x="1957" 
d="M1475 -94q-224 -125 -496 -125t-496 125q-223 124 -354 346q-129 219 -129 477q0 261 129 479q128 216 354 344q224 125 496 125t496 -125q226 -128 354 -344q129 -217 129 -479q0 -258 -129 -477q-131 -222 -354 -346zM473 229q206 -202 508 -202t508 202
q205 198 205 500q0 300 -205 502q-207 201 -508 201q-300 0 -508 -203q-207 -203 -207 -500t207 -500zM1280 371q-101 -125 -301 -125q-198 0 -299 125q-102 125 -102 358q0 239 102 364q102 124 299 124t299 -124q102 -125 102 -364q0 -237 -100 -358zM870 514
q33 -63 109 -63q73 0 111 63q34 62 34 215q0 152 -34 217q-34 66 -111 66q-76 0 -111 -65q-34 -64 -34 -218q0 -156 36 -215z" />
    <glyph glyph-name="uni24FF" unicode="&#x24ff;" horiz-adv-x="1957" 
d="M1475 -94q-224 -125 -496 -125t-496 125q-223 124 -354 346q-129 219 -129 477q0 261 129 479q128 216 354 344q224 125 496 125t496 -125q226 -128 354 -344q129 -217 129 -479q0 -258 -129 -477q-131 -222 -354 -346zM684 373q102 -123 295 -123t295 123
q100 118 100 356q0 481 -395 481t-395 -481q0 -238 100 -356zM981 442q-81 0 -119 69q-37 68 -37 218q0 152 37 220q38 69 119 69q80 0 116 -69t36 -220t-36 -219t-116 -68z" />
    <glyph glyph-name="filledbox" unicode="&#x25a0;" horiz-adv-x="1957" 
d="M1909 -180h-1860v1818h1860v-1818z" />
    <glyph glyph-name="uni25A1" unicode="&#x25a1;" horiz-adv-x="1957" 
d="M1909 -180h-1860v1818h1860v-1818zM315 1399v-1340h1327v1340h-1327z" />
    <glyph glyph-name="lozenge" unicode="&#x25ca;" horiz-adv-x="1259" 
d="M451 1458h356l416 -729l-416 -729h-356l-414 729zM375 729l254 -450l254 450l-254 451z" />
    <glyph glyph-name="circle" unicode="&#x25cb;" horiz-adv-x="1957" 
d="M1475 -94q-224 -125 -496 -125t-496 125q-223 124 -354 346q-129 219 -129 477q0 261 129 479q128 216 354 344q224 125 496 125t496 -125q226 -128 354 -344q129 -217 129 -479q0 -258 -129 -477q-131 -222 -354 -346zM473 229q206 -202 508 -202t508 202
q205 198 205 500q0 300 -205 502q-207 201 -508 201q-300 0 -508 -203q-207 -203 -207 -500t207 -500z" />
    <glyph glyph-name="uni25CF" unicode="&#x25cf;" horiz-adv-x="1957" 
d="M1475 -94q-224 -125 -496 -125t-496 125q-223 124 -354 346q-129 219 -129 477q0 261 129 479q128 216 354 344q224 125 496 125t496 -125q226 -128 354 -344q129 -217 129 -479q0 -258 -129 -477q-131 -222 -354 -346z" />
    <glyph glyph-name="uni2776" unicode="&#x2776;" horiz-adv-x="1957" 
d="M1475 -94q-224 -125 -496 -125t-496 125q-223 124 -354 346q-129 219 -129 477q0 261 129 479q128 216 354 344q224 125 496 125t496 -125q226 -128 354 -344q129 -217 129 -479q0 -258 -129 -477q-131 -222 -354 -346zM897 866v-596h233v920h-184q-30 -92 -93 -129
q-62 -37 -161 -37v-158h205z" />
    <glyph glyph-name="uni2777" unicode="&#x2777;" horiz-adv-x="1957" 
d="M1475 -94q-224 -125 -496 -125t-496 125q-223 124 -354 346q-129 219 -129 477q0 261 129 479q128 216 354 344q224 125 496 125t496 -125q226 -128 354 -344q129 -217 129 -479q0 -258 -129 -477q-131 -222 -354 -346zM623 395l-5 -86h723v191h-450q15 74 127 125l53 24
q142 66 208 141q62 71 62 181q0 124 -94 200t-252 76q-325 0 -358 -327h223q8 137 133 137q117 0 117 -105q0 -77 -137 -139l-72 -31q-261 -118 -278 -387z" />
    <glyph glyph-name="uni2778" unicode="&#x2778;" horiz-adv-x="1957" 
d="M1475 -94q-224 -125 -496 -125t-496 125q-223 124 -354 346q-129 219 -129 477q0 261 129 479q128 216 354 344q224 125 496 125t496 -125q226 -128 354 -344q129 -217 129 -479q0 -258 -129 -477q-131 -222 -354 -346zM989 250q165 0 266 80t101 211q0 163 -156 219
q131 63 131 194q0 119 -92 188q-90 68 -252 68q-342 0 -360 -297h221q7 60 40 88q32 27 97 27q125 0 125 -96q0 -103 -131 -103h-70v-163h66q145 0 145 -115q0 -51 -37 -81t-100 -30q-84 0 -121 37q-38 38 -39 119h-221q10 -346 387 -346z" />
    <glyph glyph-name="uni2779" unicode="&#x2779;" horiz-adv-x="1957" 
d="M1475 -94q-224 -125 -496 -125t-496 125q-223 124 -354 346q-129 219 -129 477q0 261 129 479q128 216 354 344q224 125 496 125t496 -125q226 -128 354 -344q129 -217 129 -479q0 -258 -129 -477q-131 -222 -354 -346zM981 467v-191h231v191h115v184h-115v543h-239
l-414 -500v-227h422zM987 651h-260l260 316v-316z" />
    <glyph glyph-name="uni277A" unicode="&#x277a;" horiz-adv-x="1957" 
d="M1475 -94q-224 -125 -496 -125t-496 125q-223 124 -354 346q-129 219 -129 477q0 261 129 479q128 216 354 344q224 125 496 125t496 -125q226 -128 354 -344q129 -217 129 -479q0 -258 -129 -477q-131 -222 -354 -346zM979 238q162 0 265 89q102 89 102 234
q0 135 -84 220t-236 85q-89 0 -156 -41l29 158h404v191h-582l-88 -537h215q40 72 131 72q64 0 107 -41q42 -40 42 -107q0 -64 -41 -105q-40 -40 -108 -40q-53 0 -91 27q-37 27 -48 77h-224q15 -130 113 -206t250 -76z" />
    <glyph glyph-name="uni277B" unicode="&#x277b;" horiz-adv-x="1957" 
d="M1475 -94q-224 -125 -496 -125t-496 125q-223 124 -354 346q-129 219 -129 477q0 261 129 479q128 216 354 344q224 125 496 125t496 -125q226 -128 354 -344q129 -217 129 -479q0 -258 -129 -477q-131 -222 -354 -346zM979 250q163 0 264 90q100 90 100 235
q0 134 -87 221t-234 87q-137 0 -213 -82v10q11 124 50 175q40 52 122 52q104 0 131 -86h217q-21 124 -110 191t-234 67q-191 0 -290 -126t-99 -363q0 -295 154 -404q89 -67 229 -67zM979 430q-63 0 -103 39t-40 102q0 62 40 102t103 40q66 0 106 -40q41 -41 41 -102
q0 -63 -41 -102t-106 -39z" />
    <glyph glyph-name="uni277C" unicode="&#x277c;" horiz-adv-x="1957" 
d="M1475 -94q-224 -125 -496 -125t-496 125q-223 124 -354 346q-129 219 -129 477q0 261 129 479q128 216 354 344q224 125 496 125t496 -125q226 -128 354 -344q129 -217 129 -479q0 -258 -129 -477q-131 -222 -354 -346zM793 246h249q4 259 68 422q66 166 201 307v190
h-658v-192h439q-133 -139 -214 -328q-81 -188 -85 -399z" />
    <glyph glyph-name="uni277D" unicode="&#x277d;" horiz-adv-x="1957" 
d="M1475 -94q-224 -125 -496 -125t-496 125q-223 124 -354 346q-129 219 -129 477q0 261 129 479q128 216 354 344q224 125 496 125t496 -125q226 -128 354 -344q129 -217 129 -479q0 -258 -129 -477q-131 -222 -354 -346zM702 328q102 -78 277 -78q171 0 278 78
q105 78 105 204q0 162 -156 224q113 63 113 196q0 121 -90 190q-89 68 -250 68q-159 0 -249 -68q-91 -69 -91 -190q0 -129 115 -196q-156 -62 -156 -224q0 -127 104 -204zM1077 852q-34 -29 -98 -29t-98 29q-35 29 -35 82q0 51 36 81q35 29 97 29q133 0 133 -110
q0 -53 -35 -82zM979 428q-154 0 -154 123q0 60 41 95q40 34 113 34q75 0 115 -34q41 -35 41 -95q0 -123 -156 -123z" />
    <glyph glyph-name="uni277E" unicode="&#x277e;" horiz-adv-x="1957" 
d="M1475 -94q-224 -125 -496 -125t-496 125q-223 124 -354 346q-129 219 -129 477q0 261 129 479q128 216 354 344q224 125 496 125t496 -125q226 -128 354 -344q129 -217 129 -479q0 -258 -129 -477q-131 -222 -354 -346zM983 246q191 0 293 125t102 368q0 297 -157 408
q-94 67 -234 67q-167 0 -268 -91q-103 -92 -103 -238q0 -130 89 -221q90 -93 241 -93q118 0 197 68l8 8q0 -8 -2 -18q-11 -108 -49 -154q-39 -47 -115 -47q-101 0 -125 86h-229q21 -131 112 -199q91 -69 240 -69zM1087 793q-45 -38 -100 -39q-56 -2 -100 38q-45 40 -39 99
q0 57 39 95q40 38 100 38t100 -38q39 -38 39 -95q0 -59 -39 -98z" />
    <glyph glyph-name="uni2E18" unicode="&#x2e18;" horiz-adv-x="1120" 
d="M397 1200h361v-352h-361v352zM762 195h321q2 -241 -134 -363q-137 -123 -400 -123q-235 0 -373 103q-137 102 -137 282q0 208 213 355q116 85 143 124q31 42 31 142h301l4 -289l-86 -350h-160l-32 182q-70 -58 -70 -129q0 -154 176 -154q107 0 155 51q46 49 48 169z" />
    <glyph glyph-name="uniF8FF" unicode="&#xf8ff;" horiz-adv-x="1689" 
d="M739 989v281q0 78 -75 78q-39 0 -64 -25t-25 -72v-262h-141v647h141v-237q52 71 142 71q77 0 120 -45q44 -46 44 -129v-307h-142zM1423 1636h144v-647h-144v647zM1153 981q-109 0 -176 67q-66 66 -66 179q0 111 66 178q66 68 176 68q109 0 175 -71q67 -72 67 -190v-28
h-351q18 -101 109 -101q65 0 96 54h133q-18 -75 -79 -115q-62 -41 -150 -41zM1151 1366q-86 0 -104 -92h208q-15 92 -104 92zM1567 727v-29h-350q15 -100 108 -100q65 0 94 53h135q-18 -74 -80 -114q-64 -41 -151 -41q-109 0 -175 66q-67 67 -67 179q0 111 66 179
q66 67 176 67q108 0 176 -71t68 -189zM1112 967l-168 -469h-168l-168 469h148l49 -156q32 -95 57 -193q22 86 58 193l49 156h143zM1321 883q-87 0 -102 -95h206q-12 95 -104 95zM446 522v121h138v-121h-138zM180 608h144v-141h90v-102h-90v-220q0 -25 11 -32q14 -9 42 -9h37
v-106q-55 -4 -66 -4q-89 0 -129 32q-39 32 -39 103v236h-69v102h69v141zM856 102q78 0 90 80h141q-7 -90 -70 -142q-62 -52 -161 -52q-110 0 -176 66t-66 179q0 111 66 179q66 67 176 67q96 0 159 -51q62 -51 70 -137h-141q-16 71 -88 71q-98 0 -98 -129q0 -131 98 -131z
M1577 0h-145q-9 29 -9 51q-49 -61 -151 -61q-76 0 -122 39t-46 106q0 130 182 146l72 6q36 1 50 11q13 9 13 32q0 49 -71 49q-45 0 -62 -13t-22 -49h-140q15 162 224 162q211 0 211 -143v-242q0 -66 16 -94zM588 0h-144v469h144v-469zM1315 86q106 0 106 98v37
q-10 -14 -47 -20l-57 -8q-68 -8 -68 -56q0 -51 66 -51z" />
    <glyph glyph-name="uniFEFF" unicode="&#xfeff;" 
 />
    <glyph glyph-name="null" 
 />
    <glyph glyph-name="Adieresis.ss01" horiz-adv-x="1499" 
d="M649 1583q-52 -47 -112 -47q-61 0 -113 47q-51 46 -49 113q0 65 47 112t115 47q101 6 144 -99q44 -106 -32 -173zM1061 1583q-47 -47 -113 -47q-65 0 -112 47q-48 48 -48 113q0 64 48 112q47 47 112 47q66 0 113 -47t47 -112q0 -66 -47 -113zM1497 0h-367l-86 254h-606
l-84 -254h-354l537 1458h411zM618 793l-83 -250h411l-84 250q-43 124 -123 368q-91 -280 -121 -368z" />
    <glyph glyph-name="Cdotaccent.ss01" horiz-adv-x="1517" 
d="M776 1569q-68 0 -116 48t-48 116t47 117q47 48 117 48q68 0 116 -48t48 -117q0 -67 -47 -116q-47 -48 -117 -48zM776 -33q-325 0 -526 207t-201 555q0 351 197 557q196 205 530 205q271 0 459 -143q192 -145 231 -412h-350q-33 123 -122 189q-90 67 -218 67
q-177 0 -271 -121q-95 -122 -95 -342t95 -342q94 -121 271 -121q136 0 230 78t118 217h346q-33 -282 -223 -438q-192 -156 -471 -156z" />
    <glyph glyph-name="Edieresis.ss01" horiz-adv-x="1275" 
d="M575 1583q-32 -37 -81 -44q-50 -8 -93 10q-42 17 -72 58q-29 40 -28 89q0 65 47 112t115 47q101 6 144 -99q44 -106 -32 -173zM987 1583q-47 -47 -113 -47q-65 0 -112 47t-47 113q0 65 47 112t112 47q66 0 113 -47t47 -112q0 -66 -47 -113zM1225 1458v-309h-768v-264h698
v-291h-698v-285h766v-309h-1112v1458h1114z" />
    <glyph glyph-name="Edotaccent.ss01" horiz-adv-x="1275" 
d="M668 1536q-68 0 -116 48t-48 116q0 69 47 118q47 48 117 48q67 0 115 -48t48 -118q0 -67 -47 -116q-46 -48 -116 -48zM1225 1458v-309h-768v-264h698v-291h-698v-285h766v-309h-1112v1458h1114z" />
    <glyph glyph-name="uni0122.ss01" horiz-adv-x="1593" 
d="M831 543v270h672v-813h-241l-41 193q-148 -226 -473 -226q-317 0 -508 209q-191 206 -191 553q0 350 199 557q196 205 540 205q285 0 474 -141q190 -144 223 -383h-355q-30 106 -118 166q-87 59 -221 59q-178 0 -280 -123q-101 -122 -101 -340q0 -217 105 -340t292 -123
q134 0 232 77t116 200h-324zM784 -109q74 0 117 -52t43 -138v-4q0 -246 -242 -248l-45 -2v115l35 2q84 0 84 69v7q-60 1 -98 36q-37 34 -37 91q0 55 39 90q38 34 104 34z" />
    <glyph glyph-name="Gdotaccent.ss01" horiz-adv-x="1593" 
d="M788 1569q-67 0 -115 48t-48 116t47 117q46 48 116 48q68 0 116 -48t48 -117q0 -67 -47 -116q-47 -48 -117 -48zM831 543v270h672v-813h-241l-41 193q-148 -226 -473 -226q-317 0 -508 209q-191 206 -191 553q0 350 199 557q196 205 540 205q285 0 474 -141
q190 -144 223 -383h-355q-30 106 -118 166q-87 59 -221 59q-178 0 -280 -123q-101 -122 -101 -340q0 -217 105 -340t292 -123q134 0 232 77t116 200h-324z" />
    <glyph glyph-name="Idieresis.ss01" horiz-adv-x="567" 
d="M90 1536q-62 0 -105 45q-44 46 -44 107q0 60 44 106q43 45 105 45t107 -45t45 -106t-44 -107q-44 -45 -108 -45zM584 1581q-64 -74 -163 -32q-100 42 -95 139q0 60 44 106q43 45 107 45q96 5 137 -95q41 -101 -30 -163zM457 0h-346v1458h346v-1458z" />
    <glyph glyph-name="Idotaccent.ss01" horiz-adv-x="567" 
d="M283 1536q-68 0 -116 48t-48 116q0 70 48 118t116 48q69 0 117 -48q49 -49 49 -118q0 -67 -49 -116q-48 -48 -117 -48zM457 0h-346v1458h346v-1458z" />
    <glyph glyph-name="uni0136.ss01" horiz-adv-x="1484" 
d="M1061 1458h422l-586 -596l586 -862h-410l-420 631l-196 -195v-436h-346v1458h346v-631zM760 -78q74 0 117 -52t43 -138v-4q0 -246 -242 -248l-45 -2v114l35 2q84 0 84 70v6q-60 1 -99 37q-37 34 -37 90q0 55 39 90q40 35 105 35z" />
    <glyph glyph-name="uni013B.ss01" horiz-adv-x="1150" 
d="M457 1458v-1149h667v-309h-1013v1458h346zM618 -78q74 0 117 -52t43 -138v-4q0 -247 -241 -248l-45 -2v114l34 2q84 0 84 70v6q-59 1 -98 37q-37 34 -37 90q0 55 39 90q40 35 104 35z" />
    <glyph glyph-name="Ldot.ss01" horiz-adv-x="1150" 
d="M457 1458v-1149h667v-309h-1013v1458h346zM864 571q-84 0 -145 59q-60 59 -60 142q0 82 60 139q61 58 145 58q79 0 140 -59q59 -58 59 -138q0 -84 -59 -142q-61 -59 -140 -59z" />
    <glyph glyph-name="uni0145.ss01" horiz-adv-x="1499" 
d="M1059 1153v305h330v-1458h-373l-357 582q-168 281 -227 397q8 -299 8 -674v-305h-329v1458h372l357 -581q152 -251 227 -402q-8 304 -8 678zM750 -78q73 0 116 -52t43 -138v-4q0 -247 -241 -248l-45 -2v114l34 2q84 0 84 70v6q-59 1 -98 37q-37 34 -37 90q0 55 39 90
q40 35 105 35z" />
    <glyph glyph-name="Odieresis.ss01" horiz-adv-x="1593" 
d="M705 1616q-52 -47 -113 -47t-113 47q-51 46 -49 113q0 65 47 112t115 47q100 6 144 -99q44 -107 -31 -173zM1116 1616q-47 -47 -112 -47q-66 0 -113 47t-47 113q0 65 47 112t113 47q65 0 112 -47t47 -112q0 -66 -47 -113zM797 -33q-334 0 -541 209q-207 212 -207 553
t207 553q207 209 541 209q333 0 540 -209q207 -212 207 -553t-207 -553q-207 -209 -540 -209zM516 391q105 -123 281 -123q174 0 282 123q107 122 107 338t-107 338q-108 123 -282 123q-176 0 -281 -123q-106 -121 -106 -338t106 -338z" />
    <glyph glyph-name="uni0156.ss01" horiz-adv-x="1386" 
d="M1300 362l11 -204q1 -97 41 -158h-357q-32 61 -34 160l-7 164q-4 119 -54 166t-161 47h-282v-537h-346v1458h690q257 0 392 -113q136 -114 136 -309q0 -252 -235 -346q114 -38 156 -112q44 -77 50 -216zM457 1182v-385h305q100 0 156 50q55 49 55 144q0 191 -217 191
h-299zM735 -78q74 0 117 -52t43 -138v-4q0 -246 -242 -248l-45 -2v114l35 2q84 0 84 70v6q-59 1 -98 37q-37 34 -37 90q0 55 39 90q40 35 104 35z" />
    <glyph glyph-name="uni0218.ss01" horiz-adv-x="1331" 
d="M670 895l123 -23q263 -46 384 -152q119 -104 119 -292q0 -224 -163 -342q-164 -119 -455 -119q-304 0 -471 135q-166 135 -168 377h336q1 -135 79 -188q77 -53 236 -53q248 0 248 168q0 73 -54 109q-55 36 -208 65l-119 22q-487 82 -487 457q0 198 148 315t421 117
q291 0 444 -123q154 -123 164 -352h-327q-6 105 -71 155t-204 50q-223 0 -223 -148q0 -73 54 -112t194 -66zM694 -111q74 0 117 -52t43 -138v-4q0 -246 -242 -248l-45 -2v115l35 2q84 0 84 69v7q-60 1 -98 36q-37 34 -37 90t39 91q38 34 104 34z" />
    <glyph glyph-name="uni021A.ss01" horiz-adv-x="1294" 
d="M27 1458h1243v-309h-449v-1149h-348v1149h-446v309zM647 -78q74 0 117 -52t43 -138v-4q0 -246 -242 -248l-45 -2v114l35 2q84 0 84 70v6q-59 1 -98 37q-37 34 -37 90q0 55 39 90q40 35 104 35z" />
    <glyph glyph-name="Udieresis.ss01" horiz-adv-x="1447" 
d="M631 1583q-52 -47 -113 -47q-60 0 -112 47t-50 113q0 65 47 112t115 47q101 6 145 -99q44 -106 -32 -173zM1042 1583q-47 -47 -112 -47q-66 0 -113 47t-47 113q0 65 47 112t113 47q65 0 112 -47q48 -48 48 -112q0 -65 -48 -113zM723 -33q-284 0 -459 154
q-174 150 -174 434v903h346v-907q0 -140 75 -212q76 -73 212 -73q135 0 213 73q76 72 76 212v907h346v-903q0 -281 -169 -434q-171 -154 -466 -154z" />
    <glyph glyph-name="Wdieresis.ss01" horiz-adv-x="2033" 
d="M926 1583q-32 -36 -82 -44t-92 10q-43 18 -73 58q-29 40 -28 89q0 65 47 112t115 47q101 6 144 -99q44 -107 -31 -173zM1337 1583q-47 -47 -112 -47q-66 0 -113 47t-47 113q0 65 47 112t113 47q65 0 112 -47t47 -112q0 -66 -47 -113zM1550 958l123 500h361l-400 -1458
h-387l-121 516q-57 232 -108 526q-37 -197 -109 -526l-123 -516h-387l-399 1458h362l121 -500q79 -322 129 -571q63 337 115 571l117 500h346l117 -500q58 -254 114 -575q32 145 129 575z" />
    <glyph glyph-name="Ydieresis.ss01" horiz-adv-x="1433" 
d="M625 1583q-52 -47 -113 -47t-113 47q-51 46 -49 113q0 65 47 112t115 47q100 6 144 -99q44 -107 -31 -173zM1036 1583q-47 -47 -112 -47q-66 0 -113 47t-47 113q0 65 47 112t113 47q65 0 112 -47t47 -112q0 -66 -47 -113zM930 1249l123 209h381l-541 -891v-567h-346v567
l-547 891h391l127 -211q52 -92 107 -184q34 -63 40 -72q8 -13 20 -35t17 -30t13.5 -22t11.5 -19q103 191 203 364z" />
    <glyph glyph-name="Zdotaccent.ss01" horiz-adv-x="1320" 
d="M664 1536q-68 0 -116 48t-48 116q0 69 47 118q46 48 117 48q67 0 115 -48t48 -118q0 -67 -47 -116q-46 -48 -116 -48zM922 309h348v-309h-1219v272l488 574q81 96 268 307q-335 -4 -422 -4h-309v309h1181v-270l-489 -576q-135 -160 -270 -307q335 4 424 4z" />
    <glyph glyph-name="G.ss03" horiz-adv-x="1570" 
d="M801 819h717q4 -76 4 -90q0 -348 -195 -555q-197 -207 -528 -207q-337 0 -543 209q-207 212 -207 553q0 350 201 557q198 205 547 205q293 0 475 -143q181 -144 225 -377h-348q-72 219 -352 219q-180 0 -284 -122q-103 -121 -103 -339q0 -217 108 -339t281 -122
q292 0 360 281h-358v270z" />
    <glyph glyph-name="uni01F4.ss03" horiz-adv-x="1570" 
d="M852 1874h348l-274 -295h-254zM801 819h717q4 -76 4 -90q0 -348 -195 -555q-197 -207 -528 -207q-337 0 -543 209q-207 212 -207 553q0 350 201 557q198 205 547 205q293 0 475 -143q181 -144 225 -377h-348q-72 219 -352 219q-180 0 -284 -122q-103 -121 -103 -339
q0 -217 108 -339t281 -122q292 0 360 281h-358v270z" />
    <glyph glyph-name="Gbreve.ss03" horiz-adv-x="1570" 
d="M1038 1651q-94 -82 -241 -82q-148 0 -242 82q-99 80 -123 223h232q16 -117 133 -117q116 0 133 117h231q-27 -143 -123 -223zM801 819h717q4 -76 4 -90q0 -348 -195 -555q-197 -207 -528 -207q-337 0 -543 209q-207 212 -207 553q0 350 201 557q198 205 547 205
q293 0 475 -143q181 -144 225 -377h-348q-72 219 -352 219q-180 0 -284 -122q-103 -121 -103 -339q0 -217 108 -339t281 -122q292 0 360 281h-358v270z" />
    <glyph glyph-name="Gcircumflex.ss03" horiz-adv-x="1570" 
d="M930 1579l-133 141l-135 -141h-287l241 295h355l243 -295h-284zM801 819h717q4 -76 4 -90q0 -348 -195 -555q-197 -207 -528 -207q-337 0 -543 209q-207 212 -207 553q0 350 201 557q198 205 547 205q293 0 475 -143q181 -144 225 -377h-348q-72 219 -352 219
q-180 0 -284 -122q-103 -121 -103 -339q0 -217 108 -339t281 -122q292 0 360 281h-358v270z" />
    <glyph glyph-name="uni0122.ss03" horiz-adv-x="1570" 
d="M801 819h717q4 -76 4 -90q0 -348 -195 -555q-197 -207 -528 -207q-337 0 -543 209q-207 212 -207 553q0 350 201 557q198 205 547 205q293 0 475 -143q181 -144 225 -377h-348q-72 219 -352 219q-180 0 -284 -122q-103 -121 -103 -339q0 -217 108 -339t281 -122
q292 0 360 281h-358v270zM782 -346h-123v225h283v-239q0 -190 -233 -191h-50v109l48 2q75 0 75 75v19z" />
    <glyph glyph-name="Gdotaccent.ss03" horiz-adv-x="1570" 
d="M641 1849h307v-270h-307v270zM801 819h717q4 -76 4 -90q0 -348 -195 -555q-197 -207 -528 -207q-337 0 -543 209q-207 212 -207 553q0 350 201 557q198 205 547 205q293 0 475 -143q181 -144 225 -377h-348q-72 219 -352 219q-180 0 -284 -122q-103 -121 -103 -339
q0 -217 108 -339t281 -122q292 0 360 281h-358v270z" />
    <glyph glyph-name="uni0122.ss01.ss03" horiz-adv-x="1570" 
d="M801 819h717q4 -76 4 -90q0 -348 -195 -555q-197 -207 -528 -207q-337 0 -543 209q-207 212 -207 553q0 350 201 557q198 205 547 205q293 0 475 -143q181 -144 225 -377h-348q-72 219 -352 219q-180 0 -284 -122q-103 -121 -103 -339q0 -217 108 -339t281 -122
q292 0 360 281h-358v270zM799 -111q73 0 116 -52t43 -138v-4q0 -247 -241 -248l-45 -2v115l35 2q84 0 84 69v7q-61 2 -99 36q-37 34 -37 90t39 91q38 34 105 34z" />
    <glyph glyph-name="Gdotaccent.ss01.ss03" horiz-adv-x="1570" 
d="M797 1569q-68 0 -116 48t-48 116t47 117q47 48 117 48q67 0 115 -48q49 -49 49 -117q0 -66 -48 -116q-47 -48 -116 -48zM801 819h717q4 -76 4 -90q0 -348 -195 -555q-197 -207 -528 -207q-337 0 -543 209q-207 212 -207 553q0 350 201 557q198 205 547 205
q293 0 475 -143q181 -144 225 -377h-348q-72 219 -352 219q-180 0 -284 -122q-103 -121 -103 -339q0 -217 108 -339t281 -122q292 0 360 281h-358v270z" />
    <glyph glyph-name="R.ss04" horiz-adv-x="1386" 
d="M1378 0h-389l-317 518h-215v-518h-346v1458h675q252 0 395 -124q144 -124 144 -335q0 -156 -81 -267q-82 -112 -226 -161zM764 1182h-307v-396h307q98 0 157 56q58 55 58 143t-58 142q-60 55 -157 55z" />
    <glyph glyph-name="Racute.ss04" horiz-adv-x="1386" 
d="M760 1841h348l-274 -295h-254zM1378 0h-389l-317 518h-215v-518h-346v1458h675q252 0 395 -124q144 -124 144 -335q0 -156 -81 -267q-82 -112 -226 -161zM764 1182h-307v-396h307q98 0 157 56q58 55 58 143t-58 142q-60 55 -157 55z" />
    <glyph glyph-name="Rcaron.ss04" horiz-adv-x="1386" 
d="M1122 1841l-241 -295h-355l-243 295h284l135 -141l134 141h286zM1378 0h-389l-317 518h-215v-518h-346v1458h675q252 0 395 -124q144 -124 144 -335q0 -156 -81 -267q-82 -112 -226 -161zM764 1182h-307v-396h307q98 0 157 56q58 55 58 143t-58 142q-60 55 -157 55z" />
    <glyph glyph-name="uni0156.ss04" horiz-adv-x="1386" 
d="M1018 571l360 -571h-389l-317 518h-215v-518h-346v1458h675q252 0 395 -124q144 -124 144 -335q0 -156 -81 -267q-82 -112 -226 -161zM764 1182h-307v-396h307q98 0 157 56q58 55 58 143t-58 142q-60 55 -157 55zM707 -313h-123v225h282v-240q0 -189 -233 -190h-49v108
l47 2q76 0 76 76v19z" />
    <glyph glyph-name="uni0156.ss01.ss04" horiz-adv-x="1386" 
d="M1018 571l360 -571h-389l-317 518h-215v-518h-346v1458h675q252 0 395 -124q144 -124 144 -335q0 -156 -81 -267q-82 -112 -226 -161zM764 1182h-307v-396h307q98 0 157 56q58 55 58 143t-58 142q-60 55 -157 55zM723 -78q74 0 117 -52t43 -138v-4q0 -246 -242 -248
l-45 -2v114l35 2q84 0 84 70v6q-60 1 -99 37q-36 33 -36 90q0 56 38 90q40 35 105 35z" />
    <glyph glyph-name="i.loclTRK" horiz-adv-x="505" 
d="M406 1178h-306v270h306v-270zM412 0h-320v1057h320v-1057z" />
    <glyph glyph-name="adieresis.ss01" horiz-adv-x="1144" 
d="M502 1214q-32 -36 -82 -44q-48 -7 -92 11t-73 57q-29 40 -28 89q0 66 47 113t115 47q101 6 145 -99q44 -107 -32 -174zM913 1214q-47 -47 -112 -47q-66 0 -113 47t-47 113t47 113t113 47q65 0 112 -47q48 -48 48 -113t-48 -113zM1110 0h-322q-25 47 -26 119
q-106 -144 -338 -144q-174 0 -280 86q-105 85 -105 238q0 295 414 330l165 14q138 15 138 105q0 106 -162 106q-98 0 -138 -30q-41 -30 -48 -109h-318q28 366 506 366q471 0 471 -325v-561q0 -134 43 -195zM520 190q109 0 172 57q64 58 64 169v78q-29 -30 -107 -41l-131 -15
q-153 -16 -153 -127q0 -55 41 -88q40 -33 114 -33z" />
    <glyph glyph-name="cdotaccent.ss01" horiz-adv-x="1142" 
d="M592 1167q-68 0 -116 48t-48 116q0 69 47 118q47 48 117 48q68 0 116 -48t48 -118q0 -67 -47 -116q-47 -48 -117 -48zM592 -25q-248 0 -395 152q-148 153 -148 401q0 253 148 404q146 149 395 149q218 0 355 -113q139 -114 161 -309h-317q-27 162 -199 162
q-219 0 -219 -293q0 -290 219 -290q184 0 205 178h317q-15 -201 -158 -322q-145 -119 -364 -119z" />
    <glyph glyph-name="edieresis.ss01" horiz-adv-x="1196" 
d="M502 1214q-32 -36 -82 -44q-48 -7 -92 11t-73 57q-29 40 -28 89q0 66 47 113t115 47q101 6 145 -99q44 -107 -32 -174zM913 1214q-47 -47 -112 -47q-66 0 -113 47t-47 113t47 113t113 47q65 0 112 -47q48 -48 48 -113t-48 -113zM1139 498v-64h-783q17 -109 80 -166
t162 -57q156 0 213 119h303q-44 -166 -182 -259q-142 -96 -334 -96q-245 0 -397 152t-152 401q0 252 150 402q147 151 395 151q246 0 397 -157q148 -160 148 -426zM590 846q-197 0 -232 -209h467q-17 99 -77 154q-61 55 -158 55z" />
    <glyph glyph-name="edotaccent.ss01" horiz-adv-x="1196" 
d="M592 1167q-68 0 -116 48t-48 116q0 69 47 118q47 48 117 48q68 0 116 -48t48 -118q0 -67 -47 -116q-47 -48 -117 -48zM1139 498v-64h-783q17 -109 80 -166t162 -57q156 0 213 119h303q-44 -166 -182 -259q-142 -96 -334 -96q-245 0 -397 152t-152 401q0 252 150 402
q147 151 395 151q246 0 397 -157q148 -160 148 -426zM590 846q-197 0 -232 -209h467q-17 99 -77 154q-61 55 -158 55z" />
    <glyph glyph-name="uni0123.ss01" horiz-adv-x="1230" 
d="M631 1169q-73 0 -117 52q-43 50 -43 137v6q0 116 63 181q64 66 179 67h45v-115h-35q-84 0 -84 -72v-4v-2q63 -1 99 -36q36 -34 36 -89q0 -56 -39 -90q-40 -35 -104 -35zM827 918v139h312v-1024q0 -215 -143 -337t-398 -122q-236 0 -369 103q-132 103 -143 284h315
q12 -147 203 -147q104 0 160 54q55 54 55 152v152q-100 -149 -303 -149q-209 0 -338 147t-129 383q0 234 127 383q127 145 334 145q212 0 317 -163zM598 279q108 0 168 70q59 69 59 204t-58 203q-59 69 -169 69q-106 0 -166 -72q-59 -71 -59 -204q0 -131 59 -200
q60 -70 166 -70z" />
    <glyph glyph-name="gdotaccent.ss01" horiz-adv-x="1230" 
d="M621 1167q-68 0 -116 48t-48 116q0 69 47 118q46 48 117 48q67 0 115 -48t48 -118q0 -67 -47 -116q-47 -48 -116 -48zM827 918v139h312v-1024q0 -215 -143 -337t-398 -122q-236 0 -369 103q-132 103 -143 284h315q12 -147 203 -147q104 0 160 54q55 54 55 152v152
q-100 -149 -303 -149q-209 0 -338 147t-129 383q0 234 127 383q127 145 334 145q212 0 317 -163zM598 279q108 0 168 70q59 69 59 204t-58 203q-59 69 -169 69q-106 0 -166 -72q-59 -71 -59 -204q0 -131 59 -200q60 -70 166 -70z" />
    <glyph glyph-name="i.ss01" horiz-adv-x="505" 
d="M252 1167q-70 0 -118 48t-48 116q0 70 48 118t118 48q68 0 116 -48t48 -118q0 -68 -48 -116t-116 -48zM412 0h-320v1057h320v-1057z" />
    <glyph glyph-name="idieresis.ss01" horiz-adv-x="505" 
d="M59 1167q-61 0 -105 44t-44 108q-5 97 94 137q99 41 162 -31q74 -63 33 -162q-41 -100 -140 -96zM553 1212q-63 -73 -163 -32q-99 41 -95 139q0 61 44 105t107 44q95 5 138 -94q43 -98 -31 -162zM412 0h-320v1057h320v-1057z" />
    <glyph glyph-name="i.loclTRK.ss01" horiz-adv-x="505" 
d="M252 1167q-70 0 -118 48t-48 116q0 70 48 118t118 48q68 0 116 -48t48 -118q0 -68 -48 -116t-116 -48zM412 0h-320v1057h320v-1057z" />
    <glyph glyph-name="ij.ss01" horiz-adv-x="1011" 
d="M252 1167q-70 0 -118 48t-48 116q0 70 48 118t118 48q68 0 116 -48t48 -118q0 -68 -48 -116t-116 -48zM758 1167q-70 0 -118 48t-48 116q0 70 48 118t118 48q67 0 115 -48q49 -49 49 -118q0 -67 -49 -116q-48 -48 -115 -48zM412 0h-320v1057h320v-1057zM563 -406
q-62 0 -104 3v243h39q52 0 76 21t24 73v1123h320v-1159q0 -160 -84 -232t-271 -72z" />
    <glyph glyph-name="iogonek.ss01" horiz-adv-x="505" 
d="M252 1167q-70 0 -118 48t-48 116q0 70 48 118t118 48q68 0 116 -48t48 -118q0 -68 -48 -116t-116 -48zM342 -254q40 0 78 12v-166q-51 -18 -123 -18q-118 0 -185 53t-67 146q0 66 44 130q43 62 126 97h-123v1057h320v-1057q-160 -86 -160 -178q0 -76 90 -76z" />
    <glyph glyph-name="j.ss01" horiz-adv-x="505" 
d="M252 1167q-70 0 -118 48t-48 116q0 70 48 118t118 48q68 0 116 -48t48 -118q0 -68 -48 -116t-116 -48zM57 -406q-62 0 -104 3v243h39q53 0 77 21q23 20 23 73v1123h320v-1159q0 -160 -84 -232t-271 -72z" />
    <glyph glyph-name="uni0137.ss01" horiz-adv-x="1187" 
d="M1163 1057l-397 -410l420 -647h-365l-272 436l-143 -147v-289h-314v1458h314v-819l391 418h366zM612 -78q74 0 117 -52t43 -138v-4q0 -246 -242 -248l-45 -2v114l35 2q84 0 84 70v6q-59 1 -98 37q-37 34 -37 90q0 55 39 90q40 35 104 35z" />
    <glyph glyph-name="uni013C.ss01" horiz-adv-x="505" 
d="M92 0v1458h320v-1458h-320zM252 -78q74 0 117 -52t43 -138v-4q0 -246 -242 -248l-45 -2v114l35 2q84 0 84 70v6q-60 1 -99 37q-36 33 -36 90q0 56 38 90q40 35 105 35z" />
    <glyph glyph-name="ldot.ss01" horiz-adv-x="1032" 
d="M412 0h-320v1458h320v-1458zM764 526q-85 0 -146 59q-59 58 -59 142q0 83 59 139q61 58 146 58q80 0 140 -58q59 -57 59 -139q0 -83 -59 -142t-140 -59z" />
    <glyph glyph-name="napostrophe.ss01" horiz-adv-x="1628" 
d="M242 1466q100 0 155 -69q56 -70 56 -191q0 -188 -89 -294q-88 -104 -270 -109l-8 -2v164h12q70 2 103 35q35 34 45 108h-2q-80 0 -132 48q-53 48 -53 128t53 131q52 51 130 51zM1167 1081q171 0 269 -101t98 -288v-692h-320v629q0 180 -170 180q-85 0 -142 -57
q-56 -56 -56 -162v-590h-320v1057h312v-148q121 172 329 172z" />
    <glyph glyph-name="uni0146.ss01" horiz-adv-x="1193" 
d="M735 1081q169 0 267 -101q100 -103 100 -288v-692h-320v629q0 180 -170 180q-86 0 -143 -57t-57 -162v-590h-320v1057h311v-150q123 174 332 174zM594 -78q74 0 117 -52t43 -138v-4q0 -246 -242 -248l-45 -2v114l35 2q84 0 84 70v6q-60 1 -99 37q-36 33 -36 90
q0 56 38 90q40 35 105 35z" />
    <glyph glyph-name="odieresis.ss01" horiz-adv-x="1206" 
d="M512 1214q-32 -36 -82 -44q-48 -7 -92 11t-73 57t-27 89q0 66 47 113t114 47q101 6 145 -99q44 -107 -32 -174zM924 1214q-47 -47 -113 -47t-113 47t-47 113t47 113t113 47t113 -47t47 -113t-47 -113zM604 -25q-251 0 -403 152t-152 401q0 252 152 404q149 149 403 149
q255 0 404 -149t149 -404q0 -252 -149 -401q-152 -152 -404 -152zM604 231q110 0 170 76t60 221q0 146 -60 222q-59 75 -170 75q-113 0 -172 -75t-59 -222q0 -146 59 -221q60 -76 172 -76z" />
    <glyph glyph-name="uni0157.ss01" horiz-adv-x="817" 
d="M705 1073q14 0 69 -4v-291h-82q-280 0 -280 -286v-492h-320v1057h311v-197q73 213 302 213zM252 -78q74 0 117 -52t43 -138v-4q0 -246 -242 -248l-45 -2v114l35 2q84 0 84 70v6q-60 1 -99 37q-36 33 -36 90q0 56 38 90q40 35 105 35z" />
    <glyph glyph-name="uni0219.ss01" horiz-adv-x="1064" 
d="M512 662l158 -23q189 -28 280 -109q90 -80 90 -219q0 -165 -132 -253q-133 -89 -371 -89q-251 0 -372 87t-136 280h311q8 -85 54 -119q47 -35 149 -35q178 0 178 103q0 49 -39 74q-39 26 -143 42l-138 23q-356 55 -356 324q0 159 123 246t352 87q474 0 492 -362h-297
q-1 149 -195 149q-162 0 -162 -100q0 -46 37 -70t117 -36zM539 -109q73 0 116 -52t43 -138v-4q0 -247 -241 -248l-45 -2v115l34 2q84 0 84 69v7q-60 1 -98 36q-37 34 -37 91q0 55 39 90q38 34 105 34z" />
    <glyph glyph-name="uni021B.ss01" horiz-adv-x="745" 
d="M702 1057v-234h-202v-493q0 -54 26 -73t95 -19h81v-238q-61 -8 -147 -8q-199 0 -287 70t-88 233v528h-157v234h157v313h320v-313h202zM438 -78q74 0 117 -52t43 -138v-4q0 -246 -242 -248l-45 -2v114l35 2q84 0 84 70v6q-59 1 -98 37q-37 34 -37 90q0 55 39 90
q40 35 104 35z" />
    <glyph glyph-name="udieresis.ss01" horiz-adv-x="1193" 
d="M496 1214q-32 -36 -82 -44q-48 -7 -92 11t-73 57q-29 40 -28 89q0 66 47 113t115 47q101 6 144 -99q44 -107 -31 -174zM907 1214q-47 -47 -112 -47q-66 0 -113 47t-47 113t47 113t113 47q65 0 112 -47t47 -113t-47 -113zM782 467v590h320v-1057h-311v150
q-124 -175 -332 -175q-169 0 -268 102t-99 288v692h320v-629q0 -180 170 -180q86 0 143 57t57 162z" />
    <glyph glyph-name="wdieresis.ss01" horiz-adv-x="1757" 
d="M786 1214q-50 -47 -111 -47q-62 0 -114 47q-51 46 -49 113q0 66 47 113t115 47q100 6 144 -99q44 -107 -32 -174zM1198 1214q-47 -47 -113 -47q-65 0 -112 47t-47 113t47 113t112 47q66 0 113 -47t47 -113t-47 -113zM1313 717l98 340h342l-344 -1057h-336l-117 397
q-37 123 -79 285q-45 -177 -76 -285l-117 -397h-336l-346 1057h344l98 -340q68 -238 99 -357q36 148 92 359l96 338h295l96 -338q56 -211 92 -359q31 119 99 357z" />
    <glyph glyph-name="ydieresis.ss01" horiz-adv-x="1128" 
d="M473 1214q-32 -36 -82 -44q-48 -7 -92 11t-73 57t-27 89q0 66 47 113t114 47q101 6 145 -99q44 -107 -32 -174zM885 1214q-47 -47 -113 -47t-113 47t-47 113t47 113t113 47t113 -47t47 -113t-47 -113zM750 905l47 152h329l-383 -1098q-72 -206 -182 -283
q-113 -79 -344 -79q-49 0 -125 4v245h103q159 0 159 148q0 67 -49 205l-303 858h344l47 -150q101 -341 180 -665q71 298 177 663z" />
    <glyph glyph-name="zdotaccent.ss01" horiz-adv-x="1038" 
d="M520 1167q-68 0 -116 48t-48 116q0 69 47 118q47 48 117 48q68 0 116 -48t48 -118q0 -67 -47 -116q-47 -48 -117 -48zM670 238h313v-238h-926v201l375 463q80 99 131 157q-62 -2 -213 -2h-289v238h902v-201l-375 -463q-80 -99 -131 -157q62 2 213 2z" />
    <glyph glyph-name="a.ss02" horiz-adv-x="1216" 
d="M803 934v123h321v-1057h-311v137q-99 -162 -303 -162q-218 0 -340 148q-121 146 -121 405q0 260 121 406q121 147 340 147q192 0 293 -147zM590 231q219 0 219 297t-219 297q-217 0 -217 -305q0 -289 217 -289z" />
    <glyph glyph-name="aacute.ss02" horiz-adv-x="1216" 
d="M662 1473h348l-275 -295h-254zM803 934v123h321v-1057h-311v137q-99 -162 -303 -162q-218 0 -340 148q-121 146 -121 405q0 260 121 406q121 147 340 147q192 0 293 -147zM590 231q219 0 219 297t-219 297q-217 0 -217 -305q0 -289 217 -289z" />
    <glyph glyph-name="abreve.ss02" horiz-adv-x="1216" 
d="M840 1249q-94 -82 -242 -82t-242 82q-99 79 -123 224h232q15 -117 133 -117t133 117h232q-27 -145 -123 -224zM803 934v123h321v-1057h-311v137q-99 -162 -303 -162q-218 0 -340 148q-121 146 -121 405q0 260 121 406q121 147 340 147q192 0 293 -147zM590 231
q219 0 219 297t-219 297q-217 0 -217 -305q0 -289 217 -289z" />
    <glyph glyph-name="acircumflex.ss02" horiz-adv-x="1216" 
d="M731 1178l-133 139l-135 -139h-287l242 295h354l244 -295h-285zM803 934v123h321v-1057h-311v137q-99 -162 -303 -162q-218 0 -340 148q-121 146 -121 405q0 260 121 406q121 147 340 147q192 0 293 -147zM590 231q219 0 219 297t-219 297q-217 0 -217 -305
q0 -289 217 -289z" />
    <glyph glyph-name="adieresis.ss02" horiz-adv-x="1216" 
d="M229 1448h308v-270h-308v270zM659 1448h308v-270h-308v270zM803 934v123h321v-1057h-311v137q-99 -162 -303 -162q-218 0 -340 148q-121 146 -121 405q0 260 121 406q121 147 340 147q192 0 293 -147zM590 231q219 0 219 297t-219 297q-217 0 -217 -305q0 -289 217 -289z
" />
    <glyph glyph-name="agrave.ss02" horiz-adv-x="1216" 
d="M551 1473l180 -295h-254l-274 295h348zM803 934v123h321v-1057h-311v137q-99 -162 -303 -162q-218 0 -340 148q-121 146 -121 405q0 260 121 406q121 147 340 147q192 0 293 -147zM590 231q219 0 219 297t-219 297q-217 0 -217 -305q0 -289 217 -289z" />
    <glyph glyph-name="amacron.ss02" horiz-adv-x="1216" 
d="M254 1386h688v-208h-688v208zM803 934v123h321v-1057h-311v137q-99 -162 -303 -162q-218 0 -340 148q-121 146 -121 405q0 260 121 406q121 147 340 147q192 0 293 -147zM590 231q219 0 219 297t-219 297q-217 0 -217 -305q0 -289 217 -289z" />
    <glyph glyph-name="aogonek.ss02" horiz-adv-x="1216" 
d="M1124 1057v-1057q-198 -88 -198 -180q0 -74 102 -74q50 0 96 14v-168q-63 -18 -147 -18q-133 0 -210 53t-77 146q0 64 53 128q50 60 154 99h-84v137q-99 -162 -303 -162q-218 0 -340 148q-121 146 -121 405q0 260 121 406q121 147 340 147q192 0 293 -147v123h321z
M590 231q219 0 219 297t-219 297q-217 0 -217 -305q0 -289 217 -289z" />
    <glyph glyph-name="aring.ss02" horiz-adv-x="1216" 
d="M823 1253q-95 -84 -225 -84q-133 0 -223 84q-92 83 -92 215q0 129 92 213q90 84 223 84q130 0 225 -84q90 -84 90 -213q0 -131 -90 -215zM684 1554q-35 35 -86 35t-86 -35t-35 -86t35 -84q33 -32 86 -32t86 32q35 33 35 84t-35 86zM803 934v123h321v-1057h-311v137
q-99 -162 -303 -162q-218 0 -340 148q-121 146 -121 405q0 260 121 406q121 147 340 147q192 0 293 -147zM590 231q219 0 219 297t-219 297q-217 0 -217 -305q0 -289 217 -289z" />
    <glyph glyph-name="aringacute.ss02" horiz-adv-x="1216" 
d="M662 2148h348l-275 -295h-254zM823 1253q-95 -84 -225 -84q-133 0 -223 84q-92 83 -92 215q0 129 92 213q90 84 223 84q130 0 225 -84q90 -84 90 -213q0 -131 -90 -215zM684 1554q-35 35 -86 35t-86 -35t-35 -86t35 -84q33 -32 86 -32t86 32q35 33 35 84t-35 86zM803 934
v123h321v-1057h-311v137q-99 -162 -303 -162q-218 0 -340 148q-121 146 -121 405q0 260 121 406q121 147 340 147q192 0 293 -147zM590 231q219 0 219 297t-219 297q-217 0 -217 -305q0 -289 217 -289z" />
    <glyph glyph-name="atilde.ss02" horiz-adv-x="1216" 
d="M465 1253q-56 0 -57 -75h-195q0 140 58 211t161 71q68 0 176 -41q74 -33 123 -33q55 0 57 74h195q0 -140 -58 -211t-161 -71q-62 0 -178 43q-77 32 -121 32zM803 934v123h321v-1057h-311v137q-99 -162 -303 -162q-218 0 -340 148q-121 146 -121 405q0 260 121 406
q121 147 340 147q192 0 293 -147zM590 231q219 0 219 297t-219 297q-217 0 -217 -305q0 -289 217 -289z" />
    <glyph glyph-name="adieresis.ss01.ss02" horiz-adv-x="1216" 
d="M506 1214q-32 -36 -82 -44q-48 -7 -92 11t-73 57q-29 40 -28 89q0 65 48 113q47 47 114 47q101 6 145 -99q44 -107 -32 -174zM918 1214q-47 -47 -113 -47t-113 47t-47 113t47 113t113 47t113 -47t47 -113t-47 -113zM803 934v123h321v-1057h-311v137q-99 -162 -303 -162
q-218 0 -340 148q-121 146 -121 405q0 260 121 406q121 147 340 147q192 0 293 -147zM590 231q219 0 219 297t-219 297q-217 0 -217 -305q0 -289 217 -289z" />
    <glyph glyph-name="uni021B.ss01.ss05" horiz-adv-x="710" 
d="M500 1057h168v-234h-168v-823h-320v823h-157v234h157v313h320v-313zM340 -78q74 0 117 -52t43 -138v-4q0 -246 -242 -248l-45 -2v114l35 2q84 0 84 70v6q-60 1 -99 37q-36 33 -36 90q0 55 39 90q40 35 104 35z" />
    <glyph glyph-name="udieresis.ss01.ss05" horiz-adv-x="1193" 
d="M496 1214q-32 -36 -82 -44q-48 -7 -92 11t-73 57q-29 40 -28 89q0 66 47 113t115 47q101 6 144 -99q44 -107 -31 -174zM907 1214q-47 -47 -112 -47q-66 0 -113 47t-47 113t47 113t113 47q65 0 112 -47t47 -113t-47 -113zM782 467v590h320v-1057h-311v150
q-124 -175 -332 -175q-169 0 -268 102t-99 288v692h320v-629q0 -180 170 -180q86 0 143 57t57 162z" />
    <glyph glyph-name="t.ss05" horiz-adv-x="710" 
d="M500 1057h168v-234h-168v-823h-320v823h-157v234h157v313h320v-313z" />
    <glyph glyph-name="tbar.ss05" horiz-adv-x="710" 
d="M668 1057v-234h-168v-184h166v-178h-166v-461h-320v461h-153v178h153v184h-157v234h157v313h320v-313h168z" />
    <glyph glyph-name="tcaron.ss05" horiz-adv-x="710" 
d="M563 1118l55 340h314l-158 -340h-211zM180 1370h320v-313h168v-234h-168v-823h-320v823h-157v234h157v313z" />
    <glyph glyph-name="uni0163.ss05" horiz-adv-x="710" 
d="M500 823v-823h-78l-78 -90q10 2 33 2q99 0 157 -45t58 -115q0 -94 -79 -146t-237 -52q-87 0 -143 14v115q56 -9 115 -9q125 0 125 82q0 74 -117 74q-29 0 -49 -2v78l74 94h-101v823h-157v234h157v313h320v-313h168v-234h-168z" />
    <glyph glyph-name="uni021B.ss05" horiz-adv-x="710" 
d="M500 1057h168v-234h-168v-823h-320v823h-157v234h157v313h320v-313zM324 -346h-123v225h282v-239q0 -190 -233 -191h-49v109l47 2q76 0 76 75v19z" />
    <glyph glyph-name="udieresis.ss01.ss06" horiz-adv-x="1198" 
d="M508 1214q-32 -36 -82 -44q-48 -7 -92 11t-73 57q-29 40 -28 89q0 65 48 113q47 47 114 47q101 6 145 -99q44 -107 -32 -174zM920 1214q-47 -47 -113 -47t-113 47t-47 113t47 113t113 47t113 -47t47 -113t-47 -113zM598 -25q-233 0 -370 128q-136 127 -136 350v604h322
v-608q0 -97 51 -149t133 -52t133 52t51 149v608h322v-604q0 -224 -137 -349q-139 -129 -369 -129z" />
    <glyph glyph-name="u.ss06" horiz-adv-x="1198" 
d="M598 -25q-233 0 -370 128q-136 127 -136 350v604h322v-608q0 -97 51 -149t133 -52t133 52t51 149v608h322v-604q0 -224 -137 -349q-139 -129 -369 -129z" />
    <glyph glyph-name="uacute.ss06" horiz-adv-x="1198" 
d="M737 1178h-254l181 295h348zM598 -25q-233 0 -370 128q-136 127 -136 350v604h322v-608q0 -97 51 -149t133 -52t133 52t51 149v608h322v-604q0 -224 -137 -349q-139 -129 -369 -129z" />
    <glyph glyph-name="ubreve.ss06" horiz-adv-x="1198" 
d="M842 1249q-94 -82 -242 -82t-242 82q-98 78 -122 224h231q17 -117 133 -117t133 117h232q-27 -145 -123 -224zM598 -25q-233 0 -370 128q-136 127 -136 350v604h322v-608q0 -97 51 -149t133 -52t133 52t51 149v608h322v-604q0 -224 -137 -349q-139 -129 -369 -129z" />
    <glyph glyph-name="ucircumflex.ss06" horiz-adv-x="1198" 
d="M733 1178l-133 139l-135 -139h-287l242 295h354l244 -295h-285zM782 449v608h322v-604q0 -224 -137 -349q-139 -129 -369 -129q-233 0 -370 128q-136 127 -136 350v604h322v-608q0 -97 51 -149t133 -52t133 52t51 149z" />
    <glyph glyph-name="udieresis.ss06" horiz-adv-x="1198" 
d="M537 1178h-308v270h308v-270zM967 1178h-308v270h308v-270zM598 -25q-233 0 -370 128q-136 127 -136 350v604h322v-608q0 -97 51 -149t133 -52t133 52t51 149v608h322v-604q0 -224 -137 -349q-139 -129 -369 -129z" />
    <glyph glyph-name="ugrave.ss06" horiz-adv-x="1198" 
d="M731 1178h-254l-274 295h348zM598 -25q-233 0 -370 128q-136 127 -136 350v604h322v-608q0 -97 51 -149t133 -52t133 52t51 149v608h322v-604q0 -224 -137 -349q-139 -129 -369 -129z" />
    <glyph glyph-name="uhungarumlaut.ss06" horiz-adv-x="1198" 
d="M506 1178h-244l180 295h351zM965 1178h-246l182 295h348zM598 -25q-233 0 -370 128q-136 127 -136 350v604h322v-608q0 -97 51 -149t133 -52t133 52t51 149v608h322v-604q0 -224 -137 -349q-139 -129 -369 -129z" />
    <glyph glyph-name="umacron.ss06" horiz-adv-x="1198" 
d="M944 1178h-688v208h688v-208zM598 -25q-233 0 -370 128q-136 127 -136 350v604h322v-608q0 -97 51 -149t133 -52t133 52t51 149v608h322v-604q0 -224 -137 -349q-139 -129 -369 -129z" />
    <glyph glyph-name="uogonek.ss06" horiz-adv-x="1198" 
d="M782 449v608h322v-604q0 -169 -84 -288q-84 -118 -234 -163q-159 -80 -159 -162q0 -73 102 -73q50 0 96 14v-168q-67 -19 -147 -19q-131 0 -210 54q-77 53 -77 145q0 110 125 187q-199 23 -311 147q-113 125 -113 326v604h322v-608q0 -97 51 -149t133 -52t133 52t51 149z
" />
    <glyph glyph-name="uring.ss06" horiz-adv-x="1198" 
d="M825 1253q-95 -84 -225 -84q-133 0 -223 84q-92 83 -92 215q0 129 92 213q90 84 223 84q130 0 225 -84q90 -84 90 -213q0 -131 -90 -215zM514 1384q33 -32 86 -32t86 32q35 33 35 84t-35 86t-86 35t-86 -35t-35 -86t35 -84zM598 -25q-233 0 -370 128q-136 127 -136 350
v604h322v-608q0 -97 51 -149t133 -52t133 52t51 149v608h322v-604q0 -224 -137 -349q-139 -129 -369 -129z" />
    <glyph glyph-name="utilde.ss06" horiz-adv-x="1198" 
d="M408 1178h-195q0 140 58 211t161 71q68 0 176 -41q74 -33 123 -33q55 0 57 74h195q0 -140 -58 -211t-161 -71q-62 0 -178 43q-77 32 -121 32q-56 0 -57 -75zM598 -25q-233 0 -370 128q-136 127 -136 350v604h322v-608q0 -97 51 -149t133 -52t133 52t51 149v608h322v-604
q0 -224 -137 -349q-139 -129 -369 -129z" />
    <glyph glyph-name="ydieresis.ss01.ss07" horiz-adv-x="1128" 
d="M481 1214q-32 -36 -82 -44q-48 -7 -92 11t-73 57t-27 89q0 66 47 113t115 47q101 6 144 -99q44 -107 -32 -174zM893 1214q-47 -47 -113 -47q-65 0 -112 47t-47 113t47 113t112 47q66 0 113 -47t47 -113t-47 -113zM741 899l56 158h329l-401 -985l-188 -473h-308l179 438
l-406 1020h344l49 -137q65 -191 168 -539q110 311 178 518z" />
    <glyph glyph-name="y.ss07" horiz-adv-x="1128" 
d="M741 899l56 158h329l-401 -985l-188 -473h-308l179 438l-406 1020h344l49 -137q65 -191 168 -539q110 311 178 518z" />
    <glyph glyph-name="yacute.ss07" horiz-adv-x="1128" 
d="M637 1473h348l-274 -295h-254zM741 899l56 158h329l-401 -985l-188 -473h-308l179 438l-406 1020h344l49 -137q65 -191 168 -539q110 311 178 518z" />
    <glyph glyph-name="ycircumflex.ss07" horiz-adv-x="1128" 
d="M707 1178l-134 139l-135 -139h-286l241 295h355l243 -295h-284zM741 899l56 158h329l-401 -985l-188 -473h-308l179 438l-406 1020h344l49 -137q65 -191 168 -539q110 311 178 518z" />
    <glyph glyph-name="ydieresis.ss07" horiz-adv-x="1128" 
d="M203 1448h307v-270h-307v270zM633 1448h307v-270h-307v270zM741 899l56 158h329l-401 -985l-188 -473h-308l179 438l-406 1020h344l49 -137q65 -191 168 -539q110 311 178 518z" />
    <glyph glyph-name="ygrave.ss07" horiz-adv-x="1128" 
d="M524 1473l181 -295h-254l-275 295h348zM741 899l56 158h329l-401 -985l-188 -473h-308l179 438l-406 1020h344l49 -137q65 -191 168 -539q110 311 178 518z" />
    <glyph glyph-name="l.ss08" horiz-adv-x="606" 
d="M446 -8q-187 0 -270 71q-84 72 -84 232v1163h320v-1128q0 -54 22 -73t80 -19h72v-238q-61 -8 -140 -8z" />
    <glyph glyph-name="lacute.ss08" horiz-adv-x="606" 
d="M383 1546h-254l180 295h348zM446 -8q-187 0 -270 71q-84 72 -84 232v1163h320v-1128q0 -54 22 -73t80 -19h72v-238q-61 -8 -140 -8z" />
    <glyph glyph-name="lcaron.ss08" horiz-adv-x="833" 
d="M446 -8q-187 0 -270 71q-84 72 -84 232v1163h320v-1128q0 -54 22 -73t80 -19h72v-238q-61 -8 -140 -8zM696 1118h-211l56 340h313z" />
    <glyph glyph-name="uni013C.ss08" horiz-adv-x="606" 
d="M514 238h72v-238q-61 -8 -140 -8q-187 0 -270 71q-84 72 -84 232v1163h320v-1128q0 -54 22 -73t80 -19zM236 -346h-123v225h282v-239q0 -190 -233 -191h-49v109l47 2q76 0 76 75v19z" />
    <glyph glyph-name="ldot.ss08" horiz-adv-x="1011" 
d="M446 -8q-187 0 -270 71q-84 72 -84 232v1163h320v-1128q0 -54 22 -73t80 -19h72v-238q-61 -8 -140 -8zM942 549h-362v352h362v-352z" />
    <glyph glyph-name="lslash.ss08" horiz-adv-x="667" 
d="M578 238h69v-238q-54 -8 -137 -8q-187 0 -270 71q-84 72 -84 232v262l-156 -72v203l156 72v698h319v-555l156 72v-203l-156 -72v-370q0 -53 23 -73q22 -19 80 -19z" />
    <glyph glyph-name="uni013C.ss01.ss08" horiz-adv-x="606" 
d="M514 238h72v-238q-61 -8 -140 -8q-187 0 -270 71q-84 72 -84 232v1163h320v-1128q0 -54 22 -73t80 -19zM252 -78q74 0 117 -52t43 -138v-4q0 -246 -242 -248l-45 -2v114l35 2q84 0 84 70v6q-60 1 -99 37q-36 33 -36 90q0 56 38 90q40 35 105 35z" />
    <glyph glyph-name="ldot.ss01.ss08" horiz-adv-x="1032" 
d="M446 -8q-187 0 -270 71q-84 72 -84 232v1163h320v-1128q0 -54 22 -73t80 -19h72v-238q-61 -8 -140 -8zM764 526q-85 0 -146 59q-59 58 -59 142q0 83 59 139q61 58 146 58q80 0 140 -58q59 -57 59 -139q0 -83 -59 -142t-140 -59z" />
    <glyph glyph-name="fi.ss01" horiz-adv-x="1255" 
d="M1001 1167q-69 0 -117 48t-48 116q0 70 48 118t117 48q68 0 116 -48t48 -118q0 -68 -48 -116t-116 -48zM180 1057v61q0 159 95 254q94 94 286 94q67 0 152 -8v-237h-86q-127 0 -127 -113v-51h209v-234h-209v-823h-320v823h-157v234h157zM1161 0h-319v1057h319v-1057z" />
    <glyph glyph-name="fl.ss08" horiz-adv-x="1343" 
d="M180 1057v61q0 159 95 254q94 94 286 94q67 0 152 -8v-237h-86q-127 0 -127 -113v-51h209v-234h-209v-823h-320v823h-157v234h157zM1251 238h72v-238q-61 -8 -139 -8q-188 0 -271 71q-84 72 -84 232v1163h320v-1128q0 -54 22 -73t80 -19z" />
    <glyph glyph-name="ordfeminine.ss02" horiz-adv-x="1030" 
d="M705 1348v110h284v-921h-274v122q-88 -143 -269 -143q-190 0 -300 129q-109 128 -109 350q0 225 109 353q110 129 300 129q169 0 259 -129zM516 741q195 0 195 254q0 256 -195 256q-93 0 -142 -67q-50 -68 -50 -195q0 -248 192 -248z" />
    <glyph glyph-name="t.sups.ss05" horiz-adv-x="608" 
d="M442 1458h142v-207h-142v-714h-282v714h-135v207h135v273h282v-273z" />
    <glyph glyph-name="zero.ss09" horiz-adv-x="1957" 
d="M1909 -180h-1860v1818h1860v-1818zM684 373q102 -123 295 -123t295 123q100 118 100 356q0 481 -395 481t-395 -481q0 -238 100 -356zM981 442q-81 0 -119 69q-37 68 -37 218q0 152 37 220q38 69 119 69q80 0 116 -69t36 -220t-36 -219t-116 -68z" />
    <glyph glyph-name="one.ss09" horiz-adv-x="1957" 
d="M1909 -180h-1860v1818h1860v-1818zM897 866v-596h233v920h-184q-30 -92 -93 -129q-62 -37 -161 -37v-158h205z" />
    <glyph glyph-name="two.ss09" horiz-adv-x="1957" 
d="M1909 -180h-1860v1818h1860v-1818zM623 395l-5 -86h723v191h-450q15 74 127 125l53 24q142 66 208 141q62 71 62 181q0 124 -94 200t-252 76q-325 0 -358 -327h223q8 137 133 137q117 0 117 -105q0 -77 -137 -139l-72 -31q-261 -118 -278 -387z" />
    <glyph glyph-name="three.ss09" horiz-adv-x="1957" 
d="M1909 -180h-1860v1818h1860v-1818zM989 250q165 0 266 80t101 211q0 163 -156 219q131 63 131 194q0 119 -92 188q-90 68 -252 68q-342 0 -360 -297h221q7 60 40 88q32 27 97 27q125 0 125 -96q0 -103 -131 -103h-70v-163h66q145 0 145 -115q0 -51 -37 -81t-100 -30
q-84 0 -121 37q-38 38 -39 119h-221q10 -346 387 -346z" />
    <glyph glyph-name="four.ss09" horiz-adv-x="1957" 
d="M1909 -180h-1860v1818h1860v-1818zM981 467v-191h231v191h115v184h-115v543h-239l-414 -500v-227h422zM987 651h-260l260 316v-316z" />
    <glyph glyph-name="five.ss09" horiz-adv-x="1957" 
d="M1909 -180h-1860v1818h1860v-1818zM979 238q162 0 265 89q102 89 102 234q0 135 -84 220t-236 85q-89 0 -156 -41l29 158h404v191h-582l-88 -537h215q40 72 131 72q64 0 107 -41q42 -40 42 -107q0 -64 -41 -105q-40 -40 -108 -40q-53 0 -91 27q-37 27 -48 77h-224
q15 -130 113 -206t250 -76z" />
    <glyph glyph-name="six.ss09" horiz-adv-x="1957" 
d="M1909 -180h-1860v1818h1860v-1818zM979 250q163 0 264 90q100 90 100 235q0 134 -87 221t-234 87q-137 0 -213 -82v10q11 124 50 175q40 52 122 52q104 0 131 -86h217q-21 124 -110 191t-234 67q-191 0 -290 -126t-99 -363q0 -292 154 -404q89 -67 229 -67zM979 430
q-63 0 -103 39t-40 102q0 62 40 102t103 40q66 0 106 -40q41 -41 41 -102q0 -63 -41 -102t-106 -39z" />
    <glyph glyph-name="seven.ss09" horiz-adv-x="1957" 
d="M1909 -180h-1860v1818h1860v-1818zM793 246h249q4 259 68 422q66 166 201 307v190h-658v-192h439q-133 -139 -214 -328q-81 -188 -85 -399z" />
    <glyph glyph-name="eight.ss09" horiz-adv-x="1957" 
d="M1909 -180h-1860v1818h1860v-1818zM702 328q102 -78 277 -78q171 0 278 78q105 78 105 204q0 162 -156 224q113 63 113 196q0 121 -90 190q-89 68 -250 68q-159 0 -249 -68q-91 -69 -91 -190q0 -129 115 -196q-156 -62 -156 -224q0 -127 104 -204zM1077 852
q-34 -29 -98 -29t-98 29q-35 29 -35 82q0 51 36 81q35 29 97 29q133 0 133 -110q0 -53 -35 -82zM979 428q-154 0 -154 123q0 60 41 95q40 34 113 34q75 0 115 -34q41 -35 41 -95q0 -123 -156 -123z" />
    <glyph glyph-name="nine.ss09" horiz-adv-x="1957" 
d="M1909 -180h-1860v1818h1860v-1818zM983 246q191 0 293 125t102 368q0 297 -157 408q-94 67 -234 67q-167 0 -268 -91q-103 -92 -103 -238q0 -130 89 -221q90 -93 241 -93q118 0 197 68l8 8q0 -8 -2 -18q-11 -108 -49 -154q-39 -47 -115 -47q-101 0 -125 86h-229
q21 -131 112 -199q91 -69 240 -69zM1087 793q-45 -38 -100 -39q-56 -2 -100 38q-45 40 -39 99q0 57 39 95q40 38 100 38t100 -38q39 -38 39 -95q0 -59 -39 -98z" />
    <glyph glyph-name="zero.ss10" horiz-adv-x="1957" 
d="M1909 -180h-1860v1818h1860v-1818zM315 1399v-1340h1327v1340h-1327zM1280 371q-101 -125 -301 -125q-198 0 -299 125q-102 125 -102 358q0 239 102 364q102 124 299 124t299 -124q102 -125 102 -364q0 -237 -100 -358zM870 514q33 -63 109 -63q73 0 111 63q34 62 34 215
q0 152 -34 217q-34 66 -111 66q-76 0 -111 -65q-34 -64 -34 -218q0 -156 36 -215z" />
    <glyph glyph-name="one.ss10" horiz-adv-x="1957" 
d="M49 -180v1818h1860v-1818h-1860zM315 59h1327v1340h-1327v-1340zM1149 264h-244v602q-66 -6 -205 -6v170q101 1 163 37q61 35 91 129h195v-932z" />
    <glyph glyph-name="two.ss10" horiz-adv-x="1957" 
d="M49 -180v1818h1860v-1818h-1860zM315 59h1327v1340h-1327v-1340zM899 471h449v-207h-738l4 94q17 267 283 392l72 32q133 61 133 133q0 97 -109 97q-121 0 -127 -138h-237q15 165 106 253q93 90 258 90q162 0 258 -78q97 -79 97 -205q0 -114 -64 -189q-62 -73 -211 -141
l-53 -24q-103 -50 -121 -109z" />
    <glyph glyph-name="three.ss10" horiz-adv-x="1957" 
d="M49 -180v1818h1860v-1818h-1860zM315 59h1327v1340h-1327v-1340zM983 449q61 0 95 27t34 75q0 106 -137 106h-72v179h76q125 0 125 96q0 90 -119 90q-118 0 -129 -115h-235q12 310 366 310q163 0 258 -71q94 -70 94 -192q0 -121 -120 -192q143 -61 143 -221
q0 -133 -100 -214t-273 -81q-197 0 -296 93t-99 265h235q1 -83 38 -120q35 -35 116 -35z" />
    <glyph glyph-name="four.ss10" horiz-adv-x="1957" 
d="M49 -180v1818h1860v-1818h-1860zM315 59h1327v1340h-1327v-1340zM1249 264h-245v191h-422v235l417 506h250v-543h115v-198h-115v-191zM1010 653v289l-240 -289h240z" />
    <glyph glyph-name="five.ss10" horiz-adv-x="1957" 
d="M49 -180v1818h1860v-1818h-1860zM315 59h1327v1340h-1327v-1340zM981 438q62 0 102 38q39 38 39 99t-39 102q-39 40 -102 40q-91 0 -129 -72h-225l90 551h594v-205h-404l-26 -137q67 35 145 35q154 0 241 -89q87 -88 87 -225q0 -149 -105 -239t-268 -90q-156 0 -257 79
q-102 79 -112 218h232q21 -105 137 -105z" />
    <glyph glyph-name="six.ss10" horiz-adv-x="1957" 
d="M49 -180v1818h1860v-1818h-1860zM315 59h1327v1340h-1327v-1340zM756 315q-158 111 -158 406q0 245 101 370q102 126 294 126q147 0 241 -71q93 -70 114 -200h-232q-24 86 -125 86q-77 0 -115 -48q-39 -49 -49 -167q78 72 205 72q152 0 242 -92q86 -92 86 -222
q0 -151 -103 -240t-268 -89q-143 0 -233 69zM989 705q-61 0 -99 -38t-38 -96q0 -57 38 -95t99 -38q85 -6 122 64q36 70 0 139q-37 70 -122 64z" />
    <glyph glyph-name="seven.ss10" horiz-adv-x="1957" 
d="M49 -180v1818h1860v-1818h-1860zM315 59h1327v1340h-1327v-1340zM1047 264h-265q2 209 80 399q77 187 209 328h-428v205h672v-199q-141 -147 -203 -307q-65 -164 -65 -426z" />
    <glyph glyph-name="eight.ss10" horiz-adv-x="1957" 
d="M49 -180v1818h1860v-1818h-1860zM315 59h1327v1340h-1327v-1340zM592 535q0 158 143 221q-104 67 -104 196q0 124 91 194q92 71 255 71q164 0 256 -71t92 -194q0 -129 -104 -196q145 -61 145 -221q0 -131 -105 -210q-104 -79 -284 -79q-179 0 -282 79t-103 210z
M1071 1012q-32 28 -93 28t-93 -28q-33 -27 -33 -78q0 -105 125 -105q127 0 127 105q0 51 -33 78zM977 436q147 0 147 117q0 121 -147 121q-68 0 -106 -32q-37 -31 -37 -89q0 -117 143 -117z" />
    <glyph glyph-name="nine.ss10" horiz-adv-x="1957" 
d="M49 -180v1818h1860v-1818h-1860zM315 59h1327v1340h-1327v-1340zM928 569q-155 0 -242 93q-88 89 -88 221q0 151 102 241t269 90q133 0 233 -73q160 -113 160 -404q0 -242 -101 -367q-102 -126 -292 -126q-150 0 -244 70q-95 71 -113 198h230q28 -84 129 -84q74 0 112 47
q36 45 47 166q-78 -72 -202 -72zM1069 983q-60 61 -153 27t-85 -121q0 -59 38 -97t100 -38q61 0 99 38t38 97q0 57 -37 94z" />
    <glyph glyph-name="zero.zero" horiz-adv-x="1386" 
d="M231 1294q158 197 463 197t463 -197q158 -202 158 -565q0 -364 -158 -563q-157 -199 -463 -199t-463 199q-159 196 -159 563q0 364 159 565zM694 1204q-133 0 -197 -113q-65 -115 -65 -362q0 -138 14 -207l422 600q-61 82 -174 82zM694 254q134 0 197 114t63 361
q0 120 -16 219l-424 -606q61 -88 180 -88z" />
    <glyph glyph-name="zero.dnom" horiz-adv-x="811" 
d="M678 94q-91 -112 -272 -112q-182 0 -273 112q-92 113 -92 328q0 217 92 330q91 112 273 112q181 0 272 -112q92 -113 92 -330q0 -215 -92 -328zM305 225q33 -57 101 -57q67 0 100 57q33 53 33 197q0 142 -33 199t-100 57q-68 0 -101 -57t-33 -199q0 -144 33 -197z" />
    <glyph glyph-name="one.dnom" horiz-adv-x="491" 
d="M264 846h176v-846h-221v547q-57 -6 -188 -6v153q92 1 149 34q55 31 84 118z" />
    <glyph glyph-name="two.dnom" horiz-adv-x="731" 
d="M449 309l-48 -22q-94 -45 -112 -101h409v-186h-669l4 84q15 245 256 356l65 31q121 55 121 121q0 86 -98 86q-111 0 -115 -123h-217q12 147 96 228t236 81q146 0 233 -71q88 -72 88 -185q0 -106 -58 -171q-60 -68 -191 -128z" />
    <glyph glyph-name="three.dnom" horiz-adv-x="751" 
d="M596 451q131 -56 131 -199q0 -124 -91 -197t-249 -73q-176 0 -267 85t-91 240h215q0 -76 32 -108q33 -33 105 -33q56 0 87 25q32 26 32 69q0 98 -125 98h-66v160h68q112 0 112 88q0 82 -104 82q-112 0 -119 -104h-215q12 280 336 280q147 0 233 -63q85 -63 85 -174
q0 -109 -109 -176z" />
    <glyph glyph-name="four.dnom" horiz-adv-x="788" 
d="M653 354h105v-180h-105v-174h-223v174h-385v211l381 461h227v-492zM434 354v260l-215 -260h215z" />
    <glyph glyph-name="five.dnom" horiz-adv-x="733" 
d="M410 567q141 0 219 -80q78 -79 78 -204q0 -134 -96 -218q-95 -83 -244 -83q-144 0 -235 73t-99 197h211q21 -94 123 -94q59 0 94 35t35 90q0 54 -35 91q-35 36 -94 36q-85 0 -115 -64h-209l84 500h541v-187h-369l-23 -122q55 30 134 30z" />
    <glyph glyph-name="six.dnom" horiz-adv-x="755" 
d="M430 567q137 0 218 -81t81 -203q0 -137 -93 -220q-91 -81 -245 -81q-129 0 -213 63q-141 102 -141 369q0 221 92 336q91 114 266 114q135 0 220 -63t102 -180h-209q-24 75 -115 75q-71 0 -106 -44q-36 -45 -43 -150q71 65 186 65zM391 158q59 0 92 33q35 35 35 88
q0 51 -36 87q-35 35 -91 35t-90 -35q-35 -37 -35 -87q0 -53 35 -88q33 -33 90 -33z" />
    <glyph glyph-name="seven.dnom" horiz-adv-x="673" 
d="M31 659v187h612v-180q-127 -128 -184 -279q-58 -151 -62 -387h-239q6 379 262 659h-389z" />
    <glyph glyph-name="eight.dnom" horiz-adv-x="772" 
d="M606 446q133 -55 133 -202q0 -119 -95 -191q-93 -71 -259 -71q-161 0 -256 71q-96 72 -96 191q0 147 133 202q-94 61 -94 179q0 110 83 175q82 64 230 64t231 -64q84 -64 84 -175q0 -118 -94 -179zM385 702q-54 0 -84 -24q-31 -25 -31 -70q0 -42 30 -68q31 -26 85 -26
q115 0 115 94t-115 94zM385 156q135 0 135 106q0 52 -36 80q-37 29 -99 29q-61 0 -96 -29t-35 -80q0 -106 131 -106z" />
    <glyph glyph-name="nine.dnom" horiz-adv-x="755" 
d="M575 799q144 -105 144 -367q0 -221 -92 -336q-91 -114 -265 -114q-136 0 -221 63t-102 180h209q24 -75 117 -75q68 0 103 44q34 44 42 150q-71 -65 -186 -65q-136 0 -216 80q-81 81 -81 204q0 137 93 219q92 82 242 82q120 0 213 -65zM272 479q33 -35 92 -35q58 0 91 35
q32 33 32 89q0 55 -32 87q-33 33 -90 33q-59 0 -93 -33t-34 -87q0 -55 34 -89z" />
    <glyph glyph-name="zero.numr" horiz-adv-x="811" 
d="M678 707q-92 -113 -272 -113q-181 0 -273 113t-92 327q0 215 92 330q92 113 273 113q180 0 272 -113q92 -115 92 -330q0 -214 -92 -327zM305 838q34 -58 101 -58q66 0 100 58q33 52 33 196q0 142 -33 199t-100 57q-68 0 -101 -57t-33 -199q0 -144 33 -196z" />
    <glyph glyph-name="one.numr" horiz-adv-x="491" 
d="M264 1458h176v-846h-223v541h-186v154q92 0 148 31t85 120z" />
    <glyph glyph-name="two.numr" horiz-adv-x="731" 
d="M449 922l-48 -23q-94 -45 -112 -100h409v-187h-669l4 84q15 246 256 357l65 30q121 55 121 121q0 86 -98 86q-111 0 -115 -123h-217q12 148 96 229t236 81q145 0 233 -72t88 -184q0 -106 -58 -171q-60 -68 -191 -128z" />
    <glyph glyph-name="three.numr" horiz-adv-x="751" 
d="M596 1063q131 -56 131 -199q0 -123 -91 -196q-92 -74 -249 -74q-176 0 -267 85t-91 241h215q0 -77 32 -109q33 -33 105 -33q55 0 87 26t32 68q0 99 -125 99h-66v159h68q112 0 112 89q0 81 -104 81q-112 0 -119 -104h-215q12 281 336 281q146 0 233 -64q85 -63 85 -174
q0 -109 -109 -176z" />
    <glyph glyph-name="four.numr" horiz-adv-x="788" 
d="M653 967h105v-181h-105v-174h-223v174h-385v211l381 461h227v-491zM434 967v260l-215 -260h215z" />
    <glyph glyph-name="five.numr" horiz-adv-x="733" 
d="M410 1180q141 0 219 -80t78 -205q0 -134 -96 -218q-95 -83 -244 -83q-139 0 -233 73q-93 72 -101 197h211q7 -42 42 -68t81 -26q59 0 94 35t35 90q0 54 -35 91q-35 36 -94 36q-85 0 -115 -64h-207l82 500h541v-186h-369l-23 -125q51 33 134 33z" />
    <glyph glyph-name="six.numr" horiz-adv-x="755" 
d="M430 1180q137 0 218 -81t81 -204q0 -137 -93 -219q-92 -82 -245 -82q-129 0 -213 63q-141 101 -141 369q0 221 92 336t266 115q133 0 220 -64q85 -63 102 -180h-209q-24 76 -115 76q-71 0 -106 -44q-36 -45 -43 -151q72 66 186 66zM391 770q58 0 92 34q35 35 35 87
q0 51 -36 87t-91 36t-90 -36q-35 -37 -35 -87q0 -52 35 -87q34 -34 90 -34z" />
    <glyph glyph-name="seven.numr" horiz-adv-x="673" 
d="M31 1272v186h612v-180q-127 -128 -184 -279q-58 -153 -62 -387h-239q6 380 262 660h-389z" />
    <glyph glyph-name="eight.numr" horiz-adv-x="772" 
d="M606 1059q133 -55 133 -203q0 -118 -95 -190q-94 -72 -259 -72q-160 0 -256 72t-96 190q0 148 133 203q-94 61 -94 178q0 110 83 175t230 65q146 0 231 -65q84 -64 84 -175q0 -117 -94 -178zM385 1315q-53 0 -84 -25t-31 -69q0 -43 30 -69q31 -26 85 -26q115 0 115 95
q0 94 -115 94zM385 768q135 0 135 106q0 52 -36 80q-37 29 -99 29q-61 0 -96 -29t-35 -80q0 -106 131 -106z" />
    <glyph glyph-name="nine.numr" horiz-adv-x="755" 
d="M575 1411q144 -105 144 -367q0 -220 -92 -335t-265 -115q-136 0 -221 63t-102 181h209q24 -76 117 -76q68 0 103 44q34 44 42 150q-71 -65 -186 -65q-135 0 -216 81t-81 204q0 136 93 219q92 82 242 82q118 0 213 -66zM272 1092q33 -35 92 -35q58 0 91 35q32 33 32 88
t-32 88q-33 35 -90 35q-58 0 -93 -35q-34 -34 -34 -88t34 -88z" />
    <glyph glyph-name="zero.tf" horiz-adv-x="1386" 
d="M1157 166q-157 -199 -463 -199t-463 199q-159 196 -159 563q0 364 159 565q158 197 463 197t463 -197q158 -202 158 -565q0 -364 -158 -563zM498 367q63 -113 196 -113q134 0 197 113q63 108 63 362q0 249 -64 362t-196 113q-133 0 -197 -113q-65 -115 -65 -362
q0 -249 66 -362z" />
    <glyph glyph-name="one.tf" horiz-adv-x="1386" 
d="M926 1458v-1179h317v-279h-1034v279h371v632h-340v236l32 2q163 11 254 81q93 71 127 228h273z" />
    <glyph glyph-name="two.tf" horiz-adv-x="1386" 
d="M514 287h743v-287h-1132l6 129q12 182 82 324q85 177 352 278l115 51q121 49 171 104t50 136q0 88 -54 135q-55 47 -155 47q-221 0 -221 -233h-330q-2 247 142 383q145 137 419 137q256 0 400 -123q145 -123 145 -313q0 -187 -102 -301q-101 -113 -322 -213l-129 -60
q-92 -44 -132 -85q-41 -42 -48 -109z" />
    <glyph glyph-name="three.tf" horiz-adv-x="1386" 
d="M1042 778q123 -44 191 -136q70 -94 70 -218q0 -202 -158 -330q-157 -127 -432 -127q-304 0 -464 142q-159 141 -159 401h332q2 -135 70 -196q68 -60 208 -60q116 0 183 50q65 49 65 136q0 197 -260 197h-110v244h114q238 0 238 174q0 76 -60 121t-168 45
q-230 0 -241 -201h-330q12 471 576 471q252 0 402 -109q148 -108 148 -295q0 -102 -57 -183t-158 -126z" />
    <glyph glyph-name="four.tf" horiz-adv-x="1386" 
d="M1118 602h185v-285h-185v-317h-348v317h-678v326l643 815h383v-856zM782 602v512l-401 -512h401z" />
    <glyph glyph-name="five.tf" horiz-adv-x="1386" 
d="M766 963q246 0 375 -140q129 -141 129 -340q0 -237 -160 -374q-165 -142 -412 -142q-232 0 -389 123t-178 334h328q17 -86 80 -137t159 -51q112 0 179 68t67 179q0 112 -67 180t-179 68q-162 0 -225 -129h-319l143 856h905v-287h-639l-55 -297q107 89 258 89z" />
    <glyph glyph-name="six.tf" horiz-adv-x="1386" 
d="M432 801q123 162 359 162q234 0 364 -142q129 -141 129 -338q0 -237 -158 -377q-161 -139 -409 -139q-217 0 -361 105q-241 174 -241 626q0 386 155 589q156 204 451 204q223 0 368 -109t175 -305h-316q-33 162 -225 162q-143 0 -211 -101q-70 -103 -80 -337zM541 303
q66 -67 176 -67t176 67q65 68 65 172t-65 172q-63 68 -176 68q-110 0 -176 -68q-68 -68 -68 -172t68 -172z" />
    <glyph glyph-name="seven.tf" horiz-adv-x="1386" 
d="M152 1171v287h1083v-278q-252 -236 -365 -502q-116 -272 -118 -678h-357q1 335 140 647q134 306 358 524h-741z" />
    <glyph glyph-name="eight.tf" horiz-adv-x="1386" 
d="M1040 768q242 -92 242 -354q0 -200 -160 -324q-164 -123 -438 -123q-279 0 -438 123q-162 123 -162 324q0 262 242 354q-181 107 -181 315q0 189 147 298q148 110 392 110q245 0 391 -110t146 -298q0 -208 -181 -315zM684 1245q-109 0 -170 -49t-61 -137q0 -86 61 -135
q62 -50 170 -50t169 50q60 50 60 135q0 88 -61 137t-168 49zM492 289q64 -58 192 -58q129 0 193 58q65 55 65 153q0 101 -66 155t-192 54q-124 0 -192 -54t-68 -155q0 -97 68 -153z" />
    </font>
</defs>
</svg>
