<?xml version="1.0" standalone="no"?>
<!DOCTYPE svg PUBLIC "-//W3C//DTD SVG 1.1//EN" "http://www.w3.org/Graphics/SVG/1.1/DTD/svg11.dtd" >
<svg xmlns="http://www.w3.org/2000/svg" xmlns:xlink="http://www.w3.org/1999/xlink" version="1.1">
<metadata>
Created by FontForge 20170731 at Sat Jul 31 16:37:46 2021
 By Aleksey,,,
Copyright (c) 2019 Monotype Imaging Inc. All rights reserved.
</metadata>
<defs>
<font id="HelveticaNowDisplay-BoldIta" horiz-adv-x="0" >
  <font-face 
    font-family="HelveticaNowDisplay Bold"
    font-weight="700"
    font-style="italic"
    font-stretch="normal"
    units-per-em="2048"
    panose-1="2 11 9 4 3 2 2 9 2 4"
    ascent="1792"
    descent="-256"
    x-height="1057"
    cap-height="1458"
    bbox="-858 -684 2585 2134"
    underline-thickness="102"
    underline-position="-614"
    slope="-12"
    unicode-range="U+000D-FEFF"
  />
<missing-glyph horiz-adv-x="1333" 
d="M1212 0h-1093v1458h1093v-1458zM369 1237v-1016h594v1016h-594z" />
    <glyph glyph-name="fi" unicode="fi" horiz-adv-x="1169" 
d="M776 1057l-43 -197h-215l-184 -860h-256l182 860h-164l43 197h162l21 98q33 159 130 235t273 76q36 0 141 -6l-43 -198h-96q-123 0 -152 -134l-14 -71h215zM952 1194l49 242h254l-51 -242h-252zM952 0h-258l226 1057h258z" />
    <glyph glyph-name="fl" unicode="fl" horiz-adv-x="1157" 
d="M776 1057l-43 -197h-215l-184 -860h-256l182 860h-164l43 197h162l21 98q33 159 130 235t273 76q36 0 141 -6l-43 -198h-96q-123 0 -152 -134l-14 -71h215zM682 0l309 1458h258l-311 -1458h-256z" />
    <glyph glyph-name=".notdef" horiz-adv-x="1333" 
d="M1212 0h-1093v1458h1093v-1458zM369 1237v-1016h594v1016h-594z" />
    <glyph glyph-name=".null" 
 />
    <glyph glyph-name="nonmarkingreturn" horiz-adv-x="681" 
 />
    <glyph glyph-name="NULL" 
 />
    <glyph glyph-name="NULL" 
 />
    <glyph glyph-name="CR" unicode="&#xd;" horiz-adv-x="442" 
 />
    <glyph glyph-name="space" unicode=" " horiz-adv-x="442" 
 />
    <glyph glyph-name="exclam" unicode="!" horiz-adv-x="456" 
d="M276 444h-145l72 639l80 375h276l-80 -375zM268 0h-299l62 293h301z" />
    <glyph glyph-name="quotedbl" unicode="&#x22;" horiz-adv-x="954" 
d="M416 838h-193l92 620h277zM854 838h-192l92 620h276z" />
    <glyph glyph-name="numbersign" unicode="#" horiz-adv-x="1390" 
d="M1454 1077l-88 -211h-192l-113 -274h192l-88 -211h-192l-160 -381h-238l160 381h-284l-160 -381h-238l160 381h-193l89 211h192l113 274h-191l88 211h191l160 381h237l-160 -381h285l160 381h237l-159 -381h192zM539 592h284l113 274h-285z" />
    <glyph glyph-name="dollar" unicode="$" horiz-adv-x="1304" 
d="M1319 1024h-268q33 198 -162 236l-88 -410l41 -8q467 -92 383 -477q-39 -184 -200 -289q-160 -104 -411 -109l-43 -205h-147l45 211q-244 28 -359 161q-114 132 -75 347h272q-37 -246 209 -284l90 430l-35 6q-210 43 -309 163q-99 119 -61 310q37 174 194 278
q158 105 396 107l43 205h147l-45 -213q225 -28 320 -148q96 -120 63 -311zM483 1094q-18 -84 23 -132q40 -47 156 -81l81 385q-233 -12 -260 -172zM938 371q21 93 -23 143q-43 49 -167 82l-86 -403q115 6 188 53q71 46 88 125z" />
    <glyph glyph-name="percent" unicode="%" horiz-adv-x="1845" 
d="M442 596q-182 0 -258 123q-76 122 -26 356q85 402 409 402q179 0 256 -122q77 -121 27 -351q-86 -408 -408 -408zM520 0h-194l1089 1458h195zM459 752q79 0 125 63q48 65 78 201q63 303 -111 303q-77 0 -127 -64q-49 -63 -78 -200q-63 -303 113 -303zM1362 -16
q-183 0 -257 122q-75 124 -26 357q85 401 408 401q180 0 257 -122q77 -123 28 -351q-85 -407 -410 -407zM1378 139q78 0 125 64q48 66 78 200q63 304 -111 304q-77 0 -125 -63q-49 -64 -77 -202q-68 -303 110 -303z" />
    <glyph glyph-name="ampersand" unicode="&#x26;" horiz-adv-x="1419" 
d="M1063 717h246q-67 -257 -201 -432l195 -285h-318l-68 100q-194 -133 -434 -133q-231 0 -364 133q-131 131 -88 336q51 229 401 385q-115 194 -82 373q27 131 143 214t300 83q182 0 290 -102q107 -102 72 -273q-40 -200 -377 -352l193 -283q58 104 92 236zM604 1155
q-21 -103 72 -244q216 101 237 209q17 72 -26 118t-117 46q-66 0 -110 -36q-44 -37 -56 -93zM530 188q151 0 269 88l-262 388q-111 -56 -165 -108q-54 -53 -71 -122q-23 -102 43 -174t186 -72z" />
    <glyph glyph-name="quotesingle" unicode="'" horiz-adv-x="516" 
d="M416 838h-193l92 620h277z" />
    <glyph glyph-name="parenleft" unicode="(" horiz-adv-x="593" 
d="M406 -401h-236q-164 450 -37 1054q111 525 457 955h241q-321 -438 -438 -992q-61 -307 -55 -542q1 -230 68 -475z" />
    <glyph glyph-name="parenright" unicode=")" horiz-adv-x="593" 
d="M14 -401h-243q321 432 438 989q115 537 -12 1020h237q162 -448 35 -1055q-110 -522 -455 -954z" />
    <glyph glyph-name="asterisk" unicode="*" horiz-adv-x="950" 
d="M827 690l-157 -78l-121 269l-223 -195l-111 135l225 203l-260 147l90 150l252 -145l60 290l172 -34l-62 -291l289 28l23 -172l-302 -30z" />
    <glyph glyph-name="plus" unicode="+" horiz-adv-x="1081" 
d="M702 840h353v-222h-353v-352h-239v352h-352v222h352v354h239v-354z" />
    <glyph glyph-name="comma" unicode="," horiz-adv-x="456" 
d="M-31 0l62 293h299l-64 -307q-38 -165 -120 -234q-83 -70 -244 -74l30 148q75 4 110 35q33 29 50 110l6 29h-129z" />
    <glyph glyph-name="hyphen" unicode="-" horiz-adv-x="745" 
d="M662 465h-609l47 221h609z" />
    <glyph glyph-name="period" unicode="." horiz-adv-x="456" 
d="M266 0h-301l64 293h299z" />
    <glyph glyph-name="slash" unicode="/" horiz-adv-x="796" 
d="M154 0h-254l829 1458h254z" />
    <glyph glyph-name="zero" unicode="0" horiz-adv-x="1337" 
d="M582 -33q-302 0 -417 205q-116 206 -32 596q73 346 255 535q181 188 454 188q295 0 414 -206t36 -587q-77 -353 -257 -541q-182 -190 -453 -190zM604 201q292 0 397 504q57 298 14 424q-44 128 -198 128q-287 0 -395 -501q-59 -294 -15 -426q43 -129 197 -129z" />
    <glyph glyph-name="one" unicode="1" horiz-adv-x="804" 
d="M621 1458h219l-312 -1458h-276l211 983h-338l41 195l33 2q166 11 262 72q99 63 160 206z" />
    <glyph glyph-name="two" unicode="2" horiz-adv-x="1208" 
d="M774 1491q246 0 369 -131q121 -133 76 -348q-30 -142 -146 -252q-114 -108 -328 -203l-157 -74q-118 -56 -175 -110q-59 -56 -83 -140h737l-49 -233h-1061l29 109q50 182 137 309q110 154 371 266l157 74q140 63 206 123q68 62 85 141q22 112 -29 174q-51 61 -170 61
q-248 0 -299 -266h-268q51 257 198 378q148 122 400 122z" />
    <glyph glyph-name="three" unicode="3" horiz-adv-x="1257" 
d="M1243 1049q-18 -93 -90 -166q-74 -75 -184 -115q240 -108 174 -401q-43 -189 -191 -294q-148 -106 -393 -106q-274 0 -408 137q-135 138 -102 379h270q-29 -282 261 -282q241 0 284 205q27 122 -34 190q-60 68 -191 68h-109l45 202h107q124 0 200 48t93 135
q23 102 -34 159q-58 58 -173 58q-239 0 -301 -232h-268q47 220 198 339q151 118 396 118q231 0 362 -119q133 -121 88 -323z" />
    <glyph glyph-name="four" unicode="4" horiz-adv-x="1288" 
d="M1022 569h195l-50 -233h-194l-72 -336h-274l71 336h-710l57 262l864 860h303zM874 1141l-569 -572h447z" />
    <glyph glyph-name="five" unicode="5" horiz-adv-x="1236" 
d="M1278 1458l-49 -233h-627l-131 -342q100 75 252 75q241 0 352 -151q109 -154 58 -389q-44 -207 -194 -329q-151 -122 -382 -122q-232 0 -371 121q-141 121 -129 328h267q-2 -110 63 -167q67 -59 184 -59q116 0 198 70q81 69 105 189q30 141 -33 223q-64 84 -196 84
q-186 0 -266 -148h-260l315 850h844z" />
    <glyph glyph-name="six" unicode="6" horiz-adv-x="1275" 
d="M807 1278q-299 0 -420 -485q135 165 375 165q230 0 344 -151q114 -156 63 -387q-45 -211 -197 -331q-154 -122 -384 -122q-247 0 -381 154q-162 185 -80 651q77 345 256 532q180 187 453 187q208 0 328 -108q119 -108 118 -298h-256q-12 193 -219 193zM680 748
q-114 0 -200 -69q-85 -69 -109 -175q-30 -145 35 -229q66 -85 198 -85q116 0 199 71q82 70 106 188q27 133 -39 216t-190 83z" />
    <glyph glyph-name="seven" unicode="7" horiz-adv-x="1062" 
d="M184 1225l49 233h998l-47 -221q-302 -262 -475 -549q-179 -297 -267 -688h-286q80 354 267 669q186 313 464 556h-703z" />
    <glyph glyph-name="eight" unicode="8" horiz-adv-x="1251" 
d="M1247 1049q-47 -198 -268 -287q242 -113 182 -400q-39 -182 -194 -288q-157 -107 -408 -107q-281 0 -424 139q-143 136 -92 373q49 235 330 309q-176 125 -131 355q34 168 176 258q141 90 368 90q240 0 373 -121q131 -119 88 -321zM993 1049q23 108 -39 171
q-61 62 -186 62q-116 0 -189 -47q-74 -48 -92 -133q-24 -108 42 -173q67 -65 188 -65q111 0 184 49q74 50 92 136zM895 406q27 126 -43 197q-69 71 -215 71q-131 0 -217 -56t-107 -157q-27 -127 46 -200t221 -73q132 0 214 59q80 58 101 159z" />
    <glyph glyph-name="nine" unicode="9" horiz-adv-x="1275" 
d="M1141 1339q164 -187 82 -651q-77 -344 -256 -531q-180 -188 -453 -188q-209 0 -329 108q-119 107 -117 298h256q15 -193 219 -193q298 0 420 484q-140 -164 -375 -164q-230 0 -344 151q-115 154 -64 387q45 210 198 331q154 122 386 122q246 0 377 -154zM672 713
q115 0 198 68q85 70 109 175q30 142 -36 228t-198 86q-115 0 -198 -71t-107 -187q-27 -133 40 -216q66 -83 192 -83z" />
    <glyph glyph-name="colon" unicode=":" horiz-adv-x="456" 
d="M414 713h-299l63 293h299zM266 0h-301l64 293h299z" />
    <glyph glyph-name="semicolon" unicode=";" horiz-adv-x="456" 
d="M119 711l63 293h299l-63 -293h-299zM98 0h-129l62 293h299l-66 -316q-62 -292 -327 -299h-35l30 148l35 2q96 6 123 137z" />
    <glyph glyph-name="less" unicode="&#x3c;" horiz-adv-x="1081" 
d="M1055 1239v-258l-189 -76q-219 -78 -504 -174q200 -68 504 -176l189 -76v-258l-946 381v256z" />
    <glyph glyph-name="equal" unicode="=" horiz-adv-x="1081" 
d="M1014 815h-946v211h946v-211zM1014 432h-946v211h946v-211z" />
    <glyph glyph-name="greater" unicode="&#x3e;" horiz-adv-x="1081" 
d="M152 981v258l944 -381v-256l-944 -381v258l186 76q304 108 504 176q-285 96 -504 174z" />
    <glyph glyph-name="question" unicode="?" horiz-adv-x="1087" 
d="M637 444h-248q33 172 98 254q71 96 203 174q97 61 140 105q46 47 57 100q41 193 -180 193q-123 0 -194 -62t-105 -200h-261q49 248 194 366q144 117 394 117q226 0 352 -109q123 -108 76 -309q-34 -163 -250 -305q-171 -113 -213 -166q-35 -42 -63 -158zM575 0h-299
l62 293h301z" />
    <glyph glyph-name="at" unicode="@" horiz-adv-x="1890" 
d="M1120 1491q193 0 345 -59q155 -60 255 -171q101 -112 139 -273q37 -160 -6 -363q-40 -195 -161 -328q-123 -133 -297 -133q-215 0 -260 172q-117 -168 -310 -168q-163 0 -252 131q-88 128 -38 367q41 190 162 303q121 112 284 112q154 0 231 -116l21 92h233l-114 -537
q-35 -158 71 -158q80 0 145 83q64 81 91 206q66 300 -86 479q-153 179 -479 179q-306 0 -525 -181q-219 -183 -280 -464q-72 -347 96 -539q167 -197 481 -197q218 0 414 74l-37 -186q-181 -64 -409 -64q-409 0 -621 254q-211 253 -121 682q74 343 354 574q278 229 674 229z
M895 356q197 0 250 265q27 131 -10 201q-38 71 -134 71q-89 0 -152 -68q-63 -67 -87 -186q-29 -135 6 -209t127 -74z" />
    <glyph glyph-name="A" unicode="A" horiz-adv-x="1470" 
d="M1341 0h-284l-47 322h-637l-183 -322h-292l862 1458h323zM596 715l-90 -158h467l-23 158q-31 188 -73 497q-104 -193 -281 -497z" />
    <glyph glyph-name="B" unicode="B" horiz-adv-x="1349" 
d="M1360 1042q-43 -200 -260 -282q108 -51 156 -156q46 -101 22 -227q-39 -183 -182 -280t-385 -97h-703l309 1458h613q240 0 355 -115q114 -114 75 -301zM893 1231h-348l-80 -379h356q111 0 179 49t85 135q21 92 -29 144q-50 51 -163 51zM1004 418q24 105 -34 160t-177 55
h-373l-86 -404h407q107 0 177 51q68 50 86 138z" />
    <glyph glyph-name="C" unicode="C" horiz-adv-x="1484" 
d="M668 -33q-333 0 -486 215q-153 214 -71 600q63 315 295 512q230 197 536 197q256 0 414 -137q157 -139 157 -398h-278q-11 147 -94 220t-223 73q-189 0 -332 -133q-145 -136 -191 -360q-55 -261 25 -405q79 -142 276 -142q157 0 282 89q122 87 183 251h277
q-85 -280 -289 -431t-481 -151z" />
    <glyph glyph-name="D" unicode="D" horiz-adv-x="1466" 
d="M317 1458h535q344 0 502 -219t84 -569q-144 -670 -852 -670h-578zM1159 707q49 239 -41 376q-91 138 -299 138h-276l-207 -983h276q448 0 547 469z" />
    <glyph glyph-name="E" unicode="E" horiz-adv-x="1245" 
d="M1393 1458l-54 -248h-798l-74 -344h723l-49 -237h-723l-82 -381h792l-51 -248h-1071l311 1458h1076z" />
    <glyph glyph-name="F" unicode="F" horiz-adv-x="1179" 
d="M1348 1458l-54 -248h-753l-74 -344h688l-51 -237h-686l-135 -629h-277l311 1458h1031z" />
    <glyph glyph-name="G" unicode="G" horiz-adv-x="1566" 
d="M911 1249q-193 0 -330 -133q-139 -135 -188 -360q-56 -254 36 -401q91 -146 294 -146q171 0 303 98q132 96 178 256h-381l49 223h652l-168 -786h-203l2 180q-191 -213 -479 -213q-331 0 -490 219q-159 220 -77 594q67 317 288 514t545 197q279 0 442 -139
q162 -141 156 -379h-283q-7 126 -100 202q-90 74 -246 74z" />
    <glyph glyph-name="H" unicode="H" horiz-adv-x="1468" 
d="M1147 872l125 586h276l-311 -1458h-276l133 623h-678l-133 -623h-277l311 1458h277l-125 -586h678z" />
    <glyph glyph-name="I" unicode="I" horiz-adv-x="516" 
d="M283 0h-277l311 1458h277z" />
    <glyph glyph-name="J" unicode="J" horiz-adv-x="1124" 
d="M463 -31q-241 0 -354 134t-60 366l10 51h267l-15 -67q-24 -122 23 -186q46 -62 155 -62q201 0 250 231l215 1022h277l-219 -1032q-45 -220 -186 -339q-140 -118 -363 -118z" />
    <glyph glyph-name="K" unicode="K" horiz-adv-x="1433" 
d="M1266 1458h354l-725 -604l416 -854h-310l-329 682l-291 -229l-96 -453h-277l309 1458h277l-145 -682z" />
    <glyph glyph-name="L" unicode="L" horiz-adv-x="1122" 
d="M594 1458l-258 -1210h694l-53 -248h-971l311 1458h277z" />
    <glyph glyph-name="M" unicode="M" horiz-adv-x="1792" 
d="M1073 764l391 694h406l-309 -1458h-263l95 444q77 359 163 723q-44 -85 -182 -336l-471 -831h-225l-121 831q-21 152 -39 338q-86 -456 -145 -725l-94 -444h-271l309 1458h400l102 -708q13 -102 43 -388q28 59 211 402z" />
    <glyph glyph-name="N" unicode="N" horiz-adv-x="1470" 
d="M1178 1077l82 381h266l-312 -1458h-301l-268 649q-104 257 -170 455q-61 -338 -143 -723l-82 -381h-266l311 1458h299l270 -649q124 -305 170 -457q63 345 144 725z" />
    <glyph glyph-name="O" unicode="O" horiz-adv-x="1572" 
d="M698 -33q-332 0 -499 219q-166 217 -88 594q66 315 299 510q237 201 553 201q331 0 499 -217q166 -217 88 -586q-68 -321 -301 -518q-238 -203 -551 -203zM723 211q197 0 348 137q150 136 195 365q53 248 -38 391t-296 143q-196 0 -342 -135q-148 -137 -199 -367
q-55 -247 35 -391q89 -143 297 -143z" />
    <glyph glyph-name="P" unicode="P" horiz-adv-x="1333" 
d="M317 1458h592q261 0 386 -138q124 -138 73 -382q-40 -188 -197 -307q-157 -121 -393 -121h-385l-108 -510h-277zM1094 967q27 122 -30 188t-185 66h-336l-101 -473h353q120 0 198 57q79 57 101 162z" />
    <glyph glyph-name="Q" unicode="Q" horiz-adv-x="1572" 
d="M1550 688q-63 -306 -286 -506l145 -188l-174 -123l-145 190q-182 -94 -392 -94q-332 0 -499 219q-166 217 -88 594q66 315 299 510q237 201 553 201q331 0 499 -217q166 -217 88 -586zM1266 713q53 248 -38 391t-296 143q-196 0 -342 -135q-148 -137 -199 -367
q-55 -247 35 -391q89 -143 297 -143q109 0 215 47l-145 191l174 122l141 -184q118 130 158 326z" />
    <glyph glyph-name="R" unicode="R" horiz-adv-x="1361" 
d="M317 1458h613q260 0 387 -121t82 -329q-24 -115 -111 -201q-86 -85 -225 -119q112 -30 151 -108t15 -215l-29 -187q-21 -110 8 -178h-284q-22 60 0 182l28 170q23 120 -22 169q-45 50 -164 50h-360l-121 -571h-277zM1112 993q24 119 -34 178q-59 60 -185 60h-348
l-92 -443h360q119 0 199 56q79 55 100 149z" />
    <glyph glyph-name="S" unicode="S" horiz-adv-x="1304" 
d="M594 -33q-309 0 -455 136q-147 137 -104 378h272q-22 -152 58 -222q79 -69 258 -69q131 0 215 49q82 48 100 132q22 102 -32 153q-55 52 -218 86l-117 23q-210 43 -309 163q-99 119 -61 310q38 176 195 280q159 105 401 105q299 0 429 -123q131 -123 93 -344h-268
q21 120 -43 182t-228 62q-267 0 -297 -174q-21 -92 34 -144q54 -51 204 -84l121 -24q467 -92 383 -477q-39 -187 -206 -293q-167 -105 -425 -105z" />
    <glyph glyph-name="T" unicode="T" horiz-adv-x="1277" 
d="M231 1458h1213l-53 -248h-465l-260 -1210h-279l258 1210h-467z" />
    <glyph glyph-name="U" unicode="U" horiz-adv-x="1417" 
d="M633 -31q-298 0 -443 172q-143 167 -71 500l178 817h276l-182 -858q-43 -193 28 -293q70 -98 238 -98q325 0 394 346l188 903h277l-199 -948q-56 -267 -230 -404q-175 -137 -454 -137z" />
    <glyph glyph-name="V" unicode="V" horiz-adv-x="1404" 
d="M905 705l389 753h297l-786 -1458h-324l-270 1458h285l131 -753q37 -255 55 -453q105 229 223 453z" />
    <glyph glyph-name="W" unicode="W" horiz-adv-x="2002" 
d="M1614 870l276 588h293l-715 -1458h-309l-29 606q-7 340 -6 518q-104 -239 -229 -518l-287 -606h-309l-94 1458h282l29 -588q12 -292 12 -561q102 245 246 563l273 586h284l27 -586q6 -273 6 -557q86 207 250 555z" />
    <glyph glyph-name="X" unicode="X" horiz-adv-x="1370" 
d="M1210 1458h320l-631 -708l350 -750h-309l-109 236q-111 245 -133 296q-79 -93 -258 -296l-213 -236h-321l669 743l-331 715h309l100 -217q85 -187 123 -280l242 280z" />
    <glyph glyph-name="Y" unicode="Y" horiz-adv-x="1398" 
d="M1055 1196l213 262h317l-735 -883l-121 -575h-276l120 575l-362 883h301l106 -264q67 -171 140 -373q254 319 297 375z" />
    <glyph glyph-name="Z" unicode="Z" horiz-adv-x="1284" 
d="M1417 1458l-47 -223l-696 -680q-250 -239 -328 -311q331 4 416 4h409l-53 -248h-1179l47 225l694 678q73 73 328 311q-331 -4 -418 -4h-363l52 248h1138z" />
    <glyph glyph-name="bracketleft" unicode="[" horiz-adv-x="708" 
d="M469 -401h-557l428 2009h557l-47 -217h-309l-334 -1575h309z" />
    <glyph glyph-name="backslash" unicode="\" horiz-adv-x="796" 
d="M668 0h-242l-211 1458h242z" />
    <glyph glyph-name="bracketright" unicode="]" horiz-adv-x="708" 
d="M397 -401h-555l45 217h310l335 1575h-309l45 217h557z" />
    <glyph glyph-name="asciicircum" unicode="^" horiz-adv-x="882" 
d="M356 1458h250l312 -600h-238l-154 309q-13 29 -43 97l-45 -97l-153 -309h-238z" />
    <glyph glyph-name="underscore" unicode="_" horiz-adv-x="946" 
d="M762 -348h-948l41 196h950z" />
    <glyph glyph-name="grave" unicode="`" horiz-adv-x="819" 
d="M668 1194h-201l-139 295h282z" />
    <glyph glyph-name="a" unicode="a" horiz-adv-x="1103" 
d="M662 1081q244 0 338 -94q95 -95 55 -291l-107 -495q-30 -139 0 -201h-258q-15 32 -4 117q-134 -142 -348 -142q-181 0 -272 93q-90 92 -56 254q27 133 135 205q110 73 326 94l170 16q78 7 122 33q40 23 52 78q12 72 -28 106q-41 35 -142 35q-115 0 -170 -36
q-56 -36 -80 -132h-254q44 180 169 270q126 90 352 90zM416 160q115 0 205 65q91 66 120 185l25 106q-51 -34 -143 -45l-131 -14q-198 -23 -222 -146q-16 -70 22 -111q37 -40 124 -40z" />
    <glyph glyph-name="b" unicode="b" horiz-adv-x="1202" 
d="M760 1081q224 0 330 -161q105 -162 49 -431q-51 -228 -199 -370q-146 -144 -360 -144q-225 0 -310 166l-30 -141h-248l311 1458h258l-104 -493q123 116 303 116zM881 520q37 168 -18 259q-54 89 -185 89q-265 0 -338 -331q-40 -170 17 -261q57 -92 194 -92q123 0 210 89
q87 88 120 247z" />
    <glyph glyph-name="c" unicode="c" horiz-adv-x="1112" 
d="M494 -25q-246 0 -365 162q-123 162 -61 449q46 218 204 358q157 137 396 137q209 0 324 -109q116 -110 106 -296h-264q-1 91 -55 141q-52 49 -144 49q-119 0 -200 -82q-80 -81 -113 -241q-35 -173 19 -262q55 -91 175 -91q202 0 270 203h258q-56 -202 -197 -309
q-144 -109 -353 -109z" />
    <glyph glyph-name="d" unicode="d" horiz-adv-x="1220" 
d="M924 928l114 530h256l-311 -1458h-248l23 102q-139 -127 -316 -127q-222 0 -327 162q-107 163 -52 430q51 228 199 373q147 141 361 141q213 0 301 -153zM524 188q264 0 338 332q39 170 -17 260q-57 92 -194 92q-123 0 -210 -89q-86 -87 -119 -246q-38 -170 17 -259
q55 -90 185 -90z" />
    <glyph glyph-name="e" unicode="e" horiz-adv-x="1161" 
d="M668 1081q250 0 368 -159q120 -159 60 -412l-19 -61h-786q-12 -136 47 -204q60 -69 176 -69q188 0 268 152h250q-137 -353 -540 -353q-246 0 -365 160q-124 157 -64 434q49 233 213 373q163 139 392 139zM645 881q-108 0 -191 -65t-126 -187h534q10 116 -47 184t-170 68z
" />
    <glyph glyph-name="f" unicode="f" horiz-adv-x="714" 
d="M823 1262h-96q-123 0 -152 -134l-14 -71h215l-43 -197h-215l-184 -860h-256l182 860h-164l43 197h162l21 98q33 159 130 235t273 76q36 0 141 -6z" />
    <glyph glyph-name="g" unicode="g" horiz-adv-x="1204" 
d="M934 913l31 144h249l-219 -1024q-50 -237 -185 -347q-138 -112 -390 -112q-228 0 -341 97q-114 98 -102 272h261q0 -170 204 -170q242 0 299 278l15 70q-123 -117 -297 -117q-230 0 -338 164q-108 166 -51 426q51 230 197 358q147 129 354 129q221 0 313 -168zM535 217
q123 0 209 79q88 80 122 224l6 35q27 152 -29 232q-57 81 -186 81q-127 0 -212 -82t-115 -229q-35 -159 20 -249q55 -91 185 -91z" />
    <glyph glyph-name="h" unicode="h" horiz-adv-x="1159" 
d="M795 1081q181 0 257 -115q76 -116 27 -339l-137 -627h-256l133 629q49 229 -145 229q-103 0 -181 -62q-80 -63 -110 -180l-131 -616h-258l309 1458h258l-112 -530q145 153 346 153z" />
    <glyph glyph-name="i" unicode="i" horiz-adv-x="466" 
d="M502 1194h-252l49 242h254zM250 0h-258l225 1057h258z" />
    <glyph glyph-name="j" unicode="j" horiz-adv-x="471" 
d="M502 1194h-252l49 242h254zM-94 -408q-57 0 -152 5l43 202h60q48 0 75 27q27 26 43 94l242 1137h258l-248 -1159q-66 -306 -321 -306z" />
    <glyph glyph-name="k" unicode="k" horiz-adv-x="1126" 
d="M899 1057h309l-481 -404l281 -653h-273l-203 504l-217 -174l-69 -330h-254l311 1458h254l-178 -833z" />
    <glyph glyph-name="l" unicode="l" horiz-adv-x="466" 
d="M250 0h-256l309 1458h258z" />
    <glyph glyph-name="m" unicode="m" horiz-adv-x="1783" 
d="M1411 1081q184 0 260 -113t31 -327l-135 -641h-258l137 643q45 215 -143 215q-96 0 -169 -71q-74 -72 -102 -205h-2l-123 -582h-256l135 637q45 221 -139 221q-95 0 -169 -68t-103 -198l-125 -592h-258l225 1057h250l-31 -139q139 163 318 163q243 0 295 -200
q157 200 362 200z" />
    <glyph glyph-name="n" unicode="n" horiz-adv-x="1159" 
d="M795 1081q178 0 254 -115q75 -113 28 -339l-135 -627h-258l133 629q49 229 -145 229q-104 0 -184 -64t-109 -186l-129 -608h-258l225 1057h250l-31 -144q147 168 359 168z" />
    <glyph glyph-name="o" unicode="o" horiz-adv-x="1189" 
d="M510 -25q-264 0 -384 161t-60 442q49 228 217 364q167 139 397 139q264 0 384 -159t60 -441q-49 -223 -217 -364q-171 -142 -397 -142zM528 188q124 0 216 87t122 239q38 168 -18 261t-184 93q-124 0 -215 -88q-92 -89 -125 -235q-35 -172 21 -263q58 -94 183 -94z" />
    <glyph glyph-name="p" unicode="p" horiz-adv-x="1204" 
d="M760 1081q224 0 330 -161q106 -162 49 -431q-49 -228 -197 -370q-150 -144 -362 -144q-210 0 -301 154l-113 -530h-258l311 1458h248l-21 -103q133 127 314 127zM881 520q37 168 -18 259q-54 89 -183 89q-267 0 -340 -331q-38 -171 19 -262t194 -91q123 0 209 89t119 247
z" />
    <glyph glyph-name="q" unicode="q" horiz-adv-x="1220" 
d="M932 915l31 142h247l-311 -1458h-256l105 495q-128 -119 -306 -119q-222 0 -327 162q-107 163 -52 430q51 228 199 373q147 141 361 141q224 0 309 -166zM524 188q264 0 338 332q39 170 -17 260q-57 92 -194 92q-123 0 -210 -89q-86 -87 -119 -246q-38 -170 17 -259
q55 -90 185 -90z" />
    <glyph glyph-name="r" unicode="r" horiz-adv-x="780" 
d="M786 1073q37 0 62 -4l-49 -238h-66q-298 0 -364 -274l-119 -557h-258l225 1057h250l-35 -162q135 178 354 178z" />
    <glyph glyph-name="s" unicode="s" horiz-adv-x="1021" 
d="M436 -29q-248 0 -357 88t-85 277h252q-8 -99 41 -139q50 -41 170 -41q193 0 217 114q15 66 -23 101q-37 34 -143 55l-115 18q-342 60 -276 355q29 136 152 209q124 73 327 73q225 0 326 -92q100 -91 79 -266h-243q15 93 -31 134q-44 40 -154 40q-188 0 -211 -115
q-12 -59 24 -93q35 -33 128 -50l125 -18q182 -33 253 -120q70 -87 40 -239q-62 -291 -496 -291z" />
    <glyph glyph-name="t" unicode="t" horiz-adv-x="702" 
d="M727 860h-209l-115 -536q-27 -125 95 -125h88l-43 -199q-69 -6 -119 -6q-170 0 -242 83q-72 82 -37 245l115 538h-164l43 197h162l66 307h258l-66 -307h209z" />
    <glyph glyph-name="u" unicode="u" horiz-adv-x="1159" 
d="M784 465l125 592h258l-225 -1057h-250l31 143q-147 -168 -358 -168q-177 0 -254 116q-76 114 -29 339l135 627h258l-133 -629q-49 -229 145 -229q110 0 190 68q81 69 105 198h2z" />
    <glyph glyph-name="v" unicode="v" horiz-adv-x="1093" 
d="M762 774l164 283h274l-616 -1057h-299l-166 1057h270l43 -314q36 -358 49 -512q85 173 281 543z" />
    <glyph glyph-name="w" unicode="w" horiz-adv-x="1691" 
d="M1303 662l204 395h283l-571 -1057h-273l-39 434q-16 157 -24 322q-74 -162 -154 -322l-225 -434h-271l-122 1057h268l35 -395q0 -12 18 -252q2 -62 6 -117q157 326 180 371l201 393h246l33 -393q6 -96 22 -377q50 111 183 375z" />
    <glyph glyph-name="x" unicode="x" horiz-adv-x="1085" 
d="M874 1057h300l-484 -514l279 -543h-283l-29 55q-4 8 -19.5 41t-51.5 110t-70 148q-20 -22 -141 -156q-25 -27 -58.5 -64t-42.5 -47q-8 -9 -15 -16.5t-10 -11.5l-3 -4l-49 -55h-303l509 541l-264 516h287l39 -78q18 -36 115 -250q52 56 110 123q76 88 103 115z" />
    <glyph glyph-name="y" unicode="y" horiz-adv-x="1069" 
d="M762 791l145 266h273l-650 -1143q-102 -182 -213 -250q-110 -67 -309 -67q-62 0 -112 6l43 202h100q82 0 135 47q55 49 72 117q19 82 -2 230l-123 858h274l29 -264q44 -583 45 -590q100 212 293 588z" />
    <glyph glyph-name="z" unicode="z" horiz-adv-x="1021" 
d="M1053 1057l-37 -170l-527 -527q-20 -20 -83 -80t-84 -81q66 2 219 2h352l-43 -201h-897l37 170l524 526q21 21 84 81t84 81q-62 -2 -213 -2h-324l43 201h865z" />
    <glyph glyph-name="braceleft" unicode="{" horiz-adv-x="743" 
d="M504 -401h-107q-175 0 -255 89q-79 88 -38 273l86 404q12 63 -18 95q-31 32 -121 34l45 217q171 2 195 129l98 450q67 318 408 318h133l-45 -215h-99q-74 0 -111 -36q-40 -38 -57 -118l-96 -451q-38 -177 -235 -184v-4q194 -10 157 -182l-96 -453q-18 -83 5 -118t102 -35
h94z" />
    <glyph glyph-name="bar" unicode="|" horiz-adv-x="456" 
d="M379 -410h-219v2042h219v-2042z" />
    <glyph glyph-name="braceright" unicode="}" horiz-adv-x="743" 
d="M-20 -401h-134l45 215h99q74 0 111 34q39 36 55 117l96 453q38 175 235 182v4q-193 8 -155 184l96 453q18 81 -5 116q-24 36 -101 36h-95l45 215h107q367 0 293 -363l-86 -405q-12 -64 18 -96q30 -31 121 -33l-45 -217q-171 -2 -195 -129l-98 -451q-67 -315 -407 -315z
" />
    <glyph glyph-name="asciitilde" unicode="~" horiz-adv-x="1081" 
d="M297 569h-188q6 157 79 245q74 89 203 89q83 0 223 -72q101 -53 144 -53q90 0 108 119h189q-6 -156 -80 -245t-201 -89q-86 0 -219 72q-103 53 -149 53q-91 0 -109 -119z" />
    <glyph glyph-name="uni00A0" unicode="&#xa0;" horiz-adv-x="442" 
 />
    <glyph glyph-name="exclamdown" unicode="&#xa1;" horiz-adv-x="456" 
d="M459 907h-299l61 293h301zM207 -258h-277l80 375l203 639h145l-71 -639z" />
    <glyph glyph-name="cent" unicode="&#xa2;" horiz-adv-x="1112" 
d="M1098 676h-264q-4 139 -115 178l-139 -657q146 27 206 196h258q-52 -190 -184 -299q-131 -108 -328 -119l-45 -213h-143l47 222q-200 33 -288 192q-88 158 -35 410q45 212 192 346q145 132 365 147l43 207h143l-45 -211q164 -27 252 -132q88 -104 80 -267zM322 543
q-57 -283 116 -340l140 657q-201 -37 -256 -317z" />
    <glyph glyph-name="sterling" unicode="&#xa3;" horiz-adv-x="1155" 
d="M1212 1024h-272q22 240 -209 240q-182 0 -221 -166q-18 -83 16 -248q4 -35 21 -102h422l-33 -150h-377q-1 -44 -12 -96q-34 -148 -176 -254h678l-54 -248h-1038l47 225q122 55 186 119q63 63 84 152q11 53 11 102h-232l31 150h178q-59 218 -26 378q77 365 524 365
q245 0 362 -131q117 -134 90 -336z" />
    <glyph glyph-name="currency" unicode="&#xa4;" horiz-adv-x="1196" 
d="M1180 1178l-154 -154q102 -128 102 -295t-102 -295l154 -153l-111 -111l-158 158q-121 -76 -266 -76q-154 0 -272 82l-164 -164l-111 111l160 159q-96 128 -96 289t96 289l-160 160l111 110l164 -164q118 82 272 82q145 0 266 -76l158 158zM463 911q-74 -72 -74 -182
t74 -182q72 -72 182 -72q107 0 184 72q72 72 72 182t-72 182q-77 72 -184 72q-110 0 -182 -72z" />
    <glyph glyph-name="yen" unicode="&#xa5;" horiz-adv-x="1398" 
d="M1268 1458h317l-635 -762h254l-30 -149h-330l-31 -152h328l-33 -149h-328l-51 -246h-276l51 246h-334l31 149h336l30 152h-334l33 149h258l-313 762h301l106 -264q67 -171 140 -373q128 163 297 375z" />
    <glyph glyph-name="brokenbar" unicode="&#xa6;" horiz-adv-x="456" 
d="M379 815h-219v817h219v-817zM379 -418h-219v817h219v-817z" />
    <glyph glyph-name="section" unicode="&#xa7;" horiz-adv-x="1208" 
d="M1161 1133h-243q21 174 -173 174q-158 0 -182 -117q-12 -57 20 -101q35 -48 109 -98l187 -125q161 -107 227 -202q64 -92 35 -232q-44 -199 -312 -295q101 -107 68 -266q-30 -137 -148 -215q-119 -78 -311 -78q-221 0 -321 94t-72 262h244q-27 -172 172 -172
q160 0 184 115q12 60 -17 101q-31 44 -114 100l-186 125q-116 81 -181 149q-40 40 -57 82q-49 120 -20 209q40 195 309 291q-101 108 -66 276q27 131 146 206t313 75q212 0 313 -95q100 -94 76 -263zM745 664l-186 127q-2 2 -31 20q-182 -45 -209 -172q-29 -119 142 -234
l188 -126q2 -3 13 -10q4 -2 9 -6t7 -5q85 23 143 73q56 49 68 105q16 65 -16 114q-31 47 -128 114z" />
    <glyph glyph-name="dieresis" unicode="&#xa8;" horiz-adv-x="819" 
d="M479 1194h-254l51 242h254zM879 1194h-254l53 242h252z" />
    <glyph glyph-name="copyright" unicode="&#xa9;" horiz-adv-x="1665" 
d="M1425 188q-221 -221 -553 -221t-553 221t-221 541q0 322 221 543t553 221t553 -221q222 -222 222 -543q0 -322 -222 -541zM872 147q252 0 418 168q164 169 164 414q0 246 -164 416q-166 166 -418 166q-251 0 -413 -166q-164 -170 -164 -416q0 -245 164 -414
q162 -168 413 -168zM881 297q-183 0 -292 118q-110 119 -110 314q0 197 110 315q109 117 292 117q160 0 261 -88q102 -88 118 -235h-203q-12 71 -60 113q-46 40 -116 40q-95 0 -146 -67q-51 -68 -51 -195q0 -125 51 -192q51 -68 146 -68q76 0 124 42q49 43 56 118h201
q-15 -153 -118 -242q-104 -90 -263 -90z" />
    <glyph glyph-name="ordfeminine" unicode="&#xaa;" horiz-adv-x="964" 
d="M674 1477q208 0 297 -83q88 -82 53 -247l-90 -422q-24 -114 -10 -188h-228q-8 39 0 102q-105 -123 -288 -123q-161 0 -247 86q-85 85 -50 232q50 215 401 245l145 15q70 6 104 28q33 22 44 72q11 55 -27 83t-125 28q-95 0 -139 -32q-43 -31 -61 -114h-234q39 161 145 240
q105 78 310 78zM479 684q92 0 160 49q70 50 98 144l23 106q-37 -26 -115 -37l-115 -12q-84 -10 -129 -38q-43 -27 -55 -83q-12 -60 24 -94q37 -35 109 -35z" />
    <glyph glyph-name="guillemotleft" unicode="&#xab;" horiz-adv-x="1007" 
d="M147 668l408 284l-55 -262l-236 -164l166 -164l-51 -245l-289 284zM567 668l408 284l-55 -262l-236 -164l166 -164l-51 -245l-289 284z" />
    <glyph glyph-name="logicalnot" unicode="&#xac;" horiz-adv-x="1081" 
d="M109 680v221h946v-573h-240v352h-706z" />
    <glyph glyph-name="uni00AD" unicode="&#xad;" horiz-adv-x="745" 
d="M662 465h-609l47 221h609z" />
    <glyph glyph-name="registered" unicode="&#xae;" horiz-adv-x="1155" 
d="M676 1491q220 0 371 -148q151 -147 151 -360q0 -211 -151 -358q-151 -148 -371 -148t-373 148q-151 147 -151 358q0 213 151 360q153 148 373 148zM676 588q170 0 289 114q116 112 116 281q0 173 -116 285q-118 114 -289 114q-172 0 -291 -114q-117 -112 -117 -285
q0 -169 117 -281q119 -114 291 -114zM889 870l6 -71q4 -49 23 -72h-125q-14 20 -19 72l-4 55q-5 39 -17 53q-13 15 -51 15h-108v-195h-121v524h240q89 0 138 -40q50 -41 50 -111q0 -88 -74 -121q56 -24 62 -109zM594 1149v-129h113q69 0 69 65q0 64 -74 64h-108z" />
    <glyph glyph-name="overscore" unicode="&#xaf;" horiz-adv-x="819" 
d="M877 1194h-654l41 180h654z" />
    <glyph glyph-name="degree" unicode="&#xb0;" horiz-adv-x="710" 
d="M668 987q-88 -84 -213 -84t-213 84q-88 82 -88 203t86 205q83 82 215 82q130 0 213 -82q86 -84 86 -205q0 -120 -86 -203zM455 1061q55 0 92 37t37 92t-37 91q-38 36 -92 36q-55 0 -92 -36t-37 -91q0 -54 38 -92q37 -37 91 -37z" />
    <glyph glyph-name="plusminus" unicode="&#xb1;" horiz-adv-x="1081" 
d="M678 1194v-301h352v-221h-352v-299h-240v299h-352v221h352v301h240zM1030 0h-944v221h944v-221z" />
    <glyph glyph-name="two.sups" unicode="&#xb2;" horiz-adv-x="794" 
d="M834 1081h-648l17 70q63 245 336 358l69 29q152 66 164 133q22 117 -110 117q-138 0 -160 -135h-180q55 289 360 289q148 0 225 -77q76 -76 47 -200q-17 -82 -88 -146q-68 -62 -202 -118l-64 -25q-141 -56 -168 -141h434z" />
    <glyph glyph-name="three.sups" unicode="&#xb3;" horiz-adv-x="817" 
d="M553 1065q-162 0 -248 83t-65 224h174q-8 -76 30 -115q39 -40 119 -40q132 0 156 104q29 137 -125 137h-59l28 129h62q135 0 159 94q15 54 -19 85q-35 32 -97 32q-125 0 -158 -119h-178q62 265 348 265q148 0 228 -71q79 -70 55 -190q-12 -50 -57 -99q-43 -46 -105 -64
q61 -24 90 -81q28 -56 10 -136q-24 -112 -116 -175q-91 -63 -232 -63z" />
    <glyph glyph-name="acute" unicode="&#xb4;" horiz-adv-x="819" 
d="M582 1194h-203l180 295h285z" />
    <glyph glyph-name="uni00B5" unicode="&#xb5;" horiz-adv-x="1382" 
d="M909 465v592h258v-1057h-249v154q-117 -179 -324 -179q-60 0 -123 29v-405h-254v1458h258v-658q0 -200 199 -200q103 0 169 70q66 71 66 196z" />
    <glyph glyph-name="paragraph" unicode="&#xb6;" horiz-adv-x="1165" 
d="M555 0h-205l158 743q-198 0 -299 105q-101 106 -64 287q37 165 166 244q128 79 363 79h528l-311 -1458h-207l270 1260h-129z" />
    <glyph glyph-name="middot" unicode="&#xb7;" horiz-adv-x="456" 
d="M389 582h-299l64 295h299z" />
    <glyph glyph-name="cedilla" unicode="&#xb8;" horiz-adv-x="819" 
d="M289 -88h18q93 0 142 -54q49 -53 32 -134q-41 -170 -317 -170q-82 0 -156 12l23 108q53 -8 129 -8q112 0 129 78q7 38 -18 62t-83 24q-29 0 -51 -2l17 78l104 104h137z" />
    <glyph glyph-name="one.sups" unicode="&#xb9;" horiz-adv-x="487" 
d="M500 1081h-191l121 572h-194l26 131q91 0 155 32q62 31 109 111h152z" />
    <glyph glyph-name="ordmasculine" unicode="&#xba;" horiz-adv-x="1050" 
d="M557 516q-218 0 -332 141t-61 387q44 200 182 316q140 117 348 117q218 0 332 -140q114 -139 61 -376q-45 -207 -182 -326t-348 -119zM575 707q106 0 177 71t100 203q30 147 -17 225q-48 80 -161 80q-103 0 -176 -71t-101 -199q-30 -148 19 -229q49 -80 159 -80z" />
    <glyph glyph-name="guillemotright" unicode="&#xbb;" horiz-adv-x="1007" 
d="M158 707l49 245l289 -284l-58 -267l-407 -284l57 262l236 164zM578 707l49 245l288 -284l-57 -267l-407 -284l57 262l235 164z" />
    <glyph glyph-name="onequarter" unicode="&#xbc;" horiz-adv-x="1486" 
d="M102 0l1090 1458h190l-1089 -1458h-191zM414 612h-193l121 572h-192l26 131q91 0 155 32q62 31 107 111h154zM1311 346h112l-34 -160h-113l-39 -186h-195l39 186h-401l41 187l498 473h198zM1184 639l-312 -293h248z" />
    <glyph glyph-name="onehalf" unicode="&#xbd;" horiz-adv-x="1570" 
d="M305 0h-192l1089 1458h193zM414 612h-193l121 572h-192l26 131q91 0 155 32q62 31 107 111h154zM1427 0h-649l19 70q57 244 333 358l70 29q149 62 164 133q21 117 -111 117q-65 0 -107 -36q-41 -35 -52 -100h-181q57 289 361 289q151 0 226 -76t48 -200
q-33 -160 -293 -265l-61 -24q-136 -51 -170 -141h436z" />
    <glyph glyph-name="threequarters" unicode="&#xbe;" horiz-adv-x="1710" 
d="M766 834q-24 -112 -116 -175t-232 -63q-162 0 -248 83q-87 84 -66 224h177q-10 -71 27 -113q38 -42 120 -42q134 0 156 104q29 137 -125 137h-60l29 129h61q139 0 160 94q15 54 -19 85q-35 32 -98 32q-124 0 -157 -119h-178q62 265 348 265q148 0 228 -71q78 -70 54 -190
q-12 -53 -55 -99t-104 -64q62 -24 89 -81t9 -136zM322 0l1089 1458h191l-1090 -1458h-190zM1534 346h113l-35 -160h-113l-39 -186h-196l39 186h-402l41 187l498 473h200zM1405 639l-311 -293h247z" />
    <glyph glyph-name="questiondown" unicode="&#xbf;" horiz-adv-x="1087" 
d="M784 907h-299l64 293h299zM389 -291q-227 0 -350 109q-125 108 -78 309q34 163 250 305q171 113 213 166q38 44 61 158h250q-33 -172 -98 -254q-66 -89 -203 -174q-175 -106 -196 -205q-41 -193 180 -193q122 0 193 62q72 63 106 201h260q-51 -253 -195 -368
q-145 -116 -393 -116z" />
    <glyph glyph-name="Agrave" unicode="&#xc0;" horiz-adv-x="1470" 
d="M920 1841l116 -295h-198l-203 295h285zM1341 0h-284l-47 322h-637l-183 -322h-292l862 1458h323zM596 715l-90 -158h467l-23 158q-31 188 -73 497q-104 -193 -281 -497z" />
    <glyph glyph-name="Aacute" unicode="&#xc1;" horiz-adv-x="1470" 
d="M1028 1841h305l-313 -295h-223zM1341 0h-284l-47 322h-637l-183 -322h-292l862 1458h323zM596 715l-90 -158h467l-23 158q-31 188 -73 497q-104 -193 -281 -497z" />
    <glyph glyph-name="Acircumflex" unicode="&#xc2;" horiz-adv-x="1470" 
d="M1104 1546l-123 164l-193 -164h-239l299 295h309l178 -295h-231zM1341 0h-284l-47 322h-637l-183 -322h-292l862 1458h323zM596 715l-90 -158h467l-23 158q-31 188 -73 497q-104 -193 -281 -497z" />
    <glyph glyph-name="Atilde" unicode="&#xc3;" horiz-adv-x="1470" 
d="M823 1632q-57 0 -78 -86h-176q62 271 265 271q70 0 163 -48q75 -38 119 -38q55 0 78 86h174q-57 -271 -264 -271q-69 0 -168 49q-75 37 -113 37zM-102 0l862 1458h323l258 -1458h-284l-47 322h-637l-183 -322h-292zM596 715l-90 -158h467l-23 158q-31 188 -73 497
q-104 -193 -281 -497z" />
    <glyph glyph-name="Adieresis" unicode="&#xc4;" horiz-adv-x="1470" 
d="M666 1788h254l-52 -242h-254zM1067 1788h252l-51 -242h-254zM1341 0h-284l-47 322h-637l-183 -322h-292l862 1458h323zM596 715l-90 -158h467l-23 158q-31 188 -73 497q-104 -193 -281 -497z" />
    <glyph glyph-name="Aring" unicode="&#xc5;" horiz-adv-x="1470" 
d="M1341 0h-284l-47 322h-637l-183 -322h-292l819 1386q-80 80 -80 195q0 121 86 201q85 80 209 80q123 0 209 -80q84 -80 84 -201q0 -145 -123 -229zM1022 1671q-54 58 -138 24q-85 -34 -79 -114q0 -51 37 -87q38 -36 90 -36q53 0 89 36t36 87q0 50 -35 90zM596 715
l-90 -158h467l-23 158q-31 188 -73 497q-104 -193 -281 -497z" />
    <glyph glyph-name="AE" unicode="&#xc6;" horiz-adv-x="2148" 
d="M2294 1458l-51 -248h-730l-71 -344h653l-51 -237h-653l-80 -381h723l-54 -248h-993l76 358h-608l-256 -358h-297l1052 1458h1340zM1073 1223l-448 -629h489l133 629h-174z" />
    <glyph glyph-name="Ccedilla" unicode="&#xc7;" horiz-adv-x="1484" 
d="M696 209q157 0 282 89q122 87 183 251h277q-79 -262 -265 -413q-185 -151 -438 -167l-98 -90h18q93 0 142 -54q49 -53 32 -134q-41 -170 -317 -170q-82 0 -156 12l23 109q59 -9 129 -9q112 0 129 78q8 40 -17 63q-24 23 -83 23q-30 0 -52 -2l17 78l96 96
q-296 21 -430 236q-135 211 -57 577q63 315 295 512q230 197 536 197q256 0 414 -137q157 -139 157 -398h-278q-11 147 -94 220t-223 73q-189 0 -332 -133q-145 -136 -191 -360q-55 -261 25 -405q79 -142 276 -142z" />
    <glyph glyph-name="Egrave" unicode="&#xc8;" horiz-adv-x="1245" 
d="M838 1841l116 -295h-198l-203 295h285zM1393 1458l-54 -248h-798l-74 -344h723l-49 -237h-723l-82 -381h792l-51 -248h-1071l311 1458h1076z" />
    <glyph glyph-name="Eacute" unicode="&#xc9;" horiz-adv-x="1245" 
d="M948 1841h305l-313 -295h-223zM1393 1458l-54 -248h-798l-74 -344h723l-49 -237h-723l-82 -381h792l-51 -248h-1071l311 1458h1076z" />
    <glyph glyph-name="Ecircumflex" unicode="&#xca;" horiz-adv-x="1245" 
d="M1024 1546l-123 164l-192 -164h-240l299 295h309l178 -295h-231zM1393 1458l-54 -248h-798l-74 -344h723l-49 -237h-723l-82 -381h792l-51 -248h-1071l311 1458h1076z" />
    <glyph glyph-name="Edieresis" unicode="&#xcb;" horiz-adv-x="1245" 
d="M584 1788h254l-52 -242h-254zM985 1788h252l-51 -242h-254zM1393 1458l-54 -248h-798l-74 -344h723l-49 -237h-723l-82 -381h792l-51 -248h-1071l311 1458h1076z" />
    <glyph glyph-name="Igrave" unicode="&#xcc;" horiz-adv-x="516" 
d="M569 1546h-186l-158 295h271zM283 0h-277l311 1458h277z" />
    <glyph glyph-name="Iacute" unicode="&#xcd;" horiz-adv-x="516" 
d="M553 1546h-191l170 295h273zM283 0h-277l311 1458h277z" />
    <glyph glyph-name="Icircumflex" unicode="&#xce;" horiz-adv-x="516" 
d="M391 1841h293l135 -295h-221l-86 162l-156 -162h-225zM283 0h-277l311 1458h277z" />
    <glyph glyph-name="Idieresis" unicode="&#xcf;" horiz-adv-x="516" 
d="M416 1546h-236l51 242h236zM768 1546h-236l54 242h235zM283 0h-277l311 1458h277z" />
    <glyph glyph-name="Eth" unicode="&#xd0;" horiz-adv-x="1509" 
d="M360 1458h535q343 0 502 -219q158 -219 84 -569q-146 -670 -854 -670h-576l142 668h-179l37 159h176zM1202 707q49 239 -41 376q-91 138 -299 138h-276l-82 -394h336l-37 -159h-334l-90 -430h274q450 0 549 469z" />
    <glyph glyph-name="Ntilde" unicode="&#xd1;" horiz-adv-x="1470" 
d="M813 1632q-55 0 -78 -86h-176q62 271 264 271q71 0 164 -48q75 -38 119 -38q57 0 78 86h174q-60 -271 -264 -271q-67 0 -168 49q-75 37 -113 37zM1178 1077l82 381h266l-312 -1458h-301l-268 649q-104 257 -170 455q-61 -338 -143 -723l-82 -381h-266l311 1458h299
l270 -649q124 -305 170 -457q63 345 144 725z" />
    <glyph glyph-name="Ograve" unicode="&#xd2;" horiz-adv-x="1572" 
d="M1087 1579h-198l-203 295h285zM698 -33q-332 0 -499 219q-166 217 -88 594q66 315 299 510q237 201 553 201q331 0 499 -217q166 -217 88 -586q-68 -321 -301 -518q-238 -203 -551 -203zM723 211q197 0 348 137q150 136 195 365q53 248 -38 391t-296 143
q-196 0 -342 -135q-148 -137 -199 -367q-55 -247 35 -391q89 -143 297 -143z" />
    <glyph glyph-name="Oacute" unicode="&#xd3;" horiz-adv-x="1572" 
d="M1071 1579h-223l231 295h305zM698 -33q-332 0 -499 219q-166 217 -88 594q66 315 299 510q237 201 553 201q331 0 499 -217q166 -217 88 -586q-68 -321 -301 -518q-238 -203 -551 -203zM723 211q197 0 348 137q150 136 195 365q53 248 -38 391t-296 143q-196 0 -342 -135
q-148 -137 -199 -367q-55 -247 35 -391q89 -143 297 -143z" />
    <glyph glyph-name="Ocircumflex" unicode="&#xd4;" horiz-adv-x="1572" 
d="M1155 1579l-123 164l-192 -164h-240l299 295h309l178 -295h-231zM963 1491q331 0 499 -217q166 -217 88 -586q-68 -321 -301 -518q-238 -203 -551 -203q-332 0 -499 219q-166 217 -88 594q66 315 299 510q237 201 553 201zM1266 713q53 248 -38 391t-296 143
q-196 0 -342 -135q-148 -137 -199 -367q-55 -247 35 -391q89 -143 297 -143q197 0 348 137q150 136 195 365z" />
    <glyph glyph-name="Otilde" unicode="&#xd5;" horiz-adv-x="1572" 
d="M799 1579h-176q61 270 264 270q73 0 164 -47q77 -39 118 -39q55 0 78 86h174q-57 -270 -264 -270q-69 0 -168 49q-77 37 -112 37q-57 0 -78 -86zM698 -33q-332 0 -499 219q-166 217 -88 594q66 315 299 510q237 201 553 201q331 0 499 -217q166 -217 88 -586
q-68 -321 -301 -518q-238 -203 -551 -203zM723 211q197 0 348 137q150 136 195 365q53 248 -38 391t-296 143q-196 0 -342 -135q-148 -137 -199 -367q-55 -247 35 -391q89 -143 297 -143z" />
    <glyph glyph-name="Odieresis" unicode="&#xd6;" horiz-adv-x="1572" 
d="M920 1579h-254l51 242h254zM1319 1579h-254l53 242h252zM698 -33q-332 0 -499 219q-166 217 -88 594q66 315 299 510q237 201 553 201q331 0 499 -217q166 -217 88 -586q-68 -321 -301 -518q-238 -203 -551 -203zM723 211q197 0 348 137q150 136 195 365q53 248 -38 391
t-296 143q-196 0 -342 -135q-148 -137 -199 -367q-55 -247 35 -391q89 -143 297 -143z" />
    <glyph glyph-name="multiply" unicode="&#xd7;" horiz-adv-x="1081" 
d="M868 1169l156 -155l-285 -283l285 -285l-156 -155l-284 284l-287 -284l-156 155l285 285l-285 283l156 155l287 -284z" />
    <glyph glyph-name="Oslash" unicode="&#xd8;" horiz-adv-x="1572" 
d="M1448 1556l127 -114l-131 -148q189 -225 106 -606q-68 -321 -301 -518q-238 -203 -551 -203q-209 0 -354 88l-135 -153l-127 112l133 152q-186 221 -104 614q66 315 299 510q237 201 553 201q199 0 350 -86zM391 745q-49 -222 19 -360l720 813q-79 49 -198 49
q-196 0 -342 -135q-148 -137 -199 -367zM1266 713q47 219 -19 358l-723 -813q85 -47 199 -47q197 0 348 137q150 136 195 365z" />
    <glyph glyph-name="Ugrave" unicode="&#xd9;" horiz-adv-x="1417" 
d="M1012 1546h-199l-203 295h285zM633 -31q-298 0 -443 172q-143 167 -71 500l178 817h276l-182 -858q-43 -193 28 -293q70 -98 238 -98q325 0 394 346l188 903h277l-199 -948q-56 -267 -230 -404q-175 -137 -454 -137z" />
    <glyph glyph-name="Uacute" unicode="&#xda;" horiz-adv-x="1417" 
d="M995 1546h-223l232 295h305zM633 -31q-298 0 -443 172q-143 167 -71 500l178 817h276l-182 -858q-43 -193 28 -293q70 -98 238 -98q325 0 394 346l188 903h277l-199 -948q-56 -267 -230 -404q-175 -137 -454 -137z" />
    <glyph glyph-name="Ucircumflex" unicode="&#xdb;" horiz-adv-x="1417" 
d="M1079 1546l-123 164l-192 -164h-240l299 295h310l178 -295h-232zM1051 555l188 903h277l-199 -948q-56 -267 -230 -404q-175 -137 -454 -137q-298 0 -443 172q-143 167 -71 500l178 817h276l-182 -858q-43 -193 28 -293q70 -98 238 -98q325 0 394 346z" />
    <glyph glyph-name="Udieresis" unicode="&#xdc;" horiz-adv-x="1417" 
d="M844 1546h-254l51 242h254zM1243 1546h-254l53 242h252zM633 -31q-298 0 -443 172q-143 167 -71 500l178 817h276l-182 -858q-43 -193 28 -293q70 -98 238 -98q325 0 394 346l188 903h277l-199 -948q-56 -267 -230 -404q-175 -137 -454 -137z" />
    <glyph glyph-name="Yacute" unicode="&#xdd;" horiz-adv-x="1398" 
d="M1004 1841h305l-314 -295h-223zM1055 1196l213 262h317l-735 -883l-121 -575h-276l120 575l-362 883h301l106 -264q67 -171 140 -373q254 319 297 375z" />
    <glyph glyph-name="Thorn" unicode="&#xde;" horiz-adv-x="1333" 
d="M541 1204h313q263 0 387 -139q125 -140 74 -381q-39 -187 -197 -309q-157 -121 -395 -121h-385l-53 -254h-277l309 1458h277zM1040 711q27 122 -30 188t-187 66h-334l-100 -471h352q119 0 198 58q78 58 101 159z" />
    <glyph glyph-name="germandbls" unicode="&#xdf;" horiz-adv-x="1177" 
d="M1145 1073q-40 -185 -234 -280q117 -50 164 -152q47 -103 17 -244q-39 -193 -183 -298t-381 -105q-96 0 -151 6l45 209q61 -4 127 -4q113 0 186 55t94 158q27 123 -31 190q-59 68 -198 68h-59l41 188h61q95 0 169 54q73 53 91 139q21 93 -30 154q-50 61 -150 61
q-207 0 -258 -260l-215 -1012h-258l219 1026q46 227 183 346t354 119q212 0 325 -119q111 -121 72 -299z" />
    <glyph glyph-name="agrave" unicode="&#xe0;" horiz-adv-x="1103" 
d="M752 1489l55 -295h-201l-139 295h285zM662 1081q244 0 338 -94q95 -95 55 -291l-107 -495q-30 -139 0 -201h-258q-15 32 -4 117q-134 -142 -348 -142q-181 0 -272 93q-90 92 -56 254q27 133 135 205q110 73 326 94l170 16q78 7 122 33q40 23 52 78q12 72 -28 106
q-41 35 -142 35q-115 0 -170 -36q-56 -36 -80 -132h-254q44 180 169 270q126 90 352 90zM416 160q115 0 205 65q91 66 120 185l25 106q-51 -34 -143 -45l-131 -14q-198 -23 -222 -146q-16 -70 22 -111q37 -40 124 -40z" />
    <glyph glyph-name="aacute" unicode="&#xe1;" horiz-adv-x="1103" 
d="M764 1489h283l-263 -295h-200zM662 1081q244 0 338 -94q95 -95 55 -291l-107 -495q-30 -139 0 -201h-258q-15 32 -4 117q-134 -142 -348 -142q-181 0 -272 93q-90 92 -56 254q27 133 135 205q110 73 326 94l170 16q78 7 122 33q40 23 52 78q12 72 -28 106q-41 35 -142 35
q-115 0 -170 -36q-56 -36 -80 -132h-254q44 180 169 270q126 90 352 90zM416 160q115 0 205 65q91 66 120 185l25 106q-51 -34 -143 -45l-131 -14q-198 -23 -222 -146q-16 -70 22 -111q37 -40 124 -40z" />
    <glyph glyph-name="acircumflex" unicode="&#xe2;" horiz-adv-x="1103" 
d="M852 1194l-123 162l-192 -162h-242l299 295h309l180 -295h-231zM662 1081q244 0 338 -94q95 -95 55 -291l-107 -495q-30 -139 0 -201h-258q-15 32 -4 117q-134 -142 -348 -142q-181 0 -272 93q-90 92 -56 254q27 133 135 205q110 73 326 94l170 16q78 7 122 33
q40 23 52 78q12 72 -28 106q-41 35 -142 35q-115 0 -170 -36q-56 -36 -80 -132h-254q44 180 169 270q126 90 352 90zM416 160q115 0 205 65q91 66 120 185l25 106q-51 -34 -143 -45l-131 -14q-198 -23 -222 -146q-16 -70 22 -111q37 -40 124 -40z" />
    <glyph glyph-name="atilde" unicode="&#xe3;" horiz-adv-x="1103" 
d="M573 1280q-56 0 -77 -86h-174q60 270 262 270q66 0 166 -47q76 -39 116 -39q62 0 80 86h172q-56 -270 -262 -270q-67 0 -168 49q-83 37 -115 37zM662 1081q244 0 338 -94q95 -95 55 -291l-107 -495q-30 -139 0 -201h-258q-15 32 -4 117q-134 -142 -348 -142
q-181 0 -272 93q-90 92 -56 254q27 133 135 205q110 73 326 94l170 16q78 7 122 33q40 23 52 78q12 72 -28 106q-41 35 -142 35q-115 0 -170 -36q-56 -36 -80 -132h-254q44 180 169 270q126 90 352 90zM416 160q115 0 205 65q91 66 120 185l25 106q-51 -34 -143 -45
l-131 -14q-198 -23 -222 -146q-16 -70 22 -111q37 -40 124 -40z" />
    <glyph glyph-name="adieresis" unicode="&#xe4;" horiz-adv-x="1103" 
d="M416 1436h254l-54 -242h-254zM817 1436h252l-51 -242h-254zM662 1081q244 0 338 -94q95 -95 55 -291l-107 -495q-30 -139 0 -201h-258q-15 32 -4 117q-134 -142 -348 -142q-181 0 -272 93q-90 92 -56 254q27 133 135 205q110 73 326 94l170 16q78 7 122 33q40 23 52 78
q12 72 -28 106q-41 35 -142 35q-115 0 -170 -36q-56 -36 -80 -132h-254q44 180 169 270q126 90 352 90zM416 160q115 0 205 65q91 66 120 185l25 106q-51 -34 -143 -45l-131 -14q-198 -23 -222 -146q-16 -70 22 -111q37 -40 124 -40z" />
    <glyph glyph-name="aring" unicode="&#xe5;" horiz-adv-x="1103" 
d="M748 1184q-124 0 -207 80q-86 80 -86 200q0 121 86 201q84 78 207 78q122 0 210 -78q84 -79 84 -201q0 -120 -84 -200q-86 -80 -210 -80zM838 1552q-56 61 -139 26q-82 -34 -76 -114q0 -54 35 -89q36 -36 90 -36q52 0 90 36q36 35 36 89q0 52 -36 88zM662 1081
q244 0 338 -94q95 -95 55 -291l-107 -495q-30 -139 0 -201h-258q-15 32 -4 117q-134 -142 -348 -142q-181 0 -272 93q-90 92 -56 254q27 133 135 205q110 73 326 94l170 16q78 7 122 33q40 23 52 78q12 72 -28 106q-41 35 -142 35q-115 0 -170 -36q-56 -36 -80 -132h-254
q44 180 169 270q126 90 352 90zM416 160q115 0 205 65q91 66 120 185l25 106q-51 -34 -143 -45l-131 -14q-198 -23 -222 -146q-16 -70 22 -111q37 -40 124 -40z" />
    <glyph glyph-name="ae" unicode="&#xe6;" horiz-adv-x="1814" 
d="M1341 1081q240 0 353 -159q115 -164 53 -412q0 -4 -3 -12q0 -1 -7 -23q-5 -16 -6 -26h-748q-11 -136 46 -204q57 -69 167 -69q176 0 256 152h236q-129 -353 -514 -353q-260 0 -367 191q-189 -191 -449 -191q-192 0 -285 95t-59 266q50 247 465 287l162 14q84 10 122 35
q38 24 50 78l2 8q15 68 -24 99q-40 32 -144 32q-117 0 -173 -37q-57 -37 -79 -131h-254q45 182 171 271q127 89 362 89q239 0 327 -112q145 112 340 112zM1319 881q-213 0 -301 -252h506q10 113 -44 183q-54 69 -161 69zM420 160q124 0 212 67q89 68 113 197l5 14q0 32 6 70
q-38 -26 -121 -37l-141 -16q-200 -21 -222 -144q-15 -70 25 -111q39 -40 123 -40z" />
    <glyph glyph-name="ccedilla" unicode="&#xe7;" horiz-adv-x="1112" 
d="M635 866q-119 0 -200 -82q-80 -81 -113 -241q-35 -173 19 -262q55 -91 175 -91q202 0 270 203h258q-50 -182 -170 -287t-299 -126l-100 -93h19q92 0 141 -54q50 -54 33 -134q-41 -170 -318 -170q-82 0 -155 12l22 109q53 -8 129 -8q113 0 129 77q8 40 -17 63
q-24 23 -83 23q-29 0 -51 -2l16 78l96 96q-215 18 -321 179q-104 161 -47 430q46 218 204 358q157 137 396 137q209 0 324 -109q116 -110 106 -296h-264q-1 91 -55 141q-52 49 -144 49z" />
    <glyph glyph-name="egrave" unicode="&#xe8;" horiz-adv-x="1161" 
d="M752 1489l55 -295h-201l-139 295h285zM668 1081q250 0 368 -159q120 -159 60 -412l-19 -61h-786q-12 -136 47 -204q60 -69 176 -69q188 0 268 152h250q-137 -353 -540 -353q-246 0 -365 160q-124 157 -64 434q49 233 213 373q163 139 392 139zM645 881q-108 0 -191 -65
t-126 -187h534q10 116 -47 184t-170 68z" />
    <glyph glyph-name="eacute" unicode="&#xe9;" horiz-adv-x="1161" 
d="M764 1489h283l-263 -295h-200zM668 1081q250 0 368 -159q120 -159 60 -412l-19 -61h-786q-12 -136 47 -204q60 -69 176 -69q188 0 268 152h250q-137 -353 -540 -353q-246 0 -365 160q-124 157 -64 434q49 233 213 373q163 139 392 139zM645 881q-108 0 -191 -65
t-126 -187h534q10 116 -47 184t-170 68z" />
    <glyph glyph-name="ecircumflex" unicode="&#xea;" horiz-adv-x="1161" 
d="M852 1194l-123 162l-192 -162h-242l299 295h309l180 -295h-231zM668 1081q250 0 368 -159q120 -159 60 -412l-19 -61h-786q-12 -136 47 -204q60 -69 176 -69q188 0 268 152h250q-137 -353 -540 -353q-246 0 -365 160q-124 157 -64 434q49 233 213 373q163 139 392 139z
M645 881q-108 0 -191 -65t-126 -187h534q10 116 -47 184t-170 68z" />
    <glyph glyph-name="edieresis" unicode="&#xeb;" horiz-adv-x="1161" 
d="M416 1436h254l-54 -242h-254zM817 1436h252l-51 -242h-254zM668 1081q250 0 368 -159q120 -159 60 -412l-19 -61h-786q-12 -136 47 -204q60 -69 176 -69q188 0 268 152h250q-137 -353 -540 -353q-246 0 -365 160q-124 157 -64 434q49 233 213 373q163 139 392 139z
M645 881q-108 0 -191 -65t-126 -187h534q10 116 -47 184t-170 68z" />
    <glyph glyph-name="igrave" unicode="&#xec;" horiz-adv-x="466" 
d="M461 1194h-187l-157 295h270zM250 0h-258l225 1057h258z" />
    <glyph glyph-name="iacute" unicode="&#xed;" horiz-adv-x="466" 
d="M438 1194h-188l139 295h268zM250 0h-258l225 1057h258z" />
    <glyph glyph-name="icircumflex" unicode="&#xee;" horiz-adv-x="466" 
d="M293 1489h293l135 -295h-221l-86 162l-156 -162h-225zM250 0h-258l225 1057h258z" />
    <glyph glyph-name="idieresis" unicode="&#xef;" horiz-adv-x="466" 
d="M315 1194h-235l51 242h236zM668 1194h-236l53 242h236zM250 0h-258l225 1057h258z" />
    <glyph glyph-name="eth" unicode="&#xf0;" horiz-adv-x="1150" 
d="M860 1354l316 90l-35 -164l-191 -53q219 -349 127 -770q-50 -228 -201 -354q-154 -128 -382 -128q-240 0 -365 150q-125 147 -68 420q43 200 203 325q157 125 377 125q112 0 201 -47q-38 100 -119 215l-354 -100l34 162l228 63l-129 170h280zM815 459q37 157 -20 240
t-185 83q-114 0 -190 -70t-103 -202q-30 -160 25 -241q56 -81 182 -81q229 0 291 271z" />
    <glyph glyph-name="ntilde" unicode="&#xf1;" horiz-adv-x="1159" 
d="M586 1280q-57 0 -78 -86h-174q60 270 262 270q66 0 166 -47q76 -39 117 -39q61 0 79 86h172q-56 -270 -262 -270q-67 0 -168 49q-81 37 -114 37zM795 1081q178 0 254 -115q75 -113 28 -339l-135 -627h-258l133 629q49 229 -145 229q-104 0 -184 -64t-109 -186l-129 -608
h-258l225 1057h250l-31 -144q147 168 359 168z" />
    <glyph glyph-name="ograve" unicode="&#xf2;" horiz-adv-x="1189" 
d="M836 1194h-201l-139 295h284zM510 -25q-264 0 -384 161t-60 442q49 228 217 364q167 139 397 139q264 0 384 -159t60 -441q-49 -223 -217 -364q-171 -142 -397 -142zM528 188q124 0 216 87t122 239q38 168 -18 261t-184 93q-124 0 -215 -88q-92 -89 -125 -235
q-35 -172 21 -263q58 -94 183 -94z" />
    <glyph glyph-name="oacute" unicode="&#xf3;" horiz-adv-x="1189" 
d="M813 1194h-201l181 295h282zM510 -25q-264 0 -384 161t-60 442q49 228 217 364q167 139 397 139q264 0 384 -159t60 -441q-49 -223 -217 -364q-171 -142 -397 -142zM528 188q124 0 216 87t122 239q38 168 -18 261t-184 93q-124 0 -215 -88q-92 -89 -125 -235
q-35 -172 21 -263q58 -94 183 -94z" />
    <glyph glyph-name="ocircumflex" unicode="&#xf4;" horiz-adv-x="1189" 
d="M881 1194l-123 162l-193 -162h-241l299 295h309l180 -295h-231zM680 1081q264 0 384 -159t60 -441q-49 -223 -217 -364q-171 -142 -397 -142q-264 0 -384 161t-60 442q49 228 217 364q167 139 397 139zM866 514q38 168 -18 261t-184 93q-124 0 -215 -88
q-92 -89 -125 -235q-35 -172 21 -263q58 -94 183 -94q124 0 216 87t122 239z" />
    <glyph glyph-name="otilde" unicode="&#xf5;" horiz-adv-x="1189" 
d="M524 1194h-174q60 270 262 270q66 0 166 -47q76 -39 117 -39q62 0 80 86h172q-55 -270 -262 -270q-69 0 -168 49q-81 37 -115 37q-57 0 -78 -86zM510 -25q-264 0 -384 161t-60 442q49 228 217 364q167 139 397 139q264 0 384 -159t60 -441q-49 -223 -217 -364
q-171 -142 -397 -142zM528 188q124 0 216 87t122 239q38 168 -18 261t-184 93q-124 0 -215 -88q-92 -89 -125 -235q-35 -172 21 -263q58 -94 183 -94z" />
    <glyph glyph-name="odieresis" unicode="&#xf6;" horiz-adv-x="1189" 
d="M645 1194h-254l53 242h254zM1047 1194h-254l53 242h252zM510 -25q-264 0 -384 161t-60 442q49 228 217 364q167 139 397 139q264 0 384 -159t60 -441q-49 -223 -217 -364q-171 -142 -397 -142zM528 188q124 0 216 87t122 239q38 168 -18 261t-184 93q-124 0 -215 -88
q-92 -89 -125 -235q-35 -172 21 -263q58 -94 183 -94z" />
    <glyph glyph-name="divide" unicode="&#xf7;" horiz-adv-x="1081" 
d="M717 989h-242v232h242v-232zM1055 618h-944v222h944v-222zM715 238h-242v231h242v-231z" />
    <glyph glyph-name="oslash" unicode="&#xf8;" horiz-adv-x="1189" 
d="M1036 1141l113 -99l-96 -108q133 -163 71 -453q-49 -223 -217 -364q-171 -142 -397 -142q-138 0 -252 54l-100 -115l-111 98l94 107q-137 159 -75 459q49 228 217 364q167 139 397 139q152 0 256 -55zM317 545q-27 -131 0 -223l465 530q-45 27 -116 27q-126 0 -222 -91
q-94 -89 -127 -243zM874 512q27 129 3 219l-465 -528q52 -25 114 -25q131 0 222 88q92 88 126 246z" />
    <glyph glyph-name="ugrave" unicode="&#xf9;" horiz-adv-x="1159" 
d="M772 1489l55 -295h-200l-140 295h285zM784 465l125 592h258l-225 -1057h-250l31 143q-147 -168 -358 -168q-177 0 -254 116q-76 114 -29 339l135 627h258l-133 -629q-49 -229 145 -229q110 0 190 68q81 69 105 198h2z" />
    <glyph glyph-name="uacute" unicode="&#xfa;" horiz-adv-x="1159" 
d="M784 1489h283l-262 -295h-201zM784 465l125 592h258l-225 -1057h-250l31 143q-147 -168 -358 -168q-177 0 -254 116q-76 114 -29 339l135 627h258l-133 -629q-49 -229 145 -229q110 0 190 68q81 69 105 198h2z" />
    <glyph glyph-name="ucircumflex" unicode="&#xfb;" horiz-adv-x="1159" 
d="M872 1194l-122 162l-193 -162h-242l299 295h310l180 -295h-232zM784 465l125 592h258l-225 -1057h-250l31 143q-147 -168 -358 -168q-177 0 -254 116q-76 114 -29 339l135 627h258l-133 -629q-49 -229 145 -229q110 0 190 68q81 69 105 198h2z" />
    <glyph glyph-name="udieresis" unicode="&#xfc;" horiz-adv-x="1159" 
d="M436 1436h254l-53 -242h-254zM838 1436h252l-52 -242h-254zM784 465l125 592h258l-225 -1057h-250l31 143q-147 -168 -358 -168q-177 0 -254 116q-76 114 -29 339l135 627h258l-133 -629q-49 -229 145 -229q110 0 190 68q81 69 105 198h2z" />
    <glyph glyph-name="yacute" unicode="&#xfd;" horiz-adv-x="1069" 
d="M770 1194h-201l181 295h282zM762 791l145 266h273l-650 -1143q-102 -182 -213 -250q-110 -67 -309 -67q-62 0 -112 6l43 202h100q82 0 135 47q55 49 72 117q19 82 -2 230l-123 858h274l29 -264q44 -583 45 -590q100 212 293 588z" />
    <glyph glyph-name="thorn" unicode="&#xfe;" horiz-adv-x="1204" 
d="M762 1081q224 0 330 -161q105 -163 47 -431q-49 -228 -197 -370q-146 -144 -360 -144q-212 0 -301 154l-115 -530h-258l397 1859h258l-104 -493q128 116 303 116zM883 520q34 169 -19 259q-53 89 -184 89q-265 0 -338 -331q-39 -171 17 -262q57 -91 194 -91q124 0 209 88
q87 90 121 248z" />
    <glyph glyph-name="ydieresis" unicode="&#xff;" horiz-adv-x="1069" 
d="M602 1194h-254l53 242h254zM1004 1194h-254l53 242h252zM762 791l145 266h273l-650 -1143q-102 -182 -213 -250q-110 -67 -309 -67q-62 0 -112 6l43 202h100q82 0 135 47q55 49 72 117q19 82 -2 230l-123 858h274l29 -264q44 -583 45 -590q100 212 293 588z" />
    <glyph glyph-name="Amacron" unicode="&#x100;" horiz-adv-x="1470" 
d="M653 1726h654l-39 -180h-654zM1341 0h-284l-47 322h-637l-183 -322h-292l862 1458h323zM596 715l-90 -158h467l-23 158q-31 188 -73 497q-104 -193 -281 -497z" />
    <glyph glyph-name="amacron" unicode="&#x101;" horiz-adv-x="1103" 
d="M403 1374h654l-39 -180h-653zM662 1081q244 0 338 -94q95 -95 55 -291l-107 -495q-30 -139 0 -201h-258q-15 32 -4 117q-134 -142 -348 -142q-181 0 -272 93q-90 92 -56 254q27 133 135 205q110 73 326 94l170 16q78 7 122 33q40 23 52 78q12 72 -28 106q-41 35 -142 35
q-115 0 -170 -36q-56 -36 -80 -132h-254q44 180 169 270q126 90 352 90zM416 160q115 0 205 65q91 66 120 185l25 106q-51 -34 -143 -45l-131 -14q-198 -23 -222 -146q-16 -70 22 -111q37 -40 124 -40z" />
    <glyph glyph-name="Abreve" unicode="&#x102;" horiz-adv-x="1470" 
d="M965 1536q-151 0 -233 82t-75 223h195q-1 -65 34 -102q36 -37 97 -37q121 0 170 139h195q-37 -146 -140 -226q-101 -79 -243 -79zM-102 0l862 1458h323l258 -1458h-284l-47 322h-637l-183 -322h-292zM596 715l-90 -158h467l-23 158q-31 188 -73 497q-104 -193 -281 -497z
" />
    <glyph glyph-name="abreve" unicode="&#x103;" horiz-adv-x="1103" 
d="M719 1184q-151 0 -234 81q-81 79 -73 224h194q-2 -68 34 -104q35 -35 97 -35q122 0 168 139h197q-37 -147 -139 -226q-101 -79 -244 -79zM662 1081q244 0 338 -94q95 -95 55 -291l-107 -495q-30 -139 0 -201h-258q-15 32 -4 117q-134 -142 -348 -142q-181 0 -272 93
q-90 92 -56 254q27 133 135 205q110 73 326 94l170 16q78 7 122 33q40 23 52 78q12 72 -28 106q-41 35 -142 35q-115 0 -170 -36q-56 -36 -80 -132h-254q44 180 169 270q126 90 352 90zM416 160q115 0 205 65q91 66 120 185l25 106q-51 -34 -143 -45l-131 -14
q-198 -23 -222 -146q-16 -70 22 -111q37 -40 124 -40z" />
    <glyph glyph-name="Aogonek" unicode="&#x104;" horiz-adv-x="1470" 
d="M1098 -182q-11 -41 15 -64q25 -22 71 -22q40 0 104 16l-33 -154q-59 -20 -149 -20q-110 0 -175 60q-64 60 -46 153q15 67 81 124q64 55 171 89h-80l-47 322h-637l-183 -322h-292l862 1458h323l258 -1458q-225 -96 -243 -182zM596 715l-90 -158h467l-23 158
q-31 188 -73 497q-104 -193 -281 -497z" />
    <glyph glyph-name="aogonek" unicode="&#x105;" horiz-adv-x="1103" 
d="M662 1081q244 0 338 -94q95 -95 55 -291l-107 -495q-30 -139 0 -201q-225 -96 -243 -182q-11 -41 15 -64q25 -22 71 -22q40 0 104 16l-33 -154q-59 -20 -149 -20q-111 0 -175 60t-46 153q28 123 208 205q-14 41 -12 127q-130 -144 -350 -144q-181 0 -272 93
q-90 92 -56 254q27 133 135 205q110 73 326 94l170 16q85 11 123 34q39 24 51 77q12 72 -28 106q-41 35 -142 35q-115 0 -170 -36q-56 -36 -80 -132h-254q44 180 169 270q126 90 352 90zM416 160q115 0 205 65q91 66 120 185l25 108q-47 -35 -143 -47l-131 -14
q-199 -21 -222 -146q-16 -70 22 -111q37 -40 124 -40z" />
    <glyph glyph-name="Cacute" unicode="&#x106;" horiz-adv-x="1484" 
d="M1073 1579h-223l231 295h305zM668 -33q-333 0 -486 215q-153 214 -71 600q63 315 295 512q230 197 536 197q256 0 414 -137q157 -139 157 -398h-278q-11 147 -94 220t-223 73q-189 0 -332 -133q-145 -136 -191 -360q-55 -261 25 -405q79 -142 276 -142q157 0 282 89
q122 87 183 251h277q-85 -280 -289 -431t-481 -151z" />
    <glyph glyph-name="cacute" unicode="&#x107;" horiz-adv-x="1112" 
d="M788 1194h-200l180 295h283zM494 -25q-246 0 -365 162q-123 162 -61 449q46 218 204 358q157 137 396 137q209 0 324 -109q116 -110 106 -296h-264q-1 91 -55 141q-52 49 -144 49q-119 0 -200 -82q-80 -81 -113 -241q-35 -173 19 -262q55 -91 175 -91q202 0 270 203h258
q-56 -202 -197 -309q-144 -109 -353 -109z" />
    <glyph glyph-name="Ccircumflex" unicode="&#x108;" horiz-adv-x="1484" 
d="M1157 1579l-123 164l-192 -164h-240l299 295h309l179 -295h-232zM696 209q157 0 282 89q122 87 183 251h277q-85 -280 -289 -431t-481 -151q-333 0 -486 215q-153 214 -71 600q63 315 295 512q230 197 536 197q256 0 414 -137q157 -139 157 -398h-278q-11 147 -94 220
t-223 73q-189 0 -332 -133q-145 -136 -191 -360q-55 -261 25 -405q79 -142 276 -142z" />
    <glyph glyph-name="ccircumflex" unicode="&#x109;" horiz-adv-x="1112" 
d="M856 1194l-123 162l-192 -162h-242l299 295h309l180 -295h-231zM635 866q-119 0 -200 -82q-80 -81 -113 -241q-35 -173 19 -262q55 -91 175 -91q202 0 270 203h258q-56 -202 -197 -309q-144 -109 -353 -109q-246 0 -365 162q-123 162 -61 449q46 218 204 358
q157 137 396 137q209 0 324 -109q116 -110 106 -296h-264q-1 91 -55 141q-52 49 -144 49z" />
    <glyph glyph-name="Cdotaccent" unicode="&#x10a;" horiz-adv-x="1484" 
d="M1120 1579h-254l52 242h253zM668 -33q-333 0 -486 215q-153 214 -71 600q63 315 295 512q230 197 536 197q256 0 414 -137q157 -139 157 -398h-278q-11 147 -94 220t-223 73q-189 0 -332 -133q-145 -136 -191 -360q-55 -261 25 -405q79 -142 276 -142q157 0 282 89
q122 87 183 251h277q-85 -280 -289 -431t-481 -151z" />
    <glyph glyph-name="cdotaccent" unicode="&#x10b;" horiz-adv-x="1112" 
d="M821 1194h-254l49 242h254zM494 -25q-246 0 -365 162q-123 162 -61 449q46 218 204 358q157 137 396 137q209 0 324 -109q116 -110 106 -296h-264q-1 91 -55 141q-52 49 -144 49q-119 0 -200 -82q-80 -81 -113 -241q-35 -173 19 -262q55 -91 175 -91q202 0 270 203h258
q-56 -202 -197 -309q-144 -109 -353 -109z" />
    <glyph glyph-name="Ccaron" unicode="&#x10c;" horiz-adv-x="1484" 
d="M1448 1874l-297 -295h-309l-180 295h231l123 -164l192 164h240zM696 209q157 0 282 89q122 87 183 251h277q-85 -280 -289 -431t-481 -151q-333 0 -486 215q-153 214 -71 600q63 315 295 512q230 197 536 197q256 0 414 -137q157 -139 157 -398h-278q-11 147 -94 220
t-223 73q-189 0 -332 -133q-145 -136 -191 -360q-55 -261 25 -405q79 -142 276 -142z" />
    <glyph glyph-name="ccaron" unicode="&#x10d;" horiz-adv-x="1112" 
d="M1141 1487l-297 -295h-312l-180 295h234l123 -164l192 164h240zM668 1081q209 0 324 -109q116 -110 106 -296h-264q-1 91 -55 141q-52 49 -144 49q-119 0 -200 -82q-80 -81 -113 -241q-35 -173 19 -262q55 -91 175 -91q202 0 270 203h258q-56 -202 -197 -309
q-144 -109 -353 -109q-246 0 -365 162q-123 162 -61 449q46 218 204 358q157 137 396 137z" />
    <glyph glyph-name="Dcaron" unicode="&#x10e;" horiz-adv-x="1466" 
d="M1309 1841l-297 -295h-310l-180 295h232l123 -164l192 164h240zM317 1458h535q344 0 502 -219t84 -569q-144 -670 -852 -670h-578zM1159 707q49 239 -41 376q-91 138 -299 138h-276l-207 -983h276q448 0 547 469z" />
    <glyph glyph-name="dcaron" unicode="&#x10f;" horiz-adv-x="1497" 
d="M924 928l114 530h256l-311 -1458h-248l23 102q-139 -127 -316 -127q-222 0 -327 162q-107 163 -52 430q51 228 199 373q147 141 361 141q213 0 301 -153zM1323 1118l137 340h250l-199 -340h-188zM524 188q264 0 338 332q39 170 -17 260q-57 92 -194 92q-123 0 -210 -89
q-86 -87 -119 -246q-38 -170 17 -259q55 -90 185 -90z" />
    <glyph glyph-name="Dcroat" unicode="&#x110;" horiz-adv-x="1509" 
d="M360 1458h535q343 0 502 -219q158 -219 84 -569q-146 -670 -854 -670h-576l142 668h-179l37 159h176zM1202 707q49 239 -41 376q-91 138 -299 138h-276l-82 -394h336l-37 -159h-334l-90 -430h274q450 0 549 469z" />
    <glyph glyph-name="dslash" unicode="&#x111;" horiz-adv-x="1280" 
d="M1270 1343h192l-35 -159h-192l-252 -1184h-248l23 102q-139 -127 -316 -127q-222 0 -327 162q-107 163 -52 430q51 228 199 373q147 141 361 141q213 0 301 -153l55 256h-201l35 159h201l24 115h256zM524 188q264 0 338 332q39 170 -17 260q-57 92 -194 92
q-123 0 -210 -89q-86 -87 -119 -246q-38 -170 17 -259q55 -90 185 -90z" />
    <glyph glyph-name="Emacron" unicode="&#x112;" horiz-adv-x="1245" 
d="M571 1726h654l-39 -180h-654zM1393 1458l-54 -248h-798l-74 -344h723l-49 -237h-723l-82 -381h792l-51 -248h-1071l311 1458h1076z" />
    <glyph glyph-name="emacron" unicode="&#x113;" horiz-adv-x="1161" 
d="M403 1374h654l-39 -180h-653zM668 1081q250 0 368 -159q120 -159 60 -412l-19 -61h-786q-12 -136 47 -204q60 -69 176 -69q188 0 268 152h250q-137 -353 -540 -353q-246 0 -365 160q-124 157 -64 434q49 233 213 373q163 139 392 139zM645 881q-108 0 -191 -65t-126 -187
h534q10 116 -47 184t-170 68z" />
    <glyph glyph-name="Ebreve" unicode="&#x114;" horiz-adv-x="1245" 
d="M885 1536q-151 0 -233 82t-74 223h194q-1 -65 34 -102q36 -37 97 -37q121 0 170 139h195q-37 -146 -140 -226q-101 -79 -243 -79zM1393 1458l-54 -248h-798l-74 -344h723l-49 -237h-723l-82 -381h792l-51 -248h-1071l311 1458h1076z" />
    <glyph glyph-name="ebreve" unicode="&#x115;" horiz-adv-x="1161" 
d="M719 1184q-151 0 -234 81q-81 79 -73 224h194q-2 -68 34 -104q35 -35 97 -35q122 0 168 139h197q-37 -147 -139 -226q-101 -79 -244 -79zM668 1081q250 0 368 -159q120 -159 60 -412l-19 -61h-786q-12 -136 47 -204q60 -69 176 -69q188 0 268 152h250
q-137 -353 -540 -353q-246 0 -365 160q-124 157 -64 434q49 233 213 373q163 139 392 139zM645 881q-108 0 -191 -65t-126 -187h534q10 116 -47 184t-170 68z" />
    <glyph glyph-name="Edotaccent" unicode="&#x116;" horiz-adv-x="1245" 
d="M784 1788h254l-51 -242h-254zM1393 1458l-54 -248h-798l-74 -344h723l-49 -237h-723l-82 -381h792l-51 -248h-1071l311 1458h1076z" />
    <glyph glyph-name="edotaccent" unicode="&#x117;" horiz-adv-x="1161" 
d="M614 1436h254l-49 -242h-254zM668 1081q250 0 368 -159q120 -159 60 -412l-19 -61h-786q-12 -136 47 -204q60 -69 176 -69q188 0 268 152h250q-137 -353 -540 -353q-246 0 -365 160q-124 157 -64 434q49 233 213 373q163 139 392 139zM645 881q-108 0 -191 -65t-126 -187
h534q10 116 -47 184t-170 68z" />
    <glyph glyph-name="Eogonek" unicode="&#x118;" horiz-adv-x="1245" 
d="M1393 1458l-54 -248h-798l-74 -344h723l-49 -237h-723l-82 -381h792l-51 -248h-20q-226 -96 -244 -182q-11 -41 15 -64q25 -22 71 -22q41 0 105 16l-33 -154q-59 -20 -150 -20q-111 0 -175 60t-46 153q15 67 81 124q64 55 171 89h-846l311 1458h1076z" />
    <glyph glyph-name="eogonek" unicode="&#x119;" horiz-adv-x="1161" 
d="M668 1081q250 0 368 -159q120 -159 60 -412l-19 -61h-786q-12 -136 47 -204q60 -69 176 -69q188 0 268 152h250q-102 -264 -354 -330q-222 -97 -240 -180q-11 -41 16 -64q25 -22 70 -22q41 0 105 16l-33 -154q-59 -20 -150 -20q-110 0 -175 60q-64 60 -46 153
q28 121 195 193q-211 24 -311 181q-99 155 -46 408q49 233 213 373q163 139 392 139zM645 881q-108 0 -191 -65t-126 -187h534q10 116 -47 184t-170 68z" />
    <glyph glyph-name="Ecaron" unicode="&#x11a;" horiz-adv-x="1245" 
d="M1315 1841l-297 -295h-309l-181 295h232l123 -164l192 164h240zM1393 1458l-54 -248h-798l-74 -344h723l-49 -237h-723l-82 -381h792l-51 -248h-1071l311 1458h1076z" />
    <glyph glyph-name="ecaron" unicode="&#x11b;" horiz-adv-x="1161" 
d="M1137 1487l-297 -295h-312l-180 295h234l123 -164l192 164h240zM668 1081q250 0 368 -159q120 -159 60 -412l-19 -61h-786q-12 -136 47 -204q60 -69 176 -69q188 0 268 152h250q-137 -353 -540 -353q-246 0 -365 160q-124 157 -64 434q49 233 213 373q163 139 392 139z
M645 881q-108 0 -191 -65t-126 -187h534q10 116 -47 184t-170 68z" />
    <glyph glyph-name="Gcircumflex" unicode="&#x11c;" horiz-adv-x="1566" 
d="M1137 1579l-123 164l-193 -164h-239l299 295h309l178 -295h-231zM911 1249q-193 0 -330 -133q-139 -135 -188 -360q-56 -254 36 -401q91 -146 294 -146q171 0 303 98q132 96 178 256h-381l49 223h652l-168 -786h-203l2 180q-191 -213 -479 -213q-331 0 -490 219
q-159 220 -77 594q67 317 288 514t545 197q279 0 442 -139q162 -141 156 -379h-283q-7 126 -100 202q-90 74 -246 74z" />
    <glyph glyph-name="gcircumflex" unicode="&#x11d;" horiz-adv-x="1204" 
d="M895 1194l-123 162l-192 -162h-242l299 295h309l180 -295h-231zM934 913l31 144h249l-219 -1024q-50 -237 -185 -347q-138 -112 -390 -112q-228 0 -341 97q-114 98 -102 272h261q0 -170 204 -170q242 0 299 278l15 70q-123 -117 -297 -117q-230 0 -338 164
q-108 166 -51 426q51 230 197 358q147 129 354 129q221 0 313 -168zM535 217q123 0 209 79q88 80 122 224l6 35q27 152 -29 232q-57 81 -186 81q-127 0 -212 -82t-115 -229q-35 -159 20 -249q55 -91 185 -91z" />
    <glyph glyph-name="Gbreve" unicode="&#x11e;" horiz-adv-x="1566" 
d="M997 1569q-150 0 -232 82t-75 223h195q-1 -65 34 -102q36 -37 97 -37q121 0 170 139h194q-37 -147 -139 -226q-101 -79 -244 -79zM911 1249q-193 0 -330 -133q-139 -135 -188 -360q-56 -254 36 -401q91 -146 294 -146q171 0 303 98q132 96 178 256h-381l49 223h652
l-168 -786h-203l2 180q-191 -213 -479 -213q-331 0 -490 219q-159 220 -77 594q67 317 288 514t545 197q279 0 442 -139q162 -141 156 -379h-283q-7 126 -100 202q-90 74 -246 74z" />
    <glyph glyph-name="gbreve" unicode="&#x11f;" horiz-adv-x="1204" 
d="M762 1184q-152 0 -234 81q-81 79 -73 224h194q-2 -68 34 -104q35 -35 97 -35q122 0 168 139h197q-37 -147 -139 -226q-101 -79 -244 -79zM934 913l31 144h249l-219 -1024q-50 -237 -185 -347q-138 -112 -390 -112q-228 0 -341 97q-114 98 -102 272h261q0 -170 204 -170
q242 0 299 278l15 70q-123 -117 -297 -117q-230 0 -338 164q-108 166 -51 426q51 230 197 358q147 129 354 129q221 0 313 -168zM535 217q123 0 209 79q88 80 122 224l6 35q27 152 -29 232q-57 81 -186 81q-127 0 -212 -82t-115 -229q-35 -159 20 -249q55 -91 185 -91z" />
    <glyph glyph-name="Gdotaccent" unicode="&#x120;" horiz-adv-x="1566" 
d="M897 1821h254l-51 -242h-254zM911 1249q-193 0 -330 -133q-139 -135 -188 -360q-56 -254 36 -401q91 -146 294 -146q171 0 303 98q132 96 178 256h-381l49 223h652l-168 -786h-203l2 180q-191 -213 -479 -213q-331 0 -490 219q-159 220 -77 594q67 317 288 514t545 197
q279 0 442 -139q162 -141 156 -379h-283q-7 126 -100 202q-90 74 -246 74z" />
    <glyph glyph-name="gdotaccent" unicode="&#x121;" horiz-adv-x="1204" 
d="M655 1436h254l-49 -242h-254zM934 913l31 144h249l-219 -1024q-50 -237 -185 -347q-138 -112 -390 -112q-228 0 -341 97q-114 98 -102 272h261q0 -170 204 -170q242 0 299 278l15 70q-123 -117 -297 -117q-230 0 -338 164q-108 166 -51 426q51 230 197 358
q147 129 354 129q221 0 313 -168zM535 217q123 0 209 79q88 80 122 224l6 35q27 152 -29 232q-57 81 -186 81q-127 0 -212 -82t-115 -229q-35 -159 20 -249q55 -91 185 -91z" />
    <glyph glyph-name="uni0122" unicode="&#x122;" horiz-adv-x="1566" 
d="M911 1249q-193 0 -330 -133q-139 -135 -188 -360q-56 -254 36 -401q91 -146 294 -146q171 0 303 98q132 96 178 256h-381l49 223h652l-168 -786h-203l2 180q-191 -213 -479 -213q-331 0 -490 219q-159 220 -77 594q67 317 288 514t545 197q279 0 442 -139
q162 -141 156 -379h-283q-7 126 -100 202q-90 74 -246 74zM639 -322h-115l43 203h248l-49 -227q-21 -92 -78 -134q-56 -41 -168 -46l-41 -2l23 100l37 2q75 4 92 74z" />
    <glyph glyph-name="uni0123" unicode="&#x123;" horiz-adv-x="1204" 
d="M766 1397h113l-43 -203h-248l49 227q21 90 79 133t167 48l39 2l-21 -103h-37q-80 -2 -92 -76zM934 913l31 144h249l-219 -1024q-50 -237 -185 -347q-138 -112 -390 -112q-228 0 -341 97q-114 98 -102 272h261q0 -170 204 -170q242 0 299 278l15 70q-123 -117 -297 -117
q-230 0 -338 164q-108 166 -51 426q51 230 197 358q147 129 354 129q221 0 313 -168zM535 217q123 0 209 79q88 80 122 224l6 35q27 152 -29 232q-57 81 -186 81q-127 0 -212 -82t-115 -229q-35 -159 20 -249q55 -91 185 -91z" />
    <glyph glyph-name="Hcircumflex" unicode="&#x124;" horiz-adv-x="1468" 
d="M1110 1542l-123 164l-192 -164h-240l299 295h309l178 -295h-231zM1147 872l125 586h276l-311 -1458h-276l133 623h-678l-133 -623h-277l311 1458h277l-125 -586h678z" />
    <glyph glyph-name="hcircumflex" unicode="&#x125;" horiz-adv-x="1159" 
d="M575 1546l-86 162l-155 -162h-225l260 295h293l135 -295h-222zM795 1081q181 0 257 -115q76 -116 27 -339l-137 -627h-256l133 629q49 229 -145 229q-103 0 -181 -62q-80 -63 -110 -180l-131 -616h-258l309 1458h258l-112 -530q145 153 346 153z" />
    <glyph glyph-name="Hbar" unicode="&#x126;" horiz-adv-x="1556" 
d="M1546 1243h160l-31 -160h-164l-231 -1083h-276l133 623h-676l-133 -623h-277l232 1083h-164l33 160h165l45 215h277l-45 -215h676l45 215h276zM514 872h676l45 211h-676z" />
    <glyph glyph-name="hbar" unicode="&#x127;" horiz-adv-x="1216" 
d="M854 1081q178 0 254 -115q76 -114 29 -339l-136 -627h-258l134 629q49 229 -146 229q-109 0 -189 -68q-82 -70 -106 -198h-2l-125 -592h-256l252 1184h-188l33 159h188l24 115h256l-24 -115h207l-35 -159h-205l-55 -258q149 155 348 155z" />
    <glyph glyph-name="Itilde" unicode="&#x128;" horiz-adv-x="516" 
d="M317 1546h-139q60 269 221 269q52 0 125 -41q68 -43 103 -43q43 0 65 84h137q-56 -269 -219 -269q-45 0 -121 43q-79 41 -106 41q-43 0 -66 -84zM283 0h-277l311 1458h277z" />
    <glyph glyph-name="itilde" unicode="&#x129;" horiz-adv-x="466" 
d="M209 1194h-137q57 266 219 266q54 0 127 -41q68 -43 102 -43q48 0 64 84h139q-56 -266 -219 -266q-45 0 -121 43q-79 41 -107 41q-44 0 -67 -84zM250 0h-258l225 1057h258z" />
    <glyph glyph-name="Imacron" unicode="&#x12a;" horiz-adv-x="516" 
d="M743 1546h-538l39 180h538zM283 0h-277l311 1458h277z" />
    <glyph glyph-name="imacron" unicode="&#x12b;" horiz-adv-x="466" 
d="M643 1194h-541l41 180h539zM250 0h-258l225 1057h258z" />
    <glyph glyph-name="Ibreve" unicode="&#x12c;" horiz-adv-x="516" 
d="M715 1614q-95 -78 -226 -78q-133 0 -206 82q-75 85 -60 211h180q0 -127 109 -127q116 0 150 127h186q-39 -138 -133 -215zM283 0h-277l311 1458h277z" />
    <glyph glyph-name="ibreve" unicode="&#x12d;" horiz-adv-x="466" 
d="M360 1184q-132 0 -206 81q-74 82 -62 212h182q-4 -127 107 -127q117 0 151 127h187q-40 -139 -133 -217q-91 -76 -226 -76zM250 0h-258l225 1057h258z" />
    <glyph glyph-name="Iogonek" unicode="&#x12e;" horiz-adv-x="516" 
d="M283 0h2q-165 -91 -189 -186q-16 -84 72 -84q51 0 78 14l-31 -152q-60 -18 -117 -18q-102 0 -154 55q-53 56 -32 148q15 67 69 127q52 58 136 96h-111l311 1458h277z" />
    <glyph glyph-name="iogonek" unicode="&#x12f;" horiz-adv-x="466" 
d="M250 1194l49 242h254l-51 -242h-252zM82 0h-90l225 1057h258l-225 -1057q-169 -89 -187 -186q-22 -84 70 -84q51 0 78 14l-31 -152q-57 -18 -117 -18q-102 0 -154 55q-53 56 -32 148q15 66 69 126t136 97z" />
    <glyph glyph-name="Idot" unicode="&#x130;" horiz-adv-x="516" 
d="M602 1546h-252l49 242h254zM283 0h-277l311 1458h277z" />
    <glyph glyph-name="dotlessi" unicode="&#x131;" horiz-adv-x="466" 
d="M250 0h-258l225 1057h258z" />
    <glyph glyph-name="IJ" unicode="&#x132;" horiz-adv-x="1640" 
d="M283 0h-277l311 1458h277zM979 -31q-241 0 -354 134t-60 366l10 51h267l-15 -67q-24 -122 23 -186q46 -62 156 -62q200 0 249 231l215 1022h277l-219 -1032q-45 -220 -186 -339q-140 -118 -363 -118z" />
    <glyph glyph-name="ij" unicode="&#x133;" horiz-adv-x="935" 
d="M502 1194h-252l49 242h254zM969 1194h-252l49 242h254zM250 0h-258l225 1057h258zM373 -408q-57 0 -152 5l43 202h60q48 0 75 27q27 26 43 94l242 1137h258l-248 -1159q-66 -306 -321 -306z" />
    <glyph glyph-name="Jcircumflex" unicode="&#x134;" horiz-adv-x="1124" 
d="M1028 1841h293l135 -295h-221l-86 162l-156 -162h-225zM739 436l215 1022h277l-219 -1032q-45 -220 -186 -339q-140 -118 -363 -118q-241 0 -354 134t-60 366l10 51h267l-15 -67q-24 -122 23 -186q46 -62 155 -62q201 0 250 231z" />
    <glyph glyph-name="jcircumflex" unicode="&#x135;" horiz-adv-x="471" 
d="M293 1489h293l135 -295h-221l-86 162l-156 -162h-225zM-25 -80l242 1137h258l-248 -1159q-66 -306 -321 -306q-57 0 -152 5l43 202h60q48 0 75 27q27 26 43 94z" />
    <glyph glyph-name="uni0136" unicode="&#x136;" horiz-adv-x="1433" 
d="M1266 1458h354l-725 -604l416 -854h-310l-329 682l-291 -229l-96 -453h-277l309 1458h277l-145 -682zM588 -291h-115l43 203h248l-49 -227q-21 -93 -78 -135q-56 -41 -168 -46l-41 -2l23 101l36 2q78 2 93 73z" />
    <glyph glyph-name="uni0137" unicode="&#x137;" horiz-adv-x="1126" 
d="M899 1057h309l-481 -404l281 -653h-273l-203 504l-217 -174l-69 -330h-254l311 1458h254l-178 -833zM408 -291h-115l43 203h248l-49 -227q-21 -93 -78 -135q-56 -41 -168 -46l-41 -2l22 101l37 2q77 1 92 73z" />
    <glyph glyph-name="kgreenlandic" unicode="&#x138;" horiz-adv-x="1126" 
d="M899 1057h309l-481 -404l281 -653h-273l-203 504l-217 -174l-69 -330h-254l225 1057h254l-92 -432z" />
    <glyph glyph-name="Lacute" unicode="&#x139;" horiz-adv-x="1122" 
d="M600 1841h305l-313 -295h-223zM594 1458l-258 -1210h694l-53 -248h-971l311 1458h277z" />
    <glyph glyph-name="lacute" unicode="&#x13a;" horiz-adv-x="466" 
d="M526 1546h-190l170 295h272zM250 0h-256l309 1458h258z" />
    <glyph glyph-name="uni013B" unicode="&#x13b;" horiz-adv-x="1122" 
d="M594 1458l-258 -1210h694l-53 -248h-971l311 1458h277zM449 -291h-115l43 203h248l-50 -227q-22 -94 -77 -135q-56 -41 -168 -46l-41 -2l22 101l37 2q77 1 92 73z" />
    <glyph glyph-name="uni013C" unicode="&#x13c;" horiz-adv-x="466" 
d="M-6 0l309 1458h258l-311 -1458h-256zM53 -291h-114l43 203h247l-49 -227q-21 -93 -78 -135q-56 -41 -168 -46l-40 -2l22 101l37 2q76 1 92 73z" />
    <glyph glyph-name="Lcaron" unicode="&#x13d;" horiz-adv-x="1122" 
d="M317 1458h277l-258 -1210h694l-53 -248h-971zM782 1458h248l-199 -340h-186z" />
    <glyph glyph-name="lcaron" unicode="&#x13e;" horiz-adv-x="745" 
d="M250 0h-256l309 1458h258zM776 1118h-186l137 340h250z" />
    <glyph glyph-name="Ldot" unicode="&#x13f;" horiz-adv-x="1122" 
d="M317 1458h277l-258 -1210h694l-53 -248h-971zM748 911h299l-64 -295h-299z" />
    <glyph glyph-name="ldot" unicode="&#x140;" horiz-adv-x="929" 
d="M250 0h-256l309 1458h258zM852 578h-299l63 294h299z" />
    <glyph glyph-name="Lslash" unicode="&#x141;" horiz-adv-x="1165" 
d="M496 797l-117 -549h694l-53 -248h-971l146 680l-250 -98l37 176l249 98l129 602h277l-102 -483l329 129l-39 -178z" />
    <glyph glyph-name="lslash" unicode="&#x142;" horiz-adv-x="583" 
d="M498 889l176 78l-37 -185l-178 -80l-150 -702h-258l123 578l-182 -82l39 184l182 82l149 696h256z" />
    <glyph glyph-name="Nacute" unicode="&#x143;" horiz-adv-x="1470" 
d="M1018 1841h305l-313 -295h-224zM1178 1077l82 381h266l-312 -1458h-301l-268 649q-104 257 -170 455q-61 -338 -143 -723l-82 -381h-266l311 1458h299l270 -649q124 -305 170 -457q63 345 144 725z" />
    <glyph glyph-name="nacute" unicode="&#x144;" horiz-adv-x="1159" 
d="M778 1489h283l-262 -295h-201zM795 1081q178 0 254 -115q75 -113 28 -339l-135 -627h-258l133 629q49 229 -145 229q-104 0 -184 -64t-109 -186l-129 -608h-258l225 1057h250l-31 -144q147 168 359 168z" />
    <glyph glyph-name="uni0145" unicode="&#x145;" horiz-adv-x="1470" 
d="M1178 1077l82 381h266l-312 -1458h-301l-268 649q-104 257 -170 455q-61 -338 -143 -723l-82 -381h-266l311 1458h299l270 -649q124 -305 170 -457q63 345 144 725zM535 -291h-115l43 203h248l-49 -227q-21 -93 -78 -135q-56 -41 -168 -46l-41 -2l22 101l37 2q77 1 92 73
z" />
    <glyph glyph-name="uni0146" unicode="&#x146;" horiz-adv-x="1159" 
d="M795 1081q178 0 254 -115q75 -113 28 -339l-135 -627h-258l133 629q49 229 -145 229q-104 0 -184 -64t-109 -186l-129 -608h-258l225 1057h250l-31 -144q147 168 359 168zM405 -291h-114l43 203h248l-50 -227q-22 -94 -77 -135q-56 -41 -168 -46l-41 -2l22 101l37 2
q76 1 92 73z" />
    <glyph glyph-name="Ncaron" unicode="&#x147;" horiz-adv-x="1470" 
d="M1384 1841l-297 -295h-309l-180 295h231l123 -164l193 164h239zM1178 1077l82 381h266l-312 -1458h-301l-268 649q-104 257 -170 455q-61 -338 -143 -723l-82 -381h-266l311 1458h299l270 -649q124 -305 170 -457q63 345 144 725z" />
    <glyph glyph-name="ncaron" unicode="&#x148;" horiz-adv-x="1159" 
d="M1151 1487l-297 -295h-311l-181 295h234l123 -164l192 164h240zM795 1081q178 0 254 -115q75 -113 28 -339l-135 -627h-258l133 629q49 229 -145 229q-104 0 -184 -64t-109 -186l-129 -608h-258l225 1057h250l-31 -144q147 168 359 168z" />
    <glyph glyph-name="napostrophe" unicode="&#x149;" horiz-adv-x="1519" 
d="M561 1425l-61 -290q-33 -154 -111 -220q-77 -65 -229 -71l28 141q76 5 105 34q31 31 47 109l4 23h-121l58 274h280zM1153 1081q181 0 257 -115q77 -117 28 -339l-138 -627h-256l134 629q49 229 -146 229q-109 0 -190 -68q-83 -69 -107 -198l-127 -592h-256l226 1057h247
l-30 -144q147 168 358 168z" />
    <glyph glyph-name="Eng" unicode="&#x14a;" horiz-adv-x="1470" 
d="M1260 1458h266l-309 -1458l-5 -18q-78 -392 -469 -392q-53 0 -161 9l43 202q51 -6 110 -6q182 0 221 193l5 22l-302 668q-118 253 -180 442q-74 -409 -145 -739l-82 -381h-266l309 1458h307l283 -643q111 -252 162 -399q52 282 133 661z" />
    <glyph glyph-name="eng" unicode="&#x14b;" horiz-adv-x="1159" 
d="M768 1081q181 0 266 -116q86 -117 39 -338l-162 -766q-30 -142 -118 -206q-89 -65 -248 -65q-26 0 -99 4l43 201h52q98 0 121 92l155 731q51 240 -166 240q-98 0 -170 -65q-74 -67 -104 -189l-127 -604h-258l225 1057h250l-33 -146q140 170 334 170z" />
    <glyph glyph-name="Omacron" unicode="&#x14c;" horiz-adv-x="1572" 
d="M1319 1579h-653l39 180h653zM698 -33q-332 0 -499 219q-166 217 -88 594q66 315 299 510q237 201 553 201q331 0 499 -217q166 -217 88 -586q-68 -321 -301 -518q-238 -203 -551 -203zM723 211q197 0 348 137q150 136 195 365q53 248 -38 391t-296 143q-196 0 -342 -135
q-148 -137 -199 -367q-55 -247 35 -391q89 -143 297 -143z" />
    <glyph glyph-name="omacron" unicode="&#x14d;" horiz-adv-x="1189" 
d="M1047 1194h-654l39 180h653zM510 -25q-264 0 -384 161t-60 442q49 228 217 364q167 139 397 139q264 0 384 -159t60 -441q-49 -223 -217 -364q-171 -142 -397 -142zM528 188q124 0 216 87t122 239q38 168 -18 261t-184 93q-124 0 -215 -88q-92 -89 -125 -235
q-35 -172 21 -263q58 -94 183 -94z" />
    <glyph glyph-name="Obreve" unicode="&#x14e;" horiz-adv-x="1572" 
d="M1018 1569q-151 0 -233 82t-74 223h194q-1 -65 34 -102q36 -37 97 -37q121 0 170 139h195q-37 -147 -139 -226q-101 -79 -244 -79zM698 -33q-332 0 -499 219q-166 217 -88 594q66 315 299 510q237 201 553 201q331 0 499 -217q166 -217 88 -586q-68 -321 -301 -518
q-238 -203 -551 -203zM723 211q197 0 348 137q150 136 195 365q53 248 -38 391t-296 143q-196 0 -342 -135q-148 -137 -199 -367q-55 -247 35 -391q89 -143 297 -143z" />
    <glyph glyph-name="obreve" unicode="&#x14f;" horiz-adv-x="1189" 
d="M748 1184q-152 0 -234 81q-81 80 -74 224h195q-2 -68 34 -104q35 -35 97 -35q122 0 168 139h196q-37 -147 -139 -226q-101 -79 -243 -79zM510 -25q-264 0 -384 161t-60 442q49 228 217 364q167 139 397 139q264 0 384 -159t60 -441q-49 -223 -217 -364
q-171 -142 -397 -142zM528 188q124 0 216 87t122 239q38 168 -18 261t-184 93q-124 0 -215 -88q-92 -89 -125 -235q-35 -172 21 -263q58 -94 183 -94z" />
    <glyph glyph-name="Ohungarumlaut" unicode="&#x150;" horiz-adv-x="1572" 
d="M864 1579h-202l180 295h295zM1274 1579h-203l180 295h295zM698 -33q-332 0 -499 219q-166 217 -88 594q66 315 299 510q237 201 553 201q331 0 499 -217q166 -217 88 -586q-68 -321 -301 -518q-238 -203 -551 -203zM723 211q197 0 348 137q150 136 195 365
q53 248 -38 391t-296 143q-196 0 -342 -135q-148 -137 -199 -367q-55 -247 35 -391q89 -143 297 -143z" />
    <glyph glyph-name="ohungarumlaut" unicode="&#x151;" horiz-adv-x="1189" 
d="M600 1194h-201l179 295h296zM1010 1194h-201l178 295h295zM510 -25q-264 0 -384 161t-60 442q49 228 217 364q167 139 397 139q264 0 384 -159t60 -441q-49 -223 -217 -364q-171 -142 -397 -142zM528 188q124 0 216 87t122 239q38 168 -18 261t-184 93q-124 0 -215 -88
q-92 -89 -125 -235q-35 -172 21 -263q58 -94 183 -94z" />
    <glyph glyph-name="OE" unicode="&#x152;" horiz-adv-x="2353" 
d="M2499 1458l-54 -248h-796l-74 -346h723l-51 -235h-721l-82 -383h792l-53 -246h-1069l29 137q-199 -170 -465 -170q-317 0 -481 226q-163 225 -84 593q66 312 293 508q224 197 530 197q314 0 453 -207l36 174h1074zM723 211q197 0 348 137q150 136 195 365q53 248 -38 391
t-296 143q-196 0 -342 -135q-148 -137 -199 -367q-55 -247 35 -391q89 -143 297 -143z" />
    <glyph glyph-name="oe" unicode="&#x153;" horiz-adv-x="1976" 
d="M1483 1081q250 0 368 -159q120 -161 60 -412l-19 -61h-786q-12 -136 47 -204q60 -69 176 -69q188 0 268 152h250q-137 -353 -540 -353q-263 0 -371 179q-173 -179 -426 -179q-264 0 -384 161t-60 442q49 228 217 364q167 139 397 139q273 0 381 -176q164 176 422 176z
M1460 881q-108 0 -191 -65t-126 -187h534q10 116 -47 184t-170 68zM528 188q124 0 216 87t122 239q38 168 -18 261t-184 93q-124 0 -215 -88q-92 -89 -125 -235q-35 -172 21 -263q58 -94 183 -94z" />
    <glyph glyph-name="Racute" unicode="&#x154;" horiz-adv-x="1361" 
d="M950 1841h305l-313 -295h-223zM317 1458h613q260 0 387 -121t82 -329q-24 -115 -111 -201q-86 -85 -225 -119q112 -30 151 -108t15 -215l-29 -187q-21 -110 8 -178h-284q-22 60 0 182l28 170q23 120 -22 169q-45 50 -164 50h-360l-121 -571h-277zM1112 993
q24 119 -34 178q-59 60 -185 60h-348l-92 -443h360q119 0 199 56q79 55 100 149z" />
    <glyph glyph-name="racute" unicode="&#x155;" horiz-adv-x="780" 
d="M588 1489h268l-219 -295h-188zM467 1057l-35 -162q135 178 354 178q37 0 62 -4l-49 -238h-66q-298 0 -364 -274l-119 -557h-258l225 1057h250z" />
    <glyph glyph-name="uni0156" unicode="&#x156;" horiz-adv-x="1361" 
d="M317 1458h613q260 0 387 -121t82 -329q-24 -115 -111 -201q-86 -85 -225 -119q112 -30 151 -108t15 -215l-29 -187q-21 -110 8 -178h-284q-22 60 0 182l28 170q23 120 -22 169q-45 50 -164 50h-360l-121 -571h-277zM1112 993q24 119 -34 178q-59 60 -185 60h-348
l-92 -443h360q119 0 199 56q79 55 100 149zM547 -291h-115l43 203h248l-49 -227q-21 -93 -78 -135q-56 -41 -168 -46l-41 -2l23 101l36 2q78 2 93 73z" />
    <glyph glyph-name="uni0157" unicode="&#x157;" horiz-adv-x="780" 
d="M786 1073q37 0 62 -4l-49 -238h-66q-298 0 -364 -274l-119 -557h-258l225 1057h250l-35 -162q135 178 354 178zM49 -291h-115l43 203h248l-49 -227q-21 -93 -78 -135q-56 -41 -168 -46l-41 -2l23 101l37 2q76 1 92 73z" />
    <glyph glyph-name="Rcaron" unicode="&#x158;" horiz-adv-x="1361" 
d="M1319 1841l-297 -295h-309l-181 295h232l123 -164l192 164h240zM317 1458h613q260 0 387 -121t82 -329q-24 -115 -111 -201q-86 -85 -225 -119q112 -30 151 -108t15 -215l-29 -187q-21 -110 8 -178h-284q-22 60 0 182l28 170q23 120 -22 169q-45 50 -164 50h-360
l-121 -571h-277zM1112 993q24 119 -34 178q-59 60 -185 60h-348l-92 -443h360q119 0 199 56q79 55 100 149z" />
    <glyph glyph-name="rcaron" unicode="&#x159;" horiz-adv-x="780" 
d="M967 1487l-260 -295h-295l-133 295h221l86 -162l155 162h226zM467 1057l-35 -162q135 178 354 178q37 0 62 -4l-49 -238h-66q-298 0 -364 -274l-119 -557h-258l225 1057h250z" />
    <glyph glyph-name="Sacute" unicode="&#x15a;" horiz-adv-x="1304" 
d="M926 1579h-224l232 295h305zM594 -33q-309 0 -455 136q-147 137 -104 378h272q-22 -152 58 -222q79 -69 258 -69q131 0 215 49q82 48 100 132q22 102 -32 153q-55 52 -218 86l-117 23q-210 43 -309 163q-99 119 -61 310q38 176 195 280q159 105 401 105q299 0 429 -123
q131 -123 93 -344h-268q21 120 -43 182t-228 62q-267 0 -297 -174q-21 -92 34 -144q54 -51 204 -84l121 -24q467 -92 383 -477q-39 -187 -206 -293q-167 -105 -425 -105z" />
    <glyph glyph-name="sacute" unicode="&#x15b;" horiz-adv-x="1021" 
d="M717 1194h-201l180 295h283zM436 -29q-248 0 -357 88t-85 277h252q-8 -99 41 -139q50 -41 170 -41q193 0 217 114q15 66 -23 101q-37 34 -143 55l-115 18q-342 60 -276 355q29 136 152 209q124 73 327 73q225 0 326 -92q100 -91 79 -266h-243q15 93 -31 134
q-44 40 -154 40q-188 0 -211 -115q-12 -59 24 -93q35 -33 128 -50l125 -18q182 -33 253 -120q70 -87 40 -239q-62 -291 -496 -291z" />
    <glyph glyph-name="Scircumflex" unicode="&#x15c;" horiz-adv-x="1304" 
d="M1008 1579l-123 164l-193 -164h-239l299 295h309l178 -295h-231zM1319 1024h-268q21 120 -43 182t-228 62q-267 0 -297 -174q-21 -92 34 -144q54 -51 204 -84l121 -24q467 -92 383 -477q-39 -187 -206 -293q-167 -105 -425 -105q-309 0 -455 136q-147 137 -104 378h272
q-22 -152 58 -222q79 -69 258 -69q131 0 215 49q82 48 100 132q22 102 -32 153q-55 52 -218 86l-117 23q-210 43 -309 163q-99 119 -61 310q38 176 195 280q159 105 401 105q299 0 429 -123q131 -123 93 -344z" />
    <glyph glyph-name="scircumflex" unicode="&#x15d;" horiz-adv-x="1021" 
d="M784 1194l-122 162l-193 -162h-242l299 295h310l180 -295h-232zM596 1081q225 0 326 -92q100 -91 79 -266h-243q15 93 -31 134q-44 40 -154 40q-188 0 -211 -115q-12 -59 24 -93q35 -33 128 -50l125 -18q182 -33 253 -120q70 -87 40 -239q-62 -291 -496 -291
q-248 0 -357 88t-85 277h252q-8 -99 41 -139q50 -41 170 -41q193 0 217 114q15 66 -23 101q-37 34 -143 55l-115 18q-342 60 -276 355q29 136 152 209q124 73 327 73z" />
    <glyph glyph-name="Scedilla" unicode="&#x15e;" horiz-adv-x="1304" 
d="M1319 1024h-268q21 120 -43 182t-228 62q-267 0 -297 -174q-21 -92 34 -144q54 -51 204 -84l121 -24q467 -92 383 -477q-38 -173 -181 -276q-144 -104 -370 -120l-99 -90h19q92 0 141 -54q50 -54 33 -134q-41 -170 -317 -170q-83 0 -156 12l22 109q59 -9 129 -9
q112 0 129 78q8 40 -17 63q-24 23 -83 23q-29 0 -51 -2l16 78l97 96q-278 12 -411 148q-132 134 -91 364h272q-22 -152 58 -222q79 -69 258 -69q131 0 215 49q82 48 100 132q22 102 -32 153q-55 52 -218 86l-117 23q-210 43 -309 163q-99 119 -61 310q38 176 195 280
q159 105 401 105q299 0 429 -123q131 -123 93 -344z" />
    <glyph glyph-name="scedilla" unicode="&#x15f;" horiz-adv-x="1021" 
d="M1001 723h-243q15 93 -31 134q-44 40 -154 40q-188 0 -211 -115q-12 -59 24 -93q35 -33 128 -50l125 -18q182 -33 253 -120q70 -87 40 -239q-51 -260 -416 -289l-98 -90h18q92 0 142 -54q49 -53 32 -134q-41 -170 -317 -170q-83 0 -156 12l23 109q53 -8 129 -8
q113 0 129 77q8 39 -18 63q-24 23 -83 23q-29 0 -51 -2l17 78l96 96q-217 11 -312 99q-95 89 -73 264h252q-8 -99 41 -139q50 -41 170 -41q193 0 217 114q15 66 -23 101q-37 34 -143 55l-115 18q-342 60 -276 355q29 136 152 209q124 73 327 73q225 0 326 -92
q100 -91 79 -266z" />
    <glyph glyph-name="Scaron" unicode="&#x160;" horiz-adv-x="1304" 
d="M1300 1874l-296 -295h-310l-180 295h231l123 -164l193 164h239zM1319 1024h-268q21 120 -43 182t-228 62q-267 0 -297 -174q-21 -92 34 -144q54 -51 204 -84l121 -24q467 -92 383 -477q-39 -187 -206 -293q-167 -105 -425 -105q-309 0 -455 136q-147 137 -104 378h272
q-22 -152 58 -222q79 -69 258 -69q131 0 215 49q82 48 100 132q22 102 -32 153q-55 52 -218 86l-117 23q-210 43 -309 163q-99 119 -61 310q38 176 195 280q159 105 401 105q299 0 429 -123q131 -123 93 -344z" />
    <glyph glyph-name="scaron" unicode="&#x161;" horiz-adv-x="1021" 
d="M1067 1487l-297 -295h-311l-180 295h233l123 -164l192 164h240zM596 1081q225 0 326 -92q100 -91 79 -266h-243q15 93 -31 134q-44 40 -154 40q-188 0 -211 -115q-12 -59 24 -93q35 -33 128 -50l125 -18q182 -33 253 -120q70 -87 40 -239q-62 -291 -496 -291
q-248 0 -357 88t-85 277h252q-8 -99 41 -139q50 -41 170 -41q193 0 217 114q15 66 -23 101q-37 34 -143 55l-115 18q-342 60 -276 355q29 136 152 209q124 73 327 73z" />
    <glyph glyph-name="uni0162" unicode="&#x162;" horiz-adv-x="1277" 
d="M926 1210l-260 -1210h-62l-96 -88h18q92 0 142 -54q49 -53 32 -134q-41 -170 -317 -170q-83 0 -156 12l23 108q53 -8 129 -8q113 0 129 78q7 38 -18 62q-26 24 -82 24q-30 0 -52 -2l17 78l94 94h-80l258 1210h-467l53 248h1213l-53 -248h-465z" />
    <glyph glyph-name="uni0163" unicode="&#x163;" horiz-adv-x="702" 
d="M727 860h-209l-115 -536q-27 -125 95 -125h88l-43 -199q-63 -6 -109 -6l-88 -82h19q91 0 141 -54t33 -134q-41 -170 -318 -170q-81 0 -155 12l22 108q53 -8 129 -8q113 0 129 78q7 39 -17 62q-25 24 -83 24q-29 0 -51 -2l16 78l100 100q-223 51 -166 316l115 538h-164
l43 197h162l66 307h258l-66 -307h209z" />
    <glyph glyph-name="Tcaron" unicode="&#x164;" horiz-adv-x="1277" 
d="M1313 1841l-297 -295h-309l-181 295h232l123 -164l192 164h240zM231 1458h1213l-53 -248h-465l-260 -1210h-279l258 1210h-467z" />
    <glyph glyph-name="tcaron" unicode="&#x165;" horiz-adv-x="702" 
d="M645 1118l137 340h248l-199 -340h-186zM367 1364h258l-66 -307h209l-41 -197h-209l-115 -536q-27 -125 95 -125h88l-43 -199q-69 -6 -119 -6q-170 0 -242 83q-72 82 -37 245l115 538h-164l43 197h162z" />
    <glyph glyph-name="Tbar" unicode="&#x166;" horiz-adv-x="1277" 
d="M1444 1458l-53 -248h-465l-90 -413h280l-43 -160h-270l-137 -637h-279l135 637h-262l43 160h254l88 413h-467l53 248h1213z" />
    <glyph glyph-name="tbar" unicode="&#x167;" horiz-adv-x="727" 
d="M768 1057l-41 -197h-209l-51 -233h233l-32 -160h-234l-31 -143q-27 -125 95 -125h88l-43 -199q-69 -6 -119 -6q-170 0 -242 83q-72 82 -37 245l31 145h-135l33 160h137l49 233h-164l43 197h162l66 307h258l-66 -307h209z" />
    <glyph glyph-name="Utilde" unicode="&#x168;" horiz-adv-x="1417" 
d="M723 1546h-176q62 271 264 271q71 0 164 -48q75 -38 119 -38q56 0 77 86h175q-60 -271 -265 -271q-67 0 -168 49q-77 37 -112 37q-55 0 -78 -86zM633 -31q-298 0 -443 172q-143 167 -71 500l178 817h276l-182 -858q-43 -193 28 -293q70 -98 238 -98q325 0 394 346
l188 903h277l-199 -948q-56 -267 -230 -404q-175 -137 -454 -137z" />
    <glyph glyph-name="utilde" unicode="&#x169;" horiz-adv-x="1159" 
d="M594 1280q-57 0 -78 -86h-174q60 270 262 270q66 0 166 -47q76 -39 117 -39q62 0 80 86h172q-55 -270 -262 -270q-67 0 -168 49q-81 37 -115 37zM784 465l125 592h258l-225 -1057h-250l31 143q-147 -168 -358 -168q-177 0 -254 116q-76 114 -29 339l135 627h258
l-133 -629q-49 -229 145 -229q110 0 190 68q81 69 105 198h2z" />
    <glyph glyph-name="Umacron" unicode="&#x16a;" horiz-adv-x="1417" 
d="M1243 1546h-653l39 180h653zM633 -31q-298 0 -443 172q-143 167 -71 500l178 817h276l-182 -858q-43 -193 28 -293q70 -98 238 -98q325 0 394 346l188 903h277l-199 -948q-56 -267 -230 -404q-175 -137 -454 -137z" />
    <glyph glyph-name="umacron" unicode="&#x16b;" horiz-adv-x="1159" 
d="M422 1374h653l-39 -180h-653zM784 465l125 592h258l-225 -1057h-250l31 143q-147 -168 -358 -168q-177 0 -254 116q-76 114 -29 339l135 627h258l-133 -629q-49 -229 145 -229q110 0 190 68q81 69 105 198h2z" />
    <glyph glyph-name="Ubreve" unicode="&#x16c;" horiz-adv-x="1417" 
d="M942 1536q-150 0 -232 82t-75 223h194q-1 -65 34 -102q36 -37 98 -37q120 0 169 139h195q-37 -147 -139 -226q-101 -79 -244 -79zM633 -31q-298 0 -443 172q-143 167 -71 500l178 817h276l-182 -858q-43 -193 28 -293q70 -98 238 -98q325 0 394 346l188 903h277
l-199 -948q-56 -267 -230 -404q-175 -137 -454 -137z" />
    <glyph glyph-name="ubreve" unicode="&#x16d;" horiz-adv-x="1159" 
d="M739 1184q-151 0 -233 81q-81 80 -74 224h195q-2 -69 33 -104t98 -35q122 0 168 139h196q-37 -147 -139 -226q-101 -79 -244 -79zM784 465l125 592h258l-225 -1057h-250l31 143q-147 -168 -358 -168q-177 0 -254 116q-76 114 -29 339l135 627h258l-133 -629
q-49 -229 145 -229q110 0 190 68q81 69 105 198h2z" />
    <glyph glyph-name="Uring" unicode="&#x16e;" horiz-adv-x="1417" 
d="M1098 1382q-82 -79 -209 -79t-209 79q-86 77 -86 199q0 121 86 201q83 80 209 80t209 -80q84 -80 84 -201t-84 -199zM799 1495q55 -60 138 -27t77 113q0 53 -36 89t-89 36t-90 -36t-37 -89t37 -86zM633 -31q-298 0 -443 172q-143 167 -71 500l178 817h276l-182 -858
q-43 -193 28 -293q70 -98 238 -98q325 0 394 346l188 903h277l-199 -948q-56 -267 -230 -404q-175 -137 -454 -137z" />
    <glyph glyph-name="uring" unicode="&#x16f;" horiz-adv-x="1159" 
d="M768 1184q-124 0 -207 80q-86 80 -86 200q0 121 86 201q84 78 207 78q122 0 211 -78q84 -79 84 -201q0 -120 -84 -200q-86 -80 -211 -80zM858 1552q-56 60 -138 26q-83 -35 -77 -114q0 -53 36 -89t89 -36q52 0 90 36q37 36 37 89q0 51 -37 88zM784 465l125 592h258
l-225 -1057h-250l31 143q-147 -168 -358 -168q-177 0 -254 116q-76 114 -29 339l135 627h258l-133 -629q-49 -229 145 -229q110 0 190 68q81 69 105 198h2z" />
    <glyph glyph-name="Uhungarumlaut" unicode="&#x170;" horiz-adv-x="1417" 
d="M788 1546h-202l180 295h295zM1198 1546h-203l181 295h294zM633 -31q-298 0 -443 172q-143 167 -71 500l178 817h276l-182 -858q-43 -193 28 -293q70 -98 238 -98q325 0 394 346l188 903h277l-199 -948q-56 -267 -230 -404q-175 -137 -454 -137z" />
    <glyph glyph-name="uhungarumlaut" unicode="&#x171;" horiz-adv-x="1159" 
d="M567 1489h297l-274 -295h-201zM1272 1489l-273 -295h-200l178 295h295zM782 465h2l125 592h258l-225 -1057h-250l31 143q-147 -168 -358 -168q-177 0 -254 116q-76 114 -29 339l135 627h258l-133 -629q-49 -229 145 -229q110 0 190 68q81 69 105 198z" />
    <glyph glyph-name="Uogonek" unicode="&#x172;" horiz-adv-x="1417" 
d="M1051 555l188 903h277l-199 -948q-84 -408 -443 -510h3q-226 -96 -244 -182q-11 -41 15 -64q25 -22 71 -22q40 0 104 16l-32 -154q-59 -20 -150 -20q-111 0 -175 60t-46 153q22 110 174 182q-286 10 -414 185q-127 173 -61 487l178 817h276l-182 -858q-43 -193 28 -293
q70 -98 238 -98q325 0 394 346z" />
    <glyph glyph-name="uogonek" unicode="&#x173;" horiz-adv-x="1159" 
d="M1167 1057l-225 -1057q-224 -95 -246 -182q-8 -42 19 -64q26 -22 67 -22q45 0 105 16l-33 -154q-59 -20 -147 -20q-111 0 -176 60q-64 60 -46 153q12 66 80 123t172 90h-45l31 143q-147 -168 -358 -168q-177 0 -254 116q-76 114 -29 339l135 627h258l-133 -629
q-49 -229 145 -229q110 0 190 68q81 69 105 198h2l125 592h258z" />
    <glyph glyph-name="Wcircumflex" unicode="&#x174;" horiz-adv-x="2002" 
d="M1378 1546l-123 164l-192 -164h-240l299 295h310l178 -295h-232zM1614 870l276 588h293l-715 -1458h-309l-29 606q-7 340 -6 518q-104 -239 -229 -518l-287 -606h-309l-94 1458h282l29 -588q12 -292 12 -561q102 245 246 563l273 586h284l27 -586q6 -273 6 -557
q86 207 250 555z" />
    <glyph glyph-name="wcircumflex" unicode="&#x175;" horiz-adv-x="1691" 
d="M1116 1194l-123 162l-192 -162h-242l299 295h309l181 -295h-232zM1303 662l204 395h283l-571 -1057h-273l-39 434q-16 157 -24 322q-74 -162 -154 -322l-225 -434h-271l-122 1057h268l35 -395q0 -12 18 -252q2 -62 6 -117q157 326 180 371l201 393h246l33 -393
q6 -96 22 -377q50 111 183 375z" />
    <glyph glyph-name="Ycircumflex" unicode="&#x176;" horiz-adv-x="1398" 
d="M1079 1546l-123 164l-192 -164h-240l299 295h310l178 -295h-232zM1055 1196l213 262h317l-735 -883l-121 -575h-276l120 575l-362 883h301l106 -264q67 -171 140 -373q254 319 297 375z" />
    <glyph glyph-name="ycircumflex" unicode="&#x177;" horiz-adv-x="1069" 
d="M838 1194l-123 162l-193 -162h-241l299 295h309l180 -295h-231zM762 791l145 266h273l-650 -1143q-102 -182 -213 -250q-110 -67 -309 -67q-62 0 -112 6l43 202h100q82 0 135 47q55 49 72 117q19 82 -2 230l-123 858h274l29 -264q44 -583 45 -590q100 212 293 588z" />
    <glyph glyph-name="Ydieresis" unicode="&#x178;" horiz-adv-x="1398" 
d="M641 1788h254l-51 -242h-254zM1042 1788h252l-51 -242h-254zM1055 1196l213 262h317l-735 -883l-121 -575h-276l120 575l-362 883h301l106 -264q67 -171 140 -373q254 319 297 375z" />
    <glyph glyph-name="Zacute" unicode="&#x179;" horiz-adv-x="1284" 
d="M952 1841h305l-313 -295h-223zM1417 1458l-47 -223l-696 -680q-250 -239 -328 -311q331 4 416 4h409l-53 -248h-1179l47 225l694 678q73 73 328 311q-331 -4 -418 -4h-363l52 248h1138z" />
    <glyph glyph-name="zacute" unicode="&#x17a;" horiz-adv-x="1021" 
d="M709 1489h282l-262 -295h-201zM1053 1057l-37 -170l-527 -527q-20 -20 -83 -80t-84 -81q66 2 219 2h352l-43 -201h-897l37 170l524 526q21 21 84 81t84 81q-62 -2 -213 -2h-324l43 201h865z" />
    <glyph glyph-name="Zdotaccent" unicode="&#x17b;" horiz-adv-x="1284" 
d="M788 1788h254l-51 -242h-254zM1417 1458l-47 -223l-696 -680q-250 -239 -328 -311q331 4 416 4h409l-53 -248h-1179l47 225l694 678q73 73 328 311q-331 -4 -418 -4h-363l52 248h1138z" />
    <glyph glyph-name="zdotaccent" unicode="&#x17c;" horiz-adv-x="1021" 
d="M559 1436h254l-49 -242h-254zM1053 1057l-37 -170l-527 -527q-20 -20 -83 -80t-84 -81q66 2 219 2h352l-43 -201h-897l37 170l524 526q21 21 84 81t84 81q-62 -2 -213 -2h-324l43 201h865z" />
    <glyph glyph-name="Zcaron" unicode="&#x17d;" horiz-adv-x="1284" 
d="M1321 1841l-297 -295h-309l-180 295h231l123 -164l192 164h240zM1417 1458l-47 -223l-696 -680q-250 -239 -328 -311q331 4 416 4h409l-53 -248h-1179l47 225l694 678q73 73 328 311q-331 -4 -418 -4h-363l52 248h1138z" />
    <glyph glyph-name="zcaron" unicode="&#x17e;" horiz-adv-x="1021" 
d="M1081 1487l-297 -295h-311l-180 295h233l123 -164l193 164h239zM469 856h-324l43 201h865l-37 -170l-527 -527q-20 -20 -83 -80t-84 -81q66 2 219 2h352l-43 -201h-897l37 170l524 526q21 21 84 81t84 81q-62 -2 -213 -2z" />
    <glyph glyph-name="uni018F" unicode="&#x18f;" horiz-adv-x="1509" 
d="M918 1491q338 0 491 -219q153 -220 74 -600q-63 -308 -281 -506q-214 -199 -530 -199q-142 0 -254 42q-114 43 -185 118q-70 74 -111 181q-40 103 -38 232q1 123 35 269h1104q27 214 -60 328q-85 112 -276 112q-289 0 -412 -252h-291q197 494 734 494zM700 207
q173 0 297 106q125 107 185 303h-824q-23 -186 68 -298q90 -111 274 -111z" />
    <glyph glyph-name="florin" unicode="&#x192;" horiz-adv-x="1032" 
d="M1040 1468q92 0 146 -8l-45 -209q-49 9 -86 9q-78 0 -117 -33t-74 -125l-96 -266h211l-43 -197h-240l-256 -713q-73 -201 -166 -276q-92 -74 -282 -74q-90 0 -144 8l43 207q53 -6 89 -6q77 0 116 33t72 125l252 696h-195l43 197h221l103 282q72 201 166 277q91 73 282 73
z" />
    <glyph glyph-name="uni01F4" unicode="&#x1f4;" horiz-adv-x="1566" 
d="M1061 1874h305l-313 -295h-224zM911 1249q-193 0 -330 -133q-139 -135 -188 -360q-56 -254 36 -401q91 -146 294 -146q171 0 303 98q132 96 178 256h-381l49 223h652l-168 -786h-203l2 180q-191 -213 -479 -213q-331 0 -490 219q-159 220 -77 594q67 317 288 514t545 197
q279 0 442 -139q162 -141 156 -379h-283q-7 126 -100 202q-90 74 -246 74z" />
    <glyph glyph-name="uni01F5" unicode="&#x1f5;" horiz-adv-x="1204" 
d="M807 1489h283l-263 -295h-200zM934 913l31 144h249l-219 -1024q-50 -237 -185 -347q-138 -112 -390 -112q-228 0 -341 97q-114 98 -102 272h261q0 -170 204 -170q242 0 299 278l15 70q-123 -117 -297 -117q-230 0 -338 164q-108 166 -51 426q51 230 197 358
q147 129 354 129q221 0 313 -168zM535 217q123 0 209 79q88 80 122 224l6 35q27 152 -29 232q-57 81 -186 81q-127 0 -212 -82t-115 -229q-35 -159 20 -249q55 -91 185 -91z" />
    <glyph glyph-name="Aringacute" unicode="&#x1fa;" horiz-adv-x="1470" 
d="M1214 1581q0 -141 -112 -223l239 -1358h-284l-47 322h-637l-183 -322h-292l817 1380q-86 80 -86 201q0 102 60 176q60 73 161 96l192 246h306l-287 -268q74 -39 113 -102q40 -65 40 -148zM1012 1671q-54 58 -139 24q-84 -34 -78 -114q0 -52 36 -87q38 -36 91 -36t89 36
t36 87q0 50 -35 90zM596 715l-90 -158h467l-23 158q-22 139 -73 499q-224 -400 -281 -499z" />
    <glyph glyph-name="aringacute" unicode="&#x1fb;" horiz-adv-x="1103" 
d="M889 2134h285l-263 -295h-202zM748 1184q-124 0 -207 80q-86 80 -86 200q0 121 86 201q84 78 207 78q122 0 210 -78q84 -79 84 -201q0 -120 -84 -200q-86 -80 -210 -80zM838 1552q-56 61 -139 26q-82 -34 -76 -114q0 -54 35 -89q36 -36 90 -36q52 0 90 36q36 35 36 89
q0 52 -36 88zM662 1081q244 0 338 -94q95 -95 55 -291l-107 -495q-30 -139 0 -201h-258q-15 32 -4 117q-134 -142 -348 -142q-181 0 -272 93q-90 92 -56 254q27 133 135 205q110 73 326 94l170 16q78 7 122 33q40 23 52 78q12 72 -28 106q-41 35 -142 35q-115 0 -170 -36
q-56 -36 -80 -132h-254q44 180 169 270q126 90 352 90zM416 160q115 0 205 65q91 66 120 185l25 106q-51 -34 -143 -45l-131 -14q-198 -23 -222 -146q-16 -70 22 -111q37 -40 124 -40z" />
    <glyph glyph-name="AEacute" unicode="&#x1fc;" horiz-adv-x="2148" 
d="M1753 1841h305l-313 -295h-223zM2294 1458l-51 -248h-730l-71 -344h653l-51 -237h-653l-80 -381h723l-54 -248h-993l76 358h-608l-256 -358h-297l1052 1458h1340zM1073 1223l-448 -629h489l133 629h-174z" />
    <glyph glyph-name="aeacute" unicode="&#x1fd;" horiz-adv-x="1814" 
d="M1094 1489h282l-262 -295h-201zM1341 1081q240 0 353 -159q115 -164 53 -412q0 -4 -3 -12q0 -1 -7 -23q-5 -16 -6 -26h-748q-11 -136 46 -204q57 -69 167 -69q176 0 256 152h236q-129 -353 -514 -353q-260 0 -367 191q-189 -191 -449 -191q-192 0 -285 95t-59 266
q50 247 465 287l162 14q84 10 122 35q38 24 50 78l2 8q15 68 -24 99q-40 32 -144 32q-117 0 -173 -37q-57 -37 -79 -131h-254q45 182 171 271q127 89 362 89q239 0 327 -112q145 112 340 112zM1319 881q-213 0 -301 -252h506q10 113 -44 183q-54 69 -161 69zM420 160
q124 0 212 67q89 68 113 197l5 14q0 32 6 70q-38 -26 -121 -37l-141 -16q-200 -21 -222 -144q-15 -70 25 -111q39 -40 123 -40z" />
    <glyph glyph-name="Oslashacute" unicode="&#x1fe;" horiz-adv-x="1572" 
d="M1079 1874h305l-313 -295h-223zM1448 1556l127 -114l-131 -148q189 -225 106 -606q-68 -321 -301 -518q-238 -203 -551 -203q-209 0 -354 88l-135 -153l-127 112l133 152q-186 221 -104 614q66 315 299 510q237 201 553 201q199 0 350 -86zM391 745q-49 -222 19 -360
l720 813q-79 49 -198 49q-196 0 -342 -135q-148 -137 -199 -367zM1266 713q47 219 -19 358l-723 -813q85 -47 199 -47q197 0 348 137q150 136 195 365z" />
    <glyph glyph-name="oslashacute" unicode="&#x1ff;" horiz-adv-x="1189" 
d="M793 1489h282l-262 -295h-201zM1036 1141l113 -99l-96 -108q133 -163 71 -453q-49 -223 -217 -364q-171 -142 -397 -142q-138 0 -252 54l-100 -115l-111 98l94 107q-137 159 -75 459q49 228 217 364q167 139 397 139q152 0 256 -55zM317 545q-27 -131 0 -223l465 530
q-45 27 -116 27q-126 0 -222 -91q-94 -89 -127 -243zM874 512q27 129 3 219l-465 -528q52 -25 114 -25q131 0 222 88q92 88 126 246z" />
    <glyph glyph-name="uni0218" unicode="&#x218;" horiz-adv-x="1304" 
d="M1319 1024h-268q21 120 -43 182t-228 62q-267 0 -297 -174q-21 -92 34 -144q54 -51 204 -84l121 -24q467 -92 383 -477q-39 -187 -206 -293q-167 -105 -425 -105q-309 0 -455 136q-147 137 -104 378h272q-22 -152 58 -222q79 -69 258 -69q131 0 215 49q82 48 100 132
q22 102 -32 153q-55 52 -218 86l-117 23q-210 43 -309 163q-99 119 -61 310q38 176 195 280q159 105 401 105q299 0 429 -123q131 -123 93 -344zM528 -324h-114l43 203h248l-50 -227q-21 -93 -77 -134t-168 -46l-41 -2l22 100l37 2q75 1 92 74z" />
    <glyph glyph-name="uni0219" unicode="&#x219;" horiz-adv-x="1021" 
d="M1001 723h-243q15 93 -31 134q-44 40 -154 40q-188 0 -211 -115q-12 -59 24 -93q35 -33 128 -50l125 -18q182 -33 253 -120q70 -87 40 -239q-62 -291 -496 -291q-248 0 -357 88t-85 277h252q-8 -99 41 -139q50 -41 170 -41q193 0 217 114q15 66 -23 101q-37 34 -143 55
l-115 18q-342 60 -276 355q29 136 152 209q124 73 327 73q225 0 326 -92q100 -91 79 -266zM365 -319h-115l43 202h248l-49 -227q-21 -92 -78 -134q-56 -41 -168 -46l-41 -2l22 100l37 2q75 1 92 74z" />
    <glyph glyph-name="uni021A" unicode="&#x21a;" horiz-adv-x="1277" 
d="M231 1458h1213l-53 -248h-465l-260 -1210h-279l258 1210h-467zM463 -291h-115l43 203h248l-49 -227q-21 -93 -78 -135q-56 -41 -168 -46l-41 -2l23 101l36 2q77 2 93 73z" />
    <glyph glyph-name="uni021B" unicode="&#x21b;" horiz-adv-x="702" 
d="M727 860h-209l-115 -536q-27 -125 95 -125h88l-43 -199q-69 -6 -119 -6q-170 0 -242 83q-72 82 -37 245l115 538h-164l43 197h162l66 307h258l-66 -307h209zM293 -291h-115l43 203h248l-49 -227q-21 -93 -78 -135q-56 -41 -168 -46l-41 -2l23 101l37 2q77 1 92 73z" />
    <glyph glyph-name="uni0237" unicode="&#x237;" horiz-adv-x="471" 
d="M-94 -408q-57 0 -152 5l43 202h60q48 0 75 27q27 26 43 94l242 1137h258l-248 -1159q-66 -306 -321 -306z" />
    <glyph glyph-name="uni0259" unicode="&#x259;" horiz-adv-x="1161" 
d="M670 1081q243 0 366 -157q119 -160 62 -437q-49 -232 -213 -372t-391 -140q-248 0 -367 162q-121 159 -61 410l18 61h786q12 136 -47 204q-60 69 -176 69q-188 0 -268 -152h-250q136 352 541 352zM516 176q109 0 192 65t126 187h-535q-10 -116 47 -184t170 -68z" />
    <glyph glyph-name="h.sups" unicode="&#x2b0;" horiz-adv-x="958" 
d="M762 1477q158 0 227 -104t29 -292l-115 -544h-235l114 540q44 199 -137 199q-172 0 -229 -180l-115 -559h-235l264 1267h233l-96 -465q130 138 295 138z" />
    <glyph glyph-name="r.sups" unicode="&#x2b3;" horiz-adv-x="659" 
d="M766 1473q47 0 68 -3l-46 -217h-61q-261 0 -313 -258h-2l-97 -458h-233l194 921h228l-31 -143q105 158 293 158z" />
    <glyph glyph-name="circumflex" unicode="&#x2c6;" horiz-adv-x="819" 
d="M766 1489l180 -295h-233l-123 162l-193 -162h-239l299 295h309z" />
    <glyph glyph-name="caron" unicode="&#x2c7;" horiz-adv-x="819" 
d="M569 1323l193 164h239l-296 -295h-312l-178 295h231z" />
    <glyph glyph-name="uni02C9" unicode="&#x2c9;" horiz-adv-x="819" 
d="M881 1194h-652l41 180h652z" />
    <glyph glyph-name="breve" unicode="&#x2d8;" horiz-adv-x="819" 
d="M575 1184q-150 0 -232 82t-75 223h197q-2 -68 33 -104q34 -35 96 -35q121 0 170 139h194q-37 -147 -139 -226q-101 -79 -244 -79z" />
    <glyph glyph-name="dotaccent" unicode="&#x2d9;" horiz-adv-x="819" 
d="M680 1194h-254l49 242h256z" />
    <glyph glyph-name="ring" unicode="&#x2da;" horiz-adv-x="819" 
d="M817 1264q-85 -80 -209 -80t-209 80q-84 80 -84 200q0 122 84 201q84 78 209 78t209 -78q84 -79 84 -201q0 -120 -84 -200zM518 1376q55 -59 138 -26t77 114q0 51 -36 87t-89 36q-52 0 -90 -36q-37 -36 -37 -87q0 -55 37 -88z" />
    <glyph glyph-name="ogonek" unicode="&#x2db;" horiz-adv-x="819" 
d="M256 -426q-110 0 -175 60q-64 60 -46 153q12 66 80 123t172 90h205q-228 -95 -246 -182q-8 -42 18 -64t68 -22q44 0 104 16l-33 -154q-59 -20 -147 -20z" />
    <glyph glyph-name="tilde" unicode="&#x2dc;" horiz-adv-x="819" 
d="M354 1194h-174q57 270 262 270q73 0 164 -47q77 -39 119 -39q57 0 80 86h172q-55 -270 -262 -270q-69 0 -168 49q-83 37 -115 37q-55 0 -78 -86z" />
    <glyph glyph-name="hungarumlaut" unicode="&#x2dd;" horiz-adv-x="819" 
d="M430 1194h-201l179 295h297zM840 1194h-201l178 295h295z" />
    <glyph glyph-name="s.sups" unicode="&#x2e2;" horiz-adv-x="913" 
d="M500 512q-210 0 -311 79t-85 236h228q-2 -80 43 -114q46 -35 145 -35q159 0 174 94q11 56 -21 83q-32 28 -126 44l-105 16q-293 53 -237 314q51 248 418 248q197 0 291 -83q93 -83 75 -229h-219q7 76 -34 112q-42 36 -130 36q-154 0 -172 -96q-12 -53 18 -80t107 -39
l115 -17q310 -45 254 -311q-51 -258 -428 -258z" />
    <glyph glyph-name="gravecomb" unicode="&#x300;" 
d="M375 1194h-201l-139 295h284z" />
    <glyph glyph-name="acutecomb" unicode="&#x301;" 
d="M111 1194h-201l180 295h283z" />
    <glyph glyph-name="uni0302" unicode="&#x302;" 
d="M354 1489l181 -295h-232l-123 162l-192 -162h-242l299 295h309z" />
    <glyph glyph-name="tildecomb" unicode="&#x303;" 
d="M-84 1194h-174q57 270 262 270q66 0 166 -47q76 -39 117 -39q62 0 80 86h172q-55 -270 -263 -270q-66 0 -167 49q-83 37 -115 37q-55 0 -78 -86z" />
    <glyph glyph-name="uni0304" unicode="&#x304;" 
d="M449 1194h-654l39 180h653z" />
    <glyph glyph-name="uni0306" unicode="&#x306;" 
d="M166 1184q-152 0 -234 81q-81 79 -73 224h194q-2 -68 34 -104q35 -35 97 -35q122 0 168 139h197q-37 -147 -139 -226q-101 -79 -244 -79z" />
    <glyph glyph-name="uni0307" unicode="&#x307;" 
d="M246 1194h-254l49 242h254z" />
    <glyph glyph-name="uni0308" unicode="&#x308;" 
d="M41 1194h-254l53 242h254zM442 1194h-254l54 242h252z" />
    <glyph glyph-name="uni030A" unicode="&#x30a;" 
d="M205 1184q-123 0 -209 80q-84 80 -84 200q0 122 84 201q88 78 209 78q123 0 211 -78q84 -79 84 -201q0 -120 -84 -200q-86 -80 -211 -80zM117 1376q52 -59 137 -26q84 33 78 114q0 51 -37 87t-90 36t-89 -36t-36 -87q0 -55 37 -88z" />
    <glyph glyph-name="uni030B" unicode="&#x30b;" 
d="M-100 1194h-201l178 295h297zM309 1194h-200l178 295h295z" />
    <glyph glyph-name="uni030C" unicode="&#x30c;" 
d="M166 1323l192 164h240l-297 -295h-311l-180 295h233z" />
    <glyph glyph-name="uni0312" unicode="&#x312;" 
d="M287 1501h-37q-80 -2 -92 -76l-6 -28h112l-43 -203h-248l50 227q21 91 78 133q58 43 167 48l39 2z" />
    <glyph glyph-name="uni0313" unicode="&#x313;" 
d="M18 1395l43 204h246l-47 -229q-38 -170 -246 -180h-41l23 100l37 2q77 1 92 74l6 29h-113z" />
    <glyph glyph-name="dotbelowcomb" unicode="&#x323;" 
d="M-90 -379h-254l51 242h254z" />
    <glyph glyph-name="uni0324" unicode="&#x324;" 
d="M-293 -379h-254l53 242h252zM109 -379h-254l51 242h254z" />
    <glyph glyph-name="uni0325" unicode="&#x325;" 
d="M12 -606q-84 -78 -207 -78q-122 0 -206 78q-82 76 -82 196q0 117 83 195q82 78 205 78q125 0 208 -77t83 -196q0 -118 -84 -196zM-285 -498q53 -57 139 -24q84 32 78 112q0 52 -36 87q-38 36 -91 36t-89 -36q-35 -35 -35 -87q0 -54 34 -88z" />
    <glyph glyph-name="uni0326" unicode="&#x326;" 
d="M-340 -291l43 203h248l-49 -227q-21 -93 -78 -135q-56 -41 -168 -46l-41 -2l23 101l36 2q77 2 93 73l8 31h-115z" />
    <glyph glyph-name="uni0327" unicode="&#x327;" 
d="M-164 -88h19q91 0 141 -54t33 -134q-41 -170 -318 -170q-81 0 -155 12l22 108q53 -8 129 -8q113 0 129 78q7 39 -17 62q-26 24 -83 24q-29 0 -51 -2l16 78l104 104h138z" />
    <glyph glyph-name="uni0328" unicode="&#x328;" 
d="M-168 -426q-110 0 -175 60q-64 60 -46 153q15 67 81 124q64 55 171 89h205q-226 -96 -244 -182q-11 -41 15 -64q25 -22 71 -22q40 0 104 16l-32 -154q-59 -20 -150 -20z" />
    <glyph glyph-name="uni032E" unicode="&#x32e;" 
d="M-180 -442q-151 0 -233 82t-74 223h194q-2 -66 34 -102q35 -35 97 -35q125 0 170 137h195q-37 -145 -140 -225t-243 -80z" />
    <glyph glyph-name="uni0331" unicode="&#x331;" 
d="M127 -317h-653l39 180h653z" />
    <glyph glyph-name="uni0335" unicode="&#x335;" 
d="M299 477h-651l35 160h651z" />
    <glyph glyph-name="uni0337" unicode="&#x337;" 
d="M440 1040l-991 -1128l-113 98l994 1129z" />
    <glyph glyph-name="uni0338" unicode="&#x338;" 
d="M637 1432l-1368 -1543l-127 113l1366 1542z" />
    <glyph glyph-name="uni0394" unicode="&#x394;" horiz-adv-x="1386" 
d="M438 1458h324l485 -1222v-236h-1284v236zM598 1210q-89 -269 -176 -495l-176 -471h710l-178 471q-92 241 -180 495z" />
    <glyph glyph-name="uni03A9" unicode="&#x3a9;" horiz-adv-x="1593" 
d="M684 0h-645v242h317v4q-303 206 -303 571q0 310 197 490q194 182 524 182q334 0 529 -180q194 -182 194 -492q0 -364 -299 -571v-4h318v-242h-644v215q168 84 256 229q89 146 89 332q0 228 -116 350q-115 121 -321 121q-209 0 -327 -121q-119 -122 -119 -350
q0 -186 90 -332q89 -144 260 -229v-215z" />
    <glyph glyph-name="uni03BC" unicode="&#x3bc;" horiz-adv-x="1382" 
d="M909 465v592h258v-1057h-249v154q-117 -179 -324 -179q-60 0 -123 29v-405h-254v1458h258v-658q0 -200 199 -200q103 0 169 70q66 71 66 196z" />
    <glyph glyph-name="pi" unicode="&#x3c0;" horiz-adv-x="1456" 
d="M1319 1057v-197h-162v-590q0 -41 15 -59t55 -18h69v-193q-82 -8 -133 -8q-145 0 -204 59q-60 60 -60 199v610h-340v-860h-256v860h-164v197h1180z" />
    <glyph glyph-name="d.sups" unicode="&#x1d48;" horiz-adv-x="1042" 
d="M905 1325l103 479h235l-270 -1267h-228l23 112q-111 -133 -279 -133q-198 0 -292 143q-94 141 -43 390q44 197 169 312q127 116 308 116q202 0 274 -152zM403 786q46 -79 154 -79q106 0 178 73q73 78 103 211q28 139 -24 217t-163 78q-204 0 -264 -270q-33 -151 16 -230z
" />
    <glyph glyph-name="t.sups" unicode="&#x1d57;" horiz-adv-x="634" 
d="M758 1280h-180l-97 -449q-24 -112 80 -112h78l-41 -178q-61 -9 -111 -9q-302 0 -239 310l94 438h-141l37 178h141l57 268h236l-58 -268h181z" />
    <glyph glyph-name="Wgrave" unicode="&#x1e80;" horiz-adv-x="2002" 
d="M1192 1841l117 -295h-199l-203 295h285zM1614 870l276 588h293l-715 -1458h-309l-29 606q-7 340 -6 518q-104 -239 -229 -518l-287 -606h-309l-94 1458h282l29 -588q12 -292 12 -561q102 245 246 563l273 586h284l27 -586q6 -273 6 -557q86 207 250 555z" />
    <glyph glyph-name="wgrave" unicode="&#x1e81;" horiz-adv-x="1691" 
d="M1016 1489l55 -295h-201l-139 295h285zM1303 662l204 395h283l-571 -1057h-273l-39 434q-16 157 -24 322q-74 -162 -154 -322l-225 -434h-271l-122 1057h268l35 -395q0 -12 18 -252q2 -62 6 -117q157 326 180 371l201 393h246l33 -393q6 -96 22 -377q50 111 183 375z" />
    <glyph glyph-name="Wacute" unicode="&#x1e82;" horiz-adv-x="2002" 
d="M1303 1841h305l-314 -295h-223zM1614 870l276 588h293l-715 -1458h-309l-29 606q-7 340 -6 518q-104 -239 -229 -518l-287 -606h-309l-94 1458h282l29 -588q12 -292 12 -561q102 245 246 563l273 586h284l27 -586q6 -273 6 -557q86 207 250 555z" />
    <glyph glyph-name="wacute" unicode="&#x1e83;" horiz-adv-x="1691" 
d="M1028 1489h283l-262 -295h-201zM1303 662l204 395h283l-571 -1057h-273l-39 434q-16 157 -24 322q-74 -162 -154 -322l-225 -434h-271l-122 1057h268l35 -395q0 -12 18 -252q2 -62 6 -117q157 326 180 371l201 393h246l33 -393q6 -96 22 -377q50 111 183 375z" />
    <glyph glyph-name="Wdieresis" unicode="&#x1e84;" horiz-adv-x="2002" 
d="M938 1788h254l-51 -242h-254zM1339 1788h252l-51 -242h-254zM1614 870l276 588h293l-715 -1458h-309l-29 606q-7 340 -6 518q-104 -239 -229 -518l-287 -606h-309l-94 1458h282l29 -588q12 -292 12 -561q102 245 246 563l273 586h284l27 -586q6 -273 6 -557
q86 207 250 555z" />
    <glyph glyph-name="wdieresis" unicode="&#x1e85;" horiz-adv-x="1691" 
d="M680 1436h254l-53 -242h-254zM1081 1436h252l-51 -242h-254zM1303 662l204 395h283l-571 -1057h-273l-39 434q-16 157 -24 322q-74 -162 -154 -322l-225 -434h-271l-122 1057h268l35 -395q0 -12 18 -252q2 -62 6 -117q157 326 180 371l201 393h246l33 -393q6 -96 22 -377
q50 111 183 375z" />
    <glyph glyph-name="uni1E9E" unicode="&#x1e9e;" horiz-adv-x="1415" 
d="M1489 1434l-39 -195l-420 -391q184 -37 268 -160t45 -301q-44 -198 -201 -300q-158 -103 -423 -103q-130 0 -266 22l47 225q111 -18 233 -18q293 0 332 201q23 114 -46 177q-68 62 -216 62q-36 0 -127 -4l41 191l442 405q-108 15 -254 15q-204 0 -311 -86
q-105 -84 -143 -259l-195 -915h-274l192 909q62 283 261 431q200 149 519 149q278 0 535 -55z" />
    <glyph glyph-name="Ygrave" unicode="&#x1ef2;" horiz-adv-x="1398" 
d="M895 1841l117 -295h-199l-203 295h285zM1055 1196l213 262h317l-735 -883l-121 -575h-276l120 575l-362 883h301l106 -264q67 -171 140 -373q254 319 297 375z" />
    <glyph glyph-name="ygrave" unicode="&#x1ef3;" horiz-adv-x="1069" 
d="M793 1194h-201l-139 295h284zM762 791l145 266h273l-650 -1143q-102 -182 -213 -250q-110 -67 -309 -67q-62 0 -112 6l43 202h100q82 0 135 47q55 49 72 117q19 82 -2 230l-123 858h274l29 -264q44 -583 45 -590q100 212 293 588z" />
    <glyph glyph-name="thinspace" unicode="&#x2009;" horiz-adv-x="466" 
 />
    <glyph glyph-name="uni2011" unicode="&#x2011;" horiz-adv-x="745" 
d="M662 465h-609l47 221h609z" />
    <glyph glyph-name="endash" unicode="&#x2013;" horiz-adv-x="1081" 
d="M1008 465h-947l43 221h945z" />
    <glyph glyph-name="emdash" unicode="&#x2014;" horiz-adv-x="1990" 
d="M1927 465h-1855l51 221h1855z" />
    <glyph glyph-name="quoteleft" unicode="&#x2018;" horiz-adv-x="438" 
d="M557 1460l-27 -141q-74 -5 -104 -33q-32 -30 -49 -110l-4 -23h123l-60 -274h-280l61 290q33 154 111 220q77 65 229 71z" />
    <glyph glyph-name="quoteright" unicode="&#x2019;" horiz-adv-x="438" 
d="M221 1184l58 274h280l-61 -289q-33 -153 -111 -219q-77 -65 -229 -71l26 141q75 5 105 32q31 28 49 111l4 21h-121z" />
    <glyph glyph-name="quotesinglbase" unicode="&#x201a;" horiz-adv-x="438" 
d="M-29 0l58 274h282l-63 -288q-33 -152 -110 -219q-76 -66 -230 -72l29 141q75 5 104 34q31 30 47 110l4 20h-121z" />
    <glyph glyph-name="quotedblleft" unicode="&#x201c;" horiz-adv-x="808" 
d="M352 1174l-4 -21h121l-57 -274h-283l61 288q33 153 111 219t231 72l-28 -141q-75 -5 -105 -33q-31 -29 -47 -110zM903 1458l-26 -141q-75 -5 -105 -33q-32 -30 -49 -110l-4 -21h123l-60 -274h-280l61 288q33 153 111 219t229 72z" />
    <glyph glyph-name="quotedblright" unicode="&#x201d;" horiz-adv-x="808" 
d="M221 1184l58 274h280l-61 -289q-33 -153 -111 -219q-77 -65 -229 -71l26 141q75 5 105 32q31 28 49 111l4 21h-121zM592 1184l57 274h283l-62 -289q-33 -154 -110 -219t-232 -71l29 141q75 4 106 32q29 26 46 111l4 21h-121z" />
    <glyph glyph-name="quotedblbase" unicode="&#x201e;" horiz-adv-x="808" 
d="M-31 0l58 274h282l-61 -288q-33 -153 -111 -219t-231 -72l28 141q75 4 106 32q29 26 46 112l4 20h-121zM340 0l59 274h281l-62 -288q-33 -154 -110 -219q-78 -66 -229 -72l26 141q75 5 105 32q31 28 49 112l4 20h-123z" />
    <glyph glyph-name="dagger" unicode="&#x2020;" horiz-adv-x="1214" 
d="M858 1057h436l-51 -238h-434l-238 -1118h-280l237 1118h-436l53 238h433l86 401h280z" />
    <glyph glyph-name="daggerdbl" unicode="&#x2021;" horiz-adv-x="1214" 
d="M1296 1057l-53 -238h-434l-102 -479h436l-51 -238h-435l-86 -401h-278l86 401h-438l53 238h434l102 479h-436l51 238h435l86 401h278l-86 -401h438z" />
    <glyph glyph-name="bullet" unicode="&#x2022;" horiz-adv-x="757" 
d="M596 330h-518l106 506h521z" />
    <glyph glyph-name="ellipsis" unicode="&#x2026;" horiz-adv-x="1476" 
d="M266 0h-301l64 293h299zM782 0h-301l64 293h299zM1286 0h-299l62 293h301z" />
    <glyph glyph-name="perthousand" unicode="&#x2030;" horiz-adv-x="2639" 
d="M442 596q-144 0 -224 80q-79 79 -79 233q0 69 19 166q85 402 409 402q143 0 223 -80q78 -78 78 -232q0 -71 -18 -161q-86 -408 -408 -408zM520 0h-194l1089 1458h195zM459 752q79 0 125 63q48 65 78 201q16 76 16 141q0 162 -127 162q-77 0 -127 -64q-49 -63 -78 -200
q-16 -92 -16 -140q0 -163 129 -163zM1362 -16q-145 0 -223 79t-78 234q0 75 18 166q85 401 408 401q144 0 224 -80q79 -79 79 -231q0 -73 -18 -162q-85 -407 -410 -407zM2159 -16q-146 0 -225 79t-79 234q0 69 19 166q85 401 407 401q145 0 225 -80q79 -79 79 -231
q0 -69 -19 -162q-85 -407 -407 -407zM1378 139q78 0 125 64q48 66 78 200q18 84 18 142q0 162 -129 162q-77 0 -125 -63q-49 -64 -77 -202q-19 -87 -19 -139q0 -164 129 -164zM2175 139q78 0 125 64q48 66 78 200q16 76 16 142q0 162 -127 162q-77 0 -127 -64
q-49 -62 -78 -201q-18 -82 -18 -139q0 -164 131 -164z" />
    <glyph glyph-name="guilsinglleft" unicode="&#x2039;" horiz-adv-x="587" 
d="M147 668l408 284l-55 -262l-236 -164l166 -164l-51 -245l-289 284z" />
    <glyph glyph-name="guilsinglright" unicode="&#x203a;" horiz-adv-x="587" 
d="M158 707l49 245l289 -284l-58 -267l-407 -284l57 262l236 164z" />
    <glyph glyph-name="uni203D" unicode="&#x203d;" horiz-adv-x="1087" 
d="M735 1491q226 0 352 -109q123 -108 76 -309q-34 -163 -250 -305q-166 -107 -213 -166q-35 -42 -63 -158h-248l84 424l107 275h165l-18 -246q138 89 160 180q41 193 -180 193q-123 0 -194 -62t-105 -200h-261q49 248 194 366q144 117 394 117zM567 0h-299l64 293h299z" />
    <glyph glyph-name="fraction" unicode="&#x2044;" horiz-adv-x="636" 
d="M-88 0h-191l1090 1458h190z" />
    <glyph glyph-name="zero.sups" unicode="&#x2070;" horiz-adv-x="794" 
d="M543 1065q-181 0 -258 123q-76 123 -27 356q86 402 410 402q179 0 256 -122q76 -120 26 -351q-86 -408 -407 -408zM559 1221q79 0 125 63q48 65 78 201q63 303 -111 303q-80 0 -127 -64q-48 -66 -78 -200q-63 -303 113 -303z" />
    <glyph glyph-name="four.sups" unicode="&#x2074;" horiz-adv-x="780" 
d="M834 1427h112l-35 -159h-112l-39 -187h-197l39 187h-401l41 186l497 473h201zM705 1720l-312 -293h248z" />
    <glyph glyph-name="five.sups" unicode="&#x2075;" horiz-adv-x="729" 
d="M518 1065q-141 0 -227 69q-85 69 -84 183l180 4q0 -50 40 -80q42 -31 103 -31q134 0 164 142q17 74 -19 117q-36 44 -106 44q-98 0 -147 -77h-178l190 491h520l-32 -153h-377l-74 -179q58 52 156 52q133 0 200 -88t37 -230q-26 -119 -119 -192q-91 -72 -227 -72z" />
    <glyph glyph-name="six.sups" unicode="&#x2076;" horiz-adv-x="751" 
d="M635 1651q135 0 206 -89t42 -229q-24 -123 -116 -195q-93 -73 -224 -73q-146 0 -234 88q-106 110 -55 395q88 396 414 396q125 0 203 -64t79 -170h-176q-8 92 -127 92q-158 0 -213 -211l-6 -30q84 90 207 90zM709 1350q15 70 -20 114q-34 43 -101 43t-114 -34
q-48 -34 -60 -87q-18 -81 21 -128q41 -48 118 -48q60 0 103 38q42 38 53 102z" />
    <glyph glyph-name="seven.sups" unicode="&#x2077;" horiz-adv-x="665" 
d="M473 1081h-205q46 201 160 386q113 184 266 307h-411l32 153h598l-32 -153q-161 -136 -258 -299q-98 -165 -150 -394z" />
    <glyph glyph-name="eight.sups" unicode="&#x2078;" horiz-adv-x="759" 
d="M520 1065q-161 0 -249 77q-87 77 -60 208q12 65 61 114q50 50 131 68q-100 69 -73 201q21 100 105 155q86 56 216 56q143 0 220 -74t53 -191q-24 -107 -144 -151q138 -64 101 -236q-21 -101 -118 -164t-243 -63zM608 1583q62 0 103 27q42 28 49 76q15 54 -19 89
q-32 33 -100 33q-128 0 -149 -98q-15 -56 19 -91q35 -36 97 -36zM535 1208q66 0 113 32t59 85q15 67 -22 105q-35 36 -116 36q-154 0 -178 -120q-12 -66 28 -102t116 -36z" />
    <glyph glyph-name="nine.sups" unicode="&#x2079;" horiz-adv-x="751" 
d="M500 1065q-129 0 -204 62q-77 63 -81 169h178q8 -92 125 -92q80 0 131 51t84 162q4 19 4 25q-84 -84 -207 -84q-135 0 -204 89q-70 89 -41 226q24 123 116 197t222 74q147 0 233 -91q107 -104 55 -395q-84 -393 -411 -393zM477 1544q34 -43 103 -45q68 -2 114 37
q49 39 60 86q18 77 -23 127q-40 49 -117 49q-60 0 -103 -38q-42 -37 -54 -101q-15 -69 20 -115z" />
    <glyph glyph-name="plus.sups" unicode="&#x207a;" horiz-adv-x="632" 
d="M592 1579h196v-154h-196v-196h-170v196h-195v154h195v199h170v-199z" />
    <glyph glyph-name="minus.sups" unicode="&#x207b;" horiz-adv-x="632" 
d="M786 1425h-559v154h559v-154z" />
    <glyph glyph-name="parenleft.sups" unicode="&#x207d;" horiz-adv-x="354" 
d="M444 922h-180q-62 274 4 581q39 175 94 309q50 126 152 279h180q-180 -281 -243 -588q-60 -279 -7 -581z" />
    <glyph glyph-name="parenright.sups" unicode="&#x207e;" horiz-adv-x="354" 
d="M254 922h-180q177 274 245 587q60 288 5 582h180q31 -144 35 -276q0 -125 -37 -306q-38 -182 -91 -306q-51 -119 -157 -281z" />
    <glyph glyph-name="n.sups" unicode="&#x207f;" horiz-adv-x="958" 
d="M762 1477q158 0 227 -104t29 -292l-115 -544h-235l114 540q44 199 -137 199q-180 0 -231 -205l-113 -534h-235l194 919h227l-26 -125q128 146 301 146z" />
    <glyph glyph-name="zero.subs" unicode="&#x2080;" horiz-adv-x="794" 
d="M227 -418q-181 0 -258 123q-76 122 -26 356q85 402 409 402q179 0 256 -122q76 -121 27 -351q-85 -408 -408 -408zM244 -262q78 0 125 63t77 201q63 303 -110 303q-80 0 -127 -63q-48 -65 -78 -201q-63 -303 113 -303z" />
    <glyph glyph-name="one.subs" unicode="&#x2081;" horiz-adv-x="505" 
d="M223 444h160l-180 -845h-197l119 565h-193l29 137q93 0 155 31q61 31 107 112z" />
    <glyph glyph-name="two.subs" unicode="&#x2082;" horiz-adv-x="710" 
d="M481 -401h-647l16 69q63 247 336 359l70 28q152 66 164 133q10 56 -19 87q-28 30 -92 30q-137 0 -159 -135h-181q55 289 359 289q151 0 227 -76t47 -201q-17 -82 -88 -146q-68 -62 -203 -118l-63 -24q-135 -56 -170 -142h436z" />
    <glyph glyph-name="three.subs" unicode="&#x2083;" horiz-adv-x="737" 
d="M203 -418q-162 0 -248 83q-87 84 -66 224h177q-10 -71 27 -113t120 -42q135 0 156 104q29 137 -125 137h-60l29 129h61q139 0 160 95q15 54 -19 85t-98 31q-124 0 -157 -118h-178q62 264 348 264q148 0 228 -71q78 -69 54 -189q-12 -55 -55 -100q-43 -46 -104 -64
q62 -24 89 -81t9 -136q-24 -111 -116 -174q-93 -64 -232 -64z" />
    <glyph glyph-name="four.subs" unicode="&#x2084;" horiz-adv-x="780" 
d="M518 -55h113l-35 -160h-113l-39 -186h-196l39 186h-402l41 186l498 473h201zM389 238l-311 -293h248z" />
    <glyph glyph-name="five.subs" unicode="&#x2085;" horiz-adv-x="729" 
d="M203 -418q-142 0 -228 69q-85 69 -84 183l181 4q0 -50 40 -80t103 -30q134 0 164 141q17 74 -20 118q-36 44 -105 44q-98 0 -148 -78h-178l191 491h520l-33 -153h-377l-73 -178q57 51 155 51q134 0 201 -88t37 -230q-26 -119 -119 -192q-91 -72 -227 -72z" />
    <glyph glyph-name="six.subs" unicode="&#x2086;" horiz-adv-x="751" 
d="M322 168q135 0 204 -89q70 -89 41 -229q-22 -120 -114 -194t-224 -74q-145 0 -233 88q-108 108 -55 396q88 395 411 395q126 0 205 -64q78 -63 80 -170h-178q-8 92 -125 92q-158 0 -213 -210q-6 -29 -8 -31q85 90 209 90zM395 -133q15 72 -19 115t-102 43q-66 0 -115 -35
t-61 -86q-18 -80 22 -128q41 -48 118 -48q60 0 103 38q42 37 54 101z" />
    <glyph glyph-name="seven.subs" unicode="&#x2087;" horiz-adv-x="665" 
d="M158 -401h-205q46 201 160 386q112 182 266 306h-412l33 153h598l-33 -153q-161 -136 -258 -299t-149 -393z" />
    <glyph glyph-name="eight.subs" unicode="&#x2088;" horiz-adv-x="759" 
d="M205 -418q-161 0 -249 77q-87 77 -60 208q12 66 61 115t131 67q-101 69 -74 201q21 101 106 156t216 55q143 0 220 -74q76 -73 52 -190q-24 -108 -143 -152q137 -63 100 -235q-21 -101 -118 -164q-99 -64 -242 -64zM293 100q61 0 102 27q42 28 49 76q15 55 -18 89
t-100 34q-129 0 -150 -99q-15 -55 20 -91q34 -36 97 -36zM219 -274q68 0 114 31t58 85q15 68 -21 105t-116 37q-154 0 -178 -121q-12 -67 27 -102t116 -35z" />
    <glyph glyph-name="nine.subs" unicode="&#x2089;" horiz-adv-x="751" 
d="M184 -418q-126 0 -203 63t-81 169h178q8 -93 125 -93q79 0 131 52q51 51 84 161q4 19 4 25q-84 -84 -207 -84q-136 0 -205 89q-70 89 -41 226q24 122 117 197q92 74 221 74q148 0 234 -90q108 -105 55 -396q-84 -393 -412 -393zM162 61q34 -43 102 -45q69 -2 115 37
q47 38 59 86q18 78 -22 127t-117 49q-62 0 -103 -37q-43 -38 -55 -102q-15 -68 21 -115z" />
    <glyph glyph-name="plus.subs" unicode="&#x208a;" horiz-adv-x="632" 
d="M293 96h194v-153h-194v-197h-170v197h-195v153h195v199h170v-199z" />
    <glyph glyph-name="minus.subs" unicode="&#x208b;" horiz-adv-x="632" 
d="M487 -57h-559v153h559v-153z" />
    <glyph glyph-name="equal.subs" unicode="&#x208c;" horiz-adv-x="632" 
d="M487 70h-559v149h559v-149zM487 -178h-559v149h559v-149z" />
    <glyph glyph-name="uni208D" unicode="&#x208d;" horiz-adv-x="354" 
d="M127 -563h-180q-62 274 4 581q40 177 94 310q50 127 152 276h180q-177 -278 -244 -586q-57 -273 -6 -581z" />
    <glyph glyph-name="uni208E" unicode="&#x208e;" horiz-adv-x="354" 
d="M-57 -563h-181q181 284 244 586q59 276 6 581h181q61 -271 -5 -581q-39 -175 -92 -310q-58 -136 -153 -276z" />
    <glyph glyph-name="n.subs" unicode="&#x2099;" horiz-adv-x="958" 
d="M563 539q159 0 228 -104q69 -103 28 -292l-114 -544h-236l115 540q44 199 -138 199q-180 0 -231 -205l-113 -534h-235l194 919h228l-27 -125q128 146 301 146z" />
    <glyph glyph-name="Euro" unicode="&#x20ac;" horiz-adv-x="1476" 
d="M858 516h-381q10 -313 295 -313q286 0 404 303h270q-189 -539 -701 -539q-248 0 -396 145q-146 143 -152 404h-187l33 148h162q6 76 20 124l6 29h-155l33 150h170q95 245 279 384q185 140 427 140q260 0 397 -134q138 -135 150 -380h-270q-28 276 -308 276
q-260 0 -389 -286h391l-32 -150h-410q-3 -10 -10 -45q-15 -75 -19 -108h406z" />
    <glyph glyph-name="uni20B8" unicode="&#x20b8;" horiz-adv-x="1277" 
d="M178 1210l53 248h1213l-53 -248h-1213zM551 768h-467l53 248h1213l-54 -248h-465l-165 -768h-279z" />
    <glyph glyph-name="uni20B9" unicode="&#x20b9;" horiz-adv-x="1280" 
d="M1393 1458l-31 -147h-289q78 -90 84 -213h162l-31 -146h-149q-45 -172 -194 -268q-148 -96 -370 -96h-112l485 -588h-344l-495 606l20 99l16 71h400q245 0 313 176h-674l29 146h668q-12 178 -258 178h-371l37 182h1104z" />
    <glyph glyph-name="uni20BA" unicode="&#x20ba;" horiz-adv-x="1255" 
d="M950 762h287q-77 -367 -315 -563q-241 -199 -627 -199h-277l136 633l-160 -64l33 158l161 66l31 145l-162 -66l35 158l160 64l78 364h276l-51 -241l397 159l-32 -157l-400 -160l-31 -146l400 160l-35 -158l-397 -159l-111 -512q242 1 398 136q155 134 206 382z" />
    <glyph glyph-name="uni20BC" unicode="&#x20bc;" horiz-adv-x="1544" 
d="M1102 1458l-78 -362q254 -5 367 -152t57 -414l-115 -530h-276l123 551q66 296 -205 311l-148 -692h-268l148 694h-11q-139 0 -211 -62q-73 -62 -100 -194l-129 -608h-270l133 627q49 233 194 351t412 118h31l78 362h268z" />
    <glyph glyph-name="uni20BF" unicode="&#x20bf;" horiz-adv-x="1349" 
d="M1360 1042q-43 -200 -260 -282q108 -51 156 -156q46 -101 22 -227q-38 -168 -163 -264q-126 -96 -337 -111l-51 -240h-152l52 238h-160l-51 -238h-152l51 238h-307l309 1458h308l49 238h151l-49 -238h154h6l49 238h152l-54 -252q166 -35 237 -142q73 -109 40 -260z
M893 1231h-348l-80 -379h356q111 0 179 49t85 135q21 92 -29 144q-50 51 -163 51zM1004 418q24 105 -34 160t-177 55h-373l-86 -404h407q107 0 177 51q68 50 86 138z" />
    <glyph glyph-name="uni2105" unicode="&#x2105;" horiz-adv-x="2050" 
d="M510 600q-198 0 -299 131q-102 130 -53 350q39 186 166 293q129 109 313 109q157 0 255 -91q99 -92 99 -239h-198q-5 73 -54 117q-49 43 -125 43q-204 0 -256 -256q-30 -134 17 -211q46 -76 155 -76q167 0 224 168h196q-107 -338 -440 -338zM643 0h-194l1089 1458h195z
M1493 -18q-202 0 -307 129q-106 127 -60 348q39 184 169 294q131 111 317 111q199 0 307 -129q107 -131 57 -354q-39 -182 -167 -291q-127 -108 -316 -108zM1511 154q100 0 169 68q72 71 96 186q28 130 -24 207q-53 77 -163 77q-99 0 -167 -67q-69 -67 -93 -185
q-28 -133 23 -210q51 -76 159 -76z" />
    <glyph glyph-name="uni2113" unicode="&#x2113;" horiz-adv-x="956" 
d="M600 180q102 0 180 64l72 -150q-128 -114 -311 -114q-147 0 -229 88q-83 89 -83 237v111q-33 -7 -145 -17l-27 158q87 6 172 25v518q0 188 90 290q89 101 261 101q307 0 307 -358q0 -215 -103 -382q-102 -165 -299 -257v-172q0 -67 32 -105q31 -37 83 -37zM485 1102v-410
q213 152 213 432q0 162 -98 162q-115 0 -115 -184z" />
    <glyph glyph-name="uni2116" unicode="&#x2116;" horiz-adv-x="2326" 
d="M2056 1479q156 0 248 -86t92 -234q0 -191 -127 -346q-128 -154 -340 -154q-155 0 -249 86q-93 85 -93 234q0 191 127 346q125 154 342 154zM1178 1077l82 381h266l-312 -1458h-301l-268 649q-103 253 -170 453q-49 -272 -143 -721l-82 -381h-266l311 1458h299l270 -649
q115 -286 170 -457q87 453 144 725zM1956 862q95 0 155 77t60 185q0 75 -37 115q-38 41 -104 41q-101 0 -158 -80q-60 -82 -60 -184q0 -73 38 -114q37 -40 106 -40z" />
    <glyph glyph-name="uni2117" unicode="&#x2117;" horiz-adv-x="1665" 
d="M319 1272q221 221 553 221t553 -221q222 -222 222 -543q0 -322 -222 -541q-221 -221 -553 -221t-553 221t-221 541q0 322 221 543zM872 147q252 0 418 168q164 169 164 414q0 246 -164 416q-166 166 -418 166q-251 0 -413 -166q-164 -170 -164 -416q0 -245 164 -414
q162 -168 413 -168zM600 1137h342q141 0 225 -78t84 -203t-84 -203t-225 -78h-158v-256h-184v818zM784 741h152q61 0 96 32t35 83q0 54 -34 84q-36 31 -97 31h-152v-230z" />
    <glyph glyph-name="trademark" unicode="&#x2122;" horiz-adv-x="1345" 
d="M399 1348h-159v110h438v-110h-158v-414h-121v414zM1053 1212l86 246h159v-524h-116v164q0 116 2 168l-13 -39l-100 -293h-98l-103 293q-6 21 -12 37q2 -52 2 -166v-164h-117v524h160l88 -250l31 -98q11 50 31 102z" />
    <glyph glyph-name="uni2126" unicode="&#x2126;" horiz-adv-x="1593" 
d="M684 0h-645v242h317v4q-303 206 -303 571q0 310 197 490q194 182 524 182q334 0 529 -180q194 -182 194 -492q0 -364 -299 -571v-4h318v-242h-644v215q168 84 256 229q89 146 89 332q0 228 -116 350q-115 121 -321 121q-209 0 -327 -121q-119 -122 -119 -350
q0 -186 90 -332q89 -144 260 -229v-215z" />
    <glyph glyph-name="estimated" unicode="&#x212e;" horiz-adv-x="1865" 
d="M330 1276q224 215 604 215q379 0 604 -225q223 -224 223 -557h-1323q-28 0 -28 -27v-360q0 -68 32 -97q200 -196 492 -196q153 0 290 64t226 171h149q-89 -126 -263 -209q-171 -82 -402 -82q-373 0 -602 213q-230 212 -230 543q0 328 228 547zM934 1434q-291 0 -492 -201
q-32 -29 -32 -90v-361q0 -26 28 -26h985q29 0 29 26v361q0 60 -33 90q-205 201 -485 201z" />
    <glyph glyph-name="uni2153" unicode="&#x2153;" horiz-adv-x="1589" 
d="M293 0h-191l1090 1458h190zM414 612h-193l121 572h-192l26 131q91 0 155 32q62 31 107 111h154zM1141 -16q-163 0 -249 83t-65 224h174q-10 -72 29 -114t121 -42q132 0 156 105q29 137 -125 137h-60l29 129h61q136 0 160 94q15 54 -19 85q-35 32 -98 32q-124 0 -157 -119
h-178q60 264 348 264q149 0 228 -70q78 -70 54 -190q-12 -52 -56 -99t-105 -65q61 -24 90 -81q28 -56 10 -136q-24 -111 -116 -174q-91 -63 -232 -63z" />
    <glyph glyph-name="uni2154" unicode="&#x2154;" horiz-adv-x="1875" 
d="M696 612h-647l17 70q63 246 335 358l70 29q152 66 164 133q21 117 -111 117q-138 0 -159 -135h-181q55 289 359 289q151 0 227 -76t47 -201q-17 -82 -88 -146q-68 -62 -203 -118l-63 -25q-136 -56 -170 -141h436zM582 0h-193l1090 1458h192zM1430 -16q-164 0 -249 82
t-67 225h176q-10 -69 29 -113q39 -43 119 -43q133 0 157 105q27 137 -127 137h-57l29 129h59q138 0 162 94q15 53 -20 85t-97 32q-131 0 -158 -119h-178q57 264 346 264q150 0 229 -70q78 -70 54 -190q-11 -52 -54 -99q-44 -47 -106 -65q132 -52 99 -217q-24 -110 -115 -174
q-90 -63 -231 -63z" />
    <glyph glyph-name="uni2155" unicode="&#x2155;" horiz-adv-x="1597" 
d="M285 0h-193l1090 1458h192zM414 612h-193l121 572h-192l26 131q91 0 155 32q62 31 107 111h154zM1155 -16q-142 0 -226 68q-85 68 -83 184l178 4q2 -50 42 -80q42 -31 101 -31q134 0 164 141q17 75 -19 118q-36 44 -106 44q-98 0 -147 -78h-178l190 492h520l-32 -154
h-377l-74 -178q60 51 156 51q133 0 200 -88t37 -229q-24 -119 -118 -192q-93 -72 -228 -72z" />
    <glyph glyph-name="uni2156" unicode="&#x2156;" horiz-adv-x="1871" 
d="M696 612h-647l17 70q63 246 335 358l70 29q152 66 164 133q21 117 -111 117q-138 0 -159 -135h-181q55 289 359 289q151 0 227 -76t47 -201q-17 -82 -88 -146q-68 -62 -203 -118l-63 -25q-136 -56 -170 -141h436zM555 0h-190l1089 1458h191zM1430 -16q-144 0 -228 68
q-86 69 -84 184l180 4q2 -50 42 -80q42 -31 102 -31q134 0 164 141q17 74 -20 118q-36 44 -105 44q-99 0 -148 -78h-178l191 492h520l-33 -154h-377l-74 -178q60 51 156 51q134 0 201 -88t37 -229q-24 -119 -118 -192q-93 -72 -228 -72z" />
    <glyph glyph-name="uni2157" unicode="&#x2157;" horiz-adv-x="1822" 
d="M418 596q-162 0 -248 83q-87 84 -66 224h177q-10 -71 27 -113q38 -42 120 -42q134 0 156 104q29 137 -125 137h-60l29 129h61q139 0 160 94q15 54 -19 85q-35 32 -98 32q-124 0 -157 -119h-178q62 265 348 265q148 0 228 -71q78 -70 54 -190q-12 -53 -55 -99t-104 -64
q62 -24 89 -81t9 -136q-24 -112 -116 -175t-232 -63zM508 0h-193l1090 1458h192zM1380 -16q-143 0 -227 68q-86 69 -84 184l180 4q2 -50 42 -80q42 -31 102 -31q133 0 163 141q17 75 -19 118q-36 44 -105 44q-98 0 -148 -78h-178l190 492h521l-33 -154h-377l-74 -178
q60 51 156 51q134 0 201 -88q66 -87 36 -229q-24 -120 -117 -192t-229 -72z" />
    <glyph glyph-name="uni2158" unicode="&#x2158;" horiz-adv-x="1859" 
d="M659 612h-196l39 187h-402l41 186l498 473h201l-107 -500h113l-35 -159h-113zM358 0l1090 1458h192l-1089 -1458h-193zM604 1251l-311 -293h248zM1855 846l-32 -154h-379l-72 -178q57 51 156 51q134 0 201 -88q66 -87 36 -229q-27 -121 -118 -193q-90 -71 -228 -71
q-143 0 -227 68q-86 69 -84 184l180 4q0 -50 40 -80q42 -31 102 -31q135 0 165 141q17 75 -19 118q-36 44 -106 44q-98 0 -147 -78h-178l190 492h520z" />
    <glyph glyph-name="uni2159" unicode="&#x2159;" horiz-adv-x="1576" 
d="M96 0l1090 1458h192l-1089 -1458h-193zM414 612h-193l121 572h-192l26 131q91 0 155 32q62 31 107 111h154zM1231 569q135 0 206 -89q71 -88 42 -228q-24 -124 -116 -196q-91 -72 -224 -72q-146 0 -234 88q-106 110 -55 395q88 395 414 395q126 0 203 -63q78 -64 79 -170
h-176q-11 92 -127 92q-80 0 -130 -50t-83 -161l-6 -31q84 90 207 90zM1305 268q15 71 -20 115q-34 43 -101 43q-65 0 -114 -35q-48 -34 -60 -86q-18 -81 21 -128q41 -48 118 -48q60 0 103 38q42 38 53 101z" />
    <glyph glyph-name="uni215A" unicode="&#x215a;" horiz-adv-x="1763" 
d="M764 860q-26 -119 -119 -192q-91 -72 -227 -72q-142 0 -228 69t-84 183l181 4q0 -50 41 -80q42 -31 102 -31q134 0 164 142q16 73 -20 117t-105 44q-98 0 -147 -77h-179l191 491h520l-33 -153h-377l-73 -179q58 52 155 52q134 0 201 -88t37 -230zM287 0l1089 1458h191
l-1090 -1458h-190zM1423 569q135 0 206 -89q71 -88 42 -228q-24 -124 -116 -196t-224 -72q-145 0 -233 88q-107 111 -56 395q88 395 414 395q128 0 204 -63q78 -64 79 -170h-178q-8 92 -125 92q-80 0 -130 -50t-83 -161l-6 -29q82 88 206 88zM1497 268q15 72 -19 115
t-102 43q-64 0 -114 -36t-60 -85q-18 -80 21 -128t116 -48q61 0 105 38q42 36 53 101z" />
    <glyph glyph-name="oneeighth" unicode="&#x215b;" horiz-adv-x="1605" 
d="M293 0h-191l1090 1458h190zM414 612h-193l121 572h-192l26 131q91 0 155 32q62 31 107 111h154zM1137 -16q-163 0 -249 76q-88 77 -61 208q12 65 62 115t131 68q-101 69 -74 200q21 101 106 156t216 55q143 0 220 -74q76 -73 52 -190q-24 -108 -143 -152
q137 -63 100 -235q-21 -101 -118 -164t-242 -63zM1225 502q63 0 102 26q42 28 49 76q15 55 -18 89t-101 34q-127 0 -149 -98q-15 -56 19 -91q35 -36 98 -36zM1151 127q67 0 114 32q46 31 58 85q15 66 -22 104q-36 37 -115 37q-154 0 -178 -121q-12 -66 27 -101
q41 -36 116 -36z" />
    <glyph glyph-name="threeeighths" unicode="&#x215c;" horiz-adv-x="1820" 
d="M418 596q-162 0 -248 83q-87 84 -66 224h177q-10 -71 27 -113q38 -42 120 -42q134 0 156 104q29 137 -125 137h-60l29 129h61q139 0 160 94q15 54 -19 85q-35 32 -98 32q-124 0 -157 -119h-178q62 265 348 265q148 0 228 -71q78 -70 54 -190q-12 -53 -55 -99t-104 -64
q62 -24 89 -81t9 -136q-24 -112 -116 -175t-232 -63zM508 0h-193l1090 1458h192zM1352 -16q-163 0 -249 76q-87 77 -63 208q12 63 63 114t132 69q-102 66 -74 200q21 101 105 156q83 55 217 55q143 0 220 -74q76 -73 52 -190q-24 -108 -143 -152q133 -67 100 -235
q-21 -101 -118 -164q-98 -63 -242 -63zM1440 502q59 0 99 26q42 27 52 76q12 58 -21 90q-34 33 -100 33q-125 0 -149 -98q-15 -58 19 -92q35 -35 100 -35zM1364 127q147 0 174 117q15 67 -22 104t-115 37q-154 0 -178 -121q-12 -66 26 -101q39 -36 115 -36z" />
    <glyph glyph-name="fiveeighths" unicode="&#x215d;" horiz-adv-x="1800" 
d="M418 596q-142 0 -228 69t-84 183l181 4q0 -50 41 -80q42 -31 102 -31q134 0 164 142q16 73 -20 117t-105 44q-98 0 -147 -77h-179l191 491h520l-33 -153h-377l-73 -179q58 52 155 52q134 0 201 -88t37 -230q-26 -119 -119 -192q-91 -72 -227 -72zM487 0h-190l1089 1458
h191zM1331 -16q-163 0 -249 76t-62 208q12 64 62 114q51 51 132 69q-100 69 -73 200q21 101 104 156t217 55q143 0 220 -74t53 -190q-24 -108 -144 -152q134 -68 101 -235q-21 -101 -118 -164q-98 -63 -243 -63zM1419 502q63 0 103 27q41 28 49 75q12 57 -22 90
q-35 33 -99 33q-126 0 -150 -98q-15 -57 20 -92t99 -35zM1343 127q148 0 175 117q15 66 -22 104q-36 37 -116 37q-154 0 -178 -121q-12 -62 28 -99q41 -38 113 -38z" />
    <glyph glyph-name="seveneighths" unicode="&#x215e;" horiz-adv-x="1601" 
d="M285 0h-191l1090 1458h190zM373 612h-205q46 201 160 386q113 184 266 307h-412l33 153h598l-33 -153q-161 -136 -258 -299q-96 -163 -149 -394zM1135 -16q-162 0 -250 76q-89 77 -62 208q12 65 62 115t131 68q-101 69 -74 200q21 101 106 156t216 55q142 0 221 -74
q77 -73 53 -190q-24 -108 -143 -152q133 -67 100 -235q-21 -101 -118 -164t-242 -63zM1223 502q59 0 99 26q42 27 52 76q12 58 -21 90q-35 33 -100 33q-125 0 -149 -98q-15 -58 19 -92q35 -35 100 -35zM1147 127q71 0 117 31q44 30 55 86q15 66 -22 104q-36 37 -113 37
q-156 0 -178 -121q-15 -65 24 -101t117 -36z" />
    <glyph glyph-name="arrowleft" unicode="&#x2190;" horiz-adv-x="1957" 
d="M688 852h1077v-244h-1079q85 -102 211 -270l256 -338h-328l-551 729l551 729h328l-256 -338q-98 -130 -209 -268z" />
    <glyph glyph-name="arrowup" unicode="&#x2191;" horiz-adv-x="1957" 
d="M291 940l729 551l729 -551v-317l-338 256q-205 156 -260 202v-1081h-266v1077q-206 -160 -256 -198l-338 -256v317z" />
    <glyph glyph-name="arrowright" unicode="&#x2192;" horiz-adv-x="1957" 
d="M887 1458h327l551 -729l-551 -729h-327l256 338q126 168 211 270h-1080v244h1078q-111 138 -209 268z" />
    <glyph glyph-name="arrowdown" unicode="&#x2193;" horiz-adv-x="1957" 
d="M1411 580l338 256v-318l-729 -551l-729 551v318l338 -256q5 -4 256 -199v1077h266v-1081q69 57 260 203z" />
    <glyph glyph-name="arrowboth" unicode="&#x2194;" horiz-adv-x="1957" 
d="M1192 1458h301l506 -729l-506 -729h-301l235 334q100 146 195 276h-1204q77 -106 194 -276l232 -334h-295l-508 729l506 729h299l-234 -338l-190 -268h1196l-191 266z" />
    <glyph glyph-name="arrowupdn" unicode="&#x2195;" horiz-adv-x="1957" 
d="M1151 1372v-1286q69 57 260 203l338 256v-318l-729 -551l-729 551v318l338 -256q5 -4 256 -199v1278q-251 -195 -256 -199l-338 -256v318l729 551l729 -551v-318l-338 256q-191 146 -260 203z" />
    <glyph glyph-name="uni2196" unicode="&#x2196;" horiz-adv-x="1957" 
d="M1706 1128h-565q-182 0 -359 5l899 -871l-178 -190l-899 870q4 -141 4 -356v-539l-256 236v1087h1123z" />
    <glyph glyph-name="uni2197" unicode="&#x2197;" horiz-adv-x="1957" 
d="M334 1128l231 242h1123v-1087l-256 -236v539q0 215 4 356l-899 -870l-179 190l899 871q-177 -5 -358 -5h-565z" />
    <glyph glyph-name="uni2198" unicode="&#x2198;" horiz-adv-x="1957" 
d="M1432 874v537l256 -235v-1088h-1123l-231 244h565q215 0 356 -4l-897 868l179 193l899 -873q-4 141 -4 358z" />
    <glyph glyph-name="uni2199" unicode="&#x2199;" horiz-adv-x="1957" 
d="M1141 319h565l-231 -241h-1123v1087l256 234v-537q0 -215 -4 -356l899 870l178 -190l-899 -871q141 4 359 4z" />
    <glyph glyph-name="partialdiff" unicode="&#x2202;" horiz-adv-x="1226" 
d="M772 1491q215 0 334 -125t119 -354q0 -300 -95 -553q-95 -256 -276 -383q-157 -109 -344 -109q-193 0 -322 115q-127 114 -127 305q0 236 164 406q162 165 396 165q237 0 323 -174q25 156 25 222q0 272 -221 272q-184 0 -261 -193h-262q63 192 208 299t339 107zM528 190
q127 0 224 109q92 107 92 246q0 92 -52 147q-53 56 -143 56q-128 0 -223 -107q-94 -106 -94 -248q0 -92 52 -147q53 -56 144 -56z" />
    <glyph glyph-name="uni2206" unicode="&#x2206;" horiz-adv-x="1386" 
d="M438 1458h324l485 -1222v-236h-1284v236zM598 1210q-89 -269 -176 -495l-176 -471h710l-178 471q-92 241 -180 495z" />
    <glyph glyph-name="product" unicode="&#x220f;" horiz-adv-x="1468" 
d="M160 -401v1859h1231v-1859h-277v1613h-678v-1613h-276z" />
    <glyph glyph-name="summation" unicode="&#x2211;" horiz-adv-x="1241" 
d="M868 -158h363v-245h-1139v223l590 708l-590 709v223h1118v-246h-342q-212 0 -422 5q162 -188 265 -318l239 -295v-155l-239 -295q-117 -144 -265 -318q168 4 422 4z" />
    <glyph glyph-name="minus" unicode="&#x2212;" horiz-adv-x="1081" 
d="M1055 618h-944v222h944v-222z" />
    <glyph glyph-name="uni2215" unicode="&#x2215;" horiz-adv-x="1081" 
d="M178 0h-266l991 1458h266z" />
    <glyph glyph-name="uni2219" unicode="&#x2219;" horiz-adv-x="1079" 
d="M723 553h-358l73 352h361z" />
    <glyph glyph-name="radical" unicode="&#x221a;" horiz-adv-x="1486" 
d="M889 391l348 1067h276l-620 -1859h-326l-284 809h-215v243h405l88 -262q1 -5 6.5 -21t12.5 -38t14 -45l41 -133q85 -276 90 -291q29 98 164 530z" />
    <glyph glyph-name="infinity" unicode="&#x221e;" horiz-adv-x="1677" 
d="M1268 1139q173 0 278 -113q105 -114 105 -297q0 -181 -105 -295q-106 -115 -278 -115q-224 0 -387 234q-166 -234 -389 -234q-173 0 -279 115q-104 113 -104 295q0 186 104 297q105 113 279 113q222 0 389 -236q162 236 387 236zM502 514q137 0 266 215
q-134 215 -266 215q-77 0 -126 -59q-50 -61 -50 -156t50 -156q49 -59 126 -59zM1260 514q75 0 124 59q50 61 50 156t-50 156q-49 59 -124 59q-133 0 -267 -215q129 -215 267 -215z" />
    <glyph glyph-name="integral" unicode="&#x222b;" horiz-adv-x="837" 
d="M242 -412q-51 0 -133 11v202q43 -6 90 -6q133 0 133 127v1217q0 157 86 243t260 86q59 0 133 -10v-203q-51 7 -88 7q-135 0 -135 -127v-1217q0 -158 -86 -244t-260 -86z" />
    <glyph glyph-name="approxequal" unicode="&#x2248;" horiz-adv-x="1081" 
d="M289 764h-180q6 149 80 233q75 86 202 86q86 0 227 -57q102 -45 148 -45q91 0 108 109h181q-6 -149 -82 -234q-77 -86 -199 -86q-84 0 -223 59q-107 43 -154 43q-90 0 -108 -108zM289 350h-180q6 150 80 234q75 86 202 86q84 0 227 -58q102 -45 148 -45q91 0 108 109h181
q-6 -149 -82 -234q-77 -86 -199 -86q-82 0 -223 60q-107 43 -154 43q-90 0 -108 -109z" />
    <glyph glyph-name="notequal" unicode="&#x2260;" horiz-adv-x="1081" 
d="M1055 1026v-197h-346l-72 -200h418v-197h-488l-82 -227l-163 55l61 172h-274v197h344l73 200h-417v197h487l82 229l162 -57l-62 -172h277z" />
    <glyph glyph-name="lessequal" unicode="&#x2264;" horiz-adv-x="1081" 
d="M1055 1239v-231l-189 -74q-300 -104 -491 -166q191 -62 491 -166l189 -74v-229l-946 350v238zM1055 0h-946v203h946v-203z" />
    <glyph glyph-name="greaterequal" unicode="&#x2265;" horiz-adv-x="1081" 
d="M109 1008v231l946 -352v-238l-946 -350v229l188 74q300 104 491 166q-191 62 -491 166zM1055 0h-946v203h946v-203z" />
    <glyph glyph-name="uni2460" unicode="&#x2460;" horiz-adv-x="1957" 
d="M326 1403q284 274 694 274t696 -274q283 -277 283 -674t-283 -672q-286 -276 -696 -276q-412 0 -694 276q-285 273 -285 672q0 398 285 674zM1020 -10q320 0 539 213q217 211 217 526t-217 526q-219 213 -539 213q-316 0 -535 -213t-219 -526t219 -526t535 -213z
M987 1196h174v-932h-213v639q-74 -16 -215 -16v151q110 5 166 37q58 34 88 121z" />
    <glyph glyph-name="uni2461" unicode="&#x2461;" horiz-adv-x="1957" 
d="M326 1403q284 274 694 274t696 -274q283 -277 283 -674t-283 -672q-286 -276 -696 -276q-412 0 -694 276q-285 273 -285 672q0 398 285 674zM1020 -10q320 0 539 213q217 211 217 526t-217 526q-219 213 -539 213q-316 0 -535 -213t-219 -526t219 -526t535 -213z
M1108 653l-64 -26q-60 -27 -98 -62q-32 -29 -43 -78h475v-180h-719l5 82q7 272 286 395l68 29q143 61 143 152q0 114 -135 114q-139 0 -143 -149h-207q7 154 97 242t257 88q159 0 251 -79q93 -79 93 -204q0 -111 -62 -185q-64 -77 -204 -139z" />
    <glyph glyph-name="uni2462" unicode="&#x2462;" horiz-adv-x="1957" 
d="M326 1403q284 274 694 274t696 -274q283 -277 283 -674t-283 -672q-286 -276 -696 -276q-412 0 -694 276q-285 273 -285 672q0 398 285 674zM1020 -10q320 0 539 213q217 211 217 526t-217 526q-219 213 -539 213q-316 0 -535 -213t-219 -526t219 -526t535 -213z
M1245 762q148 -57 148 -223q0 -133 -99 -213q-100 -80 -266 -80q-187 0 -287 89q-98 88 -98 255h207q1 -87 44 -128q41 -40 128 -40q74 0 115 33t41 92q0 123 -162 123h-70v157h72q147 0 147 113q0 50 -37 77q-38 27 -102 27q-140 0 -147 -124h-207q6 144 97 220
q92 77 257 77q159 0 252 -70q92 -69 92 -189q0 -127 -125 -196z" />
    <glyph glyph-name="uni2463" unicode="&#x2463;" horiz-adv-x="1957" 
d="M326 1403q284 274 694 274t696 -274q283 -277 283 -674t-283 -672q-286 -276 -696 -276q-412 0 -694 276q-285 273 -285 672q0 398 285 674zM1020 -10q320 0 539 213q217 211 217 526t-217 526q-219 213 -539 213q-316 0 -535 -213t-219 -526t219 -526t535 -213z
M1026 1208h219v-551h123v-176h-123v-205h-215v205h-440v207zM1036 657v322l-272 -322h272z" />
    <glyph glyph-name="uni2464" unicode="&#x2464;" horiz-adv-x="1957" 
d="M326 1403q284 274 694 274t696 -274q283 -277 283 -674t-283 -672q-286 -276 -696 -276q-412 0 -694 276q-285 273 -285 672q0 398 285 674zM1020 -10q320 0 539 213q217 211 217 526t-217 526q-219 213 -539 213q-316 0 -535 -213t-219 -526t219 -526t535 -213z
M1061 881q149 0 235 -89t86 -229q0 -147 -102 -237q-101 -88 -260 -88q-150 0 -250 76q-101 77 -113 210h203q11 -56 53 -87q44 -32 107 -32q71 0 116 45q44 44 44 113q0 71 -44 117q-44 45 -116 45q-110 0 -150 -84h-200l92 547h577v-180h-411l-31 -172q66 45 164 45z" />
    <glyph glyph-name="uni2465" unicode="&#x2465;" horiz-adv-x="1957" 
d="M326 1403q284 274 694 274t696 -274q283 -277 283 -674t-283 -672q-286 -276 -696 -276q-412 0 -694 276q-285 273 -285 672q0 398 285 674zM1020 -10q320 0 539 213q217 211 217 526t-217 526q-219 213 -539 213q-316 0 -535 -213t-219 -526t219 -526t535 -213z
M1055 891q149 0 239 -92q88 -94 88 -226q0 -147 -100 -237t-262 -90q-135 0 -229 67q-154 115 -154 402q0 243 99 372q100 130 288 130q141 0 234 -70q91 -68 112 -195h-205q-27 101 -141 101q-88 0 -133 -59q-46 -59 -53 -189q80 86 217 86zM905 459q43 -43 115 -43
q73 0 117 43q43 43 43 108q0 68 -44 112t-116 44q-71 0 -115 -44q-43 -43 -43 -112q0 -65 43 -108z" />
    <glyph glyph-name="uni2466" unicode="&#x2466;" horiz-adv-x="1957" 
d="M326 1403q284 274 694 274t696 -274q283 -277 283 -674t-283 -672q-286 -276 -696 -276q-412 0 -694 276q-285 273 -285 672q0 398 285 674zM1020 -10q320 0 539 213q217 211 217 526t-217 526q-219 213 -539 213q-316 0 -535 -213t-219 -526t219 -526t535 -213z
M1151 991h-453v180h664v-178q-147 -144 -219 -319q-68 -167 -72 -434h-229q1 214 86 413q85 200 223 338z" />
    <glyph glyph-name="uni2467" unicode="&#x2467;" horiz-adv-x="1957" 
d="M326 1403q284 274 694 274t696 -274q283 -277 283 -674t-283 -672q-286 -276 -696 -276q-412 0 -694 276q-285 273 -285 672q0 398 285 674zM1020 -10q320 0 539 213q217 211 217 526t-217 526q-219 213 -539 213q-316 0 -535 -213t-219 -526t219 -526t535 -213z
M1245 756q152 -62 152 -228q0 -126 -102 -204t-275 -78q-174 0 -276 78q-101 77 -101 204q0 166 152 228q-111 72 -111 198q0 124 89 193q90 70 247 70q156 0 246 -70q88 -69 88 -193q0 -125 -109 -198zM1124 1028q-40 31 -104 31q-65 0 -105 -31q-38 -29 -38 -86
q0 -56 38 -88q39 -33 105 -33q66 -6 106 33q41 40 37 88t-39 86zM895 449q43 -37 125 -37t125 37q43 34 43 98q0 63 -43 100q-46 37 -125 37q-80 0 -123 -37q-45 -37 -45 -100q0 -64 43 -98z" />
    <glyph glyph-name="uni2468" unicode="&#x2468;" horiz-adv-x="1957" 
d="M326 1403q284 274 694 274t696 -274q283 -277 283 -674t-283 -672q-286 -276 -696 -276q-412 0 -694 276q-285 273 -285 672q0 398 285 674zM1020 -10q320 0 539 213q217 211 217 526t-217 526q-219 213 -539 213q-316 0 -535 -213t-219 -526t219 -526t535 -213z
M1255 1145q154 -113 154 -400q0 -245 -98 -371q-99 -128 -283 -128q-150 0 -240 68q-92 69 -110 194h203q30 -98 147 -98q86 0 129 58q44 59 51 187q-80 -86 -215 -86q-150 0 -239 95q-90 94 -90 223q0 150 101 239q103 91 261 91q133 0 229 -72zM911 782q43 -45 115 -45
t115 45q43 43 43 111t-43 111t-115 43t-115 -43t-43 -111t43 -111z" />
    <glyph glyph-name="uni24EA" unicode="&#x24ea;" horiz-adv-x="1957" 
d="M1716 57q-286 -276 -696 -276q-412 0 -694 276q-285 273 -285 672q0 398 285 674q284 274 694 274t696 -274q283 -277 283 -674t-283 -672zM1020 -10q320 0 539 213q217 211 217 526t-217 526q-219 213 -539 213q-316 0 -535 -213t-219 -526t219 -526t535 -213zM1315 373
q-102 -127 -295 -127q-194 0 -293 127q-100 124 -100 356q0 237 100 362q101 126 293 126t293 -126q100 -125 100 -362q0 -230 -98 -356zM850 729q0 -305 170 -305t170 305q0 307 -170 307t-170 -307z" />
    <glyph glyph-name="uni24FF" unicode="&#x24ff;" horiz-adv-x="1957" 
d="M1516 -94q-224 -125 -496 -125t-496 125q-223 124 -354 346q-129 219 -129 477q0 261 129 479q128 216 354 344q224 125 496 125t496 -125q226 -128 354 -344q129 -217 129 -479q0 -258 -129 -477q-131 -222 -354 -346zM733 373q99 -123 287 -123t289 123q98 122 98 356
q0 235 -98 358q-101 123 -289 123t-287 -123q-100 -124 -100 -358q0 -235 100 -356zM1196 729q0 -309 -176 -309t-176 309q0 311 176 311t176 -311z" />
    <glyph glyph-name="filledbox" unicode="&#x25a0;" horiz-adv-x="1957" 
d="M1950 -180h-1860v1818h1860v-1818z" />
    <glyph glyph-name="uni25A1" unicode="&#x25a1;" horiz-adv-x="1957" 
d="M1950 -180h-1860v1818h1860v-1818zM315 1436v-1413h1409v1413h-1409z" />
    <glyph glyph-name="lozenge" unicode="&#x25ca;" horiz-adv-x="1220" 
d="M510 1458h283l426 -729l-426 -729h-283l-426 729zM365 729l286 -496l287 496l-287 496z" />
    <glyph glyph-name="circle" unicode="&#x25cb;" horiz-adv-x="1957" 
d="M1716 57q-286 -276 -696 -276q-412 0 -694 276q-285 273 -285 672q0 398 285 674q284 274 694 274t696 -274q283 -277 283 -674t-283 -672zM1020 -10q320 0 539 213q217 211 217 526t-217 526q-219 213 -539 213q-316 0 -535 -213t-219 -526t219 -526t535 -213z" />
    <glyph glyph-name="uni25CF" unicode="&#x25cf;" horiz-adv-x="1957" 
d="M1516 -94q-224 -125 -496 -125t-496 125q-223 124 -354 346q-129 219 -129 477q0 261 129 479q128 216 354 344q224 125 496 125t496 -125q226 -128 354 -344q129 -217 129 -479q0 -258 -129 -477q-131 -222 -354 -346z" />
    <glyph glyph-name="uni2776" unicode="&#x2776;" horiz-adv-x="1957" 
d="M1516 -94q-224 -125 -496 -125t-496 125q-223 124 -354 346q-129 219 -129 477q0 261 129 479q128 216 354 344q224 125 496 125t496 -125q226 -128 354 -344q129 -217 129 -479q0 -258 -129 -477q-131 -222 -354 -346zM948 891v-623h211v924h-170q-34 -89 -93 -124
q-58 -34 -161 -34v-143h213z" />
    <glyph glyph-name="uni2777" unicode="&#x2777;" horiz-adv-x="1957" 
d="M1516 -94q-224 -125 -496 -125t-496 125q-223 124 -354 346q-129 219 -129 477q0 261 129 479q128 216 354 344q224 125 496 125t496 -125q226 -128 354 -344q129 -217 129 -479q0 -258 -129 -477q-131 -222 -354 -346zM670 377l-4 -76h708v170h-475q15 94 143 150l64 26
q138 62 202 137q62 72 62 183q0 123 -90 199q-91 77 -248 77q-162 0 -251 -84q-89 -85 -101 -235h199q1 70 41 110q39 39 108 39q141 0 141 -119q0 -96 -147 -157l-68 -29q-274 -117 -284 -391z" />
    <glyph glyph-name="uni2778" unicode="&#x2778;" horiz-adv-x="1957" 
d="M1516 -94q-224 -125 -496 -125t-496 125q-223 124 -354 346q-129 219 -129 477q0 261 129 479q128 216 354 344q224 125 496 125t496 -125q226 -128 354 -344q129 -217 129 -479q0 -258 -129 -477q-131 -222 -354 -346zM1028 250q164 0 262 79q99 79 99 210q0 77 -42 137
q-41 59 -118 86q60 26 98 81q37 53 37 115q0 118 -91 185t-247 67q-162 0 -251 -72q-90 -73 -97 -212h194q15 125 154 125q68 0 106 -30q37 -30 37 -81q0 -119 -151 -119h-66v-145h64q168 0 168 -131q0 -59 -44 -95t-118 -36q-173 0 -178 170h-195q1 -162 100 -248
q98 -86 279 -86z" />
    <glyph glyph-name="uni2779" unicode="&#x2779;" horiz-adv-x="1957" 
d="M1516 -94q-224 -125 -496 -125t-496 125q-223 124 -354 346q-129 219 -129 477q0 261 129 479q128 216 354 344q224 125 496 125t496 -125q226 -128 354 -344q129 -217 129 -479q0 -258 -129 -477q-131 -222 -354 -346zM1034 485v-204h205v204h123v166h-123v551h-211
l-432 -516v-201h438zM1042 651h-290l290 342v-342z" />
    <glyph glyph-name="uni277A" unicode="&#x277a;" horiz-adv-x="1957" 
d="M1516 -94q-224 -125 -496 -125t-496 125q-223 124 -354 346q-129 219 -129 477q0 261 129 479q128 216 354 344q224 125 496 125t496 -125q226 -128 354 -344q129 -217 129 -479q0 -258 -129 -477q-131 -222 -354 -346zM1022 242q159 0 257 88q99 88 99 233
q0 137 -84 224t-229 87q-108 0 -174 -51l35 189h411v170h-567l-92 -537h192q44 86 152 86q73 0 120 -47q46 -46 46 -121q0 -72 -46 -118t-120 -46q-134 0 -164 119h-194q16 -127 112 -202q95 -74 246 -74z" />
    <glyph glyph-name="uni277B" unicode="&#x277b;" horiz-adv-x="1957" 
d="M1516 -94q-224 -125 -496 -125t-496 125q-223 124 -354 346q-129 219 -129 477q0 261 129 479q128 216 354 344q224 125 496 125t496 -125q226 -128 354 -344q129 -217 129 -479q0 -258 -129 -477q-131 -222 -354 -346zM1020 250q158 0 258 89q98 88 98 234
q0 136 -88 224t-233 88q-141 0 -224 -92v10q7 133 55 194q46 60 138 60q117 0 147 -99h193q-21 120 -110 186q-88 66 -228 66q-189 0 -286 -127t-97 -368q0 -293 150 -400q95 -65 227 -65zM1020 408q-71 0 -117 44q-45 43 -45 115t45 117t117 45q74 0 120 -45t46 -117
q0 -69 -46 -114t-120 -45z" />
    <glyph glyph-name="uni277C" unicode="&#x277c;" horiz-adv-x="1957" 
d="M1516 -94q-224 -125 -496 -125t-496 125q-223 124 -354 346q-129 219 -129 477q0 261 129 479q128 216 354 344q224 125 496 125t496 -125q226 -128 354 -344q129 -217 129 -479q0 -258 -129 -477q-131 -222 -354 -346zM844 246h217q5 264 72 432q72 172 219 319v168
h-652v-168h459q-140 -140 -225 -337q-86 -198 -90 -414z" />
    <glyph glyph-name="uni277D" unicode="&#x277d;" horiz-adv-x="1957" 
d="M1516 -94q-224 -125 -496 -125t-496 125q-223 124 -354 346q-129 219 -129 477q0 261 129 479q128 216 354 344q224 125 496 125t496 -125q226 -128 354 -344q129 -217 129 -479q0 -258 -129 -477q-131 -222 -354 -346zM750 326q100 -76 270 -76q172 0 272 76
q101 77 101 202q0 165 -160 228q117 72 117 198q0 119 -88 188q-87 68 -242 68t-242 -68q-88 -69 -88 -188q0 -130 119 -198q-162 -63 -162 -228q0 -123 103 -202zM1130 850q-41 -35 -110 -35q-68 0 -109 35t-41 92t41 90t109 33t109 -33q40 -33 40 -90q0 -59 -39 -92z
M1149 442q-45 -36 -129 -36t-127 36q-47 38 -47 103q0 68 46 105q47 38 128 38t128 -38q46 -37 46 -105q0 -65 -45 -103z" />
    <glyph glyph-name="uni277E" unicode="&#x277e;" horiz-adv-x="1957" 
d="M1516 -94q-224 -125 -496 -125t-496 125q-223 124 -354 346q-129 219 -129 477q0 261 129 479q128 216 354 344q224 125 496 125t496 -125q226 -128 354 -344q129 -217 129 -479q0 -258 -129 -477q-131 -222 -354 -346zM1022 246q187 0 286 127t99 372q0 290 -154 402
q-89 67 -227 67q-160 0 -260 -90t-100 -237q0 -135 90 -224q92 -90 237 -90q131 0 209 78l10 11q0 -7 -2 -15q-11 -128 -56 -184q-46 -57 -132 -57q-116 0 -143 100h-199q21 -123 111 -192q89 -68 231 -68zM1026 733q-72 0 -116 45q-44 46 -44 115q0 68 44 112t116 44
t116 -44t44 -112q0 -70 -45 -115t-115 -45z" />
    <glyph glyph-name="uni2E18" unicode="&#x2e18;" horiz-adv-x="1087" 
d="M520 1200h299l-61 -293h-301zM680 193h260q-49 -249 -194 -367q-144 -117 -394 -117q-227 0 -350 109q-124 108 -78 309q40 168 250 305q166 107 213 166q37 44 64 158h247l-82 -424l-106 -275h-168l18 246q-136 -89 -159 -180q-41 -193 182 -193q117 0 190 62t107 201z
" />
    <glyph glyph-name="uniF8FF" unicode="&#xf8ff;" horiz-adv-x="1636" 
d="M559 1272l-59 -283h-115l137 647h115l-49 -235q63 69 153 69q80 0 114 -52q34 -51 11 -150l-61 -279h-113l58 281q21 100 -64 100q-93 0 -127 -98zM1587 1636l-139 -647h-113l138 647h114zM1079 983q-111 0 -164 71t-26 191q22 103 95 167q72 63 173 63q112 0 167 -73
t26 -181l-9 -29h-350q-10 -121 99 -121q85 0 118 68h113q-61 -156 -242 -156zM1149 1384q-100 0 -143 -112h239q5 52 -21 82t-75 30zM1489 702h-350q-10 -120 98 -120q87 0 121 67h110q-57 -155 -239 -155q-112 0 -164 70q-54 72 -27 194q22 104 95 166q71 61 172 61
q111 0 166 -73t26 -181zM1114 969l-274 -469h-133l-74 469h121l22 -158q13 -129 19 -207q61 123 106 207l92 158h121zM1296 895q-102 0 -141 -113h238q4 51 -22 82t-75 31zM618 530h-112l22 109h113zM346 381l-51 -240q-12 -55 41 -55h39l-19 -88q-16 -2 -53 -2
q-153 0 -123 145l51 240h-73l18 86h74l29 137h114l-28 -137h92l-19 -86h-92zM793 82q88 0 118 92h117q-56 -186 -246 -186q-112 0 -164 72q-53 73 -26 198q21 102 92 161q72 60 174 60q96 0 146 -49q51 -50 47 -131h-117q-4 84 -90 84q-110 0 -140 -143q-27 -158 89 -158z
M1346 479q98 0 140 -45q42 -44 25 -127l-45 -217q-15 -63 0 -90h-114q-6 21 0 55q-55 -65 -158 -65q-75 0 -119 44q-43 43 -26 111q29 111 198 129l84 11q67 6 74 43v2q6 33 -11 49t-61 16q-96 0 -114 -78h-113q33 162 240 162zM391 0l101 469h116l-100 -469h-117zM1233 74
q119 0 143 121l8 38q-19 -14 -59 -20l-72 -10q-78 -16 -90 -62q-6 -32 14 -50q18 -17 56 -17z" />
    <glyph glyph-name="uniFEFF" unicode="&#xfeff;" 
 />
    <glyph glyph-name="null" 
 />
    <glyph glyph-name="Adieresis.ss01" horiz-adv-x="1470" 
d="M848 1577q-41 -41 -98 -41q-58 0 -99 41t-41 98t41 101q41 41 99 41q57 0 98 -41q41 -44 41 -101t-41 -98zM1239 1577q-41 -41 -98 -41q-58 0 -99 41t-41 98t41 101q41 41 99 41q57 0 98 -41q41 -44 41 -101t-41 -98zM1341 0h-284l-47 322h-637l-183 -322h-292l862 1458
h323zM596 715l-90 -158h467l-23 158q-31 188 -73 497q-104 -193 -281 -497z" />
    <glyph glyph-name="Cdotaccent.ss01" horiz-adv-x="1484" 
d="M1122 1612q-43 -43 -102 -43q-60 0 -100 43q-43 40 -43 100t43 103q40 40 100 40q59 0 102 -40q41 -44 41 -103t-41 -100zM668 -33q-333 0 -486 215q-153 214 -71 600q63 315 295 512q230 197 536 197q256 0 414 -137q157 -139 157 -398h-278q-11 147 -94 220t-223 73
q-189 0 -332 -133q-145 -136 -191 -360q-55 -261 25 -405q79 -142 276 -142q157 0 282 89q122 87 183 251h277q-85 -280 -289 -431t-481 -151z" />
    <glyph glyph-name="Edieresis.ss01" horiz-adv-x="1245" 
d="M768 1577q-41 -41 -98 -41q-58 0 -99 41t-41 98t41 101q41 41 99 41q57 0 98 -41q41 -44 41 -101t-41 -98zM1159 1577q-41 -41 -98 -41t-98 41t-41 98t41 101q41 41 98 41t98 -41q41 -44 41 -101t-41 -98zM1393 1458l-54 -248h-798l-74 -344h723l-49 -237h-723l-82 -381
h792l-51 -248h-1071l311 1458h1076z" />
    <glyph glyph-name="Edotaccent.ss01" horiz-adv-x="1245" 
d="M989 1579q-43 -43 -102 -43q-61 0 -101 43q-43 40 -43 100t43 103q41 41 101 41q58 0 102 -41q41 -44 41 -103t-41 -100zM1393 1458l-54 -248h-798l-74 -344h723l-49 -237h-723l-82 -381h792l-51 -248h-1071l311 1458h1076z" />
    <glyph glyph-name="uni0122.ss01" horiz-adv-x="1566" 
d="M911 1249q-193 0 -330 -133q-139 -135 -188 -360q-56 -254 36 -401q91 -146 294 -146q171 0 303 98q132 96 178 256h-381l49 223h652l-168 -786h-203l2 180q-191 -213 -479 -213q-331 0 -490 219q-159 220 -77 594q67 317 288 514t545 197q279 0 442 -139
q162 -141 156 -379h-283q-7 126 -100 202q-90 74 -246 74zM664 -109q59 0 96 -37t37 -108q0 -104 -82 -186q-79 -79 -226 -90l25 102q103 12 137 90q-50 1 -84 32q-32 29 -32 79q0 54 36 86t93 32z" />
    <glyph glyph-name="Gdotaccent.ss01" horiz-adv-x="1566" 
d="M1102 1612q-43 -43 -103 -43t-100 43q-43 40 -43 100t43 103q40 40 100 40t103 -40q41 -44 41 -103t-41 -100zM911 1249q-193 0 -330 -133q-139 -135 -188 -360q-56 -254 36 -401q91 -146 294 -146q171 0 303 98q132 96 178 256h-381l49 223h652l-168 -786h-203l2 180
q-191 -213 -479 -213q-331 0 -490 219q-159 220 -77 594q67 317 288 514t545 197q279 0 442 -139q162 -141 156 -379h-283q-7 126 -100 202q-90 74 -246 74z" />
    <glyph glyph-name="Idieresis.ss01" horiz-adv-x="516" 
d="M397 1577q-57 -68 -146 -30q-90 38 -85 124q0 54 40 94q41 41 95 41q84 4 123 -84t-27 -145zM756 1577q-57 -68 -147 -30t-85 124q-4 84 85 123q90 39 147 -27q39 -39 39 -94t-39 -96zM283 0h-277l311 1458h277z" />
    <glyph glyph-name="Idotaccent.ss01" horiz-adv-x="516" 
d="M604 1577q-44 -41 -102 -41q-60 0 -101 41t-41 100t41 103q41 41 101 41q58 0 102 -41q41 -44 41 -103t-41 -100zM283 0h-277l311 1458h277z" />
    <glyph glyph-name="uni0136.ss01" horiz-adv-x="1433" 
d="M1266 1458h354l-725 -604l416 -854h-310l-329 682l-291 -229l-96 -453h-277l309 1458h277l-145 -682zM612 -78q59 0 97 -38q36 -36 36 -107q0 -106 -81 -187q-79 -79 -226 -90l25 103q103 12 137 90q-50 1 -84 32q-33 30 -33 78q0 53 37 86q38 33 92 33z" />
    <glyph glyph-name="uni013B.ss01" horiz-adv-x="1122" 
d="M594 1458l-258 -1210h694l-53 -248h-971l311 1458h277zM473 -78q58 0 96 -38q37 -37 37 -107q0 -105 -82 -187q-80 -80 -225 -90l25 103q103 12 137 90q-50 1 -84 32q-33 30 -33 78q0 53 37 86q38 33 92 33z" />
    <glyph glyph-name="Ldot.ss01" horiz-adv-x="1122" 
d="M317 1458h277l-258 -1210h694l-53 -248h-971zM920 930q66 0 116 -47q49 -46 49 -115q0 -72 -49 -121t-116 -49q-73 0 -123 47q-49 46 -49 119t49 119q50 47 123 47z" />
    <glyph glyph-name="uni0145.ss01" horiz-adv-x="1470" 
d="M1178 1077l82 381h266l-312 -1458h-301l-268 649q-104 257 -170 455q-61 -338 -143 -723l-82 -381h-266l311 1458h299l270 -649q124 -305 170 -457q63 345 144 725zM559 -78q58 0 96 -38q37 -37 37 -107q0 -105 -82 -187q-80 -80 -225 -90l25 103q103 12 137 90
q-50 1 -84 32q-33 30 -33 78q0 53 37 86q38 33 92 33z" />
    <glyph glyph-name="Odieresis.ss01" horiz-adv-x="1572" 
d="M899 1610q-41 -41 -98 -41q-58 0 -99 41q-40 40 -40 98q0 57 40 100q41 41 99 41q57 0 98 -41q41 -44 41 -100q0 -57 -41 -98zM1290 1610q-41 -41 -98 -41t-98 41t-41 98q0 56 41 100q41 41 98 41t98 -41q41 -44 41 -100q0 -57 -41 -98zM698 -33q-332 0 -499 219
q-166 217 -88 594q66 315 299 510q237 201 553 201q331 0 499 -217q166 -217 88 -586q-68 -321 -301 -518q-238 -203 -551 -203zM723 211q197 0 348 137q150 136 195 365q53 248 -38 391t-296 143q-196 0 -342 -135q-148 -137 -199 -367q-55 -247 35 -391q89 -143 297 -143z
" />
    <glyph glyph-name="uni0156.ss01" horiz-adv-x="1361" 
d="M317 1458h613q260 0 387 -121t82 -329q-24 -115 -111 -201q-86 -85 -225 -119q112 -30 151 -108t15 -215l-29 -187q-21 -110 8 -178h-284q-22 60 0 182l28 170q23 120 -22 169q-45 50 -164 50h-360l-121 -571h-277zM1112 993q24 119 -34 178q-59 60 -185 60h-348
l-92 -443h360q119 0 199 56q79 55 100 149zM571 -78q59 0 97 -38q37 -37 37 -107q0 -105 -82 -187q-79 -79 -226 -90l25 103q103 12 137 90q-50 1 -84 32q-33 30 -33 78q0 53 37 86t92 33z" />
    <glyph glyph-name="uni0218.ss01" horiz-adv-x="1304" 
d="M1319 1024h-268q21 120 -43 182t-228 62q-267 0 -297 -174q-21 -92 34 -144q54 -51 204 -84l121 -24q467 -92 383 -477q-39 -187 -206 -293q-167 -105 -425 -105q-309 0 -455 136q-147 137 -104 378h272q-22 -152 58 -222q79 -69 258 -69q131 0 215 49q82 48 100 132
q22 102 -32 153q-55 52 -218 86l-117 23q-210 43 -309 163q-99 119 -61 310q38 176 195 280q159 105 401 105q299 0 429 -123q131 -123 93 -344zM553 -111q59 0 96 -37t37 -108q0 -104 -82 -186q-80 -80 -225 -90l24 102q104 12 138 90q-50 1 -84 32q-33 30 -33 79
q0 53 37 86q36 32 92 32z" />
    <glyph glyph-name="uni021A.ss01" horiz-adv-x="1277" 
d="M231 1458h1213l-53 -248h-465l-260 -1210h-279l258 1210h-467zM487 -78q59 0 97 -38q37 -37 37 -107q0 -105 -82 -187q-79 -79 -226 -90l25 103q103 12 137 90q-50 1 -84 32q-33 30 -33 78q0 53 37 86t92 33z" />
    <glyph glyph-name="Udieresis.ss01" horiz-adv-x="1417" 
d="M823 1577q-41 -41 -98 -41t-98 41t-41 98t41 101q41 41 98 41t98 -41q41 -44 41 -101t-41 -98zM1214 1577q-41 -41 -98 -41t-98 41t-41 98t41 101q41 41 98 41t98 -41q41 -44 41 -101t-41 -98zM633 -31q-298 0 -443 172q-143 167 -71 500l178 817h276l-182 -858
q-43 -193 28 -293q70 -98 238 -98q325 0 394 346l188 903h277l-199 -948q-56 -267 -230 -404q-175 -137 -454 -137z" />
    <glyph glyph-name="Wdieresis.ss01" horiz-adv-x="2002" 
d="M1122 1577q-41 -41 -98 -41t-98 41t-41 98t41 101q41 41 98 41t98 -41q41 -44 41 -101t-41 -98zM1513 1577q-41 -41 -98 -41t-98 41t-41 98t41 101q41 41 98 41t98 -41q41 -44 41 -101t-41 -98zM1614 870l276 588h293l-715 -1458h-309l-29 606q-7 340 -6 518
q-104 -239 -229 -518l-287 -606h-309l-94 1458h282l29 -588q12 -292 12 -561q102 245 246 563l273 586h284l27 -586q6 -273 6 -557q86 207 250 555z" />
    <glyph glyph-name="Ydieresis.ss01" horiz-adv-x="1398" 
d="M823 1577q-41 -41 -98 -41t-98 41t-41 98t41 101q41 41 98 41t98 -41q41 -44 41 -101t-41 -98zM1214 1577q-41 -41 -98 -41t-98 41t-41 98t41 101q41 41 98 41t98 -41q41 -44 41 -101t-41 -98zM1055 1196l213 262h317l-735 -883l-121 -575h-276l120 575l-362 883h301
l106 -264q67 -171 140 -373q254 319 297 375z" />
    <glyph glyph-name="Zdotaccent.ss01" horiz-adv-x="1284" 
d="M995 1579q-43 -43 -102 -43q-60 0 -100 43q-43 40 -43 100t43 103q41 41 100 41q58 0 102 -41q41 -44 41 -103t-41 -100zM1417 1458l-47 -223l-696 -680q-250 -239 -328 -311q331 4 416 4h409l-53 -248h-1179l47 225l694 678q73 73 328 311q-331 -4 -418 -4h-363l52 248
h1138z" />
    <glyph glyph-name="G.ss03" horiz-adv-x="1552" 
d="M938 1247q-193 0 -344 -131q-152 -134 -201 -366q-55 -257 37 -399q91 -140 303 -140q362 0 490 367h-424l47 223h702q-6 -43 -14 -88q-68 -354 -283 -550q-216 -196 -540 -196q-342 0 -510 217q-168 218 -92 586q67 320 299 522q231 199 555 199q285 0 443 -139
q159 -139 157 -377h-279q-6 128 -96 200t-250 72z" />
    <glyph glyph-name="uni01F4.ss03" horiz-adv-x="1552" 
d="M1079 1874h305l-313 -295h-223zM938 1247q-193 0 -344 -131q-152 -134 -201 -366q-55 -257 37 -399q91 -140 303 -140q362 0 490 367h-424l47 223h702q-6 -43 -14 -88q-68 -354 -283 -550q-216 -196 -540 -196q-342 0 -510 217q-168 218 -92 586q67 320 299 522
q231 199 555 199q285 0 443 -139q159 -139 157 -377h-279q-6 128 -96 200t-250 72z" />
    <glyph glyph-name="Gbreve.ss03" horiz-adv-x="1552" 
d="M1016 1569q-151 0 -233 82t-74 223h194q-1 -65 34 -102q36 -37 97 -37q121 0 170 139h195q-37 -147 -139 -226q-101 -79 -244 -79zM938 1247q-193 0 -344 -131q-152 -134 -201 -366q-55 -257 37 -399q91 -140 303 -140q362 0 490 367h-424l47 223h702q-6 -43 -14 -88
q-68 -354 -283 -550q-216 -196 -540 -196q-342 0 -510 217q-168 218 -92 586q67 320 299 522q231 199 555 199q285 0 443 -139q159 -139 157 -377h-279q-6 128 -96 200t-250 72z" />
    <glyph glyph-name="Gcircumflex.ss03" horiz-adv-x="1552" 
d="M1155 1579l-123 164l-192 -164h-240l299 295h309l178 -295h-231zM938 1247q-193 0 -344 -131q-152 -134 -201 -366q-55 -257 37 -399q91 -140 303 -140q362 0 490 367h-424l47 223h702q-6 -43 -14 -88q-68 -354 -283 -550q-216 -196 -540 -196q-342 0 -510 217
q-168 218 -92 586q67 320 299 522q231 199 555 199q285 0 443 -139q159 -139 157 -377h-279q-6 128 -96 200t-250 72z" />
    <glyph glyph-name="uni0122.ss03" horiz-adv-x="1552" 
d="M938 1247q-193 0 -344 -131q-152 -134 -201 -366q-55 -257 37 -399q91 -140 303 -140q362 0 490 367h-424l47 223h702q-6 -43 -14 -88q-68 -354 -283 -550q-216 -196 -540 -196q-342 0 -510 217q-168 218 -92 586q67 320 299 522q231 199 555 199q285 0 443 -139
q159 -139 157 -377h-279q-6 128 -96 200t-250 72zM637 -324h-115l43 203h248l-49 -227q-21 -92 -78 -134q-56 -41 -168 -46l-41 -2l23 100l37 2q77 1 92 74z" />
    <glyph glyph-name="Gdotaccent.ss03" horiz-adv-x="1552" 
d="M915 1821h254l-51 -242h-254zM938 1247q-193 0 -344 -131q-152 -134 -201 -366q-55 -257 37 -399q91 -140 303 -140q362 0 490 367h-424l47 223h702q-6 -43 -14 -88q-68 -354 -283 -550q-216 -196 -540 -196q-342 0 -510 217q-168 218 -92 586q67 320 299 522
q231 199 555 199q285 0 443 -139q159 -139 157 -377h-279q-6 128 -96 200t-250 72z" />
    <glyph glyph-name="uni0122.ss01.ss03" horiz-adv-x="1552" 
d="M938 1247q-193 0 -344 -131q-152 -134 -201 -366q-55 -257 37 -399q91 -140 303 -140q362 0 490 367h-424l47 223h702q-6 -43 -14 -88q-68 -354 -283 -550q-216 -196 -540 -196q-342 0 -510 217q-168 218 -92 586q67 320 299 522q231 199 555 199q285 0 443 -139
q159 -139 157 -377h-279q-6 128 -96 200t-250 72zM662 -111q59 0 96 -37t37 -108q0 -104 -82 -186q-79 -79 -226 -90l25 102q103 12 137 90q-50 1 -84 32q-33 30 -33 79q0 53 37 86q36 32 93 32z" />
    <glyph glyph-name="Gdotaccent.ss01.ss03" horiz-adv-x="1552" 
d="M1120 1612q-43 -43 -102 -43q-60 0 -100 43q-44 41 -44 100t44 103q40 40 100 40q59 0 102 -40q41 -44 41 -103t-41 -100zM938 1247q-193 0 -344 -131q-152 -134 -201 -366q-55 -257 37 -399q91 -140 303 -140q362 0 490 367h-424l47 223h702q-6 -43 -14 -88
q-68 -354 -283 -550q-216 -196 -540 -196q-342 0 -510 217q-168 218 -92 586q67 320 299 522q231 199 555 199q285 0 443 -139q159 -139 157 -377h-279q-6 128 -96 200t-250 72z" />
    <glyph glyph-name="R.ss04" horiz-adv-x="1349" 
d="M317 1458h596q263 0 387 -136t72 -372q-29 -142 -138 -244q-108 -102 -269 -139l256 -567h-316l-243 547h-261l-116 -547h-277zM1098 985q27 118 -30 181t-185 63h-338l-96 -455h352q121 0 197 55q78 56 100 156z" />
    <glyph glyph-name="Racute.ss04" horiz-adv-x="1349" 
d="M938 1841h305l-313 -295h-223zM317 1458h596q263 0 387 -136t72 -372q-29 -142 -138 -244q-108 -102 -269 -139l256 -567h-316l-243 547h-261l-116 -547h-277zM1098 985q27 118 -30 181t-185 63h-338l-96 -455h352q121 0 197 55q78 56 100 156z" />
    <glyph glyph-name="Rcaron.ss04" horiz-adv-x="1349" 
d="M1305 1841l-297 -295h-310l-180 295h232l122 -164l193 164h240zM317 1458h596q263 0 387 -136t72 -372q-29 -142 -138 -244q-108 -102 -269 -139l256 -567h-316l-243 547h-261l-116 -547h-277zM1098 985q27 118 -30 181t-185 63h-338l-96 -455h352q121 0 197 55
q78 56 100 156z" />
    <glyph glyph-name="uni0156.ss04" horiz-adv-x="1349" 
d="M317 1458h596q263 0 387 -136t72 -372q-29 -142 -138 -244q-108 -102 -269 -139l256 -567h-316l-243 547h-261l-116 -547h-277zM1098 985q27 118 -30 181t-185 63h-338l-96 -455h352q121 0 197 55q78 56 100 156zM563 -291h-114l43 203h247l-49 -227q-21 -93 -78 -135
q-56 -41 -168 -46l-41 -2l23 101l37 2q77 1 92 73z" />
    <glyph glyph-name="uni0156.ss01.ss04" horiz-adv-x="1349" 
d="M317 1458h596q263 0 387 -136t72 -372q-29 -142 -138 -244q-108 -102 -269 -139l256 -567h-316l-243 547h-261l-116 -547h-277zM1098 985q27 118 -30 181t-185 63h-338l-96 -455h352q121 0 197 55q78 56 100 156zM588 -78q58 0 96 -38q37 -37 37 -107q0 -105 -82 -187
q-79 -80 -225 -90l24 103q103 12 137 90q-49 1 -83 32q-33 30 -33 78q0 53 37 86q38 33 92 33z" />
    <glyph glyph-name="i.loclTRK" horiz-adv-x="466" 
d="M502 1194h-252l49 242h254zM250 0h-258l225 1057h258z" />
    <glyph glyph-name="adieresis.ss01" horiz-adv-x="1103" 
d="M621 1225q-41 -41 -99 -41q-57 0 -98 41t-41 98t41 98t98 41q58 0 99 -41t41 -98t-41 -98zM915 1184q-59 0 -100 41t-41 98t42 98q43 41 99 41q58 0 99 -41t41 -98t-41 -98t-99 -41zM662 1081q244 0 338 -94q95 -95 55 -291l-107 -495q-30 -139 0 -201h-258
q-15 32 -4 117q-134 -142 -348 -142q-181 0 -272 93q-90 92 -56 254q27 133 135 205q110 73 326 94l170 16q78 7 122 33q40 23 52 78q12 72 -28 106q-41 35 -142 35q-115 0 -170 -36q-56 -36 -80 -132h-254q44 180 169 270q126 90 352 90zM416 160q115 0 205 65
q91 66 120 185l25 106q-51 -34 -143 -45l-131 -14q-198 -23 -222 -146q-16 -70 22 -111q37 -40 124 -40z" />
    <glyph glyph-name="cdotaccent.ss01" horiz-adv-x="1112" 
d="M825 1225q-44 -41 -102 -41q-59 0 -100 41t-41 100q0 58 41 102q41 41 100 41q58 0 102 -41q41 -44 41 -102q0 -59 -41 -100zM494 -25q-246 0 -365 162q-123 162 -61 449q46 218 204 358q157 137 396 137q209 0 324 -109q116 -110 106 -296h-264q-1 91 -55 141
q-52 49 -144 49q-119 0 -200 -82q-80 -81 -113 -241q-35 -173 19 -262q55 -91 175 -91q202 0 270 203h258q-56 -202 -197 -309q-144 -109 -353 -109z" />
    <glyph glyph-name="edieresis.ss01" horiz-adv-x="1161" 
d="M621 1225q-41 -41 -99 -41q-57 0 -98 41t-41 98t41 98t98 41q58 0 99 -41t41 -98t-41 -98zM915 1184q-59 0 -100 41t-41 98t42 98q43 41 99 41q58 0 99 -41t41 -98t-41 -98t-99 -41zM668 1081q250 0 368 -159q120 -159 60 -412l-19 -61h-786q-12 -136 47 -204
q60 -69 176 -69q188 0 268 152h250q-137 -353 -540 -353q-246 0 -365 160q-124 157 -64 434q49 233 213 373q163 139 392 139zM645 881q-108 0 -191 -65t-126 -187h534q10 116 -47 184t-170 68z" />
    <glyph glyph-name="edotaccent.ss01" horiz-adv-x="1161" 
d="M821 1225q-44 -41 -102 -41q-60 0 -101 41q-40 40 -40 100q0 59 40 102q41 41 101 41q58 0 102 -41q41 -44 41 -102q0 -59 -41 -100zM668 1081q250 0 368 -159q120 -159 60 -412l-19 -61h-786q-12 -136 47 -204q60 -69 176 -69q188 0 268 152h250q-137 -353 -540 -353
q-246 0 -365 160q-124 157 -64 434q49 233 213 373q163 139 392 139zM645 881q-108 0 -191 -65t-126 -187h534q10 116 -47 184t-170 68z" />
    <glyph glyph-name="uni0123.ss01" horiz-adv-x="1204" 
d="M752 1184q-60 0 -97 37t-37 106q0 105 84 189q79 79 224 90l-25 -105q-102 -12 -135 -88q52 -5 83 -34q32 -30 32 -76q0 -53 -37 -86q-38 -33 -92 -33zM934 913l31 144h249l-219 -1024q-50 -237 -185 -347q-138 -112 -390 -112q-228 0 -341 97q-114 98 -102 272h261
q0 -170 204 -170q242 0 299 278l15 70q-123 -117 -297 -117q-230 0 -338 164q-108 166 -51 426q51 230 197 358q147 129 354 129q221 0 313 -168zM535 217q123 0 209 79q88 80 122 224l6 35q27 152 -29 232q-57 81 -186 81q-127 0 -212 -82t-115 -229q-35 -159 20 -249
q55 -91 185 -91z" />
    <glyph glyph-name="gdotaccent.ss01" horiz-adv-x="1204" 
d="M762 1184q-56 0 -99 41q-42 41 -42 100q0 58 41 101q40 42 100 42q59 0 101 -42t42 -101t-42 -100q-43 -41 -101 -41zM934 913l31 144h249l-219 -1024q-50 -237 -185 -347q-138 -112 -390 -112q-228 0 -341 97q-114 98 -102 272h261q0 -170 204 -170q242 0 299 278l15 70
q-123 -117 -297 -117q-230 0 -338 164q-108 166 -51 426q51 230 197 358q147 129 354 129q221 0 313 -168zM535 217q123 0 209 79q88 80 122 224l6 35q27 152 -29 232q-57 81 -186 81q-127 0 -212 -82t-115 -229q-35 -159 20 -249q55 -91 185 -91z" />
    <glyph glyph-name="i.ss01" horiz-adv-x="466" 
d="M506 1225q-46 -41 -102 -41t-102 42t-42 99q-4 59 42 101t102 42t102 -41q41 -44 41 -102q0 -59 -41 -100zM250 0h-258l225 1057h258z" />
    <glyph glyph-name="idieresis.ss01" horiz-adv-x="466" 
d="M221 1184q-84 -4 -121 84q-37 87 27 145q43 39 95 39q53 0 94 -40t40 -95q0 -55 -39 -94t-96 -39zM678 1225q-39 -39 -95 -40q-57 -1 -96 38q-41 39 -41 94t41 96q58 64 146 27q89 -38 84 -123q0 -53 -39 -92zM250 0h-258l225 1057h258z" />
    <glyph glyph-name="i.loclTRK.ss01" horiz-adv-x="466" 
d="M506 1225q-46 -41 -102 -41t-102 42t-42 99q-4 59 42 101t102 42t102 -41q41 -44 41 -102q0 -59 -41 -100zM250 0h-258l225 1057h258z" />
    <glyph glyph-name="ij.ss01" horiz-adv-x="935" 
d="M506 1225q-46 -41 -102 -41t-102 42t-42 99q-4 59 42 101t102 42t102 -41q41 -44 41 -102q0 -59 -41 -100zM973 1225q-46 -41 -102 -41t-102 42q-47 42 -42 99q-4 59 42 101t102 42t102 -41q41 -44 41 -102q0 -59 -41 -100zM250 0h-258l225 1057h258zM373 -408
q-57 0 -152 5l43 202h60q48 0 75 27q27 26 43 94l242 1137h258l-248 -1159q-66 -306 -321 -306z" />
    <glyph glyph-name="iogonek.ss01" horiz-adv-x="466" 
d="M303 1427q41 41 100 41t103 -41q41 -44 41 -102q0 -59 -41 -100q-46 -41 -102 -41t-102 42t-42 99q0 59 43 102zM82 0h-90l225 1057h258l-225 -1057q-169 -89 -187 -186q-22 -84 70 -84q51 0 78 14l-31 -152q-57 -18 -117 -18q-102 0 -154 55q-53 56 -32 148
q15 66 69 126t136 97z" />
    <glyph glyph-name="j.ss01" horiz-adv-x="471" 
d="M506 1225q-46 -41 -102 -41t-102 42t-42 99q-4 59 42 101t102 42t102 -41q41 -44 41 -102q0 -59 -41 -100zM-94 -408q-57 0 -152 5l43 202h60q48 0 75 27q27 26 43 94l242 1137h258l-248 -1159q-66 -306 -321 -306z" />
    <glyph glyph-name="uni0137.ss01" horiz-adv-x="1126" 
d="M899 1057h309l-481 -404l281 -653h-273l-203 504l-217 -174l-69 -330h-254l311 1458h254l-178 -833zM436 -78q58 0 96 -38q37 -37 37 -107q0 -105 -82 -187q-79 -80 -225 -90l25 103q103 12 137 90q-50 1 -84 32q-33 30 -33 78q0 53 37 86q38 33 92 33z" />
    <glyph glyph-name="uni013C.ss01" horiz-adv-x="466" 
d="M-6 0l309 1458h258l-311 -1458h-256zM82 -78q58 0 96 -38q37 -37 37 -107q0 -105 -82 -187q-79 -80 -225 -90l24 103q104 12 138 90q-50 1 -84 32q-33 30 -33 78q0 53 37 86q38 33 92 33z" />
    <glyph glyph-name="ldot.ss01" horiz-adv-x="950" 
d="M250 0h-256l309 1458h258zM750 559q-74 0 -123 48t-49 120q0 71 49 117q50 47 123 47q66 0 116 -48q49 -48 49 -116q0 -72 -49 -120q-50 -48 -116 -48z" />
    <glyph glyph-name="napostrophe.ss01" horiz-adv-x="1540" 
d="M563 1292q0 -144 -108 -272q-111 -125 -293 -135l31 139q148 18 188 150q-61 4 -101 43t-40 100q0 68 47 113t114 45q71 0 117 -48q45 -47 45 -135zM1176 1081q180 0 256 -115q76 -114 26 -339l-135 -627h-258l133 629q49 229 -143 229q-110 0 -191 -68
q-82 -69 -106 -198h-2l-125 -592h-258l225 1057h250l-31 -144q147 168 359 168z" />
    <glyph glyph-name="uni0146.ss01" horiz-adv-x="1159" 
d="M795 1081q178 0 254 -115q75 -113 28 -339l-135 -627h-258l133 629q49 229 -145 229q-104 0 -184 -64t-109 -186l-129 -608h-258l225 1057h250l-31 -144q147 168 359 168zM434 -78q58 0 96 -38q37 -37 37 -107q0 -105 -82 -187q-79 -80 -225 -90l25 103q103 12 137 90
q-50 1 -84 32q-33 30 -33 78q0 53 37 86q38 33 92 33z" />
    <glyph glyph-name="odieresis.ss01" horiz-adv-x="1189" 
d="M649 1225q-41 -41 -98 -41t-98 41t-41 98t41 98t98 41t98 -41t41 -98t-41 -98zM944 1184q-59 0 -100 41t-41 98t42 98q43 41 99 41q57 0 98 -41t41 -98t-41 -98t-98 -41zM510 -25q-264 0 -384 161t-60 442q49 228 217 364q167 139 397 139q264 0 384 -159t60 -441
q-49 -223 -217 -364q-171 -142 -397 -142zM528 188q124 0 216 87t122 239q38 168 -18 261t-184 93q-124 0 -215 -88q-92 -89 -125 -235q-35 -172 21 -263q58 -94 183 -94z" />
    <glyph glyph-name="uni0157.ss01" horiz-adv-x="780" 
d="M786 1073q37 0 62 -4l-49 -238h-66q-298 0 -364 -274l-119 -557h-258l225 1057h250l-35 -162q135 178 354 178zM78 -78q58 0 96 -38q37 -37 37 -107q0 -105 -82 -187q-79 -80 -225 -90l24 103q104 12 138 90q-50 1 -84 32q-33 30 -33 78q0 53 37 86q38 33 92 33z" />
    <glyph glyph-name="uni0219.ss01" horiz-adv-x="1021" 
d="M1001 723h-243q15 93 -31 134q-44 40 -154 40q-188 0 -211 -115q-12 -59 24 -93q35 -33 128 -50l125 -18q182 -33 253 -120q70 -87 40 -239q-62 -291 -496 -291q-248 0 -357 88t-85 277h252q-8 -99 41 -139q50 -41 170 -41q193 0 217 114q15 66 -23 101q-37 34 -143 55
l-115 18q-342 60 -276 355q29 136 152 209q124 73 327 73q225 0 326 -92q100 -91 79 -266zM393 -106q58 0 96 -38q37 -37 37 -108q0 -104 -82 -186q-80 -80 -225 -90l25 102q103 12 137 90q-50 1 -84 32q-33 30 -33 79q0 53 37 86t92 33z" />
    <glyph glyph-name="uni021B.ss01" horiz-adv-x="702" 
d="M727 860h-209l-115 -536q-27 -125 95 -125h88l-43 -199q-69 -6 -119 -6q-170 0 -242 83q-72 82 -37 245l115 538h-164l43 197h162l66 307h258l-66 -307h209zM322 -78q58 0 96 -38q37 -37 37 -107q0 -105 -82 -187q-79 -79 -226 -90l25 103q103 12 137 90q-50 1 -84 32
q-32 29 -32 78q0 54 36 86q37 33 93 33z" />
    <glyph glyph-name="udieresis.ss01" horiz-adv-x="1159" 
d="M641 1225q-41 -41 -98 -41q-58 0 -99 41t-41 98t41 98t99 41q57 0 98 -41t41 -98t-41 -98zM936 1184q-59 0 -100 41t-41 98t42 98q43 41 99 41q57 0 98 -41t41 -98t-41 -98t-98 -41zM784 465l125 592h258l-225 -1057h-250l31 143q-147 -168 -358 -168q-177 0 -254 116
q-76 114 -29 339l135 627h258l-133 -629q-49 -229 145 -229q110 0 190 68q81 69 105 198h2z" />
    <glyph glyph-name="wdieresis.ss01" horiz-adv-x="1691" 
d="M885 1225q-41 -41 -99 -41q-57 0 -98 41t-41 98t41 98t98 41q58 0 99 -41t41 -98t-41 -98zM1180 1184q-60 0 -101 41t-41 98t42 98q43 41 100 41t98 -41t41 -98t-41 -98t-98 -41zM1303 662l204 395h283l-571 -1057h-273l-39 434q-16 157 -24 322q-74 -162 -154 -322
l-225 -434h-271l-122 1057h268l35 -395q0 -12 18 -252q2 -62 6 -117q157 326 180 371l201 393h246l33 -393q6 -96 22 -377q50 111 183 375z" />
    <glyph glyph-name="ydieresis.ss01" horiz-adv-x="1069" 
d="M606 1225q-41 -41 -98 -41t-98 41t-41 98t41 98t98 41t98 -41t41 -98t-41 -98zM901 1184q-59 0 -100 41t-41 98t42 98q43 41 99 41q57 0 98 -41t41 -98t-41 -98t-98 -41zM762 791l145 266h273l-650 -1143q-102 -182 -213 -250q-110 -67 -309 -67q-62 0 -112 6l43 202h100
q82 0 135 47q55 49 72 117q19 82 -2 230l-123 858h274l29 -264q44 -583 45 -590q100 212 293 588z" />
    <glyph glyph-name="zdotaccent.ss01" horiz-adv-x="1021" 
d="M664 1184q-57 0 -100 41q-42 41 -42 100q0 58 41 101q41 42 101 42q59 0 101 -42t42 -101t-42 -100q-43 -41 -101 -41zM1053 1057l-37 -170l-527 -527q-20 -20 -83 -80t-84 -81q66 2 219 2h352l-43 -201h-897l37 170l524 526q21 21 84 81t84 81q-62 -2 -213 -2h-324
l43 201h865z" />
    <glyph glyph-name="a.ss02" horiz-adv-x="1200" 
d="M924 928l28 129h256l-225 -1057h-248l23 102q-139 -127 -316 -127q-222 0 -327 162q-107 163 -52 430q51 228 199 373q147 141 361 141q215 0 301 -153zM524 188q264 0 338 332q39 170 -17 260q-57 92 -194 92q-123 0 -210 -89q-86 -87 -119 -246q-38 -170 17 -259
q55 -90 185 -90z" />
    <glyph glyph-name="aacute.ss02" horiz-adv-x="1200" 
d="M786 1489h283l-262 -295h-201zM924 928l28 129h256l-225 -1057h-248l23 102q-139 -127 -316 -127q-222 0 -327 162q-107 163 -52 430q51 228 199 373q147 141 361 141q215 0 301 -153zM524 188q264 0 338 332q39 170 -17 260q-57 92 -194 92q-123 0 -210 -89
q-86 -87 -119 -246q-38 -170 17 -259q55 -90 185 -90z" />
    <glyph glyph-name="abreve.ss02" horiz-adv-x="1200" 
d="M741 1184q-151 0 -233 81q-81 80 -74 224h195q-2 -68 34 -104q35 -35 97 -35q122 0 168 139h196q-37 -147 -139 -226q-101 -79 -244 -79zM924 928l28 129h256l-225 -1057h-248l23 102q-139 -127 -316 -127q-222 0 -327 162q-107 163 -52 430q51 228 199 373
q147 141 361 141q215 0 301 -153zM524 188q264 0 338 332q39 170 -17 260q-57 92 -194 92q-123 0 -210 -89q-86 -87 -119 -246q-38 -170 17 -259q55 -90 185 -90z" />
    <glyph glyph-name="acircumflex.ss02" horiz-adv-x="1200" 
d="M877 1194l-123 162l-193 -162h-242l299 295h310l180 -295h-231zM924 928l28 129h256l-225 -1057h-248l23 102q-139 -127 -316 -127q-222 0 -327 162q-107 163 -52 430q51 228 199 373q147 141 361 141q215 0 301 -153zM524 188q264 0 338 332q39 170 -17 260
q-57 92 -194 92q-123 0 -210 -89q-86 -87 -119 -246q-38 -170 17 -259q55 -90 185 -90z" />
    <glyph glyph-name="adieresis.ss02" horiz-adv-x="1200" 
d="M438 1436h254l-53 -242h-254zM840 1436h252l-52 -242h-254zM924 928l28 129h256l-225 -1057h-248l23 102q-139 -127 -316 -127q-222 0 -327 162q-107 163 -52 430q51 228 199 373q147 141 361 141q215 0 301 -153zM524 188q264 0 338 332q39 170 -17 260q-57 92 -194 92
q-123 0 -210 -89q-86 -87 -119 -246q-38 -170 17 -259q55 -90 185 -90z" />
    <glyph glyph-name="agrave.ss02" horiz-adv-x="1200" 
d="M774 1489l55 -295h-200l-140 295h285zM924 928l28 129h256l-225 -1057h-248l23 102q-139 -127 -316 -127q-222 0 -327 162q-107 163 -52 430q51 228 199 373q147 141 361 141q215 0 301 -153zM524 188q264 0 338 332q39 170 -17 260q-57 92 -194 92q-123 0 -210 -89
q-86 -87 -119 -246q-38 -170 17 -259q55 -90 185 -90z" />
    <glyph glyph-name="amacron.ss02" horiz-adv-x="1200" 
d="M426 1374h653l-39 -180h-653zM924 928l28 129h256l-225 -1057h-248l23 102q-139 -127 -316 -127q-222 0 -327 162q-107 163 -52 430q51 228 199 373q147 141 361 141q215 0 301 -153zM524 188q264 0 338 332q39 170 -17 260q-57 92 -194 92q-123 0 -210 -89
q-86 -87 -119 -246q-38 -170 17 -259q55 -90 185 -90z" />
    <glyph glyph-name="aogonek.ss02" horiz-adv-x="1200" 
d="M1208 1057l-225 -1057q-226 -96 -244 -182q-11 -41 17 -64q26 -22 69 -22q41 0 105 16l-33 -154q-59 -20 -149 -20q-112 0 -176 60t-46 153q15 67 81 124q64 55 171 89h-43l23 102q-139 -127 -316 -127q-222 0 -327 162q-107 163 -52 430q51 228 199 373q147 141 361 141
q215 0 301 -153l28 129h256zM524 188q264 0 338 332q39 170 -17 260q-57 92 -194 92q-123 0 -210 -89q-86 -87 -119 -246q-38 -170 17 -259q55 -90 185 -90z" />
    <glyph glyph-name="aring.ss02" horiz-adv-x="1200" 
d="M770 1184q-122 0 -207 80q-86 80 -86 200q0 121 86 201q84 78 207 78q122 0 211 -78q84 -79 84 -201q0 -120 -84 -200q-86 -80 -211 -80zM860 1552q-56 60 -138 26q-83 -35 -77 -114q0 -53 36 -89t89 -36q52 0 90 36q37 36 37 89q0 51 -37 88zM924 928l28 129h256
l-225 -1057h-248l23 102q-139 -127 -316 -127q-222 0 -327 162q-107 163 -52 430q51 228 199 373q147 141 361 141q215 0 301 -153zM524 188q264 0 338 332q39 170 -17 260q-57 92 -194 92q-123 0 -210 -89q-86 -87 -119 -246q-38 -170 17 -259q55 -90 185 -90z" />
    <glyph glyph-name="aringacute.ss02" horiz-adv-x="1200" 
d="M922 2134h282l-262 -295h-201zM770 1184q-122 0 -207 80q-86 80 -86 200q0 121 86 201q84 78 207 78q122 0 211 -78q84 -79 84 -201q0 -120 -84 -200q-86 -80 -211 -80zM860 1552q-56 60 -138 26q-83 -35 -77 -114q0 -53 36 -89t89 -36q52 0 90 36q37 36 37 89
q0 51 -37 88zM924 928l28 129h256l-225 -1057h-248l23 102q-139 -127 -316 -127q-222 0 -327 162q-107 163 -52 430q51 228 199 373q147 141 361 141q215 0 301 -153zM524 188q264 0 338 332q39 170 -17 260q-57 92 -194 92q-123 0 -210 -89q-86 -87 -119 -246
q-38 -170 17 -259q55 -90 185 -90z" />
    <glyph glyph-name="atilde.ss02" horiz-adv-x="1200" 
d="M596 1280q-55 0 -78 -86h-174q57 270 262 270q66 0 166 -47q76 -39 117 -39q62 0 80 86h172q-55 -270 -262 -270q-69 0 -168 49q-83 37 -115 37zM924 928l28 129h256l-225 -1057h-248l23 102q-139 -127 -316 -127q-222 0 -327 162q-107 163 -52 430q51 228 199 373
q147 141 361 141q215 0 301 -153zM524 188q264 0 338 332q39 170 -17 260q-57 92 -194 92q-123 0 -210 -89q-86 -87 -119 -246q-38 -170 17 -259q55 -90 185 -90z" />
    <glyph glyph-name="adieresis.ss01.ss02" horiz-adv-x="1200" 
d="M643 1225q-41 -41 -98 -41q-58 0 -99 41q-40 40 -40 98t40 98q41 41 99 41q57 0 98 -41t41 -98t-41 -98zM938 1184q-59 0 -100 41t-41 98t42 98q43 41 99 41q57 0 98 -41t41 -98t-41 -98t-98 -41zM924 928l28 129h256l-225 -1057h-248l23 102q-139 -127 -316 -127
q-222 0 -327 162q-107 163 -52 430q51 228 199 373q147 141 361 141q215 0 301 -153zM524 188q264 0 338 332q39 170 -17 260q-57 92 -194 92q-123 0 -210 -89q-86 -87 -119 -246q-38 -170 17 -259q55 -90 185 -90z" />
    <glyph glyph-name="uni021B.ss01.ss05" horiz-adv-x="673" 
d="M571 1057h181l-41 -197h-181l-182 -860h-256l180 860h-161l41 197h161l66 307h258zM178 -78q58 0 96 -38q37 -37 37 -107q0 -105 -82 -187q-79 -80 -225 -90l25 103q103 12 137 90q-50 1 -84 32q-33 30 -33 78q0 53 37 86q38 33 92 33z" />
    <glyph glyph-name="udieresis.ss01.ss05" horiz-adv-x="1159" 
d="M641 1225q-41 -41 -98 -41q-58 0 -99 41t-41 98t41 98t99 41q57 0 98 -41t41 -98t-41 -98zM936 1184q-59 0 -100 41t-41 98t42 98q43 41 99 41q57 0 98 -41t41 -98t-41 -98t-98 -41zM784 465l125 592h258l-225 -1057h-250l31 143q-147 -168 -358 -168q-177 0 -254 116
q-76 114 -29 339l135 627h258l-133 -629q-49 -229 145 -229q110 0 190 68q81 69 105 198h2z" />
    <glyph glyph-name="t.ss05" horiz-adv-x="673" 
d="M571 1057h181l-41 -197h-181l-182 -860h-256l180 860h-161l41 197h161l66 307h258z" />
    <glyph glyph-name="tbar.ss05" horiz-adv-x="681" 
d="M760 1057l-41 -197h-180l-50 -233h166l-30 -160h-168l-99 -467h-258l99 467h-168l30 160h172l50 233h-164l41 197h164l65 307h256l-65 -307h180z" />
    <glyph glyph-name="tcaron.ss05" horiz-adv-x="673" 
d="M668 1118l137 340h248l-199 -340h-186zM379 1364h258l-66 -307h181l-41 -197h-181l-182 -860h-256l180 860h-161l41 197h161z" />
    <glyph glyph-name="uni0163.ss05" horiz-adv-x="673" 
d="M530 860l-182 -860h-49l-96 -88h18q91 0 141 -54t33 -134q-41 -170 -317 -170q-82 0 -156 12l23 108q53 -8 129 -8q112 0 129 78q7 38 -18 62t-83 24q-29 0 -51 -2l17 78l94 94h-70l180 860h-161l41 197h161l66 307h258l-66 -307h181l-41 -197h-181z" />
    <glyph glyph-name="uni021B.ss05" horiz-adv-x="673" 
d="M571 1057h181l-41 -197h-181l-182 -860h-256l180 860h-161l41 197h161l66 307h258zM150 -291h-115l43 203h248l-50 -227q-22 -94 -77 -135q-56 -41 -168 -46l-41 -2l22 101l37 2q77 1 92 73z" />
    <glyph glyph-name="udieresis.ss01.ss06" horiz-adv-x="1161" 
d="M643 1225q-41 -41 -98 -41q-58 0 -99 41q-40 40 -40 98t40 98q41 41 99 41q57 0 98 -41t41 -98t-41 -98zM938 1184q-59 0 -100 41t-41 98t42 98q43 41 99 41q57 0 98 -41t41 -98t-41 -98t-98 -41zM498 -25q-217 0 -334 140q-119 138 -70 377l121 565h258l-127 -598
q-28 -123 22 -193q50 -69 152 -69q100 0 165 62q67 64 91 181l131 617h260l-137 -639q-44 -210 -182 -326q-140 -117 -350 -117z" />
    <glyph glyph-name="u.ss06" horiz-adv-x="1161" 
d="M498 -25q-217 0 -334 140q-119 138 -70 377l121 565h258l-127 -598q-28 -123 22 -193q50 -69 152 -69q100 0 165 62q67 64 91 181l131 617h260l-137 -639q-44 -210 -182 -326q-140 -117 -350 -117z" />
    <glyph glyph-name="uacute.ss06" horiz-adv-x="1161" 
d="M807 1194h-201l180 295h283zM498 -25q-217 0 -334 140q-119 138 -70 377l121 565h258l-127 -598q-28 -123 22 -193q50 -69 152 -69q100 0 165 62q67 64 91 181l131 617h260l-137 -639q-44 -210 -182 -326q-140 -117 -350 -117z" />
    <glyph glyph-name="ubreve.ss06" horiz-adv-x="1161" 
d="M741 1184q-151 0 -233 81q-81 80 -74 224h195q-2 -68 34 -104q35 -35 97 -35q122 0 168 139h196q-37 -147 -139 -226q-101 -79 -244 -79zM498 -25q-217 0 -334 140q-119 138 -70 377l121 565h258l-127 -598q-28 -123 22 -193q50 -69 152 -69q100 0 165 62q67 64 91 181
l131 617h260l-137 -639q-44 -210 -182 -326q-140 -117 -350 -117z" />
    <glyph glyph-name="ucircumflex.ss06" horiz-adv-x="1161" 
d="M874 1194l-122 162l-193 -162h-242l299 295h310l180 -295h-232zM776 440l131 617h260l-137 -639q-44 -210 -182 -326q-140 -117 -350 -117q-217 0 -334 140q-119 138 -70 377l121 565h258l-127 -598q-28 -123 22 -193q50 -69 152 -69q100 0 165 62q67 64 91 181z" />
    <glyph glyph-name="udieresis.ss06" horiz-adv-x="1161" 
d="M639 1194h-254l53 242h254zM1040 1194h-254l54 242h252zM498 -25q-217 0 -334 140q-119 138 -70 377l121 565h258l-127 -598q-28 -123 22 -193q50 -69 152 -69q100 0 165 62q67 64 91 181l131 617h260l-137 -639q-44 -210 -182 -326q-140 -117 -350 -117z" />
    <glyph glyph-name="ugrave.ss06" horiz-adv-x="1161" 
d="M827 1194h-200l-140 295h285zM498 -25q-217 0 -334 140q-119 138 -70 377l121 565h258l-127 -598q-28 -123 22 -193q50 -69 152 -69q100 0 165 62q67 64 91 181l131 617h260l-137 -639q-44 -210 -182 -326q-140 -117 -350 -117z" />
    <glyph glyph-name="uhungarumlaut.ss06" horiz-adv-x="1161" 
d="M592 1194h-201l178 295h297zM1001 1194h-200l178 295h295zM498 -25q-217 0 -334 140q-119 138 -70 377l121 565h258l-127 -598q-28 -123 22 -193q50 -69 152 -69q100 0 165 62q67 64 91 181l131 617h260l-137 -639q-44 -210 -182 -326q-140 -117 -350 -117z" />
    <glyph glyph-name="umacron.ss06" horiz-adv-x="1161" 
d="M1038 1194h-653l39 180h653zM498 -25q-217 0 -334 140q-119 138 -70 377l121 565h258l-127 -598q-28 -123 22 -193q50 -69 152 -69q100 0 165 62q67 64 91 181l131 617h260l-137 -639q-44 -210 -182 -326q-140 -117 -350 -117z" />
    <glyph glyph-name="uogonek.ss06" horiz-adv-x="1161" 
d="M776 440l131 617h260l-137 -639q-33 -155 -120 -262t-220 -150q-213 -96 -231 -178q-11 -41 15 -64q25 -22 71 -22q40 0 104 16l-33 -153q-62 -21 -149 -21q-109 0 -175 61q-64 60 -46 152q22 111 174 183q-185 24 -277 161q-94 135 -49 351l121 565h258l-127 -598
q-28 -123 22 -193q50 -69 152 -69q100 0 165 62q67 64 91 181z" />
    <glyph glyph-name="uring.ss06" horiz-adv-x="1161" 
d="M770 1184q-122 0 -207 80q-86 80 -86 200q0 121 86 201q84 78 207 78q122 0 211 -78q84 -79 84 -201q0 -120 -84 -200q-86 -80 -211 -80zM682 1376q52 -59 137 -26q84 33 78 114q0 51 -37 87q-38 36 -90 36q-53 0 -89 -36t-36 -87q0 -55 37 -88zM498 -25q-217 0 -334 140
q-119 138 -70 377l121 565h258l-127 -598q-28 -123 22 -193q50 -69 152 -69q100 0 165 62q67 64 91 181l131 617h260l-137 -639q-44 -210 -182 -326q-140 -117 -350 -117z" />
    <glyph glyph-name="utilde.ss06" horiz-adv-x="1161" 
d="M518 1194h-174q57 270 262 270q66 0 166 -47q76 -39 117 -39q62 0 80 86h172q-55 -270 -262 -270q-69 0 -168 49q-83 37 -115 37q-55 0 -78 -86zM498 -25q-217 0 -334 140q-119 138 -70 377l121 565h258l-127 -598q-28 -123 22 -193q50 -69 152 -69q100 0 165 62
q67 64 91 181l131 617h260l-137 -639q-44 -210 -182 -326q-140 -117 -350 -117z" />
    <glyph glyph-name="ydieresis.ss01.ss07" horiz-adv-x="1069" 
d="M610 1225q-41 -41 -98 -41t-98 41t-41 98t41 98t98 41t98 -41t41 -98t-41 -98zM905 1184q-59 0 -100 41t-41 98t42 98q43 41 99 41q58 0 99 -41q40 -40 40 -98t-40 -98q-41 -41 -99 -41zM756 799l147 258h277l-615 -1000l-278 -458h-256l272 444l-182 1014h272l43 -328
q0 -7 7 -66q3 -23 7.5 -60.5t6.5 -51.5q6 -49 15 -132q10 -93 11 -106q195 353 273 486z" />
    <glyph glyph-name="y.ss07" horiz-adv-x="1069" 
d="M756 799l147 258h277l-615 -1000l-278 -458h-256l272 444l-182 1014h272l43 -328q0 -7 7 -66q3 -23 7.5 -60.5t6.5 -51.5q6 -49 15 -132q10 -93 11 -106q195 353 273 486z" />
    <glyph glyph-name="yacute.ss07" horiz-adv-x="1069" 
d="M756 1489h282l-262 -295h-201zM756 799l147 258h277l-615 -1000l-278 -458h-256l272 444l-182 1014h272l43 -328q0 -7 7 -66q3 -23 7.5 -60.5t6.5 -51.5q6 -49 15 -132q10 -93 11 -106q195 353 273 486z" />
    <glyph glyph-name="ycircumflex.ss07" horiz-adv-x="1069" 
d="M844 1194l-123 162l-193 -162h-241l299 295h309l180 -295h-231zM756 799l147 258h277l-615 -1000l-278 -458h-256l272 444l-182 1014h272l43 -328q0 -7 7 -66q3 -23 7.5 -60.5t6.5 -51.5q6 -49 15 -132q10 -93 11 -106q195 353 273 486z" />
    <glyph glyph-name="ydieresis.ss07" horiz-adv-x="1069" 
d="M406 1436h253l-53 -242h-254zM807 1436h252l-51 -242h-254zM756 799l147 258h277l-615 -1000l-278 -458h-256l272 444l-182 1014h272l43 -328q0 -7 7 -66q3 -23 7.5 -60.5t6.5 -51.5q6 -49 15 -132q10 -93 11 -106q195 353 273 486z" />
    <glyph glyph-name="ygrave.ss07" horiz-adv-x="1069" 
d="M741 1489l56 -295h-201l-139 295h284zM756 799l147 258h277l-615 -1000l-278 -458h-256l272 444l-182 1014h272l43 -328q0 -7 7 -66q3 -23 7.5 -60.5t6.5 -51.5q6 -49 15 -132q10 -93 11 -106q195 353 273 486z" />
    <glyph glyph-name="l.ss08" horiz-adv-x="559" 
d="M317 -6q-319 0 -256 328l242 1136h258l-242 -1134q-21 -125 78 -125h70l-41 -199q-63 -6 -109 -6z" />
    <glyph glyph-name="lacute.ss08" horiz-adv-x="559" 
d="M530 1546h-223l232 295h305zM317 -6q-319 0 -256 328l242 1136h258l-242 -1134q-21 -125 78 -125h70l-41 -199q-63 -6 -109 -6z" />
    <glyph glyph-name="lcaron.ss08" horiz-adv-x="745" 
d="M317 -6q-319 0 -256 328l242 1136h258l-242 -1134q-21 -125 78 -125h70l-41 -199q-63 -6 -109 -6zM776 1118h-186l137 340h250z" />
    <glyph glyph-name="uni013C.ss08" horiz-adv-x="559" 
d="M561 1458l-242 -1134q-21 -125 78 -125h70l-41 -199q-63 -6 -109 -6q-319 0 -256 328l242 1136h258zM53 -291h-114l43 203h247l-49 -227q-21 -93 -78 -135q-56 -41 -168 -46l-40 -2l22 101l37 2q76 1 92 73z" />
    <glyph glyph-name="ldot.ss08" horiz-adv-x="929" 
d="M317 -6q-319 0 -256 328l242 1136h258l-242 -1134q-21 -125 78 -125h70l-41 -199q-63 -6 -109 -6zM852 578h-299l63 294h299z" />
    <glyph glyph-name="lslash.ss08" horiz-adv-x="583" 
d="M637 782l-178 -80l-80 -378q-27 -125 76 -125h71l-41 -199q-67 -6 -110 -6q-157 0 -223 83q-66 82 -31 245l55 256l-184 -82l39 184l184 82l147 696h256l-120 -569l176 78z" />
    <glyph glyph-name="uni013C.ss01.ss08" horiz-adv-x="559" 
d="M561 1458l-242 -1134q-21 -125 78 -125h70l-41 -199q-63 -6 -109 -6q-319 0 -256 328l242 1136h258zM82 -78q58 0 96 -38q37 -37 37 -107q0 -105 -82 -187q-79 -80 -225 -90l24 103q104 12 138 90q-50 1 -84 32q-33 30 -33 78q0 53 37 86q38 33 92 33z" />
    <glyph glyph-name="ldot.ss01.ss08" horiz-adv-x="950" 
d="M317 -6q-319 0 -256 328l242 1136h258l-242 -1134q-21 -125 78 -125h70l-41 -199q-63 -6 -109 -6zM750 559q-74 0 -123 48t-49 120q0 71 49 117q50 47 123 47q66 0 116 -48q49 -48 49 -116q0 -72 -49 -120q-50 -48 -116 -48z" />
    <glyph glyph-name="fi.ss01" horiz-adv-x="1169" 
d="M1006 1427q41 41 100 41q58 0 102 -41q41 -44 41 -102q0 -59 -41 -100q-46 -41 -101 -41t-102 42t-42 99q0 59 43 102zM776 1057l-43 -197h-215l-184 -860h-256l182 860h-164l43 197h162l21 98q33 159 130 235t273 76q36 0 141 -6l-43 -198h-96q-123 0 -152 -134l-14 -71
h215zM952 0h-258l226 1057h258z" />
    <glyph glyph-name="fl.ss08" horiz-adv-x="1249" 
d="M561 1057h215l-43 -197h-215l-184 -860h-256l182 860h-164l43 197h162l21 98q33 159 130 235t273 76q36 0 141 -6l-43 -198h-96q-123 0 -152 -134zM1249 1458l-241 -1134q-21 -125 77 -125h70l-41 -199q-66 -6 -108 -6q-319 0 -256 328l241 1136h258z" />
    <glyph glyph-name="ordfeminine.ss02" horiz-adv-x="1042" 
d="M903 1325l29 131h235l-194 -919h-228l23 112q-111 -133 -279 -133q-198 0 -292 143q-94 141 -43 390q44 197 169 312q127 116 308 116q200 0 272 -152zM403 786q46 -79 154 -79q106 0 178 73q73 78 103 211q28 139 -24 217t-163 78q-204 0 -264 -270q-33 -151 16 -230z
" />
    <glyph glyph-name="t.sups.ss05" horiz-adv-x="606" 
d="M612 1458h154l-39 -178h-152l-157 -743h-234l158 743h-143l39 178h141l57 268h234z" />
    <glyph glyph-name="zero.ss09" horiz-adv-x="1957" 
d="M1950 -180h-1860v1818h1860v-1818zM733 373q99 -123 287 -123t289 123q98 122 98 356q0 235 -98 358q-101 123 -289 123t-287 -123q-100 -124 -100 -358q0 -235 100 -356zM1196 729q0 -309 -176 -309t-176 309q0 311 176 311t176 -311z" />
    <glyph glyph-name="one.ss09" horiz-adv-x="1957" 
d="M1950 -180h-1860v1818h1860v-1818zM948 891v-623h211v924h-170q-34 -89 -93 -124q-58 -34 -161 -34v-143h213z" />
    <glyph glyph-name="two.ss09" horiz-adv-x="1957" 
d="M1950 -180h-1860v1818h1860v-1818zM670 377l-4 -76h708v170h-475q15 94 143 150l64 26q138 62 202 137q62 72 62 183q0 123 -90 199q-91 77 -248 77q-162 0 -251 -84q-89 -85 -101 -235h199q1 70 41 110q39 39 108 39q141 0 141 -119q0 -96 -147 -157l-68 -29
q-274 -117 -284 -391z" />
    <glyph glyph-name="three.ss09" horiz-adv-x="1957" 
d="M1950 -180h-1860v1818h1860v-1818zM1028 250q164 0 262 79q99 79 99 210q0 77 -42 137q-41 59 -118 86q60 26 98 81q37 53 37 115q0 118 -91 185t-247 67q-162 0 -251 -72q-90 -73 -97 -212h194q15 125 154 125q68 0 106 -30q37 -30 37 -81q0 -119 -151 -119h-66v-145h64
q168 0 168 -131q0 -59 -44 -95t-118 -36q-173 0 -178 170h-195q1 -162 100 -248q98 -86 279 -86z" />
    <glyph glyph-name="four.ss09" horiz-adv-x="1957" 
d="M1950 -180h-1860v1818h1860v-1818zM1034 485v-204h205v204h123v166h-123v551h-211l-432 -516v-201h438zM1042 651h-290l290 342v-342z" />
    <glyph glyph-name="five.ss09" horiz-adv-x="1957" 
d="M1950 -180h-1860v1818h1860v-1818zM1022 242q159 0 257 88q99 88 99 233q0 137 -84 224t-229 87q-108 0 -174 -51l35 189h411v170h-567l-92 -537h192q44 86 152 86q73 0 120 -47q46 -46 46 -121q0 -72 -46 -118t-120 -46q-134 0 -164 119h-194q16 -127 112 -202
q95 -74 246 -74z" />
    <glyph glyph-name="six.ss09" horiz-adv-x="1957" 
d="M1950 -180h-1860v1818h1860v-1818zM1020 250q158 0 258 89q98 88 98 234q0 136 -88 224t-233 88q-141 0 -224 -92v10q7 133 55 194q46 60 138 60q117 0 147 -99h193q-21 120 -110 186q-88 66 -228 66q-189 0 -286 -127t-97 -368q0 -287 150 -400q93 -65 227 -65z
M1020 408q-71 0 -117 44q-45 43 -45 115t45 117t117 45q74 0 120 -45t46 -117q0 -69 -46 -114t-120 -45z" />
    <glyph glyph-name="seven.ss09" horiz-adv-x="1957" 
d="M1950 -180h-1860v1818h1860v-1818zM844 246h217q5 264 72 432q72 172 219 319v168h-652v-168h459q-140 -140 -225 -337q-86 -198 -90 -414z" />
    <glyph glyph-name="eight.ss09" horiz-adv-x="1957" 
d="M1950 -180h-1860v1818h1860v-1818zM750 326q100 -76 270 -76q172 0 272 76q101 77 101 202q0 165 -160 228q117 72 117 198q0 119 -88 188q-87 68 -242 68t-242 -68q-88 -69 -88 -188q0 -130 119 -198q-162 -63 -162 -228q0 -123 103 -202zM1130 850q-41 -35 -110 -35
q-68 0 -109 35t-41 92t41 90t109 33t109 -33q40 -33 40 -90q0 -59 -39 -92zM1149 442q-45 -36 -129 -36t-127 36q-47 38 -47 103q0 68 46 105q47 38 128 38t128 -38q46 -37 46 -105q0 -65 -45 -103z" />
    <glyph glyph-name="nine.ss09" horiz-adv-x="1957" 
d="M1950 -180h-1860v1818h1860v-1818zM1022 246q187 0 286 127t99 372q0 290 -154 402q-89 67 -227 67q-160 0 -260 -90t-100 -237q0 -135 90 -224q92 -90 237 -90q131 0 209 78l10 11q0 -7 -2 -15q-11 -128 -56 -184q-46 -57 -132 -57q-116 0 -143 100h-199
q21 -123 111 -192q89 -68 231 -68zM1026 733q-72 0 -116 45q-44 46 -44 115q0 68 44 112t116 44t116 -44t44 -112q0 -70 -45 -115t-115 -45z" />
    <glyph glyph-name="zero.ss10" horiz-adv-x="1957" 
d="M1950 -180h-1860v1818h1860v-1818zM315 1436v-1413h1409v1413h-1409zM1315 373q-102 -127 -295 -127q-194 0 -293 127q-100 124 -100 356q0 237 100 362q101 126 293 126t293 -126q100 -125 100 -362q0 -230 -98 -356zM850 729q0 -305 170 -305t170 305q0 307 -170 307
t-170 -307z" />
    <glyph glyph-name="one.ss10" horiz-adv-x="1957" 
d="M90 -180v1818h1860v-1818h-1860zM315 23h1409v1413h-1409v-1413zM1169 264h-211v639q-74 -16 -217 -16v151q109 5 167 37q59 33 89 121h172v-932z" />
    <glyph glyph-name="two.ss10" horiz-adv-x="1957" 
d="M90 -180v1818h1860v-1818h-1860zM315 23h1409v1413h-1409v-1413zM905 444h475v-180h-721l5 82q17 277 286 395l70 29q143 63 143 152q0 114 -135 114q-141 0 -145 -149h-207q10 155 100 242q91 88 256 88q159 0 251 -79q93 -80 93 -204q0 -111 -62 -185
q-64 -77 -204 -139l-63 -26q-127 -60 -142 -140z" />
    <glyph glyph-name="three.ss10" horiz-adv-x="1957" 
d="M90 -180v1818h1860v-1818h-1860zM315 23h1409v1413h-1409v-1413zM1022 422q74 0 115 33t41 92q0 123 -162 123h-70v157h72q147 0 147 113q0 50 -37 77q-38 27 -102 27q-140 0 -147 -124h-207q6 144 97 220q92 77 257 77q159 0 252 -70q92 -69 92 -189q0 -127 -125 -196
q148 -57 148 -223q0 -133 -99 -213q-100 -80 -266 -80q-187 0 -287 89q-98 88 -98 255h207q1 -87 44 -128q41 -40 128 -40z" />
    <glyph glyph-name="four.ss10" horiz-adv-x="1957" 
d="M90 -180v1818h1860v-1818h-1860zM315 23h1409v1413h-1409v-1413zM1280 264h-217v205h-438v207l436 520h219v-551h123v-176h-123v-205zM1071 645v326l-274 -326h274z" />
    <glyph glyph-name="five.ss10" horiz-adv-x="1957" 
d="M90 -180v1818h1860v-1818h-1860zM315 23h1409v1413h-1409v-1413zM1020 416q74 0 118 44t44 113t-44 115q-44 45 -118 45q-108 0 -148 -84h-200l92 547h577v-180h-411l-31 -170q66 45 164 45q147 0 234 -90t87 -228q0 -147 -102 -237q-106 -90 -262 -90q-148 0 -248 78
t-115 211h205q11 -54 53 -86q43 -33 105 -33z" />
    <glyph glyph-name="six.ss10" horiz-adv-x="1957" 
d="M90 -180v1818h1860v-1818h-1860zM315 23h1409v1413h-1409v-1413zM801 313q-154 115 -154 402q0 243 99 372q100 130 288 130q142 0 235 -70q89 -67 111 -195h-204q-27 101 -142 101q-88 0 -133 -59q-46 -59 -53 -189q83 86 217 86q151 0 240 -92q88 -94 88 -226
q0 -147 -102 -237t-261 -90q-134 0 -229 67zM1147 680q-44 43 -117 43q-72 0 -115 -43q-43 -44 -43 -113q0 -67 43 -109t115 -42t116 42t44 109q0 69 -43 113z" />
    <glyph glyph-name="seven.ss10" horiz-adv-x="1957" 
d="M90 -180v1818h1860v-1818h-1860zM315 23h1409v1413h-1409v-1413zM1061 264h-230q1 212 87 414q85 200 223 338h-453v180h664v-178q-147 -144 -219 -320q-68 -167 -72 -434z" />
    <glyph glyph-name="eight.ss10" horiz-adv-x="1957" 
d="M90 -180v1818h1860v-1818h-1860zM315 23h1409v1413h-1409v-1413zM643 528q0 166 152 228q-111 72 -111 198q0 124 89 193q90 70 247 70q156 0 246 -70q88 -69 88 -193q0 -125 -109 -198q152 -62 152 -228q0 -126 -102 -204t-275 -78q-174 0 -276 78q-101 77 -101 204z
M1124 1028q-40 31 -104 31q-65 0 -105 -31q-38 -29 -38 -86q0 -56 38 -88q39 -33 105 -33q66 -6 106 33q41 40 37 88t-39 86zM895 449q43 -37 125 -37t125 37q43 34 43 98q0 63 -43 100q-46 37 -125 37q-80 0 -123 -37q-45 -37 -45 -100q0 -64 43 -98z" />
    </font>
</defs>
</svg>
